<?xml version="1.0" encoding="UTF-8" standalone="no" ?>
<COLLADA xmlns="http://www.collada.org/2005/11/COLLADASchema" version="1.4.1">
  <asset>
    <contributor>
      <author>Assimp</author>
      <authoring_tool>Assimp Exporter</authoring_tool>
    </contributor>
    <created>2025-11-12T11:09:31</created>
    <modified>2025-11-12T11:09:31</modified>
    <unit name="meter" meter="1" />
    <up_axis>Y_UP</up_axis>
  </asset>
  <library_images>
  </library_images>
  <library_effects>
    <effect id="material_0-fx" name="">
      <profile_COMMON>
        <technique sid="standard">
          <phong>
            <emission>
              <color sid="emission">0   0   0   4.28026616e-41</color>
            </emission>
            <ambient>
              <color sid="ambient">0.719165564   0.882352889   0.352941155   4.28026616e-41</color>
            </ambient>
            <diffuse>
              <color sid="diffuse">0.719165564   0.882352889   0.352941155   4.28026616e-41</color>
            </diffuse>
            <specular>
              <color sid="specular">0.529999971   0.529999971   0.529999971   4.28026616e-41</color>
            </specular>
          </phong>
        </technique>
      </profile_COMMON>
    </effect>
  </library_effects>
  <library_materials>
    <material id="material_0" name="">
      <instance_effect url="#material_0-fx"/>
    </material>
  </library_materials>
  <library_geometries>
    <geometry id="mesh_0" name="" >
      <mesh>
        <source id="mesh_0-positions" name="mesh_0-positions">
          <float_array id="mesh_0-positions-array" count="2340"> -0.0165383443 0.0381525941 -0.0112046599 -0.0447348952 0.0104170199 7.56982627e-05 0.0145884305 0.0330803506 -0.0236529112 0.0287243631 -0.0164534561 -0.0293076038 0.0310959816 0.0102452962 -0.0302563906 0.0145884305 0.0330803506 -0.0236529112 -0.0459910035 -0.00339744682 0.000455857051 -0.0447348952 0.0104170199 7.56982627e-05 -0.0462300628 0.00349697657 -0.000801504706 -0.0414259434 -0.0186909679 -0.0012505051 -0.0338917524 -0.0286890529 -0.00431668712 -0.0087614283 -0.039302092 -0.0143404007 -0.0459910035 -0.00339744682 0.000455857051 -0.0414259434 -0.0186909679 -0.0012505051 -0.0447348952 0.0104170199 7.56982627e-05 0.0310959816 0.0102452962 -0.0302563906 0.0322342962 -0.00515371375 -0.0307238698 0.0324410573 0.000173337394 -0.0362050533 0.0322342962 -0.00515371375 -0.0307238698 0.0310959816 0.0102452962 -0.0302563906 0.0287243631 -0.0164534561 -0.0293076038 0.031010082 0.00994786527 -0.0356147885 0.0310959816 0.0102452962 -0.0302563906 0.0324410573 0.000173337394 -0.0362050533 0.0310959816 0.0102452962 -0.0302563906 0.0271459389 0.0196023993 -0.0286937356 0.0145884305 0.0330803506 -0.0236529112 -0.0338917524 -0.0286890529 -0.00431668712 -0.0223234892 -0.0362620614 -0.0090144882 -0.0087614283 -0.039302092 -0.0143404007 -0.0308635235 -0.0311645493 -0.0107440352 -0.0223234892 -0.0362620614 -0.0090144882 -0.0338917524 -0.0286890529 -0.00431668712 -0.0223234892 -0.0362620614 -0.0090144882 -0.0308635235 -0.0311645493 -0.0107440352 -0.0216117129 -0.0364185944 -0.0145405531 -0.0223234892 -0.0362620614 -0.0090144882 -0.0143313026 -0.0384472422 -0.0175359249 -0.0087614283 -0.039302092 -0.0143404007 -0.0143313026 -0.0384472422 -0.0175359249 -0.0223234892 -0.0362620614 -0.0090144882 -0.0216117129 -0.0364185944 -0.0145405531 -0.0447414517 -0.0105983419 -0.00052153971 -0.0414259434 -0.0186909679 -0.0012505051 -0.0459910035 -0.00339744682 0.000455857051 -0.0308635235 -0.0311645493 -0.0107440352 -0.0359805077 -0.0238132272 -0.026573956 -0.0308162123 -0.027281845 -0.0367815495 -0.0436090976 3.94916751e-05 -0.0358043313 -0.0409501642 -0.0103762103 -0.0392035842 -0.0419355631 -0.0129799666 -0.0279766321 0.0148877287 -0.0225989129 -0.0486711264 0.0222395286 -0.00844607502 -0.0491428971 0.0184721556 -0.0214315392 -0.0475966334 0.0222395286 -0.00844607502 -0.0491428971 0.0254699811 -0.00905258954 -0.0477127433 0.0184721556 -0.0214315392 -0.0475966334 0.0233677477 -0.0248975102 -0.0323742032 0.0177027881 -0.0307266489 -0.0249157567 0.0183769986 -0.029980896 -0.0304614902 0.0164857339 -0.0279986616 -0.0430495143 0.0233677477 -0.0248975102 -0.0323742032 0.0183769986 -0.029980896 -0.0304614902 -0.0165383443 0.0381525941 -0.0112046599 -0.0321605653 0.030223377 -0.00498366309 -0.0447348952 0.0104170199 7.56982627e-05 0.0278325137 -0.0182587579 -0.0341231227 0.0308149755 -0.010754915 -0.0355474353 0.0287243631 -0.0164534561 -0.0293076038 0.0308149755 -0.010754915 -0.0355474353 0.0322342962 -0.00515371375 -0.0307238698 0.0287243631 -0.0164534561 -0.0293076038 0.0322342962 -0.00515371375 -0.0307238698 0.0308149755 -0.010754915 -0.0355474353 0.0324410573 0.000173337394 -0.0362050533 0.031010082 0.00994786527 -0.0356147885 0.0289005339 0.0161202922 -0.0344326496 0.0310959816 0.0102452962 -0.0302563906 0.0289005339 0.0161202922 -0.0344326496 0.0271459389 0.0196023993 -0.0286937356 0.0310959816 0.0102452962 -0.0302563906 0.0271459389 0.0196023993 -0.0286937356 0.0289005339 0.0161202922 -0.0344326496 0.0257836524 0.0217158142 -0.0334935784 -0.0221426338 -0.0326150171 -0.0403311849 -0.0209616795 -0.0308804438 -0.0442870855 -0.00674019102 -0.0360031426 -0.0417326093 -0.0221426338 -0.0326150171 -0.0403311849 -0.0308635235 -0.0311645493 -0.0107440352 -0.0308162123 -0.027281845 -0.0367815495 -0.0308635235 -0.0311645493 -0.0107440352 -0.0221426338 -0.0326150171 -0.0403311849 -0.0216117129 -0.0364185944 -0.0145405531 -0.0221426338 -0.0326150171 -0.0403311849 -0.0323180854 -0.0219209529 -0.0438891053 -0.0209616795 -0.0308804438 -0.0442870855 -0.0430316329 -0.0154641885 -0.00610929728 -0.0447414517 -0.0105983419 -0.00052153971 -0.0419355631 -0.0129799666 -0.0279766321 -0.0447414517 -0.0105983419 -0.00052153971 -0.0430316329 -0.0154641885 -0.00610929728 -0.0414259434 -0.0186909679 -0.0012505051 -0.0409501642 -0.0103762103 -0.0392035842 -0.0370200574 -0.0200673323 -0.0362710953 -0.0419355631 -0.0129799666 -0.0279766321 -0.0209616795 -0.0308804438 -0.0442870855 -0.00671920832 -0.0343840308 -0.0447633862 -0.00674019102 -0.0360031426 -0.0417326093 -0.0066859494 -0.0318392888 -0.0471997857 -0.00671920832 -0.0343840308 -0.0447633862 -0.0209616795 -0.0308804438 -0.0442870855 -0.00664482266 -0.0287409853 -0.0486854315 -0.0182734504 -0.0252309963 -0.048635006 -0.00501336157 -0.0267025046 -0.0491511822 0.0221222658 0.00891420711 -0.0491234064 -0.00502864225 0.0267973691 -0.0491501689 0.0152385319 0.0207196977 -0.0490028262 -0.00502864225 0.0267973691 -0.0491501689 0.0221222658 0.00891420711 -0.0491234064 0.0222395286 -0.00844607502 -0.0491428971 0.0155599937 0.02633854 -0.0461871028 0.00344310771 0.0292306598 -0.0483040214 0.00450026989 0.0329468772 -0.0451766849 -0.00502864225 0.0267973691 -0.0491501689 0.00344310771 0.0292306598 -0.0483040214 0.0152385319 0.0207196977 -0.0490028262 0.00344310771 0.0292306598 -0.0483040214 -0.00502864225 0.0267973691 -0.0491501689 -0.00664494187 0.028831441 -0.0486854315 -0.0394229889 -0.00779369008 -0.0438349843 -0.0323180854 -0.0219209529 -0.0438891053 -0.0409501642 -0.0103762103 -0.0392035842 -0.0394229889 -0.00779369008 -0.0438349843 -0.0299831927 -0.0199550558 -0.046811223 -0.0323180854 -0.0219209529 -0.0438891053 -0.0460154265 -0.00437180605 -0.00458788918 -0.0447414517 -0.0105983419 -0.00052153971 -0.0459910035 -0.00339744682 0.000455857051 -0.0460154265 -0.00437180605 -0.00458788918 -0.0459910035 -0.00339744682 0.000455857051 -0.0462300628 0.00349697657 -0.000801504706 -0.0436090976 3.94916751e-05 -0.0358043313 -0.0460154265 -0.00437180605 -0.00458788918 -0.0462300628 0.00349697657 -0.000801504706 -0.0447414517 -0.0105983419 -0.00052153971 -0.0460154265 -0.00437180605 -0.00458788918 -0.0419355631 -0.0129799666 -0.0279766321 -0.0460154265 -0.00437180605 -0.00458788918 -0.0436090976 3.94916751e-05 -0.0358043313 -0.0419355631 -0.0129799666 -0.0279766321 -0.0447348952 0.0104170199 7.56982627e-05 -0.0448865443 0.0100725926 -0.00515747024 -0.0462300628 0.00349697657 -0.000801504706 -0.0448865443 0.0100725926 -0.00515747024 -0.0436090976 3.94916751e-05 -0.0358043313 -0.0462300628 0.00349697657 -0.000801504706 0.0133386105 -0.0198247693 -0.049148798 0.0148877287 -0.0225989129 -0.0486711264 -0.00501336157 -0.0267025046 -0.0491511822 0.0148877287 -0.0225989129 -0.0486711264 0.0133386105 -0.0198247693 -0.049148798 0.0222395286 -0.00844607502 -0.0491428971 -0.00502864225 0.0267973691 -0.0491501689 0.0133386105 -0.0198247693 -0.049148798 -0.00501336157 -0.0267025046 -0.0491511822 0.0133386105 -0.0198247693 -0.049148798 -0.00502864225 0.0267973691 -0.0491501689 0.0222395286 -0.00844607502 -0.0491428971 0.0044991374 -0.0328538343 -0.0451806784 -0.00671920832 -0.0343840308 -0.0447633862 -0.0066859494 -0.0318392888 -0.0471997857 0.0044991374 -0.0328538343 -0.0451806784 0.0164857339 -0.0279986616 -0.0430495143 0.0062336931 -0.034037713 -0.0419067144 0.0044991374 -0.0328538343 -0.0451806784 0.0062336931 -0.034037713 -0.0419067144 -0.00674019102 -0.0360031426 -0.0417326093 -0.00671920832 -0.0343840308 -0.0447633862 0.0044991374 -0.0328538343 -0.0451806784 -0.00674019102 -0.0360031426 -0.0417326093 0.0221222658 0.00891420711 -0.0491234064 0.0251362529 4.51458436e-05 -0.0486152768 0.0222395286 -0.00844607502 -0.0491428971 0.0254699811 -0.00905258954 -0.0477127433 0.0251362529 4.51458436e-05 -0.0486152768 0.0277947411 4.53557113e-05 -0.0469282269 0.0251362529 4.51458436e-05 -0.0486152768 0.0254699811 -0.00905258954 -0.0477127433 0.0222395286 -0.00844607502 -0.0491428971 0.0254699811 -0.00905258954 -0.0477127433 0.0203114245 -0.0236670915 -0.0446776152 0.0184721556 -0.0214315392 -0.0475966334 0.0233677477 -0.0248975102 -0.0323742032 0.0203114245 -0.0236670915 -0.0446776152 0.0278325137 -0.0182587579 -0.0341231227 0.0164857339 -0.0279986616 -0.0430495143 0.0203114245 -0.0236670915 -0.0446776152 0.0233677477 -0.0248975102 -0.0323742032 0.0246591493 -0.0233033728 -0.0278210044 0.0278325137 -0.0182587579 -0.0341231227 0.0287243631 -0.0164534561 -0.0293076038 0.0246591493 -0.0233033728 -0.0278210044 0.0233677477 -0.0248975102 -0.0323742032 0.0278325137 -0.0182587579 -0.0341231227 0.0177027881 -0.0307266489 -0.0249157567 0.0246591493 -0.0233033728 -0.0278210044 0.0287243631 -0.0164534561 -0.0293076038 0.0233677477 -0.0248975102 -0.0323742032 0.0246591493 -0.0233033728 -0.0278210044 0.0177027881 -0.0307266489 -0.0249157567 0.0114516383 -0.0318260677 -0.040822506 0.0164857339 -0.0279986616 -0.0430495143 0.0183769986 -0.029980896 -0.0304614902 0.0164857339 -0.0279986616 -0.0430495143 0.0114516383 -0.0318260677 -0.040822506 0.0062336931 -0.034037713 -0.0419067144 0.00523482962 -0.037461184 -0.0199117661 -0.0414259434 -0.0186909679 -0.0012505051 -0.0087614283 -0.039302092 -0.0143404007 0.00523482962 -0.037461184 -0.0199117661 0.0177027881 -0.0307266489 -0.0249157567 0.0287243631 -0.0164534561 -0.0293076038 -0.0414259434 -0.0186909679 -0.0012505051 0.00523482962 -0.037461184 -0.0199117661 -0.0447348952 0.0104170199 7.56982627e-05 -0.0447348952 0.0104170199 7.56982627e-05 0.00523482962 -0.037461184 -0.0199117661 0.0145884305 0.0330803506 -0.0236529112 0.00523482962 -0.037461184 -0.0199117661 0.0287243631 -0.0164534561 -0.0293076038 0.0145884305 0.0330803506 -0.0236529112 -0.000305817055 -0.0386455767 -0.0230095983 0.00523482962 -0.037461184 -0.0199117661 -0.0087614283 -0.039302092 -0.0143404007 0.00523482962 -0.037461184 -0.0199117661 -0.000305817055 -0.0386455767 -0.0230095983 0.00689122872 -0.0367170088 -0.0260903835 -0.0321605653 0.030223377 -0.00498366309 -0.0263279974 0.0341816396 -0.0125575662 -0.0328584611 0.0294936784 -0.0101299286 0.0227466077 0.0258395597 -0.0271647573 0.0271459389 0.0196023993 -0.0286937356 0.0257836524 0.0217158142 -0.0334935784 0.02054739 0.028132081 -0.0311409831 0.0227466077 0.0258395597 -0.0271647573 0.0257836524 0.0217158142 -0.0334935784 0.0271459389 0.0196023993 -0.0286937356 0.0227466077 0.0258395597 -0.0271647573 0.0145884305 0.0330803506 -0.0236529112 0.0227466077 0.0258395597 -0.0271647573 0.02054739 0.028132081 -0.0311409831 0.0145884305 0.0330803506 -0.0236529112 0.0164876506 0.0280875303 -0.0430496335 0.0155599937 0.02633854 -0.0461871028 0.00450026989 0.0329468772 -0.0451766849 -0.0321605653 0.030223377 -0.00498366309 -0.0403483957 0.0208954588 -0.00189244642 -0.0447348952 0.0104170199 7.56982627e-05 -0.00803138409 0.039302092 -0.0146237006 0.00206383364 0.0383749232 -0.0187107325 -0.00209208601 0.0389986858 -0.0225034356 -0.00803138409 0.039302092 -0.0146237006 -0.0165383443 0.0381525941 -0.0112046599 0.0145884305 0.0330803506 -0.0236529112 0.00206383364 0.0383749232 -0.0187107325 -0.00803138409 0.039302092 -0.0146237006 0.0145884305 0.0330803506 -0.0236529112 0.00206383364 0.0383749232 -0.0187107325 0.00649493141 0.0369700491 -0.0258222222 -0.00209208601 0.0389986858 -0.0225034356 0.00649493141 0.0369700491 -0.0258222222 -0.00360355596 0.0365902483 -0.0388250351 -0.00209208601 0.0389986858 -0.0225034356 0.00649493141 0.0369700491 -0.0258222222 0.00206383364 0.0383749232 -0.0187107325 0.0145884305 0.0330803506 -0.0236529112 -0.0067189699 0.0344743952 -0.0447633862 -0.00674030883 0.036093466 -0.0417326689 0.00450026989 0.0329468772 -0.0451766849 -0.00674030883 0.036093466 -0.0417326689 -0.0067189699 0.0344743952 -0.0447633862 -0.0209615007 0.0309707299 -0.0442872047 -0.0220648944 0.0327237807 -0.0403654575 -0.00674030883 0.036093466 -0.0417326689 -0.0209615007 0.0309707299 -0.0442872047 -0.00360355596 0.0365902483 -0.0388250351 -0.00674030883 0.036093466 -0.0417326689 -0.00209208601 0.0389986858 -0.0225034356 0.0279379915 0.00967981294 -0.0450788736 0.0289005339 0.0161202922 -0.0344326496 0.031010082 0.00994786527 -0.0356147885 0.0279379915 0.00967981294 -0.0450788736 0.031010082 0.00994786527 -0.0356147885 0.0324410573 0.000173337394 -0.0362050533 0.0295960549 4.54828769e-05 -0.0443459153 0.0279379915 0.00967981294 -0.0450788736 0.0324410573 0.000173337394 -0.0362050533 0.0279379915 0.00967981294 -0.0450788736 0.0295960549 4.54828769e-05 -0.0443459153 0.0277947411 4.53557113e-05 -0.0469282269 -0.0146893049 -0.0356503762 -0.0379909277 -0.0143313026 -0.0384472422 -0.0175359249 -0.0216117129 -0.0364185944 -0.0145405531 -0.0221426338 -0.0326150171 -0.0403311849 -0.0146893049 -0.0356503762 -0.0379909277 -0.0216117129 -0.0364185944 -0.0145405531 -0.0146893049 -0.0356503762 -0.0379909277 -0.0221426338 -0.0326150171 -0.0403311849 -0.00674019102 -0.0360031426 -0.0417326093 -0.0430316329 -0.0154641885 -0.00610929728 -0.0379856974 -0.0239783246 -0.00799888372 -0.0414259434 -0.0186909679 -0.0012505051 -0.0414259434 -0.0186909679 -0.0012505051 -0.0379856974 -0.0239783246 -0.00799888372 -0.0338917524 -0.0286890529 -0.00431668712 -0.0379856974 -0.0239783246 -0.00799888372 -0.0308635235 -0.0311645493 -0.0107440352 -0.0338917524 -0.0286890529 -0.00431668712 -0.0379856974 -0.0239783246 -0.00799888372 -0.0359805077 -0.0238132272 -0.026573956 -0.0308635235 -0.0311645493 -0.0107440352 -0.0323180854 -0.0219209529 -0.0438891053 -0.0338034928 -0.0231717862 -0.0402542949 -0.0409501642 -0.0103762103 -0.0392035842 -0.0338034928 -0.0231717862 -0.0402542949 -0.0370200574 -0.0200673323 -0.0362710953 -0.0409501642 -0.0103762103 -0.0392035842 -0.0338034928 -0.0231717862 -0.0402542949 -0.0221426338 -0.0326150171 -0.0403311849 -0.0308162123 -0.027281845 -0.0367815495 -0.0221426338 -0.0326150171 -0.0403311849 -0.0338034928 -0.0231717862 -0.0402542949 -0.0323180854 -0.0219209529 -0.0438891053 -0.0359805077 -0.0238132272 -0.026573956 -0.0338034928 -0.0231717862 -0.0402542949 -0.0308162123 -0.027281845 -0.0367815495 -0.0370200574 -0.0200673323 -0.0362710953 -0.0338034928 -0.0231717862 -0.0402542949 -0.0359805077 -0.0238132272 -0.026573956 0.00344310771 0.0292306598 -0.0483040214 0.0168365464 0.0229228064 -0.0479671359 0.0152385319 0.0207196977 -0.0490028262 0.0168365464 0.0229228064 -0.0479671359 0.00344310771 0.0292306598 -0.0483040214 0.0155599937 0.02633854 -0.0461871028 0.0168365464 0.0229228064 -0.0479671359 0.0221222658 0.00891420711 -0.0491234064 0.0152385319 0.0207196977 -0.0490028262 -0.00668571144 0.0319296531 -0.0471997857 0.00344310771 0.0292306598 -0.0483040214 -0.00664494187 0.028831441 -0.0486854315 -0.0067189699 0.0344743952 -0.0447633862 -0.00668571144 0.0319296531 -0.0471997857 -0.0209615007 0.0309707299 -0.0442872047 -0.00668571144 0.0319296531 -0.0471997857 -0.0067189699 0.0344743952 -0.0447633862 0.00450026989 0.0329468772 -0.0451766849 0.00344310771 0.0292306598 -0.0483040214 -0.00668571144 0.0319296531 -0.0471997857 0.00450026989 0.0329468772 -0.0451766849 -0.0334682018 0.00480610691 -0.0484634638 -0.0300670117 4.56923954e-05 -0.049131453 -0.0335437953 -0.00424137153 -0.0484864116 -0.0334682018 0.00480610691 -0.0484634638 -0.0247673988 0.0153632239 -0.049149394 -0.0300670117 4.56923954e-05 -0.049131453 -0.0247673988 0.0153632239 -0.049149394 -0.0334682018 0.00480610691 -0.0484634638 -0.027140528 0.0176519025 -0.0485930443 -0.00502864225 0.0267973691 -0.0491501689 -0.0182734504 0.0253213663 -0.0486350656 -0.00664494187 0.028831441 -0.0486854315 -0.0247673988 0.0153632239 -0.049149394 -0.0182734504 0.0253213663 -0.0486350656 -0.00502864225 0.0267973691 -0.0491501689 -0.0182734504 0.0253213663 -0.0486350656 -0.0247673988 0.0153632239 -0.049149394 -0.027140528 0.0176519025 -0.0485930443 -0.0182734504 0.0253213663 -0.0486350656 -0.027140528 0.0176519025 -0.0485930443 -0.0299833715 0.0200455058 -0.046811223 -0.0299831927 -0.0199550558 -0.046811223 -0.027140528 -0.0175615344 -0.0485929847 -0.0182734504 -0.0252309963 -0.048635006 -0.0365418941 -0.00699538831 -0.0466589928 -0.0299831927 -0.0199550558 -0.046811223 -0.0394229889 -0.00779369008 -0.0438349843 -0.027140528 -0.0175615344 -0.0485929847 -0.0365418941 -0.00699538831 -0.0466589928 -0.0335437953 -0.00424137153 -0.0484864116 -0.0365418941 -0.00699538831 -0.0466589928 -0.027140528 -0.0175615344 -0.0485929847 -0.0299831927 -0.0199550558 -0.046811223 -0.0323180854 -0.0219209529 -0.0438891053 -0.0197492018 -0.0283329207 -0.04698807 -0.0209616795 -0.0308804438 -0.0442870855 -0.0299831927 -0.0199550558 -0.046811223 -0.0197492018 -0.0283329207 -0.04698807 -0.0323180854 -0.0219209529 -0.0438891053 -0.0197492018 -0.0283329207 -0.04698807 -0.0299831927 -0.0199550558 -0.046811223 -0.0182734504 -0.0252309963 -0.048635006 -0.0197492018 -0.0283329207 -0.04698807 -0.0066859494 -0.0318392888 -0.0471997857 -0.0209616795 -0.0308804438 -0.0442870855 -0.0197492018 -0.0283329207 -0.04698807 -0.00664482266 -0.0287409853 -0.0486854315 -0.0066859494 -0.0318392888 -0.0471997857 -0.00664482266 -0.0287409853 -0.0486854315 -0.0197492018 -0.0283329207 -0.04698807 -0.0182734504 -0.0252309963 -0.048635006 -0.00664482266 -0.0287409853 -0.0486854315 0.0034451338 -0.029134538 -0.0483053327 -0.0066859494 -0.0318392888 -0.0471997857 0.0034451338 -0.029134538 -0.0483053327 0.0044991374 -0.0328538343 -0.0451806784 -0.0066859494 -0.0318392888 -0.0471997857 0.0148877287 -0.0225989129 -0.0486711264 0.0034451338 -0.029134538 -0.0483053327 -0.00501336157 -0.0267025046 -0.0491511822 0.0034451338 -0.029134538 -0.0483053327 -0.00664482266 -0.0287409853 -0.0486854315 -0.00501336157 -0.0267025046 -0.0491511822 0.0279414412 -0.00959013775 -0.0450742841 0.0203114245 -0.0236670915 -0.0446776152 0.0254699811 -0.00905258954 -0.0477127433 0.0279414412 -0.00959013775 -0.0450742841 0.0254699811 -0.00905258954 -0.0477127433 0.0277947411 4.53557113e-05 -0.0469282269 0.0295960549 4.54828769e-05 -0.0443459153 0.0279414412 -0.00959013775 -0.0450742841 0.0277947411 4.53557113e-05 -0.0469282269 0.0308149755 -0.010754915 -0.0355474353 0.0279414412 -0.00959013775 -0.0450742841 0.0324410573 0.000173337394 -0.0362050533 0.0279414412 -0.00959013775 -0.0450742841 0.0295960549 4.54828769e-05 -0.0443459153 0.0324410573 0.000173337394 -0.0362050533 0.0155577874 -0.0262447093 -0.0461916924 0.0203114245 -0.0236670915 -0.0446776152 0.0164857339 -0.0279986616 -0.0430495143 0.0044991374 -0.0328538343 -0.0451806784 0.0155577874 -0.0262447093 -0.0461916924 0.0164857339 -0.0279986616 -0.0430495143 0.0155577874 -0.0262447093 -0.0461916924 0.0148877287 -0.0225989129 -0.0486711264 0.0184721556 -0.0214315392 -0.0475966334 0.0203114245 -0.0236670915 -0.0446776152 0.0155577874 -0.0262447093 -0.0461916924 0.0184721556 -0.0214315392 -0.0475966334 0.0155577874 -0.0262447093 -0.0461916924 0.0034451338 -0.029134538 -0.0483053327 0.0148877287 -0.0225989129 -0.0486711264 0.0034451338 -0.029134538 -0.0483053327 0.0155577874 -0.0262447093 -0.0461916924 0.0044991374 -0.0328538343 -0.0451806784 0.0131489476 -0.0336471535 -0.0282697082 0.00689122872 -0.0367170088 -0.0260903835 0.0062336931 -0.034037713 -0.0419067144 0.0114516383 -0.0318260677 -0.040822506 0.0131489476 -0.0336471535 -0.0282697082 0.0062336931 -0.034037713 -0.0419067144 0.0131489476 -0.0336471535 -0.0282697082 0.0114516383 -0.0318260677 -0.040822506 0.0183769986 -0.029980896 -0.0304614902 0.0177027881 -0.0307266489 -0.0249157567 0.0131489476 -0.0336471535 -0.0282697082 0.0183769986 -0.029980896 -0.0304614902 0.00523482962 -0.037461184 -0.0199117661 0.0131489476 -0.0336471535 -0.0282697082 0.0177027881 -0.0307266489 -0.0249157567 0.0131489476 -0.0336471535 -0.0282697082 0.00523482962 -0.037461184 -0.0199117661 0.00689122872 -0.0367170088 -0.0260903835 -0.00787522644 -0.0392355174 -0.0197140574 -0.000305817055 -0.0386455767 -0.0230095983 -0.0087614283 -0.039302092 -0.0143404007 -0.0143313026 -0.0384472422 -0.0175359249 -0.00787522644 -0.0392355174 -0.0197140574 -0.0087614283 -0.039302092 -0.0143404007 -0.00787522644 -0.0392355174 -0.0197140574 -0.0146893049 -0.0356503762 -0.0379909277 -0.00674019102 -0.0360031426 -0.0417326093 -0.0146893049 -0.0356503762 -0.0379909277 -0.00787522644 -0.0392355174 -0.0197140574 -0.0143313026 -0.0384472422 -0.0175359249 0.00689122872 -0.0367170088 -0.0260903835 -0.00332907541 -0.0364771262 -0.0388466716 0.0062336931 -0.034037713 -0.0419067144 -0.000305817055 -0.0386455767 -0.0230095983 -0.00332907541 -0.0364771262 -0.0388466716 0.00689122872 -0.0367170088 -0.0260903835 0.0062336931 -0.034037713 -0.0419067144 -0.00332907541 -0.0364771262 -0.0388466716 -0.00674019102 -0.0360031426 -0.0417326093 -0.00332907541 -0.0364771262 -0.0388466716 -0.00787522644 -0.0392355174 -0.0197140574 -0.00674019102 -0.0360031426 -0.0417326093 -0.00787522644 -0.0392355174 -0.0197140574 -0.00332907541 -0.0364771262 -0.0388466716 -0.000305817055 -0.0386455767 -0.0230095983 -0.0254319627 0.0346371382 -0.00771552185 -0.0321605653 0.030223377 -0.00498366309 -0.0165383443 0.0381525941 -0.0112046599 -0.0254319627 0.0346371382 -0.00771552185 -0.0263279974 0.0341816396 -0.0125575662 -0.0321605653 0.030223377 -0.00498366309 0.0142407417 0.0331015699 -0.0288065076 0.00649493141 0.0369700491 -0.0258222222 0.0145884305 0.0330803506 -0.0236529112 0.02054739 0.028132081 -0.0311409831 0.0142407417 0.0331015699 -0.0288065076 0.0145884305 0.0330803506 -0.0236529112 0.0142407417 0.0331015699 -0.0288065076 0.0164876506 0.0280875303 -0.0430496335 0.0114563042 0.0319140181 -0.0408212543 0.0164876506 0.0280875303 -0.0430496335 0.0142407417 0.0331015699 -0.0288065076 0.02054739 0.028132081 -0.0311409831 0.00649493141 0.0369700491 -0.0258222222 0.00624262588 0.0341272689 -0.0418929458 -0.00360355596 0.0365902483 -0.0388250351 -0.00674030883 0.036093466 -0.0417326689 0.00624262588 0.0341272689 -0.0418929458 0.00450026989 0.0329468772 -0.0451766849 0.00624262588 0.0341272689 -0.0418929458 -0.00674030883 0.036093466 -0.0417326689 -0.00360355596 0.0365902483 -0.0388250351 0.00624262588 0.0341272689 -0.0418929458 0.0164876506 0.0280875303 -0.0430496335 0.00450026989 0.0329468772 -0.0451766849 0.0164876506 0.0280875303 -0.0430496335 0.00624262588 0.0341272689 -0.0418929458 0.0114563042 0.0319140181 -0.0408212543 0.00624262588 0.0341272689 -0.0418929458 0.0142407417 0.0331015699 -0.0288065076 0.0114563042 0.0319140181 -0.0408212543 0.0142407417 0.0331015699 -0.0288065076 0.00624262588 0.0341272689 -0.0418929458 0.00649493141 0.0369700491 -0.0258222222 -0.00803138409 0.039302092 -0.0146237006 -0.0112023652 0.0391172431 -0.0186988711 -0.0165383443 0.0381525941 -0.0112046599 -0.0112023652 0.0391172431 -0.0186988711 -0.00803138409 0.039302092 -0.0146237006 -0.00209208601 0.0389986858 -0.0225034356 -0.00674030883 0.036093466 -0.0417326689 -0.0112023652 0.0391172431 -0.0186988711 -0.00209208601 0.0389986858 -0.0225034356 0.0254700389 0.00914292131 -0.0477128625 0.0279379915 0.00967981294 -0.0450788736 0.0277947411 4.53557113e-05 -0.0469282269 0.0251362529 4.51458436e-05 -0.0486152768 0.0254700389 0.00914292131 -0.0477128625 0.0277947411 4.53557113e-05 -0.0469282269 0.0254700389 0.00914292131 -0.0477128625 0.0251362529 4.51458436e-05 -0.0486152768 0.0221222658 0.00891420711 -0.0491234064 0.0168365464 0.0229228064 -0.0479671359 0.0254700389 0.00914292131 -0.0477128625 0.0221222658 0.00891420711 -0.0491234064 0.0289005339 0.0161202922 -0.0344326496 0.0262601003 0.0166869983 -0.0411458611 0.0257836524 0.0217158142 -0.0334935784 0.0279379915 0.00967981294 -0.0450788736 0.0262601003 0.0166869983 -0.0411458611 0.0289005339 0.0161202922 -0.0344326496 -0.0392668545 -0.0187335536 -0.027228713 -0.0379856974 -0.0239783246 -0.00799888372 -0.0430316329 -0.0154641885 -0.00610929728 -0.0392668545 -0.0187335536 -0.027228713 -0.0430316329 -0.0154641885 -0.00610929728 -0.0419355631 -0.0129799666 -0.0279766321 -0.0370200574 -0.0200673323 -0.0362710953 -0.0392668545 -0.0187335536 -0.027228713 -0.0419355631 -0.0129799666 -0.0279766321 -0.0392668545 -0.0187335536 -0.027228713 -0.0370200574 -0.0200673323 -0.0362710953 -0.0359805077 -0.0238132272 -0.026573956 -0.0379856974 -0.0239783246 -0.00799888372 -0.0392668545 -0.0187335536 -0.027228713 -0.0359805077 -0.0238132272 -0.026573956 -0.027140528 0.0176519025 -0.0485930443 -0.0364611894 0.00721369497 -0.046674192 -0.0299833715 0.0200455058 -0.046811223 -0.0334682018 0.00480610691 -0.0484634638 -0.0364611894 0.00721369497 -0.046674192 -0.027140528 0.0176519025 -0.0485930443 -0.0364611894 0.00721369497 -0.046674192 -0.0334682018 0.00480610691 -0.0484634638 -0.0335437953 -0.00424137153 -0.0484864116 -0.0365418941 -0.00699538831 -0.0466589928 -0.0364611894 0.00721369497 -0.046674192 -0.0335437953 -0.00424137153 -0.0484864116 -0.0197492018 0.0284231622 -0.0469881296 -0.0182734504 0.0253213663 -0.0486350656 -0.0299833715 0.0200455058 -0.046811223 -0.00668571144 0.0319296531 -0.0471997857 -0.0197492018 0.0284231622 -0.0469881296 -0.0209615007 0.0309707299 -0.0442872047 -0.0197492018 0.0284231622 -0.0469881296 -0.00668571144 0.0319296531 -0.0471997857 -0.00664494187 0.028831441 -0.0486854315 -0.0182734504 0.0253213663 -0.0486350656 -0.0197492018 0.0284231622 -0.0469881296 -0.00664494187 0.028831441 -0.0486854315 -0.0182734504 -0.0252309963 -0.048635006 -0.0247486532 -0.0152864438 -0.049151063 -0.00501336157 -0.0267025046 -0.0491511822 -0.027140528 -0.0175615344 -0.0485929847 -0.0247486532 -0.0152864438 -0.049151063 -0.0182734504 -0.0252309963 -0.048635006 -0.0247673988 0.0153632239 -0.049149394 -0.0247486532 -0.0152864438 -0.049151063 -0.0300670117 4.56923954e-05 -0.049131453 -0.0300670117 4.56923954e-05 -0.049131453 -0.0247486532 -0.0152864438 -0.049151063 -0.0335437953 -0.00424137153 -0.0484864116 -0.0247486532 -0.0152864438 -0.049151063 -0.027140528 -0.0175615344 -0.0485929847 -0.0335437953 -0.00424137153 -0.0484864116 -0.0247486532 -0.0152864438 -0.049151063 -0.00502864225 0.0267973691 -0.0491501689 -0.00501336157 -0.0267025046 -0.0491511822 -0.0247486532 -0.0152864438 -0.049151063 -0.0247673988 0.0153632239 -0.049149394 -0.00502864225 0.0267973691 -0.0491501689 0.0203114245 -0.0236670915 -0.0446776152 0.0262240395 -0.0166674275 -0.0411431789 0.0278325137 -0.0182587579 -0.0341231227 0.0279414412 -0.00959013775 -0.0450742841 0.0262240395 -0.0166674275 -0.0411431789 0.0203114245 -0.0236670915 -0.0446776152 0.0262240395 -0.0166674275 -0.0411431789 0.0308149755 -0.010754915 -0.0355474353 0.0278325137 -0.0182587579 -0.0341231227 0.0262240395 -0.0166674275 -0.0411431789 0.0279414412 -0.00959013775 -0.0450742841 0.0308149755 -0.010754915 -0.0355474353 -0.0380056202 0.0240553282 -0.00790917873 -0.0321605653 0.030223377 -0.00498366309 -0.0328584611 0.0294936784 -0.0101299286 -0.0380056202 0.0240553282 -0.00790917873 -0.0403483957 0.0208954588 -0.00189244642 -0.0321605653 0.030223377 -0.00498366309 -0.0263279974 0.0341816396 -0.0125575662 -0.0305180252 0.0276257005 -0.0367892981 -0.0328584611 0.0294936784 -0.0101299286 -0.0305180252 0.0276257005 -0.0367892981 -0.0263279974 0.0341816396 -0.0125575662 -0.0220648944 0.0327237807 -0.0403654575 -0.0423086584 0.0170826521 -0.0059133172 -0.0448865443 0.0100725926 -0.00515747024 -0.0447348952 0.0104170199 7.56982627e-05 -0.0403483957 0.0208954588 -0.00189244642 -0.0423086584 0.0170826521 -0.0059133172 -0.0447348952 0.0104170199 7.56982627e-05 -0.0380056202 0.0240553282 -0.00790917873 -0.0423086584 0.0170826521 -0.0059133172 -0.0403483957 0.0208954588 -0.00189244642 -0.0423086584 0.0170826521 -0.0059133172 -0.0380056202 0.0240553282 -0.00790917873 -0.036901623 0.0203361511 -0.0362805724 -0.0112023652 0.0391172431 -0.0186988711 -0.0196723714 0.0371479057 -0.0153904557 -0.0165383443 0.0381525941 -0.0112046599 -0.0263279974 0.0341816396 -0.0125575662 -0.0196723714 0.0371479057 -0.0153904557 -0.0220648944 0.0327237807 -0.0403654575 -0.0196723714 0.0371479057 -0.0153904557 -0.0254319627 0.0346371382 -0.00771552185 -0.0165383443 0.0381525941 -0.0112046599 -0.0254319627 0.0346371382 -0.00771552185 -0.0196723714 0.0371479057 -0.0153904557 -0.0263279974 0.0341816396 -0.0125575662 -0.0132669583 0.0360419601 -0.0381028652 -0.00674030883 0.036093466 -0.0417326689 -0.0220648944 0.0327237807 -0.0403654575 -0.0132669583 0.0360419601 -0.0381028652 -0.0112023652 0.0391172431 -0.0186988711 -0.00674030883 0.036093466 -0.0417326689 -0.0196723714 0.0371479057 -0.0153904557 -0.0132669583 0.0360419601 -0.0381028652 -0.0220648944 0.0327237807 -0.0403654575 -0.0132669583 0.0360419601 -0.0381028652 -0.0196723714 0.0371479057 -0.0153904557 -0.0112023652 0.0391172431 -0.0186988711 0.0203088988 0.023761848 -0.0446770787 0.0262601003 0.0166869983 -0.0411458611 0.0279379915 0.00967981294 -0.0450788736 0.0254700389 0.00914292131 -0.0477128625 0.0203088988 0.023761848 -0.0446770787 0.0279379915 0.00967981294 -0.0450788736 0.0203088988 0.023761848 -0.0446770787 0.0254700389 0.00914292131 -0.0477128625 0.0168365464 0.0229228064 -0.0479671359 0.0164876506 0.0280875303 -0.0430496335 0.0203088988 0.023761848 -0.0446770787 0.0155599937 0.02633854 -0.0461871028 0.0203088988 0.023761848 -0.0446770787 0.0168365464 0.0229228064 -0.0479671359 0.0155599937 0.02633854 -0.0461871028 0.0262601003 0.0166869983 -0.0411458611 0.0203088988 0.023761848 -0.0446770787 0.0257836524 0.0217158142 -0.0334935784 0.0203088988 0.023761848 -0.0446770787 0.02054739 0.028132081 -0.0311409831 0.0257836524 0.0217158142 -0.0334935784 0.0203088988 0.023761848 -0.0446770787 0.0164876506 0.0280875303 -0.0430496335 0.02054739 0.028132081 -0.0311409831 -0.0197492018 0.0284231622 -0.0469881296 -0.0323177874 0.0220112354 -0.0438891649 -0.0209615007 0.0309707299 -0.0442872047 -0.0323177874 0.0220112354 -0.0438891649 -0.0197492018 0.0284231622 -0.0469881296 -0.0299833715 0.0200455058 -0.046811223 -0.0323177874 0.0220112354 -0.0438891649 -0.0220648944 0.0327237807 -0.0403654575 -0.0209615007 0.0309707299 -0.0442872047 -0.0448865443 0.0100725926 -0.00515747024 -0.0409740061 0.0112302098 -0.0384070277 -0.0436090976 3.94916751e-05 -0.0358043313 -0.0423086584 0.0170826521 -0.0059133172 -0.0409740061 0.0112302098 -0.0384070277 -0.0448865443 0.0100725926 -0.00515747024 -0.0409740061 0.0112302098 -0.0384070277 -0.0423086584 0.0170826521 -0.0059133172 -0.036901623 0.0203361511 -0.0362805724 -0.0436090976 3.94916751e-05 -0.0358043313 -0.0423428267 6.5172695e-05 -0.041012764 -0.0409501642 -0.0103762103 -0.0392035842 -0.0423428267 6.5172695e-05 -0.041012764 -0.0394229889 -0.00779369008 -0.0438349843 -0.0409501642 -0.0103762103 -0.0392035842 -0.0409740061 0.0112302098 -0.0384070277 -0.0423428267 6.5172695e-05 -0.041012764 -0.0436090976 3.94916751e-05 -0.0358043313 -0.0423428267 6.5172695e-05 -0.041012764 -0.0365418941 -0.00699538831 -0.0466589928 -0.0394229889 -0.00779369008 -0.0438349843 -0.0339250863 0.0234304536 -0.0398216844 -0.0380056202 0.0240553282 -0.00790917873 -0.0328584611 0.0294936784 -0.0101299286 -0.0305180252 0.0276257005 -0.0367892981 -0.0339250863 0.0234304536 -0.0398216844 -0.0328584611 0.0294936784 -0.0101299286 -0.0380056202 0.0240553282 -0.00790917873 -0.0339250863 0.0234304536 -0.0398216844 -0.036901623 0.0203361511 -0.0362805724 -0.0339250863 0.0234304536 -0.0398216844 -0.0409740061 0.0112302098 -0.0384070277 -0.036901623 0.0203361511 -0.0362805724 -0.0409740061 0.0112302098 -0.0384070277 -0.0339250863 0.0234304536 -0.0398216844 -0.0323177874 0.0220112354 -0.0438891649 -0.0339250863 0.0234304536 -0.0398216844 -0.0305180252 0.0276257005 -0.0367892981 -0.0220648944 0.0327237807 -0.0403654575 -0.0323177874 0.0220112354 -0.0438891649 -0.0339250863 0.0234304536 -0.0398216844 -0.0220648944 0.0327237807 -0.0403654575 -0.039427489 0.00781118823 -0.0438659191 -0.0364611894 0.00721369497 -0.046674192 -0.0365418941 -0.00699538831 -0.0466589928 -0.0423428267 6.5172695e-05 -0.041012764 -0.039427489 0.00781118823 -0.0438659191 -0.0365418941 -0.00699538831 -0.0466589928 -0.039427489 0.00781118823 -0.0438659191 -0.0423428267 6.5172695e-05 -0.041012764 -0.0409740061 0.0112302098 -0.0384070277 -0.039427489 0.00781118823 -0.0438659191 -0.0409740061 0.0112302098 -0.0384070277 -0.0323177874 0.0220112354 -0.0438891649 -0.0364611894 0.00721369497 -0.046674192 -0.039427489 0.00781118823 -0.0438659191 -0.0299833715 0.0200455058 -0.046811223 -0.039427489 0.00781118823 -0.0438659191 -0.0323177874 0.0220112354 -0.0438891649 -0.0299833715 0.0200455058 -0.046811223 </float_array>
          <technique_common>
            <accessor count="780" offset="0" source="#mesh_0-positions-array" stride="3">
              <param name="X" type="float" />
              <param name="Y" type="float" />
              <param name="Z" type="float" />
            </accessor>
          </technique_common>
        </source>
        <vertices id="mesh_0-vertices">
          <input semantic="POSITION" source="#mesh_0-positions" />
        </vertices>
        <polylist count="260" material="defaultMaterial">
          <input offset="0" semantic="VERTEX" source="#mesh_0-vertices" />
          <vcount>3 3 3 3 3 3 3 3 3 3 3 3 3 3 3 3 3 3 3 3 3 3 3 3 3 3 3 3 3 3 3 3 3 3 3 3 3 3 3 3 3 3 3 3 3 3 3 3 3 3 3 3 3 3 3 3 3 3 3 3 3 3 3 3 3 3 3 3 3 3 3 3 3 3 3 3 3 3 3 3 3 3 3 3 3 3 3 3 3 3 3 3 3 3 3 3 3 3 3 3 3 3 3 3 3 3 3 3 3 3 3 3 3 3 3 3 3 3 3 3 3 3 3 3 3 3 3 3 3 3 3 3 3 3 3 3 3 3 3 3 3 3 3 3 3 3 3 3 3 3 3 3 3 3 3 3 3 3 3 3 3 3 3 3 3 3 3 3 3 3 3 3 3 3 3 3 3 3 3 3 3 3 3 3 3 3 3 3 3 3 3 3 3 3 3 3 3 3 3 3 3 3 3 3 3 3 3 3 3 3 3 3 3 3 3 3 3 3 3 3 3 3 3 3 3 3 3 3 3 3 3 3 3 3 3 3 3 3 3 3 3 3 3 3 3 3 3 3 3 3 3 3 3 3 3 3 3 3 3 3 </vcount>
          <p>0 1 2 3 4 5 6 7 8 9 10 11 12 13 14 15 16 17 18 19 20 21 22 23 24 25 26 27 28 29 30 31 32 33 34 35 36 37 38 39 40 41 42 43 44 45 46 47 48 49 50 51 52 53 54 55 56 57 58 59 60 61 62 63 64 65 66 67 68 69 70 71 72 73 74 75 76 77 78 79 80 81 82 83 84 85 86 87 88 89 90 91 92 93 94 95 96 97 98 99 100 101 102 103 104 105 106 107 108 109 110 111 112 113 114 115 116 117 118 119 120 121 122 123 124 125 126 127 128 129 130 131 132 133 134 135 136 137 138 139 140 141 142 143 144 145 146 147 148 149 150 151 152 153 154 155 156 157 158 159 160 161 162 163 164 165 166 167 168 169 170 171 172 173 174 175 176 177 178 179 180 181 182 183 184 185 186 187 188 189 190 191 192 193 194 195 196 197 198 199 200 201 202 203 204 205 206 207 208 209 210 211 212 213 214 215 216 217 218 219 220 221 222 223 224 225 226 227 228 229 230 231 232 233 234 235 236 237 238 239 240 241 242 243 244 245 246 247 248 249 250 251 252 253 254 255 256 257 258 259 260 261 262 263 264 265 266 267 268 269 270 271 272 273 274 275 276 277 278 279 280 281 282 283 284 285 286 287 288 289 290 291 292 293 294 295 296 297 298 299 300 301 302 303 304 305 306 307 308 309 310 311 312 313 314 315 316 317 318 319 320 321 322 323 324 325 326 327 328 329 330 331 332 333 334 335 336 337 338 339 340 341 342 343 344 345 346 347 348 349 350 351 352 353 354 355 356 357 358 359 360 361 362 363 364 365 366 367 368 369 370 371 372 373 374 375 376 377 378 379 380 381 382 383 384 385 386 387 388 389 390 391 392 393 394 395 396 397 398 399 400 401 402 403 404 405 406 407 408 409 410 411 412 413 414 415 416 417 418 419 420 421 422 423 424 425 426 427 428 429 430 431 432 433 434 435 436 437 438 439 440 441 442 443 444 445 446 447 448 449 450 451 452 453 454 455 456 457 458 459 460 461 462 463 464 465 466 467 468 469 470 471 472 473 474 475 476 477 478 479 480 481 482 483 484 485 486 487 488 489 490 491 492 493 494 495 496 497 498 499 500 501 502 503 504 505 506 507 508 509 510 511 512 513 514 515 516 517 518 519 520 521 522 523 524 525 526 527 528 529 530 531 532 533 534 535 536 537 538 539 540 541 542 543 544 545 546 547 548 549 550 551 552 553 554 555 556 557 558 559 560 561 562 563 564 565 566 567 568 569 570 571 572 573 574 575 576 577 578 579 580 581 582 583 584 585 586 587 588 589 590 591 592 593 594 595 596 597 598 599 600 601 602 603 604 605 606 607 608 609 610 611 612 613 614 615 616 617 618 619 620 621 622 623 624 625 626 627 628 629 630 631 632 633 634 635 636 637 638 639 640 641 642 643 644 645 646 647 648 649 650 651 652 653 654 655 656 657 658 659 660 661 662 663 664 665 666 667 668 669 670 671 672 673 674 675 676 677 678 679 680 681 682 683 684 685 686 687 688 689 690 691 692 693 694 695 696 697 698 699 700 701 702 703 704 705 706 707 708 709 710 711 712 713 714 715 716 717 718 719 720 721 722 723 724 725 726 727 728 729 730 731 732 733 734 735 736 737 738 739 740 741 742 743 744 745 746 747 748 749 750 751 752 753 754 755 756 757 758 759 760 761 762 763 764 765 766 767 768 769 770 771 772 773 774 775 776 777 778 779 </p>
        </polylist>
      </mesh>
    </geometry>
  </library_geometries>
  <library_controllers>
  </library_controllers>
  <library_visual_scenes>
    <visual_scene id="Scene" name="Scene">
      <node id="node" name="" type="NODE">
        <matrix sid="matrix">1 0 0 0 0 1 0 0 0 0 1 0 0 0 0 1</matrix>
        <instance_geometry url="#mesh_0">
          <bind_material>
            <technique_common>
              <instance_material symbol="defaultMaterial" target="#material_0">
              </instance_material>
            </technique_common>
          </bind_material>
        </instance_geometry>
      </node>
    </visual_scene>
  </library_visual_scenes>
  <scene>
    <instance_visual_scene url="#Scene" />
  </scene>
</COLLADA>
