<?xml version="1.0" encoding="UTF-8" standalone="no" ?>
<COLLADA xmlns="http://www.collada.org/2005/11/COLLADASchema" version="1.4.1">
  <asset>
    <contributor>
      <author>Assimp</author>
      <authoring_tool>Assimp Exporter</authoring_tool>
    </contributor>
    <created>2025-11-12T11:09:31</created>
    <modified>2025-11-12T11:09:31</modified>
    <unit name="meter" meter="1" />
    <up_axis>Y_UP</up_axis>
  </asset>
  <library_images>
  </library_images>
  <library_effects>
    <effect id="material_0-fx" name="">
      <profile_COMMON>
        <technique sid="standard">
          <phong>
            <emission>
              <color sid="emission">0   0   0   4.28026616e-41</color>
            </emission>
            <ambient>
              <color sid="ambient">0.719165564   0.882352889   0.352941155   4.28026616e-41</color>
            </ambient>
            <diffuse>
              <color sid="diffuse">0.719165564   0.882352889   0.352941155   4.28026616e-41</color>
            </diffuse>
            <specular>
              <color sid="specular">0.529999971   0.529999971   0.529999971   4.28026616e-41</color>
            </specular>
          </phong>
        </technique>
      </profile_COMMON>
    </effect>
  </library_effects>
  <library_materials>
    <material id="material_0" name="">
      <instance_effect url="#material_0-fx"/>
    </material>
  </library_materials>
  <library_geometries>
    <geometry id="mesh_0" name="" >
      <mesh>
        <source id="mesh_0-positions" name="mesh_0-positions">
          <float_array id="mesh_0-positions-array" count="702"> 0.00978298299 0.0416970178 -0.141456947 -0.00686439313 0.0421793759 -0.141457021 0.00315433671 0.0427331403 0.141357154 0.0418511629 -0.00944348518 -0.141457006 -0.0381251536 -0.0181773379 -0.141456977 -0.00686439313 0.0421793759 -0.141457021 0.0418511629 -0.00944348518 -0.141457006 -0.00928945374 -0.0415116809 -0.141456977 -0.0381251536 -0.0181773379 -0.141456977 -0.00686439313 0.0421793759 -0.141457021 -0.0133544067 0.040536128 0.141357049 0.00315433671 0.0427331403 0.141357154 -0.0133544067 0.040536128 0.141357049 -0.0277656484 0.0321887322 0.141357258 0.00315433671 0.0427331403 0.141357154 0.0324737728 0.0283256397 0.141357124 0.0387944579 0.0184073802 0.141357124 0.0343171656 0.0254975893 -0.141456917 0.0416214615 0.0105703333 0.141357183 0.0324737728 0.0283256397 0.141357124 0.00315433671 0.0427331403 0.141357154 -0.0277656484 0.0321887322 0.141357258 0.0416214615 0.0105703333 0.141357183 0.00315433671 0.0427331403 0.141357154 0.0416214615 0.0105703333 0.141357183 0.0387944579 0.0184073802 0.141357124 0.0324737728 0.0283256397 0.141357124 -0.0407764465 -0.0102955448 0.141357228 -0.040821895 0.0111264149 0.141357124 -0.0420201905 -0.00205756584 0.141357124 -0.040821895 0.0111264149 0.141357124 -0.0407764465 -0.0102955448 0.141357228 -0.0277656484 0.0321887322 0.141357258 -0.0381251536 -0.0181773379 -0.141456977 -0.034541335 0.0248241313 -0.141456977 -0.00686439313 0.0421793759 -0.141457021 0.00978298299 0.0416970178 -0.141456947 0.024978485 0.034880653 -0.141456962 -0.00686439313 0.0421793759 -0.141457021 0.024978485 0.034880653 -0.141456962 0.0324737728 0.0283256397 0.141357124 0.0343171656 0.0254975893 -0.141456917 0.0258274525 -0.0339329727 0.141357094 0.0141993742 -0.0402613543 0.141357094 0.0229224917 -0.0360691175 -0.141456932 0.0350349396 -0.0246388204 -0.141456977 0.0258274525 -0.0339329727 0.141357094 0.0229224917 -0.0360691175 -0.141456932 -0.0381251536 -0.0181773379 -0.141456977 -0.024484897 -0.034695331 -0.141456962 -0.033823546 -0.025312284 -0.141456962 -0.00928945374 -0.0415116809 -0.141456977 -0.024484897 -0.034695331 -0.141456962 -0.0381251536 -0.0181773379 -0.141456977 -0.0381251536 -0.0181773379 -0.141456977 -0.0409521423 -0.010340278 -0.141456947 -0.0421958677 -0.00210230821 -0.141456932 -0.0407764465 -0.0102955448 0.141357228 -0.0409521423 -0.010340278 -0.141456947 -0.0381251536 -0.0181773379 -0.141456977 -0.0409521423 -0.010340278 -0.141456947 -0.0420201905 -0.00205756584 0.141357124 -0.0421958677 -0.00210230821 -0.141456932 -0.0409521423 -0.010340278 -0.141456947 -0.0407764465 -0.0102955448 0.141357228 -0.0420201905 -0.00205756584 0.141357124 -0.0184019823 -0.0381705537 0.141357154 -0.00928945374 -0.0415116809 -0.141456977 -0.00230924948 -0.042458348 0.141357124 -0.0184019823 -0.0381705537 0.141357154 -0.024484897 -0.034695331 -0.141456962 -0.00928945374 -0.0415116809 -0.141456977 0.0418511629 -0.00944348518 -0.141457006 0.0426894873 0.00228761416 -0.141456947 0.0430182666 -0.00259407959 0.141357139 0.0426894873 0.00228761416 -0.141456947 0.0416214615 0.0105703333 0.141357183 0.0430182666 -0.00259407959 0.141357139 0.0387944579 0.0184073802 0.141357124 0.0386187546 0.0183626395 -0.141456977 0.0343171656 0.0254975893 -0.141456917 0.0416214615 0.0105703333 0.141357183 0.0386187546 0.0183626395 -0.141456977 0.0387944579 0.0184073802 0.141357124 0.0386187546 0.0183626395 -0.141456977 0.024978485 0.034880653 -0.141456962 0.0343171656 0.0254975893 -0.141456917 0.024978485 0.034880653 -0.141456962 0.0386187546 0.0183626395 -0.141456977 -0.00686439313 0.0421793759 -0.141457021 0.0141993742 -0.0402613543 0.141357094 0.0404744148 -0.0140768522 0.141357183 -0.00230924948 -0.042458348 0.141357124 0.0404744148 -0.0140768522 0.141357183 -0.0184019823 -0.0381705537 0.141357154 -0.00230924948 -0.042458348 0.141357124 0.0416214615 0.0105703333 0.141357183 0.0404744148 -0.0140768522 0.141357183 0.0430182666 -0.00259407959 0.141357139 -0.0184019823 -0.0381705537 0.141357154 0.0404744148 -0.0140768522 0.141357183 -0.0407764465 -0.0102955448 0.141357228 -0.0407764465 -0.0102955448 0.141357228 0.0404744148 -0.0140768522 0.141357183 -0.0277656484 0.0321887322 0.141357258 0.0404744148 -0.0140768522 0.141357183 0.0416214615 0.0105703333 0.141357183 -0.0277656484 0.0321887322 0.141357258 0.0404744148 -0.0140768522 0.141357183 0.0418511629 -0.00944348518 -0.141457006 0.0430182666 -0.00259407959 0.141357139 0.0404744148 -0.0140768522 0.141357183 0.0350349396 -0.0246388204 -0.141456977 0.0418511629 -0.00944348518 -0.141457006 -0.034541335 0.0248241313 -0.141456977 -0.0224290155 0.0362543501 -0.141456962 -0.00686439313 0.0421793759 -0.141457021 -0.0224290155 0.0362543501 -0.141456962 -0.034541335 0.0248241313 -0.141456977 -0.0277656484 0.0321887322 0.141357258 -0.0224290155 0.0362543501 -0.141456962 -0.0133544067 0.040536128 0.141357049 -0.00686439313 0.0421793759 -0.141457021 -0.0133544067 0.040536128 0.141357049 -0.0224290155 0.0362543501 -0.141456962 -0.0277656484 0.0321887322 0.141357258 -0.0413575098 0.00962896552 -0.141456962 -0.0381251536 -0.0181773379 -0.141456977 -0.0421958677 -0.00210230821 -0.141456932 -0.0413575098 0.00962896552 -0.141456962 -0.034541335 0.0248241313 -0.141456977 -0.0381251536 -0.0181773379 -0.141456977 -0.0420201905 -0.00205756584 0.141357124 -0.0413575098 0.00962896552 -0.141456962 -0.0421958677 -0.00210230821 -0.141456932 -0.040821895 0.0111264149 0.141357124 -0.0413575098 0.00962896552 -0.141456962 -0.0420201905 -0.00205756584 0.141357124 -0.0360867567 0.0218922496 0.141357064 -0.040821895 0.0111264149 0.141357124 -0.0277656484 0.0321887322 0.141357258 -0.034541335 0.0248241313 -0.141456977 -0.0360867567 0.0218922496 0.141357064 -0.0277656484 0.0321887322 0.141357258 -0.0360867567 0.0218922496 0.141357064 -0.0413575098 0.00962896552 -0.141456962 -0.040821895 0.0111264149 0.141357124 -0.0413575098 0.00962896552 -0.141456962 -0.0360867567 0.0218922496 0.141357064 -0.034541335 0.0248241313 -0.141456977 0.0324737728 0.0283256397 0.141357124 0.019246988 0.0384453535 0.141357094 0.00315433671 0.0427331403 0.141357154 0.024978485 0.034880653 -0.141456962 0.019246988 0.0384453535 0.141357094 0.0324737728 0.0283256397 0.141357124 0.019246988 0.0384453535 0.141357094 0.00978298299 0.0416970178 -0.141456947 0.00315433671 0.0427331403 0.141357154 0.019246988 0.0384453535 0.141357094 0.024978485 0.034880653 -0.141456962 0.00978298299 0.0416970178 -0.141456947 0.0141993742 -0.0402613543 0.141357094 0.00735784136 -0.0419940948 -0.141456962 0.0229224917 -0.0360691175 -0.141456932 0.00735784136 -0.0419940948 -0.141456962 0.0350349396 -0.0246388204 -0.141456977 0.0229224917 -0.0360691175 -0.141456932 -0.00928945374 -0.0415116809 -0.141456977 0.00735784136 -0.0419940948 -0.141456962 -0.00230924948 -0.042458348 0.141357124 0.00735784136 -0.0419940948 -0.141456962 0.0141993742 -0.0402613543 0.141357094 -0.00230924948 -0.042458348 0.141357124 0.00735784136 -0.0419940948 -0.141456962 -0.00928945374 -0.0415116809 -0.141456977 0.0418511629 -0.00944348518 -0.141457006 0.0350349396 -0.0246388204 -0.141456977 0.00735784136 -0.0419940948 -0.141456962 0.0418511629 -0.00944348518 -0.141457006 -0.0379494429 -0.0181325916 0.141357124 -0.0407764465 -0.0102955448 0.141357228 -0.0381251536 -0.0181773379 -0.141456977 -0.024484897 -0.034695331 -0.141456962 -0.028036939 -0.0314261913 0.141357139 -0.033823546 -0.025312284 -0.141456962 -0.0184019823 -0.0381705537 0.141357154 -0.028036939 -0.0314261913 0.141357139 -0.024484897 -0.034695331 -0.141456962 -0.028036939 -0.0314261913 0.141357139 -0.0184019823 -0.0381705537 0.141357154 -0.0407764465 -0.0102955448 0.141357228 0.0426894873 0.00228761416 -0.141456947 0.0414457507 0.0105255917 -0.141456977 0.0416214615 0.0105703333 0.141357183 0.0414457507 0.0105255917 -0.141456977 0.0386187546 0.0183626395 -0.141456977 0.0416214615 0.0105703333 0.141357183 0.0414457507 0.0105255917 -0.141456977 0.0426894873 0.00228761416 -0.141456947 0.0418511629 -0.00944348518 -0.141457006 0.0414457507 0.0105255917 -0.141456977 0.0418511629 -0.00944348518 -0.141457006 -0.00686439313 0.0421793759 -0.141457021 0.0386187546 0.0183626395 -0.141456977 0.0414457507 0.0105255917 -0.141456977 -0.00686439313 0.0421793759 -0.141457021 0.034321934 -0.0257988796 0.141357124 0.0141993742 -0.0402613543 0.141357094 0.0258274525 -0.0339329727 0.141357094 0.034321934 -0.0257988796 0.141357124 0.0404744148 -0.0140768522 0.141357183 0.0141993742 -0.0402613543 0.141357094 0.0350349396 -0.0246388204 -0.141456977 0.034321934 -0.0257988796 0.141357124 0.0258274525 -0.0339329727 0.141357094 0.0404744148 -0.0140768522 0.141357183 0.034321934 -0.0257988796 0.141357124 0.0350349396 -0.0246388204 -0.141456977 -0.028036939 -0.0314261913 0.141357139 -0.0336478651 -0.0252675433 0.141357139 -0.033823546 -0.025312284 -0.141456962 -0.0336478651 -0.0252675433 0.141357139 -0.0381251536 -0.0181773379 -0.141456977 -0.033823546 -0.025312284 -0.141456962 -0.0336478651 -0.0252675433 0.141357139 -0.0379494429 -0.0181325916 0.141357124 -0.0381251536 -0.0181773379 -0.141456977 -0.0379494429 -0.0181325916 0.141357124 -0.0336478651 -0.0252675433 0.141357139 -0.0407764465 -0.0102955448 0.141357228 -0.0336478651 -0.0252675433 0.141357139 -0.028036939 -0.0314261913 0.141357139 -0.0407764465 -0.0102955448 0.141357228 </float_array>
          <technique_common>
            <accessor count="234" offset="0" source="#mesh_0-positions-array" stride="3">
              <param name="X" type="float" />
              <param name="Y" type="float" />
              <param name="Z" type="float" />
            </accessor>
          </technique_common>
        </source>
        <vertices id="mesh_0-vertices">
          <input semantic="POSITION" source="#mesh_0-positions" />
        </vertices>
        <polylist count="78" material="defaultMaterial">
          <input offset="0" semantic="VERTEX" source="#mesh_0-vertices" />
          <vcount>3 3 3 3 3 3 3 3 3 3 3 3 3 3 3 3 3 3 3 3 3 3 3 3 3 3 3 3 3 3 3 3 3 3 3 3 3 3 3 3 3 3 3 3 3 3 3 3 3 3 3 3 3 3 3 3 3 3 3 3 3 3 3 3 3 3 3 3 3 3 3 3 3 3 3 3 3 3 </vcount>
          <p>0 1 2 3 4 5 6 7 8 9 10 11 12 13 14 15 16 17 18 19 20 21 22 23 24 25 26 27 28 29 30 31 32 33 34 35 36 37 38 39 40 41 42 43 44 45 46 47 48 49 50 51 52 53 54 55 56 57 58 59 60 61 62 63 64 65 66 67 68 69 70 71 72 73 74 75 76 77 78 79 80 81 82 83 84 85 86 87 88 89 90 91 92 93 94 95 96 97 98 99 100 101 102 103 104 105 106 107 108 109 110 111 112 113 114 115 116 117 118 119 120 121 122 123 124 125 126 127 128 129 130 131 132 133 134 135 136 137 138 139 140 141 142 143 144 145 146 147 148 149 150 151 152 153 154 155 156 157 158 159 160 161 162 163 164 165 166 167 168 169 170 171 172 173 174 175 176 177 178 179 180 181 182 183 184 185 186 187 188 189 190 191 192 193 194 195 196 197 198 199 200 201 202 203 204 205 206 207 208 209 210 211 212 213 214 215 216 217 218 219 220 221 222 223 224 225 226 227 228 229 230 231 232 233 </p>
        </polylist>
      </mesh>
    </geometry>
  </library_geometries>
  <library_controllers>
  </library_controllers>
  <library_visual_scenes>
    <visual_scene id="Scene" name="Scene">
      <node id="node" name="" type="NODE">
        <matrix sid="matrix">1 0 0 0 0 1 0 0 0 0 1 0 0 0 0 1</matrix>
        <instance_geometry url="#mesh_0">
          <bind_material>
            <technique_common>
              <instance_material symbol="defaultMaterial" target="#material_0">
              </instance_material>
            </technique_common>
          </bind_material>
        </instance_geometry>
      </node>
    </visual_scene>
  </library_visual_scenes>
  <scene>
    <instance_visual_scene url="#Scene" />
  </scene>
</COLLADA>
