<?xml version="1.0" encoding="UTF-8" standalone="no" ?>
<COLLADA xmlns="http://www.collada.org/2005/11/COLLADASchema" version="1.4.1">
  <asset>
    <contributor>
      <author>Assimp</author>
      <authoring_tool>Assimp Exporter</authoring_tool>
    </contributor>
    <created>2025-11-12T11:09:31</created>
    <modified>2025-11-12T11:09:31</modified>
    <unit name="meter" meter="1" />
    <up_axis>Y_UP</up_axis>
  </asset>
  <library_images>
  </library_images>
  <library_effects>
    <effect id="material_0-fx" name="">
      <profile_COMMON>
        <technique sid="standard">
          <phong>
            <emission>
              <color sid="emission">0   0   0   4.28026616e-41</color>
            </emission>
            <ambient>
              <color sid="ambient">0.719165564   0.882352889   0.352941155   4.28026616e-41</color>
            </ambient>
            <diffuse>
              <color sid="diffuse">0.719165564   0.882352889   0.352941155   4.28026616e-41</color>
            </diffuse>
            <specular>
              <color sid="specular">0.529999971   0.529999971   0.529999971   4.28026616e-41</color>
            </specular>
          </phong>
        </technique>
      </profile_COMMON>
    </effect>
  </library_effects>
  <library_materials>
    <material id="material_0" name="">
      <instance_effect url="#material_0-fx"/>
    </material>
  </library_materials>
  <library_geometries>
    <geometry id="mesh_0" name="" >
      <mesh>
        <source id="mesh_0-positions" name="mesh_0-positions">
          <float_array id="mesh_0-positions-array" count="1080"> -0.00691506546 -0.0374563448 0.0491511859 0.0195962545 -0.0264712889 0.0491512455 -0.0334365927 -0.0264712498 0.0491512455 -0.00692036282 0.0375452228 0.0491510034 -0.0174201019 0.036045257 -0.013029635 -0.0212709196 0.0346907713 0.0491509996 -0.0212709121 -0.0346002243 0.0491510667 -0.00691506546 -0.0374563448 0.0491511859 -0.0334365927 -0.0264712498 0.0491512455 -0.0294199232 -0.0299547203 -0.00822966918 -0.0212709121 -0.0346002243 0.0491510667 -0.0334365927 -0.0264712498 0.0491512455 0.0155797713 0.0300452877 -0.0262296814 0.0189947672 0.0287139304 -0.0175805688 0.0213333778 0.0247027911 -0.0285310745 0.0306533314 -0.00556849083 0.0448550023 0.0292672981 -0.0105801728 -0.0288724303 0.0306629427 7.04995618e-05 -0.0322292447 0.0261684991 0.0176923499 -0.0304649472 0.0294259526 0.0092760371 -0.0317681432 0.0213333778 0.0247027911 -0.0285310745 0.0294259526 0.0092760371 -0.0317681432 0.0155797713 0.0300452877 -0.0262296814 0.0213333778 0.0247027911 -0.0285310745 0.0155797713 0.0300452877 -0.0262296814 0.0294259526 0.0092760371 -0.0317681432 0.00357962772 0.0360452607 -0.0214296579 0.0294259526 0.0092760371 -0.0317681432 -0.0400084369 -0.0176017918 -0.00399440248 0.00357962772 0.0360452607 -0.0214296579 0.0195962545 -0.0264712889 0.0491512455 0.0262286942 -0.017719401 0.0412596464 0.0277251806 -0.0143053979 0.0491510071 0.0262286942 -0.017719401 0.0412596464 0.0292672981 -0.0105801728 -0.0288724303 0.0277251806 -0.0143053979 0.0491510071 0.0292672981 -0.0105801728 -0.0288724303 0.0262286942 -0.017719401 0.0412596464 0.0261680577 -0.0176018346 -0.0304649454 0.0262286942 -0.017719401 0.0412596464 0.0234532338 -0.0234721862 -0.0223038178 0.0261680577 -0.0176018346 -0.0304649454 -0.0174201019 0.036045257 -0.013029635 -0.029420251 0.0300451983 -0.00822967291 -0.0212709196 0.0346907713 0.0491509996 -0.029420251 0.0300451983 -0.00822967291 -0.040008422 0.0176923368 -0.0039944048 -0.0351735167 0.0247027893 -0.0059282775 -0.0400084369 -0.0176017918 -0.00399440248 -0.040008422 0.0176923368 -0.0039944048 0.00357962772 0.0360452607 -0.0214296579 -0.00692036282 0.0375452228 0.0491510034 -0.00692020683 0.0375452675 -0.0172296762 -0.0174201019 0.036045257 -0.013029635 -0.00692020683 0.0375452675 -0.0172296762 -0.029420251 0.0300451983 -0.00822967291 -0.0174201019 0.036045257 -0.013029635 -0.040008422 0.0176923368 -0.0039944048 -0.00692020683 0.0375452675 -0.0172296762 0.00357962772 0.0360452607 -0.0214296579 -0.00692020683 0.0375452675 -0.0172296762 -0.040008422 0.0176923368 -0.0039944048 -0.029420251 0.0300451983 -0.00822967291 0.00812510028 0.035674125 -0.00605875393 0.0155797713 0.0300452877 -0.0262296814 0.00357962772 0.0360452607 -0.0214296579 0.00812510028 0.035674125 -0.00605875393 0.0103593515 0.0348909497 0.0227705836 0.0189947672 0.0287139304 -0.0175805688 0.0155797713 0.0300452877 -0.0262296814 0.00812510028 0.035674125 -0.00605875393 0.0189947672 0.0287139304 -0.0175805688 0.00743048405 0.0346906818 0.0491510034 -0.00692036282 0.0375452228 0.0491510034 0.0195962917 0.0265617352 0.0491511188 -0.0174200498 -0.0359547772 -0.0130297504 -0.0212709121 -0.0346002243 0.0491510667 -0.0294199232 -0.0299547203 -0.00822966918 -0.0212709121 -0.0346002243 0.0491510667 -0.0174200498 -0.0359547772 -0.0130297504 -0.00691506546 -0.0374563448 0.0491511859 -0.0174200498 -0.0359547772 -0.0130297504 -0.00692019239 -0.0374548286 -0.0172296129 -0.00691506546 -0.0374563448 0.0491511859 -0.0174200498 -0.0359547772 -0.0130297504 0.0261680577 -0.0176018346 -0.0304649454 0.015579748 -0.0299547706 -0.0262296163 -0.0174200498 -0.0359547772 -0.0130297504 0.0294259526 0.0092760371 -0.0317681432 0.0261680577 -0.0176018346 -0.0304649454 0.0294259526 0.0092760371 -0.0317681432 -0.0174200498 -0.0359547772 -0.0130297504 -0.0400084369 -0.0176017918 -0.00399440248 -0.0415660404 -0.0143053932 0.0491511263 -0.0400084369 -0.0176017918 -0.00399440248 -0.0334365927 -0.0264712498 0.0491512455 -0.0351736061 -0.0246123429 -0.00592827518 -0.0294199232 -0.0299547203 -0.00822966918 -0.0334365927 -0.0264712498 0.0491512455 -0.0400084369 -0.0176017918 -0.00399440248 -0.0351736061 -0.0246123429 -0.00592827518 -0.0334365927 -0.0264712498 0.0491512455 -0.0351736061 -0.0246123429 -0.00592827518 -0.0174200498 -0.0359547772 -0.0130297504 -0.0294199232 -0.0299547203 -0.00822966918 -0.0174200498 -0.0359547772 -0.0130297504 -0.0351736061 -0.0246123429 -0.00592827518 -0.0400084369 -0.0176017918 -0.00399440248 -0.0444201492 4.5245677e-05 -0.00222962862 -0.0444204882 4.52867062e-05 0.049151063 -0.043266248 0.00927596819 -0.00269114878 -0.040008422 0.0176923368 -0.0039944048 -0.0444201492 4.5245677e-05 -0.00222962862 -0.043266248 0.00927596819 -0.00269114878 -0.0444201492 4.5245677e-05 -0.00222962862 -0.040008422 0.0176923368 -0.0039944048 -0.0400084369 -0.0176017918 -0.00399440248 0.0292672981 -0.0105801728 -0.0288724303 0.0294259395 -0.00918554422 -0.0317681432 0.0306629427 7.04995618e-05 -0.0322292447 0.0294259395 -0.00918554422 -0.0317681432 0.0292672981 -0.0105801728 -0.0288724303 0.0261680577 -0.0176018346 -0.0304649454 0.0294259395 -0.00918554422 -0.0317681432 0.0294259526 0.0092760371 -0.0317681432 0.0306629427 7.04995618e-05 -0.0322292447 0.0294259526 0.0092760371 -0.0317681432 0.0294259395 -0.00918554422 -0.0317681432 0.0261680577 -0.0176018346 -0.0304649454 0.0103593515 0.0348909497 0.0227705836 0.0199503284 0.0279771518 0.0332163572 0.0189947672 0.0287139304 -0.0175805688 0.0199503284 0.0279771518 0.0332163572 0.00743048405 0.0346906818 0.0491510034 0.0195962917 0.0265617352 0.0491511188 0.00743048405 0.0346906818 0.0491510034 0.0199503284 0.0279771518 0.0332163572 0.0103593515 0.0348909497 0.0227705836 0.030579811 4.52514687e-05 0.0491511822 0.0306533314 -0.00556849083 0.0448550023 0.0306629427 7.04995618e-05 -0.0322292447 0.0277253576 0.0143959234 0.049151063 0.030579811 4.52514687e-05 0.0491511822 0.0300589837 0.00725654094 0.0445930958 0.0306533314 -0.00556849083 0.0448550023 0.030579811 4.52514687e-05 0.0491511822 0.0277251806 -0.0143053979 0.0491510071 0.030579811 4.52514687e-05 0.0491511822 0.0195962545 -0.0264712889 0.0491512455 0.0277251806 -0.0143053979 0.0491510071 0.0195962545 -0.0264712889 0.0491512455 0.030579811 4.52514687e-05 0.0491511822 0.0195962917 0.0265617352 0.0491511188 0.030579811 4.52514687e-05 0.0491511822 0.0277253576 0.0143959234 0.049151063 0.0195962917 0.0265617352 0.0491511188 0.0292672981 -0.0105801728 -0.0288724303 0.0293247085 -0.00957673509 0.0449069738 0.0277251806 -0.0143053979 0.0491510071 0.0293247085 -0.00957673509 0.0449069738 0.0306533314 -0.00556849083 0.0448550023 0.0277251806 -0.0143053979 0.0491510071 0.0306533314 -0.00556849083 0.0448550023 0.0293247085 -0.00957673509 0.0449069738 0.0292672981 -0.0105801728 -0.0288724303 0.0294259526 0.0092760371 -0.0317681432 0.0305888038 0.00366935902 -0.0301628709 0.0306629427 7.04995618e-05 -0.0322292447 0.0305888038 0.00366935902 -0.0301628709 0.0294259526 0.0092760371 -0.0317681432 0.0300589837 0.00725654094 0.0445930958 0.0305888038 0.00366935902 -0.0301628709 0.030579811 4.52514687e-05 0.0491511822 0.0306629427 7.04995618e-05 -0.0322292447 0.030579811 4.52514687e-05 0.0491511822 0.0305888038 0.00366935902 -0.0301628709 0.0300589837 0.00725654094 0.0445930958 0.0268810894 0.0180115979 0.0407571793 0.0277253576 0.0143959234 0.049151063 0.0300589837 0.00725654094 0.0445930958 0.0277253576 0.0143959234 0.049151063 0.0268810894 0.0180115979 0.0407571793 0.0195962917 0.0265617352 0.0491511188 0.0268810894 0.0180115979 0.0407571793 0.0199503284 0.0279771518 0.0332163572 0.0195962917 0.0265617352 0.0491511188 0.00743049057 -0.03460031 0.0491510667 0.0195962545 -0.0264712889 0.0491512455 -0.00691506546 -0.0374563448 0.0491511859 0.0234532338 -0.0234721862 -0.0223038178 0.0136777284 -0.0327993259 -0.0119453045 0.015579748 -0.0299547706 -0.0262296163 0.00164036884 -0.0372201242 0.000772777887 0.0136777284 -0.0327993259 -0.0119453045 0.0111509524 -0.034417063 0.0236331262 0.0261680577 -0.0176018346 -0.0304649454 0.0213333853 -0.0246122852 -0.0285310708 0.015579748 -0.0299547706 -0.0262296163 0.0213333853 -0.0246122852 -0.0285310708 0.0234532338 -0.0234721862 -0.0223038178 0.015579748 -0.0299547706 -0.0262296163 0.0234532338 -0.0234721862 -0.0223038178 0.0213333853 -0.0246122852 -0.0285310708 0.0261680577 -0.0176018346 -0.0304649454 -0.040008422 0.0176923368 -0.0039944048 -0.0334367976 0.0265616979 0.0491511822 -0.0351735167 0.0247027893 -0.0059282775 -0.029420251 0.0300451983 -0.00822967291 -0.0334367976 0.0265616979 0.0491511822 -0.0212709196 0.0346907713 0.0491509996 -0.0334367976 0.0265616979 0.0491511822 -0.029420251 0.0300451983 -0.00822967291 -0.0351735167 0.0247027893 -0.0059282775 0.0195962545 -0.0264712889 0.0491512455 -0.0334367976 0.0265616979 0.0491511822 -0.0334365927 -0.0264712498 0.0491512455 -0.0334367976 0.0265616979 0.0491511822 0.0195962545 -0.0264712889 0.0491512455 0.0195962917 0.0265617352 0.0491511188 -0.0334367976 0.0265616979 0.0491511822 -0.00692036282 0.0375452228 0.0491510034 -0.0212709196 0.0346907713 0.0491509996 -0.00692036282 0.0375452228 0.0491510034 -0.0334367976 0.0265616979 0.0491511822 0.0195962917 0.0265617352 0.0491511188 -0.0444204882 4.52867062e-05 0.049151063 -0.0415657237 0.0143958842 0.0491511859 -0.043266248 0.00927596819 -0.00269114878 -0.0415657237 0.0143958842 0.0491511859 -0.040008422 0.0176923368 -0.0039944048 -0.043266248 0.00927596819 -0.00269114878 -0.0415657237 0.0143958842 0.0491511859 -0.0334367976 0.0265616979 0.0491511822 -0.040008422 0.0176923368 -0.0039944048 -0.0334367976 0.0265616979 0.0491511822 -0.0415657237 0.0143958842 0.0491511859 -0.0334365927 -0.0264712498 0.0491512455 -0.0415657237 0.0143958842 0.0491511859 -0.0415660404 -0.0143053932 0.0491511263 -0.0334365927 -0.0264712498 0.0491512455 -0.0415660404 -0.0143053932 0.0491511263 -0.0415657237 0.0143958842 0.0491511859 -0.0444204882 4.52867062e-05 0.049151063 0.00812510028 0.035674125 -0.00605875393 -0.000967743981 0.0375414267 0.0104272952 0.0103593515 0.0348909497 0.0227705836 -0.000967743981 0.0375414267 0.0104272952 0.00812510028 0.035674125 -0.00605875393 0.00357962772 0.0360452607 -0.0214296579 -0.000967743981 0.0375414267 0.0104272952 0.00743048405 0.0346906818 0.0491510034 0.0103593515 0.0348909497 0.0227705836 0.00743048405 0.0346906818 0.0491510034 -0.000967743981 0.0375414267 0.0104272952 -0.00692036282 0.0375452228 0.0491510034 -0.0415660404 -0.0143053932 0.0491511263 -0.0432662629 -0.00918555073 -0.00269114762 -0.0400084369 -0.0176017918 -0.00399440248 -0.0432662629 -0.00918555073 -0.00269114762 -0.0444201492 4.5245677e-05 -0.00222962862 -0.0400084369 -0.0176017918 -0.00399440248 -0.0432662629 -0.00918555073 -0.00269114762 -0.0415660404 -0.0143053932 0.0491511263 -0.0444204882 4.52867062e-05 0.049151063 -0.0444201492 4.5245677e-05 -0.00222962862 -0.0432662629 -0.00918555073 -0.00269114762 -0.0444204882 4.52867062e-05 0.049151063 0.0270189829 0.0175268371 -0.0260795355 0.0268810894 0.0180115979 0.0407571793 0.0300589837 0.00725654094 0.0445930958 0.0270189829 0.0175268371 -0.0260795355 0.0294259526 0.0092760371 -0.0317681432 0.0261684991 0.0176923499 -0.0304649472 0.0270189829 0.0175268371 -0.0260795355 0.0261684991 0.0176923499 -0.0304649472 0.0213333778 0.0247027911 -0.0285310745 0.0189947672 0.0287139304 -0.0175805688 0.0270189829 0.0175268371 -0.0260795355 0.0213333778 0.0247027911 -0.0285310745 0.0199503284 0.0279771518 0.0332163572 0.0270189829 0.0175268371 -0.0260795355 0.0189947672 0.0287139304 -0.0175805688 0.0268810894 0.0180115979 0.0407571793 0.0270189829 0.0175268371 -0.0260795355 0.0199503284 0.0279771518 0.0332163572 0.0205334257 -0.0272704717 0.0338508524 0.0136777284 -0.0327993259 -0.0119453045 0.0234532338 -0.0234721862 -0.0223038178 0.0205334257 -0.0272704717 0.0338508524 0.0262286942 -0.017719401 0.0412596464 0.0195962545 -0.0264712889 0.0491512455 0.0205334257 -0.0272704717 0.0338508524 0.0234532338 -0.0234721862 -0.0223038178 0.0262286942 -0.017719401 0.0412596464 0.0136777284 -0.0327993259 -0.0119453045 0.0205334257 -0.0272704717 0.0338508524 0.0111509524 -0.034417063 0.0236331262 0.00743049057 -0.03460031 0.0491510667 0.0205334257 -0.0272704717 0.0338508524 0.0195962545 -0.0264712889 0.0491512455 0.0205334257 -0.0272704717 0.0338508524 0.00743049057 -0.03460031 0.0491510667 0.0111509524 -0.034417063 0.0236331262 -0.00692019239 -0.0374548286 -0.0172296129 -4.27094164e-05 -0.0374197774 0.0114353932 -0.00691506546 -0.0374563448 0.0491511859 0.00164036884 -0.0372201242 0.000772777887 -4.27094164e-05 -0.0374197774 0.0114353932 -0.00692019239 -0.0374548286 -0.0172296129 -4.27094164e-05 -0.0374197774 0.0114353932 0.00743049057 -0.03460031 0.0491510667 -0.00691506546 -0.0374563448 0.0491511859 0.00743049057 -0.03460031 0.0491510667 -4.27094164e-05 -0.0374197774 0.0114353932 0.0111509524 -0.034417063 0.0236331262 -4.27094164e-05 -0.0374197774 0.0114353932 0.00164036884 -0.0372201242 0.000772777887 0.0111509524 -0.034417063 0.0236331262 0.00357997883 -0.0359547697 -0.0214296542 0.00164036884 -0.0372201242 0.000772777887 -0.00692019239 -0.0374548286 -0.0172296129 0.00164036884 -0.0372201242 0.000772777887 0.00357997883 -0.0359547697 -0.0214296542 0.0136777284 -0.0327993259 -0.0119453045 0.0136777284 -0.0327993259 -0.0119453045 0.00357997883 -0.0359547697 -0.0214296542 0.015579748 -0.0299547706 -0.0262296163 0.00357997883 -0.0359547697 -0.0214296542 -0.0174200498 -0.0359547772 -0.0130297504 0.015579748 -0.0299547706 -0.0262296163 -0.0174200498 -0.0359547772 -0.0130297504 0.00357997883 -0.0359547697 -0.0214296542 -0.00692019239 -0.0374548286 -0.0172296129 -0.00658442406 0.0375876427 -0.0029951348 -0.00692020683 0.0375452675 -0.0172296762 -0.00692036282 0.0375452228 0.0491510034 -0.000967743981 0.0375414267 0.0104272952 -0.00658442406 0.0375876427 -0.0029951348 -0.00692036282 0.0375452228 0.0491510034 -0.00658442406 0.0375876427 -0.0029951348 -0.000967743981 0.0375414267 0.0104272952 -0.00692020683 0.0375452675 -0.0172296762 -0.00692020683 0.0375452675 -0.0172296762 -0.00167874584 0.0371772274 -0.00791722722 0.00357962772 0.0360452607 -0.0214296579 -0.00167874584 0.0371772274 -0.00791722722 -0.000967743981 0.0375414267 0.0104272952 0.00357962772 0.0360452607 -0.0214296579 -0.000967743981 0.0375414267 0.0104272952 -0.00167874584 0.0371772274 -0.00791722722 -0.00692020683 0.0375452675 -0.0172296762 0.0294259526 0.0092760371 -0.0317681432 0.0293049533 0.00973924808 -0.0298863035 0.0300589837 0.00725654094 0.0445930958 0.0293049533 0.00973924808 -0.0298863035 0.0270189829 0.0175268371 -0.0260795355 0.0300589837 0.00725654094 0.0445930958 0.0270189829 0.0175268371 -0.0260795355 0.0293049533 0.00973924808 -0.0298863035 0.0294259526 0.0092760371 -0.0317681432 </float_array>
          <technique_common>
            <accessor count="360" offset="0" source="#mesh_0-positions-array" stride="3">
              <param name="X" type="float" />
              <param name="Y" type="float" />
              <param name="Z" type="float" />
            </accessor>
          </technique_common>
        </source>
        <vertices id="mesh_0-vertices">
          <input semantic="POSITION" source="#mesh_0-positions" />
        </vertices>
        <polylist count="120" material="defaultMaterial">
          <input offset="0" semantic="VERTEX" source="#mesh_0-vertices" />
          <vcount>3 3 3 3 3 3 3 3 3 3 3 3 3 3 3 3 3 3 3 3 3 3 3 3 3 3 3 3 3 3 3 3 3 3 3 3 3 3 3 3 3 3 3 3 3 3 3 3 3 3 3 3 3 3 3 3 3 3 3 3 3 3 3 3 3 3 3 3 3 3 3 3 3 3 3 3 3 3 3 3 3 3 3 3 3 3 3 3 3 3 3 3 3 3 3 3 3 3 3 3 3 3 3 3 3 3 3 3 3 3 3 3 3 3 3 3 3 3 3 3 </vcount>
          <p>0 1 2 3 4 5 6 7 8 9 10 11 12 13 14 15 16 17 18 19 20 21 22 23 24 25 26 27 28 29 30 31 32 33 34 35 36 37 38 39 40 41 42 43 44 45 46 47 48 49 50 51 52 53 54 55 56 57 58 59 60 61 62 63 64 65 66 67 68 69 70 71 72 73 74 75 76 77 78 79 80 81 82 83 84 85 86 87 88 89 90 91 92 93 94 95 96 97 98 99 100 101 102 103 104 105 106 107 108 109 110 111 112 113 114 115 116 117 118 119 120 121 122 123 124 125 126 127 128 129 130 131 132 133 134 135 136 137 138 139 140 141 142 143 144 145 146 147 148 149 150 151 152 153 154 155 156 157 158 159 160 161 162 163 164 165 166 167 168 169 170 171 172 173 174 175 176 177 178 179 180 181 182 183 184 185 186 187 188 189 190 191 192 193 194 195 196 197 198 199 200 201 202 203 204 205 206 207 208 209 210 211 212 213 214 215 216 217 218 219 220 221 222 223 224 225 226 227 228 229 230 231 232 233 234 235 236 237 238 239 240 241 242 243 244 245 246 247 248 249 250 251 252 253 254 255 256 257 258 259 260 261 262 263 264 265 266 267 268 269 270 271 272 273 274 275 276 277 278 279 280 281 282 283 284 285 286 287 288 289 290 291 292 293 294 295 296 297 298 299 300 301 302 303 304 305 306 307 308 309 310 311 312 313 314 315 316 317 318 319 320 321 322 323 324 325 326 327 328 329 330 331 332 333 334 335 336 337 338 339 340 341 342 343 344 345 346 347 348 349 350 351 352 353 354 355 356 357 358 359 </p>
        </polylist>
      </mesh>
    </geometry>
  </library_geometries>
  <library_controllers>
  </library_controllers>
  <library_visual_scenes>
    <visual_scene id="Scene" name="Scene">
      <node id="node" name="" type="NODE">
        <matrix sid="matrix">1 0 0 0 0 1 0 0 0 0 1 0 0 0 0 1</matrix>
        <instance_geometry url="#mesh_0">
          <bind_material>
            <technique_common>
              <instance_material symbol="defaultMaterial" target="#material_0">
              </instance_material>
            </technique_common>
          </bind_material>
        </instance_geometry>
      </node>
    </visual_scene>
  </library_visual_scenes>
  <scene>
    <instance_visual_scene url="#Scene" />
  </scene>
</COLLADA>
