<?xml version="1.0" encoding="UTF-8" standalone="no" ?>
<COLLADA xmlns="http://www.collada.org/2005/11/COLLADASchema" version="1.4.1">
  <asset>
    <contributor>
      <author>Assimp</author>
      <authoring_tool>Assimp Exporter</authoring_tool>
    </contributor>
    <created>2025-11-12T11:09:31</created>
    <modified>2025-11-12T11:09:31</modified>
    <unit name="meter" meter="1" />
    <up_axis>Y_UP</up_axis>
  </asset>
  <library_images>
  </library_images>
  <library_effects>
    <effect id="material_0-fx" name="">
      <profile_COMMON>
        <technique sid="standard">
          <phong>
            <emission>
              <color sid="emission">0   0   0   4.28026616e-41</color>
            </emission>
            <ambient>
              <color sid="ambient">0.719165564   0.882352889   0.352941155   4.28026616e-41</color>
            </ambient>
            <diffuse>
              <color sid="diffuse">0.719165564   0.882352889   0.352941155   4.28026616e-41</color>
            </diffuse>
            <specular>
              <color sid="specular">0.529999971   0.529999971   0.529999971   4.28026616e-41</color>
            </specular>
          </phong>
        </technique>
      </profile_COMMON>
    </effect>
  </library_effects>
  <library_materials>
    <material id="material_0" name="">
      <instance_effect url="#material_0-fx"/>
    </material>
  </library_materials>
  <library_geometries>
    <geometry id="mesh_0" name="" >
      <mesh>
        <source id="mesh_0-positions" name="mesh_0-positions">
          <float_array id="mesh_0-positions-array" count="756"> 0.00349204894 -0.0579940528 -0.0114510003 -0.0487308986 0.0153383017 -0.0619506054 0.00361111108 0.0578957833 -0.0113792894 -0.0671219081 0.0579051003 -0.00433057407 -0.0671219528 0.053490106 -0.0265262108 -0.0671219155 0.0534900986 0.0178650655 -0.0671219528 0.053490106 -0.0265262108 -0.0671219304 -9.4889554e-05 0.0536694601 -0.0671219155 0.0534900986 0.0178650655 -0.0671219528 -0.022290552 -0.0579155833 -0.0671219528 0.053490106 -0.0265262108 -0.0671219602 0.0409172885 -0.0453427546 -0.0671219528 0.053490106 -0.0265262108 -0.0671219528 -0.022290552 -0.0579155833 -0.0671219304 -9.4889554e-05 0.0536694601 -0.0339597687 0.0432334244 0.0355651043 -0.0170377549 0.0546924435 0.0175703391 -0.0671219155 0.0534900986 0.0178650655 -0.0170377549 0.0546924435 0.0175703391 -0.0671219081 0.0579051003 -0.00433057407 -0.0671219155 0.0534900986 0.0178650655 -0.0671219304 -9.4889554e-05 0.0536694601 -0.0671218708 0.0221007336 0.049254436 -0.0671219155 0.0534900986 0.0178650655 -0.0671219528 0.053490106 -0.0265262108 -0.0338853858 0.0420743041 -0.0465904474 -0.0671219602 0.0409172885 -0.0453427546 0.00349204894 -0.0579940528 -0.0114510003 -0.00295964908 -0.0580353178 0.00259431964 -0.0333246067 -0.0583102033 -0.00316458638 -0.0671219453 0.0221007224 -0.0579155833 -0.0671219528 -0.022290552 -0.0579155833 -0.0671219602 0.0409172885 -0.0453427546 -0.0338853858 0.0420743041 -0.0465904474 -0.0671219453 0.0221007224 -0.0579155833 -0.0671219602 0.0409172885 -0.0453427546 -0.0671219528 -0.022290552 -0.0579155833 -0.067121923 -9.49178502e-05 -0.0623305626 -0.0466638096 -0.0229186844 -0.0586034916 -0.067121923 -9.49178502e-05 -0.0623305626 -0.0671219453 0.0221007224 -0.0579155833 -0.0487308986 0.0153383017 -0.0619506054 -0.0671219453 0.0221007224 -0.0579155833 -0.067121923 -9.49178502e-05 -0.0623305626 -0.0671219528 -0.022290552 -0.0579155833 -0.0671219528 -0.022290552 -0.0579155833 -0.067121923 -0.0536799282 0.0178650916 -0.0671219304 -9.4889554e-05 0.0536694601 -0.0337502174 -0.0424004793 -0.0464634374 -0.0671219528 -0.022290552 -0.0579155833 -0.0466638096 -0.0229186844 -0.0586034916 -0.0487308986 0.0153383017 -0.0619506054 -0.0337502174 -0.0424004793 -0.0464634374 -0.0466638096 -0.0229186844 -0.0586034916 -0.0671219304 -9.4889554e-05 0.0536694601 -0.0591230281 -0.00349712488 0.0535756089 -0.0520903133 0.00142543495 0.0540565886 -0.0591230281 -0.00349712488 0.0535756089 -0.0476088822 -0.0215383992 0.0500662364 -0.0520903133 0.00142543495 0.0540565886 -0.0476088822 -0.0215383992 0.0500662364 -0.04604204 0.0252580922 0.0484026968 -0.0520903133 0.00142543495 0.0540565886 -0.04604204 0.0252580922 0.0484026968 -0.037052881 -0.0400122032 0.0388528444 -0.0339597687 0.0432334244 0.0355651043 -0.037052881 -0.0400122032 0.0388528444 -0.04604204 0.0252580922 0.0484026968 -0.0476088822 -0.0215383992 0.0500662364 -0.0170377549 0.0546924435 0.0175703391 0.00184906903 0.0577417873 -0.00249800319 -0.0671219081 0.0579051003 -0.00433057407 0.00184906903 0.0577417873 -0.00249800319 0.00349204894 -0.0579940528 -0.0114510003 0.00361111108 0.0578957833 -0.0113792894 0.00184906903 0.0577417873 -0.00249800319 -0.00295964908 -0.0580353178 0.00259431964 0.00349204894 -0.0579940528 -0.0114510003 -0.00295964908 -0.0580353178 0.00259431964 0.00184906903 0.0577417873 -0.00249800319 -0.0214459989 -0.0528273806 0.0222590268 0.00184906903 0.0577417873 -0.00249800319 -0.0170377549 0.0546924435 0.0175703391 -0.0339597687 0.0432334244 0.0355651043 0.00184906903 0.0577417873 -0.00249800319 -0.037052881 -0.0400122032 0.0388528444 -0.0214459989 -0.0528273806 0.0222590268 -0.037052881 -0.0400122032 0.0388528444 0.00184906903 0.0577417873 -0.00249800319 -0.0339597687 0.0432334244 0.0355651043 -0.0591218732 0.00305509754 0.0535838045 -0.0671219304 -9.4889554e-05 0.0536694601 -0.0520903133 0.00142543495 0.0540565886 -0.0671218708 0.0221007336 0.049254436 -0.0591218732 0.00305509754 0.0535838045 -0.0520903133 0.00142543495 0.0540565886 -0.0591218732 0.00305509754 0.0535838045 -0.0671218708 0.0221007336 0.049254436 -0.0671219304 -9.4889554e-05 0.0536694601 -0.0671218485 0.0409172848 0.0366816111 -0.0339597687 0.0432334244 0.0355651043 -0.0671219155 0.0534900986 0.0178650655 -0.0671218708 0.0221007336 0.049254436 -0.0671218485 0.0409172848 0.0366816111 -0.0671219155 0.0534900986 0.0178650655 -0.0671218485 0.0409172848 0.0366816111 -0.04604204 0.0252580922 0.0484026968 -0.0339597687 0.0432334244 0.0355651043 -0.0487308986 0.0153383017 -0.0619506054 -0.0160510316 0.0541584343 -0.029839417 0.00361111108 0.0578957833 -0.0113792894 -0.0338853858 0.0420743041 -0.0465904474 -0.0160510316 0.0541584343 -0.029839417 -0.0487308986 0.0153383017 -0.0619506054 -0.0160510316 0.0541584343 -0.029839417 -0.0338853858 0.0420743041 -0.0465904474 -0.0671219528 0.053490106 -0.0265262108 -0.0160510316 0.0541584343 -0.029839417 -0.0671219081 0.0579051003 -0.00433057407 0.00361111108 0.0578957833 -0.0113792894 -0.0160510316 0.0541584343 -0.029839417 -0.0671219528 0.053490106 -0.0265262108 -0.0671219081 0.0579051003 -0.00433057407 -0.0467590317 0.0224971343 -0.0586930662 -0.0338853858 0.0420743041 -0.0465904474 -0.0487308986 0.0153383017 -0.0619506054 -0.0671219453 0.0221007224 -0.0579155833 -0.0467590317 0.0224971343 -0.0586930662 -0.0487308986 0.0153383017 -0.0619506054 -0.0467590317 0.0224971343 -0.0586930662 -0.0671219453 0.0221007224 -0.0579155833 -0.0338853858 0.0420743041 -0.0465904474 -0.0511805452 0.000451318454 -0.0628823414 -0.0487308986 0.0153383017 -0.0619506054 -0.0466638096 -0.0229186844 -0.0586034916 -0.067121923 -9.49178502e-05 -0.0623305626 -0.0511805452 0.000451318454 -0.0628823414 -0.0466638096 -0.0229186844 -0.0586034916 -0.0511805452 0.000451318454 -0.0628823414 -0.067121923 -9.49178502e-05 -0.0623305626 -0.0487308986 0.0153383017 -0.0619506054 -0.067121923 -0.0536799282 0.0178650916 -0.0671218708 -0.022290526 0.0492544547 -0.0671219304 -9.4889554e-05 0.0536694601 -0.0671218708 -0.022290526 0.0492544547 -0.0591230281 -0.00349712488 0.0535756089 -0.0671219304 -9.4889554e-05 0.0536694601 -0.0591230281 -0.00349712488 0.0535756089 -0.0671218708 -0.022290526 0.0492544547 -0.0476088822 -0.0215383992 0.0500662364 -0.0591218621 -0.0539301783 0.0172065347 -0.00295964908 -0.0580353178 0.00259431964 -0.0214459989 -0.0528273806 0.0222590268 -0.067121923 -0.0536799282 0.0178650916 -0.0591218621 -0.0539301783 0.0172065347 -0.0214459989 -0.0528273806 0.0222590268 -0.0591218621 -0.0539301783 0.0172065347 -0.067121923 -0.0536799282 0.0178650916 -0.00295964908 -0.0580353178 0.00259431964 0.00349204894 -0.0579940528 -0.0114510003 -0.0158370845 -0.0544359721 -0.0296385456 -0.0487308986 0.0153383017 -0.0619506054 -0.0158370845 -0.0544359721 -0.0296385456 -0.0337502174 -0.0424004793 -0.0464634374 -0.0487308986 0.0153383017 -0.0619506054 -0.0671219304 -0.0536799245 -0.0265262034 -0.067121923 -0.0536799282 0.0178650916 -0.0671219528 -0.022290552 -0.0579155833 -0.0158370845 -0.0544359721 -0.0296385456 -0.0671219304 -0.0536799245 -0.0265262034 -0.0337502174 -0.0424004793 -0.0464634374 -0.0591219626 0.0221007597 0.0492544472 -0.0671218708 0.0221007336 0.049254436 -0.0520903133 0.00142543495 0.0540565886 -0.04604204 0.0252580922 0.0484026968 -0.0591219626 0.0221007597 0.0492544472 -0.0520903133 0.00142543495 0.0540565886 -0.0591219626 0.0221007597 0.0492544472 -0.04604204 0.0252580922 0.0484026968 -0.0671218708 0.0221007336 0.049254436 -0.0671219081 0.0579051003 -0.00433057407 -0.0122525394 0.0579048879 -0.00433061272 0.00361111108 0.0578957833 -0.0113792894 -0.0122525394 0.0579048879 -0.00433061272 0.00184906903 0.0577417873 -0.00249800319 0.00361111108 0.0578957833 -0.0113792894 0.00184906903 0.0577417873 -0.00249800319 -0.0122525394 0.0579048879 -0.00433061272 -0.0671219081 0.0579051003 -0.00433057407 -0.04604204 0.0252580922 0.0484026968 -0.0591218583 0.0242653992 0.0483056344 -0.0671218708 0.0221007336 0.049254436 -0.0591218583 0.0242653992 0.0483056344 -0.0671218485 0.0409172848 0.0366816111 -0.0671218708 0.0221007336 0.049254436 -0.0671218485 0.0409172848 0.0366816111 -0.0591218583 0.0242653992 0.0483056344 -0.04604204 0.0252580922 0.0484026968 -0.059121877 -0.0244552176 0.048305653 -0.037052881 -0.0400122032 0.0388528444 -0.0476088822 -0.0215383992 0.0500662364 -0.0671218708 -0.022290526 0.0492544547 -0.059121877 -0.0244552176 0.048305653 -0.0476088822 -0.0215383992 0.0500662364 -0.0591219105 -0.0411070734 0.036681626 -0.0671218708 -0.022290526 0.0492544547 -0.067121923 -0.0536799282 0.0178650916 -0.059121877 -0.0244552176 0.048305653 -0.0591219105 -0.0411070734 0.036681626 -0.037052881 -0.0400122032 0.0388528444 -0.0591219105 -0.0411070734 0.036681626 -0.059121877 -0.0244552176 0.048305653 -0.0671218708 -0.022290526 0.0492544547 -0.0337502174 -0.0424004793 -0.0464634374 -0.0671219155 -0.0411071032 -0.0453427471 -0.0671219528 -0.022290552 -0.0579155833 -0.0671219155 -0.0411071032 -0.0453427471 -0.0671219304 -0.0536799245 -0.0265262034 -0.0671219528 -0.022290552 -0.0579155833 -0.0671219304 -0.0536799245 -0.0265262034 -0.0671219155 -0.0411071032 -0.0453427471 -0.0337502174 -0.0424004793 -0.0464634374 -0.0671219304 -0.0536799245 -0.0265262034 -0.0671218783 -0.0580949076 -0.00433055917 -0.067121923 -0.0536799282 0.0178650916 -0.00295964908 -0.0580353178 0.00259431964 -0.0671218783 -0.0580949076 -0.00433055917 -0.0333246067 -0.0583102033 -0.00316458638 -0.067121923 -0.0536799282 0.0178650916 -0.0671218783 -0.0580949076 -0.00433055917 -0.00295964908 -0.0580353178 0.00259431964 -0.0671218783 -0.0580949076 -0.00433055917 0.00349204894 -0.0579940528 -0.0114510003 -0.0333246067 -0.0583102033 -0.00316458638 -0.0671218783 -0.0580949076 -0.00433055917 -0.0158370845 -0.0544359721 -0.0296385456 0.00349204894 -0.0579940528 -0.0114510003 -0.0671218783 -0.0580949076 -0.00433055917 -0.0671219304 -0.0536799245 -0.0265262034 -0.0158370845 -0.0544359721 -0.0296385456 -0.0591220967 -0.0420726351 0.035703294 -0.067121923 -0.0536799282 0.0178650916 -0.0214459989 -0.0528273806 0.0222590268 -0.0591220967 -0.0420726351 0.035703294 -0.0591219105 -0.0411070734 0.036681626 -0.067121923 -0.0536799282 0.0178650916 -0.037052881 -0.0400122032 0.0388528444 -0.0591220967 -0.0420726351 0.035703294 -0.0214459989 -0.0528273806 0.0222590268 -0.0591219105 -0.0411070734 0.036681626 -0.0591220967 -0.0420726351 0.035703294 -0.037052881 -0.0400122032 0.0388528444 </float_array>
          <technique_common>
            <accessor count="252" offset="0" source="#mesh_0-positions-array" stride="3">
              <param name="X" type="float" />
              <param name="Y" type="float" />
              <param name="Z" type="float" />
            </accessor>
          </technique_common>
        </source>
        <vertices id="mesh_0-vertices">
          <input semantic="POSITION" source="#mesh_0-positions" />
        </vertices>
        <polylist count="84" material="defaultMaterial">
          <input offset="0" semantic="VERTEX" source="#mesh_0-vertices" />
          <vcount>3 3 3 3 3 3 3 3 3 3 3 3 3 3 3 3 3 3 3 3 3 3 3 3 3 3 3 3 3 3 3 3 3 3 3 3 3 3 3 3 3 3 3 3 3 3 3 3 3 3 3 3 3 3 3 3 3 3 3 3 3 3 3 3 3 3 3 3 3 3 3 3 3 3 3 3 3 3 3 3 3 3 3 3 </vcount>
          <p>0 1 2 3 4 5 6 7 8 9 10 11 12 13 14 15 16 17 18 19 20 21 22 23 24 25 26 27 28 29 30 31 32 33 34 35 36 37 38 39 40 41 42 43 44 45 46 47 48 49 50 51 52 53 54 55 56 57 58 59 60 61 62 63 64 65 66 67 68 69 70 71 72 73 74 75 76 77 78 79 80 81 82 83 84 85 86 87 88 89 90 91 92 93 94 95 96 97 98 99 100 101 102 103 104 105 106 107 108 109 110 111 112 113 114 115 116 117 118 119 120 121 122 123 124 125 126 127 128 129 130 131 132 133 134 135 136 137 138 139 140 141 142 143 144 145 146 147 148 149 150 151 152 153 154 155 156 157 158 159 160 161 162 163 164 165 166 167 168 169 170 171 172 173 174 175 176 177 178 179 180 181 182 183 184 185 186 187 188 189 190 191 192 193 194 195 196 197 198 199 200 201 202 203 204 205 206 207 208 209 210 211 212 213 214 215 216 217 218 219 220 221 222 223 224 225 226 227 228 229 230 231 232 233 234 235 236 237 238 239 240 241 242 243 244 245 246 247 248 249 250 251 </p>
        </polylist>
      </mesh>
    </geometry>
  </library_geometries>
  <library_controllers>
  </library_controllers>
  <library_visual_scenes>
    <visual_scene id="Scene" name="Scene">
      <node id="node" name="" type="NODE">
        <matrix sid="matrix">1 0 0 0 0 1 0 0 0 0 1 0 0 0 0 1</matrix>
        <instance_geometry url="#mesh_0">
          <bind_material>
            <technique_common>
              <instance_material symbol="defaultMaterial" target="#material_0">
              </instance_material>
            </technique_common>
          </bind_material>
        </instance_geometry>
      </node>
    </visual_scene>
  </library_visual_scenes>
  <scene>
    <instance_visual_scene url="#Scene" />
  </scene>
</COLLADA>
