<?xml version="1.0" encoding="UTF-8" standalone="no" ?>
<COLLADA xmlns="http://www.collada.org/2005/11/COLLADASchema" version="1.4.1">
  <asset>
    <contributor>
      <author>Assimp</author>
      <authoring_tool>Assimp Exporter</authoring_tool>
    </contributor>
    <created>2025-11-12T11:09:31</created>
    <modified>2025-11-12T11:09:31</modified>
    <unit name="meter" meter="1" />
    <up_axis>Y_UP</up_axis>
  </asset>
  <library_images>
  </library_images>
  <library_effects>
    <effect id="material_0-fx" name="">
      <profile_COMMON>
        <technique sid="standard">
          <phong>
            <emission>
              <color sid="emission">0   0   0   4.28026616e-41</color>
            </emission>
            <ambient>
              <color sid="ambient">0.282352924   0.282352924   0.282352924   4.28026616e-41</color>
            </ambient>
            <diffuse>
              <color sid="diffuse">0.282352924   0.282352924   0.282352924   4.28026616e-41</color>
            </diffuse>
            <specular>
              <color sid="specular">0.150000006   0.150000006   0.150000006   4.28026616e-41</color>
            </specular>
          </phong>
        </technique>
      </profile_COMMON>
    </effect>
  </library_effects>
  <library_materials>
    <material id="material_0" name="">
      <instance_effect url="#material_0-fx"/>
    </material>
  </library_materials>
  <library_geometries>
    <geometry id="mesh_0" name="" >
      <mesh>
        <source id="mesh_0-positions" name="mesh_0-positions">
          <float_array id="mesh_0-positions-array" count="288"> -0.00359996757 0.037500076 -0.0461998582 -0.00359996827 0.037500035 -0.0383499861 0.0107506188 0.0346455574 -0.0461999178 0.0107506188 0.0346455574 -0.0461999178 -0.00359996827 0.037500035 -0.0383499861 0.010750656 0.0346455537 -0.0383501053 0.022916479 0.0265165716 -0.0461998582 0.010750656 0.0346455537 -0.0383501053 0.022916561 0.0265165642 -0.0383500457 0.031045489 0.0143506778 -0.046200037 0.022916561 0.0265165642 -0.0383500457 0.031045489 0.0143506778 -0.0383499861 0.0338999741 5.66866944e-08 -0.0461999178 0.031045489 0.0143506778 -0.0383499861 0.0338999741 5.66043816e-08 -0.0383501053 0.0310454927 -0.0143505726 -0.0461998582 0.0338999741 5.66043816e-08 -0.0383501053 0.0310454927 -0.0143505726 -0.0383499861 0.0229164679 -0.0265164282 -0.046200037 0.0310454927 -0.0143505726 -0.0383499861 0.0229164679 -0.0265164282 -0.0383499861 0.0107506225 -0.0346454009 -0.0461999178 0.0229164679 -0.0265164282 -0.0383499861 0.0107506597 -0.0346454047 -0.0383499861 -0.0036000032 -0.0374999307 -0.0461998582 0.0107506597 -0.0346454047 -0.0383499861 -0.00359996664 -0.0374999382 -0.0383498669 -0.0036000032 -0.0374999307 -0.0461998582 0.0107506225 -0.0346454009 -0.0461999178 0.0107506597 -0.0346454047 -0.0383499861 0.0107506225 -0.0346454009 -0.0461999178 0.0229164679 -0.0265164282 -0.046200037 0.0229164679 -0.0265164282 -0.0383499861 0.0229164679 -0.0265164282 -0.046200037 0.0310454927 -0.0143505726 -0.0461998582 0.0310454927 -0.0143505726 -0.0383499861 0.0310454927 -0.0143505726 -0.0461998582 0.0338999741 5.66866944e-08 -0.0461999178 0.0338999741 5.66043816e-08 -0.0383501053 0.0338999741 5.66866944e-08 -0.0461999178 0.031045489 0.0143506778 -0.046200037 0.031045489 0.0143506778 -0.0383499861 0.031045489 0.0143506778 -0.046200037 0.022916479 0.0265165716 -0.0461998582 0.022916561 0.0265165642 -0.0383500457 0.022916479 0.0265165716 -0.0461998582 0.0107506188 0.0346455574 -0.0461999178 0.010750656 0.0346455537 -0.0383501053 -0.0036000032 -0.0374999307 -0.0461998582 -0.00359996664 -0.0374999382 -0.0383498669 -0.017950628 -0.0346454047 -0.0461998582 -0.017950628 -0.0346454047 -0.0461998582 -0.00359996664 -0.0374999382 -0.0383498669 -0.017950546 -0.0346454121 -0.0383499861 -0.030116532 -0.0265164208 -0.046200037 -0.017950546 -0.0346454121 -0.0383499861 -0.030116532 -0.0265164208 -0.0383499861 -0.0382454023 -0.0143505847 -0.046200335 -0.030116532 -0.0265164208 -0.0383499861 -0.0382454544 -0.0143505363 -0.0383499861 -0.0410999246 8.48656754e-08 -0.046200335 -0.0382454544 -0.0143505363 -0.0383499861 -0.0410998873 3.76981859e-08 -0.0383504033 -0.0382454284 0.0143506695 -0.0462002754 -0.0410998873 3.76981859e-08 -0.0383504033 -0.0382454284 0.0143506695 -0.0383499265 -0.0301165208 0.0265165791 -0.0461998582 -0.0382454284 0.0143506695 -0.0383499265 -0.0301164761 0.0265165735 -0.0383501053 -0.017950682 0.0346455574 -0.0462000966 -0.0301164761 0.0265165735 -0.0383501053 -0.0179506373 0.0346455537 -0.0383499861 -0.00359996757 0.037500076 -0.0461998582 -0.0179506373 0.0346455537 -0.0383499861 -0.00359996827 0.037500035 -0.0383499861 -0.00359996757 0.037500076 -0.0461998582 -0.017950682 0.0346455574 -0.0462000966 -0.0179506373 0.0346455537 -0.0383499861 -0.017950682 0.0346455574 -0.0462000966 -0.0301165208 0.0265165791 -0.0461998582 -0.0301164761 0.0265165735 -0.0383501053 -0.0301165208 0.0265165791 -0.0461998582 -0.0382454284 0.0143506695 -0.0462002754 -0.0382454284 0.0143506695 -0.0383499265 -0.0382454284 0.0143506695 -0.0462002754 -0.0410999246 8.48656754e-08 -0.046200335 -0.0410998873 3.76981859e-08 -0.0383504033 -0.0410999246 8.48656754e-08 -0.046200335 -0.0382454023 -0.0143505847 -0.046200335 -0.0382454544 -0.0143505363 -0.0383499861 -0.0382454023 -0.0143505847 -0.046200335 -0.030116532 -0.0265164208 -0.046200037 -0.030116532 -0.0265164208 -0.0383499861 -0.030116532 -0.0265164208 -0.046200037 -0.017950628 -0.0346454047 -0.0461998582 -0.017950546 -0.0346454121 -0.0383499861 </float_array>
          <technique_common>
            <accessor count="96" offset="0" source="#mesh_0-positions-array" stride="3">
              <param name="X" type="float" />
              <param name="Y" type="float" />
              <param name="Z" type="float" />
            </accessor>
          </technique_common>
        </source>
        <vertices id="mesh_0-vertices">
          <input semantic="POSITION" source="#mesh_0-positions" />
        </vertices>
        <polylist count="32" material="defaultMaterial">
          <input offset="0" semantic="VERTEX" source="#mesh_0-vertices" />
          <vcount>3 3 3 3 3 3 3 3 3 3 3 3 3 3 3 3 3 3 3 3 3 3 3 3 3 3 3 3 3 3 3 3 </vcount>
          <p>0 1 2 3 4 5 6 7 8 9 10 11 12 13 14 15 16 17 18 19 20 21 22 23 24 25 26 27 28 29 30 31 32 33 34 35 36 37 38 39 40 41 42 43 44 45 46 47 48 49 50 51 52 53 54 55 56 57 58 59 60 61 62 63 64 65 66 67 68 69 70 71 72 73 74 75 76 77 78 79 80 81 82 83 84 85 86 87 88 89 90 91 92 93 94 95 </p>
        </polylist>
      </mesh>
    </geometry>
  </library_geometries>
  <library_controllers>
  </library_controllers>
  <library_visual_scenes>
    <visual_scene id="Scene" name="Scene">
      <node id="node" name="" type="NODE">
        <matrix sid="matrix">1 0 0 0 0 1 0 0 0 0 1 0 0 0 0 1</matrix>
        <instance_geometry url="#mesh_0">
          <bind_material>
            <technique_common>
              <instance_material symbol="defaultMaterial" target="#material_0">
              </instance_material>
            </technique_common>
          </bind_material>
        </instance_geometry>
      </node>
    </visual_scene>
  </library_visual_scenes>
  <scene>
    <instance_visual_scene url="#Scene" />
  </scene>
</COLLADA>
