<?xml version="1.0" encoding="UTF-8" standalone="no" ?>
<COLLADA xmlns="http://www.collada.org/2005/11/COLLADASchema" version="1.4.1">
  <asset>
    <contributor>
      <author>Assimp</author>
      <authoring_tool>Assimp Exporter</authoring_tool>
    </contributor>
    <created>2025-11-12T11:09:31</created>
    <modified>2025-11-12T11:09:31</modified>
    <unit name="meter" meter="1" />
    <up_axis>Y_UP</up_axis>
  </asset>
  <library_images>
  </library_images>
  <library_effects>
    <effect id="material_0-fx" name="">
      <profile_COMMON>
        <technique sid="standard">
          <phong>
            <emission>
              <color sid="emission">0   0   0   4.28026616e-41</color>
            </emission>
            <ambient>
              <color sid="ambient">0.719165564   0.882352889   0.352941155   4.28026616e-41</color>
            </ambient>
            <diffuse>
              <color sid="diffuse">0.719165564   0.882352889   0.352941155   4.28026616e-41</color>
            </diffuse>
            <specular>
              <color sid="specular">0.529999971   0.529999971   0.529999971   4.28026616e-41</color>
            </specular>
          </phong>
        </technique>
      </profile_COMMON>
    </effect>
  </library_effects>
  <library_materials>
    <material id="material_0" name="">
      <instance_effect url="#material_0-fx"/>
    </material>
  </library_materials>
  <library_geometries>
    <geometry id="mesh_0" name="" >
      <mesh>
        <source id="mesh_0-positions" name="mesh_0-positions">
          <float_array id="mesh_0-positions-array" count="2160"> 0.0342063159 -0.0102456342 -0.031095447 0.0346738994 0.00515328208 -0.0322339535 0.0401548818 -0.000173492386 -0.0324406624 0.00387429493 -0.0104165552 0.0447354279 0.0151547426 -0.03815265 0.0165386181 0.00893364195 -0.0302234627 0.0321608782 0.0326459743 0.0198201109 -0.0271941461 0.0346738994 0.00515328208 -0.0322339535 0.0342063159 -0.0102456342 -0.031095447 0.00520044332 0.0186909642 0.0414264165 0.00826668739 0.0286890641 0.033892151 0.018290408 0.039302092 0.00876176078 0.00520044332 0.0186909642 0.0414264165 0.00387429493 -0.0104165552 0.0447354279 0.00349412742 0.00339747453 0.0459914207 0.00475162221 -0.00349739473 0.0462304316 0.00853781309 0.00437189126 0.0460158587 0.00349412742 0.00339747453 0.0459914207 0.00387429493 -0.0104165552 0.0447354279 0.00475162221 -0.00349739473 0.0462304316 0.00349412742 0.00339747453 0.0459914207 0.0531002358 0.00976830814 -0.0217338242 0.0530718341 0.0276155081 0.00626623351 0.0531010702 0.0152873257 0.0247483235 0.0151547426 -0.03815265 0.0165386181 0.0276027191 -0.0330806859 -0.0145875225 0.0185737256 -0.0393020958 0.00803172495 0.0276027191 -0.0330806859 -0.0145875225 0.0151547426 -0.03815265 0.0165386181 0.00387429493 -0.0104165552 0.0447354279 0.00826668739 0.0286890641 0.033892151 0.0129643232 0.0362619087 0.0223242007 0.018290408 0.039302092 0.00876176078 0.0146941375 0.0311640911 0.0308644734 0.0129643232 0.0362619087 0.0223242007 0.00826668739 0.0286890641 0.033892151 0.0129643232 0.0362619087 0.0223242007 0.0146941375 0.0311640911 0.0308644734 0.0184900686 0.0364184193 0.0216125213 0.00853781309 0.00437189126 0.0460158587 0.00447149388 0.0105982097 0.0447418652 0.00349412742 0.00339747453 0.0459914207 0.00447149388 0.0105982097 0.0447418652 0.00520044332 0.0186909642 0.0414264165 0.00349412742 0.00339747453 0.0459914207 0.00520044332 0.0186909642 0.0414264165 0.00447149388 0.0105982097 0.0447418652 0.0100590354 0.0154644139 0.0430319272 0.0319273025 0.0129802115 0.0419357978 0.00447149388 0.0105982097 0.0447418652 0.00853781309 0.00437189126 0.0460158587 0.00447149388 0.0105982097 0.0447418652 0.0319273025 0.0129802115 0.0419357978 0.0100590354 0.0154644139 0.0430319272 0.0478391498 -0.0220112819 0.0323182344 0.0423566923 -0.0112303644 0.0409743786 0.0437716022 -0.023430489 0.0339255333 0.0326459743 0.0198201109 -0.0271941461 0.0238617063 0.037461184 -0.00523436349 0.0288656671 0.0307267718 -0.0177022237 0.0238617063 0.037461184 -0.00523436349 0.00520044332 0.0186909642 0.0414264165 0.018290408 0.039302092 0.00876176078 0.00520044332 0.0186909642 0.0414264165 0.0238617063 0.037461184 -0.00523436349 0.00387429493 -0.0104165552 0.0447354279 0.0238617063 0.037461184 -0.00523436349 0.0276027191 -0.0330806859 -0.0145875225 0.00387429493 -0.0104165552 0.0447354279 0.0238617063 0.037461184 -0.00523436349 0.0326459743 0.0198201109 -0.0271941461 0.0342063159 -0.0102456342 -0.031095447 0.0276027191 -0.0330806859 -0.0145875225 0.0238617063 0.037461184 -0.00523436349 0.0342063159 -0.0102456342 -0.031095447 0.04783912 0.021920925 0.0323185883 0.0507611856 0.0199550297 0.0299836379 0.0509380363 0.0283328723 0.0197496396 0.0269598216 0.0386454351 0.000305589347 0.0238617063 0.037461184 -0.00523436349 0.018290408 0.039302092 0.00876176078 0.0238617063 0.037461184 -0.00523436349 0.0269598216 0.0386454351 0.000305589347 0.0300403833 0.036716938 -0.00689095585 0.0269598216 0.0386454351 0.000305589347 0.042796649 0.036477074 0.00332945329 0.0300403833 0.036716938 -0.00689095585 0.0129643232 0.0362619087 0.0223242007 0.0214855 0.038447056 0.0143326484 0.018290408 0.039302092 0.00876176078 0.0214855 0.038447056 0.0143326484 0.0129643232 0.0362619087 0.0223242007 0.0184900686 0.0364184193 0.0216125213 0.0419409201 0.0356503651 0.0146896811 0.0214855 0.038447056 0.0143326484 0.0184900686 0.0364184193 0.0216125213 0.0402306095 -0.0203361604 0.0369020663 0.0118588815 -0.0240543578 0.038006898 0.0437716022 -0.023430489 0.0339255333 0.0118588815 -0.0240543578 0.038006898 0.0402306095 -0.0203361604 0.0369020663 0.00986333191 -0.0170815922 0.0423095189 0.0423566923 -0.0112303644 0.0409743786 0.0402306095 -0.0203361604 0.0369020663 0.0437716022 -0.023430489 0.0339255333 0.0402306095 -0.0203361604 0.0369020663 0.0423566923 -0.0112303644 0.0409743786 0.00986333191 -0.0170815922 0.0423095189 0.00387429493 -0.0104165552 0.0447354279 0.00584238116 -0.0208952092 0.0403490029 0.00986333191 -0.0170815922 0.0423095189 0.00584238116 -0.0208952092 0.0403490029 0.0118588815 -0.0240543578 0.038006898 0.00986333191 -0.0170815922 0.0423095189 0.00584238116 -0.0208952092 0.0403490029 0.00387429493 -0.0104165552 0.0447354279 0.00893364195 -0.0302234627 0.0321608782 0.0118588815 -0.0240543578 0.038006898 0.00584238116 -0.0208952092 0.0403490029 0.00893364195 -0.0302234627 0.0321608782 0.00910790917 -0.0100726988 0.0448869467 0.00387429493 -0.0104165552 0.0447354279 0.00986333191 -0.0170815922 0.0423095189 0.0423566923 -0.0112303644 0.0409743786 0.00910790917 -0.0100726988 0.0448869467 0.00986333191 -0.0170815922 0.0423095189 0.00910790917 -0.0100726988 0.0448869467 0.00475162221 -0.00349739473 0.0462304316 0.00387429493 -0.0104165552 0.0447354279 0.0346738994 0.00515328208 -0.0322339535 0.0394973867 0.0107554812 -0.0308143534 0.0401548818 -0.000173492386 -0.0324406624 0.0326459743 0.0198201109 -0.0271941461 0.0394973867 0.0107554812 -0.0308143534 0.0346738994 0.00515328208 -0.0322339535 0.0389824323 -0.0131250257 -0.0302001256 0.0342063159 -0.0102456342 -0.031095447 0.0401548818 -0.000173492386 -0.0324406624 0.0490290262 -0.00967983622 -0.0279375333 0.0389824323 -0.0131250257 -0.0302001256 0.0401548818 -0.000173492386 -0.0324406624 0.0511497855 0.0318392329 0.00668644672 0.052255407 0.029134322 -0.00344467442 0.0491306745 0.0328538194 -0.00449872296 0.052255407 0.029134322 -0.00344467442 0.0511497855 0.0318392329 0.00668644672 0.0530718341 0.0276155081 0.00626623351 0.0530718341 0.0276155081 0.00626623351 0.0525849499 0.0252309553 0.0182738286 0.0531010702 0.0152873257 0.0247483235 0.0507611856 0.0199550297 0.0299836379 0.0525849499 0.0252309553 0.0182738286 0.0509380363 0.0283328723 0.0197496396 0.0525849499 0.0252309553 0.0182738286 0.0511497855 0.0318392329 0.00668644672 0.0509380363 0.0283328723 0.0197496396 0.0511497855 0.0318392329 0.00668644672 0.0525849499 0.0252309553 0.0182738286 0.0530718341 0.0276155081 0.00626623351 0.0276027191 -0.0330806859 -0.0145875225 0.0226607639 -0.0383748971 -0.00206351443 0.0185737256 -0.0393020958 0.00803172495 0.0226607639 -0.0383748971 -0.00206351443 0.0276027191 -0.0330806859 -0.0145875225 0.0297720376 -0.0369702205 -0.00649416586 0.0276027191 -0.0330806859 -0.0145875225 0.0327564292 -0.0331014954 -0.0142405638 0.0297720376 -0.0369702205 -0.00649416586 0.0151547426 -0.03815265 0.0165386181 0.022648761 -0.0391171947 0.0112032881 0.0193402544 -0.0371476822 0.0196734667 0.022648761 -0.0391171947 0.0112032881 0.0420528427 -0.0360419787 0.0132673969 0.0193402544 -0.0371476822 0.0196734667 0.022648761 -0.0391171947 0.0112032881 0.0151547426 -0.03815265 0.0165386181 0.0185737256 -0.0393020958 0.00803172495 0.0420528427 -0.0360419787 0.0132673969 0.0443156064 -0.0327237993 0.02206528 0.0193402544 -0.0371476822 0.0196734667 0.0443156064 -0.0327237993 0.02206528 0.0165078733 -0.0341818705 0.026328085 0.0193402544 -0.0371476822 0.0196734667 0.0165078733 -0.0341818705 0.026328085 0.0443156064 -0.0327237993 0.02206528 0.0407393202 -0.0276257396 0.0305184107 0.0407393202 -0.0276257396 0.0305184107 0.0443156064 -0.0327237993 0.02206528 0.0437716022 -0.023430489 0.0339255333 0.0443156064 -0.0327237993 0.02206528 0.0478391498 -0.0220112819 0.0323182344 0.0437716022 -0.023430489 0.0339255333 0.0397542194 -3.9524115e-05 0.0436096191 0.0319273025 0.0129802115 0.0419357978 0.00853781309 0.00437189126 0.0460158587 0.00475162221 -0.00349739473 0.0462304316 0.0397542194 -3.9524115e-05 0.0436096191 0.00853781309 0.00437189126 0.0460158587 0.00910790917 -0.0100726988 0.0448869467 0.0397542194 -3.9524115e-05 0.0436096191 0.00475162221 -0.00349739473 0.0462304316 0.0397542194 -3.9524115e-05 0.0436096191 0.0423566923 -0.0112303644 0.0409743786 0.0449627489 -6.51845839e-05 0.0423432551 0.0397542194 -3.9524115e-05 0.0436096191 0.00910790917 -0.0100726988 0.0448869467 0.0423566923 -0.0112303644 0.0409743786 0.0525430143 -0.0176519454 0.0271409731 0.0507611856 -0.0200454928 0.0299837571 0.0525850393 -0.0253213663 0.0182738286 0.0423566923 -0.0112303644 0.0409743786 0.0478159525 -0.00781102665 0.0394278765 0.0449627489 -6.51845839e-05 0.0423432551 0.0478391498 -0.0220112819 0.0323182344 0.0478159525 -0.00781102665 0.0394278765 0.0423566923 -0.0112303644 0.0409743786 0.0507611856 -0.0200454928 0.0299837571 0.0478159525 -0.00781102665 0.0394278765 0.0478391498 -0.0220112819 0.0323182344 0.0458566733 0.0340377092 -0.00623321859 0.0447725728 0.031826023 -0.0114511875 0.0300403833 0.036716938 -0.00689095585 0.042796649 0.036477074 0.00332945329 0.0458566733 0.0340377092 -0.00623321859 0.0300403833 0.036716938 -0.00689095585 0.0458566733 0.0340377092 -0.00623321859 0.0456826128 0.0360030904 0.00674056681 0.0491306745 0.0328538194 -0.00449872296 0.0458566733 0.0340377092 -0.00623321859 0.042796649 0.036477074 0.00332945329 0.0456826128 0.0360030904 0.00674056681 0.0447725728 0.031826023 -0.0114511875 0.0335805118 0.0315527655 -0.0165517367 0.0300403833 0.036716938 -0.00689095585 0.0238617063 0.037461184 -0.00523436349 0.0335805118 0.0315527655 -0.0165517367 0.0288656671 0.0307267718 -0.0177022237 0.0335805118 0.0315527655 -0.0165517367 0.0238617063 0.037461184 -0.00523436349 0.0300403833 0.036716938 -0.00689095585 0.0478159525 -0.00781102665 0.0394278765 0.0506089367 0.00699505443 0.0365424156 0.0449627489 -6.51845839e-05 0.0423432551 0.043153666 0.0103760604 0.0409506559 0.0397542194 -3.9524115e-05 0.0436096191 0.0449627489 -6.51845839e-05 0.0423432551 0.0397542194 -3.9524115e-05 0.0436096191 0.043153666 0.0103760604 0.0409506559 0.0319273025 0.0129802115 0.0419357978 0.0442043059 0.0231717471 0.0338039361 0.043153666 0.0103760604 0.0409506559 0.04783912 0.021920925 0.0323185883 0.0305237826 0.0238134451 0.0359806977 0.0442043059 0.0231717471 0.0338039361 0.0407314971 0.027281804 0.0308166724 0.0146941375 0.0311640911 0.0308644734 0.0305237826 0.0238134451 0.0359806977 0.0407314971 0.027281804 0.0308166724 0.023664197 0.0392355099 0.00787555799 0.0269598216 0.0386454351 0.000305589347 0.018290408 0.039302092 0.00876176078 0.0214855 0.038447056 0.0143326484 0.023664197 0.0392355099 0.00787555799 0.018290408 0.039302092 0.00876176078 0.042796649 0.036477074 0.00332945329 0.023664197 0.0392355099 0.00787555799 0.0456826128 0.0360030904 0.00674056681 0.023664197 0.0392355099 0.00787555799 0.042796649 0.036477074 0.00332945329 0.0269598216 0.0386454351 0.000305589347 0.023664197 0.0392355099 0.00787555799 0.0419409201 0.0356503651 0.0146896811 0.0456826128 0.0360030904 0.00674056681 0.0419409201 0.0356503651 0.0146896811 0.023664197 0.0392355099 0.00787555799 0.0214855 0.038447056 0.0143326484 0.048237104 0.0308804084 0.0209621172 0.04783912 0.021920925 0.0323185883 0.0509380363 0.0283328723 0.0197496396 0.0511497855 0.0318392329 0.00668644672 0.048237104 0.0308804084 0.0209621172 0.0509380363 0.0283328723 0.0197496396 0.0442810692 0.0326150395 0.0221430045 0.0419409201 0.0356503651 0.0146896811 0.0184900686 0.0364184193 0.0216125213 0.0442810692 0.0326150395 0.0221430045 0.0146941375 0.0311640911 0.0308644734 0.0407314971 0.027281804 0.0308166724 0.0146941375 0.0311640911 0.0308644734 0.0442810692 0.0326150395 0.0221430045 0.0184900686 0.0364184193 0.0216125213 0.0442043059 0.0231717471 0.0338039361 0.0442810692 0.0326150395 0.0221430045 0.0407314971 0.027281804 0.0308166724 0.0419409201 0.0356503651 0.0146896811 0.0442810692 0.0326150395 0.0221430045 0.0456826128 0.0360030904 0.00674056681 0.0442810692 0.0326150395 0.0221430045 0.048237104 0.0308804084 0.0209621172 0.0456826128 0.0360030904 0.00674056681 0.0442810692 0.0326150395 0.0221430045 0.0442043059 0.0231717471 0.0338039361 0.04783912 0.021920925 0.0323185883 0.048237104 0.0308804084 0.0209621172 0.0442810692 0.0326150395 0.0221430045 0.04783912 0.021920925 0.0323185883 0.0165078733 -0.0341818705 0.026328085 0.014080503 -0.0294936225 0.0328589641 0.00893364195 -0.0302234627 0.0321608782 0.014080503 -0.0294936225 0.0328589641 0.0165078733 -0.0341818705 0.026328085 0.0407393202 -0.0276257396 0.0305184107 0.014080503 -0.0294936225 0.0328589641 0.0118588815 -0.0240543578 0.038006898 0.00893364195 -0.0302234627 0.0321608782 0.0118588815 -0.0240543578 0.038006898 0.014080503 -0.0294936225 0.0328589641 0.0437716022 -0.023430489 0.0339255333 0.014080503 -0.0294936225 0.0328589641 0.0407393202 -0.0276257396 0.0305184107 0.0437716022 -0.023430489 0.0339255333 0.0116654485 -0.0346370675 0.0254324656 0.0151547426 -0.03815265 0.0165386181 0.0193402544 -0.0371476822 0.0196734667 0.0165078733 -0.0341818705 0.026328085 0.0116654485 -0.0346370675 0.0254324656 0.0193402544 -0.0371476822 0.0196734667 0.0151547426 -0.03815265 0.0165386181 0.0116654485 -0.0346370675 0.0254324656 0.00893364195 -0.0302234627 0.0321608782 0.0116654485 -0.0346370675 0.0254324656 0.0165078733 -0.0341818705 0.026328085 0.00893364195 -0.0302234627 0.0321608782 0.0490290262 -0.00967983622 -0.0279375333 0.0450958572 -0.0166870374 -0.0262597203 0.0389824323 -0.0131250257 -0.0302001256 0.0530733466 -0.00891403761 -0.0221221447 0.0529528484 -0.0207196083 -0.0152382264 0.0519171059 -0.0229227841 -0.0168361086 0.0530908778 -0.0276452657 0.006286263 0.0530733466 -0.00891403761 -0.0221221447 0.0531002358 0.00976830814 -0.0217338242 0.0530733466 -0.00891403761 -0.0221221447 0.0530908778 -0.0276452657 0.006286263 0.0529528484 -0.0207196083 -0.0152382264 0.0525849499 0.0252309553 0.0182738286 0.0525429398 0.0175615437 0.0271409731 0.0531010702 0.0152873257 0.0247483235 0.0525429398 0.0175615437 0.0271409731 0.0525849499 0.0252309553 0.0182738286 0.0507611856 0.0199550297 0.0299836379 0.0506089367 0.00699505443 0.0365424156 0.0525429398 0.0175615437 0.0271409731 0.0507611856 0.0199550297 0.0299836379 0.0318199061 -0.0231796075 -0.0250573177 0.0276027191 -0.0330806859 -0.0145875225 0.0342063159 -0.0102456342 -0.031095447 0.0389824323 -0.0131250257 -0.0302001256 0.0318199061 -0.0231796075 -0.0250573177 0.0342063159 -0.0102456342 -0.031095447 0.0511498004 -0.0319296904 0.00668609049 0.0530908778 -0.0276452657 0.006286263 0.0525850393 -0.0253213663 0.0182738286 0.0506241731 -0.00721354643 0.0364617109 0.0478159525 -0.00781102665 0.0394278765 0.0507611856 -0.0200454928 0.0299837571 0.0506241731 -0.00721354643 0.0364617109 0.0525430143 -0.0176519454 0.0271409731 0.0528575554 -0.0037258314 0.0325932503 0.0506241731 -0.00721354643 0.0364617109 0.0507611856 -0.0200454928 0.0299837571 0.0525430143 -0.0176519454 0.0271409731 0.0506241731 -0.00721354643 0.0364617109 0.0506089367 0.00699505443 0.0365424156 0.0478159525 -0.00781102665 0.0394278765 0.043153666 0.0103760604 0.0409506559 0.0379175842 0.0193656683 0.0380375348 0.0319273025 0.0129802115 0.0419357978 0.0379175842 0.0193656683 0.0380375348 0.043153666 0.0103760604 0.0409506559 0.0442043059 0.0231717471 0.0338039361 0.0305237826 0.0238134451 0.0359806977 0.0379175842 0.0193656683 0.0380375348 0.0442043059 0.0231717471 0.0338039361 0.0319273025 0.0129802115 0.0419357978 0.0379175842 0.0193656683 0.0380375348 0.0100590354 0.0154644139 0.0430319272 0.0506089367 0.00699505443 0.0365424156 0.0477848351 0.00779347261 0.0394234657 0.0449627489 -6.51845839e-05 0.0423432551 0.0477848351 0.00779347261 0.0394234657 0.043153666 0.0103760604 0.0409506559 0.0449627489 -6.51845839e-05 0.0423432551 0.043153666 0.0103760604 0.0409506559 0.0477848351 0.00779347261 0.0394234657 0.04783912 0.021920925 0.0323185883 0.0477848351 0.00779347261 0.0394234657 0.0507611856 0.0199550297 0.0299836379 0.04783912 0.021920925 0.0323185883 0.0477848351 0.00779347261 0.0394234657 0.0506089367 0.00699505443 0.0365424156 0.0507611856 0.0199550297 0.0299836379 0.011948972 0.0239783917 0.0379860364 0.00520044332 0.0186909642 0.0414264165 0.0100590354 0.0154644139 0.0430319272 0.0379175842 0.0193656683 0.0380375348 0.011948972 0.0239783917 0.0379860364 0.0100590354 0.0154644139 0.0430319272 0.011948972 0.0239783917 0.0379860364 0.0379175842 0.0193656683 0.0380375348 0.0305237826 0.0238134451 0.0359806977 0.00520044332 0.0186909642 0.0414264165 0.011948972 0.0239783917 0.0379860364 0.00826668739 0.0286890641 0.033892151 0.011948972 0.0239783917 0.0379860364 0.0146941375 0.0311640911 0.0308644734 0.00826668739 0.0286890641 0.033892151 0.011948972 0.0239783917 0.0379860364 0.0305237826 0.0238134451 0.0359806977 0.0146941375 0.0311640911 0.0308644734 0.048237104 0.0308804084 0.0209621172 0.0487133861 0.0343839936 0.00671958644 0.0456826128 0.0360030904 0.00674056681 0.0487133861 0.0343839936 0.00671958644 0.048237104 0.0308804084 0.0209621172 0.0511497855 0.0318392329 0.00668644672 0.0456826128 0.0360030904 0.00674056681 0.0487133861 0.0343839936 0.00671958644 0.0491306745 0.0328538194 -0.00449872296 0.0487133861 0.0343839936 0.00671958644 0.0511497855 0.0318392329 0.00668644672 0.0491306745 0.0328538194 -0.00449872296 0.0482958667 -4.55114241e-05 -0.0295956153 0.0490290262 -0.00967983622 -0.0279375333 0.0401548818 -0.000173492386 -0.0324406624 0.0380730145 0.0182590038 -0.0278319735 0.0394973867 0.0107554812 -0.0308143534 0.0326459743 0.0198201109 -0.0271941461 0.0469993502 0.027998656 -0.0164853949 0.0335805118 0.0315527655 -0.0165517367 0.0447725728 0.031826023 -0.0114511875 0.0469993502 0.027998656 -0.0164853949 0.0458566733 0.0340377092 -0.00623321859 0.0491306745 0.0328538194 -0.00449872296 0.0458566733 0.0340377092 -0.00623321859 0.0469993502 0.027998656 -0.0164853949 0.0447725728 0.031826023 -0.0114511875 0.0490242764 0.00959012937 -0.0279410481 0.0486277193 0.0236670095 -0.0203109998 0.0516627729 0.00905255973 -0.0254695453 0.0394973867 0.0107554812 -0.0308143534 0.0490242764 0.00959012937 -0.0279410481 0.0401548818 -0.000173492386 -0.0324406624 0.0490242764 0.00959012937 -0.0279410481 0.0482958667 -4.55114241e-05 -0.0295956153 0.0401548818 -0.000173492386 -0.0324406624 0.0526210926 0.0225987397 -0.0148874559 0.0530718341 0.0276155081 0.00626623351 0.0531002358 0.00976830814 -0.0217338242 0.0526210926 0.0225987397 -0.0148874559 0.052255407 0.029134322 -0.00344467442 0.0530718341 0.0276155081 0.00626623351 0.0525430143 -0.0176519454 0.0271409731 0.053099364 -0.0153627833 0.024767993 0.0528575554 -0.0037258314 0.0325932503 0.0528575554 -0.0037258314 0.0325932503 0.053099364 -0.0153627833 0.024767993 0.0531010702 0.0152873257 0.0247483235 0.053099364 -0.0153627833 0.024767993 0.0525430143 -0.0176519454 0.0271409731 0.0525850393 -0.0253213663 0.0182738286 0.0530908778 -0.0276452657 0.006286263 0.053099364 -0.0153627833 0.024767993 0.0525850393 -0.0253213663 0.0182738286 0.053099364 -0.0153627833 0.024767993 0.0531002358 0.00976830814 -0.0217338242 0.0531010702 0.0152873257 0.0247483235 0.053099364 -0.0153627833 0.024767993 0.0530908778 -0.0276452657 0.006286263 0.0531002358 0.00976830814 -0.0217338242 0.0529528484 -0.0207196083 -0.0152382264 0.05225401 -0.0292305909 -0.00344270468 0.0519171059 -0.0229227841 -0.0168361086 0.0530908778 -0.0276452657 0.006286263 0.05225401 -0.0292305909 -0.00344270468 0.0529528484 -0.0207196083 -0.0152382264 0.05225401 -0.0292305909 -0.00344270468 0.0511498004 -0.0319296904 0.00668609049 0.0491266064 -0.0329469107 -0.00449991273 0.0511498004 -0.0319296904 0.00668609049 0.05225401 -0.0292305909 -0.00344270468 0.0530908778 -0.0276452657 0.006286263 0.0516628139 -0.00914293155 -0.025469603 0.0530733466 -0.00891403761 -0.0221221447 0.0519171059 -0.0229227841 -0.0168361086 0.0524363965 0.00424148375 0.0335441791 0.0525429398 0.0175615437 0.0271409731 0.0506089367 0.00699505443 0.0365424156 0.0524363965 0.00424148375 0.0335441791 0.0506241731 -0.00721354643 0.0364617109 0.0528575554 -0.0037258314 0.0325932503 0.0506241731 -0.00721354643 0.0364617109 0.0524363965 0.00424148375 0.0335441791 0.0506089367 0.00699505443 0.0365424156 0.0524363965 0.00424148375 0.0335441791 0.0528575554 -0.0037258314 0.0325932503 0.0531010702 0.0152873257 0.0247483235 0.0525429398 0.0175615437 0.0271409731 0.0524363965 0.00424148375 0.0335441791 0.0531010702 0.0152873257 0.0247483235 0.0458426885 -0.0341273136 -0.00624233624 0.0427749977 -0.0365902819 0.00360399392 0.0297720376 -0.0369702205 -0.00649416586 0.0327564292 -0.0331014954 -0.0142405638 0.0458426885 -0.0341273136 -0.00624233624 0.0297720376 -0.0369702205 -0.00649416586 0.044771228 -0.0319142379 -0.0114554772 0.0458426885 -0.0341273136 -0.00624233624 0.0327564292 -0.0331014954 -0.0142405638 0.0226607639 -0.0383748971 -0.00206351443 0.0264530871 -0.0389988124 0.00209319452 0.0185737256 -0.0393020958 0.00803172495 0.0264530871 -0.0389988124 0.00209319452 0.022648761 -0.0391171947 0.0112032881 0.0185737256 -0.0393020958 0.00803172495 0.0264530871 -0.0389988124 0.00209319452 0.0226607639 -0.0383748971 -0.00206351443 0.0297720376 -0.0369702205 -0.00649416586 0.0427749977 -0.0365902819 0.00360399392 0.0264530871 -0.0389988124 0.00209319452 0.0297720376 -0.0369702205 -0.00649416586 0.05225401 -0.0292305909 -0.00344270468 0.0501370654 -0.0263385568 -0.0155596146 0.0519171059 -0.0229227841 -0.0168361086 0.0501370654 -0.0263385568 -0.0155596146 0.05225401 -0.0292305909 -0.00344270468 0.0491266064 -0.0329469107 -0.00449991273 0.0443156064 -0.0327237993 0.02206528 0.0482371636 -0.0309707243 0.0209619999 0.0478391498 -0.0220112819 0.0323182344 0.0511498004 -0.0319296904 0.00668609049 0.0487133265 -0.0344744176 0.00671934942 0.0491266064 -0.0329469107 -0.00449991273 0.0482371636 -0.0309707243 0.0209619999 0.0487133265 -0.0344744176 0.00671934942 0.0511498004 -0.0319296904 0.00668609049 0.0363242179 0.024897391 -0.0233674087 0.0380730145 0.0182590038 -0.0278319735 0.0326459743 0.0198201109 -0.0271941461 0.0363242179 0.024897391 -0.0233674087 0.0326459743 0.0198201109 -0.0271941461 0.0288656671 0.0307267718 -0.0177022237 0.0335805118 0.0315527655 -0.0165517367 0.0363242179 0.024897391 -0.0233674087 0.0288656671 0.0307267718 -0.0177022237 0.0380730145 0.0182590038 -0.0278319735 0.0363242179 0.024897391 -0.0233674087 0.0486277193 0.0236670095 -0.0203109998 0.0469993502 0.027998656 -0.0164853949 0.0363242179 0.024897391 -0.0233674087 0.0335805118 0.0315527655 -0.0165517367 0.0363242179 0.024897391 -0.0233674087 0.0469993502 0.027998656 -0.0164853949 0.0486277193 0.0236670095 -0.0203109998 0.0450931489 0.0166674387 -0.0262236036 0.0380730145 0.0182590038 -0.0278319735 0.0486277193 0.0236670095 -0.0203109998 0.0490242764 0.00959012937 -0.0279410481 0.0450931489 0.0166674387 -0.0262236036 0.0486277193 0.0236670095 -0.0203109998 0.0380730145 0.0182590038 -0.0278319735 0.0450931489 0.0166674387 -0.0262236036 0.0394973867 0.0107554812 -0.0308143534 0.0450931489 0.0166674387 -0.0262236036 0.0490242764 0.00959012937 -0.0279410481 0.0394973867 0.0107554812 -0.0308143534 0.0469993502 0.027998656 -0.0164853949 0.0501416884 0.0262447149 -0.0155573497 0.0486277193 0.0236670095 -0.0203109998 0.0501416884 0.0262447149 -0.0155573497 0.0469993502 0.027998656 -0.0164853949 0.0491306745 0.0328538194 -0.00449872296 0.052255407 0.029134322 -0.00344467442 0.0501416884 0.0262447149 -0.0155573497 0.0491306745 0.0328538194 -0.00449872296 0.0526210926 0.0225987397 -0.0148874559 0.0501416884 0.0262447149 -0.0155573497 0.052255407 0.029134322 -0.00344467442 0.0486277193 0.0236670095 -0.0203109998 0.0515466072 0.0214315318 -0.0184717216 0.0516627729 0.00905255973 -0.0254695453 0.0516627729 0.00905255973 -0.0254695453 0.0515466072 0.0214315318 -0.0184717216 0.0531002358 0.00976830814 -0.0217338242 0.0515466072 0.0214315318 -0.0184717216 0.0526210926 0.0225987397 -0.0148874559 0.0531002358 0.00976830814 -0.0217338242 0.0501416884 0.0262447149 -0.0155573497 0.0515466072 0.0214315318 -0.0184717216 0.0486277193 0.0236670095 -0.0203109998 0.0515466072 0.0214315318 -0.0184717216 0.0501416884 0.0262447149 -0.0155573497 0.0526210926 0.0225987397 -0.0148874559 0.0518705547 -4.56547314e-05 -0.0267452616 0.0490242764 0.00959012937 -0.0279410481 0.0516627729 0.00905255973 -0.0254695453 0.0490242764 0.00959012937 -0.0279410481 0.0518705547 -4.56547314e-05 -0.0267452616 0.0482958667 -4.55114241e-05 -0.0295956153 0.0516628139 -0.00914293155 -0.025469603 0.0518705547 -4.56547314e-05 -0.0267452616 0.0530733466 -0.00891403761 -0.0221221447 0.0482958667 -4.55114241e-05 -0.0295956153 0.0518705547 -4.56547314e-05 -0.0267452616 0.0490290262 -0.00967983622 -0.0279375333 0.0518705547 -4.56547314e-05 -0.0267452616 0.0516628139 -0.00914293155 -0.025469603 0.0490290262 -0.00967983622 -0.0279375333 0.0518705547 -4.56547314e-05 -0.0267452616 0.0516627729 0.00905255973 -0.0254695453 0.0531002358 0.00976830814 -0.0217338242 0.0530733466 -0.00891403761 -0.0221221447 0.0518705547 -4.56547314e-05 -0.0267452616 0.0531002358 0.00976830814 -0.0217338242 0.0501370654 -0.0263385568 -0.0155596146 0.0486270264 -0.0237618703 -0.0203084946 0.0519171059 -0.0229227841 -0.0168361086 0.0486270264 -0.0237618703 -0.0203084946 0.0450958572 -0.0166870374 -0.0262597203 0.0490290262 -0.00967983622 -0.0279375333 0.0486270264 -0.0237618703 -0.0203084946 0.0516628139 -0.00914293155 -0.025469603 0.0519171059 -0.0229227841 -0.0168361086 0.0516628139 -0.00914293155 -0.025469603 0.0486270264 -0.0237618703 -0.0203084946 0.0490290262 -0.00967983622 -0.0279375333 0.0509381257 -0.0284231808 0.0197496414 0.0511498004 -0.0319296904 0.00668609049 0.0525850393 -0.0253213663 0.0182738286 0.0509381257 -0.0284231808 0.0197496414 0.0482371636 -0.0309707243 0.0209619999 0.0511498004 -0.0319296904 0.00668609049 0.0507611856 -0.0200454928 0.0299837571 0.0509381257 -0.0284231808 0.0197496414 0.0525850393 -0.0253213663 0.0182738286 0.0509381257 -0.0284231808 0.0197496414 0.0507611856 -0.0200454928 0.0299837571 0.0478391498 -0.0220112819 0.0323182344 0.0482371636 -0.0309707243 0.0209619999 0.0509381257 -0.0284231808 0.0197496414 0.0478391498 -0.0220112819 0.0323182344 0.0456826352 -0.0360934846 0.00674080802 0.0458426885 -0.0341273136 -0.00624233624 0.0491266064 -0.0329469107 -0.00449991273 0.0487133265 -0.0344744176 0.00671934942 0.0456826352 -0.0360934846 0.00674080802 0.0491266064 -0.0329469107 -0.00449991273 0.0458426885 -0.0341273136 -0.00624233624 0.0456826352 -0.0360934846 0.00674080802 0.0427749977 -0.0365902819 0.00360399392 0.022648761 -0.0391171947 0.0112032881 0.0456826352 -0.0360934846 0.00674080802 0.0420528427 -0.0360419787 0.0132673969 0.0456826352 -0.0360934846 0.00674080802 0.0443156064 -0.0327237993 0.02206528 0.0420528427 -0.0360419787 0.0132673969 0.0264530871 -0.0389988124 0.00209319452 0.0456826352 -0.0360934846 0.00674080802 0.022648761 -0.0391171947 0.0112032881 0.0456826352 -0.0360934846 0.00674080802 0.0264530871 -0.0389988124 0.00209319452 0.0427749977 -0.0365902819 0.00360399392 0.0456826352 -0.0360934846 0.00674080802 0.0482371636 -0.0309707243 0.0209619999 0.0443156064 -0.0327237993 0.02206528 0.0456826352 -0.0360934846 0.00674080802 0.0487133265 -0.0344744176 0.00671934942 0.0482371636 -0.0309707243 0.0209619999 0.0350911617 -0.0281317029 -0.02054739 0.0327564292 -0.0331014954 -0.0142405638 0.0276027191 -0.0330806859 -0.0145875225 0.0318199061 -0.0231796075 -0.0250573177 0.0350911617 -0.0281317029 -0.02054739 0.0276027191 -0.0330806859 -0.0145875225 0.0469995961 -0.0280875601 -0.0164873023 0.0486270264 -0.0237618703 -0.0203084946 0.0501370654 -0.0263385568 -0.0155596146 0.0469995961 -0.0280875601 -0.0164873023 0.0458426885 -0.0341273136 -0.00624233624 0.044771228 -0.0319142379 -0.0114554772 0.0469995961 -0.0280875601 -0.0164873023 0.0350911617 -0.0281317029 -0.02054739 0.0486270264 -0.0237618703 -0.0203084946 0.0458426885 -0.0341273136 -0.00624233624 0.0469995961 -0.0280875601 -0.0164873023 0.0491266064 -0.0329469107 -0.00449991273 0.0469995961 -0.0280875601 -0.0164873023 0.0501370654 -0.0263385568 -0.0155596146 0.0491266064 -0.0329469107 -0.00449991273 0.0469995961 -0.0280875601 -0.0164873023 0.044771228 -0.0319142379 -0.0114554772 0.0327564292 -0.0331014954 -0.0142405638 0.0350911617 -0.0281317029 -0.02054739 0.0469995961 -0.0280875601 -0.0164873023 0.0327564292 -0.0331014954 -0.0142405638 0.0374434814 -0.0217164047 -0.0257828236 0.0350911617 -0.0281317029 -0.02054739 0.0318199061 -0.0231796075 -0.0250573177 0.0350911617 -0.0281317029 -0.02054739 0.0374434814 -0.0217164047 -0.0257828236 0.0486270264 -0.0237618703 -0.0203084946 0.0486270264 -0.0237618703 -0.0203084946 0.0374434814 -0.0217164047 -0.0257828236 0.0450958572 -0.0166870374 -0.0262597203 0.0450958572 -0.0166870374 -0.0262597203 0.0374434814 -0.0217164047 -0.0257828236 0.0389824323 -0.0131250257 -0.0302001256 0.0374434814 -0.0217164047 -0.0257828236 0.0318199061 -0.0231796075 -0.0250573177 0.0389824323 -0.0131250257 -0.0302001256 </float_array>
          <technique_common>
            <accessor count="720" offset="0" source="#mesh_0-positions-array" stride="3">
              <param name="X" type="float" />
              <param name="Y" type="float" />
              <param name="Z" type="float" />
            </accessor>
          </technique_common>
        </source>
        <vertices id="mesh_0-vertices">
          <input semantic="POSITION" source="#mesh_0-positions" />
        </vertices>
        <polylist count="240" material="defaultMaterial">
          <input offset="0" semantic="VERTEX" source="#mesh_0-vertices" />
          <vcount>3 3 3 3 3 3 3 3 3 3 3 3 3 3 3 3 3 3 3 3 3 3 3 3 3 3 3 3 3 3 3 3 3 3 3 3 3 3 3 3 3 3 3 3 3 3 3 3 3 3 3 3 3 3 3 3 3 3 3 3 3 3 3 3 3 3 3 3 3 3 3 3 3 3 3 3 3 3 3 3 3 3 3 3 3 3 3 3 3 3 3 3 3 3 3 3 3 3 3 3 3 3 3 3 3 3 3 3 3 3 3 3 3 3 3 3 3 3 3 3 3 3 3 3 3 3 3 3 3 3 3 3 3 3 3 3 3 3 3 3 3 3 3 3 3 3 3 3 3 3 3 3 3 3 3 3 3 3 3 3 3 3 3 3 3 3 3 3 3 3 3 3 3 3 3 3 3 3 3 3 3 3 3 3 3 3 3 3 3 3 3 3 3 3 3 3 3 3 3 3 3 3 3 3 3 3 3 3 3 3 3 3 3 3 3 3 3 3 3 3 3 3 3 3 3 3 3 3 3 3 3 3 3 3 3 3 3 3 3 3 </vcount>
          <p>0 1 2 3 4 5 6 7 8 9 10 11 12 13 14 15 16 17 18 19 20 21 22 23 24 25 26 27 28 29 30 31 32 33 34 35 36 37 38 39 40 41 42 43 44 45 46 47 48 49 50 51 52 53 54 55 56 57 58 59 60 61 62 63 64 65 66 67 68 69 70 71 72 73 74 75 76 77 78 79 80 81 82 83 84 85 86 87 88 89 90 91 92 93 94 95 96 97 98 99 100 101 102 103 104 105 106 107 108 109 110 111 112 113 114 115 116 117 118 119 120 121 122 123 124 125 126 127 128 129 130 131 132 133 134 135 136 137 138 139 140 141 142 143 144 145 146 147 148 149 150 151 152 153 154 155 156 157 158 159 160 161 162 163 164 165 166 167 168 169 170 171 172 173 174 175 176 177 178 179 180 181 182 183 184 185 186 187 188 189 190 191 192 193 194 195 196 197 198 199 200 201 202 203 204 205 206 207 208 209 210 211 212 213 214 215 216 217 218 219 220 221 222 223 224 225 226 227 228 229 230 231 232 233 234 235 236 237 238 239 240 241 242 243 244 245 246 247 248 249 250 251 252 253 254 255 256 257 258 259 260 261 262 263 264 265 266 267 268 269 270 271 272 273 274 275 276 277 278 279 280 281 282 283 284 285 286 287 288 289 290 291 292 293 294 295 296 297 298 299 300 301 302 303 304 305 306 307 308 309 310 311 312 313 314 315 316 317 318 319 320 321 322 323 324 325 326 327 328 329 330 331 332 333 334 335 336 337 338 339 340 341 342 343 344 345 346 347 348 349 350 351 352 353 354 355 356 357 358 359 360 361 362 363 364 365 366 367 368 369 370 371 372 373 374 375 376 377 378 379 380 381 382 383 384 385 386 387 388 389 390 391 392 393 394 395 396 397 398 399 400 401 402 403 404 405 406 407 408 409 410 411 412 413 414 415 416 417 418 419 420 421 422 423 424 425 426 427 428 429 430 431 432 433 434 435 436 437 438 439 440 441 442 443 444 445 446 447 448 449 450 451 452 453 454 455 456 457 458 459 460 461 462 463 464 465 466 467 468 469 470 471 472 473 474 475 476 477 478 479 480 481 482 483 484 485 486 487 488 489 490 491 492 493 494 495 496 497 498 499 500 501 502 503 504 505 506 507 508 509 510 511 512 513 514 515 516 517 518 519 520 521 522 523 524 525 526 527 528 529 530 531 532 533 534 535 536 537 538 539 540 541 542 543 544 545 546 547 548 549 550 551 552 553 554 555 556 557 558 559 560 561 562 563 564 565 566 567 568 569 570 571 572 573 574 575 576 577 578 579 580 581 582 583 584 585 586 587 588 589 590 591 592 593 594 595 596 597 598 599 600 601 602 603 604 605 606 607 608 609 610 611 612 613 614 615 616 617 618 619 620 621 622 623 624 625 626 627 628 629 630 631 632 633 634 635 636 637 638 639 640 641 642 643 644 645 646 647 648 649 650 651 652 653 654 655 656 657 658 659 660 661 662 663 664 665 666 667 668 669 670 671 672 673 674 675 676 677 678 679 680 681 682 683 684 685 686 687 688 689 690 691 692 693 694 695 696 697 698 699 700 701 702 703 704 705 706 707 708 709 710 711 712 713 714 715 716 717 718 719 </p>
        </polylist>
      </mesh>
    </geometry>
  </library_geometries>
  <library_controllers>
  </library_controllers>
  <library_visual_scenes>
    <visual_scene id="Scene" name="Scene">
      <node id="node" name="" type="NODE">
        <matrix sid="matrix">1 0 0 0 0 1 0 0 0 0 1 0 0 0 0 1</matrix>
        <instance_geometry url="#mesh_0">
          <bind_material>
            <technique_common>
              <instance_material symbol="defaultMaterial" target="#material_0">
              </instance_material>
            </technique_common>
          </bind_material>
        </instance_geometry>
      </node>
    </visual_scene>
  </library_visual_scenes>
  <scene>
    <instance_visual_scene url="#Scene" />
  </scene>
</COLLADA>
