<?xml version="1.0" encoding="UTF-8" standalone="no" ?>
<COLLADA xmlns="http://www.collada.org/2005/11/COLLADASchema" version="1.4.1">
  <asset>
    <contributor>
      <author>Assimp</author>
      <authoring_tool>Assimp Exporter</authoring_tool>
    </contributor>
    <created>2025-11-12T11:09:31</created>
    <modified>2025-11-12T11:09:31</modified>
    <unit name="meter" meter="1" />
    <up_axis>Y_UP</up_axis>
  </asset>
  <library_images>
  </library_images>
  <library_effects>
    <effect id="material_0-fx" name="">
      <profile_COMMON>
        <technique sid="standard">
          <phong>
            <emission>
              <color sid="emission">0   0   0   4.28026616e-41</color>
            </emission>
            <ambient>
              <color sid="ambient">0.719165564   0.882352889   0.352941155   4.28026616e-41</color>
            </ambient>
            <diffuse>
              <color sid="diffuse">0.719165564   0.882352889   0.352941155   4.28026616e-41</color>
            </diffuse>
            <specular>
              <color sid="specular">0.529999971   0.529999971   0.529999971   4.28026616e-41</color>
            </specular>
          </phong>
        </technique>
      </profile_COMMON>
    </effect>
  </library_effects>
  <library_materials>
    <material id="material_0" name="">
      <instance_effect url="#material_0-fx"/>
    </material>
  </library_materials>
  <library_geometries>
    <geometry id="mesh_0" name="" >
      <mesh>
        <source id="mesh_0-positions" name="mesh_0-positions">
          <float_array id="mesh_0-positions-array" count="2538"> -0.0518753119 -0.0115763582 0.060242191 -0.0460252389 -0.0116051128 0.0638044626 -0.0468533635 -0.000223866955 0.0642305464 -0.0526566245 0.00529201608 0.0605824292 -0.0518753119 -0.0115763582 0.060242191 -0.0468533635 -0.000223866955 0.0642305464 -0.0518753119 -0.0115763582 0.060242191 -0.0526566245 0.00529201608 0.0605824292 -0.0528945588 -0.00176511309 0.0552916825 -0.0470474176 -0.0259721018 0.0580595136 -0.0423785634 -0.0340261422 0.0507583171 -0.0394704267 -0.0378437936 0.0548016131 -0.0460252389 -0.0116051128 0.0638044626 -0.0399277173 -0.0230056811 0.0634538382 -0.0468533635 -0.000223866955 0.0642305464 -0.0274106823 0.0487702005 0.0443065614 0.033773385 0.0533235297 0.017936565 -0.0448575169 0.0294692442 0.051824227 -0.0503138341 0.0170485619 0.0541809052 -0.0448575169 0.0294692442 0.051824227 -0.0528945588 -0.00176511309 0.0552916825 -0.0526566245 0.00529201608 0.0605824292 -0.0503138341 0.0170485619 0.0541809052 -0.0528945588 -0.00176511309 0.0552916825 -0.0503138341 0.0170485619 0.0541809052 -0.0526566245 0.00529201608 0.0605824292 -0.0500319898 0.0173791591 0.059662655 -0.00417162711 -0.0591221042 0.0347260684 0.0072245202 -0.059947975 0.0293776765 0.00408379454 -0.0600308292 0.0359671414 0.0668547526 0.00531309005 0.0096308738 0.0655096397 0.0138296457 0.0100638801 0.0617713667 0.0123230824 0.0385966599 0.0664964095 0.00699133566 0.00383016421 0.033773385 0.0533235297 0.017936565 0.0553121716 0.0354919806 0.0086773783 0.0668547526 0.00531309005 0.0096308738 0.0664964095 0.00699133566 0.00383016421 0.0655096397 0.0138296457 0.0100638801 0.0664964095 0.00699133566 0.00383016421 0.0668547526 0.00531309005 0.0096308738 0.0671219677 -0.00335996808 0.0091911545 0.033773385 0.0533235297 0.017936565 0.0664964095 0.00699133566 0.00383016421 -0.0448575169 0.0294692442 0.051824227 -0.0254590064 0.0503151007 0.0488673449 -0.0115153389 0.0529499166 0.0544111431 -0.0157069173 0.0553659573 0.0444405973 -0.0254590064 0.0503151007 0.0488673449 -0.0274106823 0.0487702005 0.0443065614 -0.0375238582 0.0402664505 0.0536828935 -0.0254590064 0.0503151007 0.0488673449 -0.0157069173 0.0553659573 0.0444405973 -0.0140573224 0.0561228767 0.0386831164 -0.0274106823 0.0487702005 0.0443065614 -0.0254590064 0.0503151007 0.0488673449 -0.0140573224 0.0561228767 0.0386831164 -0.0255166162 0.0444401093 0.0592202395 -0.0254590064 0.0503151007 0.0488673449 -0.0375238582 0.0402664505 0.0536828935 -0.0115153389 0.0529499166 0.0544111431 -0.00578544801 0.0584716201 0.0407378078 -0.0157069173 0.0553659573 0.0444405973 -0.0157069173 0.0553659573 0.0444405973 -0.00578544801 0.0584716201 0.0407378078 -0.0140573224 0.0561228767 0.0386831164 -0.0432692841 -0.022324726 0.0626948029 -0.0399277173 -0.0230056811 0.0634538382 -0.0460252389 -0.0116051128 0.0638044626 -0.0432692841 -0.022324726 0.0626948029 -0.0460252389 -0.0116051128 0.0638044626 -0.0518753119 -0.0115763582 0.060242191 -0.0470474176 -0.0259721018 0.0580595136 -0.0432692841 -0.022324726 0.0626948029 -0.0518753119 -0.0115763582 0.060242191 0.033773385 0.0533235297 0.017936565 0.00489197345 0.0599379838 0.0304261371 0.0226734728 0.057829015 0.0229304507 0.0226734728 0.057829015 0.0229304507 0.00489197345 0.0599379838 0.0304261371 0.00886152871 0.0600308329 0.0341650993 0.00489197345 0.0599379838 0.0304261371 -0.0274106823 0.0487702005 0.0443065614 -0.0140573224 0.0561228767 0.0386831164 -0.0274106823 0.0487702005 0.0443065614 0.00489197345 0.0599379838 0.0304261371 0.033773385 0.0533235297 0.017936565 0.00489197345 0.0599379838 0.0304261371 -0.00578544801 0.0584716201 0.0407378078 0.00886152871 0.0600308329 0.0341650993 -0.00578544801 0.0584716201 0.0407378078 0.00489197345 0.0599379838 0.0304261371 -0.0140573224 0.0561228767 0.0386831164 -0.037798699 0.0396137163 0.0488151163 -0.0448575169 0.0294692442 0.051824227 -0.0375238582 0.0402664505 0.0536828935 -0.0274106823 0.0487702005 0.0443065614 -0.037798699 0.0396137163 0.0488151163 -0.0375238582 0.0402664505 0.0536828935 -0.037798699 0.0396137163 0.0488151163 -0.0274106823 0.0487702005 0.0443065614 -0.0448575169 0.0294692442 0.051824227 -0.0423785634 -0.0340261422 0.0507583171 -0.0332549624 -0.0445000604 0.0520237088 -0.0394704267 -0.0378437936 0.0548016131 0.0223071128 -0.0546045974 0.0456969738 0.0304274969 -0.0555068664 0.0247487798 0.0321650133 -0.0508750789 0.0434468836 0.0659379959 -0.0120855421 0.00969722122 0.0632270724 -0.0216060076 0.0106468508 0.0647552386 -0.0159704294 0.00459127873 0.0632270724 -0.0216060076 0.0106468508 0.06048318 -0.0273778699 0.00695487903 0.0647552386 -0.0159704294 0.00459127873 0.0298231263 -0.055550009 0.0196445361 0.0647552386 -0.0159704294 0.00459127873 0.0432720445 -0.0479041301 0.0138965854 0.0298231263 -0.055550009 0.0196445361 0.0664964095 0.00699133566 0.00383016421 0.0647552386 -0.0159704294 0.00459127873 0.0664964095 0.00699133566 0.00383016421 0.0298231263 -0.055550009 0.0196445361 0.0072245202 -0.059947975 0.0293776765 -0.0182527471 -0.0543119833 0.0404408872 0.0072245202 -0.059947975 0.0293776765 -0.00417162711 -0.0591221042 0.0347260684 -0.0182527471 -0.0543119833 0.0404408872 -0.00417162711 -0.0591221042 0.0347260684 -0.0155837573 -0.0557053499 0.0446099341 -0.0254541561 -0.0504202805 0.048715502 -0.0182527471 -0.0543119833 0.0404408872 -0.0155837573 -0.0557053499 0.0446099341 0.0655096397 0.0138296457 0.0100638801 0.0614336804 0.0171897765 0.0336176455 0.0617713667 0.0123230824 0.0385966599 0.0616268441 0.0254014283 0.0109608993 0.0614336804 0.0171897765 0.0336176455 0.0655096397 0.0138296457 0.0100638801 0.0616268441 0.0254014283 0.0109608993 0.0615064949 0.0252658799 0.0066424082 0.0553121716 0.0354919806 0.0086773783 0.0615064949 0.0252658799 0.0066424082 0.0664964095 0.00699133566 0.00383016421 0.0553121716 0.0354919806 0.0086773783 0.0667815059 -0.00637350138 0.00452783704 0.0664964095 0.00699133566 0.00383016421 0.0671219677 -0.00335996808 0.0091911545 0.0664964095 0.00699133566 0.00383016421 0.0667815059 -0.00637350138 0.00452783704 0.0647552386 -0.0159704294 0.00459127873 0.0659379959 -0.0120855421 0.00969722122 0.0667815059 -0.00637350138 0.00452783704 0.0671219677 -0.00335996808 0.0091911545 0.0667815059 -0.00637350138 0.00452783704 0.0659379959 -0.0120855421 0.00969722122 0.0647552386 -0.0159704294 0.00459127873 0.0664964095 0.00699133566 0.00383016421 -0.0500064604 -0.0178692155 0.0540417731 -0.0448575169 0.0294692442 0.051824227 -0.0500064604 -0.0178692155 0.0540417731 0.0664964095 0.00699133566 0.00383016421 0.0072245202 -0.059947975 0.0293776765 -0.0448575169 0.0294692442 0.051824227 -0.0500064604 -0.0178692155 0.0540417731 -0.0528945588 -0.00176511309 0.0552916825 -0.0500064604 -0.0178692155 0.0540417731 -0.0518753119 -0.0115763582 0.060242191 -0.0528945588 -0.00176511309 0.0552916825 -0.0470474176 -0.0259721018 0.0580595136 -0.0500064604 -0.0178692155 0.0540417731 -0.0423785634 -0.0340261422 0.0507583171 -0.0500064604 -0.0178692155 0.0540417731 -0.0470474176 -0.0259721018 0.0580595136 -0.0518753119 -0.0115763582 0.060242191 -0.0432727486 0.0221740156 0.062683627 -0.0410297625 0.0208391808 0.063590914 -0.0329281986 0.032758642 0.0625315309 -0.0399277173 -0.0230056811 0.0634538382 -0.0410297625 0.0208391808 0.063590914 -0.0468533635 -0.000223866955 0.0642305464 -0.0410297625 0.0208391808 0.063590914 -0.0399277173 -0.0230056811 0.0634538382 -0.0329281986 0.032758642 0.0625315309 -0.0367038138 0.0338229164 0.0611666441 -0.0432727486 0.0221740156 0.062683627 -0.0329281986 0.032758642 0.0625315309 -0.0367038138 0.0338229164 0.0611666441 -0.0255166162 0.0444401093 0.0592202395 -0.0375238582 0.0402664505 0.0536828935 -0.0255166162 0.0444401093 0.0592202395 -0.0367038138 0.0338229164 0.0611666441 -0.0329281986 0.032758642 0.0625315309 -0.0218409542 0.0423658378 0.0607136041 -0.0329281986 0.032758642 0.0625315309 -0.00817264337 0.0460310727 0.0592523068 -0.0218409542 0.0423658378 0.0607136041 -0.0255166162 0.0444401093 0.0592202395 -0.0329281986 0.032758642 0.0625315309 -0.0254590064 0.0503151007 0.0488673449 -0.0218310654 0.0480340049 0.0567257404 -0.0115153389 0.0529499166 0.0544111431 -0.0255166162 0.0444401093 0.0592202395 -0.0218310654 0.0480340049 0.0567257404 -0.0254590064 0.0503151007 0.0488673449 0.00700942846 0.0486405455 0.0567378551 0.000471679203 0.0518596955 0.055999279 -0.00817264337 0.0460310727 0.0592523068 -0.0218310654 0.0480340049 0.0567257404 -0.010243048 0.0499556847 0.0576182604 -0.0115153389 0.0529499166 0.0544111431 -0.010243048 0.0499556847 0.0576182604 -0.0218310654 0.0480340049 0.0567257404 -0.0255166162 0.0444401093 0.0592202395 0.000471679203 0.0518596955 0.055999279 -0.010243048 0.0499556847 0.0576182604 -0.00817264337 0.0460310727 0.0592523068 -0.010243048 0.0499556847 0.0576182604 -0.0218409542 0.0423658378 0.0607136041 -0.00817264337 0.0460310727 0.0592523068 -0.0218409542 0.0423658378 0.0607136041 -0.010243048 0.0499556847 0.0576182604 -0.0255166162 0.0444401093 0.0592202395 0.0218499228 0.0580473505 0.0286295563 0.0226734728 0.057829015 0.0229304507 0.00886152871 0.0600308329 0.0341650993 0.0495545194 0.0424085632 0.0162588209 0.042422168 0.0484550335 0.0201740265 0.0428030565 0.0433889888 0.0426607579 -0.000576049206 0.055629991 0.0520183295 -0.00578544801 0.0584716201 0.0407378078 -0.0115153389 0.0529499166 0.0544111431 -0.000576049206 0.055629991 0.0520183295 0.0107135419 0.0565349795 0.0479100943 0.00886152871 0.0600308329 0.0341650993 -0.00578544801 0.0584716201 0.0407378078 -0.000576049206 0.055629991 0.0520183295 0.00886152871 0.0600308329 0.0341650993 -0.010243048 0.0499556847 0.0576182604 -0.000576049206 0.055629991 0.0520183295 -0.0115153389 0.0529499166 0.0544111431 -0.000576049206 0.055629991 0.0520183295 -0.010243048 0.0499556847 0.0576182604 0.000471679203 0.0518596955 0.055999279 0.0304274969 -0.0555068664 0.0247487798 0.0413651243 -0.0493848585 0.0204159245 0.0321650133 -0.0508750789 0.0434468836 0.0413651243 -0.0493848585 0.0204159245 0.0298231263 -0.055550009 0.0196445361 0.0432720445 -0.0479041301 0.0138965854 0.0298231263 -0.055550009 0.0196445361 0.0413651243 -0.0493848585 0.0204159245 0.0304274969 -0.0555068664 0.0247487798 0.0168446228 -0.0593772456 0.0306877196 0.0304274969 -0.0555068664 0.0247487798 0.0223071128 -0.0546045974 0.0456969738 0.0072245202 -0.059947975 0.0293776765 0.0168446228 -0.0593772456 0.0306877196 0.00408379454 -0.0600308292 0.0359671414 -0.0182527471 -0.0543119833 0.0404408872 -0.0300501008 -0.0470992625 0.0454464257 0.0072245202 -0.059947975 0.0293776765 -0.0500064604 -0.0178692155 0.0540417731 -0.0300501008 -0.0470992625 0.0454464257 -0.0423785634 -0.0340261422 0.0507583171 -0.0300501008 -0.0470992625 0.0454464257 -0.0500064604 -0.0178692155 0.0540417731 0.0072245202 -0.059947975 0.0293776765 -0.0300501008 -0.0470992625 0.0454464257 -0.0332549624 -0.0445000604 0.0520237088 -0.0423785634 -0.0340261422 0.0507583171 -0.0332549624 -0.0445000604 0.0520237088 -0.0300501008 -0.0470992625 0.0454464257 -0.0254541561 -0.0504202805 0.048715502 -0.0300501008 -0.0470992625 0.0454464257 -0.0182527471 -0.0543119833 0.0404408872 -0.0254541561 -0.0504202805 0.048715502 0.0551810004 0.0358813703 0.0146095147 0.0616268441 0.0254014283 0.0109608993 0.0553121716 0.0354919806 0.0086773783 0.0495545194 0.0424085632 0.0162588209 0.0551810004 0.0358813703 0.0146095147 0.0553121716 0.0354919806 0.0086773783 0.0664964095 0.00699133566 0.00383016421 0.0651422217 0.0147992931 0.00504574273 0.0655096397 0.0138296457 0.0100638801 0.0615064949 0.0252658799 0.0066424082 0.0651422217 0.0147992931 0.00504574273 0.0664964095 0.00699133566 0.00383016421 0.0651422217 0.0147992931 0.00504574273 0.0616268441 0.0254014283 0.0109608993 0.0655096397 0.0138296457 0.0100638801 0.0651422217 0.0147992931 0.00504574273 0.0615064949 0.0252658799 0.0066424082 0.0616268441 0.0254014283 0.0109608993 -0.0410297625 0.0208391808 0.063590914 -0.0460595712 0.0112593407 0.0638101101 -0.0468533635 -0.000223866955 0.0642305464 -0.0460595712 0.0112593407 0.0638101101 -0.0410297625 0.0208391808 0.063590914 -0.0432727486 0.0221740156 0.062683627 -0.0460595712 0.0112593407 0.0638101101 -0.0526566245 0.00529201608 0.0605824292 -0.0468533635 -0.000223866955 0.0642305464 -0.0526566245 0.00529201608 0.0605824292 -0.0460595712 0.0112593407 0.0638101101 -0.0500319898 0.0173791591 0.059662655 -0.0460595712 0.0112593407 0.0638101101 -0.0432727486 0.0221740156 0.062683627 -0.0500319898 0.0173791591 0.059662655 -0.0432727486 0.0221740156 0.062683627 -0.046456378 0.0270656832 0.0577408969 -0.0500319898 0.0173791591 0.059662655 -0.0367038138 0.0338229164 0.0611666441 -0.046456378 0.0270656832 0.0577408969 -0.0432727486 0.0221740156 0.062683627 -0.046456378 0.0270656832 0.0577408969 -0.0367038138 0.0338229164 0.0611666441 -0.0375238582 0.0402664505 0.0536828935 -0.0448575169 0.0294692442 0.051824227 -0.046456378 0.0270656832 0.0577408969 -0.0375238582 0.0402664505 0.0536828935 -0.046456378 0.0270656832 0.0577408969 -0.0503138341 0.0170485619 0.0541809052 -0.0500319898 0.0173791591 0.059662655 -0.0503138341 0.0170485619 0.0541809052 -0.046456378 0.0270656832 0.0577408969 -0.0448575169 0.0294692442 0.051824227 -0.000576049206 0.055629991 0.0520183295 0.0110541135 0.0545850731 0.0514967442 0.0107135419 0.0565349795 0.0479100943 0.0110541135 0.0545850731 0.0514967442 -0.000576049206 0.055629991 0.0520183295 0.000471679203 0.0518596955 0.055999279 0.0556209572 0.0106500247 0.0478869975 0.0523360185 0.0208524559 0.0483632088 0.0495942682 0.0148493601 0.0509986728 0.0523360185 0.0208524559 0.0483632088 0.0471342206 0.0300569758 0.0492261499 0.0495942682 0.0148493601 0.0509986728 0.0471342206 0.0300569758 0.0492261499 0.0411209539 0.0303558428 0.0522077531 0.0495942682 0.0148493601 0.0509986728 0.0530335195 0.0330394171 0.038427949 0.0495545194 0.0424085632 0.0162588209 0.0428030565 0.0433889888 0.0426607579 0.0530335195 0.0330394171 0.038427949 0.0551810004 0.0358813703 0.0146095147 0.0495545194 0.0424085632 0.0162588209 0.0551810004 0.0358813703 0.0146095147 0.0530335195 0.0330394171 0.038427949 0.0616268441 0.0254014283 0.0109608993 0.0317267291 0.0546995141 0.0241169482 0.042422168 0.0484550335 0.0201740265 0.033773385 0.0533235297 0.017936565 0.0317267291 0.0546995141 0.0241169482 0.033773385 0.0533235297 0.017936565 0.0226734728 0.057829015 0.0229304507 0.0218499228 0.0580473505 0.0286295563 0.0317267291 0.0546995141 0.0241169482 0.0226734728 0.057829015 0.0229304507 0.042422168 0.0484550335 0.0201740265 0.0433640853 0.0476877354 0.0140390918 0.033773385 0.0533235297 0.017936565 0.0495545194 0.0424085632 0.0162588209 0.0433640853 0.0476877354 0.0140390918 0.042422168 0.0484550335 0.0201740265 0.033773385 0.0533235297 0.017936565 0.0433640853 0.0476877354 0.0140390918 0.0553121716 0.0354919806 0.0086773783 0.0433640853 0.0476877354 0.0140390918 0.0495545194 0.0424085632 0.0162588209 0.0553121716 0.0354919806 0.0086773783 0.0356567018 -0.0420315154 0.0509194434 0.0405445732 -0.0314229131 0.0522738546 0.0247283 -0.0436529927 0.0543722659 0.0356567018 -0.0420315154 0.0509194434 0.0326560363 -0.0479531884 0.0479215682 0.0398543999 -0.0427168272 0.0472543687 0.0659379959 -0.0120855421 0.00969722122 0.061446704 -0.0173383821 0.0336140096 0.0632270724 -0.0216060076 0.0106468508 0.061446704 -0.0173383821 0.0336140096 0.057814423 -0.024126526 0.0392910838 0.0632270724 -0.0216060076 0.0106468508 0.0471449532 -0.0302544851 0.0492153764 0.0356567018 -0.0420315154 0.0509194434 0.0398543999 -0.0427168272 0.0472543687 0.0356567018 -0.0420315154 0.0509194434 0.0471449532 -0.0302544851 0.0492153764 0.0405445732 -0.0314229131 0.0522738546 0.0590431094 -0.0301868822 0.0127117634 0.06048318 -0.0273778699 0.00695487903 0.0632270724 -0.0216060076 0.0106468508 0.057814423 -0.024126526 0.0392910838 0.0590431094 -0.0301868822 0.0127117634 0.0632270724 -0.0216060076 0.0106468508 -0.0183043424 -0.0502222851 0.055922702 -0.0254541561 -0.0504202805 0.048715502 -0.0155837573 -0.0557053499 0.0446099341 -0.0117016844 -0.0531399362 0.0543573052 -0.0183043424 -0.0502222851 0.055922702 -0.0155837573 -0.0557053499 0.0446099341 -0.0183043424 -0.0502222851 0.055922702 -0.0117016844 -0.0531399362 0.0543573052 -0.0124134179 -0.0496607125 0.0579280406 -0.000544025737 -0.0558265001 0.0520049632 -0.0117016844 -0.0531399362 0.0543573052 -0.0155837573 -0.0557053499 0.0446099341 0.00711967517 -0.048818998 0.0567228198 0.0217357837 -0.0492365845 0.0528293848 0.0247283 -0.0436529927 0.0543722659 0.0217357837 -0.0492365845 0.0528293848 0.0356567018 -0.0420315154 0.0509194434 0.0247283 -0.0436529927 0.0543722659 0.0356567018 -0.0420315154 0.0509194434 0.0217357837 -0.0492365845 0.0528293848 0.0326560363 -0.0479531884 0.0479215682 0.0467810631 -0.0054798401 0.0520399511 0.0206185151 -0.0414727069 0.0554846823 0.0385876819 -0.0266906209 0.0531181842 0.0206185151 -0.0414727069 0.0554846823 0.00711967517 -0.048818998 0.0567228198 0.0247283 -0.0436529927 0.0543722659 0.0405445732 -0.0314229131 0.0522738546 0.0206185151 -0.0414727069 0.0554846823 0.0247283 -0.0436529927 0.0543722659 0.0206185151 -0.0414727069 0.0554846823 0.0405445732 -0.0314229131 0.0522738546 0.0385876819 -0.0266906209 0.0531181842 -0.0358776972 -0.0340519957 0.0617049932 -0.0470474176 -0.0259721018 0.0580595136 -0.0394704267 -0.0378437936 0.0548016131 -0.0358776972 -0.0340519957 0.0617049932 -0.0432692841 -0.022324726 0.0626948029 -0.0470474176 -0.0259721018 0.0580595136 -0.0432692841 -0.022324726 0.0626948029 -0.0358776972 -0.0340519957 0.0617049932 -0.0399277173 -0.0230056811 0.0634538382 -0.0358776972 -0.0340519957 0.0617049932 -0.0235298928 -0.0424152538 0.060785979 -0.0399277173 -0.0230056811 0.0634538382 -0.0108193913 -0.0462266319 0.0595023483 -0.0235298928 -0.0424152538 0.060785979 -0.0124134179 -0.0496607125 0.0579280406 0.0206185151 -0.0414727069 0.0554846823 -0.0108193913 -0.0462266319 0.0595023483 0.00711967517 -0.048818998 0.0567228198 -0.0235298928 -0.0424152538 0.060785979 -0.0108193913 -0.0462266319 0.0595023483 -0.0399277173 -0.0230056811 0.0634538382 -0.0108193913 -0.0462266319 0.0595023483 0.0206185151 -0.0414727069 0.0554846823 -0.0399277173 -0.0230056811 0.0634538382 0.0298231263 -0.055550009 0.0196445361 0.0173602644 -0.0591462515 0.0256646201 0.0072245202 -0.059947975 0.0293776765 0.0173602644 -0.0591462515 0.0256646201 0.0168446228 -0.0593772456 0.0306877196 0.0072245202 -0.059947975 0.0293776765 0.0173602644 -0.0591462515 0.0256646201 0.0298231263 -0.055550009 0.0196445361 0.0304274969 -0.0555068664 0.0247487798 0.0168446228 -0.0593772456 0.0306877196 0.0173602644 -0.0591462515 0.0256646201 0.0304274969 -0.0555068664 0.0247487798 0.0320860781 0.0507281683 0.0434577912 0.0317267291 0.0546995141 0.0241169482 0.0218499228 0.0580473505 0.0286295563 0.042422168 0.0484550335 0.0201740265 0.0320860781 0.0507281683 0.0434577912 0.0428030565 0.0433889888 0.0426607579 0.0317267291 0.0546995141 0.0241169482 0.0320860781 0.0507281683 0.0434577912 0.042422168 0.0484550335 0.0201740265 0.0523360185 0.0208524559 0.0483632088 0.0556975976 0.0227108095 0.044239223 0.0471342206 0.0300569758 0.0492261499 0.0411209539 0.0303558428 0.0522077531 0.0420228653 0.02167321 0.0526665896 0.0495942682 0.0148493601 0.0509986728 0.0420228653 0.02167321 0.0526665896 0.0467810631 -0.0054798401 0.0520399511 0.0495942682 0.0148493601 0.0509986728 0.0617961027 -0.0124017512 0.0385931134 0.0659379959 -0.0120855421 0.00969722122 0.0671219677 -0.00335996808 0.0091911545 0.0617961027 -0.0124017512 0.0385931134 0.061446704 -0.0173383821 0.0336140096 0.0659379959 -0.0120855421 0.00969722122 0.061446704 -0.0173383821 0.0336140096 0.0617961027 -0.0124017512 0.0385931134 0.057814423 -0.024126526 0.0392910838 0.0530023649 -0.0330368243 0.0393557698 0.0590431094 -0.0301868822 0.0127117634 0.057814423 -0.024126526 0.0392910838 0.0590431094 -0.0301868822 0.0127117634 0.0546082258 -0.0365232415 0.0090492079 0.06048318 -0.0273778699 0.00695487903 0.0647552386 -0.0159704294 0.00459127873 0.0546082258 -0.0365232415 0.0090492079 0.0432720445 -0.0479041301 0.0138965854 0.06048318 -0.0273778699 0.00695487903 0.0546082258 -0.0365232415 0.0090492079 0.0647552386 -0.0159704294 0.00459127873 0.0524768643 -8.31939324e-05 0.0504649878 0.0556209572 0.0106500247 0.0478869975 0.0495942682 0.0148493601 0.0509986728 0.0467810631 -0.0054798401 0.0520399511 0.0524768643 -8.31939324e-05 0.0504649878 0.0495942682 0.0148493601 0.0509986728 -0.0235298928 -0.0424152538 0.060785979 -0.0264662225 -0.0448681116 0.0582830161 -0.0124134179 -0.0496607125 0.0579280406 -0.0264662225 -0.0448681116 0.0582830161 -0.0183043424 -0.0502222851 0.055922702 -0.0124134179 -0.0496607125 0.0579280406 -0.0358776972 -0.0340519957 0.0617049932 -0.0264662225 -0.0448681116 0.0582830161 -0.0235298928 -0.0424152538 0.060785979 -0.0264662225 -0.0448681116 0.0582830161 -0.0332549624 -0.0445000604 0.0520237088 -0.0254541561 -0.0504202805 0.048715502 -0.0183043424 -0.0502222851 0.055922702 -0.0264662225 -0.0448681116 0.0582830161 -0.0254541561 -0.0504202805 0.048715502 -0.0332549624 -0.0445000604 0.0520237088 -0.0264662225 -0.0448681116 0.0582830161 -0.0394704267 -0.0378437936 0.0548016131 -0.0264662225 -0.0448681116 0.0582830161 -0.0358776972 -0.0340519957 0.0617049932 -0.0394704267 -0.0378437936 0.0548016131 -0.000544025737 -0.0558265001 0.0520049632 -0.00501787616 -0.05880275 0.040032059 0.00408379454 -0.0600308292 0.0359671414 -0.00501787616 -0.05880275 0.040032059 -0.000544025737 -0.0558265001 0.0520049632 -0.0155837573 -0.0557053499 0.0446099341 -0.00501787616 -0.05880275 0.040032059 -0.00417162711 -0.0591221042 0.0347260684 0.00408379454 -0.0600308292 0.0359671414 -0.00417162711 -0.0591221042 0.0347260684 -0.00501787616 -0.05880275 0.040032059 -0.0155837573 -0.0557053499 0.0446099341 0.0108004939 -0.0567203797 0.0478932559 -0.000544025737 -0.0558265001 0.0520049632 0.00408379454 -0.0600308292 0.0359671414 0.0168446228 -0.0593772456 0.0306877196 0.0108004939 -0.0567203797 0.0478932559 0.00408379454 -0.0600308292 0.0359671414 0.0108004939 -0.0567203797 0.0478932559 0.0168446228 -0.0593772456 0.0306877196 0.0223071128 -0.0546045974 0.0456969738 0.0113093313 -0.05172709 0.0543765128 0.0217357837 -0.0492365845 0.0528293848 0.00711967517 -0.048818998 0.0567228198 0.0217357837 -0.0492365845 0.0528293848 0.0222264528 -0.0524772555 0.0496303141 0.0326560363 -0.0479531884 0.0479215682 0.0222264528 -0.0524772555 0.0496303141 0.0223071128 -0.0546045974 0.0456969738 0.0321650133 -0.0508750789 0.0434468836 0.0326560363 -0.0479531884 0.0479215682 0.0222264528 -0.0524772555 0.0496303141 0.0321650133 -0.0508750789 0.0434468836 0.0113093313 -0.05172709 0.0543765128 0.0222264528 -0.0524772555 0.0496303141 0.0217357837 -0.0492365845 0.0528293848 0.0110541135 0.0545850731 0.0514967442 0.0222226754 0.0544409305 0.0457127988 0.0107135419 0.0565349795 0.0479100943 0.0222226754 0.0544409305 0.0457127988 0.0320860781 0.0507281683 0.0434577912 0.0218499228 0.0580473505 0.0286295563 0.0107135419 0.0565349795 0.0479100943 0.0222226754 0.0544409305 0.0457127988 0.00886152871 0.0600308329 0.0341650993 0.0222226754 0.0544409305 0.0457127988 0.0218499228 0.0580473505 0.0286295563 0.00886152871 0.0600308329 0.0341650993 0.0216601975 0.0490743555 0.0528405905 0.0112296399 0.0515456982 0.0543883145 0.00700942846 0.0486405455 0.0567378551 0.00700942846 0.0486405455 0.0567378551 0.0112296399 0.0515456982 0.0543883145 0.000471679203 0.0518596955 0.055999279 0.0112296399 0.0515456982 0.0543883145 0.0110541135 0.0545850731 0.0514967442 0.000471679203 0.0518596955 0.055999279 0.0250733495 0.0433092341 0.0543293506 0.0216601975 0.0490743555 0.0528405905 0.00700942846 0.0486405455 0.0567378551 0.0556975976 0.0227108095 0.044239223 0.0502627343 0.0327366181 0.0446605682 0.0471342206 0.0300569758 0.0492261499 0.0502627343 0.0327366181 0.0446605682 0.0530335195 0.0330394171 0.038427949 0.0428030565 0.0433889888 0.0426607579 0.0577792488 0.02401134 0.0392969251 0.0614336804 0.0171897765 0.0336176455 0.0616268441 0.0254014283 0.0109608993 0.0530335195 0.0330394171 0.038427949 0.0577792488 0.02401134 0.0392969251 0.0616268441 0.0254014283 0.0109608993 0.0614336804 0.0171897765 0.0336176455 0.0577792488 0.02401134 0.0392969251 0.0617713667 0.0123230824 0.0385966599 0.0577792488 0.02401134 0.0392969251 0.0556975976 0.0227108095 0.044239223 0.0617713667 0.0123230824 0.0385966599 0.0502627343 0.0327366181 0.0446605682 0.0577792488 0.02401134 0.0392969251 0.0530335195 0.0330394171 0.038427949 0.0577792488 0.02401134 0.0392969251 0.0502627343 0.0327366181 0.0446605682 0.0556975976 0.0227108095 0.044239223 0.0633218065 -8.16866523e-05 0.0382785499 0.0617961027 -0.0124017512 0.0385931134 0.0671219677 -0.00335996808 0.0091911545 0.0668547526 0.00531309005 0.0096308738 0.0633218065 -8.16866523e-05 0.0382785499 0.0671219677 -0.00335996808 0.0091911545 0.0633218065 -8.16866523e-05 0.0382785499 0.0668547526 0.00531309005 0.0096308738 0.0617713667 0.0123230824 0.0385966599 0.0413651243 -0.0493848585 0.0204159245 0.0428777896 -0.043516662 0.0426457375 0.0321650133 -0.0508750789 0.0434468836 0.0428777896 -0.043516662 0.0426457375 0.0326560363 -0.0479531884 0.0479215682 0.0321650133 -0.0508750789 0.0434468836 0.0326560363 -0.0479531884 0.0479215682 0.0428777896 -0.043516662 0.0426457375 0.0398543999 -0.0427168272 0.0472543687 0.0502344705 -0.0329607986 0.0446643978 0.0471449532 -0.0302544851 0.0492153764 0.0398543999 -0.0427168272 0.0472543687 0.0428777896 -0.043516662 0.0426457375 0.0502344705 -0.0329607986 0.0446643978 0.0398543999 -0.0427168272 0.0472543687 0.0502344705 -0.0329607986 0.0446643978 0.0428777896 -0.043516662 0.0426457375 0.0530023649 -0.0330368243 0.0393557698 0.0502344705 -0.0329607986 0.0446643978 0.0530023649 -0.0330368243 0.0393557698 0.057814423 -0.024126526 0.0392910838 0.0530023649 -0.0330368243 0.0393557698 0.0513811298 -0.0408221111 0.0156735331 0.0590431094 -0.0301868822 0.0127117634 0.0513811298 -0.0408221111 0.0156735331 0.0546082258 -0.0365232415 0.0090492079 0.0590431094 -0.0301868822 0.0127117634 0.0513811298 -0.0408221111 0.0156735331 0.0428777896 -0.043516662 0.0426457375 0.0413651243 -0.0493848585 0.0204159245 0.0428777896 -0.043516662 0.0426457375 0.0513811298 -0.0408221111 0.0156735331 0.0530023649 -0.0330368243 0.0393557698 0.0513811298 -0.0408221111 0.0156735331 0.0413651243 -0.0493848585 0.0204159245 0.0432720445 -0.0479041301 0.0138965854 0.0546082258 -0.0365232415 0.0090492079 0.0513811298 -0.0408221111 0.0156735331 0.0432720445 -0.0479041301 0.0138965854 0.0523653217 -0.0209767763 0.0483590364 0.0594126768 -0.0117163481 0.0436514318 0.0556416772 -0.0107434634 0.047884196 0.0633218065 -8.16866523e-05 0.0382785499 0.0594126768 -0.0117163481 0.0436514318 0.0617961027 -0.0124017512 0.0385931134 0.0471449532 -0.0302544851 0.0492153764 0.0496044345 -0.0150061026 0.0509975106 0.0405445732 -0.0314229131 0.0522738546 0.0523653217 -0.0209767763 0.0483590364 0.0496044345 -0.0150061026 0.0509975106 0.0471449532 -0.0302544851 0.0492153764 0.0496044345 -0.0150061026 0.0509975106 0.0524768643 -8.31939324e-05 0.0504649878 0.0467810631 -0.0054798401 0.0520399511 0.0496044345 -0.0150061026 0.0509975106 0.0523653217 -0.0209767763 0.0483590364 0.0556416772 -0.0107434634 0.047884196 0.0524768643 -8.31939324e-05 0.0504649878 0.0496044345 -0.0150061026 0.0509975106 0.0556416772 -0.0107434634 0.047884196 0.0405445732 -0.0314229131 0.0522738546 0.0496044345 -0.0150061026 0.0509975106 0.0385876819 -0.0266906209 0.0531181842 0.0496044345 -0.0150061026 0.0509975106 0.0467810631 -0.0054798401 0.0520399511 0.0385876819 -0.0266906209 0.0531181842 0.000513441104 -0.0520505868 0.0559920967 0.0113093313 -0.05172709 0.0543765128 0.00711967517 -0.048818998 0.0567228198 0.000513441104 -0.0520505868 0.0559920967 -0.0108193913 -0.0462266319 0.0595023483 -0.0124134179 -0.0496607125 0.0579280406 -0.0108193913 -0.0462266319 0.0595023483 0.000513441104 -0.0520505868 0.0559920967 0.00711967517 -0.048818998 0.0567228198 -0.0117016844 -0.0531399362 0.0543573052 0.000513441104 -0.0520505868 0.0559920967 -0.0124134179 -0.0496607125 0.0579280406 -0.000544025737 -0.0558265001 0.0520049632 0.000513441104 -0.0520505868 0.0559920967 -0.0117016844 -0.0531399362 0.0543573052 0.0108004939 -0.0567203797 0.0478932559 0.0111382995 -0.0547687709 0.0514824688 -0.000544025737 -0.0558265001 0.0520049632 0.0111382995 -0.0547687709 0.0514824688 0.000513441104 -0.0520505868 0.0559920967 -0.000544025737 -0.0558265001 0.0520049632 0.000513441104 -0.0520505868 0.0559920967 0.0111382995 -0.0547687709 0.0514824688 0.0113093313 -0.05172709 0.0543765128 0.0111382995 -0.0547687709 0.0514824688 0.0222264528 -0.0524772555 0.0496303141 0.0113093313 -0.05172709 0.0543765128 0.0111382995 -0.0547687709 0.0514824688 0.0108004939 -0.0567203797 0.0478932559 0.0223071128 -0.0546045974 0.0456969738 0.0222264528 -0.0524772555 0.0496303141 0.0111382995 -0.0547687709 0.0514824688 0.0223071128 -0.0546045974 0.0456969738 0.0222226754 0.0544409305 0.0457127988 0.022145452 0.0523144081 0.0496436656 0.0320860781 0.0507281683 0.0434577912 0.022145452 0.0523144081 0.0496436656 0.0222226754 0.0544409305 0.0457127988 0.0110541135 0.0545850731 0.0514967442 0.0112296399 0.0515456982 0.0543883145 0.022145452 0.0523144081 0.0496436656 0.0110541135 0.0545850731 0.0514967442 0.022145452 0.0523144081 0.0496436656 0.0112296399 0.0515456982 0.0543883145 0.0216601975 0.0490743555 0.0528405905 0.0250733495 0.0433092341 0.0543293506 0.0355413593 0.0416063517 0.0511240661 0.0216601975 0.0490743555 0.0528405905 0.0355413593 0.0416063517 0.0511240661 0.0411209539 0.0303558428 0.0522077531 0.0471342206 0.0300569758 0.0492261499 0.0355413593 0.0416063517 0.0511240661 0.0250733495 0.0433092341 0.0543293506 0.0411209539 0.0303558428 0.0522077531 0.0205666106 0.0413033143 0.0554927289 0.00700942846 0.0486405455 0.0567378551 -0.00817264337 0.0460310727 0.0592523068 0.0205666106 0.0413033143 0.0554927289 0.0250733495 0.0433092341 0.0543293506 0.00700942846 0.0486405455 0.0567378551 -0.0329281986 0.032758642 0.0625315309 0.0205666106 0.0413033143 0.0554927289 -0.00817264337 0.0460310727 0.0592523068 0.0205666106 0.0413033143 0.0554927289 0.0420228653 0.02167321 0.0526665896 0.0411209539 0.0303558428 0.0522077531 0.0250733495 0.0433092341 0.0543293506 0.0205666106 0.0413033143 0.0554927289 0.0411209539 0.0303558428 0.0522077531 -0.0399277173 -0.0230056811 0.0634538382 0.0205666106 0.0413033143 0.0554927289 -0.0329281986 0.032758642 0.0625315309 0.0206185151 -0.0414727069 0.0554846823 0.0205666106 0.0413033143 0.0554927289 -0.0399277173 -0.0230056811 0.0634538382 0.0205666106 0.0413033143 0.0554927289 0.0206185151 -0.0414727069 0.0554846823 0.0467810631 -0.0054798401 0.0520399511 0.0420228653 0.02167321 0.0526665896 0.0205666106 0.0413033143 0.0554927289 0.0467810631 -0.0054798401 0.0520399511 0.0557302944 -0.0228297878 0.044234246 0.0594126768 -0.0117163481 0.0436514318 0.0523653217 -0.0209767763 0.0483590364 0.0557302944 -0.0228297878 0.044234246 0.0502344705 -0.0329607986 0.0446643978 0.057814423 -0.024126526 0.0392910838 0.0617961027 -0.0124017512 0.0385931134 0.0557302944 -0.0228297878 0.044234246 0.057814423 -0.024126526 0.0392910838 0.0594126768 -0.0117163481 0.0436514318 0.0557302944 -0.0228297878 0.044234246 0.0617961027 -0.0124017512 0.0385931134 0.0557302944 -0.0228297878 0.044234246 0.0523653217 -0.0209767763 0.0483590364 0.0471449532 -0.0302544851 0.0492153764 0.0502344705 -0.0329607986 0.0446643978 0.0557302944 -0.0228297878 0.044234246 0.0471449532 -0.0302544851 0.0492153764 0.0590137914 -7.51190892e-05 0.0458122939 0.0594126768 -0.0117163481 0.0436514318 0.0633218065 -8.16866523e-05 0.0382785499 0.0594126768 -0.0117163481 0.0436514318 0.0590137914 -7.51190892e-05 0.0458122939 0.0556416772 -0.0107434634 0.047884196 0.0524768643 -8.31939324e-05 0.0504649878 0.0590137914 -7.51190892e-05 0.0458122939 0.0556209572 0.0106500247 0.0478869975 0.0590137914 -7.51190892e-05 0.0458122939 0.0524768643 -8.31939324e-05 0.0504649878 0.0556416772 -0.0107434634 0.047884196 0.0326080322 0.0477905609 0.0479306281 0.022145452 0.0523144081 0.0496436656 0.0216601975 0.0490743555 0.0528405905 0.0355413593 0.0416063517 0.0511240661 0.0326080322 0.0477905609 0.0479306281 0.0216601975 0.0490743555 0.0528405905 0.022145452 0.0523144081 0.0496436656 0.0326080322 0.0477905609 0.0479306281 0.0320860781 0.0507281683 0.0434577912 0.0320860781 0.0507281683 0.0434577912 0.0326080322 0.0477905609 0.0479306281 0.0428030565 0.0433889888 0.0426607579 0.0593896732 0.011631581 0.0436546206 0.0633218065 -8.16866523e-05 0.0382785499 0.0617713667 0.0123230824 0.0385966599 0.0593896732 0.011631581 0.0436546206 0.0590137914 -7.51190892e-05 0.0458122939 0.0633218065 -8.16866523e-05 0.0382785499 0.0590137914 -7.51190892e-05 0.0458122939 0.0593896732 0.011631581 0.0436546206 0.0556209572 0.0106500247 0.0478869975 0.0556975976 0.0227108095 0.044239223 0.0593896732 0.011631581 0.0436546206 0.0617713667 0.0123230824 0.0385966599 0.0593896732 0.011631581 0.0436546206 0.0523360185 0.0208524559 0.0483632088 0.0556209572 0.0106500247 0.0478869975 0.0593896732 0.011631581 0.0436546206 0.0556975976 0.0227108095 0.044239223 0.0523360185 0.0208524559 0.0483632088 0.0326080322 0.0477905609 0.0479306281 0.039837677 0.0424970016 0.0473036319 0.0428030565 0.0433889888 0.0426607579 0.039837677 0.0424970016 0.0473036319 0.0326080322 0.0477905609 0.0479306281 0.0355413593 0.0416063517 0.0511240661 0.039837677 0.0424970016 0.0473036319 0.0502627343 0.0327366181 0.0446605682 0.0428030565 0.0433889888 0.0426607579 0.0502627343 0.0327366181 0.0446605682 0.039837677 0.0424970016 0.0473036319 0.0471342206 0.0300569758 0.0492261499 0.039837677 0.0424970016 0.0473036319 0.0355413593 0.0416063517 0.0511240661 0.0471342206 0.0300569758 0.0492261499 </float_array>
          <technique_common>
            <accessor count="846" offset="0" source="#mesh_0-positions-array" stride="3">
              <param name="X" type="float" />
              <param name="Y" type="float" />
              <param name="Z" type="float" />
            </accessor>
          </technique_common>
        </source>
        <vertices id="mesh_0-vertices">
          <input semantic="POSITION" source="#mesh_0-positions" />
        </vertices>
        <polylist count="282" material="defaultMaterial">
          <input offset="0" semantic="VERTEX" source="#mesh_0-vertices" />
          <vcount>3 3 3 3 3 3 3 3 3 3 3 3 3 3 3 3 3 3 3 3 3 3 3 3 3 3 3 3 3 3 3 3 3 3 3 3 3 3 3 3 3 3 3 3 3 3 3 3 3 3 3 3 3 3 3 3 3 3 3 3 3 3 3 3 3 3 3 3 3 3 3 3 3 3 3 3 3 3 3 3 3 3 3 3 3 3 3 3 3 3 3 3 3 3 3 3 3 3 3 3 3 3 3 3 3 3 3 3 3 3 3 3 3 3 3 3 3 3 3 3 3 3 3 3 3 3 3 3 3 3 3 3 3 3 3 3 3 3 3 3 3 3 3 3 3 3 3 3 3 3 3 3 3 3 3 3 3 3 3 3 3 3 3 3 3 3 3 3 3 3 3 3 3 3 3 3 3 3 3 3 3 3 3 3 3 3 3 3 3 3 3 3 3 3 3 3 3 3 3 3 3 3 3 3 3 3 3 3 3 3 3 3 3 3 3 3 3 3 3 3 3 3 3 3 3 3 3 3 3 3 3 3 3 3 3 3 3 3 3 3 3 3 3 3 3 3 3 3 3 3 3 3 3 3 3 3 3 3 3 3 3 3 3 3 3 3 3 3 3 3 3 3 3 3 3 3 3 3 3 3 3 3 </vcount>
          <p>0 1 2 3 4 5 6 7 8 9 10 11 12 13 14 15 16 17 18 19 20 21 22 23 24 25 26 27 28 29 30 31 32 33 34 35 36 37 38 39 40 41 42 43 44 45 46 47 48 49 50 51 52 53 54 55 56 57 58 59 60 61 62 63 64 65 66 67 68 69 70 71 72 73 74 75 76 77 78 79 80 81 82 83 84 85 86 87 88 89 90 91 92 93 94 95 96 97 98 99 100 101 102 103 104 105 106 107 108 109 110 111 112 113 114 115 116 117 118 119 120 121 122 123 124 125 126 127 128 129 130 131 132 133 134 135 136 137 138 139 140 141 142 143 144 145 146 147 148 149 150 151 152 153 154 155 156 157 158 159 160 161 162 163 164 165 166 167 168 169 170 171 172 173 174 175 176 177 178 179 180 181 182 183 184 185 186 187 188 189 190 191 192 193 194 195 196 197 198 199 200 201 202 203 204 205 206 207 208 209 210 211 212 213 214 215 216 217 218 219 220 221 222 223 224 225 226 227 228 229 230 231 232 233 234 235 236 237 238 239 240 241 242 243 244 245 246 247 248 249 250 251 252 253 254 255 256 257 258 259 260 261 262 263 264 265 266 267 268 269 270 271 272 273 274 275 276 277 278 279 280 281 282 283 284 285 286 287 288 289 290 291 292 293 294 295 296 297 298 299 300 301 302 303 304 305 306 307 308 309 310 311 312 313 314 315 316 317 318 319 320 321 322 323 324 325 326 327 328 329 330 331 332 333 334 335 336 337 338 339 340 341 342 343 344 345 346 347 348 349 350 351 352 353 354 355 356 357 358 359 360 361 362 363 364 365 366 367 368 369 370 371 372 373 374 375 376 377 378 379 380 381 382 383 384 385 386 387 388 389 390 391 392 393 394 395 396 397 398 399 400 401 402 403 404 405 406 407 408 409 410 411 412 413 414 415 416 417 418 419 420 421 422 423 424 425 426 427 428 429 430 431 432 433 434 435 436 437 438 439 440 441 442 443 444 445 446 447 448 449 450 451 452 453 454 455 456 457 458 459 460 461 462 463 464 465 466 467 468 469 470 471 472 473 474 475 476 477 478 479 480 481 482 483 484 485 486 487 488 489 490 491 492 493 494 495 496 497 498 499 500 501 502 503 504 505 506 507 508 509 510 511 512 513 514 515 516 517 518 519 520 521 522 523 524 525 526 527 528 529 530 531 532 533 534 535 536 537 538 539 540 541 542 543 544 545 546 547 548 549 550 551 552 553 554 555 556 557 558 559 560 561 562 563 564 565 566 567 568 569 570 571 572 573 574 575 576 577 578 579 580 581 582 583 584 585 586 587 588 589 590 591 592 593 594 595 596 597 598 599 600 601 602 603 604 605 606 607 608 609 610 611 612 613 614 615 616 617 618 619 620 621 622 623 624 625 626 627 628 629 630 631 632 633 634 635 636 637 638 639 640 641 642 643 644 645 646 647 648 649 650 651 652 653 654 655 656 657 658 659 660 661 662 663 664 665 666 667 668 669 670 671 672 673 674 675 676 677 678 679 680 681 682 683 684 685 686 687 688 689 690 691 692 693 694 695 696 697 698 699 700 701 702 703 704 705 706 707 708 709 710 711 712 713 714 715 716 717 718 719 720 721 722 723 724 725 726 727 728 729 730 731 732 733 734 735 736 737 738 739 740 741 742 743 744 745 746 747 748 749 750 751 752 753 754 755 756 757 758 759 760 761 762 763 764 765 766 767 768 769 770 771 772 773 774 775 776 777 778 779 780 781 782 783 784 785 786 787 788 789 790 791 792 793 794 795 796 797 798 799 800 801 802 803 804 805 806 807 808 809 810 811 812 813 814 815 816 817 818 819 820 821 822 823 824 825 826 827 828 829 830 831 832 833 834 835 836 837 838 839 840 841 842 843 844 845 </p>
        </polylist>
      </mesh>
    </geometry>
  </library_geometries>
  <library_controllers>
  </library_controllers>
  <library_visual_scenes>
    <visual_scene id="Scene" name="Scene">
      <node id="node" name="" type="NODE">
        <matrix sid="matrix">1 0 0 0 0 1 0 0 0 0 1 0 0 0 0 1</matrix>
        <instance_geometry url="#mesh_0">
          <bind_material>
            <technique_common>
              <instance_material symbol="defaultMaterial" target="#material_0">
              </instance_material>
            </technique_common>
          </bind_material>
        </instance_geometry>
      </node>
    </visual_scene>
  </library_visual_scenes>
  <scene>
    <instance_visual_scene url="#Scene" />
  </scene>
</COLLADA>
