<?xml version="1.0" encoding="UTF-8" standalone="no" ?>
<COLLADA xmlns="http://www.collada.org/2005/11/COLLADASchema" version="1.4.1">
  <asset>
    <contributor>
      <author>Assimp</author>
      <authoring_tool>Assimp Exporter</authoring_tool>
    </contributor>
    <created>2025-11-12T11:09:31</created>
    <modified>2025-11-12T11:09:31</modified>
    <unit name="meter" meter="1" />
    <up_axis>Y_UP</up_axis>
  </asset>
  <library_images>
  </library_images>
  <library_effects>
    <effect id="material_0-fx" name="">
      <profile_COMMON>
        <technique sid="standard">
          <phong>
            <emission>
              <color sid="emission">0   0   0   4.28026616e-41</color>
            </emission>
            <ambient>
              <color sid="ambient">0.719165564   0.882352889   0.352941155   4.28026616e-41</color>
            </ambient>
            <diffuse>
              <color sid="diffuse">0.719165564   0.882352889   0.352941155   4.28026616e-41</color>
            </diffuse>
            <specular>
              <color sid="specular">0.529999971   0.529999971   0.529999971   4.28026616e-41</color>
            </specular>
          </phong>
        </technique>
      </profile_COMMON>
    </effect>
  </library_effects>
  <library_materials>
    <material id="material_0" name="">
      <instance_effect url="#material_0-fx"/>
    </material>
  </library_materials>
  <library_geometries>
    <geometry id="mesh_0" name="" >
      <mesh>
        <source id="mesh_0-positions" name="mesh_0-positions">
          <float_array id="mesh_0-positions-array" count="990"> -0.0356498063 0.0468836911 -0.141457066 -0.0212676227 0.053950306 -0.14609991 -0.0433122069 0.0540333241 -0.191683561 -0.0514401793 0.0424882732 -0.172795504 -0.0356498063 0.0468836911 -0.141457066 -0.0433122069 0.0540333241 -0.191683561 -0.0290623307 -0.0510446727 -0.141457036 -0.0432244539 -0.0541246347 -0.191855833 -0.0039340416 -0.0587449633 -0.146250069 0.0048640212 -0.0576402992 -0.141457021 -0.0290623307 -0.0510446727 -0.141457036 -0.0039340416 -0.0587449633 -0.146250069 -0.0565597266 0.0272389632 -0.160778373 -0.0566358715 -0.026692966 -0.160616443 -0.0590982139 7.93576837e-05 -0.154554829 -0.0514401793 0.0424882732 -0.172795504 -0.0566358715 -0.026692966 -0.160616443 -0.0565597266 0.0272389632 -0.160778373 -0.056566745 0.0130931474 -0.141456991 -0.0581891239 0.000899327977 -0.146100491 -0.0541800298 -0.0207204055 -0.141457051 -0.0290623307 -0.0510446727 -0.141457036 -0.056566745 0.0130931474 -0.141456991 -0.0541800298 -0.0207204055 -0.141457051 -0.056566745 0.0130931474 -0.141456991 -0.0290623307 -0.0510446727 -0.141457036 0.0048640212 -0.0576402992 -0.141457021 -0.056566745 0.0130931474 -0.141456991 -0.0565597266 0.0272389632 -0.160778373 -0.0590982139 7.93576837e-05 -0.154554829 -0.0581891239 0.000899327977 -0.146100491 -0.056566745 0.0130931474 -0.141456991 -0.0590982139 7.93576837e-05 -0.154554829 0.0392000601 0.0445620492 -0.141457051 -0.056566745 0.0130931474 -0.141456991 0.0592492819 0.00408180431 -0.141457036 0.0601694696 0.0537000187 -0.190204233 0.0601694733 0.0581150092 -0.212399885 0.00465541985 0.0589855462 -0.146250084 0.0601694733 0.0581150092 -0.212399885 0.0601694696 0.0537000187 -0.190204233 0.0601694882 0.0537000597 -0.234595507 -0.0273693223 0.0557950214 -0.228639886 0.0601694733 0.0581150092 -0.212399885 0.0601694882 0.0537000597 -0.234595507 0.0601694733 -0.0220805779 -0.158814892 0.0601684451 0.000114977905 -0.154402345 0.0592492819 0.00408180431 -0.141457036 0.0508888289 -0.0282253157 -0.141457036 0.0601694733 -0.0220805779 -0.158814892 0.0592492819 0.00408180431 -0.141457036 0.0601694733 -0.0220805779 -0.158814892 0.0508888289 -0.0282253157 -0.141457036 0.0601694733 -0.0408971496 -0.171387702 -0.00936934445 0.000114997551 -0.270399868 -0.0101385564 -0.0141618997 -0.268615246 -0.0433122069 0.0540333241 -0.191683561 0.0601694733 0.000115056129 -0.270399868 -0.0101385564 -0.0141618997 -0.268615246 -0.00936934445 0.000114997551 -0.270399868 -0.0101385424 0.014391955 -0.268615246 -0.00936934445 0.000114997551 -0.270399868 -0.0433122069 0.0540333241 -0.191683561 -0.0101385424 0.014391955 -0.268615246 0.0601694733 0.000115056129 -0.270399868 -0.00936934445 0.000114997551 -0.270399868 -0.0193693191 0.0465149917 -0.247199863 -0.0273693223 0.0557950214 -0.228639886 0.0601694882 0.0537000597 -0.234595507 -0.0193693191 0.0465149917 -0.247199863 0.0601694882 0.0537000597 -0.234595507 0.0601694882 0.0411272235 -0.253412038 -0.0155337164 0.0382520109 -0.256098479 -0.0193693191 0.0465149917 -0.247199863 0.0601694882 0.0411272235 -0.253412038 -0.0193693191 0.0465149917 -0.247199863 -0.0155337164 0.0382520109 -0.256098479 -0.0433122069 0.0540333241 -0.191683561 -0.0273693223 0.0557950214 -0.228639886 -0.0193693191 0.0465149917 -0.247199863 -0.0433122069 0.0540333241 -0.191683561 -0.0432244539 -0.0541246347 -0.191855833 -0.0342383236 -0.0578589253 -0.212707177 -0.0039340416 -0.0587449633 -0.146250069 -0.0581891239 0.000899327977 -0.146100491 -0.0580120087 -0.00116693811 -0.146250054 -0.0541800298 -0.0207204055 -0.141457051 -0.0580120087 -0.00116693811 -0.146250054 -0.0566358715 -0.026692966 -0.160616443 -0.0541800298 -0.0207204055 -0.141457051 -0.0580120087 -0.00116693811 -0.146250054 -0.0581891239 0.000899327977 -0.146100491 -0.0590982139 7.93576837e-05 -0.154554829 -0.0566358715 -0.026692966 -0.160616443 -0.0580120087 -0.00116693811 -0.146250054 -0.0590982139 7.93576837e-05 -0.154554829 -0.0290623307 -0.0510446727 -0.141457036 -0.0514401197 -0.0422582328 -0.172795504 -0.0432244539 -0.0541246347 -0.191855833 -0.0514401197 -0.0422582328 -0.172795504 -0.0566358715 -0.026692966 -0.160616443 -0.0514401793 0.0424882732 -0.172795504 -0.0566358715 -0.026692966 -0.160616443 -0.0514401197 -0.0422582328 -0.172795504 -0.0541800298 -0.0207204055 -0.141457051 -0.0514401197 -0.0422582328 -0.172795504 -0.0514401793 0.0424882732 -0.172795504 -0.0433122069 0.0540333241 -0.191683561 -0.0342383236 -0.0578589253 -0.212707177 -0.0514401197 -0.0422582328 -0.172795504 -0.0433122069 0.0540333241 -0.191683561 -0.0514401197 -0.0422582328 -0.172795504 -0.0342383236 -0.0578589253 -0.212707177 -0.0432244539 -0.0541246347 -0.191855833 0.0601694882 0.0537000597 -0.234595507 0.0601694882 0.0223106854 -0.265984863 0.0601694882 0.0411272235 -0.253412038 0.0601694733 -0.0408971496 -0.171387702 0.0601694882 0.0223106854 -0.265984863 0.0601694882 0.0537000597 -0.234595507 -0.0101385424 0.014391955 -0.268615246 0.0601694882 0.0223106854 -0.265984863 0.0601694733 0.000115056129 -0.270399868 0.0601694733 -0.0534699783 -0.234595507 0.0601694882 0.0223106854 -0.265984863 0.0601694733 -0.0408971496 -0.171387702 0.0508888289 -0.0282253157 -0.141457036 0.0314411968 -0.0493066385 -0.141457021 0.0601694733 -0.0408971496 -0.171387702 0.0314411968 -0.0493066385 -0.141457021 0.0508888289 -0.0282253157 -0.141457036 0.0592492819 0.00408180431 -0.141457036 -0.056566745 0.0130931474 -0.141456991 0.0314411968 -0.0493066385 -0.141457021 0.0592492819 0.00408180431 -0.141457036 0.0314411968 -0.0493066385 -0.141457021 -0.056566745 0.0130931474 -0.141456991 0.0048640212 -0.0576402992 -0.141457021 -0.0488896705 0.0314800106 -0.146250039 -0.056566745 0.0130931474 -0.141456991 -0.0356498063 0.0468836911 -0.141457066 -0.056566745 0.0130931474 -0.141456991 -0.0488896705 0.0314800106 -0.146250039 -0.0565597266 0.0272389632 -0.160778373 -0.0514401793 0.0424882732 -0.172795504 -0.0488896705 0.0314800106 -0.146250039 -0.0356498063 0.0468836911 -0.141457066 -0.0488896705 0.0314800106 -0.146250039 -0.0514401793 0.0424882732 -0.172795504 -0.0565597266 0.0272389632 -0.160778373 0.0226368066 0.0536291339 -0.146099895 0.0601694696 0.0537000187 -0.190204233 0.00465541985 0.0589855462 -0.146250084 0.0226368066 0.0536291339 -0.146099895 0.0392000601 0.0445620492 -0.141457051 0.0601694696 0.0537000187 -0.190204233 0.0392000601 0.0445620492 -0.141457051 0.0601694807 0.0411272123 -0.171387702 0.0601694696 0.0537000187 -0.190204233 0.0601694733 -0.0220805779 -0.158814892 0.0601694807 0.0411272123 -0.171387702 0.0601684451 0.000114977905 -0.154402345 0.0601694696 0.0537000187 -0.190204233 0.0601694807 0.0411272123 -0.171387702 0.0601694882 0.0537000597 -0.234595507 0.0601694807 0.0411272123 -0.171387702 0.0601694733 -0.0408971496 -0.171387702 0.0601694882 0.0537000597 -0.234595507 0.0601694807 0.0411272123 -0.171387702 0.0601694733 -0.0220805779 -0.158814892 0.0601694733 -0.0408971496 -0.171387702 -0.056566745 0.0130931474 -0.141456991 0.00197827723 0.0584847145 -0.141457051 -0.0356498063 0.0468836911 -0.141457066 0.0392000601 0.0445620492 -0.141457051 0.00197827723 0.0584847145 -0.141457051 -0.056566745 0.0130931474 -0.141456991 0.00197827723 0.0584847145 -0.141457051 -0.0212676227 0.053950306 -0.14609991 -0.0356498063 0.0468836911 -0.141457066 0.00197827723 0.0584847145 -0.141457051 0.0226368066 0.0536291339 -0.146099895 0.00465541985 0.0589855462 -0.146250084 0.0226368066 0.0536291339 -0.146099895 0.00197827723 0.0584847145 -0.141457051 0.0392000601 0.0445620492 -0.141457051 -0.0212676227 0.053950306 -0.14609991 0.00197827723 0.0584847145 -0.141457051 -0.0433122069 0.0540333241 -0.191683561 0.0601694733 0.0581150092 -0.212399885 -0.0342819095 0.0580981001 -0.212604657 0.00465541985 0.0589855462 -0.146250084 -0.0342819095 0.0580981001 -0.212604657 0.0601694733 0.0581150092 -0.212399885 -0.0273693223 0.0557950214 -0.228639886 -0.0342819095 0.0580981001 -0.212604657 -0.0273693223 0.0557950214 -0.228639886 -0.0433122069 0.0540333241 -0.191683561 -0.0342819095 0.0580981001 -0.212604657 0.00197827723 0.0584847145 -0.141457051 0.00465541985 0.0589855462 -0.146250084 0.00197827723 0.0584847145 -0.141457051 -0.0342819095 0.0580981001 -0.212604657 -0.0433122069 0.0540333241 -0.191683561 -0.0433122069 0.0540333241 -0.191683561 -0.0123105198 -0.0271790605 -0.263576329 -0.0155337313 -0.038021978 -0.256098479 -0.0101385564 -0.0141618997 -0.268615246 -0.0123105198 -0.0271790605 -0.263576329 -0.0433122069 0.0540333241 -0.191683561 -0.0155337164 0.0382520109 -0.256098479 -0.012310476 0.0274091549 -0.263576329 -0.0433122069 0.0540333241 -0.191683561 -0.012310476 0.0274091549 -0.263576329 -0.0101385424 0.014391955 -0.268615246 -0.0433122069 0.0540333241 -0.191683561 -0.012310476 0.0274091549 -0.263576329 0.0601694882 0.0223106854 -0.265984863 -0.0101385424 0.014391955 -0.268615246 -0.012310476 0.0274091549 -0.263576329 -0.0155337164 0.0382520109 -0.256098479 0.0601694882 0.0411272235 -0.253412038 0.0601694882 0.0223106854 -0.265984863 -0.012310476 0.0274091549 -0.263576329 0.0601694882 0.0411272235 -0.253412038 -0.0443000942 -0.0384670161 -0.146250084 -0.0290623307 -0.0510446727 -0.141457036 -0.0541800298 -0.0207204055 -0.141457051 -0.0514401197 -0.0422582328 -0.172795504 -0.0443000942 -0.0384670161 -0.146250084 -0.0541800298 -0.0207204055 -0.141457051 -0.0443000942 -0.0384670161 -0.146250084 -0.0514401197 -0.0422582328 -0.172795504 -0.0290623307 -0.0510446727 -0.141457036 0.0601694882 0.0223106854 -0.265984863 0.0601694733 -0.0220806375 -0.265984863 0.0601694733 0.000115056129 -0.270399868 0.0601694733 -0.0534699783 -0.234595507 0.0601694733 -0.0220806375 -0.265984863 0.0601694882 0.0223106854 -0.265984863 0.0601694733 -0.0220806375 -0.265984863 -0.0101385564 -0.0141618997 -0.268615246 0.0601694733 0.000115056129 -0.270399868 0.0601694733 -0.0220806375 -0.265984863 -0.0123105198 -0.0271790605 -0.263576329 -0.0101385564 -0.0141618997 -0.268615246 -0.019369334 -0.0462849326 -0.247199863 0.0601694733 -0.0534699783 -0.234595507 -0.0273693204 -0.0555649698 -0.228639856 -0.0342383236 -0.0578589253 -0.212707177 -0.019369334 -0.0462849326 -0.247199863 -0.0273693204 -0.0555649698 -0.228639856 -0.019369334 -0.0462849326 -0.247199863 -0.0433122069 0.0540333241 -0.191683561 -0.0155337313 -0.038021978 -0.256098479 -0.019369334 -0.0462849326 -0.247199863 -0.0342383236 -0.0578589253 -0.212707177 -0.0433122069 0.0540333241 -0.191683561 -0.0342383236 -0.0578589253 -0.212707177 0.00270298054 -0.0582792796 -0.210525706 -0.0039340416 -0.0587449633 -0.146250069 0.00270298054 -0.0582792796 -0.210525706 -0.0342383236 -0.0578589253 -0.212707177 -0.0273693204 -0.0555649698 -0.228639856 0.0601694658 -0.0578849427 -0.21239987 0.0048640212 -0.0576402992 -0.141457021 -0.0039340416 -0.0587449633 -0.146250069 0.00270298054 -0.0582792796 -0.210525706 0.0601694658 -0.0578849427 -0.21239987 -0.0039340416 -0.0587449633 -0.146250069 0.0601694733 -0.0534699783 -0.234595507 0.0601694658 -0.0578849427 -0.21239987 -0.0273693204 -0.0555649698 -0.228639856 0.0601694658 -0.0578849427 -0.21239987 0.00270298054 -0.0582792796 -0.210525706 -0.0273693204 -0.0555649698 -0.228639856 0.0537972897 0.0236479305 -0.146250039 0.0392000601 0.0445620492 -0.141457051 0.0592492819 0.00408180431 -0.141457036 0.0601694807 0.0411272123 -0.171387702 0.0537972897 0.0236479305 -0.146250039 0.0592492819 0.00408180431 -0.141457036 0.0537972897 0.0236479305 -0.146250039 0.0601694807 0.0411272123 -0.171387702 0.0392000601 0.0445620492 -0.141457051 0.0601684451 0.000114977905 -0.154402345 0.0601419657 0.0218651369 -0.158774182 0.0592492819 0.00408180431 -0.141457036 0.0601419657 0.0218651369 -0.158774182 0.0601694807 0.0411272123 -0.171387702 0.0592492819 0.00408180431 -0.141457036 0.0601694807 0.0411272123 -0.171387702 0.0601419657 0.0218651369 -0.158774182 0.0601684451 0.000114977905 -0.154402345 0.0601694584 -0.0408971794 -0.253412038 0.0601694733 -0.0220806375 -0.265984863 0.0601694733 -0.0534699783 -0.234595507 0.0601694584 -0.0408971794 -0.253412038 -0.019369334 -0.0462849326 -0.247199863 -0.0155337313 -0.038021978 -0.256098479 -0.019369334 -0.0462849326 -0.247199863 0.0601694584 -0.0408971794 -0.253412038 0.0601694733 -0.0534699783 -0.234595507 -0.0123105198 -0.0271790605 -0.263576329 0.0601694584 -0.0408971794 -0.253412038 -0.0155337313 -0.038021978 -0.256098479 0.0601694733 -0.0220806375 -0.265984863 0.0601694584 -0.0408971794 -0.253412038 -0.0123105198 -0.0271790605 -0.263576329 0.0601694658 -0.0578849427 -0.21239987 0.0601694658 -0.0534699932 -0.190204233 0.0048640212 -0.0576402992 -0.141457021 0.0314411968 -0.0493066385 -0.141457021 0.0601694658 -0.0534699932 -0.190204233 0.0601694733 -0.0408971496 -0.171387702 0.0601694658 -0.0534699932 -0.190204233 0.0601694733 -0.0534699783 -0.234595507 0.0601694733 -0.0408971496 -0.171387702 0.0601694658 -0.0534699932 -0.190204233 0.0601694658 -0.0578849427 -0.21239987 0.0601694733 -0.0534699783 -0.234595507 0.022649318 -0.0533889383 -0.146099895 0.0314411968 -0.0493066385 -0.141457021 0.0048640212 -0.0576402992 -0.141457021 0.0601694658 -0.0534699932 -0.190204233 0.022649318 -0.0533889383 -0.146099895 0.0048640212 -0.0576402992 -0.141457021 0.022649318 -0.0533889383 -0.146099895 0.0601694658 -0.0534699932 -0.190204233 0.0314411968 -0.0493066385 -0.141457021 </float_array>
          <technique_common>
            <accessor count="330" offset="0" source="#mesh_0-positions-array" stride="3">
              <param name="X" type="float" />
              <param name="Y" type="float" />
              <param name="Z" type="float" />
            </accessor>
          </technique_common>
        </source>
        <vertices id="mesh_0-vertices">
          <input semantic="POSITION" source="#mesh_0-positions" />
        </vertices>
        <polylist count="110" material="defaultMaterial">
          <input offset="0" semantic="VERTEX" source="#mesh_0-vertices" />
          <vcount>3 3 3 3 3 3 3 3 3 3 3 3 3 3 3 3 3 3 3 3 3 3 3 3 3 3 3 3 3 3 3 3 3 3 3 3 3 3 3 3 3 3 3 3 3 3 3 3 3 3 3 3 3 3 3 3 3 3 3 3 3 3 3 3 3 3 3 3 3 3 3 3 3 3 3 3 3 3 3 3 3 3 3 3 3 3 3 3 3 3 3 3 3 3 3 3 3 3 3 3 3 3 3 3 3 3 3 3 3 3 </vcount>
          <p>0 1 2 3 4 5 6 7 8 9 10 11 12 13 14 15 16 17 18 19 20 21 22 23 24 25 26 27 28 29 30 31 32 33 34 35 36 37 38 39 40 41 42 43 44 45 46 47 48 49 50 51 52 53 54 55 56 57 58 59 60 61 62 63 64 65 66 67 68 69 70 71 72 73 74 75 76 77 78 79 80 81 82 83 84 85 86 87 88 89 90 91 92 93 94 95 96 97 98 99 100 101 102 103 104 105 106 107 108 109 110 111 112 113 114 115 116 117 118 119 120 121 122 123 124 125 126 127 128 129 130 131 132 133 134 135 136 137 138 139 140 141 142 143 144 145 146 147 148 149 150 151 152 153 154 155 156 157 158 159 160 161 162 163 164 165 166 167 168 169 170 171 172 173 174 175 176 177 178 179 180 181 182 183 184 185 186 187 188 189 190 191 192 193 194 195 196 197 198 199 200 201 202 203 204 205 206 207 208 209 210 211 212 213 214 215 216 217 218 219 220 221 222 223 224 225 226 227 228 229 230 231 232 233 234 235 236 237 238 239 240 241 242 243 244 245 246 247 248 249 250 251 252 253 254 255 256 257 258 259 260 261 262 263 264 265 266 267 268 269 270 271 272 273 274 275 276 277 278 279 280 281 282 283 284 285 286 287 288 289 290 291 292 293 294 295 296 297 298 299 300 301 302 303 304 305 306 307 308 309 310 311 312 313 314 315 316 317 318 319 320 321 322 323 324 325 326 327 328 329 </p>
        </polylist>
      </mesh>
    </geometry>
  </library_geometries>
  <library_controllers>
  </library_controllers>
  <library_visual_scenes>
    <visual_scene id="Scene" name="Scene">
      <node id="node" name="" type="NODE">
        <matrix sid="matrix">1 0 0 0 0 1 0 0 0 0 1 0 0 0 0 1</matrix>
        <instance_geometry url="#mesh_0">
          <bind_material>
            <technique_common>
              <instance_material symbol="defaultMaterial" target="#material_0">
              </instance_material>
            </technique_common>
          </bind_material>
        </instance_geometry>
      </node>
    </visual_scene>
  </library_visual_scenes>
  <scene>
    <instance_visual_scene url="#Scene" />
  </scene>
</COLLADA>
