<?xml version="1.0" encoding="UTF-8" standalone="no" ?>
<COLLADA xmlns="http://www.collada.org/2005/11/COLLADASchema" version="1.4.1">
  <asset>
    <contributor>
      <author>Assimp</author>
      <authoring_tool>Assimp Exporter</authoring_tool>
    </contributor>
    <created>2025-11-12T11:09:31</created>
    <modified>2025-11-12T11:09:31</modified>
    <unit name="meter" meter="1" />
    <up_axis>Y_UP</up_axis>
  </asset>
  <library_images>
  </library_images>
  <library_effects>
    <effect id="material_0-fx" name="">
      <profile_COMMON>
        <technique sid="standard">
          <phong>
            <emission>
              <color sid="emission">0   0   0   4.28026616e-41</color>
            </emission>
            <ambient>
              <color sid="ambient">0.719165564   0.882352889   0.352941155   4.28026616e-41</color>
            </ambient>
            <diffuse>
              <color sid="diffuse">0.719165564   0.882352889   0.352941155   4.28026616e-41</color>
            </diffuse>
            <specular>
              <color sid="specular">0.529999971   0.529999971   0.529999971   4.28026616e-41</color>
            </specular>
          </phong>
        </technique>
      </profile_COMMON>
    </effect>
  </library_effects>
  <library_materials>
    <material id="material_0" name="">
      <instance_effect url="#material_0-fx"/>
    </material>
  </library_materials>
  <library_geometries>
    <geometry id="mesh_0" name="" >
      <mesh>
        <source id="mesh_0-positions" name="mesh_0-positions">
          <float_array id="mesh_0-positions-array" count="72"> -0.016882943 0.0391182415 -0.143904686 -0.0365790725 0.0203409605 -0.132172465 -0.0368088633 0.0239178669 -0.134126306 -0.0365790725 0.0203409605 -0.132172465 -0.016882943 0.0391182415 -0.143904686 -0.0132455267 0.0382970311 -0.142384708 -0.0365790725 0.0203409605 -0.132172465 -0.0259734001 0.0313500948 -0.132794321 -0.0368088633 0.0239178669 -0.134126306 -0.0259734001 0.0313500948 -0.132794321 -0.0365790725 0.0203409605 -0.132172465 -0.0132455267 0.0382970311 -0.142384708 -0.016882943 0.0391182415 -0.143904686 -0.0259734001 0.0313500948 -0.132794321 -0.0132455267 0.0382970311 -0.142384708 -0.0282726083 0.0347836576 -0.14043957 -0.016882943 0.0391182415 -0.143904686 -0.0368088633 0.0239178669 -0.134126306 -0.0259734001 0.0313500948 -0.132794321 -0.0282726083 0.0347836576 -0.14043957 -0.0368088633 0.0239178669 -0.134126306 -0.0282726083 0.0347836576 -0.14043957 -0.0259734001 0.0313500948 -0.132794321 -0.016882943 0.0391182415 -0.143904686 </float_array>
          <technique_common>
            <accessor count="24" offset="0" source="#mesh_0-positions-array" stride="3">
              <param name="X" type="float" />
              <param name="Y" type="float" />
              <param name="Z" type="float" />
            </accessor>
          </technique_common>
        </source>
        <vertices id="mesh_0-vertices">
          <input semantic="POSITION" source="#mesh_0-positions" />
        </vertices>
        <polylist count="8" material="defaultMaterial">
          <input offset="0" semantic="VERTEX" source="#mesh_0-vertices" />
          <vcount>3 3 3 3 3 3 3 3 </vcount>
          <p>0 1 2 3 4 5 6 7 8 9 10 11 12 13 14 15 16 17 18 19 20 21 22 23 </p>
        </polylist>
      </mesh>
    </geometry>
  </library_geometries>
  <library_controllers>
  </library_controllers>
  <library_visual_scenes>
    <visual_scene id="Scene" name="Scene">
      <node id="node" name="" type="NODE">
        <matrix sid="matrix">1 0 0 0 0 1 0 0 0 0 1 0 0 0 0 1</matrix>
        <instance_geometry url="#mesh_0">
          <bind_material>
            <technique_common>
              <instance_material symbol="defaultMaterial" target="#material_0">
              </instance_material>
            </technique_common>
          </bind_material>
        </instance_geometry>
      </node>
    </visual_scene>
  </library_visual_scenes>
  <scene>
    <instance_visual_scene url="#Scene" />
  </scene>
</COLLADA>
