<?xml version="1.0" encoding="UTF-8" standalone="no" ?>
<COLLADA xmlns="http://www.collada.org/2005/11/COLLADASchema" version="1.4.1">
  <asset>
    <contributor>
      <author>Assimp</author>
      <authoring_tool>Assimp Exporter</authoring_tool>
    </contributor>
    <created>2025-11-12T11:09:31</created>
    <modified>2025-11-12T11:09:31</modified>
    <unit name="meter" meter="1" />
    <up_axis>Y_UP</up_axis>
  </asset>
  <library_images>
  </library_images>
  <library_effects>
    <effect id="material_0-fx" name="">
      <profile_COMMON>
        <technique sid="standard">
          <phong>
            <emission>
              <color sid="emission">0   0   0   4.28026616e-41</color>
            </emission>
            <ambient>
              <color sid="ambient">0.719165564   0.882352889   0.352941155   4.28026616e-41</color>
            </ambient>
            <diffuse>
              <color sid="diffuse">0.719165564   0.882352889   0.352941155   4.28026616e-41</color>
            </diffuse>
            <specular>
              <color sid="specular">0.529999971   0.529999971   0.529999971   4.28026616e-41</color>
            </specular>
          </phong>
        </technique>
      </profile_COMMON>
    </effect>
  </library_effects>
  <library_materials>
    <material id="material_0" name="">
      <instance_effect url="#material_0-fx"/>
    </material>
  </library_materials>
  <library_geometries>
    <geometry id="mesh_0" name="" >
      <mesh>
        <source id="mesh_0-positions" name="mesh_0-positions">
          <float_array id="mesh_0-positions-array" count="1296"> -0.045296751 -0.0536012128 -0.209068596 -0.0324551351 -0.0567231551 -0.189443231 -0.0538421869 -0.0582625233 -0.186683476 -0.0538467392 -0.0222118404 -0.133287907 -0.0538467392 -1.61965727e-05 -0.128872931 -0.053846743 -0.0410283953 -0.227885187 -0.0538467392 -0.0410283878 -0.145860791 -0.0538467392 -0.0222118404 -0.133287907 -0.053846743 -0.0410283953 -0.227885187 -0.0538467392 0.0221794341 -0.240457982 -0.0538467355 -0.0222118441 -0.240457982 -0.053846743 -0.0410283953 -0.227885187 -0.0538467355 -0.0222118441 -0.240457982 -0.0452967435 -0.0222118441 -0.240458012 -0.053846743 -0.0410283953 -0.227885187 -0.0538467318 0.0535688102 -0.164677322 -0.038676247 0.0535339154 -0.165224373 -0.0538426116 0.0582625195 -0.186553299 -0.038676247 0.0535339154 -0.165224373 -0.0538467318 0.0535688102 -0.164677322 -0.00264186133 0.0392535441 -0.120873749 -0.0538467355 0.0535688214 -0.209068656 -0.0538467318 0.0535688102 -0.164677322 -0.0538426116 0.0582625195 -0.186553299 -0.0538467355 0.0535688214 -0.209068656 -0.0538467392 0.0409959927 -0.145860791 -0.0538467318 0.0535688102 -0.164677322 -0.0538467392 0.0409959927 -0.145860791 -0.0538467355 0.0535688214 -0.209068656 -0.053846743 -0.0410283953 -0.227885187 -0.0538467392 -0.0536012016 -0.209068596 -0.045296751 -0.0536012128 -0.209068596 -0.0538421869 -0.0582625233 -0.186683476 -0.0538434871 -0.0535647571 -0.164308131 -0.0538467392 -0.0536012016 -0.209068596 -0.0538421869 -0.0582625233 -0.186683476 -0.0538467392 -0.0536012016 -0.209068596 -0.0538467392 -0.0410283878 -0.145860791 -0.053846743 -0.0410283953 -0.227885187 -0.0538467392 -0.0536012016 -0.209068596 -0.0538434871 -0.0535647571 -0.164308131 -0.0538467392 -0.0410283878 -0.145860791 0.0338100456 -0.0150585612 -0.120896399 0.033110559 -0.00876824837 -0.160821736 0.0368394777 1.32549576e-06 -0.121048152 0.033110559 -0.00876824837 -0.160821736 0.0338100456 -0.0150585612 -0.120896399 0.0262858551 -0.0251357779 -0.157628715 0.0124495467 0.0362995081 -0.120873809 -0.0195428487 0.0530204587 -0.180398405 -0.00264186133 0.0392535441 -0.120873749 -0.0538467243 -1.62048655e-05 -0.244872928 -0.0538467355 -0.0222118441 -0.240457982 -0.0538467392 0.0221794341 -0.240457982 -0.0538467243 -1.62048655e-05 -0.244872928 -0.0452967435 -0.0222118441 -0.240458012 -0.0538467355 -0.0222118441 -0.240457982 -0.0538467392 -1.61965727e-05 -0.128872931 -0.0538467355 0.0221794378 -0.133287907 -0.053846743 -0.0410283953 -0.227885187 -0.0538467355 0.0221794378 -0.133287907 -0.0538467392 0.0409959927 -0.145860791 -0.053846743 -0.0410283953 -0.227885187 -0.0538467318 0.0535688102 -0.164677322 -0.017700294 0.0362015404 -0.120874345 -0.00264186133 0.0392535441 -0.120873749 -0.0538467392 0.0409959927 -0.145860791 -0.017700294 0.0362015404 -0.120874345 -0.0538467318 0.0535688102 -0.164677322 -0.017700294 0.0362015404 -0.120874345 -0.00260650483 -0.0392807759 -0.120873988 -0.00264186133 0.0392535441 -0.120873749 -0.0195428487 0.0530204587 -0.180398405 -0.0326440632 0.0567602515 -0.188519478 -0.00264186133 0.0392535441 -0.120873749 -0.0326440632 0.0567602515 -0.188519478 -0.038676247 0.0535339154 -0.165224373 -0.00264186133 0.0392535441 -0.120873749 -0.038676247 0.0535339154 -0.165224373 -0.0326440632 0.0567602515 -0.188519478 -0.0538426116 0.0582625195 -0.186553299 -0.0452967435 0.0535688028 -0.209068567 -0.0326440632 0.0567602515 -0.188519478 -0.0283695664 0.0502217226 -0.211158901 -0.0452967435 0.0535688028 -0.209068567 -0.0538467355 0.0535688214 -0.209068656 -0.0538426116 0.0582625195 -0.186553299 -0.0326440632 0.0567602515 -0.188519478 -0.0452967435 0.0535688028 -0.209068567 -0.0538426116 0.0582625195 -0.186553299 -0.0452967547 0.0409959964 -0.227885187 -0.0452967435 0.0535688028 -0.209068567 -0.0283695664 0.0502217226 -0.211158901 -0.0452967435 0.0535688028 -0.209068567 -0.0452967547 0.0409959964 -0.227885187 -0.0538467355 0.0535688214 -0.209068656 -0.0106176864 0.046889428 -0.200143099 -0.00367145403 0.0323115215 -0.216010034 -0.0283695664 0.0502217226 -0.211158901 -0.0106176864 0.046889428 -0.200143099 -0.0195428487 0.0530204587 -0.180398405 0.00505965296 0.0414883643 -0.178627789 -0.0326440632 0.0567602515 -0.188519478 -0.0106176864 0.046889428 -0.200143099 -0.0283695664 0.0502217226 -0.211158901 -0.0106176864 0.046889428 -0.200143099 -0.0326440632 0.0567602515 -0.188519478 -0.0195428487 0.0530204587 -0.180398405 0.015242938 0.0286588129 -0.189967096 -0.0106176864 0.046889428 -0.200143099 0.00505965296 0.0414883643 -0.178627789 -0.0106176864 0.046889428 -0.200143099 0.015242938 0.0286588129 -0.189967096 -0.00367145403 0.0323115215 -0.216010034 -0.0104126856 -0.046649538 -0.200607598 -0.0191239323 -0.0529873893 -0.181203187 -0.0324551351 -0.0567231551 -0.189443231 -0.0452967472 -0.0410283841 -0.227885216 -0.0538467392 -0.0536012016 -0.209068596 -0.053846743 -0.0410283953 -0.227885187 -0.0538467392 -0.0536012016 -0.209068596 -0.0452967472 -0.0410283841 -0.227885216 -0.045296751 -0.0536012128 -0.209068596 -0.0452967435 -0.0222118441 -0.240458012 -0.0452967472 -0.0410283841 -0.227885216 -0.053846743 -0.0410283953 -0.227885187 -0.0249430966 -0.0341086052 -0.229739904 -0.0452967472 -0.0410283841 -0.227885216 -0.0452967435 -0.0222118441 -0.240458012 0.000358560705 -0.0109696733 -0.225034535 0.0183402039 -1.61997814e-05 -0.203759134 0.0211829953 -0.00979692396 -0.196430385 0.0124693327 -0.0363220312 -0.120873868 -0.0191239323 -0.0529873893 -0.181203187 0.0143289817 -0.0365687907 -0.151895106 0.0124693327 -0.0363220312 -0.120873868 -0.00260650483 -0.0392807759 -0.120873988 -0.0191239323 -0.0529873893 -0.181203187 0.0124495467 0.0362995081 -0.120873809 0.0124693327 -0.0363220312 -0.120873868 0.0252677407 0.0277750995 -0.120875299 -0.00260650483 -0.0392807759 -0.120873988 0.0124693327 -0.0363220312 -0.120873868 -0.00264186133 0.0392535441 -0.120873749 0.0124693327 -0.0363220312 -0.120873868 0.0124495467 0.0362995081 -0.120873809 -0.00264186133 0.0392535441 -0.120873749 -0.0191239323 -0.0529873893 -0.181203187 -0.0367981605 -0.0540202484 -0.167189062 -0.0324551351 -0.0567231551 -0.189443231 -0.00260650483 -0.0392807759 -0.120873988 -0.0367981605 -0.0540202484 -0.167189062 -0.0191239323 -0.0529873893 -0.181203187 -0.0367981605 -0.0540202484 -0.167189062 -0.00260650483 -0.0392807759 -0.120873988 -0.0538434871 -0.0535647571 -0.164308131 -0.0324551351 -0.0567231551 -0.189443231 -0.0367981605 -0.0540202484 -0.167189062 -0.0538421869 -0.0582625233 -0.186683476 -0.0367981605 -0.0540202484 -0.167189062 -0.0538434871 -0.0535647571 -0.164308131 -0.0538421869 -0.0582625233 -0.186683476 -0.0306063052 -0.0275840983 -0.120875239 -0.0538467392 -0.0222118404 -0.133287907 -0.0538467392 -0.0410283878 -0.145860791 -0.0195428487 0.0530204587 -0.180398405 0.0139718531 0.0367508531 -0.151725352 0.00505965296 0.0414883643 -0.178627789 0.0124495467 0.0362995081 -0.120873809 0.0139718531 0.0367508531 -0.151725352 -0.0195428487 0.0530204587 -0.180398405 0.0139718531 0.0367508531 -0.151725352 0.0124495467 0.0362995081 -0.120873809 0.0252677407 0.0277750995 -0.120875299 -0.0452967435 -0.0222118441 -0.240458012 -0.0452967472 -1.6204609e-05 -0.244872928 -0.0292563345 -1.62039923e-05 -0.242902428 -0.0538467243 -1.62048655e-05 -0.244872928 -0.0452967472 -1.6204609e-05 -0.244872928 -0.0452967435 -0.0222118441 -0.240458012 -0.0538467355 0.0221794378 -0.133287907 -0.0305629168 0.0276156403 -0.120875537 -0.0538467392 0.0409959927 -0.145860791 -0.0305629168 0.0276156403 -0.120875537 -0.017700294 0.0362015404 -0.120874345 -0.0538467392 0.0409959927 -0.145860791 -0.0452967547 0.0221794341 -0.240458012 -0.0538467243 -1.62048655e-05 -0.244872928 -0.0538467392 0.0221794341 -0.240457982 -0.0452967547 0.0221794341 -0.240458012 -0.0452967472 -1.6204609e-05 -0.244872928 -0.0538467243 -1.62048655e-05 -0.244872928 -0.0452967547 0.0221794341 -0.240458012 -0.0231268611 0.0129728829 -0.239437491 -0.0292563345 -1.62039923e-05 -0.242902428 -0.0452967472 -1.6204609e-05 -0.244872928 -0.0452967547 0.0221794341 -0.240458012 -0.0292563345 -1.62039923e-05 -0.242902428 -0.0231268611 0.0129728829 -0.239437491 -0.0250106212 0.0345651358 -0.229375005 0.000244580588 0.012165417 -0.224784136 -0.0250106212 0.0345651358 -0.229375005 -0.00367145403 0.0323115215 -0.216010034 0.000244580588 0.012165417 -0.224784136 -0.0452967547 0.0221794341 -0.240458012 -0.0250106212 0.0345651358 -0.229375005 -0.0231268611 0.0129728829 -0.239437491 -0.0250106212 0.0345651358 -0.229375005 -0.0452967547 0.0221794341 -0.240458012 -0.0452967547 0.0409959964 -0.227885187 -0.00367145403 0.0323115215 -0.216010034 -0.0250106212 0.0345651358 -0.229375005 -0.0283695664 0.0502217226 -0.211158901 -0.0250106212 0.0345651358 -0.229375005 -0.0452967547 0.0409959964 -0.227885187 -0.0283695664 0.0502217226 -0.211158901 -0.0452967547 0.0409959964 -0.227885187 -0.0538467392 0.0409959853 -0.227885216 -0.0538467355 0.0535688214 -0.209068656 -0.0538467392 0.0409959853 -0.227885216 -0.0538467392 0.0221794341 -0.240457982 -0.053846743 -0.0410283953 -0.227885187 -0.0538467355 0.0535688214 -0.209068656 -0.0538467392 0.0409959853 -0.227885216 -0.053846743 -0.0410283953 -0.227885187 -0.0538467392 0.0409959853 -0.227885216 -0.0452967547 0.0221794341 -0.240458012 -0.0538467392 0.0221794341 -0.240457982 -0.0452967547 0.0221794341 -0.240458012 -0.0538467392 0.0409959853 -0.227885216 -0.0452967547 0.0409959964 -0.227885187 0.0210142322 0.0108566685 -0.196250618 0.0183402039 -1.61997814e-05 -0.203759134 0.000244580588 0.012165417 -0.224784136 -0.00367145403 0.0323115215 -0.216010034 0.0210142322 0.0108566685 -0.196250618 0.000244580588 0.012165417 -0.224784136 0.015242938 0.0286588129 -0.189967096 0.0210142322 0.0108566685 -0.196250618 -0.00367145403 0.0323115215 -0.216010034 0.0329090804 0.0097087035 -0.160729408 0.0210142322 0.0108566685 -0.196250618 0.015242938 0.0286588129 -0.189967096 0.033110559 -0.00876824837 -0.160821736 0.0329090804 0.0097087035 -0.160729408 0.0368394777 1.32549576e-06 -0.121048152 -0.0191239323 -0.0529873893 -0.181203187 0.00536066154 -0.0412792824 -0.178960025 0.0143289817 -0.0365687907 -0.151895106 -0.0104126856 -0.046649538 -0.200607598 0.00536066154 -0.0412792824 -0.178960025 -0.0191239323 -0.0529873893 -0.181203187 0.00536066154 -0.0412792824 -0.178960025 0.0262858551 -0.0251357779 -0.157628715 0.0143289817 -0.0365687907 -0.151895106 -0.045296751 -0.0536012128 -0.209068596 -0.0282705929 -0.0499628484 -0.211691976 -0.0324551351 -0.0567231551 -0.189443231 -0.0282705929 -0.0499628484 -0.211691976 -0.0104126856 -0.046649538 -0.200607598 -0.0324551351 -0.0567231551 -0.189443231 -0.0452967472 -0.0410283841 -0.227885216 -0.0282705929 -0.0499628484 -0.211691976 -0.045296751 -0.0536012128 -0.209068596 -0.0282705929 -0.0499628484 -0.211691976 -0.0452967472 -0.0410283841 -0.227885216 -0.0249430966 -0.0341086052 -0.229739904 0.0183402039 -1.61997814e-05 -0.203759134 0.00223612715 0.00114072545 -0.224999458 0.000244580588 0.012165417 -0.224784136 0.000358560705 -0.0109696733 -0.225034535 0.00223612715 0.00114072545 -0.224999458 0.0183402039 -1.61997814e-05 -0.203759134 -0.0230722893 -0.011693229 -0.239724338 0.000358560705 -0.0109696733 -0.225034535 -0.0249430966 -0.0341086052 -0.229739904 -0.0230722893 -0.011693229 -0.239724338 -0.0452967435 -0.0222118441 -0.240458012 -0.0292563345 -1.62039923e-05 -0.242902428 -0.0230722893 -0.011693229 -0.239724338 -0.0249430966 -0.0341086052 -0.229739904 -0.0452967435 -0.0222118441 -0.240458012 0.0262858551 -0.0251357779 -0.157628715 0.025275128 -0.0278002508 -0.120876431 0.0143289817 -0.0365687907 -0.151895106 0.025275128 -0.0278002508 -0.120876431 0.0124693327 -0.0363220312 -0.120873868 0.0143289817 -0.0365687907 -0.151895106 0.0338100456 -0.0150585612 -0.120896399 0.025275128 -0.0278002508 -0.120876431 0.0262858551 -0.0251357779 -0.157628715 0.0124693327 -0.0363220312 -0.120873868 0.025275128 -0.0278002508 -0.120876431 0.0252677407 0.0277750995 -0.120875299 -0.0177368335 -0.0362144969 -0.120874584 -0.0306063052 -0.0275840983 -0.120875239 -0.0538467392 -0.0410283878 -0.145860791 -0.0538434871 -0.0535647571 -0.164308131 -0.0177368335 -0.0362144969 -0.120874584 -0.0538467392 -0.0410283878 -0.145860791 -0.00260650483 -0.0392807759 -0.120873988 -0.0177368335 -0.0362144969 -0.120874584 -0.0538434871 -0.0535647571 -0.164308131 -0.017700294 0.0362015404 -0.120874345 -0.0177368335 -0.0362144969 -0.120874584 -0.00260650483 -0.0392807759 -0.120873988 -0.0538467392 -0.0222118404 -0.133287907 -0.0392943658 -0.0136256684 -0.12096858 -0.0538467392 -1.61965727e-05 -0.128872931 -0.0306063052 -0.0275840983 -0.120875239 -0.0392943658 -0.0136256684 -0.12096858 -0.0538467392 -0.0222118404 -0.133287907 -0.0390837565 0.0149910264 -0.120875359 -0.0538467355 0.0221794378 -0.133287907 -0.0538467392 -1.61965727e-05 -0.128872931 -0.0390837565 0.0149910264 -0.120875359 -0.0305629168 0.0276156403 -0.120875537 -0.0538467355 0.0221794378 -0.133287907 -0.0305629168 0.0276156403 -0.120875537 -0.0390837565 0.0149910264 -0.120875359 -0.017700294 0.0362015404 -0.120874345 -0.0390837565 0.0149910264 -0.120875359 -0.0177368335 -0.0362144969 -0.120874584 -0.017700294 0.0362015404 -0.120874345 -0.0177368335 -0.0362144969 -0.120874584 -0.0390837565 0.0149910264 -0.120875359 -0.0306063052 -0.0275840983 -0.120875239 0.0329090804 0.0097087035 -0.160729408 0.0338030942 0.015038793 -0.120882511 0.0368394777 1.32549576e-06 -0.121048152 0.0338030942 0.015038793 -0.120882511 0.0338100456 -0.0150585612 -0.120896399 0.0368394777 1.32549576e-06 -0.121048152 0.0338030942 0.015038793 -0.120882511 0.025275128 -0.0278002508 -0.120876431 0.0338100456 -0.0150585612 -0.120896399 0.025275128 -0.0278002508 -0.120876431 0.0338030942 0.015038793 -0.120882511 0.0252677407 0.0277750995 -0.120875299 0.0260420926 0.0254548583 -0.157512486 0.0329090804 0.0097087035 -0.160729408 0.015242938 0.0286588129 -0.189967096 0.0260420926 0.0254548583 -0.157512486 0.0139718531 0.0367508531 -0.151725352 0.0252677407 0.0277750995 -0.120875299 0.0338030942 0.015038793 -0.120882511 0.0260420926 0.0254548583 -0.157512486 0.0252677407 0.0277750995 -0.120875299 0.0260420926 0.0254548583 -0.157512486 0.0338030942 0.015038793 -0.120882511 0.0329090804 0.0097087035 -0.160729408 0.0260420926 0.0254548583 -0.157512486 0.015242938 0.0286588129 -0.189967096 0.00505965296 0.0414883643 -0.178627789 0.0139718531 0.0367508531 -0.151725352 0.0260420926 0.0254548583 -0.157512486 0.00505965296 0.0414883643 -0.178627789 0.029341748 -1.61976786e-05 -0.178944945 0.0329090804 0.0097087035 -0.160729408 0.033110559 -0.00876824837 -0.160821736 0.0329090804 0.0097087035 -0.160729408 0.029341748 -1.61976786e-05 -0.178944945 0.0210142322 0.0108566685 -0.196250618 0.029341748 -1.61976786e-05 -0.178944945 0.033110559 -0.00876824837 -0.160821736 0.0211829953 -0.00979692396 -0.196430385 0.0183402039 -1.61997814e-05 -0.203759134 0.029341748 -1.61976786e-05 -0.178944945 0.0211829953 -0.00979692396 -0.196430385 0.0210142322 0.0108566685 -0.196250618 0.029341748 -1.61976786e-05 -0.178944945 0.0183402039 -1.61997814e-05 -0.203759134 0.00536066154 -0.0412792824 -0.178960025 0.0154483449 -0.0282913968 -0.190194309 0.0262858551 -0.0251357779 -0.157628715 0.033110559 -0.00876824837 -0.160821736 0.0154483449 -0.0282913968 -0.190194309 0.0211829953 -0.00979692396 -0.196430385 0.0154483449 -0.0282913968 -0.190194309 0.033110559 -0.00876824837 -0.160821736 0.0262858551 -0.0251357779 -0.157628715 0.0154483449 -0.0282913968 -0.190194309 0.00536066154 -0.0412792824 -0.178960025 -0.0104126856 -0.046649538 -0.200607598 -0.0147628728 -1.62031611e-05 -0.237294614 -0.0231268611 0.0129728829 -0.239437491 0.000244580588 0.012165417 -0.224784136 0.00223612715 0.00114072545 -0.224999458 -0.0147628728 -1.62031611e-05 -0.237294614 0.000244580588 0.012165417 -0.224784136 -0.0231268611 0.0129728829 -0.239437491 -0.0147628728 -1.62031611e-05 -0.237294614 -0.0292563345 -1.62039923e-05 -0.242902428 -0.0147628728 -1.62031611e-05 -0.237294614 -0.0230722893 -0.011693229 -0.239724338 -0.0292563345 -1.62039923e-05 -0.242902428 -0.0147628728 -1.62031611e-05 -0.237294614 0.00223612715 0.00114072545 -0.224999458 0.000358560705 -0.0109696733 -0.225034535 -0.0230722893 -0.011693229 -0.239724338 -0.0147628728 -1.62031611e-05 -0.237294614 0.000358560705 -0.0109696733 -0.225034535 -0.0420579612 -8.42954323e-05 -0.120882869 -0.0392943658 -0.0136256684 -0.12096858 -0.0306063052 -0.0275840983 -0.120875239 -0.0390837565 0.0149910264 -0.120875359 -0.0420579612 -8.42954323e-05 -0.120882869 -0.0306063052 -0.0275840983 -0.120875239 -0.0392943658 -0.0136256684 -0.12096858 -0.0420579612 -8.42954323e-05 -0.120882869 -0.0538467392 -1.61965727e-05 -0.128872931 -0.0420579612 -8.42954323e-05 -0.120882869 -0.0390837565 0.0149910264 -0.120875359 -0.0538467392 -1.61965727e-05 -0.128872931 -0.00353158056 -0.0318889841 -0.216327995 0.0154483449 -0.0282913968 -0.190194309 -0.0104126856 -0.046649538 -0.200607598 0.000358560705 -0.0109696733 -0.225034535 -0.00353158056 -0.0318889841 -0.216327995 -0.0249430966 -0.0341086052 -0.229739904 -0.00353158056 -0.0318889841 -0.216327995 0.000358560705 -0.0109696733 -0.225034535 0.0211829953 -0.00979692396 -0.196430385 0.0154483449 -0.0282913968 -0.190194309 -0.00353158056 -0.0318889841 -0.216327995 0.0211829953 -0.00979692396 -0.196430385 -0.00353158056 -0.0318889841 -0.216327995 -0.0282705929 -0.0499628484 -0.211691976 -0.0249430966 -0.0341086052 -0.229739904 -0.0282705929 -0.0499628484 -0.211691976 -0.00353158056 -0.0318889841 -0.216327995 -0.0104126856 -0.046649538 -0.200607598 </float_array>
          <technique_common>
            <accessor count="432" offset="0" source="#mesh_0-positions-array" stride="3">
              <param name="X" type="float" />
              <param name="Y" type="float" />
              <param name="Z" type="float" />
            </accessor>
          </technique_common>
        </source>
        <vertices id="mesh_0-vertices">
          <input semantic="POSITION" source="#mesh_0-positions" />
        </vertices>
        <polylist count="144" material="defaultMaterial">
          <input offset="0" semantic="VERTEX" source="#mesh_0-vertices" />
          <vcount>3 3 3 3 3 3 3 3 3 3 3 3 3 3 3 3 3 3 3 3 3 3 3 3 3 3 3 3 3 3 3 3 3 3 3 3 3 3 3 3 3 3 3 3 3 3 3 3 3 3 3 3 3 3 3 3 3 3 3 3 3 3 3 3 3 3 3 3 3 3 3 3 3 3 3 3 3 3 3 3 3 3 3 3 3 3 3 3 3 3 3 3 3 3 3 3 3 3 3 3 3 3 3 3 3 3 3 3 3 3 3 3 3 3 3 3 3 3 3 3 3 3 3 3 3 3 3 3 3 3 3 3 3 3 3 3 3 3 3 3 3 3 3 3 </vcount>
          <p>0 1 2 3 4 5 6 7 8 9 10 11 12 13 14 15 16 17 18 19 20 21 22 23 24 25 26 27 28 29 30 31 32 33 34 35 36 37 38 39 40 41 42 43 44 45 46 47 48 49 50 51 52 53 54 55 56 57 58 59 60 61 62 63 64 65 66 67 68 69 70 71 72 73 74 75 76 77 78 79 80 81 82 83 84 85 86 87 88 89 90 91 92 93 94 95 96 97 98 99 100 101 102 103 104 105 106 107 108 109 110 111 112 113 114 115 116 117 118 119 120 121 122 123 124 125 126 127 128 129 130 131 132 133 134 135 136 137 138 139 140 141 142 143 144 145 146 147 148 149 150 151 152 153 154 155 156 157 158 159 160 161 162 163 164 165 166 167 168 169 170 171 172 173 174 175 176 177 178 179 180 181 182 183 184 185 186 187 188 189 190 191 192 193 194 195 196 197 198 199 200 201 202 203 204 205 206 207 208 209 210 211 212 213 214 215 216 217 218 219 220 221 222 223 224 225 226 227 228 229 230 231 232 233 234 235 236 237 238 239 240 241 242 243 244 245 246 247 248 249 250 251 252 253 254 255 256 257 258 259 260 261 262 263 264 265 266 267 268 269 270 271 272 273 274 275 276 277 278 279 280 281 282 283 284 285 286 287 288 289 290 291 292 293 294 295 296 297 298 299 300 301 302 303 304 305 306 307 308 309 310 311 312 313 314 315 316 317 318 319 320 321 322 323 324 325 326 327 328 329 330 331 332 333 334 335 336 337 338 339 340 341 342 343 344 345 346 347 348 349 350 351 352 353 354 355 356 357 358 359 360 361 362 363 364 365 366 367 368 369 370 371 372 373 374 375 376 377 378 379 380 381 382 383 384 385 386 387 388 389 390 391 392 393 394 395 396 397 398 399 400 401 402 403 404 405 406 407 408 409 410 411 412 413 414 415 416 417 418 419 420 421 422 423 424 425 426 427 428 429 430 431 </p>
        </polylist>
      </mesh>
    </geometry>
  </library_geometries>
  <library_controllers>
  </library_controllers>
  <library_visual_scenes>
    <visual_scene id="Scene" name="Scene">
      <node id="node" name="" type="NODE">
        <matrix sid="matrix">1 0 0 0 0 1 0 0 0 0 1 0 0 0 0 1</matrix>
        <instance_geometry url="#mesh_0">
          <bind_material>
            <technique_common>
              <instance_material symbol="defaultMaterial" target="#material_0">
              </instance_material>
            </technique_common>
          </bind_material>
        </instance_geometry>
      </node>
    </visual_scene>
  </library_visual_scenes>
  <scene>
    <instance_visual_scene url="#Scene" />
  </scene>
</COLLADA>
