<?xml version="1.0" encoding="UTF-8" standalone="no" ?>
<COLLADA xmlns="http://www.collada.org/2005/11/COLLADASchema" version="1.4.1">
  <asset>
    <contributor>
      <author>Assimp</author>
      <authoring_tool>Assimp Exporter</authoring_tool>
    </contributor>
    <created>2025-11-12T11:09:31</created>
    <modified>2025-11-12T11:09:31</modified>
    <unit name="meter" meter="1" />
    <up_axis>Y_UP</up_axis>
  </asset>
  <library_images>
  </library_images>
  <library_effects>
    <effect id="material_0-fx" name="">
      <profile_COMMON>
        <technique sid="standard">
          <phong>
            <emission>
              <color sid="emission">0   0   0   4.28026616e-41</color>
            </emission>
            <ambient>
              <color sid="ambient">0.719165564   0.882352889   0.352941155   4.28026616e-41</color>
            </ambient>
            <diffuse>
              <color sid="diffuse">0.719165564   0.882352889   0.352941155   4.28026616e-41</color>
            </diffuse>
            <specular>
              <color sid="specular">0.529999971   0.529999971   0.529999971   4.28026616e-41</color>
            </specular>
          </phong>
        </technique>
      </profile_COMMON>
    </effect>
  </library_effects>
  <library_materials>
    <material id="material_0" name="">
      <instance_effect url="#material_0-fx"/>
    </material>
  </library_materials>
  <library_geometries>
    <geometry id="mesh_0" name="" >
      <mesh>
        <source id="mesh_0-positions" name="mesh_0-positions">
          <float_array id="mesh_0-positions-array" count="990"> -0.0380270034 -0.0105727706 -0.12087667 0.0204498172 -0.0285189264 -0.120876007 -0.020237742 -0.0323930457 -0.120877273 0.00393165322 0.0372491889 0.196816504 0.000931186776 0.0365850702 -0.12087328 -0.00361330505 0.0374923497 0.160125494 -0.0365553424 0.0177484415 0.172228143 -0.0280712638 0.0294809695 0.181350112 -0.0311511084 0.0234179366 -0.120874763 0.0338014625 -0.00373353274 -0.120874353 0.033824861 0.00347724766 -0.120873988 0.0351732075 -0.000270536984 0.160128534 0.0324410461 0.010554038 -0.120873757 0.033824861 0.00347724766 -0.120873988 0.0338014625 -0.00373353274 -0.120874353 0.033824861 0.00347724766 -0.120873988 0.0335768238 0.0106092347 0.169189632 0.0351732075 -0.000270536984 0.160128534 0.0324410461 0.010554038 -0.120873757 0.0335768238 0.0106092347 0.169189632 0.033824861 0.00347724766 -0.120873988 0.0308797378 0.0161370728 0.160129964 0.0335768238 0.0106092347 0.169189632 0.0297032166 0.0172248818 -0.120873451 0.0335768238 0.0106092347 0.169189632 0.0324410461 0.010554038 -0.120873757 0.0297032166 0.0172248818 -0.120873451 0.000693638576 -0.0366272032 -0.120876908 -0.00651714159 -0.0366038084 -0.12087708 -0.020237742 -0.0323930457 -0.120877273 -0.00651714159 -0.0366038084 -0.12087708 0.000693638576 -0.0366272032 -0.120876908 -0.00525647355 -0.037607193 0.201234996 0.0204498172 -0.0285189264 -0.120876007 0.00777043076 -0.0352433957 -0.120876677 -0.020237742 -0.0323930457 -0.120877273 0.00777043076 -0.0352433957 -0.120876677 0.000693638576 -0.0366272032 -0.120876908 -0.020237742 -0.0323930457 -0.120877273 -0.0399922803 0.00582992425 0.167738795 -0.0393874124 0.00371479848 -0.120875955 -0.0402967557 -1.61789267e-05 0.160127103 0.00393165322 0.0372491889 0.196816504 -0.0178062115 0.0372747891 0.200554371 -0.00525647355 -0.037607193 0.201234996 -0.0178062115 0.0372747891 0.200554371 -0.0280712638 0.0294809695 0.181350112 -0.0365553424 0.0177484415 0.172228143 -0.0399922803 0.00582992425 0.167738795 -0.0178062115 0.0372747891 0.200554371 -0.0365553424 0.0177484415 0.172228143 -0.0399901271 -0.00528559182 0.167661846 -0.0399922803 0.00582992425 0.167738795 -0.0402967557 -1.61789267e-05 0.160127103 -0.0374422371 -0.0143668111 0.160127103 -0.0399901271 -0.00528559182 0.167661846 -0.0380270034 -0.0105727706 -0.12087667 -0.0281496402 -0.031099448 0.184398711 -0.0262202844 -0.0283674952 -0.120877206 -0.020237742 -0.0323930457 -0.120877273 -0.0262202844 -0.0283674952 -0.120877206 -0.031302534 -0.0232521594 -0.120877087 -0.020237742 -0.0323930457 -0.120877273 -0.031302534 -0.0232521594 -0.120877087 -0.0262202844 -0.0283674952 -0.120877206 -0.0281496402 -0.031099448 0.184398711 -0.0352891684 -0.01724362 -0.120876908 -0.0380270034 -0.0105727706 -0.12087667 -0.020237742 -0.0323930457 -0.120877273 -0.031302534 -0.0232521594 -0.120877087 -0.0352891684 -0.01724362 -0.120876908 -0.020237742 -0.0323930457 -0.120877273 -0.0352891684 -0.01724362 -0.120876908 -0.0374422371 -0.0143668111 0.160127103 -0.0380270034 -0.0105727706 -0.12087667 -0.0352891684 -0.01724362 -0.120876908 -0.031302534 -0.0232521594 -0.120877087 -0.0281496402 -0.031099448 0.184398711 0.0324410461 0.010554038 -0.120873757 0.0257165749 0.0232334249 -0.120873272 0.0297032166 0.0172248818 -0.120873451 0.0257165749 0.0232334249 -0.120873272 0.0324410461 0.010554038 -0.120873757 0.0206343308 0.0283487588 -0.120873153 0.0324410461 0.010554038 -0.120873757 0.0295906998 -0.0174541324 -0.12087518 0.0204498172 -0.0285189264 -0.120876007 0.0302864779 -0.0181627758 0.160128951 0.0314954221 -0.0163695756 0.171090961 0.0223088376 -0.0290654637 0.180846214 0.0295906998 -0.0174541324 -0.12087518 0.0314954221 -0.0163695756 0.171090961 0.0302864779 -0.0181627758 0.160128951 0.0146517847 0.0323743075 -0.120873086 0.0177256912 0.0325182341 0.18602699 0.0206343308 0.0283487588 -0.120873153 -0.00651714159 -0.0366038084 -0.12087708 -0.0135848029 -0.0351741053 -0.120877206 -0.020237742 -0.0323930457 -0.120877273 0.0223088376 -0.0290654637 0.180846214 0.014441275 -0.0325055681 -0.120876312 0.0204498172 -0.0285189264 -0.120876007 0.014441275 -0.0325055681 -0.120876312 0.00777043076 -0.0352433957 -0.120876677 0.0204498172 -0.0285189264 -0.120876007 0.000693638576 -0.0366272032 -0.120876908 -0.00217419653 -0.0374872163 0.160128891 -0.00525647355 -0.037607193 0.201234996 -0.0393874124 0.00371479848 -0.120875955 -0.0379577093 0.0107824598 -0.12087559 -0.0380270034 -0.0105727706 -0.12087667 -0.0379577093 0.0107824598 -0.12087559 -0.0399922803 0.00582992425 0.167738795 -0.0365553424 0.0177484415 0.172228143 -0.0379577093 0.0107824598 -0.12087559 -0.0393874124 0.00371479848 -0.120875955 -0.0399922803 0.00582992425 0.167738795 -0.00673102634 0.0374488682 0.19849962 0.00393165322 0.0372491889 0.196816504 -0.00361330505 0.0374923497 0.160125494 -0.0178062115 0.0372747891 0.200554371 -0.00673102634 0.0374488682 0.19849962 -0.00361330505 0.0374923497 0.160125494 -0.00673102634 0.0374488682 0.19849962 -0.0178062115 0.0372747891 0.200554371 0.00393165322 0.0372491889 0.196816504 0.0324410461 0.010554038 -0.120873757 -0.0133563858 0.0352246575 -0.120873749 0.0206343308 0.0283487588 -0.120873153 -0.0379577093 0.0107824598 -0.12087559 -0.0133563858 0.0352246575 -0.120873749 -0.0380270034 -0.0105727706 -0.12087667 -0.0380270034 -0.0105727706 -0.12087667 -0.0133563858 0.0352246575 -0.120873749 0.0204498172 -0.0285189264 -0.120876007 -0.0133563858 0.0352246575 -0.120873749 0.0324410461 0.010554038 -0.120873757 0.0204498172 -0.0285189264 -0.120876007 -0.0280712638 0.0294809695 0.181350112 -0.0260357764 0.0285001844 -0.120874397 -0.0311511084 0.0234179366 -0.120874763 -0.0178062115 0.0372747891 0.200554371 -0.0260357764 0.0285001844 -0.120874397 -0.0280712638 0.0294809695 0.181350112 -0.0260357764 0.0285001844 -0.120874397 -0.0133563858 0.0352246575 -0.120873749 -0.0379577093 0.0107824598 -0.12087559 -0.0184000414 -0.0371413678 0.200714171 -0.0178062115 0.0372747891 0.200554371 -0.0399922803 0.00582992425 0.167738795 -0.0399901271 -0.00528559182 0.167661846 -0.0184000414 -0.0371413678 0.200714171 -0.0399922803 0.00582992425 0.167738795 -0.0184000414 -0.0371413678 0.200714171 -0.0399901271 -0.00528559182 0.167661846 -0.0281496402 -0.031099448 0.184398711 -0.0178062115 0.0372747891 0.200554371 -0.0184000414 -0.0371413678 0.200714171 -0.00525647355 -0.037607193 0.201234996 -0.0184000414 -0.0371413678 0.200714171 -0.00651714159 -0.0366038084 -0.12087708 -0.00525647355 -0.037607193 0.201234996 -0.0184000414 -0.0371413678 0.200714171 -0.0135848029 -0.0351741053 -0.120877206 -0.00651714159 -0.0366038084 -0.12087708 -0.0184000414 -0.0371413678 0.200714171 -0.0281496402 -0.031099448 0.184398711 -0.020237742 -0.0323930457 -0.120877273 -0.0135848029 -0.0351741053 -0.120877206 -0.0184000414 -0.0371413678 0.200714171 -0.020237742 -0.0323930457 -0.120877273 -0.0394108109 -0.00349598075 -0.120876312 -0.0393874124 0.00371479848 -0.120875955 -0.0380270034 -0.0105727706 -0.12087667 -0.0399901271 -0.00528559182 0.167661846 -0.0394108109 -0.00349598075 -0.120876312 -0.0380270034 -0.0105727706 -0.12087667 -0.0393874124 0.00371479848 -0.120875955 -0.0394108109 -0.00349598075 -0.120876312 -0.0402967557 -1.61789267e-05 0.160127103 -0.0394108109 -0.00349598075 -0.120876312 -0.0399901271 -0.00528559182 0.167661846 -0.0402967557 -1.61789267e-05 0.160127103 -0.0361162499 -0.0174084213 0.171431005 -0.0352891684 -0.01724362 -0.120876908 -0.0281496402 -0.031099448 0.184398711 -0.0352891684 -0.01724362 -0.120876908 -0.0361162499 -0.0174084213 0.171431005 -0.0374422371 -0.0143668111 0.160127103 -0.0399901271 -0.00528559182 0.167661846 -0.0361162499 -0.0174084213 0.171431005 -0.0281496402 -0.031099448 0.184398711 -0.0361162499 -0.0174084213 0.171431005 -0.0399901271 -0.00528559182 0.167661846 -0.0374422371 -0.0143668111 0.160127103 0.0079988474 0.0351553708 -0.120873161 0.0146517847 0.0323743075 -0.120873086 0.0206343308 0.0283487588 -0.120873153 0.0079988474 0.0351553708 -0.120873161 -0.0133563858 0.0352246575 -0.120873749 0.000931186776 0.0365850702 -0.12087328 -0.0133563858 0.0352246575 -0.120873749 0.0079988474 0.0351553708 -0.120873161 0.0206343308 0.0283487588 -0.120873153 0.0079988474 0.0351553708 -0.120873161 0.000931186776 0.0365850702 -0.12087328 0.00393165322 0.0372491889 0.196816504 0.0177256912 0.0325182341 0.18602699 0.0079988474 0.0351553708 -0.120873161 0.00393165322 0.0372491889 0.196816504 0.0079988474 0.0351553708 -0.120873161 0.0177256912 0.0325182341 0.18602699 0.0146517847 0.0323743075 -0.120873086 0.0323717594 -0.0108011924 -0.12087477 0.0324410461 0.010554038 -0.120873757 0.0338014625 -0.00373353274 -0.120874353 0.0323717594 -0.0108011924 -0.12087477 0.0295906998 -0.0174541324 -0.12087518 0.0324410461 0.010554038 -0.120873757 0.0323717594 -0.0108011924 -0.12087477 0.0314954221 -0.0163695756 0.171090961 0.0295906998 -0.0174541324 -0.12087518 0.0255651493 -0.0234366767 -0.120875604 0.0223088376 -0.0290654637 0.180846214 0.0204498172 -0.0285189264 -0.120876007 0.0295906998 -0.0174541324 -0.12087518 0.0255651493 -0.0234366767 -0.120875604 0.0204498172 -0.0285189264 -0.120876007 0.0255651493 -0.0234366767 -0.120875604 0.0302864779 -0.0181627758 0.160128951 0.0223088376 -0.0290654637 0.180846214 0.0255651493 -0.0234366767 -0.120875604 0.0295906998 -0.0174541324 -0.12087518 0.0302864779 -0.0181627758 0.160128951 0.0314954221 -0.0163695756 0.171090961 0.035160128 -0.00147900858 0.167559624 0.0223088376 -0.0290654637 0.180846214 0.035160128 -0.00147900858 0.167559624 0.0177256912 0.0325182341 0.18602699 0.0223088376 -0.0290654637 0.180846214 0.0177256912 0.0325182341 0.18602699 0.035160128 -0.00147900858 0.167559624 0.0335768238 0.0106092347 0.169189632 0.0335768238 0.0106092347 0.169189632 0.035160128 -0.00147900858 0.167559624 0.0351732075 -0.000270536984 0.160128534 0.0323717594 -0.0108011924 -0.12087477 0.035160128 -0.00147900858 0.167559624 0.0314954221 -0.0163695756 0.171090961 0.035160128 -0.00147900858 0.167559624 0.0338014625 -0.00373353274 -0.120874353 0.0351732075 -0.000270536984 0.160128534 0.035160128 -0.00147900858 0.167559624 0.0323717594 -0.0108011924 -0.12087477 0.0338014625 -0.00373353274 -0.120874353 0.0268768314 0.0238282904 0.17572993 0.0335768238 0.0106092347 0.169189632 0.0308797378 0.0161370728 0.160129964 0.0268768314 0.0238282904 0.17572993 0.0177256912 0.0325182341 0.18602699 0.0335768238 0.0106092347 0.169189632 0.0268768314 0.0238282904 0.17572993 0.0308797378 0.0161370728 0.160129964 0.0297032166 0.0172248818 -0.120873451 0.0257165749 0.0232334249 -0.120873272 0.0268768314 0.0238282904 0.17572993 0.0297032166 0.0172248818 -0.120873451 0.0268768314 0.0238282904 0.17572993 0.0257165749 0.0232334249 -0.120873272 0.0206343308 0.0283487588 -0.120873153 0.0177256912 0.0325182341 0.18602699 0.0268768314 0.0238282904 0.17572993 0.0206343308 0.0283487588 -0.120873153 0.0107631935 -0.0356450863 0.190331817 0.014441275 -0.0325055681 -0.120876312 0.0223088376 -0.0290654637 0.180846214 0.014441275 -0.0325055681 -0.120876312 0.0107631935 -0.0356450863 0.190331817 0.00777043076 -0.0352433957 -0.120876677 -0.00217419653 -0.0374872163 0.160128891 0.0107631935 -0.0356450863 0.190331817 -0.00525647355 -0.037607193 0.201234996 0.00777043076 -0.0352433957 -0.120876677 0.0107631935 -0.0356450863 0.190331817 0.000693638576 -0.0366272032 -0.120876908 0.0107631935 -0.0356450863 0.190331817 -0.00217419653 -0.0374872163 0.160128891 0.000693638576 -0.0366272032 -0.120876908 0.0107631935 -0.0356450863 0.190331817 0.00393165322 0.0372491889 0.196816504 -0.00525647355 -0.037607193 0.201234996 0.0107631935 -0.0356450863 0.190331817 0.0177256912 0.0325182341 0.18602699 0.00393165322 0.0372491889 0.196816504 0.0177256912 0.0325182341 0.18602699 0.0107631935 -0.0356450863 0.190331817 0.0223088376 -0.0290654637 0.180846214 -0.0133563858 0.0352246575 -0.120873749 -0.00627959706 0.036608465 -0.120873451 0.000931186776 0.0365850702 -0.12087328 -0.00627959706 0.036608465 -0.120873451 -0.0133563858 0.0352246575 -0.120873749 -0.0178062115 0.0372747891 0.200554371 0.000931186776 0.0365850702 -0.12087328 -0.00627959706 0.036608465 -0.120873451 -0.00361330505 0.0374923497 0.160125494 -0.00627959706 0.036608465 -0.120873451 -0.0178062115 0.0372747891 0.200554371 -0.00361330505 0.0374923497 0.160125494 -0.0133563858 0.0352246575 -0.120873749 -0.0200272296 0.0324868262 -0.120873995 -0.0178062115 0.0372747891 0.200554371 -0.0200272296 0.0324868262 -0.120873995 -0.0260357764 0.0285001844 -0.120874397 -0.0178062115 0.0372747891 0.200554371 -0.0260357764 0.0285001844 -0.120874397 -0.0200272296 0.0324868262 -0.120873995 -0.0133563858 0.0352246575 -0.120873749 -0.0260357764 0.0285001844 -0.120874397 -0.0351766534 0.0174353961 -0.12087518 -0.0311511084 0.0234179366 -0.120874763 -0.0351766534 0.0174353961 -0.12087518 -0.0260357764 0.0285001844 -0.120874397 -0.0379577093 0.0107824598 -0.12087559 -0.0351766534 0.0174353961 -0.12087518 -0.0365553424 0.0177484415 0.172228143 -0.0311511084 0.0234179366 -0.120874763 -0.0351766534 0.0174353961 -0.12087518 -0.0379577093 0.0107824598 -0.12087559 -0.0365553424 0.0177484415 0.172228143 </float_array>
          <technique_common>
            <accessor count="330" offset="0" source="#mesh_0-positions-array" stride="3">
              <param name="X" type="float" />
              <param name="Y" type="float" />
              <param name="Z" type="float" />
            </accessor>
          </technique_common>
        </source>
        <vertices id="mesh_0-vertices">
          <input semantic="POSITION" source="#mesh_0-positions" />
        </vertices>
        <polylist count="110" material="defaultMaterial">
          <input offset="0" semantic="VERTEX" source="#mesh_0-vertices" />
          <vcount>3 3 3 3 3 3 3 3 3 3 3 3 3 3 3 3 3 3 3 3 3 3 3 3 3 3 3 3 3 3 3 3 3 3 3 3 3 3 3 3 3 3 3 3 3 3 3 3 3 3 3 3 3 3 3 3 3 3 3 3 3 3 3 3 3 3 3 3 3 3 3 3 3 3 3 3 3 3 3 3 3 3 3 3 3 3 3 3 3 3 3 3 3 3 3 3 3 3 3 3 3 3 3 3 3 3 3 3 3 3 </vcount>
          <p>0 1 2 3 4 5 6 7 8 9 10 11 12 13 14 15 16 17 18 19 20 21 22 23 24 25 26 27 28 29 30 31 32 33 34 35 36 37 38 39 40 41 42 43 44 45 46 47 48 49 50 51 52 53 54 55 56 57 58 59 60 61 62 63 64 65 66 67 68 69 70 71 72 73 74 75 76 77 78 79 80 81 82 83 84 85 86 87 88 89 90 91 92 93 94 95 96 97 98 99 100 101 102 103 104 105 106 107 108 109 110 111 112 113 114 115 116 117 118 119 120 121 122 123 124 125 126 127 128 129 130 131 132 133 134 135 136 137 138 139 140 141 142 143 144 145 146 147 148 149 150 151 152 153 154 155 156 157 158 159 160 161 162 163 164 165 166 167 168 169 170 171 172 173 174 175 176 177 178 179 180 181 182 183 184 185 186 187 188 189 190 191 192 193 194 195 196 197 198 199 200 201 202 203 204 205 206 207 208 209 210 211 212 213 214 215 216 217 218 219 220 221 222 223 224 225 226 227 228 229 230 231 232 233 234 235 236 237 238 239 240 241 242 243 244 245 246 247 248 249 250 251 252 253 254 255 256 257 258 259 260 261 262 263 264 265 266 267 268 269 270 271 272 273 274 275 276 277 278 279 280 281 282 283 284 285 286 287 288 289 290 291 292 293 294 295 296 297 298 299 300 301 302 303 304 305 306 307 308 309 310 311 312 313 314 315 316 317 318 319 320 321 322 323 324 325 326 327 328 329 </p>
        </polylist>
      </mesh>
    </geometry>
  </library_geometries>
  <library_controllers>
  </library_controllers>
  <library_visual_scenes>
    <visual_scene id="Scene" name="Scene">
      <node id="node" name="" type="NODE">
        <matrix sid="matrix">1 0 0 0 0 1 0 0 0 0 1 0 0 0 0 1</matrix>
        <instance_geometry url="#mesh_0">
          <bind_material>
            <technique_common>
              <instance_material symbol="defaultMaterial" target="#material_0">
              </instance_material>
            </technique_common>
          </bind_material>
        </instance_geometry>
      </node>
    </visual_scene>
  </library_visual_scenes>
  <scene>
    <instance_visual_scene url="#Scene" />
  </scene>
</COLLADA>
