<?xml version="1.0" encoding="UTF-8" standalone="no" ?>
<COLLADA xmlns="http://www.collada.org/2005/11/COLLADASchema" version="1.4.1">
  <asset>
    <contributor>
      <author>Assimp</author>
      <authoring_tool>Assimp Exporter</authoring_tool>
    </contributor>
    <created>2025-11-12T11:09:31</created>
    <modified>2025-11-12T11:09:31</modified>
    <unit name="meter" meter="1" />
    <up_axis>Y_UP</up_axis>
  </asset>
  <library_images>
  </library_images>
  <library_effects>
    <effect id="material_0-fx" name="">
      <profile_COMMON>
        <technique sid="standard">
          <phong>
            <emission>
              <color sid="emission">0   0   0   4.28026616e-41</color>
            </emission>
            <ambient>
              <color sid="ambient">0.282352924   0.282352924   0.282352924   4.28026616e-41</color>
            </ambient>
            <diffuse>
              <color sid="diffuse">0.282352924   0.282352924   0.282352924   4.28026616e-41</color>
            </diffuse>
            <specular>
              <color sid="specular">0.150000006   0.150000006   0.150000006   0</color>
            </specular>
          </phong>
        </technique>
      </profile_COMMON>
    </effect>
  </library_effects>
  <library_materials>
    <material id="material_0" name="">
      <instance_effect url="#material_0-fx"/>
    </material>
  </library_materials>
  <library_geometries>
    <geometry id="mesh_0" name="" >
      <mesh>
        <source id="mesh_0-positions" name="mesh_0-positions">
          <float_array id="mesh_0-positions-array" count="288"> 0.0602174923 -0.0579999909 0.212549806 0.068217501 -0.0579999909 0.212549806 0.060217455 -0.0535850003 0.234745443 0.060217455 -0.0535850003 0.234745443 0.068217501 -0.0579999909 0.212549806 0.0682174638 -0.0535850003 0.234745443 0.0602174588 -0.0410121828 0.253561974 0.0682174638 -0.0535850003 0.234745443 0.0682175085 -0.0410121828 0.253561974 0.0602174699 -0.0221956279 0.266134828 0.0682175085 -0.0410121828 0.253561974 0.0682175308 -0.0221956279 0.266134828 0.0602175072 1.43836827e-08 0.270549804 0.0682175308 -0.0221956279 0.266134828 0.0682174861 1.13211636e-08 0.270549804 0.0602174699 0.0221956465 0.266134828 0.0682174861 1.13211636e-08 0.270549804 0.0682175308 0.0221956484 0.266134828 0.0602175072 0.0410122052 0.253562003 0.0682175308 0.0221956484 0.266134828 0.0682175159 0.0410122126 0.253562003 0.0602174886 0.0535850264 0.234745458 0.0682175159 0.0410122126 0.253562003 0.068217501 0.0535850227 0.234745458 0.060217537 0.0580000132 0.212549806 0.068217501 0.0535850227 0.234745458 0.0682174638 0.0580000244 0.212549806 0.060217537 0.0580000132 0.212549806 0.0602174886 0.0535850264 0.234745458 0.068217501 0.0535850227 0.234745458 0.0602174886 0.0535850264 0.234745458 0.0602175072 0.0410122052 0.253562003 0.0682175159 0.0410122126 0.253562003 0.0602175072 0.0410122052 0.253562003 0.0602174699 0.0221956465 0.266134828 0.0682175308 0.0221956484 0.266134828 0.0602174699 0.0221956465 0.266134828 0.0602175072 1.43836827e-08 0.270549804 0.0682174861 1.13211636e-08 0.270549804 0.0602175072 1.43836827e-08 0.270549804 0.0602174699 -0.0221956279 0.266134828 0.0682175308 -0.0221956279 0.266134828 0.0602174699 -0.0221956279 0.266134828 0.0602174588 -0.0410121828 0.253561974 0.0682175085 -0.0410121828 0.253561974 0.0602174588 -0.0410121828 0.253561974 0.060217455 -0.0535850003 0.234745443 0.0682174638 -0.0535850003 0.234745443 0.060217537 0.0580000132 0.212549806 0.0682174638 0.0580000244 0.212549806 0.0602174923 0.0535850413 0.190354168 0.0602174923 0.0535850413 0.190354168 0.0682174638 0.0580000244 0.212549806 0.0682174936 0.0535850339 0.190354183 0.0602174364 0.0410122164 0.171537623 0.0682174936 0.0535850339 0.190354183 0.068217501 0.041012194 0.171537623 0.0602174997 0.0221956447 0.158964798 0.068217501 0.041012194 0.171537623 0.0682174787 0.0221956596 0.158964783 0.0602174699 1.05899964e-08 0.154549792 0.0682174787 0.0221956596 0.158964783 0.0682175234 3.53762104e-08 0.154549852 0.0602174997 -0.022195613 0.158964798 0.0682175234 3.53762104e-08 0.154549852 0.0682174265 -0.022195641 0.158964783 0.0602175221 -0.0410121642 0.171537623 0.0682174265 -0.022195641 0.158964783 0.068217501 -0.0410121866 0.171537578 0.0602174811 -0.0535849817 0.190354168 0.068217501 -0.0410121866 0.171537578 0.0682174563 -0.0535849929 0.190354168 0.0602174923 -0.0579999909 0.212549806 0.0682174563 -0.0535849929 0.190354168 0.068217501 -0.0579999909 0.212549806 0.0602174923 -0.0579999909 0.212549806 0.0602174811 -0.0535849817 0.190354168 0.0682174563 -0.0535849929 0.190354168 0.0602174811 -0.0535849817 0.190354168 0.0602175221 -0.0410121642 0.171537623 0.068217501 -0.0410121866 0.171537578 0.0602175221 -0.0410121642 0.171537623 0.0602174997 -0.022195613 0.158964798 0.0682174265 -0.022195641 0.158964783 0.0602174997 -0.022195613 0.158964798 0.0602174699 1.05899964e-08 0.154549792 0.0682175234 3.53762104e-08 0.154549852 0.0602174699 1.05899964e-08 0.154549792 0.0602174997 0.0221956447 0.158964798 0.0682174787 0.0221956596 0.158964783 0.0602174997 0.0221956447 0.158964798 0.0602174364 0.0410122164 0.171537623 0.068217501 0.041012194 0.171537623 0.0602174364 0.0410122164 0.171537623 0.0602174923 0.0535850413 0.190354168 0.0682174936 0.0535850339 0.190354183 </float_array>
          <technique_common>
            <accessor count="96" offset="0" source="#mesh_0-positions-array" stride="3">
              <param name="X" type="float" />
              <param name="Y" type="float" />
              <param name="Z" type="float" />
            </accessor>
          </technique_common>
        </source>
        <vertices id="mesh_0-vertices">
          <input semantic="POSITION" source="#mesh_0-positions" />
        </vertices>
        <polylist count="32" material="defaultMaterial">
          <input offset="0" semantic="VERTEX" source="#mesh_0-vertices" />
          <vcount>3 3 3 3 3 3 3 3 3 3 3 3 3 3 3 3 3 3 3 3 3 3 3 3 3 3 3 3 3 3 3 3 </vcount>
          <p>0 1 2 3 4 5 6 7 8 9 10 11 12 13 14 15 16 17 18 19 20 21 22 23 24 25 26 27 28 29 30 31 32 33 34 35 36 37 38 39 40 41 42 43 44 45 46 47 48 49 50 51 52 53 54 55 56 57 58 59 60 61 62 63 64 65 66 67 68 69 70 71 72 73 74 75 76 77 78 79 80 81 82 83 84 85 86 87 88 89 90 91 92 93 94 95 </p>
        </polylist>
      </mesh>
    </geometry>
  </library_geometries>
  <library_controllers>
  </library_controllers>
  <library_visual_scenes>
    <visual_scene id="Scene" name="Scene">
      <node id="node" name="" type="NODE">
        <matrix sid="matrix">1 0 0 0 0 1 0 0 0 0 1 0 0 0 0 1</matrix>
        <instance_geometry url="#mesh_0">
          <bind_material>
            <technique_common>
              <instance_material symbol="defaultMaterial" target="#material_0">
              </instance_material>
            </technique_common>
          </bind_material>
        </instance_geometry>
      </node>
    </visual_scene>
  </library_visual_scenes>
  <scene>
    <instance_visual_scene url="#Scene" />
  </scene>
</COLLADA>
