<?xml version="1.0" encoding="UTF-8" standalone="no" ?>
<COLLADA xmlns="http://www.collada.org/2005/11/COLLADASchema" version="1.4.1">
  <asset>
    <contributor>
      <author>Assimp</author>
      <authoring_tool>Assimp Exporter</authoring_tool>
    </contributor>
    <created>2025-11-12T11:09:31</created>
    <modified>2025-11-12T11:09:31</modified>
    <unit name="meter" meter="1" />
    <up_axis>Y_UP</up_axis>
  </asset>
  <library_images>
  </library_images>
  <library_effects>
    <effect id="material_0-fx" name="">
      <profile_COMMON>
        <technique sid="standard">
          <phong>
            <emission>
              <color sid="emission">0   0   0   4.28026616e-41</color>
            </emission>
            <ambient>
              <color sid="ambient">0.535294116   0.535294116   0.535294116   4.28026616e-41</color>
            </ambient>
            <diffuse>
              <color sid="diffuse">0.535294116   0.535294116   0.535294116   4.28026616e-41</color>
            </diffuse>
            <specular>
              <color sid="specular">0.140000001   0.140000001   0.140000001   4.28026616e-41</color>
            </specular>
          </phong>
        </technique>
      </profile_COMMON>
    </effect>
  </library_effects>
  <library_materials>
    <material id="material_0" name="">
      <instance_effect url="#material_0-fx"/>
    </material>
  </library_materials>
  <library_geometries>
    <geometry id="mesh_0" name="" >
      <mesh>
        <source id="mesh_0-positions" name="mesh_0-positions">
          <float_array id="mesh_0-positions-array" count="3825"> -0.0168960933 -0.0374925099 0.204747811 -0.0167903323 -0.0374944359 0.204850212 -0.0444500968 -0.0346455313 0.191149443 -0.0182183813 -0.0371320061 0.20025897 -0.0444500968 -0.0346455313 0.191149443 -0.0281529967 -0.03108331 0.184521824 -0.0182183813 -0.0371320061 0.20025897 -0.0168960933 -0.0374925099 0.204747811 -0.0444500968 -0.0346455313 0.191149443 -0.0444500968 -0.0346455313 0.191149443 -0.0444501005 -0.0265165549 0.178983673 -0.0281529967 -0.03108331 0.184521824 -0.0281529967 -0.03108331 0.184521824 -0.0444501005 -0.0265165549 0.178983673 -0.0329315849 -0.0255038813 0.178008139 -0.0329315849 -0.0255038813 0.178008139 -0.0444501005 -0.0265165549 0.178983673 -0.0444500968 -0.0143506713 0.170854598 -0.037096411 -0.0183183644 0.172778755 -0.0444500968 -0.0143506713 0.170854598 -0.0401874706 -0.00969402026 0.169274732 -0.037096411 -0.0183183644 0.172778755 -0.0329315849 -0.0255038813 0.178008139 -0.0444500968 -0.0143506713 0.170854598 -0.0444500968 -0.0143506713 0.170854598 -0.044450108 -4.11861159e-08 0.168000132 -0.0401874706 -0.00969402026 0.169274732 -0.0401874706 -0.00969402026 0.169274732 -0.044450108 -4.11861159e-08 0.168000132 -0.041559834 -8.21790527e-05 0.168000355 -0.041559834 -8.21790527e-05 0.168000355 -0.044450108 -4.11861159e-08 0.168000132 -0.0402060151 0.00962194428 0.169255242 -0.0402060151 0.00962194428 0.169255242 -0.044450108 -4.11861159e-08 0.168000132 -0.0444500968 0.0143505959 0.170854762 -0.0371295623 0.0182471406 0.172739059 -0.0444500968 0.0143505959 0.170854762 -0.044450108 0.0265164766 0.178983748 -0.0329860076 0.0254269 0.177937046 -0.044450108 0.0265164766 0.178983748 -0.0282382742 0.0310012363 0.18440105 -0.0329860076 0.0254269 0.177937046 -0.0371295623 0.0182471406 0.172739059 -0.044450108 0.0265164766 0.178983748 -0.044450108 0.0265164766 0.178983748 -0.0444501005 0.0346454643 0.191149488 -0.0282382742 0.0310012363 0.18440105 -0.0282382742 0.0310012363 0.18440105 -0.0444501005 0.0346454643 0.191149488 -0.0183145981 0.0371060297 0.200078964 -0.0183145981 0.0371060297 0.200078964 -0.0444501005 0.0346454643 0.191149488 -0.0444501042 0.0374999791 0.20550026 -0.0172155146 0.037361145 0.202276245 -0.0444501042 0.0374999791 0.20550026 -0.0169493202 0.0374889895 0.204591945 -0.0172155146 0.037361145 0.202276245 -0.0183145981 0.0371060297 0.200078964 -0.0444501042 0.0374999791 0.20550026 0.0103170797 0.0374980755 0.205121845 0.00910937134 0.0374996886 0.2053518 0.0219306685 0.0374999866 0.205500171 0.0109170415 0.0374963731 0.204980299 0.0219306685 0.0374999866 0.205500171 0.0111932224 0.0374942943 0.204847664 0.0109170415 0.0374963731 0.204980299 0.0103170797 0.0374980755 0.205121845 0.0219306685 0.0374999866 0.205500171 0.0261306744 0.0359999761 0.194999993 0.0127144307 0.037106026 0.200078815 0.0219306685 0.0374999866 0.205500171 0.0261306744 0.0359999761 0.194999993 0.0309306756 0.029999977 0.183000177 0.0127144307 0.037106026 0.200078815 0.0127144307 0.037106026 0.200078815 0.0309306756 0.029999977 0.183000177 0.0226381067 0.0310012382 0.184400946 0.0226381067 0.0310012382 0.184400946 0.0309306756 0.029999977 0.183000177 0.0332320407 0.024657499 0.177246571 0.0273858402 0.0254269056 0.177936986 0.0332320407 0.024657499 0.177246571 0.0315293781 0.0182471294 0.172739163 0.0273858402 0.0254269056 0.177936986 0.0226381067 0.0310012382 0.184400946 0.0332320407 0.024657499 0.177246571 0.0332320407 0.024657499 0.177246571 0.0351659656 0.0176470242 0.172411904 0.0315293781 0.0182471294 0.172739163 0.0315293781 0.0182471294 0.172739163 0.0351659656 0.0176470242 0.172411904 0.0364691354 0.00923073757 0.169154048 0.0346058533 0.00962194614 0.169255584 0.0364691354 0.00923073757 0.169154048 0.036930684 -3.88251387e-08 0.168000072 0.0359596685 -8.21867288e-05 0.168000147 0.036930684 -3.88251387e-08 0.168000072 0.0364691354 -0.00923081394 0.169153988 0.034587305 -0.00969402585 0.169274986 0.0364691354 -0.00923081394 0.169153988 0.0351659693 -0.0176471174 0.172411531 0.0314962417 -0.0183183569 0.172778532 0.0351659693 -0.0176471174 0.172411531 0.033232037 -0.0246575847 0.177246585 0.0273314137 -0.0255038831 0.178008005 0.033232037 -0.0246575847 0.177246585 0.0309306793 -0.0300000571 0.183000162 0.0225528236 -0.03108331 0.184522048 0.0309306793 -0.0300000571 0.183000162 0.026130667 -0.0360000655 0.195000336 0.0126182092 -0.0371320024 0.200258717 0.026130667 -0.0360000655 0.195000336 0.0112959165 -0.0374925099 0.204747796 0.0126182092 -0.0371320024 0.200258717 0.0225528236 -0.03108331 0.184522048 0.026130667 -0.0360000655 0.195000336 0.0112959165 -0.0374925099 0.204747796 0.026130667 -0.0360000655 0.195000336 0.0111901546 -0.0374944434 0.204850346 0.0111901546 -0.0374944434 0.204850346 0.026130667 -0.0360000655 0.195000336 0.0219306666 -0.0375000536 0.205500156 0.0110604567 -0.0374956243 0.204923272 0.0219306666 -0.0375000536 0.205500156 0.0107838102 -0.0374970064 0.205020964 0.0110604567 -0.0374956243 0.204923272 0.0111901546 -0.0374944434 0.204850346 0.0219306666 -0.0375000536 0.205500156 -0.0158078689 -0.037498422 0.205148324 -0.014647373 -0.0374997854 0.205356151 -0.0444500856 -0.0375000611 0.20550032 -0.0163839739 -0.0374969915 0.205020815 -0.0444500856 -0.0375000611 0.20550032 -0.0166606233 -0.0374956131 0.204923034 -0.0163839739 -0.0374969915 0.205020815 -0.0158078689 -0.037498422 0.205148324 -0.0444500856 -0.0375000611 0.20550032 -0.0028000765 0.0373917297 0.202653125 -0.0122538498 0.0374990404 0.20523639 0.00665367208 0.0374990553 0.205236092 0.00665367208 0.0374990553 0.205236092 -0.0122538498 0.0374990404 0.20523639 0.00910937134 0.0374996886 0.2053518 0.00910937134 0.0374996886 0.2053518 -0.0122538498 0.0374990404 0.20523639 -0.014709536 0.0374996774 0.205351502 0.0219306685 0.0374999866 0.205500171 -0.014709536 0.0374996774 0.205351502 -0.0444501042 0.0374999791 0.20550026 0.0219306685 0.0374999866 0.205500171 0.00910937134 0.0374996886 0.2053518 -0.014709536 0.0374996774 0.205351502 -0.014709536 0.0374996774 0.205351502 -0.015917249 0.0374980643 0.205121741 -0.0444501042 0.0374999791 0.20550026 -0.0444501042 0.0374999791 0.20550026 -0.015917249 0.0374980643 0.205121741 -0.016517207 0.0374963731 0.204980001 -0.0167933889 0.0374943018 0.204847351 -0.0444501042 0.0374999791 0.20550026 -0.016517207 0.0374963731 0.204980001 -0.0167933889 0.0374943018 0.204847351 -0.0169025958 0.037492238 0.20473823 -0.0444501042 0.0374999791 0.20550026 -0.0444501042 0.0374999791 0.20550026 -0.0169025958 0.037492238 0.20473823 -0.0169493202 0.0374889895 0.204591945 -0.0371295623 0.0182471406 0.172739059 -0.0402060151 0.00962194428 0.169255242 -0.0444500968 0.0143505959 0.170854762 -0.0167903323 -0.0374944359 0.204850212 -0.0166606233 -0.0374956131 0.204923034 -0.0444500968 -0.0346455313 0.191149443 -0.0444500968 -0.0346455313 0.191149443 -0.0166606233 -0.0374956131 0.204923034 -0.0444500856 -0.0375000611 0.20550032 -0.0444500856 -0.0375000611 0.20550032 -0.014647373 -0.0374997854 0.205356151 0.00904719532 -0.0374997742 0.205355823 0.0219306666 -0.0375000536 0.205500156 0.00904719532 -0.0374997742 0.205355823 0.0102076968 -0.0374984182 0.205148518 0.0107838102 -0.0374970064 0.205020964 0.0219306666 -0.0375000536 0.205500156 0.0102076968 -0.0374984182 0.205148518 -0.00324292015 -0.0374056585 0.202841327 -0.00235725823 -0.037405692 0.202841267 -0.0122948224 -0.0374991558 0.20524092 -0.00324292015 -0.0374056585 0.202841327 -0.00280122133 -0.0373990685 0.202749655 -0.00235725823 -0.037405692 0.202841267 -0.00235725823 -0.037405692 0.202841267 0.00669465121 -0.0374991633 0.205241024 -0.0122948224 -0.0374991558 0.20524092 -0.0122948224 -0.0374991558 0.20524092 0.00669465121 -0.0374991633 0.205241024 0.00904719532 -0.0374997742 0.205355823 -0.014647373 -0.0374997854 0.205356151 -0.0122948224 -0.0374991558 0.20524092 0.00904719532 -0.0374997742 0.205355823 0.0225528236 -0.03108331 0.184522048 0.0273314137 -0.0255038831 0.178008005 0.0309306793 -0.0300000571 0.183000162 0.0273314137 -0.0255038831 0.178008005 0.0314962417 -0.0183183569 0.172778532 0.033232037 -0.0246575847 0.177246585 0.0314962417 -0.0183183569 0.172778532 0.034587305 -0.00969402585 0.169274986 0.0351659693 -0.0176471174 0.172411531 0.034587305 -0.00969402585 0.169274986 0.0359596685 -8.21867288e-05 0.168000147 0.0364691354 -0.00923081394 0.169153988 0.0359596685 -8.21867288e-05 0.168000147 0.0346058533 0.00962194614 0.169255584 0.036930684 -3.88251387e-08 0.168000072 0.0346058533 0.00962194614 0.169255584 0.0315293781 0.0182471294 0.172739163 0.0364691354 0.00923073757 0.169154048 0.0127144307 0.037106026 0.200078815 0.0116153425 0.0373611301 0.20227623 0.0219306685 0.0374999866 0.205500171 0.0219306685 0.0374999866 0.205500171 0.0116153425 0.0373611301 0.20227623 0.0113491509 0.0374889746 0.204592407 0.0113491509 0.0374889746 0.204592407 0.0113024237 0.0374922454 0.204738438 0.0219306685 0.0374999866 0.205500171 0.0219306685 0.0374999866 0.205500171 0.0113024237 0.0374922454 0.204738438 0.0111932224 0.0374942943 0.204847664 -0.0444500856 -0.0375000611 0.20550032 0.00904719532 -0.0374997742 0.205355823 0.0219306666 -0.0375000536 0.205500156 0.0345674008 0.00314996066 0.163250059 0.0345673971 0.00314995856 0.160250202 0.0311788246 0.0158645716 0.16550009 0.0345873535 0.00290344888 0.164471745 0.0311788246 0.0158645716 0.16550009 0.0346350335 0.00220450503 0.165500119 0.0345873535 0.00290344888 0.164471745 0.0345674008 0.00314996066 0.163250059 0.0311788246 0.0158645716 0.16550009 -0.00280008698 0.037499994 0.160250098 -0.00280008093 0.0374999978 0.165500134 0.0108190142 0.0349394903 0.160250202 0.0108190142 0.0349394903 0.160250202 -0.00280008093 0.0374999978 0.165500134 0.011039542 0.0348527431 0.16550003 0.0225783121 0.0276077092 0.160250098 0.011039542 0.0348527431 0.16550003 0.0229252055 0.0272847749 0.16550006 0.0308719613 0.0165058486 0.160250083 0.0229252055 0.0272847749 0.16550006 0.0311788246 0.0158645716 0.16550009 0.0345673971 0.00314995856 0.160250202 0.0308719613 0.0165058486 0.160250083 0.0311788246 0.0158645716 0.16550009 0.0225783121 0.0276077092 0.160250098 0.0108190142 0.0349394903 0.160250202 0.011039542 0.0348527431 0.16550003 0.0229252055 0.0272847749 0.16550006 0.0308719613 0.0165058486 0.160250083 0.0225783121 0.0276077092 0.160250098 -0.00280008093 0.0374999978 0.165500134 -0.00280008698 0.037499994 0.160250098 -0.00339030521 0.0374953412 0.165500432 -0.00339030521 0.0374953412 0.165500432 -0.00280008698 0.037499994 0.160250098 -0.017150728 0.0346454605 0.160250142 -0.0039803735 0.0374813974 0.16550006 -0.017150728 0.0346454605 0.160250142 -0.00457016425 0.0374582037 0.16550006 -0.0039803735 0.0374813974 0.16550006 -0.00339030521 0.0374953412 0.165500432 -0.017150728 0.0346454605 0.160250142 -0.0250800177 0.0301637817 0.165500134 -0.0220590811 0.0321766995 0.165500045 -0.0293166023 0.0265164766 0.160250098 -0.0279218312 0.0278414693 0.165500075 -0.0293166023 0.0265164766 0.160250098 -0.0305230245 0.0252524838 0.165500134 -0.0279218312 0.0278414693 0.165500075 -0.0250800177 0.0301637817 0.165500134 -0.0293166023 0.0265164766 0.160250098 -0.0293166023 0.0265164766 0.160250098 -0.0374455974 0.0143506024 0.160250172 -0.0305230245 0.0252524838 0.165500134 -0.0305230245 0.0252524838 0.165500134 -0.0374455974 0.0143506024 0.160250172 -0.0328586921 0.0224216338 0.165500134 -0.0328586921 0.0224216338 0.165500134 -0.0374455974 0.0143506024 0.160250172 -0.0389186405 0.010084684 0.165500268 -0.0389186405 0.010084684 0.165500268 -0.0374455974 0.0143506024 0.160250172 -0.0403001048 -4.15436325e-08 0.160250202 -0.0401262268 -0.00360710965 0.165499896 -0.0403001048 -4.15436325e-08 0.160250202 -0.0374455974 -0.014350675 0.160250202 -0.036319226 -0.0168142933 0.16550006 -0.0374455974 -0.014350675 0.160250202 -0.0293166023 -0.0265165623 0.160250485 -0.0280090831 -0.0277625713 0.165500134 -0.0293166023 -0.0265165623 0.160250485 -0.0171507262 -0.0346455425 0.160250351 -0.0163122322 -0.0349810831 0.165500134 -0.0171507262 -0.0346455425 0.160250351 -0.00280008535 -0.0375000611 0.160250127 -0.00280009746 -0.0375000909 0.165500283 -0.0163122322 -0.0349810831 0.165500134 -0.00280008535 -0.0375000611 0.160250127 -0.0163122322 -0.0349810831 0.165500134 -0.0280090831 -0.0277625713 0.165500134 -0.0171507262 -0.0346455425 0.160250351 -0.0280090831 -0.0277625713 0.165500134 -0.036319226 -0.0168142933 0.16550006 -0.0293166023 -0.0265165623 0.160250485 -0.036319226 -0.0168142933 0.16550006 -0.0401262268 -0.00360710965 0.165499896 -0.0374455974 -0.014350675 0.160250202 -0.0401262268 -0.00360710965 0.165499896 -0.0389186405 0.010084684 0.165500268 -0.0403001048 -4.15436325e-08 0.160250202 -0.0220590811 0.0321766995 0.165500045 -0.0188576858 0.0338880904 0.165500239 -0.0293166023 0.0265164766 0.160250098 -0.0293166023 0.0265164766 0.160250098 -0.0188576858 0.0338880904 0.165500239 -0.017150728 0.0346454605 0.160250142 -0.017150728 0.0346454605 0.160250142 -0.0188576858 0.0338880904 0.165500239 -0.0155058131 0.0352819227 0.165500149 -0.0142975375 0.0356939435 0.16550006 -0.017150728 0.0346454605 0.160250142 -0.0155058131 0.0352819227 0.165500149 -0.0142975375 0.0356939435 0.16550006 -0.0130759412 0.0360645875 0.165500253 -0.017150728 0.0346454605 0.160250142 -0.017150728 0.0346454605 0.160250142 -0.0130759412 0.0360645875 0.165500253 -0.0118424557 0.0363934822 0.165500283 -0.0106927883 0.0366599597 0.165499881 -0.017150728 0.0346454605 0.160250142 -0.0118424557 0.0363934822 0.165500283 -0.0106927883 0.0366599597 0.165499881 -0.00953534059 0.0368901566 0.165500239 -0.017150728 0.0346454605 0.160250142 -0.017150728 0.0346454605 0.160250142 -0.00953534059 0.0368901566 0.165500239 -0.00837122928 0.0370838605 0.165500134 -0.00710867858 0.0372516438 0.165500328 -0.017150728 0.0346454605 0.160250142 -0.00837122928 0.0370838605 0.165500134 -0.00710867858 0.0372516438 0.165500328 -0.00584117416 0.0373764597 0.165500209 -0.017150728 0.0346454605 0.160250142 -0.017150728 0.0346454605 0.160250142 -0.00584117416 0.0373764597 0.165500209 -0.00457016425 0.0374582037 0.16550006 -0.00280009746 -0.0375000909 0.165500283 -0.00280008535 -0.0375000611 0.160250127 -0.00220985967 -0.037495397 0.165499911 -0.00220985967 -0.037495397 0.165499911 -0.00280008535 -0.0375000611 0.160250127 0.0108190225 -0.0349395834 0.160249934 -0.00161980779 -0.037481498 0.165499821 0.0108190225 -0.0349395834 0.160249934 -0.001030026 -0.0374582894 0.165499985 -0.00161980779 -0.037481498 0.165499821 -0.00220985967 -0.037495397 0.165499911 0.0108190225 -0.0349395834 0.160249934 0.0164589118 -0.0321767852 0.16550009 0.01325751 -0.0338881612 0.165499821 0.0225783102 -0.0276077893 0.160250127 0.0194798429 -0.0301638842 0.165500164 0.0225783102 -0.0276077893 0.160250127 0.0223216526 -0.0278415512 0.165500134 0.0194798429 -0.0301638842 0.165500164 0.0164589118 -0.0321767852 0.16550009 0.0225783102 -0.0276077893 0.160250127 0.0225783102 -0.0276077893 0.160250127 0.030871965 -0.016505925 0.160250008 0.0223216526 -0.0278415512 0.165500134 0.0223216526 -0.0278415512 0.165500134 0.030871965 -0.016505925 0.160250008 0.0249228496 -0.0252525602 0.165500209 0.0249228496 -0.0252525602 0.165500209 0.030871965 -0.016505925 0.160250008 0.027258534 -0.0224217195 0.165500045 0.027258534 -0.0224217195 0.165500045 0.030871965 -0.016505925 0.160250008 0.0279989522 -0.0213932805 0.165500253 0.0279989522 -0.0213932805 0.165500253 0.030871965 -0.016505925 0.160250008 0.028704213 -0.0203404166 0.165500119 0.028704213 -0.0203404166 0.165500119 0.030871965 -0.016505925 0.160250008 0.0293734968 -0.0192643404 0.165500253 0.0293734968 -0.0192643404 0.165500253 0.030871965 -0.016505925 0.160250008 0.030020237 -0.0181405451 0.165499985 0.030020237 -0.0181405451 0.165499985 0.030871965 -0.016505925 0.160250008 0.0306277536 -0.0169950705 0.165500179 0.0306277536 -0.0169950705 0.165500179 0.030871965 -0.016505925 0.160250008 0.0345674008 -0.00315004098 0.160250008 0.0311953183 -0.0158292912 0.165500313 0.0345674008 -0.00315004098 0.160250008 0.0325405039 -0.0125417393 0.165500119 0.0311953183 -0.0158292912 0.165500313 0.0306277536 -0.0169950705 0.165500179 0.0345674008 -0.00315004098 0.160250008 0.0345673971 -0.00315004797 0.163249984 0.0345491208 -0.00335982349 0.165500283 0.0345674008 -0.00315004098 0.160250008 0.0345673971 -0.00315004797 0.163249984 0.034587305 -0.00290418998 0.164470255 0.0345491208 -0.00335982349 0.165500283 0.0345491208 -0.00335982349 0.165500283 0.034587305 -0.00290418998 0.164470255 0.0346350335 -0.00220458326 0.165500343 0.0345491208 -0.00335982349 0.165500283 0.0344275273 -0.00451184437 0.165500447 0.0345674008 -0.00315004098 0.160250008 0.0345674008 -0.00315004098 0.160250008 0.0344275273 -0.00451184437 0.165500447 0.0342704207 -0.00565956673 0.165500388 0.0335686132 -0.0091416575 0.16550009 0.0345674008 -0.00315004098 0.160250008 0.0342704207 -0.00565956673 0.165500388 0.0335686132 -0.0091416575 0.16550009 0.0325405039 -0.0125417393 0.165500119 0.0345674008 -0.00315004098 0.160250008 0.01325751 -0.0338881612 0.165499821 0.00990563631 -0.0352819972 0.165499851 0.0225783102 -0.0276077893 0.160250127 0.0225783102 -0.0276077893 0.160250127 0.00990563631 -0.0352819972 0.165499851 0.0108190225 -0.0349395834 0.160249934 0.0108190225 -0.0349395834 0.160249934 0.00990563631 -0.0352819972 0.165499851 0.0086973682 -0.035694018 0.165500417 0.00747577008 -0.0360646695 0.165499911 0.0108190225 -0.0349395834 0.160249934 0.0086973682 -0.035694018 0.165500417 0.00747577008 -0.0360646695 0.165499911 0.00624227198 -0.0363935567 0.165500402 0.0108190225 -0.0349395834 0.160249934 0.0108190225 -0.0349395834 0.160249934 0.00624227198 -0.0363935567 0.165500402 0.00509263901 -0.0366600417 0.165500119 0.0039351834 -0.0368902571 0.165500015 0.0108190225 -0.0349395834 0.160249934 0.00509263901 -0.0366600417 0.165500119 0.0039351834 -0.0368902571 0.165500015 0.00277105649 -0.0370839164 0.165500253 0.0108190225 -0.0349395834 0.160249934 0.0108190225 -0.0349395834 0.160249934 0.00277105649 -0.0370839164 0.165500253 0.00150850671 -0.0372517295 0.16550006 0.000241002155 -0.0373765491 0.165500179 0.0108190225 -0.0349395834 0.160249934 0.00150850671 -0.0372517295 0.16550006 0.000241002155 -0.0373765491 0.165500179 -0.001030026 -0.0374582894 0.165499985 0.0108190225 -0.0349395834 0.160249934 0.0335686132 -0.0091416575 0.16550009 0.0342704207 -0.00565956673 0.165500388 0.0348295867 -0.00365622574 0.167734295 0.0307806116 -0.0174816214 0.171561003 0.0348295867 -0.00365622574 0.167734295 0.0318705998 -0.0174815953 0.172321856 0.0273314137 -0.0255038831 0.178008005 0.0318705998 -0.0174815953 0.172321856 0.0314962417 -0.0183183569 0.172778532 0.0273314137 -0.0255038831 0.178008005 0.0307806116 -0.0174816214 0.171561003 0.0318705998 -0.0174815953 0.172321856 0.0273314137 -0.0255038831 0.178008005 0.0222815387 -0.0286687128 0.179585204 0.0307806116 -0.0174816214 0.171561003 0.0273314137 -0.0255038831 0.178008005 0.0248346534 -0.0286686718 0.181322441 0.0222815387 -0.0286687128 0.179585204 0.0273314137 -0.0255038831 0.178008005 0.0225528236 -0.03108331 0.184522048 0.0248346534 -0.0286686718 0.181322441 0.0248346534 -0.0286686718 0.181322441 0.0225528236 -0.03108331 0.184522048 0.0153098004 -0.0356289111 0.193548024 0.0222815387 -0.0286687128 0.179585204 0.0153098004 -0.0356289111 0.193548024 0.0107598389 -0.0356289484 0.190454885 0.0164589118 -0.0321767852 0.16550009 0.0107598389 -0.0356289484 0.190454885 0.01325751 -0.0338881612 0.165499821 0.0164589118 -0.0321767852 0.16550009 0.0222815387 -0.0286687128 0.179585204 0.0107598389 -0.0356289484 0.190454885 0.0164589118 -0.0321767852 0.16550009 0.0194798429 -0.0301638842 0.165500164 0.0222815387 -0.0286687128 0.179585204 0.0222815387 -0.0286687128 0.179585204 0.0194798429 -0.0301638842 0.165500164 0.0223216526 -0.0278415512 0.165500134 0.0249228496 -0.0252525602 0.165500209 0.0222815387 -0.0286687128 0.179585204 0.0223216526 -0.0278415512 0.165500134 0.0249228496 -0.0252525602 0.165500209 0.027258534 -0.0224217195 0.165500045 0.0222815387 -0.0286687128 0.179585204 0.0222815387 -0.0286687128 0.179585204 0.027258534 -0.0224217195 0.165500045 0.0307806116 -0.0174816214 0.171561003 0.0307806116 -0.0174816214 0.171561003 0.027258534 -0.0224217195 0.165500045 0.0279989522 -0.0213932805 0.165500253 0.028704213 -0.0203404166 0.165500119 0.0307806116 -0.0174816214 0.171561003 0.0279989522 -0.0213932805 0.165500253 0.028704213 -0.0203404166 0.165500119 0.0293734968 -0.0192643404 0.165500253 0.0307806116 -0.0174816214 0.171561003 0.0307806116 -0.0174816214 0.171561003 0.0293734968 -0.0192643404 0.165500253 0.030020237 -0.0181405451 0.165499985 0.0306277536 -0.0169950705 0.165500179 0.0307806116 -0.0174816214 0.171561003 0.030020237 -0.0181405451 0.165499985 0.0306277536 -0.0169950705 0.165500179 0.0311953183 -0.0158292912 0.165500313 0.0307806116 -0.0174816214 0.171561003 0.0307806116 -0.0174816214 0.171561003 0.0311953183 -0.0158292912 0.165500313 0.0325405039 -0.0125417393 0.165500119 0.0335686132 -0.0091416575 0.16550009 0.0307806116 -0.0174816214 0.171561003 0.0325405039 -0.0125417393 0.165500119 0.0335686132 -0.0091416575 0.16550009 0.0348295867 -0.00365622574 0.167734295 0.0307806116 -0.0174816214 0.171561003 0.0342704207 -0.00565956673 0.165500388 0.0344275273 -0.00451184437 0.165500447 0.0348295867 -0.00365622574 0.167734295 0.0348295867 -0.00365622574 0.167734295 0.0344275273 -0.00451184437 0.165500447 0.0345491208 -0.00335982349 0.165500283 0.0346707851 -0.00119084737 0.166166455 0.0345491208 -0.00335982349 0.165500283 0.0346350335 -0.00220458326 0.165500343 0.0346707851 -0.00119084737 0.166166455 0.0348295867 -0.00365622574 0.167734295 0.0345491208 -0.00335982349 0.165500283 0.0346707851 -0.00119084737 0.166166455 0.0346894749 -1.15217961e-06 0.16640012 0.0348295867 -0.00365622574 0.167734295 0.0348295867 -0.00365622574 0.167734295 0.0346894749 -1.15217961e-06 0.16640012 0.0334659964 0.010685306 0.169023514 0.0352295972 -0.00365622574 0.168046236 0.0334659964 0.010685306 0.169023514 0.0340973809 0.0106852874 0.169484437 0.0346058533 0.00962194614 0.169255584 0.0340973809 0.0106852874 0.169484437 0.0315293781 0.0182471294 0.172739163 0.0346058533 0.00962194614 0.169255584 0.0352295972 -0.00365622574 0.168046236 0.0340973809 0.0106852874 0.169484437 0.0346058533 0.00962194614 0.169255584 0.0355769061 -0.00365621084 0.168160275 0.0352295972 -0.00365622574 0.168046236 0.0346058533 0.00962194614 0.169255584 0.0359596685 -8.21867288e-05 0.168000147 0.0355769061 -0.00365621084 0.168160275 0.0355769061 -0.00365621084 0.168160275 0.0359596685 -8.21867288e-05 0.168000147 0.034587305 -0.00969402585 0.169274986 0.0352295972 -0.00365622574 0.168046236 0.034587305 -0.00969402585 0.169274986 0.0318705998 -0.0174815953 0.172321856 0.0348295867 -0.00365622574 0.167734295 0.0352295972 -0.00365622574 0.168046236 0.0318705998 -0.0174815953 0.172321856 0.0348295867 -0.00365622574 0.167734295 0.0334659964 0.010685306 0.169023514 0.0352295972 -0.00365622574 0.168046236 0.0346894749 -1.15217961e-06 0.16640012 0.0346708521 0.00118822732 0.166167378 0.0334659964 0.010685306 0.169023514 0.0334659964 0.010685306 0.169023514 0.0346708521 0.00118822732 0.166167378 0.0311788246 0.0158645716 0.16550009 0.0270048194 0.0235173907 0.175126716 0.0311788246 0.0158645716 0.16550009 0.0229252055 0.0272847749 0.16550006 0.0166463219 0.0328445733 0.184902236 0.0229252055 0.0272847749 0.16550006 0.011039542 0.0348527431 0.16550003 0.00394855347 0.0372574739 0.196878478 0.011039542 0.0348527431 0.16550003 -0.00280008093 0.0374999978 0.165500134 -0.00280008698 0.0374999344 0.184079647 0.00394855347 0.0372574739 0.196878478 -0.00280008093 0.0374999978 0.165500134 -0.00280008698 0.0374999344 0.184079647 -0.0028000765 0.0373917297 0.202653125 0.00394855347 0.0372574739 0.196878478 0.00394855347 0.0372574739 0.196878478 -0.0028000765 0.0373917297 0.202653125 0.00665367208 0.0374990553 0.205236092 0.00968222227 0.0372574143 0.200780913 0.00665367208 0.0374990553 0.205236092 0.0116153425 0.0373611301 0.20227623 0.0127144307 0.037106026 0.200078815 0.00968222227 0.0372574143 0.200780913 0.0116153425 0.0373611301 0.20227623 0.0127144307 0.037106026 0.200078815 0.0201748591 0.032844536 0.18729952 0.00968222227 0.0372574143 0.200780913 0.0127144307 0.037106026 0.200078815 0.0226381067 0.0310012382 0.184400946 0.0201748591 0.032844536 0.18729952 0.0201748591 0.032844536 0.18729952 0.0226381067 0.0310012382 0.184400946 0.0273858402 0.0254269056 0.177936986 0.0166463219 0.0328445733 0.184902236 0.0273858402 0.0254269056 0.177936986 0.0270048194 0.0235173907 0.175126716 0.0229252055 0.0272847749 0.16550006 0.0166463219 0.0328445733 0.184902236 0.0270048194 0.0235173907 0.175126716 0.0346708521 0.00118822732 0.166167378 0.0346350335 0.00220450503 0.165500119 0.0311788246 0.0158645716 0.16550009 0.00665367208 0.0374990553 0.205236092 0.00910937134 0.0374996886 0.2053518 0.0116153425 0.0373611301 0.20227623 0.0116153425 0.0373611301 0.20227623 0.00910937134 0.0374996886 0.2053518 0.0103170797 0.0374980755 0.205121845 0.0113491509 0.0374889746 0.204592407 0.0103170797 0.0374980755 0.205121845 0.0109170415 0.0374963731 0.204980299 0.0113491509 0.0374889746 0.204592407 0.0109170415 0.0374963731 0.204980299 0.0113024237 0.0374922454 0.204738438 0.0109170415 0.0374963731 0.204980299 0.0111932224 0.0374942943 0.204847664 0.0113024237 0.0374922454 0.204738438 0.0113491509 0.0374889746 0.204592407 0.0116153425 0.0373611301 0.20227623 0.0103170797 0.0374980755 0.205121845 0.0273858402 0.0254269056 0.177936986 0.0315293781 0.0182471294 0.172739163 0.0270048194 0.0235173907 0.175126716 0.0270048194 0.0235173907 0.175126716 0.0315293781 0.0182471294 0.172739163 0.0334659964 0.010685306 0.169023514 0.0311788246 0.0158645716 0.16550009 0.0270048194 0.0235173907 0.175126716 0.0334659964 0.010685306 0.169023514 0.034587305 -0.00969402585 0.169274986 0.0314962417 -0.0183183569 0.172778532 0.0318705998 -0.0174815953 0.172321856 0.0225528236 -0.03108331 0.184522048 0.0126182092 -0.0371320024 0.200258717 0.0153098004 -0.0356289111 0.193548024 0.0153098004 -0.0356289111 0.193548024 0.0126182092 -0.0371320024 0.200258717 0.00669465121 -0.0374991633 0.205241024 -0.00235725823 -0.037405692 0.202841267 0.0153098004 -0.0356289111 0.193548024 0.00669465121 -0.0374991633 0.205241024 -0.00235725823 -0.037405692 0.202841267 -0.00213554245 -0.0374226421 0.202616185 0.0153098004 -0.0356289111 0.193548024 -0.00235725823 -0.037405692 0.202841267 -0.0027687361 -0.0374997444 0.194348127 -0.00213554245 -0.0374226421 0.202616185 -0.00213554245 -0.0374226421 0.202616185 -0.0027687361 -0.0374997444 0.194348127 0.0107598389 -0.0356289484 0.190454885 0.0153098004 -0.0356289111 0.193548024 -0.00213554245 -0.0374226421 0.202616185 0.0107598389 -0.0356289484 0.190454885 0.0110604567 -0.0374956243 0.204923272 0.0107838102 -0.0374970064 0.205020964 0.0112959165 -0.0374925099 0.204747796 0.0111901546 -0.0374944434 0.204850346 0.0110604567 -0.0374956243 0.204923272 0.0112959165 -0.0374925099 0.204747796 0.0107838102 -0.0374970064 0.205020964 0.0102076968 -0.0374984182 0.205148518 0.0112959165 -0.0374925099 0.204747796 0.0112959165 -0.0374925099 0.204747796 0.0102076968 -0.0374984182 0.205148518 0.0126182092 -0.0371320024 0.200258717 0.0126182092 -0.0371320024 0.200258717 0.0102076968 -0.0374984182 0.205148518 0.00904719532 -0.0374997742 0.205355823 0.00669465121 -0.0374991633 0.205241024 0.0126182092 -0.0371320024 0.200258717 0.00904719532 -0.0374997742 0.205355823 -0.0027687361 -0.0374997444 0.194348127 -0.00280008186 -0.0375000052 0.185844079 0.0107598389 -0.0356289484 0.190454885 0.0107598389 -0.0356289484 0.190454885 -0.00280008186 -0.0375000052 0.185844079 0.0086973682 -0.035694018 0.165500417 0.00990563631 -0.0352819972 0.165499851 0.0107598389 -0.0356289484 0.190454885 0.0086973682 -0.035694018 0.165500417 0.00990563631 -0.0352819972 0.165499851 0.01325751 -0.0338881612 0.165499821 0.0107598389 -0.0356289484 0.190454885 -0.00280008186 -0.0375000052 0.185844079 -0.00280008023 -0.0375000648 0.175672144 0.0086973682 -0.035694018 0.165500417 0.0086973682 -0.035694018 0.165500417 -0.00280008023 -0.0375000648 0.175672144 0.00747577008 -0.0360646695 0.165499911 0.00747577008 -0.0360646695 0.165499911 -0.00280008023 -0.0375000648 0.175672144 0.00624227198 -0.0363935567 0.165500402 0.00624227198 -0.0363935567 0.165500402 -0.00280008023 -0.0375000648 0.175672144 0.00509263901 -0.0366600417 0.165500119 0.00509263901 -0.0366600417 0.165500119 -0.00280008023 -0.0375000648 0.175672144 0.0039351834 -0.0368902571 0.165500015 0.0039351834 -0.0368902571 0.165500015 -0.00280008023 -0.0375000648 0.175672144 0.00277105649 -0.0370839164 0.165500253 0.00277105649 -0.0370839164 0.165500253 -0.00280008023 -0.0375000648 0.175672144 0.00150850671 -0.0372517295 0.16550006 0.00150850671 -0.0372517295 0.16550006 -0.00280008023 -0.0375000648 0.175672144 0.000241002155 -0.0373765491 0.165500179 0.000241002155 -0.0373765491 0.165500179 -0.00280008023 -0.0375000648 0.175672144 -0.001030026 -0.0374582894 0.165499985 -0.001030026 -0.0374582894 0.165499985 -0.00280008023 -0.0375000648 0.175672144 -0.00161980779 -0.037481498 0.165499821 -0.00161980779 -0.037481498 0.165499821 -0.00280008023 -0.0375000648 0.175672144 -0.00220985967 -0.037495397 0.165499911 -0.00220985967 -0.037495397 0.165499911 -0.00280008023 -0.0375000648 0.175672144 -0.00280009746 -0.0375000909 0.165500283 0.00665367208 0.0374990553 0.205236092 0.00968222227 0.0372574143 0.200780913 0.00394855347 0.0372574739 0.196878478 0.00394855347 0.0372574739 0.196878478 0.00968222227 0.0372574143 0.200780913 0.0201748591 0.032844536 0.18729952 0.0166463219 0.0328445733 0.184902236 0.0201748591 0.032844536 0.18729952 0.0273858402 0.0254269056 0.177936986 0.0166463219 0.0328445733 0.184902236 0.00394855347 0.0372574739 0.196878478 0.0201748591 0.032844536 0.18729952 0.0166463219 0.0328445733 0.184902236 0.011039542 0.0348527431 0.16550003 0.00394855347 0.0372574739 0.196878478 0.0248346534 -0.0286686718 0.181322441 0.0153098004 -0.0356289111 0.193548024 0.0222815387 -0.0286687128 0.179585204 0.0340973809 0.0106852874 0.169484437 0.0334659964 0.010685306 0.169023514 0.0315293781 0.0182471294 0.172739163 0.0352295972 -0.00365622574 0.168046236 0.0355769061 -0.00365621084 0.168160275 0.034587305 -0.00969402585 0.169274986 0.0219306685 0.0374999866 0.205500171 -0.0444501042 0.0374999791 0.20550026 0.0177306663 0.0359999724 0.216000021 0.0177306663 0.0359999724 0.216000021 -0.0444501042 0.0374999791 0.20550026 -0.0444500968 0.0346454605 0.219850928 0.0129306661 0.0299999677 0.227999896 -0.0444500968 0.0346454605 0.219850928 -0.0444501042 0.0265164748 0.232016623 0.0106292954 0.024657499 0.233753592 -0.0444501042 0.0265164748 0.232016623 -0.0444501117 0.0143506024 0.240146026 0.00869537424 0.0176470205 0.238588363 -0.0444501117 0.0143506024 0.240146026 0.00739220623 0.00923073012 0.241846249 0.00869537424 0.0176470205 0.238588363 0.0106292954 0.024657499 0.233753592 -0.0444501117 0.0143506024 0.240146026 -0.0444501117 0.0143506024 0.240146026 -0.044450108 -4.48634658e-08 0.243000448 0.00739220623 0.00923073012 0.241846249 0.00739220623 0.00923073012 0.241846249 -0.044450108 -4.48634658e-08 0.243000448 0.00693065813 -4.30767422e-08 0.24300012 0.00693065813 -4.30767422e-08 0.24300012 -0.044450108 -4.48634658e-08 0.243000448 0.00739220157 -0.00923081301 0.241846219 0.00739220157 -0.00923081301 0.241846219 -0.044450108 -4.48634658e-08 0.243000448 -0.0444501005 -0.0143506797 0.240145698 0.00869536772 -0.0176471192 0.238588378 -0.0444501005 -0.0143506797 0.240145698 -0.0444501154 -0.026516553 0.232016742 0.0106292935 -0.0246575903 0.233753458 -0.0444501154 -0.026516553 0.232016742 0.0129306633 -0.0300000608 0.228000179 0.0106292935 -0.0246575903 0.233753458 0.00869536772 -0.0176471192 0.238588378 -0.0444501154 -0.026516553 0.232016742 -0.0444501154 -0.026516553 0.232016742 -0.0444500893 -0.0346455313 0.219850883 0.0129306633 -0.0300000608 0.228000179 0.0129306633 -0.0300000608 0.228000179 -0.0444500893 -0.0346455313 0.219850883 0.01773067 -0.0360000692 0.21600008 0.01773067 -0.0360000692 0.21600008 -0.0444500893 -0.0346455313 0.219850883 -0.0444500856 -0.0375000611 0.20550032 0.0219306666 -0.0375000536 0.205500156 0.01773067 -0.0360000692 0.21600008 -0.0444500856 -0.0375000611 0.20550032 0.00869536772 -0.0176471192 0.238588378 0.00739220157 -0.00923081301 0.241846219 -0.0444501005 -0.0143506797 0.240145698 0.0106292954 0.024657499 0.233753592 0.0129306661 0.0299999677 0.227999896 -0.0444501042 0.0265164748 0.232016623 0.0129306661 0.0299999677 0.227999896 0.0177306663 0.0359999724 0.216000021 -0.0444500968 0.0346454605 0.219850928 -0.0027687361 -0.0374997444 0.194348127 -0.00235725823 -0.037405692 0.202841267 -0.00280122133 -0.0373990685 0.202749655 -0.00324292015 -0.0374056585 0.202841327 -0.0027687361 -0.0374997444 0.194348127 -0.00280122133 -0.0373990685 0.202749655 -0.0163122322 -0.0349810831 0.165500134 -0.00280009746 -0.0375000909 0.165500283 -0.00331822992 -0.0374964364 0.172030255 -0.0166040827 -0.0348459408 0.169863015 -0.00331822992 -0.0374964364 0.172030255 -0.0165529139 -0.0348459035 0.174042538 -0.0276838671 -0.0279320907 0.170448408 -0.0165529139 -0.0348459035 0.174042538 -0.0276441593 -0.0279320721 0.172060013 -0.0355938636 -0.0179664418 0.168614581 -0.0276441593 -0.0279320721 0.172060013 -0.0360562131 -0.0179663785 0.171698838 -0.0400403403 -0.00631426461 0.168031663 -0.0360562131 -0.0179663785 0.171698838 -0.037096411 -0.0183183644 0.172778755 -0.0401874706 -0.00969402026 0.169274732 -0.0400403403 -0.00631426461 0.168031663 -0.037096411 -0.0183183644 0.172778755 -0.0401874706 -0.00969402026 0.169274732 -0.041559834 -8.21790527e-05 0.168000355 -0.0400403403 -0.00631426461 0.168031663 -0.0400403403 -0.00631426461 0.168031663 -0.041559834 -8.21790527e-05 0.168000355 -0.0401540212 0.00561369583 0.167926624 -0.0397353731 -0.00631428836 0.166789547 -0.0401540212 0.00561369583 0.167926624 -0.0398522429 0.0056137098 0.166737393 -0.0397380739 -0.00631428929 0.166473746 -0.0398522429 0.0056137098 0.166737393 -0.0398539342 0.00561372377 0.166434094 -0.039751403 -0.00631429907 0.165997535 -0.0398539342 0.00561372377 0.166434094 -0.039865762 0.00561371911 0.165977076 -0.0401262268 -0.00360710965 0.165499896 -0.039865762 0.00561371911 0.165977076 -0.0389186405 0.010084684 0.165500268 -0.0401262268 -0.00360710965 0.165499896 -0.039751403 -0.00631429907 0.165997535 -0.039865762 0.00561371911 0.165977076 -0.0401262268 -0.00360710965 0.165499896 -0.036319226 -0.0168142933 0.16550006 -0.039751403 -0.00631429907 0.165997535 -0.039751403 -0.00631429907 0.165997535 -0.036319226 -0.0168142933 0.16550006 -0.0356670208 -0.0179664753 0.166700259 -0.0397380739 -0.00631428929 0.166473746 -0.0356670208 -0.0179664753 0.166700259 -0.035619624 -0.0179664548 0.167850032 -0.0397353731 -0.00631428836 0.166789547 -0.035619624 -0.0179664548 0.167850032 -0.0355938636 -0.0179664418 0.168614581 -0.0400403403 -0.00631426461 0.168031663 -0.0355938636 -0.0179664418 0.168614581 -0.0360562131 -0.0179663785 0.171698838 -0.0400403403 -0.00631426461 0.168031663 -0.0397353731 -0.00631428836 0.166789547 -0.0355938636 -0.0179664418 0.168614581 -0.0400403403 -0.00631426461 0.168031663 -0.0401540212 0.00561369583 0.167926624 -0.0397353731 -0.00631428836 0.166789547 -0.00280008186 -0.0375000052 0.185844079 -0.00331354002 -0.0374963693 0.1824525 -0.00280008023 -0.0375000648 0.175672144 -0.00280008186 -0.0375000052 0.185844079 -0.0027687361 -0.0374997444 0.194348127 -0.00331354002 -0.0374963693 0.1824525 -0.00331354002 -0.0374963693 0.1824525 -0.0027687361 -0.0374997444 0.194348127 -0.00572622707 -0.0374962613 0.199547708 -0.0180695485 -0.034845762 0.18822062 -0.00572622707 -0.0374962613 0.199547708 -0.0182183813 -0.0371320061 0.20025897 -0.0281529967 -0.03108331 0.184521824 -0.0180695485 -0.034845762 0.18822062 -0.0182183813 -0.0371320061 0.20025897 -0.0281529967 -0.03108331 0.184521824 -0.0285152923 -0.0279319808 0.178629637 -0.0180695485 -0.034845762 0.18822062 -0.0281529967 -0.03108331 0.184521824 -0.0329315849 -0.0255038813 0.178008139 -0.0285152923 -0.0279319808 0.178629637 -0.0285152923 -0.0279319808 0.178629637 -0.0329315849 -0.0255038813 0.178008139 -0.0360562131 -0.0179663785 0.171698838 -0.0276441593 -0.0279320721 0.172060013 -0.0285152923 -0.0279319808 0.178629637 -0.0360562131 -0.0179663785 0.171698838 -0.0276441593 -0.0279320721 0.172060013 -0.0165230501 -0.03484587 0.176826194 -0.0285152923 -0.0279319808 0.178629637 -0.0276441593 -0.0279320721 0.172060013 -0.0165529139 -0.0348459035 0.174042538 -0.0165230501 -0.03484587 0.176826194 -0.0165230501 -0.03484587 0.176826194 -0.0165529139 -0.0348459035 0.174042538 -0.00331351976 -0.0374964029 0.178285733 -0.00331354002 -0.0374963693 0.1824525 -0.00331351976 -0.0374964029 0.178285733 -0.00280008023 -0.0375000648 0.175672144 -0.00331354002 -0.0374963693 0.1824525 -0.0165230501 -0.03484587 0.176826194 -0.00331351976 -0.0374964029 0.178285733 -0.00331354002 -0.0374963693 0.1824525 -0.0180695485 -0.034845762 0.18822062 -0.0165230501 -0.03484587 0.176826194 -0.00331354002 -0.0374963693 0.1824525 -0.00572622707 -0.0374962613 0.199547708 -0.0180695485 -0.034845762 0.18822062 -0.0027687361 -0.0374997444 0.194348127 -0.00324292015 -0.0374056585 0.202841327 -0.00572622707 -0.0374962613 0.199547708 -0.00572622707 -0.0374962613 0.199547708 -0.00324292015 -0.0374056585 0.202841327 -0.0122948224 -0.0374991558 0.20524092 -0.0166606233 -0.0374956131 0.204923034 -0.0122948224 -0.0374991558 0.20524092 -0.0158078689 -0.037498422 0.205148324 -0.0163839739 -0.0374969915 0.205020815 -0.0166606233 -0.0374956131 0.204923034 -0.0158078689 -0.037498422 0.205148324 -0.0122948224 -0.0374991558 0.20524092 -0.014647373 -0.0374997854 0.205356151 -0.0158078689 -0.037498422 0.205148324 -0.0167903323 -0.0374944359 0.204850212 -0.0168960933 -0.0374925099 0.204747811 -0.0166606233 -0.0374956131 0.204923034 -0.0166606233 -0.0374956131 0.204923034 -0.0168960933 -0.0374925099 0.204747811 -0.0182183813 -0.0371320061 0.20025897 -0.00572622707 -0.0374962613 0.199547708 -0.0166606233 -0.0374956131 0.204923034 -0.0182183813 -0.0371320061 0.20025897 -0.00572622707 -0.0374962613 0.199547708 -0.0122948224 -0.0374991558 0.20524092 -0.0166606233 -0.0374956131 0.204923034 -0.0329315849 -0.0255038813 0.178008139 -0.037096411 -0.0183183644 0.172778755 -0.0360562131 -0.0179663785 0.171698838 -0.041559834 -8.21790527e-05 0.168000355 -0.0402060151 0.00962194428 0.169255242 -0.0401540212 0.00561369583 0.167926624 -0.0401540212 0.00561369583 0.167926624 -0.0402060151 0.00962194428 0.169255242 -0.0371295623 0.0182471406 0.172739059 -0.036426913 0.0172482319 0.171357796 -0.0371295623 0.0182471406 0.172739059 -0.0329860076 0.0254269 0.177937046 -0.0291498154 0.0273156799 0.17804651 -0.0329860076 0.0254269 0.177937046 -0.0282382742 0.0310012363 0.18440105 -0.0189320575 0.0344622545 0.187429011 -0.0282382742 0.0310012363 0.18440105 -0.0183145981 0.0371060297 0.200078964 -0.00673439028 0.0374650024 0.198622689 -0.0183145981 0.0371060297 0.200078964 -0.0122538498 0.0374990404 0.20523639 -0.0028000765 0.0373917297 0.202653125 -0.00673439028 0.0374650024 0.198622689 -0.0122538498 0.0374990404 0.20523639 -0.0028000765 0.0373917297 0.202653125 -0.00280008698 0.0374999344 0.184079647 -0.00673439028 0.0374650024 0.198622689 -0.00673439028 0.0374650024 0.198622689 -0.00280008698 0.0374999344 0.184079647 -0.00439345744 0.037465129 0.181992993 -0.0174442008 0.03446237 0.176432505 -0.00439345744 0.037465129 0.181992993 -0.0174756479 0.0344624035 0.173746049 -0.0283559132 0.0273157898 0.170229986 -0.0174756479 0.0344624035 0.173746049 -0.0284229349 0.0273158159 0.167915776 -0.0360511914 0.0172483232 0.166634634 -0.0284229349 0.0273158159 0.167915776 -0.0328586921 0.0224216338 0.165500134 -0.0389186405 0.010084684 0.165500268 -0.0360511914 0.0172483232 0.166634634 -0.0328586921 0.0224216338 0.165500134 -0.0389186405 0.010084684 0.165500268 -0.039865762 0.00561371911 0.165977076 -0.0360511914 0.0172483232 0.166634634 -0.0360511914 0.0172483232 0.166634634 -0.039865762 0.00561371911 0.165977076 -0.0360059515 0.0172482952 0.16772221 -0.0283559132 0.0273157898 0.170229986 -0.0360059515 0.0172482952 0.16772221 -0.0283164717 0.0273157731 0.171770528 -0.0174442008 0.03446237 0.176432505 -0.0283164717 0.0273157731 0.171770528 -0.0189320575 0.0344622545 0.187429011 -0.00673439028 0.0374650024 0.198622689 -0.0189320575 0.0344622545 0.187429011 -0.0183145981 0.0371060297 0.200078964 -0.00673439028 0.0374650024 0.198622689 -0.0174442008 0.03446237 0.176432505 -0.0189320575 0.0344622545 0.187429011 -0.00673439028 0.0374650024 0.198622689 -0.00439345744 0.037465129 0.181992993 -0.0174442008 0.03446237 0.176432505 -0.0183145981 0.0371060297 0.200078964 -0.0172155146 0.037361145 0.202276245 -0.0122538498 0.0374990404 0.20523639 -0.0122538498 0.0374990404 0.20523639 -0.0172155146 0.037361145 0.202276245 -0.014709536 0.0374996774 0.205351502 -0.014709536 0.0374996774 0.205351502 -0.0172155146 0.037361145 0.202276245 -0.015917249 0.0374980643 0.205121741 -0.015917249 0.0374980643 0.205121741 -0.0172155146 0.037361145 0.202276245 -0.0169493202 0.0374889895 0.204591945 -0.0169025958 0.037492238 0.20473823 -0.016517207 0.0374963731 0.204980001 -0.0169493202 0.0374889895 0.204591945 -0.0169025958 0.037492238 0.20473823 -0.0167933889 0.0374943018 0.204847351 -0.016517207 0.0374963731 0.204980001 -0.016517207 0.0374963731 0.204980001 -0.015917249 0.0374980643 0.205121741 -0.0169493202 0.0374889895 0.204591945 -0.00280008093 0.0374999978 0.165500134 -0.00440504868 0.0374651924 0.171853215 -0.00280008698 0.0374999344 0.184079647 -0.00280008093 0.0374999978 0.165500134 -0.00339030521 0.0374953412 0.165500432 -0.00440504868 0.0374651924 0.171853215 -0.00440504868 0.0374651924 0.171853215 -0.00339030521 0.0374953412 0.165500432 -0.0039803735 0.0374813974 0.16550006 -0.00457016425 0.0374582037 0.16550006 -0.00440504868 0.0374651924 0.171853215 -0.0039803735 0.0374813974 0.16550006 -0.00457016425 0.0374582037 0.16550006 -0.00584117416 0.0373764597 0.165500209 -0.00440504868 0.0374651924 0.171853215 -0.00440504868 0.0374651924 0.171853215 -0.00584117416 0.0373764597 0.165500209 -0.00710867858 0.0372516438 0.165500328 -0.00837122928 0.0370838605 0.165500134 -0.00440504868 0.0374651924 0.171853215 -0.00710867858 0.0372516438 0.165500328 -0.00837122928 0.0370838605 0.165500134 -0.00953534059 0.0368901566 0.165500239 -0.00440504868 0.0374651924 0.171853215 -0.00440504868 0.0374651924 0.171853215 -0.00953534059 0.0368901566 0.165500239 -0.0106927883 0.0366599597 0.165499881 -0.0118424557 0.0363934822 0.165500283 -0.00440504868 0.0374651924 0.171853215 -0.0106927883 0.0366599597 0.165499881 -0.0118424557 0.0363934822 0.165500283 -0.0175293125 0.034462437 0.16971162 -0.00440504868 0.0374651924 0.171853215 -0.0118424557 0.0363934822 0.165500283 -0.0130759412 0.0360645875 0.165500253 -0.0175293125 0.034462437 0.16971162 -0.0175293125 0.034462437 0.16971162 -0.0130759412 0.0360645875 0.165500253 -0.0142975375 0.0356939435 0.16550006 -0.0155058131 0.0352819227 0.165500149 -0.0175293125 0.034462437 0.16971162 -0.0142975375 0.0356939435 0.16550006 -0.0155058131 0.0352819227 0.165500149 -0.0188576858 0.0338880904 0.165500239 -0.0175293125 0.034462437 0.16971162 -0.0175293125 0.034462437 0.16971162 -0.0188576858 0.0338880904 0.165500239 -0.0220590811 0.0321766995 0.165500045 -0.0284229349 0.0273158159 0.167915776 -0.0220590811 0.0321766995 0.165500045 -0.0250800177 0.0301637817 0.165500134 -0.0279218312 0.0278414693 0.165500075 -0.0284229349 0.0273158159 0.167915776 -0.0250800177 0.0301637817 0.165500134 -0.0279218312 0.0278414693 0.165500075 -0.0305230245 0.0252524838 0.165500134 -0.0284229349 0.0273158159 0.167915776 -0.0284229349 0.0273158159 0.167915776 -0.0305230245 0.0252524838 0.165500134 -0.0328586921 0.0224216338 0.165500134 -0.036319226 -0.0168142933 0.16550006 -0.0280090831 -0.0277625713 0.165500134 -0.0356670208 -0.0179664753 0.166700259 -0.0356670208 -0.0179664753 0.166700259 -0.0280090831 -0.0277625713 0.165500134 -0.0277512074 -0.0279321279 0.168027326 -0.035619624 -0.0179664548 0.167850032 -0.0277512074 -0.0279321279 0.168027326 -0.0276838671 -0.0279320907 0.170448408 -0.0355938636 -0.0179664418 0.168614581 -0.0276838671 -0.0279320907 0.170448408 -0.0276441593 -0.0279320721 0.172060013 -0.0355938636 -0.0179664418 0.168614581 -0.035619624 -0.0179664548 0.167850032 -0.0276838671 -0.0279320907 0.170448408 -0.0280090831 -0.0277625713 0.165500134 -0.0163122322 -0.0349810831 0.165500134 -0.0277512074 -0.0279321279 0.168027326 -0.0277512074 -0.0279321279 0.168027326 -0.0163122322 -0.0349810831 0.165500134 -0.0166040827 -0.0348459408 0.169863015 -0.0276838671 -0.0279320907 0.170448408 -0.0166040827 -0.0348459408 0.169863015 -0.0165529139 -0.0348459035 0.174042538 -0.0276838671 -0.0279320907 0.170448408 -0.0277512074 -0.0279321279 0.168027326 -0.0166040827 -0.0348459408 0.169863015 -0.00331822992 -0.0374964364 0.172030255 -0.0166040827 -0.0348459408 0.169863015 -0.0163122322 -0.0349810831 0.165500134 -0.0356670208 -0.0179664753 0.166700259 -0.0277512074 -0.0279321279 0.168027326 -0.035619624 -0.0179664548 0.167850032 -0.0398539342 0.00561372377 0.166434094 -0.039751403 -0.00631429907 0.165997535 -0.0397380739 -0.00631428929 0.166473746 -0.0397380739 -0.00631428929 0.166473746 -0.039751403 -0.00631429907 0.165997535 -0.0356670208 -0.0179664753 0.166700259 -0.0220590811 0.0321766995 0.165500045 -0.0284229349 0.0273158159 0.167915776 -0.0175293125 0.034462437 0.16971162 -0.0175293125 0.034462437 0.16971162 -0.0284229349 0.0273158159 0.167915776 -0.0174756479 0.0344624035 0.173746049 -0.00439613964 0.0374651626 0.1779394 -0.0174756479 0.0344624035 0.173746049 -0.00439345744 0.037465129 0.181992993 -0.00280008698 0.0374999344 0.184079647 -0.00439613964 0.0374651626 0.1779394 -0.00439345744 0.037465129 0.181992993 -0.00280008698 0.0374999344 0.184079647 -0.00440504868 0.0374651924 0.171853215 -0.00439613964 0.0374651626 0.1779394 -0.00439613964 0.0374651626 0.1779394 -0.00440504868 0.0374651924 0.171853215 -0.0175293125 0.034462437 0.16971162 -0.0174756479 0.0344624035 0.173746049 -0.00439613964 0.0374651626 0.1779394 -0.0175293125 0.034462437 0.16971162 -0.0360059515 0.0172482952 0.16772221 -0.0283559132 0.0273157898 0.170229986 -0.0360511914 0.0172483232 0.166634634 -0.0360511914 0.0172483232 0.166634634 -0.0283559132 0.0273157898 0.170229986 -0.0284229349 0.0273158159 0.167915776 -0.00280008023 -0.0375000648 0.175672144 -0.00331351976 -0.0374964029 0.178285733 -0.00331822992 -0.0374964364 0.172030255 -0.00280009746 -0.0375000909 0.165500283 -0.00280008023 -0.0375000648 0.175672144 -0.00331822992 -0.0374964364 0.172030255 -0.0398522429 0.0056137098 0.166737393 -0.0397380739 -0.00631428929 0.166473746 -0.0397353731 -0.00631428836 0.166789547 -0.0397353731 -0.00631428836 0.166789547 -0.0397380739 -0.00631428929 0.166473746 -0.035619624 -0.0179664548 0.167850032 -0.039865762 0.00561371911 0.165977076 -0.0398539342 0.00561372377 0.166434094 -0.0360059515 0.0172482952 0.16772221 -0.0360059515 0.0172482952 0.16772221 -0.0398539342 0.00561372377 0.166434094 -0.0359816775 0.0172482859 0.168445081 -0.0283164717 0.0273157731 0.171770528 -0.0359816775 0.0172482859 0.168445081 -0.0291498154 0.0273156799 0.17804651 -0.0189320575 0.0344622545 0.187429011 -0.0291498154 0.0273156799 0.17804651 -0.0282382742 0.0310012363 0.18440105 -0.0189320575 0.0344622545 0.187429011 -0.0283164717 0.0273157731 0.171770528 -0.0291498154 0.0273156799 0.17804651 -0.0283164717 0.0273157731 0.171770528 -0.0174442008 0.03446237 0.176432505 -0.0283559132 0.0273157898 0.170229986 -0.0283559132 0.0273157898 0.170229986 -0.0174442008 0.03446237 0.176432505 -0.0174756479 0.0344624035 0.173746049 -0.00331822992 -0.0374964364 0.172030255 -0.00331351976 -0.0374964029 0.178285733 -0.0165529139 -0.0348459035 0.174042538 -0.0180695485 -0.034845762 0.18822062 -0.0285152923 -0.0279319808 0.178629637 -0.0165230501 -0.03484587 0.176826194 -0.0401540212 0.00561369583 0.167926624 -0.036426913 0.0172482319 0.171357796 -0.0398522429 0.0056137098 0.166737393 -0.0401540212 0.00561369583 0.167926624 -0.0371295623 0.0182471406 0.172739059 -0.036426913 0.0172482319 0.171357796 -0.0398522429 0.0056137098 0.166737393 -0.036426913 0.0172482319 0.171357796 -0.0359816775 0.0172482859 0.168445081 -0.0398539342 0.00561372377 0.166434094 -0.0398522429 0.0056137098 0.166737393 -0.0359816775 0.0172482859 0.168445081 -0.0359816775 0.0172482859 0.168445081 -0.036426913 0.0172482319 0.171357796 -0.0291498154 0.0273156799 0.17804651 -0.0291498154 0.0273156799 0.17804651 -0.036426913 0.0172482319 0.171357796 -0.0329860076 0.0254269 0.177937046 -0.0359816775 0.0172482859 0.168445081 -0.0283164717 0.0273157731 0.171770528 -0.0360059515 0.0172482952 0.16772221 0.0345674008 -0.00315004098 0.160250008 0.0345673971 0.00314995856 0.160250202 0.0345673971 -0.00315004797 0.163249984 0.0345673971 0.00314995856 0.160250202 0.0345674008 0.00314996066 0.163250059 0.0345673971 -0.00315004797 0.163249984 0.0345674008 0.00314996066 0.163250059 0.0345873535 0.00290344888 0.164471745 0.0345673971 -0.00315004797 0.163249984 0.0345873535 0.00290344888 0.164471745 0.0346350335 0.00220450503 0.165500119 0.0345673971 -0.00315004797 0.163249984 0.0346350335 0.00220450503 0.165500119 0.0346708521 0.00118822732 0.166167378 0.0345673971 -0.00315004797 0.163249984 0.0346708521 0.00118822732 0.166167378 0.0346894749 -1.15217961e-06 0.16640012 0.0345673971 -0.00315004797 0.163249984 0.0346894749 -1.15217961e-06 0.16640012 0.0346707851 -0.00119084737 0.166166455 0.0345673971 -0.00315004797 0.163249984 0.0346707851 -0.00119084737 0.166166455 0.0346350335 -0.00220458326 0.165500343 0.0345673971 -0.00315004797 0.163249984 0.0346350335 -0.00220458326 0.165500343 0.034587305 -0.00290418998 0.164470255 0.0345673971 -0.00315004797 0.163249984 </float_array>
          <technique_common>
            <accessor count="1275" offset="0" source="#mesh_0-positions-array" stride="3">
              <param name="X" type="float" />
              <param name="Y" type="float" />
              <param name="Z" type="float" />
            </accessor>
          </technique_common>
        </source>
        <vertices id="mesh_0-vertices">
          <input semantic="POSITION" source="#mesh_0-positions" />
        </vertices>
        <polylist count="425" material="defaultMaterial">
          <input offset="0" semantic="VERTEX" source="#mesh_0-vertices" />
          <vcount>3 3 3 3 3 3 3 3 3 3 3 3 3 3 3 3 3 3 3 3 3 3 3 3 3 3 3 3 3 3 3 3 3 3 3 3 3 3 3 3 3 3 3 3 3 3 3 3 3 3 3 3 3 3 3 3 3 3 3 3 3 3 3 3 3 3 3 3 3 3 3 3 3 3 3 3 3 3 3 3 3 3 3 3 3 3 3 3 3 3 3 3 3 3 3 3 3 3 3 3 3 3 3 3 3 3 3 3 3 3 3 3 3 3 3 3 3 3 3 3 3 3 3 3 3 3 3 3 3 3 3 3 3 3 3 3 3 3 3 3 3 3 3 3 3 3 3 3 3 3 3 3 3 3 3 3 3 3 3 3 3 3 3 3 3 3 3 3 3 3 3 3 3 3 3 3 3 3 3 3 3 3 3 3 3 3 3 3 3 3 3 3 3 3 3 3 3 3 3 3 3 3 3 3 3 3 3 3 3 3 3 3 3 3 3 3 3 3 3 3 3 3 3 3 3 3 3 3 3 3 3 3 3 3 3 3 3 3 3 3 3 3 3 3 3 3 3 3 3 3 3 3 3 3 3 3 3 3 3 3 3 3 3 3 3 3 3 3 3 3 3 3 3 3 3 3 3 3 3 3 3 3 3 3 3 3 3 3 3 3 3 3 3 3 3 3 3 3 3 3 3 3 3 3 3 3 3 3 3 3 3 3 3 3 3 3 3 3 3 3 3 3 3 3 3 3 3 3 3 3 3 3 3 3 3 3 3 3 3 3 3 3 3 3 3 3 3 3 3 3 3 3 3 3 3 3 3 3 3 3 3 3 3 3 3 3 3 3 3 3 3 3 3 3 3 3 3 3 3 3 3 3 3 3 3 3 3 3 3 3 3 3 3 3 3 3 3 3 3 3 3 3 3 3 3 3 3 3 3 3 3 3 3 3 3 3 3 3 3 3 3 3 3 3 3 </vcount>
          <p>0 1 2 3 4 5 6 7 8 9 10 11 12 13 14 15 16 17 18 19 20 21 22 23 24 25 26 27 28 29 30 31 32 33 34 35 36 37 38 39 40 41 42 43 44 45 46 47 48 49 50 51 52 53 54 55 56 57 58 59 60 61 62 63 64 65 66 67 68 69 70 71 72 73 74 75 76 77 78 79 80 81 82 83 84 85 86 87 88 89 90 91 92 93 94 95 96 97 98 99 100 101 102 103 104 105 106 107 108 109 110 111 112 113 114 115 116 117 118 119 120 121 122 123 124 125 126 127 128 129 130 131 132 133 134 135 136 137 138 139 140 141 142 143 144 145 146 147 148 149 150 151 152 153 154 155 156 157 158 159 160 161 162 163 164 165 166 167 168 169 170 171 172 173 174 175 176 177 178 179 180 181 182 183 184 185 186 187 188 189 190 191 192 193 194 195 196 197 198 199 200 201 202 203 204 205 206 207 208 209 210 211 212 213 214 215 216 217 218 219 220 221 222 223 224 225 226 227 228 229 230 231 232 233 234 235 236 237 238 239 240 241 242 243 244 245 246 247 248 249 250 251 252 253 254 255 256 257 258 259 260 261 262 263 264 265 266 267 268 269 270 271 272 273 274 275 276 277 278 279 280 281 282 283 284 285 286 287 288 289 290 291 292 293 294 295 296 297 298 299 300 301 302 303 304 305 306 307 308 309 310 311 312 313 314 315 316 317 318 319 320 321 322 323 324 325 326 327 328 329 330 331 332 333 334 335 336 337 338 339 340 341 342 343 344 345 346 347 348 349 350 351 352 353 354 355 356 357 358 359 360 361 362 363 364 365 366 367 368 369 370 371 372 373 374 375 376 377 378 379 380 381 382 383 384 385 386 387 388 389 390 391 392 393 394 395 396 397 398 399 400 401 402 403 404 405 406 407 408 409 410 411 412 413 414 415 416 417 418 419 420 421 422 423 424 425 426 427 428 429 430 431 432 433 434 435 436 437 438 439 440 441 442 443 444 445 446 447 448 449 450 451 452 453 454 455 456 457 458 459 460 461 462 463 464 465 466 467 468 469 470 471 472 473 474 475 476 477 478 479 480 481 482 483 484 485 486 487 488 489 490 491 492 493 494 495 496 497 498 499 500 501 502 503 504 505 506 507 508 509 510 511 512 513 514 515 516 517 518 519 520 521 522 523 524 525 526 527 528 529 530 531 532 533 534 535 536 537 538 539 540 541 542 543 544 545 546 547 548 549 550 551 552 553 554 555 556 557 558 559 560 561 562 563 564 565 566 567 568 569 570 571 572 573 574 575 576 577 578 579 580 581 582 583 584 585 586 587 588 589 590 591 592 593 594 595 596 597 598 599 600 601 602 603 604 605 606 607 608 609 610 611 612 613 614 615 616 617 618 619 620 621 622 623 624 625 626 627 628 629 630 631 632 633 634 635 636 637 638 639 640 641 642 643 644 645 646 647 648 649 650 651 652 653 654 655 656 657 658 659 660 661 662 663 664 665 666 667 668 669 670 671 672 673 674 675 676 677 678 679 680 681 682 683 684 685 686 687 688 689 690 691 692 693 694 695 696 697 698 699 700 701 702 703 704 705 706 707 708 709 710 711 712 713 714 715 716 717 718 719 720 721 722 723 724 725 726 727 728 729 730 731 732 733 734 735 736 737 738 739 740 741 742 743 744 745 746 747 748 749 750 751 752 753 754 755 756 757 758 759 760 761 762 763 764 765 766 767 768 769 770 771 772 773 774 775 776 777 778 779 780 781 782 783 784 785 786 787 788 789 790 791 792 793 794 795 796 797 798 799 800 801 802 803 804 805 806 807 808 809 810 811 812 813 814 815 816 817 818 819 820 821 822 823 824 825 826 827 828 829 830 831 832 833 834 835 836 837 838 839 840 841 842 843 844 845 846 847 848 849 850 851 852 853 854 855 856 857 858 859 860 861 862 863 864 865 866 867 868 869 870 871 872 873 874 875 876 877 878 879 880 881 882 883 884 885 886 887 888 889 890 891 892 893 894 895 896 897 898 899 900 901 902 903 904 905 906 907 908 909 910 911 912 913 914 915 916 917 918 919 920 921 922 923 924 925 926 927 928 929 930 931 932 933 934 935 936 937 938 939 940 941 942 943 944 945 946 947 948 949 950 951 952 953 954 955 956 957 958 959 960 961 962 963 964 965 966 967 968 969 970 971 972 973 974 975 976 977 978 979 980 981 982 983 984 985 986 987 988 989 990 991 992 993 994 995 996 997 998 999 1000 1001 1002 1003 1004 1005 1006 1007 1008 1009 1010 1011 1012 1013 1014 1015 1016 1017 1018 1019 1020 1021 1022 1023 1024 1025 1026 1027 1028 1029 1030 1031 1032 1033 1034 1035 1036 1037 1038 1039 1040 1041 1042 1043 1044 1045 1046 1047 1048 1049 1050 1051 1052 1053 1054 1055 1056 1057 1058 1059 1060 1061 1062 1063 1064 1065 1066 1067 1068 1069 1070 1071 1072 1073 1074 1075 1076 1077 1078 1079 1080 1081 1082 1083 1084 1085 1086 1087 1088 1089 1090 1091 1092 1093 1094 1095 1096 1097 1098 1099 1100 1101 1102 1103 1104 1105 1106 1107 1108 1109 1110 1111 1112 1113 1114 1115 1116 1117 1118 1119 1120 1121 1122 1123 1124 1125 1126 1127 1128 1129 1130 1131 1132 1133 1134 1135 1136 1137 1138 1139 1140 1141 1142 1143 1144 1145 1146 1147 1148 1149 1150 1151 1152 1153 1154 1155 1156 1157 1158 1159 1160 1161 1162 1163 1164 1165 1166 1167 1168 1169 1170 1171 1172 1173 1174 1175 1176 1177 1178 1179 1180 1181 1182 1183 1184 1185 1186 1187 1188 1189 1190 1191 1192 1193 1194 1195 1196 1197 1198 1199 1200 1201 1202 1203 1204 1205 1206 1207 1208 1209 1210 1211 1212 1213 1214 1215 1216 1217 1218 1219 1220 1221 1222 1223 1224 1225 1226 1227 1228 1229 1230 1231 1232 1233 1234 1235 1236 1237 1238 1239 1240 1241 1242 1243 1244 1245 1246 1247 1248 1249 1250 1251 1252 1253 1254 1255 1256 1257 1258 1259 1260 1261 1262 1263 1264 1265 1266 1267 1268 1269 1270 1271 1272 1273 1274 </p>
        </polylist>
      </mesh>
    </geometry>
  </library_geometries>
  <library_controllers>
  </library_controllers>
  <library_visual_scenes>
    <visual_scene id="Scene" name="Scene">
      <node id="node" name="" type="NODE">
        <matrix sid="matrix">1 0 0 0 0 1 0 0 0 0 1 0 0 0 0 1</matrix>
        <instance_geometry url="#mesh_0">
          <bind_material>
            <technique_common>
              <instance_material symbol="defaultMaterial" target="#material_0">
              </instance_material>
            </technique_common>
          </bind_material>
        </instance_geometry>
      </node>
    </visual_scene>
  </library_visual_scenes>
  <scene>
    <instance_visual_scene url="#Scene" />
  </scene>
</COLLADA>
