<?xml version="1.0" encoding="UTF-8" standalone="no" ?>
<COLLADA xmlns="http://www.collada.org/2005/11/COLLADASchema" version="1.4.1">
  <asset>
    <contributor>
      <author>Assimp</author>
      <authoring_tool>Assimp Exporter</authoring_tool>
    </contributor>
    <created>2025-11-12T11:09:31</created>
    <modified>2025-11-12T11:09:31</modified>
    <unit name="meter" meter="1" />
    <up_axis>Y_UP</up_axis>
  </asset>
  <library_images>
  </library_images>
  <library_effects>
    <effect id="material_0-fx" name="">
      <profile_COMMON>
        <technique sid="standard">
          <phong>
            <emission>
              <color sid="emission">0   0   0   4.28026616e-41</color>
            </emission>
            <ambient>
              <color sid="ambient">0.870588243   0.870588243   0.870588243   4.28026616e-41</color>
            </ambient>
            <diffuse>
              <color sid="diffuse">0.870588243   0.870588243   0.870588243   4.28026616e-41</color>
            </diffuse>
            <specular>
              <color sid="specular">0.400000006   0.400000006   0.400000006   0</color>
            </specular>
          </phong>
        </technique>
      </profile_COMMON>
    </effect>
  </library_effects>
  <library_materials>
    <material id="material_0" name="">
      <instance_effect url="#material_0-fx"/>
    </material>
  </library_materials>
  <library_geometries>
    <geometry id="mesh_0" name="" >
      <mesh>
        <source id="mesh_0-positions" name="mesh_0-positions">
          <float_array id="mesh_0-positions-array" count="2304"> -0.040793553 -0.0104105398 0.141357094 -0.0409692377 -0.010455274 -0.141457066 -0.0379665494 -0.0182475839 0.141357005 -0.0409692377 -0.010455274 -0.141457066 -0.038142249 -0.0182923321 -0.141457111 -0.0379665494 -0.0182475839 0.141357005 -0.0379665494 -0.0182475839 0.141357005 -0.038142249 -0.0182923321 -0.141457111 -0.0336649716 -0.0253825393 0.141357005 -0.038142249 -0.0182923321 -0.141457111 -0.0338406414 -0.0254272781 -0.141457081 -0.0336649716 -0.0253825393 0.141357005 -0.0336649716 -0.0253825393 0.141357005 -0.0338406414 -0.0254272781 -0.141457081 -0.0280540437 -0.0315411836 0.141357005 -0.0338406414 -0.0254272781 -0.141457081 -0.0282297451 -0.0315859318 -0.141457051 -0.0280540437 -0.0315411836 0.141357005 -0.0280540437 -0.0315411836 0.141357005 -0.0282297451 -0.0315859318 -0.141457051 -0.021349445 -0.0364868678 0.141357005 -0.0282297451 -0.0315859318 -0.141457051 -0.0215251446 -0.0365315974 -0.141457081 -0.021349445 -0.0364868678 0.141357005 -0.021349445 -0.0364868678 0.141357005 -0.0215251446 -0.0365315974 -0.141457081 -0.0138088325 -0.0400295071 0.141357034 -0.0215251446 -0.0365315974 -0.141457081 -0.0139845312 -0.0400742516 -0.141457081 -0.0138088325 -0.0400295071 0.141357034 -0.0138088325 -0.0400295071 0.141357034 -0.0139845312 -0.0400742516 -0.141457081 -0.00572195742 -0.0420329757 0.141357005 -0.0139845312 -0.0400742516 -0.141457081 -0.00589767052 -0.0420777202 -0.141457081 -0.00572195742 -0.0420329757 0.141357005 -0.00572195742 -0.0420329757 0.141357005 -0.00589767052 -0.0420777202 -0.141457081 0.0026003723 -0.0424202867 0.141357005 -0.00589767052 -0.0420777202 -0.141457081 0.00242467178 -0.0424650386 -0.141457066 0.0026003723 -0.0424202867 0.141357005 0.0026003723 -0.0424202867 0.141357005 0.00242467178 -0.0424650386 -0.141457066 0.0108383521 -0.0411765687 0.141356945 0.00242467178 -0.0424650386 -0.141457066 0.0106626311 -0.0412212946 -0.141457066 0.0108383521 -0.0411765687 0.141356945 0.0108383521 -0.0411765687 0.141356945 0.0106626311 -0.0412212946 -0.141457066 0.0186753869 -0.0383495539 0.141356975 0.0106626311 -0.0412212946 -0.141457066 0.0184997022 -0.0383943059 -0.141457051 0.0186753869 -0.0383495539 0.141356975 0.0186753869 -0.0383495539 0.141356975 0.0184997022 -0.0383943059 -0.141457051 0.025810346 -0.0340479687 0.141356975 0.0184997022 -0.0383943059 -0.141457051 0.0256346334 -0.0340926908 -0.141457051 0.025810346 -0.0340479687 0.141356975 0.025810346 -0.0340479687 0.141356975 0.0256346334 -0.0340926908 -0.141457051 0.0319689885 -0.0284370575 0.141357034 0.0256346334 -0.0340926908 -0.141457051 0.0317932963 -0.0284817889 -0.141457126 0.0319689885 -0.0284370575 0.141357034 0.0319689885 -0.0284370575 0.141357034 0.0317932963 -0.0284817889 -0.141457126 0.0369146615 -0.0217324682 0.141356945 0.0317932963 -0.0284817889 -0.141457126 0.036738947 -0.0217771977 -0.141457066 0.0369146615 -0.0217324682 0.141356945 0.0369146615 -0.0217324682 0.141356945 0.036738947 -0.0217771977 -0.141457066 0.0404573083 -0.0141918473 0.141357064 0.036738947 -0.0217771977 -0.141457066 0.0402816087 -0.0142365899 -0.141457126 0.0404573083 -0.0141918473 0.141357064 0.0404573083 -0.0141918473 0.141357064 0.0402816087 -0.0142365899 -0.141457126 0.0424607694 -0.00610498339 0.141357005 0.0402816087 -0.0142365899 -0.141457126 0.0422850847 -0.00614972971 -0.141457111 0.0424607694 -0.00610498339 0.141357005 0.0424607694 -0.00610498339 0.141357005 0.0422850847 -0.00614972971 -0.141457111 0.0428480804 0.00221734284 0.141357005 0.0422850847 -0.00614972971 -0.141457111 0.0426723883 0.0021726205 -0.141457066 0.0428480804 0.00221734284 0.141357005 0.0428480804 0.00221734284 0.141357005 0.0426723883 0.0021726205 -0.141457066 0.041604355 0.0104553383 0.141357064 0.0426723883 0.0021726205 -0.141457066 0.0414286554 0.0104105948 -0.141457111 0.041604355 0.0104553383 0.141357064 0.041604355 0.0104553383 0.141357064 0.0414286554 0.0104105948 -0.141457111 0.0387773514 0.0182923898 0.141357005 0.0414286554 0.0104105948 -0.141457111 0.0386016592 0.0182476453 -0.141457096 0.0387773514 0.0182923898 0.141357005 0.0387773514 0.0182923898 0.141357005 0.0386016592 0.0182476453 -0.141457096 0.0344757587 0.0254273303 0.141356975 0.0386016592 0.0182476453 -0.141457096 0.0343000665 0.0253825914 -0.141457051 0.0344757587 0.0254273303 0.141356975 0.0344757587 0.0254273303 0.141356975 0.0343000665 0.0253825914 -0.141457051 0.0288648531 0.0315859802 0.141357005 0.0343000665 0.0253825914 -0.141457051 0.028689146 0.0315412395 -0.141457081 0.0288648531 0.0315859802 0.141357005 0.0288648531 0.0315859802 0.141357005 0.028689146 0.0315412395 -0.141457081 0.0221602619 0.0365316495 0.141357005 0.028689146 0.0315412395 -0.141457081 0.0219845623 0.0364869237 -0.141457096 0.0221602619 0.0365316495 0.141357005 0.0221602619 0.0365316495 0.141357005 0.0219845623 0.0364869237 -0.141457096 0.0146196401 0.0400743112 0.141356975 0.0219845623 0.0364869237 -0.141457096 0.0144439414 0.0400295742 -0.141457096 0.0146196401 0.0400743112 0.141356975 0.0146196401 0.0400743112 0.141356975 0.0144439414 0.0400295742 -0.141457096 0.00653277384 0.0420777872 0.141357034 0.0144439414 0.0400295742 -0.141457096 0.00635708869 0.0420330502 -0.141457081 0.00653277384 0.0420777872 0.141357034 0.00653277384 0.0420777872 0.141357034 0.00635708869 0.0420330502 -0.141457081 -0.0017895404 0.0424650833 0.141357005 0.00635708869 0.0420330502 -0.141457081 -0.00196524011 0.0424203463 -0.141457185 -0.0017895404 0.0424650833 0.141357005 -0.0017895404 0.0424650833 0.141357005 -0.00196524011 0.0424203463 -0.141457185 -0.0100275436 0.0412213542 0.141356975 -0.00196524011 0.0424203463 -0.141457185 -0.0102032423 0.0411766209 -0.141457096 -0.0100275436 0.0412213542 0.141356975 -0.0100275436 0.0412213542 0.141356975 -0.0102032423 0.0411766209 -0.141457096 -0.01786457 0.0383943506 0.141356945 -0.0102032423 0.0411766209 -0.141457096 -0.0180402845 0.0383496173 -0.141457036 -0.01786457 0.0383943506 0.141356945 -0.01786457 0.0383943506 0.141356945 -0.0180402845 0.0383496173 -0.141457036 -0.0249995273 0.0340927504 0.141357064 -0.0180402845 0.0383496173 -0.141457036 -0.0251752306 0.0340480171 -0.141457126 -0.0249995273 0.0340927504 0.141357064 -0.0249995273 0.0340927504 0.141357064 -0.0251752306 0.0340480171 -0.141457126 -0.0311581772 0.0284818355 0.141357124 -0.0251752306 0.0340480171 -0.141457126 -0.0313338786 0.0284371041 -0.141457096 -0.0311581772 0.0284818355 0.141357124 -0.0311581772 0.0284818355 0.141357124 -0.0313338786 0.0284371041 -0.141457096 -0.0361038595 0.0217772555 0.141356945 -0.0313338786 0.0284371041 -0.141457096 -0.0362795442 0.0217325035 -0.141457111 -0.0361038595 0.0217772555 0.141356945 -0.0361038595 0.0217772555 0.141356945 -0.0362795442 0.0217325035 -0.141457111 -0.0396464914 0.0142366309 0.141357005 -0.0362795442 0.0217325035 -0.141457111 -0.0398222059 0.0141919032 -0.141457081 -0.0396464914 0.0142366309 0.141357005 -0.0396464914 0.0142366309 0.141357005 -0.0398222059 0.0141919032 -0.141457081 -0.0416499525 0.0061497828 0.141357005 -0.0398222059 0.0141919032 -0.141457081 -0.0418256521 0.00610503834 -0.141457066 -0.0416499525 0.0061497828 0.141357005 -0.0416499525 0.0061497828 0.141357005 -0.0418256521 0.00610503834 -0.141457066 -0.0420372933 -0.00217255834 0.141357005 -0.0418256521 0.00610503834 -0.141457066 -0.0422129631 -0.00221730326 -0.141457066 -0.0420372933 -0.00217255834 0.141357005 -0.0420372933 -0.00217255834 0.141357005 -0.0422129631 -0.00221730326 -0.141457066 -0.040793553 -0.0104105398 0.141357094 -0.0422129631 -0.00221730326 -0.141457066 -0.0409692377 -0.010455274 -0.141457066 -0.040793553 -0.0104105398 0.141357094 0.000343590975 5.28480314e-06 -0.141457096 0.0114374971 -0.0566042662 -0.141457051 0.0222683176 -0.0533522107 -0.141457066 0.0114374971 -0.0566042662 -0.141457051 0.0114374673 -0.0566042326 -0.146250084 0.0222683176 -0.0533522107 -0.141457066 0.0114374673 -0.0566042326 -0.146250084 0.0222683176 -0.0533522107 -0.146250084 0.0222683176 -0.0533522107 -0.141457066 0.000343590975 5.28480314e-06 -0.141457096 0.0222683176 -0.0533522107 -0.141457066 0.0322565138 -0.0480496511 -0.141457021 0.0222683176 -0.0533522107 -0.141457066 0.0222683176 -0.0533522107 -0.146250084 0.0322565138 -0.0480496511 -0.141457021 0.0222683176 -0.0533522107 -0.146250084 0.0322565436 -0.0480496921 -0.146250069 0.0322565138 -0.0480496511 -0.141457021 0.000343590975 5.28480314e-06 -0.141457096 0.0322565138 -0.0480496511 -0.141457021 0.0410183966 -0.040900372 -0.141457096 0.0322565138 -0.0480496511 -0.141457021 0.0322565436 -0.0480496921 -0.146250069 0.0410183966 -0.040900372 -0.141457096 0.0322565436 -0.0480496921 -0.146250069 0.0410183817 -0.0409003869 -0.146250069 0.0410183966 -0.040900372 -0.141457096 0.000343590975 5.28480314e-06 -0.141457096 0.0410183966 -0.040900372 -0.141457096 0.0482171625 -0.0321791396 -0.141457051 0.0410183966 -0.040900372 -0.141457096 0.0410183817 -0.0409003869 -0.146250069 0.0482171625 -0.0321791396 -0.141457051 0.0410183817 -0.0409003869 -0.146250069 0.0482171327 -0.032179106 -0.146250084 0.0482171625 -0.0321791396 -0.141457051 0.000343590975 5.28480314e-06 -0.141457096 0.0482171625 -0.0321791396 -0.141457051 0.0535761416 -0.0222210847 -0.141457096 0.0482171625 -0.0321791396 -0.141457051 0.0482171327 -0.032179106 -0.146250084 0.0535761416 -0.0222210847 -0.141457096 0.0482171327 -0.032179106 -0.146250084 0.0535761639 -0.0222210716 -0.146250069 0.0535761416 -0.0222210847 -0.141457096 0.000343590975 5.28480314e-06 -0.141457096 0.0535761416 -0.0222210847 -0.141457096 0.0568893701 -0.0114088217 -0.141457081 0.0535761416 -0.0222210847 -0.141457096 0.0535761639 -0.0222210716 -0.146250069 0.0568893701 -0.0114088217 -0.141457081 0.0535761639 -0.0222210716 -0.146250069 0.0568893924 -0.0114088077 -0.146250084 0.0568893701 -0.0114088217 -0.141457081 0.000343590975 5.28480314e-06 -0.141457096 0.0568893701 -0.0114088217 -0.141457081 0.0580297112 -0.00015797597 -0.141457081 0.0568893701 -0.0114088217 -0.141457081 0.0568893924 -0.0114088077 -0.146250084 0.0580297112 -0.00015797597 -0.141457081 0.0568893924 -0.0114088077 -0.146250084 0.0580296665 -0.00015795487 -0.146250024 0.0580297112 -0.00015797597 -0.141457081 0.000343590975 5.28480314e-06 -0.141457096 0.0580297112 -0.00015797597 -0.141457081 0.0569531322 0.0110991756 -0.141457066 0.0580297112 -0.00015797597 -0.141457081 0.0580296665 -0.00015795487 -0.146250024 0.0569531322 0.0110991756 -0.141457066 0.0580296665 -0.00015795487 -0.146250024 0.0569530502 0.0110991728 -0.146250084 0.0569531322 0.0110991756 -0.141457066 0.000343590975 5.28480314e-06 -0.141457096 0.0569531322 0.0110991756 -0.141457066 0.0537010133 0.0219300073 -0.141457081 0.0569531322 0.0110991756 -0.141457066 0.0569530502 0.0110991728 -0.146250084 0.0537010133 0.0219300073 -0.141457081 0.0569530502 0.0110991728 -0.146250084 0.0537010953 0.0219299626 -0.146250069 0.0537010133 0.0219300073 -0.141457081 0.000343590975 5.28480314e-06 -0.141457096 0.0537010133 0.0219300073 -0.141457081 0.0483985171 0.0319182314 -0.141457066 0.0537010133 0.0219300073 -0.141457081 0.0537010953 0.0219299626 -0.146250069 0.0483985171 0.0319182314 -0.141457066 0.0537010953 0.0219299626 -0.146250069 0.0483985394 0.0319182388 -0.146250069 0.0483985171 0.0319182314 -0.141457066 0.000343590975 5.28480314e-06 -0.141457096 0.0483985171 0.0319182314 -0.141457066 0.0412492454 0.0406800918 -0.141457096 0.0483985171 0.0319182314 -0.141457066 0.0483985394 0.0319182388 -0.146250069 0.0412492454 0.0406800918 -0.141457096 0.0483985394 0.0319182388 -0.146250069 0.0412492305 0.0406800844 -0.146250069 0.0412492454 0.0406800918 -0.141457096 0.000343590975 5.28480314e-06 -0.141457096 0.0412492454 0.0406800918 -0.141457096 0.0325279757 0.0478788763 -0.141457081 0.0412492454 0.0406800918 -0.141457096 0.0412492305 0.0406800844 -0.146250069 0.0325279757 0.0478788763 -0.141457081 0.0412492305 0.0406800844 -0.146250069 0.0325279832 0.0478788279 -0.146250024 0.0325279757 0.0478788763 -0.141457081 0.000343590975 5.28480314e-06 -0.141457096 0.0325279757 0.0478788763 -0.141457081 0.0225698799 0.0532378368 -0.141457081 0.0325279757 0.0478788763 -0.141457081 0.0325279832 0.0478788279 -0.146250024 0.0225698799 0.0532378368 -0.141457081 0.0325279832 0.0478788279 -0.146250024 0.0225699097 0.0532378033 -0.146250129 0.0225698799 0.0532378368 -0.141457081 0.000343590975 5.28480314e-06 -0.141457096 0.0225698799 0.0532378368 -0.141457081 0.0117576718 0.0565511286 -0.141457081 0.0225698799 0.0532378368 -0.141457081 0.0225699097 0.0532378033 -0.146250129 0.0117576718 0.0565511286 -0.141457081 0.0225699097 0.0532378033 -0.146250129 0.0117577016 0.0565510951 -0.146250129 0.0117576718 0.0565511286 -0.141457081 0.000343590975 5.28480314e-06 -0.141457096 0.0117576718 0.0565511286 -0.141457081 0.000506817829 0.0576913506 -0.141457081 0.0117576718 0.0565511286 -0.141457081 0.0117577016 0.0565510951 -0.146250129 0.000506817829 0.0576913506 -0.141457081 0.0117577016 0.0565510951 -0.146250129 0.000506833487 0.0576913618 -0.146250084 0.000506817829 0.0576913506 -0.141457081 0.000343590975 5.28480314e-06 -0.141457096 0.000506817829 0.0576913506 -0.141457081 -0.0107503096 0.0566147938 -0.141457081 0.000506817829 0.0576913506 -0.141457081 0.000506833487 0.0576913618 -0.146250084 -0.0107503096 0.0566147938 -0.141457081 0.000506833487 0.0576913618 -0.146250084 -0.0107503217 0.0566147827 -0.146250054 -0.0107503096 0.0566147938 -0.141457081 0.000343590975 5.28480314e-06 -0.141457096 -0.0107503096 0.0566147938 -0.141457081 -0.021581158 0.0533627681 -0.141457081 -0.0107503096 0.0566147938 -0.141457081 -0.0107503217 0.0566147827 -0.146250054 -0.021581158 0.0533627681 -0.141457081 -0.0107503217 0.0566147827 -0.146250054 -0.0215811282 0.053362783 -0.146250084 -0.021581158 0.0533627681 -0.141457081 0.000343590975 5.28480314e-06 -0.141457096 -0.021581158 0.0533627681 -0.141457081 -0.0315694362 0.0480602086 -0.141457081 -0.021581158 0.0533627681 -0.141457081 -0.0215811282 0.053362783 -0.146250084 -0.0315694362 0.0480602086 -0.141457081 -0.0215811282 0.053362783 -0.146250084 -0.0315694064 0.048060216 -0.146250084 -0.0315694362 0.0480602086 -0.141457081 0.000343590975 5.28480314e-06 -0.141457096 -0.0315694362 0.0480602086 -0.141457081 -0.0403312594 0.0409109183 -0.141457066 -0.0315694362 0.0480602086 -0.141457081 -0.0315694064 0.048060216 -0.146250084 -0.0403312594 0.0409109183 -0.141457066 -0.0315694064 0.048060216 -0.146250084 -0.0403312594 0.0409109183 -0.146250084 -0.0403312594 0.0409109183 -0.141457066 0.000343590975 5.28480314e-06 -0.141457096 -0.0403312594 0.0409109183 -0.141457066 -0.0475299656 0.0321896672 -0.141457081 -0.0403312594 0.0409109183 -0.141457066 -0.0403312594 0.0409109183 -0.146250084 -0.0475299656 0.0321896672 -0.141457081 -0.0403312594 0.0409109183 -0.146250084 -0.0475300103 0.0321896411 -0.146250069 -0.0475299656 0.0321896672 -0.141457081 0.000343590975 5.28480314e-06 -0.141457096 -0.0475299656 0.0321896672 -0.141457081 -0.0528889894 0.0222315826 -0.141457021 -0.0475299656 0.0321896672 -0.141457081 -0.0475300103 0.0321896411 -0.146250069 -0.0528889894 0.0222315826 -0.141457021 -0.0475300103 0.0321896411 -0.146250069 -0.0528890193 0.0222316179 -0.146250069 -0.0528889894 0.0222315826 -0.141457021 0.000343590975 5.28480314e-06 -0.141457096 -0.0528889894 0.0222315826 -0.141457021 -0.0562022626 0.0114193382 -0.141457051 -0.0528889894 0.0222315826 -0.141457021 -0.0528890193 0.0222316179 -0.146250069 -0.0562022626 0.0114193382 -0.141457051 -0.0528890193 0.0222316179 -0.146250069 -0.0562022775 0.011419327 -0.146250084 -0.0562022626 0.0114193382 -0.141457051 0.000343590975 5.28480314e-06 -0.141457096 -0.0562022626 0.0114193382 -0.141457051 -0.0573425144 0.000168498562 -0.141457036 -0.0562022626 0.0114193382 -0.141457051 -0.0562022775 0.011419327 -0.146250084 -0.0573425144 0.000168498562 -0.141457036 -0.0562022775 0.011419327 -0.146250084 -0.0573425442 0.00016853257 -0.146250084 -0.0573425144 0.000168498562 -0.141457036 0.000343590975 5.28480314e-06 -0.141457096 -0.0573425144 0.000168498562 -0.141457036 -0.0562659502 -0.0110886656 -0.141457081 -0.0573425144 0.000168498562 -0.141457036 -0.0573425442 0.00016853257 -0.146250084 -0.0562659502 -0.0110886656 -0.141457081 -0.0573425442 0.00016853257 -0.146250084 -0.056265939 -0.0110886525 -0.146250084 -0.0562659502 -0.0110886656 -0.141457081 0.000343590975 5.28480314e-06 -0.141457096 -0.0562659502 -0.0110886656 -0.141457081 -0.0530138463 -0.0219194517 -0.141457066 -0.0562659502 -0.0110886656 -0.141457081 -0.056265939 -0.0110886525 -0.146250084 -0.0530138463 -0.0219194517 -0.141457066 -0.056265939 -0.0110886525 -0.146250084 -0.0530138612 -0.0219194628 -0.146250099 -0.0530138463 -0.0219194517 -0.141457066 0.000343590975 5.28480314e-06 -0.141457096 -0.0530138463 -0.0219194517 -0.141457066 -0.0477113277 -0.0319077037 -0.141457066 -0.0530138463 -0.0219194517 -0.141457066 -0.0530138612 -0.0219194628 -0.146250099 -0.0477113277 -0.0319077037 -0.141457066 -0.0530138612 -0.0219194628 -0.146250099 -0.0477113277 -0.0319077037 -0.146250129 -0.0477113277 -0.0319077037 -0.141457066 0.000343590975 5.28480314e-06 -0.141457096 -0.0477113277 -0.0319077037 -0.141457066 -0.0405620635 -0.0406695753 -0.141457021 -0.0477113277 -0.0319077037 -0.141457066 -0.0477113277 -0.0319077037 -0.146250129 -0.0405620635 -0.0406695753 -0.141457021 -0.0477113277 -0.0319077037 -0.146250129 -0.0405620784 -0.0406695344 -0.146250069 -0.0405620635 -0.0406695753 -0.141457021 0.000343590975 5.28480314e-06 -0.141457096 -0.0405620635 -0.0406695753 -0.141457021 -0.0318408161 -0.0478683189 -0.141457066 -0.0405620635 -0.0406695753 -0.141457021 -0.0405620784 -0.0406695344 -0.146250069 -0.0318408161 -0.0478683189 -0.141457066 -0.0405620784 -0.0406695344 -0.146250069 -0.0318408459 -0.0478683002 -0.146250129 -0.0318408161 -0.0478683189 -0.141457066 0.000343590975 5.28480314e-06 -0.141457096 -0.0318408161 -0.0478683189 -0.141457066 -0.0218827277 -0.0532272905 -0.141457081 -0.0318408161 -0.0478683189 -0.141457066 -0.0318408459 -0.0478683002 -0.146250129 -0.0218827277 -0.0532272905 -0.141457081 -0.0318408459 -0.0478683002 -0.146250129 -0.0218827575 -0.0532273054 -0.146250054 -0.0218827277 -0.0532272905 -0.141457081 0.000343590975 5.28480314e-06 -0.141457096 -0.0218827277 -0.0532272905 -0.141457081 -0.0110704899 -0.05654056 -0.141457051 -0.0218827277 -0.0532272905 -0.141457081 -0.0218827575 -0.0532273054 -0.146250054 -0.0110704899 -0.05654056 -0.141457051 -0.0218827575 -0.0532273054 -0.146250054 -0.0110705048 -0.0565405749 -0.146250084 -0.0110704899 -0.05654056 -0.141457051 0.000343590975 5.28480314e-06 -0.141457096 -0.0110704899 -0.05654056 -0.141457051 0.000180377945 -0.0576808266 -0.141457051 -0.0110704899 -0.05654056 -0.141457051 -0.0110705048 -0.0565405749 -0.146250084 0.000180377945 -0.0576808266 -0.141457051 -0.0110705048 -0.0565405749 -0.146250084 0.000180364412 -0.0576808415 -0.146250129 0.000180377945 -0.0576808266 -0.141457051 0.000343590975 5.28480314e-06 -0.141457096 0.000180377945 -0.0576808266 -0.141457051 0.0114374971 -0.0566042662 -0.141457051 0.000180377945 -0.0576808266 -0.141457051 0.000180364412 -0.0576808415 -0.146250129 0.0114374971 -0.0566042662 -0.141457051 0.000180364412 -0.0576808415 -0.146250129 0.0114374673 -0.0566042326 -0.146250084 0.0114374971 -0.0566042662 -0.141457051 -0.010750399 -0.0566147529 0.141357064 0.000343546271 -5.23110157e-06 0.141357034 0.000506728888 -0.0576913729 0.141357064 -0.0107503673 -0.056614764 0.146150202 -0.010750399 -0.0566147529 0.141357064 0.000506759738 -0.0576913357 0.146150231 -0.010750399 -0.0566147529 0.141357064 0.000506728888 -0.0576913729 0.141357064 0.000506759738 -0.0576913357 0.146150231 0.000506728888 -0.0576913729 0.141357064 0.000343546271 -5.23110157e-06 0.141357034 0.0117576374 -0.0565510914 0.141357064 0.000506759738 -0.0576913357 0.146150231 0.000506728888 -0.0576913729 0.141357064 0.0117576122 -0.0565510876 0.146150231 0.000506728888 -0.0576913729 0.141357064 0.0117576374 -0.0565510914 0.141357064 0.0117576122 -0.0565510876 0.146150231 0.0117576374 -0.0565510914 0.141357064 0.000343546271 -5.23110157e-06 0.141357034 0.0225698575 -0.0532377698 0.141357005 0.0117576122 -0.0565510876 0.146150231 0.0117576374 -0.0565510914 0.141357064 0.0225698426 -0.053237807 0.146150231 0.0117576374 -0.0565510914 0.141357064 0.0225698575 -0.0532377698 0.141357005 0.0225698426 -0.053237807 0.146150231 0.0225698575 -0.0532377698 0.141357005 0.000343546271 -5.23110157e-06 0.141357034 0.0325279385 -0.0478787795 0.141357005 0.0225698426 -0.053237807 0.146150231 0.0225698575 -0.0532377698 0.141357005 0.0325279236 -0.0478788204 0.146150261 0.0225698575 -0.0532377698 0.141357005 0.0325279385 -0.0478787795 0.141357005 0.0325279236 -0.0478788204 0.146150261 0.0325279385 -0.0478787795 0.141357005 0.000343546271 -5.23110157e-06 0.141357034 0.0412491783 -0.0406800359 0.141357094 0.0325279236 -0.0478788204 0.146150261 0.0325279385 -0.0478787795 0.141357005 0.0412492007 -0.0406800471 0.146150261 0.0325279385 -0.0478787795 0.141357005 0.0412491783 -0.0406800359 0.141357094 0.0412492007 -0.0406800471 0.146150261 0.0412491783 -0.0406800359 0.141357094 0.000343546271 -5.23110157e-06 0.141357034 0.0483984649 -0.0319181867 0.141357064 0.0412492007 -0.0406800471 0.146150261 0.0412491783 -0.0406800359 0.141357094 0.04839845 -0.031918183 0.146150202 0.0412491783 -0.0406800359 0.141357094 0.0483984649 -0.0319181867 0.141357064 0.04839845 -0.031918183 0.146150202 0.0483984649 -0.0319181867 0.141357064 0.000343546271 -5.23110157e-06 0.141357034 0.0537009984 -0.0219299328 0.141357005 0.04839845 -0.031918183 0.146150202 0.0483984649 -0.0319181867 0.141357064 0.0537009835 -0.0219299756 0.146150172 0.0483984649 -0.0319181867 0.141357064 0.0537009984 -0.0219299328 0.141357005 0.0537009835 -0.0219299756 0.146150172 0.0537009984 -0.0219299328 0.141357005 0.000343546271 -5.23110157e-06 0.141357034 0.0569530427 -0.0110991616 0.141357094 0.0537009835 -0.0219299756 0.146150172 0.0537009984 -0.0219299328 0.141357005 0.0569530427 -0.0110991644 0.146150231 0.0537009984 -0.0219299328 0.141357005 0.0569530427 -0.0110991616 0.141357094 0.0569530427 -0.0110991644 0.146150231 0.0569530427 -0.0110991616 0.141357094 0.000343546271 -5.23110157e-06 0.141357034 0.0580296442 0.000157994902 0.141357094 0.0569530427 -0.0110991644 0.146150231 0.0569530427 -0.0110991616 0.141357094 0.0580296218 0.0001580026 0.146150202 0.0569530427 -0.0110991616 0.141357094 0.0580296442 0.000157994902 0.141357094 0.0580296218 0.0001580026 0.146150202 0.0580296442 0.000157994902 0.141357094 0.000343546271 -5.23110157e-06 0.141357034 0.0568893477 0.0114088561 0.141357005 0.0580296218 0.0001580026 0.146150202 0.0580296442 0.000157994902 0.141357094 0.0568893701 0.0114088906 0.146150202 0.0580296442 0.000157994902 0.141357094 0.0568893477 0.0114088561 0.141357005 0.0568893701 0.0114088906 0.146150202 0.0568893477 0.0114088561 0.141357005 0.000343546271 -5.23110157e-06 0.141357034 0.0535760522 0.022221094 0.141357094 0.0568893701 0.0114088906 0.146150202 0.0568893477 0.0114088561 0.141357005 0.0535760745 0.022221081 0.146150231 0.0568893477 0.0114088561 0.141357005 0.0535760522 0.022221094 0.141357094 0.0535760745 0.022221081 0.146150231 0.0535760522 0.022221094 0.141357094 0.000343546271 -5.23110157e-06 0.141357034 0.048217088 0.0321791582 0.141357124 0.0535760745 0.022221081 0.146150231 0.0535760522 0.022221094 0.141357094 0.048217088 0.0321791619 0.146150231 0.0535760522 0.022221094 0.141357094 0.048217088 0.0321791582 0.141357124 0.048217088 0.0321791619 0.146150231 0.048217088 0.0321791582 0.141357124 0.000343546271 -5.23110157e-06 0.141357034 0.041018337 0.0409003794 0.141357064 0.048217088 0.0321791619 0.146150231 0.048217088 0.0321791582 0.141357124 0.041018337 0.0409003794 0.146150261 0.048217088 0.0321791582 0.141357124 0.041018337 0.0409003794 0.141357064 0.041018337 0.0409003794 0.146150261 0.041018337 0.0409003794 0.141357064 0.000343546271 -5.23110157e-06 0.141357034 0.0322564915 0.0480496921 0.141357034 0.041018337 0.0409003794 0.146150261 0.041018337 0.0409003794 0.141357064 0.0322564691 0.0480496474 0.146150231 0.041018337 0.0409003794 0.141357064 0.0322564915 0.0480496921 0.141357034 0.0322564691 0.0480496474 0.146150231 0.0322564915 0.0480496921 0.141357034 0.000343546271 -5.23110157e-06 0.141357034 0.0222682375 0.0533522293 0.141357005 0.0322564691 0.0480496474 0.146150231 0.0322564915 0.0480496921 0.141357034 0.022268258 0.0533522666 0.146150202 0.0322564915 0.0480496921 0.141357034 0.0222682375 0.0533522293 0.141357005 0.022268258 0.0533522666 0.146150202 0.0222682375 0.0533522293 0.141357005 0.000343546271 -5.23110157e-06 0.141357034 0.0114374245 0.0566042848 0.141357064 0.022268258 0.0533522666 0.146150202 0.0222682375 0.0533522293 0.141357005 0.011437431 0.0566042773 0.146150202 0.0222682375 0.0533522293 0.141357005 0.0114374245 0.0566042848 0.141357064 0.011437431 0.0566042773 0.146150202 0.0114374245 0.0566042848 0.141357064 0.000343546271 -5.23110157e-06 0.141357034 0.000180274044 0.0576808117 0.141357094 0.011437431 0.0566042773 0.146150202 0.0114374245 0.0566042848 0.141357064 0.000180275238 0.0576808602 0.146150291 0.0114374245 0.0566042848 0.141357064 0.000180274044 0.0576808117 0.141357094 0.000180275238 0.0576808602 0.146150291 0.000180274044 0.0576808117 0.141357094 0.000343546271 -5.23110157e-06 0.141357034 -0.0110705635 0.056540601 0.141357034 0.000180275238 0.0576808602 0.146150291 0.000180274044 0.0576808117 0.141357094 -0.0110705476 0.0565405898 0.146150202 0.000180274044 0.0576808117 0.141357094 -0.0110705635 0.056540601 0.141357034 -0.0110705476 0.0565405898 0.146150202 -0.0110705635 0.056540601 0.141357034 0.000343546271 -5.23110157e-06 0.141357034 -0.0218828339 0.053227298 0.141357094 -0.0110705476 0.0565405898 0.146150202 -0.0110705635 0.056540601 0.141357034 -0.0218827873 0.053227324 0.146150172 -0.0110705635 0.056540601 0.141357034 -0.0218828339 0.053227298 0.141357094 -0.0218827873 0.053227324 0.146150172 -0.0218828339 0.053227298 0.141357094 0.000343546271 -5.23110157e-06 0.141357034 -0.0318408757 0.0478682891 0.141357094 -0.0218827873 0.053227324 0.146150172 -0.0218828339 0.053227298 0.141357094 -0.0318408906 0.0478682965 0.146150231 -0.0218828339 0.053227298 0.141357094 -0.0318408757 0.0478682891 0.141357094 -0.0318408906 0.0478682965 0.146150231 -0.0318408757 0.0478682891 0.141357094 0.000343546271 -5.23110157e-06 0.141357034 -0.040562138 0.0406695642 0.141357034 -0.0318408906 0.0478682965 0.146150231 -0.0318408757 0.0478682891 0.141357094 -0.040562138 0.0406695642 0.146150231 -0.0318408757 0.0478682891 0.141357094 -0.040562138 0.0406695642 0.141357034 -0.040562138 0.0406695642 0.146150231 -0.040562138 0.0406695642 0.141357034 0.000343546271 -5.23110157e-06 0.141357034 -0.0477114171 0.0319077075 0.141357005 -0.040562138 0.0406695642 0.146150231 -0.040562138 0.0406695642 0.141357034 -0.0477114171 0.0319077 0.146150231 -0.040562138 0.0406695642 0.141357034 -0.0477114171 0.0319077075 0.141357005 -0.0477114171 0.0319077 0.146150231 -0.0477114171 0.0319077075 0.141357005 0.000343546271 -5.23110157e-06 0.141357034 -0.0530139357 0.0219194908 0.141357064 -0.0477114171 0.0319077 0.146150231 -0.0477114171 0.0319077075 0.141357005 -0.0530139506 0.0219194964 0.146150202 -0.0477114171 0.0319077075 0.141357005 -0.0530139357 0.0219194908 0.141357064 -0.0530139506 0.0219194964 0.146150202 -0.0530139357 0.0219194908 0.141357064 0.000343546271 -5.23110157e-06 0.141357034 -0.0562659949 0.0110886795 0.141357064 -0.0530139506 0.0219194964 0.146150202 -0.0530139357 0.0219194908 0.141357064 -0.0562659651 0.0110886693 0.146150202 -0.0530139357 0.0219194908 0.141357064 -0.0562659949 0.0110886795 0.141357064 -0.0562659651 0.0110886693 0.146150202 -0.0562659949 0.0110886795 0.141357064 0.000343546271 -5.23110157e-06 0.141357034 -0.0573425591 -0.000168494502 0.141357034 -0.0562659651 0.0110886693 0.146150202 -0.0562659949 0.0110886795 0.141357064 -0.057342574 -0.000168490544 0.146150261 -0.0562659949 0.0110886795 0.141357064 -0.0573425591 -0.000168494502 0.141357034 -0.057342574 -0.000168490544 0.146150261 -0.0573425591 -0.000168494502 0.141357034 0.000343546271 -5.23110157e-06 0.141357034 -0.0562023073 -0.0114193326 0.141357005 -0.057342574 -0.000168490544 0.146150261 -0.0573425591 -0.000168494502 0.141357034 -0.0562022775 -0.0114193056 0.146150202 -0.0573425591 -0.000168494502 0.141357034 -0.0562023073 -0.0114193326 0.141357005 -0.0562022775 -0.0114193056 0.146150202 -0.0562023073 -0.0114193326 0.141357005 0.000343546271 -5.23110157e-06 0.141357034 -0.0528890043 -0.0222315788 0.141357064 -0.0562022775 -0.0114193056 0.146150202 -0.0562023073 -0.0114193326 0.141357005 -0.0528890193 -0.0222315695 0.146150231 -0.0562023073 -0.0114193326 0.141357005 -0.0528890043 -0.0222315788 0.141357064 -0.0528890193 -0.0222315695 0.146150231 -0.0528890043 -0.0222315788 0.141357064 0.000343546271 -5.23110157e-06 0.141357034 -0.0475300103 -0.0321896523 0.141357094 -0.0528890193 -0.0222315695 0.146150231 -0.0528890043 -0.0222315788 0.141357064 -0.0475300103 -0.032189656 0.146150231 -0.0528890043 -0.0222315788 0.141357064 -0.0475300103 -0.0321896523 0.141357094 -0.0475300103 -0.032189656 0.146150231 -0.0475300103 -0.0321896523 0.141357094 0.000343546271 -5.23110157e-06 0.141357034 -0.0403313041 -0.0409109034 0.141357005 -0.0475300103 -0.032189656 0.146150231 -0.0475300103 -0.0321896523 0.141357094 -0.0403312892 -0.0409109145 0.146150261 -0.0475300103 -0.0321896523 0.141357094 -0.0403313041 -0.0409109034 0.141357005 -0.0403312892 -0.0409109145 0.146150261 -0.0403313041 -0.0409109034 0.141357005 0.000343546271 -5.23110157e-06 0.141357034 -0.0315694213 -0.0480601341 0.141357064 -0.0403312892 -0.0409109145 0.146150261 -0.0403313041 -0.0409109034 0.141357005 -0.0315694213 -0.0480601825 0.146150172 -0.0403313041 -0.0409109034 0.141357005 -0.0315694213 -0.0480601341 0.141357064 -0.0315694213 -0.0480601825 0.146150172 -0.0315694213 -0.0480601341 0.141357064 0.000343546271 -5.23110157e-06 0.141357034 -0.0215811729 -0.0533627197 0.141357064 -0.0315694213 -0.0480601825 0.146150172 -0.0315694213 -0.0480601341 0.141357064 -0.0215811413 -0.0533627309 0.146150202 -0.0315694213 -0.0480601341 0.141357064 -0.0215811729 -0.0533627197 0.141357064 -0.0215811413 -0.0533627309 0.146150202 -0.0215811729 -0.0533627197 0.141357064 0.000343546271 -5.23110157e-06 0.141357034 -0.010750399 -0.0566147529 0.141357064 -0.0215811413 -0.0533627309 0.146150202 -0.0215811729 -0.0533627197 0.141357064 -0.0107503673 -0.056614764 0.146150202 -0.0215811729 -0.0533627197 0.141357064 -0.010750399 -0.0566147529 0.141357064 -0.0107503673 -0.056614764 0.146150202 </float_array>
          <technique_common>
            <accessor count="768" offset="0" source="#mesh_0-positions-array" stride="3">
              <param name="X" type="float" />
              <param name="Y" type="float" />
              <param name="Z" type="float" />
            </accessor>
          </technique_common>
        </source>
        <vertices id="mesh_0-vertices">
          <input semantic="POSITION" source="#mesh_0-positions" />
        </vertices>
        <polylist count="256" material="defaultMaterial">
          <input offset="0" semantic="VERTEX" source="#mesh_0-vertices" />
          <vcount>3 3 3 3 3 3 3 3 3 3 3 3 3 3 3 3 3 3 3 3 3 3 3 3 3 3 3 3 3 3 3 3 3 3 3 3 3 3 3 3 3 3 3 3 3 3 3 3 3 3 3 3 3 3 3 3 3 3 3 3 3 3 3 3 3 3 3 3 3 3 3 3 3 3 3 3 3 3 3 3 3 3 3 3 3 3 3 3 3 3 3 3 3 3 3 3 3 3 3 3 3 3 3 3 3 3 3 3 3 3 3 3 3 3 3 3 3 3 3 3 3 3 3 3 3 3 3 3 3 3 3 3 3 3 3 3 3 3 3 3 3 3 3 3 3 3 3 3 3 3 3 3 3 3 3 3 3 3 3 3 3 3 3 3 3 3 3 3 3 3 3 3 3 3 3 3 3 3 3 3 3 3 3 3 3 3 3 3 3 3 3 3 3 3 3 3 3 3 3 3 3 3 3 3 3 3 3 3 3 3 3 3 3 3 3 3 3 3 3 3 3 3 3 3 3 3 3 3 3 3 3 3 3 3 3 3 3 3 3 3 3 3 3 3 3 3 3 3 3 3 3 3 3 3 3 3 </vcount>
          <p>0 1 2 3 4 5 6 7 8 9 10 11 12 13 14 15 16 17 18 19 20 21 22 23 24 25 26 27 28 29 30 31 32 33 34 35 36 37 38 39 40 41 42 43 44 45 46 47 48 49 50 51 52 53 54 55 56 57 58 59 60 61 62 63 64 65 66 67 68 69 70 71 72 73 74 75 76 77 78 79 80 81 82 83 84 85 86 87 88 89 90 91 92 93 94 95 96 97 98 99 100 101 102 103 104 105 106 107 108 109 110 111 112 113 114 115 116 117 118 119 120 121 122 123 124 125 126 127 128 129 130 131 132 133 134 135 136 137 138 139 140 141 142 143 144 145 146 147 148 149 150 151 152 153 154 155 156 157 158 159 160 161 162 163 164 165 166 167 168 169 170 171 172 173 174 175 176 177 178 179 180 181 182 183 184 185 186 187 188 189 190 191 192 193 194 195 196 197 198 199 200 201 202 203 204 205 206 207 208 209 210 211 212 213 214 215 216 217 218 219 220 221 222 223 224 225 226 227 228 229 230 231 232 233 234 235 236 237 238 239 240 241 242 243 244 245 246 247 248 249 250 251 252 253 254 255 256 257 258 259 260 261 262 263 264 265 266 267 268 269 270 271 272 273 274 275 276 277 278 279 280 281 282 283 284 285 286 287 288 289 290 291 292 293 294 295 296 297 298 299 300 301 302 303 304 305 306 307 308 309 310 311 312 313 314 315 316 317 318 319 320 321 322 323 324 325 326 327 328 329 330 331 332 333 334 335 336 337 338 339 340 341 342 343 344 345 346 347 348 349 350 351 352 353 354 355 356 357 358 359 360 361 362 363 364 365 366 367 368 369 370 371 372 373 374 375 376 377 378 379 380 381 382 383 384 385 386 387 388 389 390 391 392 393 394 395 396 397 398 399 400 401 402 403 404 405 406 407 408 409 410 411 412 413 414 415 416 417 418 419 420 421 422 423 424 425 426 427 428 429 430 431 432 433 434 435 436 437 438 439 440 441 442 443 444 445 446 447 448 449 450 451 452 453 454 455 456 457 458 459 460 461 462 463 464 465 466 467 468 469 470 471 472 473 474 475 476 477 478 479 480 481 482 483 484 485 486 487 488 489 490 491 492 493 494 495 496 497 498 499 500 501 502 503 504 505 506 507 508 509 510 511 512 513 514 515 516 517 518 519 520 521 522 523 524 525 526 527 528 529 530 531 532 533 534 535 536 537 538 539 540 541 542 543 544 545 546 547 548 549 550 551 552 553 554 555 556 557 558 559 560 561 562 563 564 565 566 567 568 569 570 571 572 573 574 575 576 577 578 579 580 581 582 583 584 585 586 587 588 589 590 591 592 593 594 595 596 597 598 599 600 601 602 603 604 605 606 607 608 609 610 611 612 613 614 615 616 617 618 619 620 621 622 623 624 625 626 627 628 629 630 631 632 633 634 635 636 637 638 639 640 641 642 643 644 645 646 647 648 649 650 651 652 653 654 655 656 657 658 659 660 661 662 663 664 665 666 667 668 669 670 671 672 673 674 675 676 677 678 679 680 681 682 683 684 685 686 687 688 689 690 691 692 693 694 695 696 697 698 699 700 701 702 703 704 705 706 707 708 709 710 711 712 713 714 715 716 717 718 719 720 721 722 723 724 725 726 727 728 729 730 731 732 733 734 735 736 737 738 739 740 741 742 743 744 745 746 747 748 749 750 751 752 753 754 755 756 757 758 759 760 761 762 763 764 765 766 767 </p>
        </polylist>
      </mesh>
    </geometry>
  </library_geometries>
  <library_controllers>
  </library_controllers>
  <library_visual_scenes>
    <visual_scene id="Scene" name="Scene">
      <node id="node" name="" type="NODE">
        <matrix sid="matrix">1 0 0 0 0 1 0 0 0 0 1 0 0 0 0 1</matrix>
        <instance_geometry url="#mesh_0">
          <bind_material>
            <technique_common>
              <instance_material symbol="defaultMaterial" target="#material_0">
              </instance_material>
            </technique_common>
          </bind_material>
        </instance_geometry>
      </node>
    </visual_scene>
  </library_visual_scenes>
  <scene>
    <instance_visual_scene url="#Scene" />
  </scene>
</COLLADA>
