<?xml version="1.0" encoding="UTF-8" standalone="no" ?>
<COLLADA xmlns="http://www.collada.org/2005/11/COLLADASchema" version="1.4.1">
  <asset>
    <contributor>
      <author>Assimp</author>
      <authoring_tool>Assimp Exporter</authoring_tool>
    </contributor>
    <created>2025-11-12T11:09:31</created>
    <modified>2025-11-12T11:09:31</modified>
    <unit name="meter" meter="1" />
    <up_axis>Y_UP</up_axis>
  </asset>
  <library_images>
  </library_images>
  <library_effects>
    <effect id="material_0-fx" name="">
      <profile_COMMON>
        <technique sid="standard">
          <phong>
            <emission>
              <color sid="emission">0   0   0   4.28026616e-41</color>
            </emission>
            <ambient>
              <color sid="ambient">0.719165564   0.882352889   0.352941155   4.28026616e-41</color>
            </ambient>
            <diffuse>
              <color sid="diffuse">0.719165564   0.882352889   0.352941155   4.28026616e-41</color>
            </diffuse>
            <specular>
              <color sid="specular">0.529999971   0.529999971   0.529999971   4.28026616e-41</color>
            </specular>
          </phong>
        </technique>
      </profile_COMMON>
    </effect>
  </library_effects>
  <library_materials>
    <material id="material_0" name="">
      <instance_effect url="#material_0-fx"/>
    </material>
  </library_materials>
  <library_geometries>
    <geometry id="mesh_0" name="" >
      <mesh>
        <source id="mesh_0-positions" name="mesh_0-positions">
          <float_array id="mesh_0-positions-array" count="792"> -0.0156512707 0.0451381281 0.253787071 -0.0511700511 0.0443638042 0.171310633 -0.0332530439 0.0609418266 0.213762134 -0.0261866897 0.0573006757 0.232693344 -0.0156512707 0.0451381281 0.253787071 -0.0332530439 0.0609418266 0.213762134 -0.0511700511 0.0443638042 0.171310633 -0.0514082164 -0.0449276678 0.170757085 -0.0593150109 -0.00854762457 0.152414113 -0.0511700511 0.0443638042 0.171310633 -0.0423734784 0.0582832769 0.194825858 -0.0332530439 0.0609418266 0.213762134 -0.0261866897 0.0573006757 0.232693344 -0.0471365452 0.0473377742 0.243837208 -0.0156512707 0.0451381281 0.253787071 -0.0401417762 -0.0597785078 0.203722626 -0.0514082164 -0.0449276678 0.170757085 -0.0296861082 -0.059950579 0.221171409 -0.0514082164 -0.0449276678 0.170757085 -0.0610762388 -0.0315705538 0.161048859 -0.0593150109 -0.00854762457 0.152414113 -0.0671203882 -0.0307314266 0.168165207 -0.0610762388 -0.0315705538 0.161048859 -0.0645883232 -0.0450901911 0.18316257 -0.0610762388 -0.0315705538 0.161048859 -0.0514082164 -0.0449276678 0.170757085 -0.0645883232 -0.0450901911 0.18316257 -0.0197346807 -0.040612109 0.256602794 -0.0104698986 -0.0273568258 0.266540259 -0.0458231717 -0.0302089993 0.259539098 -0.0213021636 -0.0537582561 0.240781337 -0.0104698986 -0.0273568258 0.266540259 -0.0197346807 -0.040612109 0.256602794 -0.0104698986 -0.0273568258 0.266540259 -0.0213021636 -0.0537582561 0.240781337 -0.00765796099 -0.0075626513 0.272522956 -0.0467068106 -0.0433064848 0.248099655 -0.0197346807 -0.040612109 0.256602794 -0.0458231717 -0.0302089993 0.259539098 -0.0543061197 -0.0465833806 0.237683564 -0.0467068106 -0.0433064848 0.248099655 -0.0458231717 -0.0302089993 0.259539098 -0.0467068106 -0.0433064848 0.248099655 -0.0213021636 -0.0537582561 0.240781337 -0.0197346807 -0.040612109 0.256602794 -0.0610762388 -0.0315705538 0.161048859 -0.0648550242 -0.00361852068 0.151728898 -0.0593150109 -0.00854762457 0.152414113 -0.0648550242 -0.00361852068 0.151728898 -0.0671203882 -0.0307314266 0.168165207 -0.0682345331 -0.00600190833 0.158292174 -0.0648550242 -0.00361852068 0.151728898 -0.0610762388 -0.0315705538 0.161048859 -0.0671203882 -0.0307314266 0.168165207 -0.0577406138 0.0215496365 0.156080395 -0.0511700511 0.0443638042 0.171310633 -0.0593150109 -0.00854762457 0.152414113 -0.0577406138 0.0215496365 0.156080395 -0.062817663 0.0239192825 0.157123506 -0.0511700511 0.0443638042 0.171310633 -0.0648550242 -0.00361852068 0.151728898 -0.0577406138 0.0215496365 0.156080395 -0.0593150109 -0.00854762457 0.152414113 -0.0577406138 0.0215496365 0.156080395 -0.0648550242 -0.00361852068 0.151728898 -0.062817663 0.0239192825 0.157123506 -0.0105223814 0.0286876801 0.2658768 -0.0077684354 0.0107898563 0.272027165 -0.0156512707 0.0451381281 0.253787071 -0.0077684354 0.0107898563 0.272027165 -0.0105223814 0.0286876801 0.2658768 -0.0418372005 0.0150505621 0.266746491 -0.0213021636 -0.0537582561 0.240781337 -0.0077684354 0.0107898563 0.272027165 -0.00765796099 -0.0075626513 0.272522956 -0.0077684354 0.0107898563 0.272027165 -0.0213021636 -0.0537582561 0.240781337 -0.0296861082 -0.059950579 0.221171409 -0.0077684354 0.0107898563 0.272027165 -0.0511700511 0.0443638042 0.171310633 -0.0156512707 0.0451381281 0.253787071 -0.0514082164 -0.0449276678 0.170757085 -0.0077684354 0.0107898563 0.272027165 -0.0296861082 -0.059950579 0.221171409 -0.0077684354 0.0107898563 0.272027165 -0.0514082164 -0.0449276678 0.170757085 -0.0511700511 0.0443638042 0.171310633 -0.056314379 -0.0261742454 0.2498568 -0.0543061197 -0.0465833806 0.237683564 -0.0458231717 -0.0302089993 0.259539098 -0.0507535189 -0.00793590024 0.263346344 -0.056314379 -0.0261742454 0.2498568 -0.0458231717 -0.0302089993 0.259539098 -0.056314379 -0.0261742454 0.2498568 -0.0507535189 -0.00793590024 0.263346344 -0.055699259 0.0134042623 0.254692525 -0.0671203882 -0.0307314266 0.168165207 -0.056314379 -0.0261742454 0.2498568 -0.055699259 0.0134042623 0.254692525 -0.0507535189 -0.00793590024 0.263346344 -0.0423990935 -0.00679648295 0.268502027 -0.0418372005 0.0150505621 0.266746491 -0.0077684354 0.0107898563 0.272027165 -0.0423990935 -0.00679648295 0.268502027 -0.00765796099 -0.0075626513 0.272522956 -0.0423990935 -0.00679648295 0.268502027 -0.0077684354 0.0107898563 0.272027165 -0.0418372005 0.0150505621 0.266746491 -0.0423990935 -0.00679648295 0.268502027 -0.0507535189 -0.00793590024 0.263346344 -0.0458231717 -0.0302089993 0.259539098 -0.0423990935 -0.00679648295 0.268502027 -0.0104698986 -0.0273568258 0.266540259 -0.00765796099 -0.0075626513 0.272522956 -0.0104698986 -0.0273568258 0.266540259 -0.0423990935 -0.00679648295 0.268502027 -0.0458231717 -0.0302089993 0.259539098 -0.0471365452 0.0473377742 0.243837208 -0.0456948727 0.0300173704 0.259813219 -0.0156512707 0.0451381281 0.253787071 -0.0456948727 0.0300173704 0.259813219 -0.0105223814 0.0286876801 0.2658768 -0.0156512707 0.0451381281 0.253787071 -0.0105223814 0.0286876801 0.2658768 -0.0456948727 0.0300173704 0.259813219 -0.0418372005 0.0150505621 0.266746491 -0.0423734784 0.0582832769 0.194825858 -0.0572697371 0.0551308244 0.199532956 -0.0332530439 0.0609418266 0.213762134 -0.0572697371 0.0551308244 0.199532956 -0.062674433 0.046101857 0.181079715 -0.0628327578 0.0489420705 0.200339228 -0.0529774874 0.0556755066 0.221376389 -0.0261866897 0.0573006757 0.232693344 -0.0332530439 0.0609418266 0.213762134 -0.0529774874 0.0556755066 0.221376389 -0.0471365452 0.0473377742 0.243837208 -0.0261866897 0.0573006757 0.232693344 -0.0572697371 0.0551308244 0.199532956 -0.0529774874 0.0556755066 0.221376389 -0.0332530439 0.0609418266 0.213762134 -0.0529774874 0.0556755066 0.221376389 -0.0572697371 0.0551308244 0.199532956 -0.0628327578 0.0489420705 0.200339228 -0.0514082164 -0.0449276678 0.170757085 -0.051919207 -0.0521968342 0.181471527 -0.0645883232 -0.0450901911 0.18316257 -0.0401417762 -0.0597785078 0.203722626 -0.051919207 -0.0521968342 0.181471527 -0.0514082164 -0.0449276678 0.170757085 -0.0549008548 -0.0563376285 0.210808128 -0.0401417762 -0.0597785078 0.203722626 -0.0296861082 -0.059950579 0.221171409 -0.0554938018 0.0460829623 0.17263025 -0.0423734784 0.0582832769 0.194825858 -0.0511700511 0.0443638042 0.171310633 -0.062817663 0.0239192825 0.157123506 -0.0554938018 0.0460829623 0.17263025 -0.0511700511 0.0443638042 0.171310633 -0.0554938018 0.0460829623 0.17263025 -0.0572697371 0.0551308244 0.199532956 -0.0423734784 0.0582832769 0.194825858 -0.0572697371 0.0551308244 0.199532956 -0.0554938018 0.0460829623 0.17263025 -0.062674433 0.046101857 0.181079715 -0.0675526559 0.0270387158 0.164885759 -0.0648550242 -0.00361852068 0.151728898 -0.0682345331 -0.00600190833 0.158292174 -0.0648550242 -0.00361852068 0.151728898 -0.0675526559 0.0270387158 0.164885759 -0.062817663 0.0239192825 0.157123506 -0.062674433 0.046101857 0.181079715 -0.0675526559 0.0270387158 0.164885759 -0.0628327578 0.0489420705 0.200339228 -0.0675526559 0.0270387158 0.164885759 -0.0554938018 0.0460829623 0.17263025 -0.062817663 0.0239192825 0.157123506 -0.0554938018 0.0460829623 0.17263025 -0.0675526559 0.0270387158 0.164885759 -0.062674433 0.046101857 0.181079715 -0.0671203882 -0.0307314266 0.168165207 -0.0675526559 0.0270387158 0.164885759 -0.0682345331 -0.00600190833 0.158292174 -0.0628327578 0.0489420705 0.200339228 -0.0675526559 0.0270387158 0.164885759 -0.055699259 0.0134042623 0.254692525 -0.0675526559 0.0270387158 0.164885759 -0.0671203882 -0.0307314266 0.168165207 -0.055699259 0.0134042623 0.254692525 -0.0456948727 0.0300173704 0.259813219 -0.0505692363 0.0233330317 0.260133058 -0.0418372005 0.0150505621 0.266746491 -0.0507535189 -0.00793590024 0.263346344 -0.0505692363 0.0233330317 0.260133058 -0.055699259 0.0134042623 0.254692525 -0.0505692363 0.0233330317 0.260133058 -0.0507535189 -0.00793590024 0.263346344 -0.0418372005 0.0150505621 0.266746491 -0.0606976151 -0.048794426 0.215930611 -0.0549008548 -0.0563376285 0.210808128 -0.0543061197 -0.0465833806 0.237683564 -0.056314379 -0.0261742454 0.2498568 -0.0606976151 -0.048794426 0.215930611 -0.0543061197 -0.0465833806 0.237683564 -0.0606976151 -0.048794426 0.215930611 -0.0671203882 -0.0307314266 0.168165207 -0.0645883232 -0.0450901911 0.18316257 -0.0606976151 -0.048794426 0.215930611 -0.056314379 -0.0261742454 0.2498568 -0.0671203882 -0.0307314266 0.168165207 -0.051919207 -0.0521968342 0.181471527 -0.0590560436 -0.0521426983 0.191171765 -0.0645883232 -0.0450901911 0.18316257 -0.0590560436 -0.0521426983 0.191171765 -0.0606976151 -0.048794426 0.215930611 -0.0645883232 -0.0450901911 0.18316257 -0.0606976151 -0.048794426 0.215930611 -0.0590560436 -0.0521426983 0.191171765 -0.0549008548 -0.0563376285 0.210808128 -0.0590560436 -0.0521426983 0.191171765 -0.051919207 -0.0521968342 0.181471527 -0.0401417762 -0.0597785078 0.203722626 -0.0549008548 -0.0563376285 0.210808128 -0.0590560436 -0.0521426983 0.191171765 -0.0401417762 -0.0597785078 0.203722626 -0.0483864546 -0.0528531335 0.233223408 -0.0549008548 -0.0563376285 0.210808128 -0.0296861082 -0.059950579 0.221171409 -0.0549008548 -0.0563376285 0.210808128 -0.0483864546 -0.0528531335 0.233223408 -0.0543061197 -0.0465833806 0.237683564 -0.0213021636 -0.0537582561 0.240781337 -0.0483864546 -0.0528531335 0.233223408 -0.0296861082 -0.059950579 0.221171409 -0.0483864546 -0.0528531335 0.233223408 -0.0467068106 -0.0433064848 0.248099655 -0.0543061197 -0.0465833806 0.237683564 -0.0467068106 -0.0433064848 0.248099655 -0.0483864546 -0.0528531335 0.233223408 -0.0213021636 -0.0537582561 0.240781337 -0.0538152307 0.0437492877 0.241540343 -0.0456948727 0.0300173704 0.259813219 -0.0471365452 0.0473377742 0.243837208 -0.0538152307 0.0437492877 0.241540343 -0.0505692363 0.0233330317 0.260133058 -0.0456948727 0.0300173704 0.259813219 -0.0529774874 0.0556755066 0.221376389 -0.0538152307 0.0437492877 0.241540343 -0.0471365452 0.0473377742 0.243837208 -0.0505692363 0.0233330317 0.260133058 -0.0538152307 0.0437492877 0.241540343 -0.055699259 0.0134042623 0.254692525 -0.0596209764 0.047976356 0.222198218 -0.0529774874 0.0556755066 0.221376389 -0.0628327578 0.0489420705 0.200339228 -0.0596209764 0.047976356 0.222198218 -0.0538152307 0.0437492877 0.241540343 -0.0529774874 0.0556755066 0.221376389 -0.0596209764 0.047976356 0.222198218 -0.0628327578 0.0489420705 0.200339228 -0.055699259 0.0134042623 0.254692525 -0.0538152307 0.0437492877 0.241540343 -0.0596209764 0.047976356 0.222198218 -0.055699259 0.0134042623 0.254692525 </float_array>
          <technique_common>
            <accessor count="264" offset="0" source="#mesh_0-positions-array" stride="3">
              <param name="X" type="float" />
              <param name="Y" type="float" />
              <param name="Z" type="float" />
            </accessor>
          </technique_common>
        </source>
        <vertices id="mesh_0-vertices">
          <input semantic="POSITION" source="#mesh_0-positions" />
        </vertices>
        <polylist count="88" material="defaultMaterial">
          <input offset="0" semantic="VERTEX" source="#mesh_0-vertices" />
          <vcount>3 3 3 3 3 3 3 3 3 3 3 3 3 3 3 3 3 3 3 3 3 3 3 3 3 3 3 3 3 3 3 3 3 3 3 3 3 3 3 3 3 3 3 3 3 3 3 3 3 3 3 3 3 3 3 3 3 3 3 3 3 3 3 3 3 3 3 3 3 3 3 3 3 3 3 3 3 3 3 3 3 3 3 3 3 3 3 3 </vcount>
          <p>0 1 2 3 4 5 6 7 8 9 10 11 12 13 14 15 16 17 18 19 20 21 22 23 24 25 26 27 28 29 30 31 32 33 34 35 36 37 38 39 40 41 42 43 44 45 46 47 48 49 50 51 52 53 54 55 56 57 58 59 60 61 62 63 64 65 66 67 68 69 70 71 72 73 74 75 76 77 78 79 80 81 82 83 84 85 86 87 88 89 90 91 92 93 94 95 96 97 98 99 100 101 102 103 104 105 106 107 108 109 110 111 112 113 114 115 116 117 118 119 120 121 122 123 124 125 126 127 128 129 130 131 132 133 134 135 136 137 138 139 140 141 142 143 144 145 146 147 148 149 150 151 152 153 154 155 156 157 158 159 160 161 162 163 164 165 166 167 168 169 170 171 172 173 174 175 176 177 178 179 180 181 182 183 184 185 186 187 188 189 190 191 192 193 194 195 196 197 198 199 200 201 202 203 204 205 206 207 208 209 210 211 212 213 214 215 216 217 218 219 220 221 222 223 224 225 226 227 228 229 230 231 232 233 234 235 236 237 238 239 240 241 242 243 244 245 246 247 248 249 250 251 252 253 254 255 256 257 258 259 260 261 262 263 </p>
        </polylist>
      </mesh>
    </geometry>
  </library_geometries>
  <library_controllers>
  </library_controllers>
  <library_visual_scenes>
    <visual_scene id="Scene" name="Scene">
      <node id="node" name="" type="NODE">
        <matrix sid="matrix">1 0 0 0 0 1 0 0 0 0 1 0 0 0 0 1</matrix>
        <instance_geometry url="#mesh_0">
          <bind_material>
            <technique_common>
              <instance_material symbol="defaultMaterial" target="#material_0">
              </instance_material>
            </technique_common>
          </bind_material>
        </instance_geometry>
      </node>
    </visual_scene>
  </library_visual_scenes>
  <scene>
    <instance_visual_scene url="#Scene" />
  </scene>
</COLLADA>
