<?xml version="1.0" encoding="UTF-8" standalone="no" ?>
<COLLADA xmlns="http://www.collada.org/2005/11/COLLADASchema" version="1.4.1">
  <asset>
    <contributor>
      <author>Assimp</author>
      <authoring_tool>Assimp Exporter</authoring_tool>
    </contributor>
    <created>2025-11-12T11:09:31</created>
    <modified>2025-11-12T11:09:31</modified>
    <unit name="meter" meter="1" />
    <up_axis>Y_UP</up_axis>
  </asset>
  <library_images>
  </library_images>
  <library_effects>
    <effect id="material_0-fx" name="">
      <profile_COMMON>
        <technique sid="standard">
          <phong>
            <emission>
              <color sid="emission">0   0   0   4.28026616e-41</color>
            </emission>
            <ambient>
              <color sid="ambient">0.719165564   0.882352889   0.352941155   4.28026616e-41</color>
            </ambient>
            <diffuse>
              <color sid="diffuse">0.719165564   0.882352889   0.352941155   4.28026616e-41</color>
            </diffuse>
            <specular>
              <color sid="specular">0.529999971   0.529999971   0.529999971   4.28026616e-41</color>
            </specular>
          </phong>
        </technique>
      </profile_COMMON>
    </effect>
  </library_effects>
  <library_materials>
    <material id="material_0" name="">
      <instance_effect url="#material_0-fx"/>
    </material>
  </library_materials>
  <library_geometries>
    <geometry id="mesh_0" name="" >
      <mesh>
        <source id="mesh_0-positions" name="mesh_0-positions">
          <float_array id="mesh_0-positions-array" count="864"> 0.00546915969 -0.01743716 0.241096854 0.0243032034 0.0383141972 0.194021165 0.0341938138 -0.017521603 0.169286609 0.0392491743 -0.0165573098 0.169413805 0.0341938138 -0.017521603 0.169286609 0.0363695882 0.000823537586 0.165185094 0.0516650751 -4.01231846e-05 0.170110583 0.0538456962 0.019424215 0.181089401 0.0538467467 -0.0166008417 0.180010796 0.0341938138 -0.017521603 0.169286609 0.0332165062 0.0221337359 0.171942472 0.0363695882 0.000823537586 0.165185094 0.0243032034 0.0383141972 0.194021165 0.0332165062 0.0221337359 0.171942472 0.0341938138 -0.017521603 0.169286609 0.00546915969 -0.01743716 0.241096854 0.00720090047 -0.00446164235 0.244872987 0.00465466827 0.00993758999 0.243815362 0.00619200617 0.0203801692 0.239313185 0.00546915969 -0.01743716 0.241096854 0.00465466827 0.00993758999 0.243815362 0.00546915969 -0.01743716 0.241096854 0.00619200617 0.0203801692 0.239313185 0.0243032034 0.0383141972 0.194021165 0.00546915969 -0.01743716 0.241096854 0.0260556825 -0.0368721448 0.189630747 0.0179214403 -0.0395639054 0.21000278 0.0260556825 -0.0368721448 0.189630747 0.00546915969 -0.01743716 0.241096854 0.0341938138 -0.017521603 0.169286609 0.00720090047 -0.00446164235 0.244872987 0.0443466119 -3.52978168e-05 0.241597414 0.00465466827 0.00993758999 0.243815362 0.0538307056 -0.0286319554 0.198238909 0.0508912019 -0.0240159649 0.178963065 0.0538467467 -0.0166008417 0.180010796 0.050880041 -0.00920357648 0.170926094 0.0392491743 -0.0165573098 0.169413805 0.0363695882 0.000823537586 0.165185094 0.0516650751 -4.01231846e-05 0.170110583 0.050880041 -0.00920357648 0.170926094 0.0363695882 0.000823537586 0.165185094 0.050880041 -0.00920357648 0.170926094 0.0508912019 -0.0240159649 0.178963065 0.0392491743 -0.0165573098 0.169413805 0.050880041 -0.00920357648 0.170926094 0.0516650751 -4.01231846e-05 0.170110583 0.0538467467 -0.0166008417 0.180010796 0.0508912019 -0.0240159649 0.178963065 0.050880041 -0.00920357648 0.170926094 0.0538467467 -0.0166008417 0.180010796 0.0516650751 -4.01231846e-05 0.170110583 0.0508745722 0.00916968286 0.17091924 0.0538456962 0.019424215 0.181089401 0.0508745722 0.00916968286 0.17091924 0.0516650751 -4.01231846e-05 0.170110583 0.0363695882 0.000823537586 0.165185094 0.0537805296 0.0287208129 0.198313534 0.0483258106 0.0339090116 0.193173051 0.0487752371 0.0355901122 0.203707218 0.0483258106 0.0339090116 0.193173051 0.0243032034 0.0383141972 0.194021165 0.0487752371 0.0355901122 0.203707218 0.0443466119 -3.52978168e-05 0.241597414 0.0431113392 -0.0112013239 0.239431143 0.0500330962 -0.00796104129 0.236630321 0.0431113392 -0.0112013239 0.239431143 0.00720090047 -0.00446164235 0.244872987 0.00546915969 -0.01743716 0.241096854 0.0431113392 -0.0112013239 0.239431143 0.0443466119 -3.52978168e-05 0.241597414 0.00720090047 -0.00446164235 0.244872987 0.0538297556 -0.00956222974 0.229110122 0.0537805296 0.0287208129 0.198313534 0.0535971262 0.017396776 0.226378977 0.0537805296 0.0287208129 0.198313534 0.0538297556 -0.00956222974 0.229110122 0.0538456962 0.019424215 0.181089401 0.0538456962 0.019424215 0.181089401 0.0538297556 -0.00956222974 0.229110122 0.0538467467 -0.0166008417 0.180010796 0.0538297556 -0.00956222974 0.229110122 0.0538307056 -0.0286319554 0.198238909 0.0538467467 -0.0166008417 0.180010796 0.0221771337 -0.0394218266 0.200030804 0.0488137901 -0.0355866328 0.203717887 0.0179214403 -0.0395639054 0.21000278 0.0260556825 -0.0368721448 0.189630747 0.0221771337 -0.0394218266 0.200030804 0.0179214403 -0.0395639054 0.21000278 0.0417844579 0.0119317546 0.239604533 0.00619200617 0.0203801692 0.239313185 0.00465466827 0.00993758999 0.243815362 0.0443466119 -3.52978168e-05 0.241597414 0.0417844579 0.0119317546 0.239604533 0.00465466827 0.00993758999 0.243815362 0.0221771337 -0.0394218266 0.200030804 0.0483274721 -0.0339408219 0.193172753 0.0488137901 -0.0355866328 0.203717887 0.0483274721 -0.0339408219 0.193172753 0.0221771337 -0.0394218266 0.200030804 0.0260556825 -0.0368721448 0.189630747 0.0483274721 -0.0339408219 0.193172753 0.0538307056 -0.0286319554 0.198238909 0.0488137901 -0.0355866328 0.203717887 0.0483274721 -0.0339408219 0.193172753 0.0508912019 -0.0240159649 0.178963065 0.0538307056 -0.0286319554 0.198238909 0.0526239313 0.0270571541 0.217832446 0.0537805296 0.0287208129 0.198313534 0.0487752371 0.0355901122 0.203707218 0.0537805296 0.0287208129 0.198313534 0.0526239313 0.0270571541 0.217832446 0.0535971262 0.017396776 0.226378977 0.0535971262 0.017396776 0.226378977 0.0526239313 0.0270571541 0.217832446 0.0455710068 0.0248643178 0.231077194 0.0508745722 0.00916968286 0.17091924 0.049384281 0.0264464244 0.18026489 0.0538456962 0.019424215 0.181089401 0.049384281 0.0264464244 0.18026489 0.0537805296 0.0287208129 0.198313534 0.0538456962 0.019424215 0.181089401 0.049384281 0.0264464244 0.18026489 0.0483258106 0.0339090116 0.193173051 0.0537805296 0.0287208129 0.198313534 0.0086686518 -0.0285511632 0.233347178 0.00546915969 -0.01743716 0.241096854 0.0179214403 -0.0395639054 0.21000278 0.0194070246 -0.0358300582 0.221763909 0.0086686518 -0.0285511632 0.233347178 0.0179214403 -0.0395639054 0.21000278 0.0460770838 0.0335901491 0.218544543 0.00979328156 0.0306989066 0.230803251 0.0455710068 0.0248643178 0.231077194 0.0460770838 0.0335901491 0.218544543 0.0526239313 0.0270571541 0.217832446 0.0487752371 0.0355901122 0.203707218 0.0526239313 0.0270571541 0.217832446 0.0460770838 0.0335901491 0.218544543 0.0455710068 0.0248643178 0.231077194 0.0387740284 0.0216327626 0.235200882 0.0417844579 0.0119317546 0.239604533 0.0455710068 0.0248643178 0.231077194 0.0417844579 0.0119317546 0.239604533 0.0387740284 0.0216327626 0.235200882 0.00619200617 0.0203801692 0.239313185 0.00979328156 0.0306989066 0.230803251 0.0387740284 0.0216327626 0.235200882 0.0455710068 0.0248643178 0.231077194 0.0387740284 0.0216327626 0.235200882 0.00979328156 0.0306989066 0.230803251 0.00619200617 0.0203801692 0.239313185 0.051679235 0.00751806982 0.235109508 0.0417844579 0.0119317546 0.239604533 0.0443466119 -3.52978168e-05 0.241597414 0.051679235 0.00751806982 0.235109508 0.0443466119 -3.52978168e-05 0.241597414 0.0500330962 -0.00796104129 0.236630321 0.051679235 0.00751806982 0.235109508 0.0535971262 0.017396776 0.226378977 0.0455710068 0.0248643178 0.231077194 0.0417844579 0.0119317546 0.239604533 0.051679235 0.00751806982 0.235109508 0.0455710068 0.0248643178 0.231077194 0.0538297556 -0.00956222974 0.229110122 0.051679235 0.00751806982 0.235109508 0.0500330962 -0.00796104129 0.236630321 0.051679235 0.00751806982 0.235109508 0.0538297556 -0.00956222974 0.229110122 0.0535971262 0.017396776 0.226378977 0.034992177 -0.0307584833 0.180629432 0.0483274721 -0.0339408219 0.193172753 0.0260556825 -0.0368721448 0.189630747 0.034992177 -0.0307584833 0.180629432 0.0260556825 -0.0368721448 0.189630747 0.0341938138 -0.017521603 0.169286609 0.0392491743 -0.0165573098 0.169413805 0.034992177 -0.0307584833 0.180629432 0.0341938138 -0.017521603 0.169286609 0.0508912019 -0.0240159649 0.178963065 0.034992177 -0.0307584833 0.180629432 0.0392491743 -0.0165573098 0.169413805 0.049384281 0.0264464244 0.18026489 0.0420984514 0.0131652104 0.168680072 0.0332165062 0.0221337359 0.171942472 0.0420984514 0.0131652104 0.168680072 0.049384281 0.0264464244 0.18026489 0.0508745722 0.00916968286 0.17091924 0.0332165062 0.0221337359 0.171942472 0.0420984514 0.0131652104 0.168680072 0.0363695882 0.000823537586 0.165185094 0.0420984514 0.0131652104 0.168680072 0.0508745722 0.00916968286 0.17091924 0.0363695882 0.000823537586 0.165185094 0.0483258106 0.0339090116 0.193173051 0.0297366101 0.0317025073 0.181206703 0.0243032034 0.0383141972 0.194021165 0.049384281 0.0264464244 0.18026489 0.0297366101 0.0317025073 0.181206703 0.0483258106 0.0339090116 0.193173051 0.0297366101 0.0317025073 0.181206703 0.0332165062 0.0221337359 0.171942472 0.0243032034 0.0383141972 0.194021165 0.0297366101 0.0317025073 0.181206703 0.049384281 0.0264464244 0.18026489 0.0332165062 0.0221337359 0.171942472 0.0488137901 -0.0355866328 0.203717887 0.0428072624 -0.0360130295 0.211724162 0.0179214403 -0.0395639054 0.21000278 0.0465182625 -0.0324959382 0.220240355 0.0428072624 -0.0360130295 0.211724162 0.0488137901 -0.0355866328 0.203717887 0.0428072624 -0.0360130295 0.211724162 0.0194070246 -0.0358300582 0.221763909 0.0179214403 -0.0395639054 0.21000278 0.0428072624 -0.0360130295 0.211724162 0.0465182625 -0.0324959382 0.220240355 0.0194070246 -0.0358300582 0.221763909 0.0432073474 -0.024064105 0.232646465 0.0086686518 -0.0285511632 0.233347178 0.0194070246 -0.0358300582 0.221763909 0.0465182625 -0.0324959382 0.220240355 0.0432073474 -0.024064105 0.232646465 0.0194070246 -0.0358300582 0.221763909 0.0432073474 -0.024064105 0.232646465 0.0431113392 -0.0112013239 0.239431143 0.00546915969 -0.01743716 0.241096854 0.0086686518 -0.0285511632 0.233347178 0.0432073474 -0.024064105 0.232646465 0.00546915969 -0.01743716 0.241096854 0.0538307056 -0.0286319554 0.198238909 0.0526251607 -0.0270874314 0.217832744 0.0488137901 -0.0355866328 0.203717887 0.0526251607 -0.0270874314 0.217832744 0.0465182625 -0.0324959382 0.220240355 0.0488137901 -0.0355866328 0.203717887 0.0538297556 -0.00956222974 0.229110122 0.0526251607 -0.0270874314 0.217832744 0.0538307056 -0.0286319554 0.198238909 0.00619200617 0.0203801692 0.239313185 0.0187342595 0.0397235379 0.208238244 0.0243032034 0.0383141972 0.194021165 0.00979328156 0.0306989066 0.230803251 0.0187342595 0.0397235379 0.208238244 0.00619200617 0.0203801692 0.239313185 0.0243032034 0.0383141972 0.194021165 0.0187342595 0.0397235379 0.208238244 0.0487752371 0.0355901122 0.203707218 0.0187342595 0.0397235379 0.208238244 0.0460770838 0.0335901491 0.218544543 0.0487752371 0.0355901122 0.203707218 0.0483274721 -0.0339408219 0.193172753 0.0469729304 -0.0291156061 0.182914078 0.0508912019 -0.0240159649 0.178963065 0.0469729304 -0.0291156061 0.182914078 0.034992177 -0.0307584833 0.180629432 0.0508912019 -0.0240159649 0.178963065 0.034992177 -0.0307584833 0.180629432 0.0469729304 -0.0291156061 0.182914078 0.0483274721 -0.0339408219 0.193172753 0.0502221882 -0.0211005453 0.229895353 0.0432073474 -0.024064105 0.232646465 0.0465182625 -0.0324959382 0.220240355 0.0526251607 -0.0270874314 0.217832744 0.0502221882 -0.0211005453 0.229895353 0.0465182625 -0.0324959382 0.220240355 0.0431113392 -0.0112013239 0.239431143 0.0502221882 -0.0211005453 0.229895353 0.0500330962 -0.00796104129 0.236630321 0.0432073474 -0.024064105 0.232646465 0.0502221882 -0.0211005453 0.229895353 0.0431113392 -0.0112013239 0.239431143 0.0502221882 -0.0211005453 0.229895353 0.0538297556 -0.00956222974 0.229110122 0.0500330962 -0.00796104129 0.236630321 0.0502221882 -0.0211005453 0.229895353 0.0526251607 -0.0270874314 0.217832744 0.0538297556 -0.00956222974 0.229110122 0.0460770838 0.0335901491 0.218544543 0.0143556334 0.0369797163 0.219914913 0.00979328156 0.0306989066 0.230803251 0.0143556334 0.0369797163 0.219914913 0.0187342595 0.0397235379 0.208238244 0.00979328156 0.0306989066 0.230803251 0.0187342595 0.0397235379 0.208238244 0.0143556334 0.0369797163 0.219914913 0.0460770838 0.0335901491 0.218544543 </float_array>
          <technique_common>
            <accessor count="288" offset="0" source="#mesh_0-positions-array" stride="3">
              <param name="X" type="float" />
              <param name="Y" type="float" />
              <param name="Z" type="float" />
            </accessor>
          </technique_common>
        </source>
        <vertices id="mesh_0-vertices">
          <input semantic="POSITION" source="#mesh_0-positions" />
        </vertices>
        <polylist count="96" material="defaultMaterial">
          <input offset="0" semantic="VERTEX" source="#mesh_0-vertices" />
          <vcount>3 3 3 3 3 3 3 3 3 3 3 3 3 3 3 3 3 3 3 3 3 3 3 3 3 3 3 3 3 3 3 3 3 3 3 3 3 3 3 3 3 3 3 3 3 3 3 3 3 3 3 3 3 3 3 3 3 3 3 3 3 3 3 3 3 3 3 3 3 3 3 3 3 3 3 3 3 3 3 3 3 3 3 3 3 3 3 3 3 3 3 3 3 3 3 3 </vcount>
          <p>0 1 2 3 4 5 6 7 8 9 10 11 12 13 14 15 16 17 18 19 20 21 22 23 24 25 26 27 28 29 30 31 32 33 34 35 36 37 38 39 40 41 42 43 44 45 46 47 48 49 50 51 52 53 54 55 56 57 58 59 60 61 62 63 64 65 66 67 68 69 70 71 72 73 74 75 76 77 78 79 80 81 82 83 84 85 86 87 88 89 90 91 92 93 94 95 96 97 98 99 100 101 102 103 104 105 106 107 108 109 110 111 112 113 114 115 116 117 118 119 120 121 122 123 124 125 126 127 128 129 130 131 132 133 134 135 136 137 138 139 140 141 142 143 144 145 146 147 148 149 150 151 152 153 154 155 156 157 158 159 160 161 162 163 164 165 166 167 168 169 170 171 172 173 174 175 176 177 178 179 180 181 182 183 184 185 186 187 188 189 190 191 192 193 194 195 196 197 198 199 200 201 202 203 204 205 206 207 208 209 210 211 212 213 214 215 216 217 218 219 220 221 222 223 224 225 226 227 228 229 230 231 232 233 234 235 236 237 238 239 240 241 242 243 244 245 246 247 248 249 250 251 252 253 254 255 256 257 258 259 260 261 262 263 264 265 266 267 268 269 270 271 272 273 274 275 276 277 278 279 280 281 282 283 284 285 286 287 </p>
        </polylist>
      </mesh>
    </geometry>
  </library_geometries>
  <library_controllers>
  </library_controllers>
  <library_visual_scenes>
    <visual_scene id="Scene" name="Scene">
      <node id="node" name="" type="NODE">
        <matrix sid="matrix">1 0 0 0 0 1 0 0 0 0 1 0 0 0 0 1</matrix>
        <instance_geometry url="#mesh_0">
          <bind_material>
            <technique_common>
              <instance_material symbol="defaultMaterial" target="#material_0">
              </instance_material>
            </technique_common>
          </bind_material>
        </instance_geometry>
      </node>
    </visual_scene>
  </library_visual_scenes>
  <scene>
    <instance_visual_scene url="#Scene" />
  </scene>
</COLLADA>
