<?xml version="1.0" encoding="UTF-8" standalone="no" ?>
<COLLADA xmlns="http://www.collada.org/2005/11/COLLADASchema" version="1.4.1">
  <asset>
    <contributor>
      <author>Assimp</author>
      <authoring_tool>Assimp Exporter</authoring_tool>
    </contributor>
    <created>2025-11-12T11:09:31</created>
    <modified>2025-11-12T11:09:31</modified>
    <unit name="meter" meter="1" />
    <up_axis>Y_UP</up_axis>
  </asset>
  <library_images>
  </library_images>
  <library_effects>
    <effect id="material_0-fx" name="">
      <profile_COMMON>
        <technique sid="standard">
          <phong>
            <emission>
              <color sid="emission">0   0   0   4.28026616e-41</color>
            </emission>
            <ambient>
              <color sid="ambient">0.719165564   0.882352889   0.352941155   4.28026616e-41</color>
            </ambient>
            <diffuse>
              <color sid="diffuse">0.719165564   0.882352889   0.352941155   4.28026616e-41</color>
            </diffuse>
            <specular>
              <color sid="specular">0.529999971   0.529999971   0.529999971   4.28026616e-41</color>
            </specular>
          </phong>
        </technique>
      </profile_COMMON>
    </effect>
  </library_effects>
  <library_materials>
    <material id="material_0" name="">
      <instance_effect url="#material_0-fx"/>
    </material>
  </library_materials>
  <library_geometries>
    <geometry id="mesh_0" name="" >
      <mesh>
        <source id="mesh_0-positions" name="mesh_0-positions">
          <float_array id="mesh_0-positions-array" count="972"> 0.0328223817 0.0105802696 -0.029267136 -0.00269096764 -0.0374401957 0.00414138334 0.0341128521 -0.00366929523 -0.0305886902 -0.00748546468 0.0374198854 4.2849093e-05 0.00317720952 0.0372202098 -0.0016402672 -0.00398109714 0.0375249833 -0.0331819728 0.00317720952 0.0372202098 -0.0016402672 -0.00748546468 0.0374198854 4.2849093e-05 -0.00269096764 -0.0374401957 0.00414138334 0.0328223817 0.0105802696 -0.029267136 0.00317720952 0.0372202098 -0.0016402672 -0.00269096764 -0.0374401957 0.00414138334 -0.00269096764 -0.0374401957 0.00414138334 0.021530468 -0.0287138317 -0.018994635 0.0341128521 -0.00366929523 -0.0305886902 0.0310443807 0.0143055031 -0.0462301411 -0.0382464975 -0.0143957641 -0.0462304428 -0.0411010273 -4.50959596e-05 -0.0462304428 -0.0382464975 -0.0143957641 -0.0462304428 -0.040643204 -0.00725639472 -0.0300589297 -0.0411010273 -4.50959596e-05 -0.0462304428 0.0337858014 -0.00329795713 -0.038329903 0.0338988714 -4.51181913e-05 -0.0462300219 0.0341128521 -0.00366929523 -0.0305886902 -0.0196831301 0.0344171375 -0.0111508444 -0.0373097695 0.0177194476 -0.0262286142 -0.00748546468 0.0374198854 4.2849093e-05 -0.0141353589 0.0360190645 -0.0334123448 -0.0196831301 0.0344171375 -0.0111508444 -0.00748546468 0.0374198854 4.2849093e-05 -0.0196831301 0.0344171375 -0.0111508444 -0.0179517921 0.0346003808 -0.0462302044 -0.0244213417 0.0311309043 -0.033364065 -0.0196831301 0.0344171375 -0.0111508444 -0.0141353589 0.0360190645 -0.0334123448 -0.0179517921 0.0346003808 -0.0462302044 -0.0179517921 0.0346003808 -0.0462302044 -0.0301176198 0.0264714006 -0.046229966 -0.0244213417 0.0311309043 -0.033364065 0.0328223817 0.0105802696 -0.029267136 0.0304277577 0.0158194546 -0.0330797471 0.0262537468 0.0234722737 -0.023453122 -0.0179517921 0.0346003808 -0.0462302044 0.0107495133 0.0346003771 -0.0462300256 0.0310443807 0.0143055031 -0.0462301411 0.0158952475 0.0327994563 -0.0136776026 0.0328223817 0.0105802696 -0.029267136 0.0262537468 0.0234722737 -0.023453122 0.0158952475 0.0327994563 -0.0136776026 0.00317720952 0.0372202098 -0.0016402672 0.0328223817 0.0105802696 -0.029267136 0.0328223817 0.0105802696 -0.029267136 0.0338163339 0.00310483994 -0.0383296646 0.0310443807 0.0143055031 -0.0462301411 0.0338163339 0.00310483994 -0.0383296646 0.0338988714 -4.51181913e-05 -0.0462300219 0.0310443807 0.0143055031 -0.0462301411 0.0338988714 -4.51181913e-05 -0.0462300219 0.0338163339 0.00310483994 -0.0383296646 0.0341128521 -0.00366929523 -0.0305886902 -0.0382464975 -0.0143957641 -0.0462304428 -0.00360110495 -0.0375451073 -0.046229966 -0.0301176328 -0.0265615992 -0.0462301448 0.0107495179 -0.0346905813 -0.0462300256 -0.00360110495 -0.0375451073 -0.046229966 -0.0382464975 -0.0143957641 -0.0462304428 -0.00242220075 -0.0377146043 -0.0326199606 0.0100087635 -0.0356740654 -0.00812495314 -0.00269096764 -0.0374401957 0.00414138334 0.0100087635 -0.0356740654 -0.00812495314 0.0107495179 -0.0346905813 -0.0462300256 0.0171733554 -0.0313461125 -0.0332672037 0.0100087635 -0.0356740654 -0.00812495314 0.021530468 -0.0287138317 -0.018994635 -0.00269096764 -0.0374401957 0.00414138334 0.021530468 -0.0287138317 -0.018994635 0.0100087635 -0.0356740654 -0.00812495314 0.0171733554 -0.0313461125 -0.0332672037 0.0229153614 -0.0265616011 -0.0462301411 -0.0382464975 -0.0143957641 -0.0462304428 0.0310443807 0.0143055031 -0.0462301411 0.0229153614 -0.0265616011 -0.0462301411 0.0107495179 -0.0346905813 -0.0462300256 -0.0382464975 -0.0143957641 -0.0462304428 0.0338988714 -4.51181913e-05 -0.0462300219 0.0229153614 -0.0265616011 -0.0462301411 0.0310443807 0.0143055031 -0.0462301411 0.0107495179 -0.0346905813 -0.0462300256 0.0229153614 -0.0265616011 -0.0462301411 0.0171733554 -0.0313461125 -0.0332672037 0.0229153614 -0.0265616011 -0.0462301411 0.021530468 -0.0287138317 -0.018994635 0.0171733554 -0.0313461125 -0.0332672037 0.0229153614 -0.0265616011 -0.0462301411 0.0256229769 -0.0236702971 -0.0332618989 0.021530468 -0.0287138317 -0.018994635 -0.0369744487 -0.0181251802 -0.0261864141 -0.0408462323 0.00672262115 -0.0301401708 -0.040643204 -0.00725639472 -0.0300589297 -0.0408462323 0.00672262115 -0.0301401708 -0.0369744487 -0.0181251802 -0.0261864141 -0.0373097695 0.0177194476 -0.0262286142 -0.0369744487 -0.0181251802 -0.0261864141 -0.0382464975 -0.0143957641 -0.0462304428 -0.0301176328 -0.0265615992 -0.0462301448 -0.0292663593 -0.0279770978 -0.0199502185 -0.0369744487 -0.0181251802 -0.0261864141 -0.0301176328 -0.0265615992 -0.0462301448 -0.040643204 -0.00725639472 -0.0300589297 -0.0411009975 -4.51418709e-05 -0.0383805111 -0.0411010273 -4.50959596e-05 -0.0462304428 -0.0411009975 -4.51418709e-05 -0.0383805111 -0.0408462323 0.00672262115 -0.0301401708 -0.0411010273 -4.50959596e-05 -0.0462304428 -0.0408462323 0.00672262115 -0.0301401708 -0.0411009975 -4.51418709e-05 -0.0383805111 -0.040643204 -0.00725639472 -0.0300589297 -0.0196831301 0.0344171375 -0.0111508444 -0.0299008843 0.0272705629 -0.0205333307 -0.0373097695 0.0177194476 -0.0262286142 -0.0299008843 0.0272705629 -0.0205333307 -0.0196831301 0.0344171375 -0.0111508444 -0.0244213417 0.0311309043 -0.033364065 -0.0301176198 0.0264714006 -0.046229966 -0.0299008843 0.0272705629 -0.0205333307 -0.0244213417 0.0311309043 -0.033364065 -0.0301176198 0.0264714006 -0.046229966 -0.0382465348 0.0143054873 -0.0462303832 -0.0373097695 0.0177194476 -0.0262286142 -0.0408462323 0.00672262115 -0.0301401708 -0.0382465348 0.0143054873 -0.0462303832 -0.0411010273 -4.50959596e-05 -0.0462304428 -0.0382465348 0.0143054873 -0.0462303832 -0.0408462323 0.00672262115 -0.0301401708 -0.0373097695 0.0177194476 -0.0262286142 -0.0382465348 0.0143054873 -0.0462303832 -0.0301176198 0.0264714006 -0.046229966 -0.0179517921 0.0346003808 -0.0462302044 -0.0382465348 0.0143054873 -0.0462303832 0.0310443807 0.0143055031 -0.0462301411 -0.0411010273 -4.50959596e-05 -0.0462304428 -0.0382465348 0.0143054873 -0.0462303832 -0.0179517921 0.0346003808 -0.0462302044 0.0310443807 0.0143055031 -0.0462301411 0.0304277577 0.0158194546 -0.0330797471 0.0301208831 0.0164607298 -0.0383297838 0.0262537468 0.0234722737 -0.023453122 0.0301208831 0.0164607298 -0.0383297838 0.0328223817 0.0105802696 -0.029267136 0.0310443807 0.0143055031 -0.0462301411 0.0301208831 0.0164607298 -0.0383297838 0.0304277577 0.0158194546 -0.0330797471 0.0328223817 0.0105802696 -0.029267136 0.0107495133 0.0346003771 -0.0462300256 0.0229153652 0.0264713988 -0.0462299623 0.0310443807 0.0143055031 -0.0462301411 0.0229153652 0.0264713988 -0.0462299623 0.0218272451 0.027562594 -0.0383297242 0.0262537468 0.0234722737 -0.023453122 0.0229153652 0.0264713988 -0.0462299623 0.0158952475 0.0327994563 -0.0136776026 0.0218272451 0.027562594 -0.0383297242 0.0158952475 0.0327994563 -0.0136776026 0.0229153652 0.0264713988 -0.0462299623 0.0107495133 0.0346003771 -0.0462300256 0.0229153652 0.0264713988 -0.0462299623 0.0301208831 0.0164607298 -0.0383297838 0.0310443807 0.0143055031 -0.0462301411 0.0301208831 0.0164607298 -0.0383297838 0.0229153652 0.0264713988 -0.0462299623 0.0262537468 0.0234722737 -0.023453122 -0.00360107981 0.0374548994 -0.046229966 0.0107495133 0.0346003771 -0.0462300256 -0.0179517921 0.0346003808 -0.0462302044 -0.0141353589 0.0360190645 -0.0334123448 -0.00360107981 0.0374548994 -0.046229966 -0.0179517921 0.0346003808 -0.0462302044 0.00317720952 0.0372202098 -0.0016402672 -0.00360107981 0.0374548994 -0.046229966 -0.00398109714 0.0375249833 -0.0331819728 0.0107495133 0.0346003771 -0.0462300256 -0.00360107981 0.0374548994 -0.046229966 0.00317720952 0.0372202098 -0.0016402672 -0.00360107981 0.0374548994 -0.046229966 -0.00748546468 0.0374198854 4.2849093e-05 -0.00398109714 0.0375249833 -0.0331819728 -0.00360107981 0.0374548994 -0.046229966 -0.0141353589 0.0360190645 -0.0334123448 -0.00748546468 0.0374198854 4.2849093e-05 0.0218272451 0.027562594 -0.0383297242 0.0221741293 0.0272396561 -0.0330798067 0.0262537468 0.0234722737 -0.023453122 0.0221741293 0.0272396561 -0.0330798067 0.0158952475 0.0327994563 -0.0136776026 0.0262537468 0.0234722737 -0.023453122 0.0158952475 0.0327994563 -0.0136776026 0.0221741293 0.0272396561 -0.0330798067 0.0218272451 0.027562594 -0.0383297242 0.0100679416 0.0348943733 -0.0383296646 0.0107495133 0.0346003771 -0.0462300256 0.00317720952 0.0372202098 -0.0016402672 0.0158952475 0.0327994563 -0.0136776026 0.0100679416 0.0348943733 -0.0383296646 0.00317720952 0.0372202098 -0.0016402672 0.0100679416 0.0348943733 -0.0383296646 0.0158952475 0.0327994563 -0.0136776026 0.0107495133 0.0346003771 -0.0462300256 0.021530468 -0.0287138317 -0.018994635 0.030029539 -0.0175267402 -0.0270188488 0.0341128521 -0.00366929523 -0.0305886902 0.0256229769 -0.0236702971 -0.0332618989 0.030029539 -0.0175267402 -0.0270188488 0.021530468 -0.0287138317 -0.018994635 0.0338770077 0.00205726316 -0.0323113836 0.0328223817 0.0105802696 -0.029267136 0.0341128521 -0.00366929523 -0.0305886902 0.0338163339 0.00310483994 -0.0383296646 0.0338770077 0.00205726316 -0.0323113836 0.0341128521 -0.00366929523 -0.0305886902 0.0338770077 0.00205726316 -0.0323113836 0.0338163339 0.00310483994 -0.0383296646 0.0328223817 0.0105802696 -0.029267136 -0.00360110495 -0.0375451073 -0.046229966 -0.0179517288 -0.0346905813 -0.046229966 -0.0301176328 -0.0265615992 -0.0462301448 -0.0179517288 -0.0346905813 -0.046229966 -0.0292663593 -0.0279770978 -0.0199502185 -0.0301176328 -0.0265615992 -0.0462301448 0.00885123573 -0.0355776735 -0.033042375 0.0100087635 -0.0356740654 -0.00812495314 -0.00242220075 -0.0377146043 -0.0326199606 0.0100087635 -0.0356740654 -0.00812495314 0.00885123573 -0.0355776735 -0.033042375 0.0107495179 -0.0346905813 -0.0462300256 -0.00360110495 -0.0375451073 -0.046229966 0.00885123573 -0.0355776735 -0.033042375 -0.00242220075 -0.0377146043 -0.0326199606 0.00885123573 -0.0355776735 -0.033042375 -0.00360110495 -0.0375451073 -0.046229966 0.0107495179 -0.0346905813 -0.0462300256 -0.0188206173 -0.0348908827 -0.0103592351 -0.0369744487 -0.0181251802 -0.0261864141 -0.0292663593 -0.0279770978 -0.0199502185 -0.0188206173 -0.0348908827 -0.0103592351 -0.0179517288 -0.0346905813 -0.046229966 -0.0175635461 -0.0348595418 -0.0383296683 -0.0179517288 -0.0346905813 -0.046229966 -0.0188206173 -0.0348908827 -0.0103592351 -0.0292663593 -0.0279770978 -0.0199502185 -0.0382464975 -0.0143957641 -0.0462304428 -0.0382465571 -0.0143957166 -0.0383800939 -0.040643204 -0.00725639472 -0.0300589297 -0.0382465571 -0.0143957166 -0.0383800939 -0.0369744487 -0.0181251802 -0.0261864141 -0.040643204 -0.00725639472 -0.0300589297 -0.0369744487 -0.0181251802 -0.0261864141 -0.0382465571 -0.0143957166 -0.0383800939 -0.0382464975 -0.0143957641 -0.0462304428 -0.0331782177 0.022901658 -0.03290952 -0.0301176198 0.0264714006 -0.046229966 -0.0373097695 0.0177194476 -0.0262286142 -0.0299008843 0.0272705629 -0.0205333307 -0.0331782177 0.022901658 -0.03290952 -0.0373097695 0.0177194476 -0.0262286142 -0.0331782177 0.022901658 -0.03290952 -0.0299008843 0.0272705629 -0.0205333307 -0.0301176198 0.0264714006 -0.046229966 0.0310443919 -0.0143957464 -0.0462299623 0.0229153614 -0.0265616011 -0.0462301411 0.0338988714 -4.51181913e-05 -0.0462300219 0.0310443919 -0.0143957464 -0.0462299623 0.0338988714 -4.51181913e-05 -0.0462300219 0.0337858014 -0.00329795713 -0.038329903 0.0310443919 -0.0143957464 -0.0462299623 0.0337858014 -0.00329795713 -0.038329903 0.0341128521 -0.00366929523 -0.0305886902 -0.0188206173 -0.0348908827 -0.0103592351 -0.00647730054 -0.0375413783 0.000967853237 -0.0369744487 -0.0181251802 -0.0261864141 -0.0369744487 -0.0181251802 -0.0261864141 -0.00647730054 -0.0375413783 0.000967853237 -0.0373097695 0.0177194476 -0.0262286142 -0.00647730054 -0.0375413783 0.000967853237 -0.00242220075 -0.0377146043 -0.0326199606 -0.00269096764 -0.0374401957 0.00414138334 -0.00748546468 0.0374198854 4.2849093e-05 -0.00647730054 -0.0375413783 0.000967853237 -0.00269096764 -0.0374401957 0.00414138334 -0.0373097695 0.0177194476 -0.0262286142 -0.00647730054 -0.0375413783 0.000967853237 -0.00748546468 0.0374198854 4.2849093e-05 -0.00647730054 -0.0375413783 0.000967853237 -0.00360110495 -0.0375451073 -0.046229966 -0.00242220075 -0.0377146043 -0.0326199606 -0.00647730054 -0.0375413783 0.000967853237 -0.0188206173 -0.0348908827 -0.0103592351 -0.0175635461 -0.0348595418 -0.0383296683 -0.0179517288 -0.0346905813 -0.046229966 -0.00647730054 -0.0375413783 0.000967853237 -0.0175635461 -0.0348595418 -0.0383296683 -0.00647730054 -0.0375413783 0.000967853237 -0.0179517288 -0.0346905813 -0.046229966 -0.00360110495 -0.0375451073 -0.046229966 0.0301208925 -0.0165510438 -0.0383298434 0.030029539 -0.0175267402 -0.0270188488 0.0256229769 -0.0236702971 -0.0332618989 0.0301208925 -0.0165510438 -0.0383298434 0.0310443919 -0.0143957464 -0.0462299623 0.030029539 -0.0175267402 -0.0270188488 0.0229153614 -0.0265616011 -0.0462301411 0.0301208925 -0.0165510438 -0.0383298434 0.0256229769 -0.0236702971 -0.0332618989 0.0310443919 -0.0143957464 -0.0462299623 0.0301208925 -0.0165510438 -0.0383298434 0.0229153614 -0.0265616011 -0.0462301411 0.030029539 -0.0175267402 -0.0270188488 0.0323572718 -0.01093313 -0.0332614817 0.0341128521 -0.00366929523 -0.0305886902 0.0323572718 -0.01093313 -0.0332614817 0.0310443919 -0.0143957464 -0.0462299623 0.0341128521 -0.00366929523 -0.0305886902 0.0310443919 -0.0143957464 -0.0462299623 0.0323572718 -0.01093313 -0.0332614817 0.030029539 -0.0175267402 -0.0270188488 </float_array>
          <technique_common>
            <accessor count="324" offset="0" source="#mesh_0-positions-array" stride="3">
              <param name="X" type="float" />
              <param name="Y" type="float" />
              <param name="Z" type="float" />
            </accessor>
          </technique_common>
        </source>
        <vertices id="mesh_0-vertices">
          <input semantic="POSITION" source="#mesh_0-positions" />
        </vertices>
        <polylist count="108" material="defaultMaterial">
          <input offset="0" semantic="VERTEX" source="#mesh_0-vertices" />
          <vcount>3 3 3 3 3 3 3 3 3 3 3 3 3 3 3 3 3 3 3 3 3 3 3 3 3 3 3 3 3 3 3 3 3 3 3 3 3 3 3 3 3 3 3 3 3 3 3 3 3 3 3 3 3 3 3 3 3 3 3 3 3 3 3 3 3 3 3 3 3 3 3 3 3 3 3 3 3 3 3 3 3 3 3 3 3 3 3 3 3 3 3 3 3 3 3 3 3 3 3 3 3 3 3 3 3 3 3 3 </vcount>
          <p>0 1 2 3 4 5 6 7 8 9 10 11 12 13 14 15 16 17 18 19 20 21 22 23 24 25 26 27 28 29 30 31 32 33 34 35 36 37 38 39 40 41 42 43 44 45 46 47 48 49 50 51 52 53 54 55 56 57 58 59 60 61 62 63 64 65 66 67 68 69 70 71 72 73 74 75 76 77 78 79 80 81 82 83 84 85 86 87 88 89 90 91 92 93 94 95 96 97 98 99 100 101 102 103 104 105 106 107 108 109 110 111 112 113 114 115 116 117 118 119 120 121 122 123 124 125 126 127 128 129 130 131 132 133 134 135 136 137 138 139 140 141 142 143 144 145 146 147 148 149 150 151 152 153 154 155 156 157 158 159 160 161 162 163 164 165 166 167 168 169 170 171 172 173 174 175 176 177 178 179 180 181 182 183 184 185 186 187 188 189 190 191 192 193 194 195 196 197 198 199 200 201 202 203 204 205 206 207 208 209 210 211 212 213 214 215 216 217 218 219 220 221 222 223 224 225 226 227 228 229 230 231 232 233 234 235 236 237 238 239 240 241 242 243 244 245 246 247 248 249 250 251 252 253 254 255 256 257 258 259 260 261 262 263 264 265 266 267 268 269 270 271 272 273 274 275 276 277 278 279 280 281 282 283 284 285 286 287 288 289 290 291 292 293 294 295 296 297 298 299 300 301 302 303 304 305 306 307 308 309 310 311 312 313 314 315 316 317 318 319 320 321 322 323 </p>
        </polylist>
      </mesh>
    </geometry>
  </library_geometries>
  <library_controllers>
  </library_controllers>
  <library_visual_scenes>
    <visual_scene id="Scene" name="Scene">
      <node id="node" name="" type="NODE">
        <matrix sid="matrix">1 0 0 0 0 1 0 0 0 0 1 0 0 0 0 1</matrix>
        <instance_geometry url="#mesh_0">
          <bind_material>
            <technique_common>
              <instance_material symbol="defaultMaterial" target="#material_0">
              </instance_material>
            </technique_common>
          </bind_material>
        </instance_geometry>
      </node>
    </visual_scene>
  </library_visual_scenes>
  <scene>
    <instance_visual_scene url="#Scene" />
  </scene>
</COLLADA>
