<?xml version="1.0" encoding="UTF-8" standalone="no" ?>
<COLLADA xmlns="http://www.collada.org/2005/11/COLLADASchema" version="1.4.1">
  <asset>
    <contributor>
      <author>Assimp</author>
      <authoring_tool>Assimp Exporter</authoring_tool>
    </contributor>
    <created>2025-11-12T11:09:31</created>
    <modified>2025-11-12T11:09:31</modified>
    <unit name="meter" meter="1" />
    <up_axis>Y_UP</up_axis>
  </asset>
  <library_images>
  </library_images>
  <library_effects>
    <effect id="material_0-fx" name="">
      <profile_COMMON>
        <technique sid="standard">
          <phong>
            <emission>
              <color sid="emission">0   0   0   4.28026616e-41</color>
            </emission>
            <ambient>
              <color sid="ambient">0.282352924   0.282352924   0.282352924   4.28026616e-41</color>
            </ambient>
            <diffuse>
              <color sid="diffuse">0.282352924   0.282352924   0.282352924   4.28026616e-41</color>
            </diffuse>
            <specular>
              <color sid="specular">0.150000006   0.150000006   0.150000006   4.28026616e-41</color>
            </specular>
          </phong>
        </technique>
      </profile_COMMON>
    </effect>
  </library_effects>
  <library_materials>
    <material id="material_0" name="">
      <instance_effect url="#material_0-fx"/>
    </material>
  </library_materials>
  <library_geometries>
    <geometry id="mesh_0" name="" >
      <mesh>
        <source id="mesh_0-positions" name="mesh_0-positions">
          <float_array id="mesh_0-positions-array" count="288"> 4.70340922e-09 -0.057999935 0.00235006586 0.0221956056 -0.0535849556 0.00235006586 3.42197595e-08 -0.0579999648 0.0146500133 3.42197595e-08 -0.0579999648 0.0146500133 0.0221956056 -0.0535849556 0.00235006586 0.0221956335 -0.0535849854 0.0146500133 0.0221956335 -0.0535849854 0.0146500133 0.0221956056 -0.0535849556 0.00235006586 0.0410122164 -0.0410121754 0.0146500729 0.0410122164 -0.0410121754 0.0146500729 0.0221956056 -0.0535849556 0.00235006586 0.041012127 -0.0410121456 0.00235006586 0.0535850711 -0.0221955907 0.0146500133 0.041012127 -0.0410121456 0.00235006586 0.0535849817 -0.0221956186 0.00235006586 0.0580000281 2.30452422e-08 0.0146500133 0.0535849817 -0.0221956186 0.00235006586 0.0579999387 -5.90187099e-09 0.00235006586 0.0535849892 0.0221956838 0.0146500133 0.0579999387 -5.90187099e-09 0.00235006586 0.053585019 0.022195654 0.00235006586 0.0410121642 0.0410122201 0.0146500282 0.053585019 0.022195654 0.00235006586 0.0410121642 0.0410121009 0.00235005096 0.0221956391 0.0535850748 0.0146500282 0.0410121642 0.0410121009 0.00235005096 0.0221956689 0.053585045 0.00235008076 2.52418992e-08 0.0580000319 0.0146500282 0.0221956689 0.053585045 0.00235008076 5.47582459e-08 0.0580000021 0.00235008076 2.52418992e-08 0.0580000319 0.0146500282 0.0221956391 0.0535850748 0.0146500282 0.0221956689 0.053585045 0.00235008076 0.0221956391 0.0535850748 0.0146500282 0.0410121642 0.0410122201 0.0146500282 0.0410121642 0.0410121009 0.00235005096 0.0410121642 0.0410122201 0.0146500282 0.0535849892 0.0221956838 0.0146500133 0.053585019 0.022195654 0.00235006586 0.0535849892 0.0221956838 0.0146500133 0.0580000281 2.30452422e-08 0.0146500133 0.0579999387 -5.90187099e-09 0.00235006586 0.0580000281 2.30452422e-08 0.0146500133 0.0535850711 -0.0221955907 0.0146500133 0.0535849817 -0.0221956186 0.00235006586 0.0535850711 -0.0221955907 0.0146500133 0.0410122164 -0.0410121754 0.0146500729 0.041012127 -0.0410121456 0.00235006586 2.52418992e-08 0.0580000319 0.0146500282 5.47582459e-08 0.0580000021 0.00235008076 -0.0221956633 0.0535850823 0.0146500599 -0.0221956633 0.0535850823 0.0146500599 5.47582459e-08 0.0580000021 0.00235008076 -0.0221956652 0.0535850227 0.00235008076 -0.0410121568 0.0410121828 0.0146500282 -0.0221956652 0.0535850227 0.00235008076 -0.0410121866 0.0410122126 0.00235008076 -0.0535849817 0.0221956279 0.0146500003 -0.0410121866 0.0410122126 0.00235008076 -0.0535849817 0.0221956279 0.00235008076 -0.0579999983 7.39539274e-08 0.0146500003 -0.0535849817 0.0221956279 0.00235008076 -0.0579999983 1.43520005e-08 0.00235002115 -0.0535849594 -0.0221955869 0.0146500003 -0.0579999983 1.43520005e-08 0.00235002115 -0.053585019 -0.0221955851 0.00235002115 -0.0410122089 -0.0410121679 0.0146500003 -0.053585019 -0.0221955851 0.00235002115 -0.0410121195 -0.0410121381 0.00235005096 -0.0221956372 -0.0535849482 0.0146500133 -0.0410121195 -0.0410121381 0.00235005096 -0.022195667 -0.0535849184 0.00235006586 3.42197595e-08 -0.0579999648 0.0146500133 -0.022195667 -0.0535849184 0.00235006586 4.70340922e-09 -0.057999935 0.00235006586 3.42197595e-08 -0.0579999648 0.0146500133 -0.0221956372 -0.0535849482 0.0146500133 -0.022195667 -0.0535849184 0.00235006586 -0.0221956372 -0.0535849482 0.0146500133 -0.0410122089 -0.0410121679 0.0146500003 -0.0410121195 -0.0410121381 0.00235005096 -0.0410122089 -0.0410121679 0.0146500003 -0.0535849594 -0.0221955869 0.0146500003 -0.053585019 -0.0221955851 0.00235002115 -0.0535849594 -0.0221955869 0.0146500003 -0.0579999983 7.39539274e-08 0.0146500003 -0.0579999983 1.43520005e-08 0.00235002115 -0.0579999983 7.39539274e-08 0.0146500003 -0.0535849817 0.0221956279 0.0146500003 -0.0535849817 0.0221956279 0.00235008076 -0.0535849817 0.0221956279 0.0146500003 -0.0410121568 0.0410121828 0.0146500282 -0.0410121866 0.0410122126 0.00235008076 -0.0410121568 0.0410121828 0.0146500282 -0.0221956633 0.0535850823 0.0146500599 -0.0221956652 0.0535850227 0.00235008076 </float_array>
          <technique_common>
            <accessor count="96" offset="0" source="#mesh_0-positions-array" stride="3">
              <param name="X" type="float" />
              <param name="Y" type="float" />
              <param name="Z" type="float" />
            </accessor>
          </technique_common>
        </source>
        <vertices id="mesh_0-vertices">
          <input semantic="POSITION" source="#mesh_0-positions" />
        </vertices>
        <polylist count="32" material="defaultMaterial">
          <input offset="0" semantic="VERTEX" source="#mesh_0-vertices" />
          <vcount>3 3 3 3 3 3 3 3 3 3 3 3 3 3 3 3 3 3 3 3 3 3 3 3 3 3 3 3 3 3 3 3 </vcount>
          <p>0 1 2 3 4 5 6 7 8 9 10 11 12 13 14 15 16 17 18 19 20 21 22 23 24 25 26 27 28 29 30 31 32 33 34 35 36 37 38 39 40 41 42 43 44 45 46 47 48 49 50 51 52 53 54 55 56 57 58 59 60 61 62 63 64 65 66 67 68 69 70 71 72 73 74 75 76 77 78 79 80 81 82 83 84 85 86 87 88 89 90 91 92 93 94 95 </p>
        </polylist>
      </mesh>
    </geometry>
  </library_geometries>
  <library_controllers>
  </library_controllers>
  <library_visual_scenes>
    <visual_scene id="Scene" name="Scene">
      <node id="node" name="" type="NODE">
        <matrix sid="matrix">1 0 0 0 0 1 0 0 0 0 1 0 0 0 0 1</matrix>
        <instance_geometry url="#mesh_0">
          <bind_material>
            <technique_common>
              <instance_material symbol="defaultMaterial" target="#material_0">
              </instance_material>
            </technique_common>
          </bind_material>
        </instance_geometry>
      </node>
    </visual_scene>
  </library_visual_scenes>
  <scene>
    <instance_visual_scene url="#Scene" />
  </scene>
</COLLADA>
