<?xml version="1.0" encoding="UTF-8" standalone="no" ?>
<COLLADA xmlns="http://www.collada.org/2005/11/COLLADASchema" version="1.4.1">
  <asset>
    <contributor>
      <author>Assimp</author>
      <authoring_tool>Assimp Exporter</authoring_tool>
    </contributor>
    <created>2025-11-12T11:09:31</created>
    <modified>2025-11-12T11:09:31</modified>
    <unit name="meter" meter="1" />
    <up_axis>Y_UP</up_axis>
  </asset>
  <library_images>
  </library_images>
  <library_effects>
    <effect id="material_0-fx" name="">
      <profile_COMMON>
        <technique sid="standard">
          <phong>
            <emission>
              <color sid="emission">0   0   0   4.28026616e-41</color>
            </emission>
            <ambient>
              <color sid="ambient">0.535294116   0.535294116   0.535294116   4.28026616e-41</color>
            </ambient>
            <diffuse>
              <color sid="diffuse">0.535294116   0.535294116   0.535294116   4.28026616e-41</color>
            </diffuse>
            <specular>
              <color sid="specular">0.140000001   0.140000001   0.140000001   4.28026616e-41</color>
            </specular>
          </phong>
        </technique>
      </profile_COMMON>
    </effect>
  </library_effects>
  <library_materials>
    <material id="material_0" name="">
      <instance_effect url="#material_0-fx"/>
    </material>
  </library_materials>
  <library_geometries>
    <geometry id="mesh_0" name="" >
      <mesh>
        <source id="mesh_0-positions" name="mesh_0-positions">
          <float_array id="mesh_0-positions-array" count="3492"> -0.0122806299 0.0579997636 -0.00428497419 0.00261380873 0.0578223132 -0.0042849523 0.00358302169 0.0579906628 -0.0113336528 -0.0160791185 0.0542533174 -0.0297937877 0.00358302169 0.0579906628 -0.0113336528 -0.0116745429 0.0548600666 -0.0347672999 -0.0238117538 0.0490445569 -0.0426429287 -0.0160791185 0.0542533174 -0.0297937877 -0.0116745429 0.0548600666 -0.0347672999 -0.0238117538 0.0490445569 -0.0426429287 -0.0339134671 0.0421691835 -0.0465448163 -0.0160791185 0.0542533174 -0.0297937877 -0.0238117538 0.0490445569 -0.0426429287 -0.0344105773 0.0404563211 -0.0502069034 -0.0339134671 0.0421691835 -0.0465448163 -0.0339134671 0.0421691835 -0.0465448163 -0.0344105773 0.0404563211 -0.0502069034 -0.0429761857 0.0291780997 -0.0568765663 -0.046787113 0.0225920174 -0.0586474426 -0.0429761857 0.0291780997 -0.0568765663 -0.0487589762 0.0154331839 -0.0619049817 -0.0505003333 0.00949795917 -0.0621422045 -0.0487589762 0.0154331839 -0.0619049817 -0.0509244986 -3.46975852e-08 -0.0635310709 -0.0511262827 5.6223306e-09 -0.0630905405 -0.0505003333 0.00949795917 -0.0621422045 -0.0509244986 -3.46975852e-08 -0.0635310709 -0.0511262827 5.6223306e-09 -0.0630905405 -0.0514378026 -5.56106166e-08 -0.0627265722 -0.0505003333 0.00949795917 -0.0621422045 -0.0505003333 0.00949795917 -0.0621422045 -0.0514378026 -5.56106166e-08 -0.0627265722 -0.0518372804 -4.75644804e-08 -0.0624594688 -0.0522785038 0.00949797872 -0.0614689216 -0.0518372804 -4.75644804e-08 -0.0624594688 -0.0528129749 -6.36859312e-08 -0.0622760914 -0.0538499877 -7.4697887e-08 -0.0622849464 -0.0522785038 0.00949797872 -0.0614689216 -0.0528129749 -6.36859312e-08 -0.0622760914 -0.0538499877 -7.4697887e-08 -0.0622849464 -0.0538499951 0.0221955925 -0.0578699671 -0.0522785038 0.00949797872 -0.0614689216 -0.0522785038 0.00949797872 -0.0614689216 -0.0538499951 0.0221955925 -0.0578699671 -0.0505810678 0.0225920528 -0.0575707853 -0.0505003333 0.00949795917 -0.0621422045 -0.0505810678 0.0225920528 -0.0575707853 -0.046787113 0.0225920174 -0.0586474426 -0.0487589762 0.0154331839 -0.0619049817 -0.0505003333 0.00949795917 -0.0621422045 -0.046787113 0.0225920174 -0.0586474426 0.0059123612 0.0579867437 -0.0297905318 0.00555554125 0.057977993 -0.0294325966 0.00662156334 0.0579975545 -0.028723374 0.00634311186 0.0579943247 -0.029690424 0.0059123612 0.0579867437 -0.0297905318 0.00662156334 0.0579975545 -0.028723374 0.00634311186 0.0579943247 -0.029690424 0.00602661213 0.0579890423 -0.0298469495 0.0059123612 0.0579867437 -0.0297905318 0.00634311186 0.0579943247 -0.029690424 0.00615333626 0.0579913817 -0.0298528541 0.00602661213 0.0579890423 -0.0298469495 0.00634311186 0.0579943247 -0.029690424 0.00626318203 0.0579932295 -0.0297902096 0.00615333626 0.0579913817 -0.0298528541 0.00662156334 0.0579975545 -0.028723374 0.0049659973 0.05795886 -0.028610779 0.00674256962 0.0579985268 -0.0277291425 0.00662156334 0.0579975545 -0.028723374 0.00555554125 0.057977993 -0.0294325966 0.0049659973 0.05795886 -0.028610779 0.0049659973 0.05795886 -0.028610779 0.00375921209 0.0579007268 -0.0269894172 0.00674256962 0.0579985268 -0.0277291425 0.00674256962 0.0579985268 -0.0277291425 0.00375921209 0.0579007268 -0.0269894172 0.00678964239 0.0579988435 -0.0197156239 0.00678964239 0.0579988435 -0.0197156239 0.00375921209 0.0579007268 -0.0269894172 0.0036425041 0.0578938015 -0.026946513 0.00351831992 0.0578861311 -0.0269360263 0.00678964239 0.0579988435 -0.0197156239 0.0036425041 0.0578938015 -0.026946513 0.00351831992 0.0578861311 -0.0269360263 0.00327193737 0.0578701384 -0.0269578137 0.00678964239 0.0579988435 -0.0197156239 0.00678964239 0.0579988435 -0.0197156239 0.00327193737 0.0578701384 -0.0269578137 0.00279120007 0.0578359254 -0.0270710774 0.00186342641 0.0577585287 -0.0273980629 0.00678964239 0.0579988435 -0.0197156239 0.00279120007 0.0578359254 -0.0270710774 0.00186342641 0.0577585287 -0.0273980629 0.00358302169 0.0579906628 -0.0113336528 0.00678964239 0.0579988435 -0.0197156239 0.00186342641 0.0577585287 -0.0273980629 -0.0116745429 0.0548600666 -0.0347672999 0.00358302169 0.0579906628 -0.0113336528 -0.0487589762 0.0154331839 -0.0619049817 -0.0508499891 -5.91480394e-08 -0.0640268475 -0.0509244986 -3.46975852e-08 -0.0635310709 -0.0538499951 0.0221955925 -0.0578699671 -0.0538499802 0.0410121381 -0.0452971458 -0.0505810678 0.0225920528 -0.0575707853 -0.0505810678 0.0225920528 -0.0575707853 -0.0538499802 0.0410121381 -0.0452971458 -0.044709444 0.0421693027 -0.04384638 -0.046787113 0.0225920174 -0.0586474426 -0.044709444 0.0421693027 -0.04384638 -0.0339134671 0.0421691835 -0.0465448163 -0.0429761857 0.0291780997 -0.0568765663 -0.046787113 0.0225920174 -0.0586474426 -0.0339134671 0.0421691835 -0.0465448163 -0.0538499802 0.0410121381 -0.0452971458 -0.0538499728 0.0535849445 -0.0264806096 -0.044709444 0.0421693027 -0.04384638 -0.044709444 0.0421693027 -0.04384638 -0.0538499728 0.0535849445 -0.0264806096 -0.0365900956 0.0542534813 -0.0246012937 -0.0339134671 0.0421691835 -0.0465448163 -0.0365900956 0.0542534813 -0.0246012937 -0.0160791185 0.0542533174 -0.0297937877 -0.0339134671 0.0421691835 -0.0465448163 -0.044709444 0.0421693027 -0.04384638 -0.0365900956 0.0542534813 -0.0246012937 -0.0538499728 0.0535849445 -0.0264806096 -0.0538457744 0.0579999797 -0.00428496674 -0.0365900956 0.0542534813 -0.0246012937 -0.0365900956 0.0542534813 -0.0246012937 -0.0538457744 0.0579999797 -0.00428496674 -0.0405114628 0.0579999685 -0.00428497186 -0.0271771345 0.0579999648 -0.00428496394 -0.0365900956 0.0542534813 -0.0246012937 -0.0405114628 0.0579999685 -0.00428497186 -0.0271771345 0.0579999648 -0.00428496394 -0.0122806299 0.0579997636 -0.00428497419 -0.0365900956 0.0542534813 -0.0246012937 -0.0365900956 0.0542534813 -0.0246012937 -0.0122806299 0.0579997636 -0.00428497419 -0.0160791185 0.0542533174 -0.0297937877 -0.0160791185 0.0542533174 -0.0297937877 -0.0122806299 0.0579997636 -0.00428497419 0.00358302169 0.0579906628 -0.0113336528 -0.0518372804 -4.75644804e-08 -0.0624594688 -0.0522785038 0.00949797872 -0.0614689216 -0.0505003333 0.00949795917 -0.0621422045 -0.0505003333 0.00949795917 -0.0621422045 -0.0522785038 0.00949797872 -0.0614689216 -0.0505810678 0.0225920528 -0.0575707853 -0.0505810678 0.0225920528 -0.0575707853 -0.044709444 0.0421693027 -0.04384638 -0.046787113 0.0225920174 -0.0586474426 0.00358302169 0.0579906628 -0.0113336528 0.00261380873 0.0578223132 -0.0042849523 0.00678964239 0.0579988435 -0.0197156239 -0.0538499765 -0.0580000989 -0.00428496534 -0.0591499768 -0.0580000356 -0.00428495463 -0.0538499765 -0.053585019 -0.026480604 -0.0538499765 -0.053585019 -0.026480604 -0.0591499768 -0.0580000356 -0.00428495463 -0.0591499805 -0.0535850041 -0.0264805965 -0.0538499765 -0.0410122201 -0.0452971384 -0.0591499805 -0.0535850041 -0.0264805965 -0.0591499656 -0.0410122052 -0.0452971458 -0.0538499765 -0.0221957006 -0.0578699596 -0.0591499656 -0.0410122052 -0.0452971458 -0.0591499805 -0.0221957713 -0.0578699708 -0.0538499877 -7.4697887e-08 -0.0622849464 -0.0591499805 -0.0221957713 -0.0578699708 -0.0591499768 -1.3410915e-08 -0.0622849539 -0.0538499951 0.0221955925 -0.0578699671 -0.0591499768 -1.3410915e-08 -0.0622849539 -0.0591499805 0.0221956074 -0.0578699633 -0.0538499802 0.0410121381 -0.0452971458 -0.0591499805 0.0221956074 -0.0578699633 -0.0591499805 0.041012153 -0.0452971384 -0.0538499728 0.0535849445 -0.0264806096 -0.0591499805 0.041012153 -0.0452971384 -0.0591499805 0.0535849594 -0.0264805965 -0.0538457744 0.0579999797 -0.00428496674 -0.0591499805 0.0535849594 -0.0264805965 -0.0591499768 0.0579999313 -0.00428497978 -0.0538457744 0.0579999797 -0.00428496674 -0.0538499728 0.0535849445 -0.0264806096 -0.0591499805 0.0535849594 -0.0264805965 -0.0538499728 0.0535849445 -0.0264806096 -0.0538499802 0.0410121381 -0.0452971458 -0.0591499805 0.041012153 -0.0452971384 -0.0538499802 0.0410121381 -0.0452971458 -0.0538499951 0.0221955925 -0.0578699671 -0.0591499805 0.0221956074 -0.0578699633 -0.0538499951 0.0221955925 -0.0578699671 -0.0538499877 -7.4697887e-08 -0.0622849464 -0.0591499768 -1.3410915e-08 -0.0622849539 -0.0538499877 -7.4697887e-08 -0.0622849464 -0.0538499765 -0.0221957006 -0.0578699596 -0.0591499805 -0.0221957713 -0.0578699708 -0.0538499765 -0.0221957006 -0.0578699596 -0.0538499765 -0.0410122201 -0.0452971384 -0.0591499656 -0.0410122052 -0.0452971458 -0.0538499765 -0.0410122201 -0.0452971384 -0.0538499765 -0.053585019 -0.026480604 -0.0591499805 -0.0535850041 -0.0264805965 -0.0561499745 -0.00315005821 0.0536294132 -0.0591499768 -0.00315001654 0.0536294505 -0.0538499877 -0.0236785784 0.0486614816 -0.0548970215 -0.00289008999 0.0536429882 -0.0538499877 -0.0236785784 0.0486614816 -0.0538499914 -0.00215239031 0.0536750294 -0.0548970215 -0.00289008999 0.0536429882 -0.0561499745 -0.00315005821 0.0536294132 -0.0538499877 -0.0236785784 0.0486614816 -0.0591499768 -0.0580000356 -0.00428495463 -0.0538499765 -0.0580000989 -0.00428496534 -0.0591499731 -0.053881567 0.0171807427 -0.0591499731 -0.053881567 0.0171807427 -0.0538499765 -0.0580000989 -0.00428496534 -0.0538499802 -0.0537886992 0.017412506 -0.0591499656 -0.0421111658 0.0355979651 -0.0538499802 -0.0537886992 0.017412506 -0.0538499802 -0.0417663604 0.035959065 -0.0591499805 -0.024360342 0.0483512692 -0.0538499802 -0.0417663604 0.035959065 -0.0538499877 -0.0236785784 0.0486614816 -0.0591499768 -0.00315001654 0.0536294505 -0.0591499805 -0.024360342 0.0483512692 -0.0538499877 -0.0236785784 0.0486614816 -0.0591499656 -0.0421111658 0.0355979651 -0.0591499731 -0.053881567 0.0171807427 -0.0538499802 -0.0537886992 0.017412506 -0.0538499802 -0.0417663604 0.035959065 -0.0591499805 -0.024360342 0.0483512692 -0.0591499656 -0.0421111658 0.0355979651 -0.0478146262 -0.0185172949 0.0524465591 -0.0507178009 -0.00391364051 0.0552968942 -0.0510617606 -4.47394335e-08 0.0546294674 -0.0476369783 -0.0214435235 0.0501118675 -0.0510617606 -4.47394335e-08 0.0546294674 -0.0515414588 -2.30102444e-08 0.0540713705 -0.0518592596 -6.85168402e-08 0.053879045 -0.0476369783 -0.0214435235 0.0501118675 -0.0515414588 -2.30102444e-08 0.0540713705 -0.0518592596 -6.85168402e-08 0.053879045 -0.0522173531 -2.29023485e-08 0.0537608229 -0.0476369783 -0.0214435235 0.0501118675 -0.0476369783 -0.0214435235 0.0501118675 -0.0522173531 -2.29023485e-08 0.0537608229 -0.0511569344 -0.0214436185 0.049490992 -0.046655789 -0.0399173908 0.0375653319 -0.0511569344 -0.0214436185 0.049490992 -0.0538499877 -0.0236785784 0.0486614816 -0.0538499802 -0.0417663604 0.035959065 -0.046655789 -0.0399173908 0.0375653319 -0.0538499877 -0.0236785784 0.0486614816 -0.0538499802 -0.0417663604 0.035959065 -0.0400070995 -0.0527326651 0.0196713954 -0.046655789 -0.0399173908 0.0375653319 -0.0538499802 -0.0417663604 0.035959065 -0.0538499802 -0.0537886992 0.017412506 -0.0400070995 -0.0527326651 0.0196713954 -0.0400070995 -0.0527326651 0.0196713954 -0.0538499802 -0.0537886992 0.017412506 -0.0321356468 -0.0579405576 -0.00168880716 -0.0214740913 -0.0527325012 0.0223046597 -0.0321356468 -0.0579405576 -0.00168880716 -0.0029877359 -0.0579404421 0.00263995235 -0.0105120298 -0.0552453957 0.0254888814 -0.0029877359 -0.0579404421 0.00263995235 0.00276037259 -0.0578336455 0.0185102262 -0.0105120298 -0.0552453957 0.0254888814 -0.0214740913 -0.0527325012 0.0223046597 -0.0029877359 -0.0579404421 0.00263995235 -0.0105120298 -0.0552453957 0.0254888814 -0.022408545 -0.0499028377 0.0331191719 -0.0214740913 -0.0527325012 0.0223046597 -0.0214740913 -0.0527325012 0.0223046597 -0.022408545 -0.0499028377 0.0331191719 -0.0370809734 -0.0399173237 0.038898468 -0.0400070995 -0.0527326651 0.0196713954 -0.0370809734 -0.0399173237 0.038898468 -0.046655789 -0.0399173908 0.0375653319 -0.0400070995 -0.0527326651 0.0196713954 -0.0214740913 -0.0527325012 0.0223046597 -0.0370809734 -0.0399173237 0.038898468 -0.0400070995 -0.0527326651 0.0196713954 -0.0321356468 -0.0579405576 -0.00168880716 -0.0214740913 -0.0527325012 0.0223046597 -0.0508573912 -5.25386135e-09 0.0553570203 -0.0510617606 -4.47394335e-08 0.0546294674 -0.0508224145 -0.00195709872 0.0553419702 -0.0508224145 -0.00195709872 0.0553419702 -0.0510617606 -4.47394335e-08 0.0546294674 -0.0507178009 -0.00391364051 0.0552968942 -0.0522173531 -2.29023485e-08 0.0537608229 -0.0529999807 -2.00525854e-08 0.0537039228 -0.0511569344 -0.0214436185 0.049490992 -0.0511569344 -0.0214436185 0.049490992 -0.0529999807 -2.00525854e-08 0.0537039228 -0.0532197766 -0.00115606561 0.0536938384 -0.0538499877 -0.0236785784 0.0486614816 -0.0532197766 -0.00115606561 0.0536938384 -0.0538499914 -0.00215239031 0.0536750294 -0.0538499877 -0.0236785784 0.0486614816 -0.0511569344 -0.0214436185 0.049490992 -0.0532197766 -0.00115606561 0.0536938384 -0.0538499802 -0.0537886992 0.017412506 -0.0538499765 -0.0580000989 -0.00428496534 -0.0321356468 -0.0579405576 -0.00168880716 -0.0321356468 -0.0579405576 -0.00168880716 -0.0538499765 -0.0580000989 -0.00428496534 -0.0405135453 -0.0580000915 -0.00428496161 -0.0271771327 -0.0580000468 -0.00428496953 -0.0321356468 -0.0579405576 -0.00168880716 -0.0405135453 -0.0580000915 -0.00428496161 -0.0271771327 -0.0580000468 -0.00428496953 -0.0122808553 -0.0579999015 -0.00428497326 -0.0321356468 -0.0579405576 -0.00168880716 -0.0321356468 -0.0579405576 -0.00168880716 -0.0122808553 -0.0579999015 -0.00428497326 -0.0029877359 -0.0579404421 0.00263995235 -0.0029877359 -0.0579404421 0.00263995235 -0.0122808553 -0.0579999015 -0.00428497326 0.00261381385 -0.0578223616 -0.00428494951 0.00673338166 -0.0579985715 0.0106635429 -0.0029877359 -0.0579404421 0.00263995235 0.00261381385 -0.0578223616 -0.00428494951 0.00673338166 -0.0579985715 0.0106635429 0.00322509441 -0.0578671023 0.0183957927 -0.0029877359 -0.0579404421 0.00263995235 0.00673338166 -0.0579985715 0.0106635429 0.00346357771 -0.0578827597 0.018367257 0.00322509441 -0.0578671023 0.0183957927 0.00673338166 -0.0579985715 0.0106635429 0.00370244961 -0.0578974858 0.0183921717 0.00346357771 -0.0578827597 0.018367257 0.00673338166 -0.0579985715 0.0106635429 0.00380285201 -0.0579033829 0.0184584949 0.00370244961 -0.0578974858 0.0183921717 0.00673338166 -0.0579985715 0.0106635429 0.00388024072 -0.057907816 0.0185535867 0.00380285201 -0.0579033829 0.0184584949 0.00673338166 -0.0579985715 0.0106635429 0.00403266214 -0.0579162128 0.0187457595 0.00388024072 -0.057907816 0.0185535867 0.00673338166 -0.0579985715 0.0106635429 0.00680038473 -0.0579989888 0.0184343066 0.00403266214 -0.0579162128 0.0187457595 0.00403266214 -0.0579162128 0.0187457595 0.00680038473 -0.0579989888 0.0184343066 0.00432879012 -0.0579313934 0.019136833 0.00432879012 -0.0579313934 0.019136833 0.00680038473 -0.0579989888 0.0184343066 0.00546017615 -0.0579754338 0.0207400527 0.00546017615 -0.0579754338 0.0207400527 0.00680038473 -0.0579989888 0.0184343066 0.00658426341 -0.0579972714 0.0203649085 0.00577996671 -0.0579838306 0.0211127661 0.00658426341 -0.0579972714 0.0203649085 0.00646674773 -0.0579959899 0.0208399184 0.00597794587 -0.0579881966 0.0212579444 0.00646674773 -0.0579959899 0.0208399184 0.00609723991 -0.0579905026 0.0212890226 0.00597794587 -0.0579881966 0.0212579444 0.00577996671 -0.0579838306 0.0211127661 0.00646674773 -0.0579959899 0.0208399184 0.00646674773 -0.0579959899 0.0208399184 0.00637302175 -0.0579948165 0.0210684538 0.00609723991 -0.0579905026 0.0212890226 0.00609723991 -0.0579905026 0.0212890226 0.00637302175 -0.0579948165 0.0210684538 0.0062157074 -0.0579925142 0.0212565698 0.0062157074 -0.0579925142 0.0212565698 0.00637302175 -0.0579948165 0.0210684538 0.00630599167 -0.0579938628 0.0211734641 0.00577996671 -0.0579838306 0.0211127661 0.00546017615 -0.0579754338 0.0207400527 0.00658426341 -0.0579972714 0.0203649085 0.00322509441 -0.0578671023 0.0183957927 0.00276037259 -0.0578336455 0.0185102262 -0.0029877359 -0.0579404421 0.00263995235 -0.022408545 -0.0499028377 0.0331191719 -0.0415993519 -0.0314245522 0.0471917652 -0.0370809734 -0.0399173237 0.038898468 -0.0370809734 -0.0399173237 0.038898468 -0.0415993519 -0.0314245522 0.0471917652 -0.0476369783 -0.0214435235 0.0501118675 -0.046655789 -0.0399173908 0.0375653319 -0.0476369783 -0.0214435235 0.0501118675 -0.0511569344 -0.0214436185 0.049490992 -0.046655789 -0.0399173908 0.0375653319 -0.0370809734 -0.0399173237 0.038898468 -0.0476369783 -0.0214435235 0.0501118675 -0.0415993519 -0.0314245522 0.0471917652 -0.0478146262 -0.0185172949 0.0524465591 -0.0476369783 -0.0214435235 0.0501118675 -0.0476369783 -0.0214435235 0.0501118675 -0.0478146262 -0.0185172949 0.0524465591 -0.0510617606 -4.47394335e-08 0.0546294674 0.00714999577 -0.0580000356 0.0303538237 0.00715001673 -0.0580000244 -0.0641849488 0.023390023 -0.0556800254 0.0233538505 0.023390023 -0.0556800254 0.0233538505 0.00715001673 -0.0580000244 -0.0641849488 0.0293456502 -0.0535850711 -0.0641849563 0.0419500023 -0.0463999957 0.015353851 0.0293456502 -0.0535850711 -0.0641849563 0.0481621884 -0.041012235 -0.0641849563 0.0508486331 -0.0381370187 0.0115182381 0.0481621884 -0.041012235 -0.0641849563 0.0607349984 -0.0221957024 -0.0641849563 0.0583264828 -0.0272941571 0.00829500798 0.0607349984 -0.0221957024 -0.0641849563 0.0633653849 -0.0142769543 0.00612306222 0.0583264828 -0.0272941571 0.00829500798 0.0508486331 -0.0381370187 0.0115182381 0.0607349984 -0.0221957024 -0.0641849563 0.0607349984 -0.0221957024 -0.0641849563 0.0651500002 -6.73784868e-08 -0.0641849488 0.0633653849 -0.0142769543 0.00612306222 0.0633653849 -0.0142769543 0.00612306222 0.0651500002 -6.73784868e-08 -0.0641849488 0.0651500002 -2.66244404e-09 0.00535386475 0.0651500002 -2.66244404e-09 0.00535386475 0.0651500002 -6.73784868e-08 -0.0641849488 0.0633653775 0.0142768975 0.00612307526 0.0633653775 0.0142768975 0.00612307526 0.0651500002 -6.73784868e-08 -0.0641849488 0.0607350133 0.0221956279 -0.0641849563 0.058326479 0.0272940602 0.00829503872 0.0607350133 0.0221956279 -0.0641849563 0.0481621996 0.0410121717 -0.0641849414 0.0508486256 0.0381369777 0.0115182456 0.0481621996 0.0410121717 -0.0641849414 0.0419499949 0.0463999324 0.0153538492 0.0508486256 0.0381369777 0.0115182456 0.058326479 0.0272940602 0.00829503872 0.0481621996 0.0410121717 -0.0641849414 0.0481621996 0.0410121717 -0.0641849414 0.0293456484 0.053584978 -0.0641849563 0.0419499949 0.0463999324 0.0153538492 0.0419499949 0.0463999324 0.0153538492 0.0293456484 0.053584978 -0.0641849563 0.0233899951 0.0556799769 0.0233538412 0.0233899951 0.0556799769 0.0233538412 0.0293456484 0.053584978 -0.0641849563 0.00715000648 0.0579999387 -0.0641849563 0.00715000043 0.0579999238 0.0303538367 0.0233899951 0.0556799769 0.0233538412 0.00715000648 0.0579999387 -0.0641849563 0.058326479 0.0272940602 0.00829503872 0.0633653775 0.0142768975 0.00612307526 0.0607350133 0.0221956279 -0.0641849563 0.0508486331 -0.0381370187 0.0115182381 0.0419500023 -0.0463999957 0.015353851 0.0481621884 -0.041012235 -0.0641849563 0.0419500023 -0.0463999957 0.015353851 0.023390023 -0.0556800254 0.0233538505 0.0293456502 -0.0535850711 -0.0641849563 0.00674256962 0.0579985268 -0.0277291425 0.00678964239 0.0579988435 -0.0197156239 0.00715000648 0.0579999387 -0.0641849563 0.00662156334 0.0579975545 -0.028723374 0.00715000648 0.0579999387 -0.0641849563 0.00634311186 0.0579943247 -0.029690424 0.00662156334 0.0579975545 -0.028723374 0.00674256962 0.0579985268 -0.0277291425 0.00715000648 0.0579999387 -0.0641849563 0.00715000648 0.0579999387 -0.0641849563 -0.0150456289 0.0535849854 -0.0641849563 0.00634311186 0.0579943247 -0.029690424 0.00634311186 0.0579943247 -0.029690424 -0.0150456289 0.0535849854 -0.0641849563 0.00626318203 0.0579932295 -0.0297902096 0.00626318203 0.0579932295 -0.0297902096 -0.0150456289 0.0535849854 -0.0641849563 0.00615333626 0.0579913817 -0.0298528541 0.00615333626 0.0579913817 -0.0298528541 -0.0150456289 0.0535849854 -0.0641849563 0.00602661213 0.0579890423 -0.0298469495 0.00602661213 0.0579890423 -0.0298469495 -0.0150456289 0.0535849854 -0.0641849563 0.0059123612 0.0579867437 -0.0297905318 0.0059123612 0.0579867437 -0.0297905318 -0.0150456289 0.0535849854 -0.0641849563 0.00555554125 0.057977993 -0.0294325966 0.00555554125 0.057977993 -0.0294325966 -0.0150456289 0.0535849854 -0.0641849563 0.0049659973 0.05795886 -0.028610779 0.0049659973 0.05795886 -0.028610779 -0.0150456289 0.0535849854 -0.0641849563 0.00375921209 0.0579007268 -0.0269894172 0.00375921209 0.0579007268 -0.0269894172 -0.0150456289 0.0535849854 -0.0641849563 0.0036425041 0.0578938015 -0.026946513 0.0036425041 0.0578938015 -0.026946513 -0.0150456289 0.0535849854 -0.0641849563 0.00351831992 0.0578861311 -0.0269360263 0.00351831992 0.0578861311 -0.0269360263 -0.0150456289 0.0535849854 -0.0641849563 0.00327193737 0.0578701384 -0.0269578137 0.00327193737 0.0578701384 -0.0269578137 -0.0150456289 0.0535849854 -0.0641849563 0.00279120007 0.0578359254 -0.0270710774 0.00279120007 0.0578359254 -0.0270710774 -0.0150456289 0.0535849854 -0.0641849563 0.00186342641 0.0577585287 -0.0273980629 0.00186342641 0.0577585287 -0.0273980629 -0.0150456289 0.0535849854 -0.0641849563 -0.0116745429 0.0548600666 -0.0347672999 -0.0116745429 0.0548600666 -0.0347672999 -0.0150456289 0.0535849854 -0.0641849563 -0.0238117538 0.0490445569 -0.0426429287 -0.0238117538 0.0490445569 -0.0426429287 -0.0150456289 0.0535849854 -0.0641849563 -0.0338621698 0.0410121493 -0.0641849637 -0.0344105773 0.0404563211 -0.0502069034 -0.0338621698 0.0410121493 -0.0641849637 -0.0464349762 0.0221955776 -0.0641849563 -0.0429761857 0.0291780997 -0.0568765663 -0.0464349762 0.0221955776 -0.0641849563 -0.0487589762 0.0154331839 -0.0619049817 -0.0429761857 0.0291780997 -0.0568765663 -0.0344105773 0.0404563211 -0.0502069034 -0.0464349762 0.0221955776 -0.0641849563 -0.0464349762 0.0221955776 -0.0641849563 -0.0508499779 -1.80022308e-08 -0.0641849414 -0.0487589762 0.0154331839 -0.0619049817 -0.0487589762 0.0154331839 -0.0619049817 -0.0508499779 -1.80022308e-08 -0.0641849414 -0.0508499891 -5.91480394e-08 -0.0640268475 -0.0508499891 -5.91480394e-08 -0.0640268475 -0.0508499779 -1.80022308e-08 -0.0641849414 -0.0487506948 -0.0154631324 -0.0618969351 -0.0487506948 -0.0154631324 -0.0618969351 -0.0508499779 -1.80022308e-08 -0.0641849414 -0.0464349911 -0.0221956298 -0.0641849563 -0.0429804884 -0.0291707478 -0.0568801053 -0.0464349911 -0.0221956298 -0.0641849563 -0.0338621698 -0.0410122126 -0.0641849563 -0.0343090594 -0.0405604392 -0.0501311943 -0.0338621698 -0.0410122126 -0.0641849563 -0.0235415623 -0.0492141172 -0.0424584597 -0.0343090594 -0.0405604392 -0.0501311943 -0.0429804884 -0.0291707478 -0.0568801053 -0.0338621698 -0.0410122126 -0.0641849563 -0.0338621698 -0.0410122126 -0.0641849563 -0.0150456242 -0.053585019 -0.0641849488 -0.0235415623 -0.0492141172 -0.0424584597 -0.0235415623 -0.0492141172 -0.0424584597 -0.0150456242 -0.053585019 -0.0641849488 -0.0112000899 -0.0550207309 -0.034476988 -0.0112000899 -0.0550207309 -0.034476988 -0.0150456242 -0.053585019 -0.0641849488 0.00715001673 -0.0580000244 -0.0641849488 0.00254170713 -0.0578167215 -0.0271491017 0.00715001673 -0.0580000244 -0.0641849488 0.0035075855 -0.0578855053 -0.0269360244 0.00254170713 -0.0578167215 -0.0271491017 -0.0112000899 -0.0550207309 -0.034476988 0.00715001673 -0.0580000244 -0.0641849488 0.00646674773 -0.0579959899 0.0208399184 0.00658426341 -0.0579972714 0.0203649085 0.00714999577 -0.0580000356 0.0303538237 0.00637302175 -0.0579948165 0.0210684538 0.00714999577 -0.0580000356 0.0303538237 0.00630599167 -0.0579938628 0.0211734641 0.00637302175 -0.0579948165 0.0210684538 0.00646674773 -0.0579959899 0.0208399184 0.00714999577 -0.0580000356 0.0303538237 -0.0133940168 -0.054239694 0.0392090157 -0.0105120298 -0.0552453957 0.0254888814 0.00714999577 -0.0580000356 0.0303538237 -0.0415993519 -0.0314245522 0.0471917652 -0.0455798246 -0.0241570622 0.0530822538 -0.0478146262 -0.0185172949 0.0524465591 -0.0455798246 -0.0241570622 0.0530822538 -0.0507178009 -0.00391364051 0.0552968942 -0.0478146262 -0.0185172949 0.0524465591 -0.0105120298 -0.0552453957 0.0254888814 0.00276037259 -0.0578336455 0.0185102262 0.00714999577 -0.0580000356 0.0303538237 0.00714999577 -0.0580000356 0.0303538237 0.00276037259 -0.0578336455 0.0185102262 0.00322509441 -0.0578671023 0.0183957927 0.00346357771 -0.0578827597 0.018367257 0.00714999577 -0.0580000356 0.0303538237 0.00322509441 -0.0578671023 0.0183957927 0.00346357771 -0.0578827597 0.018367257 0.00370244961 -0.0578974858 0.0183921717 0.00714999577 -0.0580000356 0.0303538237 0.00380285201 -0.0579033829 0.0184584949 0.00714999577 -0.0580000356 0.0303538237 0.00370244961 -0.0578974858 0.0183921717 0.00380285201 -0.0579033829 0.0184584949 0.00388024072 -0.057907816 0.0185535867 0.00714999577 -0.0580000356 0.0303538237 0.00714999577 -0.0580000356 0.0303538237 0.00388024072 -0.057907816 0.0185535867 0.00403266214 -0.0579162128 0.0187457595 0.00432879012 -0.0579313934 0.019136833 0.00714999577 -0.0580000356 0.0303538237 0.00403266214 -0.0579162128 0.0187457595 0.00432879012 -0.0579313934 0.019136833 0.00546017615 -0.0579754338 0.0207400527 0.00714999577 -0.0580000356 0.0303538237 0.00714999577 -0.0580000356 0.0303538237 0.00546017615 -0.0579754338 0.0207400527 0.00577996671 -0.0579838306 0.0211127661 0.00597794587 -0.0579881966 0.0212579444 0.00714999577 -0.0580000356 0.0303538237 0.00577996671 -0.0579838306 0.0211127661 0.00597794587 -0.0579881966 0.0212579444 0.00609723991 -0.0579905026 0.0212890226 0.00714999577 -0.0580000356 0.0303538237 0.0062157074 -0.0579925142 0.0212565698 0.00714999577 -0.0580000356 0.0303538237 0.00609723991 -0.0579905026 0.0212890226 0.0062157074 -0.0579925142 0.0212565698 0.00630599167 -0.0579938628 0.0211734641 0.00714999577 -0.0580000356 0.0303538237 0.00658426341 -0.0579972714 0.0203649085 0.00680038473 -0.0579989888 0.0184343066 0.00714999577 -0.0580000356 0.0303538237 0.00714999577 -0.0580000356 0.0303538237 0.00680038473 -0.0579989888 0.0184343066 0.00715001673 -0.0580000244 -0.0641849488 0.00715001673 -0.0580000244 -0.0641849488 0.00680038473 -0.0579989888 0.0184343066 0.00679103425 -0.0579988956 -0.0271368045 0.00655330345 -0.0579969883 -0.029085394 0.00715001673 -0.0580000244 -0.0641849488 0.00679103425 -0.0579988956 -0.0271368045 0.00655330345 -0.0579969883 -0.029085394 0.00641230308 -0.0579953194 -0.0295556299 0.00715001673 -0.0580000244 -0.0641849488 0.00715001673 -0.0580000244 -0.0641849488 0.00641230308 -0.0579953194 -0.0295556299 0.0062856134 -0.0579935908 -0.0297674499 0.006186591 -0.0579919964 -0.0298415944 0.00715001673 -0.0580000244 -0.0641849488 0.0062856134 -0.0579935908 -0.0297674499 0.00715001673 -0.0580000244 -0.0641849488 0.006186591 -0.0579919964 -0.0298415944 0.00606505387 -0.0579898991 -0.0298559833 0.00594891561 -0.0579876155 -0.0298129059 0.00715001673 -0.0580000244 -0.0641849488 0.00606505387 -0.0579898991 -0.0298559833 0.00594891561 -0.0579876155 -0.0298129059 0.00584707037 -0.057985384 -0.0297421254 0.00715001673 -0.0580000244 -0.0641849488 0.00715001673 -0.0580000244 -0.0641849488 0.00584707037 -0.057985384 -0.0297421254 0.00566998404 -0.0579811633 -0.0295683462 0.00536286086 -0.0579724908 -0.0291786008 0.00715001673 -0.0580000244 -0.0641849488 0.00566998404 -0.0579811633 -0.0295683462 0.00536286086 -0.0579724908 -0.0291786008 0.00421864539 -0.0579258837 -0.0275586415 0.00715001673 -0.0580000244 -0.0641849488 0.00715001673 -0.0580000244 -0.0641849488 0.00421864539 -0.0579258837 -0.0275586415 0.00391491503 -0.0579097532 -0.0271666795 0.00374995009 -0.0579002462 -0.0269836951 0.00715001673 -0.0580000244 -0.0641849488 0.00391491503 -0.0579097532 -0.0271666795 0.00374995009 -0.0579002462 -0.0269836951 0.00363202463 -0.0578932539 -0.0269446373 0.00715001673 -0.0580000244 -0.0641849488 0.00715001673 -0.0580000244 -0.0641849488 0.00363202463 -0.0578932539 -0.0269446373 0.0035075855 -0.0578855053 -0.0269360244 0.00679103425 -0.0579988956 -0.0271368045 0.00680038473 -0.0579989888 0.0184343066 0.00674162991 -0.0579985864 -0.0193013344 0.00674162991 -0.0579985864 -0.0193013344 0.00680038473 -0.0579989888 0.0184343066 0.00673338166 -0.0579985715 0.0106635429 0.00261381385 -0.0578223616 -0.00428494951 0.00674162991 -0.0579985864 -0.0193013344 0.00673338166 -0.0579985715 0.0106635429 -0.0429804884 -0.0291707478 -0.0568801053 -0.0487506948 -0.0154631324 -0.0618969351 -0.0464349911 -0.0221956298 -0.0641849563 -0.0344105773 0.0404563211 -0.0502069034 -0.0238117538 0.0490445569 -0.0426429287 -0.0338621698 0.0410121493 -0.0641849637 0.00261380873 0.0578223132 -0.0042849523 0.00668114936 0.0579980873 0.0102516757 0.00678964239 0.0579988435 -0.0197156239 0.00678964239 0.0579988435 -0.0197156239 0.00668114936 0.0579980873 0.0102516757 0.00683699176 0.0579990409 0.0178421251 0.00715000648 0.0579999387 -0.0641849563 0.00683699176 0.0579990409 0.0178421251 0.00715000043 0.0579999238 0.0303538367 0.00715000648 0.0579999387 -0.0641849563 0.00678964239 0.0579988435 -0.0197156239 0.00683699176 0.0579990409 0.0178421251 0.00683699176 0.0579990409 0.0178421251 0.0066804355 0.0579979904 0.0197386481 0.00715000043 0.0579999238 0.0303538367 0.00715000043 0.0579999238 0.0303538367 0.0066804355 0.0579979904 0.0197386481 0.00651460234 0.0579964593 0.0206765383 0.00634309091 0.0579943433 0.0211204793 0.00715000043 0.0579999238 0.0303538367 0.00651460234 0.0579964593 0.0206765383 0.00634309091 0.0579943433 0.0211204793 0.00626888359 0.0579932518 0.0212148391 0.00715000043 0.0579999238 0.0303538367 0.00715000043 0.0579999238 0.0303538367 0.00626888359 0.0579932518 0.0212148391 -0.013394027 0.0542396381 0.0392089821 0.00616784533 0.0579916537 0.0212787371 -0.013394027 0.0542396381 0.0392089821 0.00626888359 0.0579932518 0.0212148391 -0.013394027 0.0542396381 0.0392089821 0.00616784533 0.0579916537 0.0212787371 0.00604914082 0.0579894781 0.021282997 0.00593806617 0.0579872951 0.0212367233 -0.013394027 0.0542396381 0.0392089821 0.00604914082 0.0579894781 0.021282997 0.00593806617 0.0579872951 0.0212367233 0.00475342572 0.0579504631 0.019732669 -0.013394027 0.0542396381 0.0392089821 -0.013394027 0.0542396381 0.0392089821 0.00475342572 0.0579504631 0.019732669 0.00419171387 0.0579244494 0.0189529769 0.00389648532 0.0579086468 0.018573774 -0.013394027 0.0542396381 0.0392089821 0.00419171387 0.0579244494 0.0189529769 0.00389648532 0.0579086468 0.018573774 0.00382081722 0.0579042397 0.0184804592 -0.013394027 0.0542396381 0.0392089821 0.00373035413 0.0578990392 0.0184034873 -0.013394027 0.0542396381 0.0392089821 0.00382081722 0.0579042397 0.0184804592 0.00373035413 0.0578990392 0.0184034873 0.0036145451 0.0578921176 0.0183721296 -0.013394027 0.0542396381 0.0392089821 -0.013394027 0.0542396381 0.0392089821 0.0036145451 0.0578921176 0.0183721296 0.00349329319 0.0578845367 0.0183662865 -8.59304491e-05 0.0575467907 0.0196982902 -0.013394027 0.0542396381 0.0392089821 0.00349329319 0.0578845367 0.0183662865 -8.59304491e-05 0.0575467907 0.0196982902 -0.00347327231 0.0570187308 0.0214455184 -0.013394027 0.0542396381 0.0392089821 -0.013394027 0.0542396381 0.0392089821 -0.00347327231 0.0570187308 0.0214455184 -0.00999429356 0.0554081798 0.0251765177 -0.0221015215 0.0500832722 0.0329119451 -0.013394027 0.0542396381 0.0392089821 -0.00999429356 0.0554081798 0.0251765177 -0.0221015215 0.0500832722 0.0329119451 -0.0324543528 0.0423732363 0.047424648 -0.013394027 0.0542396381 0.0392089821 -0.0221015215 0.0500832722 0.0329119451 -0.0415696986 0.0314703956 0.0471679196 -0.0324543528 0.0423732363 0.047424648 -0.0324543528 0.0423732363 0.047424648 -0.0415696986 0.0314703956 0.0471679196 -0.0455798283 0.0241569877 0.0530822203 -0.0455798283 0.0241569877 0.0530822203 -0.0415696986 0.0314703956 0.0471679196 -0.0477842726 0.0186069831 0.0524188094 -0.0507177971 0.00391346775 0.0552968644 -0.0455798283 0.0241569877 0.0530822203 -0.0477842726 0.0186069831 0.0524188094 -0.0532206409 0.0011581853 0.0536937825 -0.0529999807 -2.00525854e-08 0.0537039228 -0.0527225845 0.00412016548 0.0535546392 -0.0538499765 0.00215229439 0.0536750257 -0.0527225845 0.00412016548 0.0535546392 -0.0538499728 0.0236785524 0.048661463 -0.0538499765 0.00215229439 0.0536750257 -0.0532206409 0.0011581853 0.0536937825 -0.0527225845 0.00412016548 0.0535546392 -0.0518592596 -6.85168402e-08 0.053879045 -0.0513043031 0.00412010262 0.0540031493 -0.0522173531 -2.29023485e-08 0.0537608229 -0.0518592596 -6.85168402e-08 0.053879045 -0.0515414588 -2.30102444e-08 0.0540713705 -0.0513043031 0.00412010262 0.0540031493 -0.0513043031 0.00412010262 0.0540031493 -0.0515414588 -2.30102444e-08 0.0540713705 -0.0510617606 -4.47394335e-08 0.0546294674 -0.0477842726 0.0186069831 0.0524188094 -0.0510617606 -4.47394335e-08 0.0546294674 -0.0507177971 0.00391346775 0.0552968644 -0.0477842726 0.0186069831 0.0524188094 -0.0513043031 0.00412010262 0.0540031493 -0.0510617606 -4.47394335e-08 0.0546294674 -0.0477842726 0.0186069831 0.0524188094 -0.0460701399 0.0253529698 0.048448313 -0.0513043031 0.00412010262 0.0540031493 -0.0477842726 0.0186069831 0.0524188094 -0.0415696986 0.0314703956 0.0471679196 -0.0460701399 0.0253529698 0.048448313 -0.0460701399 0.0253529698 0.048448313 -0.0415696986 0.0314703956 0.0471679196 -0.0339878649 0.0433283038 0.035610728 -0.0504884385 0.0253530219 0.0477366745 -0.0339878649 0.0433283038 0.035610728 -0.0453376696 0.0433283597 0.0340366997 -0.0538499951 0.0417662002 0.0359590612 -0.0453376696 0.0433283597 0.0340366997 -0.0538499653 0.0537886359 0.0174124707 -0.0538499951 0.0417662002 0.0359590612 -0.0504884385 0.0253530219 0.0477366745 -0.0453376696 0.0433283597 0.0340366997 -0.0538499951 0.0417662002 0.0359590612 -0.0538499728 0.0236785524 0.048661463 -0.0504884385 0.0253530219 0.0477366745 -0.0504884385 0.0253530219 0.0477366745 -0.0538499728 0.0236785524 0.048661463 -0.0527225845 0.00412016548 0.0535546392 -0.0460701399 0.0253529698 0.048448313 -0.0527225845 0.00412016548 0.0535546392 -0.0513043031 0.00412010262 0.0540031493 -0.0460701399 0.0253529698 0.048448313 -0.0504884385 0.0253530219 0.0477366745 -0.0527225845 0.00412016548 0.0535546392 -0.0460701399 0.0253529698 0.048448313 -0.0339878649 0.0433283038 0.035610728 -0.0504884385 0.0253530219 0.0477366745 -0.0508573912 -5.25386135e-09 0.0553570203 -0.0508223809 0.00195739116 0.0553419627 -0.0510617606 -4.47394335e-08 0.0546294674 -0.0510617606 -4.47394335e-08 0.0546294674 -0.0508223809 0.00195739116 0.0553419627 -0.0507177971 0.00391346775 0.0552968644 -0.0415696986 0.0314703956 0.0471679196 -0.0221015215 0.0500832722 0.0329119451 -0.0339878649 0.0433283038 0.035610728 -0.0339878649 0.0433283038 0.035610728 -0.0221015215 0.0500832722 0.0329119451 -0.017065851 0.0547873229 0.0176159721 -0.0453376696 0.0433283597 0.0340366997 -0.017065851 0.0547873229 0.0176159721 -0.0381298438 0.0547874086 0.0145875141 -0.0538499653 0.0537886359 0.0174124707 -0.0381298438 0.0547874086 0.0145875141 -0.0405114628 0.0579999685 -0.00428497186 -0.0538457744 0.0579999797 -0.00428496674 -0.0538499653 0.0537886359 0.0174124707 -0.0405114628 0.0579999685 -0.00428497186 -0.0221015215 0.0500832722 0.0329119451 -0.00999429356 0.0554081798 0.0251765177 -0.017065851 0.0547873229 0.0176159721 -0.017065851 0.0547873229 0.0176159721 -0.00999429356 0.0554081798 0.0251765177 -0.00347327231 0.0570187308 0.0214455184 0.00668114936 0.0579980873 0.0102516757 -0.00347327231 0.0570187308 0.0214455184 -8.59304491e-05 0.0575467907 0.0196982902 0.00349329319 0.0578845367 0.0183662865 0.00668114936 0.0579980873 0.0102516757 -8.59304491e-05 0.0575467907 0.0196982902 0.00349329319 0.0578845367 0.0183662865 0.0036145451 0.0578921176 0.0183721296 0.00668114936 0.0579980873 0.0102516757 0.00668114936 0.0579980873 0.0102516757 0.0036145451 0.0578921176 0.0183721296 0.00373035413 0.0578990392 0.0184034873 0.00382081722 0.0579042397 0.0184804592 0.00668114936 0.0579980873 0.0102516757 0.00373035413 0.0578990392 0.0184034873 0.00668114936 0.0579980873 0.0102516757 0.00382081722 0.0579042397 0.0184804592 0.00683699176 0.0579990409 0.0178421251 0.00683699176 0.0579990409 0.0178421251 0.00382081722 0.0579042397 0.0184804592 0.00389648532 0.0579086468 0.018573774 0.00419171387 0.0579244494 0.0189529769 0.00683699176 0.0579990409 0.0178421251 0.00389648532 0.0579086468 0.018573774 0.00419171387 0.0579244494 0.0189529769 0.00475342572 0.0579504631 0.019732669 0.00683699176 0.0579990409 0.0178421251 0.00683699176 0.0579990409 0.0178421251 0.00475342572 0.0579504631 0.019732669 0.0066804355 0.0579979904 0.0197386481 0.0066804355 0.0579979904 0.0197386481 0.00475342572 0.0579504631 0.019732669 0.00593806617 0.0579872951 0.0212367233 0.00651460234 0.0579964593 0.0206765383 0.00593806617 0.0579872951 0.0212367233 0.00604914082 0.0579894781 0.021282997 0.00634309091 0.0579943433 0.0211204793 0.00604914082 0.0579894781 0.021282997 0.00616784533 0.0579916537 0.0212787371 0.00616784533 0.0579916537 0.0212787371 0.00626888359 0.0579932518 0.0212148391 0.00634309091 0.0579943433 0.0211204793 0.00634309091 0.0579943433 0.0211204793 0.00651460234 0.0579964593 0.0206765383 0.00604914082 0.0579894781 0.021282997 0.00651460234 0.0579964593 0.0206765383 0.0066804355 0.0579979904 0.0197386481 0.00593806617 0.0579872951 0.0212367233 0.00261380873 0.0578223132 -0.0042849523 0.00215641269 0.0579008944 -0.00283259712 0.00668114936 0.0579980873 0.0102516757 0.00261380873 0.0578223132 -0.0042849523 -0.0122806299 0.0579997636 -0.00428497419 0.00215641269 0.0579008944 -0.00283259712 0.00215641269 0.0579008944 -0.00283259712 -0.0122806299 0.0579997636 -0.00428497419 -0.017065851 0.0547873229 0.0176159721 0.00668114936 0.0579980873 0.0102516757 -0.017065851 0.0547873229 0.0176159721 -0.00347327231 0.0570187308 0.0214455184 0.00668114936 0.0579980873 0.0102516757 0.00215641269 0.0579008944 -0.00283259712 -0.017065851 0.0547873229 0.0176159721 -0.017065851 0.0547873229 0.0176159721 -0.0122806299 0.0579997636 -0.00428497419 -0.0381298438 0.0547874086 0.0145875141 -0.0381298438 0.0547874086 0.0145875141 -0.0122806299 0.0579997636 -0.00428497419 -0.0271771345 0.0579999648 -0.00428496394 -0.0405114628 0.0579999685 -0.00428497186 -0.0381298438 0.0547874086 0.0145875141 -0.0271771345 0.0579999648 -0.00428496394 -0.0453376696 0.0433283597 0.0340366997 -0.0381298438 0.0547874086 0.0145875141 -0.0538499653 0.0537886359 0.0174124707 -0.0339878649 0.0433283038 0.035610728 -0.017065851 0.0547873229 0.0176159721 -0.0453376696 0.0433283597 0.0340366997 -0.0529999807 -2.00525854e-08 0.0537039228 -0.0522173531 -2.29023485e-08 0.0537608229 -0.0527225845 0.00412016548 0.0535546392 -0.0527225845 0.00412016548 0.0535546392 -0.0522173531 -2.29023485e-08 0.0537608229 -0.0513043031 0.00412010262 0.0540031493 -0.0538457744 0.0579999797 -0.00428496674 -0.0591499768 0.0579999313 -0.00428497978 -0.0538499653 0.0537886359 0.0174124707 -0.0538499653 0.0537886359 0.0174124707 -0.0591499768 0.0579999313 -0.00428497978 -0.0591499731 0.0538814999 0.0171807297 -0.0591499731 0.0421111137 0.03559798 -0.0538499653 0.0537886359 0.0174124707 -0.0591499731 0.0538814999 0.0171807297 -0.0591499731 0.0421111137 0.03559798 -0.0538499951 0.0417662002 0.0359590612 -0.0538499653 0.0537886359 0.0174124707 -0.0591499731 0.0421111137 0.03559798 -0.0591499619 0.0243602768 0.0483512469 -0.0538499951 0.0417662002 0.0359590612 -0.0538499951 0.0417662002 0.0359590612 -0.0591499619 0.0243602768 0.0483512469 -0.0538499728 0.0236785524 0.048661463 -0.0538499728 0.0236785524 0.048661463 -0.0591499619 0.0243602768 0.0483512469 -0.054897029 0.00289000943 0.0536429733 -0.0538499765 0.00215229439 0.0536750257 -0.0538499728 0.0236785524 0.048661463 -0.054897029 0.00289000943 0.0536429733 -0.0591499805 0.00314997346 0.053629417 -0.0561499633 0.00314997882 0.0536294244 -0.0591499619 0.0243602768 0.0483512469 -0.0591499619 0.0243602768 0.0483512469 -0.0561499633 0.00314997882 0.0536294244 -0.054897029 0.00289000943 0.0536429733 -0.0538499877 -7.4697887e-08 -0.0622849464 -0.0528129749 -6.36859312e-08 -0.0622760914 -0.0538499765 -0.0221957006 -0.0578699596 -0.0538499765 -0.0221957006 -0.0578699596 -0.0528129749 -6.36859312e-08 -0.0622760914 -0.050537575 -0.022823818 -0.0574702621 -0.0538499765 -0.0410122201 -0.0452971384 -0.050537575 -0.022823818 -0.0574702621 -0.044647865 -0.0423056558 -0.0437012725 -0.0538499765 -0.053585019 -0.026480604 -0.044647865 -0.0423056558 -0.0437012725 -0.0364927389 -0.0543411672 -0.0243695583 -0.0405135453 -0.0580000915 -0.00428496161 -0.0364927389 -0.0543411672 -0.0243695583 -0.0271771327 -0.0580000468 -0.00428496953 -0.0405135453 -0.0580000915 -0.00428496161 -0.0538499765 -0.053585019 -0.026480604 -0.0364927389 -0.0543411672 -0.0243695583 -0.0405135453 -0.0580000915 -0.00428496161 -0.0538499765 -0.0580000989 -0.00428496534 -0.0538499765 -0.053585019 -0.026480604 -0.0528129749 -6.36859312e-08 -0.0622760914 -0.0518372804 -4.75644804e-08 -0.0624594688 -0.050537575 -0.022823818 -0.0574702621 -0.050537575 -0.022823818 -0.0574702621 -0.0518372804 -4.75644804e-08 -0.0624594688 -0.0466918871 -0.0228238013 -0.0585578643 -0.0337782986 -0.0423055999 -0.04641781 -0.0466918871 -0.0228238013 -0.0585578643 -0.0429804884 -0.0291707478 -0.0568801053 -0.0343090594 -0.0405604392 -0.0501311943 -0.0337782986 -0.0423055999 -0.04641781 -0.0429804884 -0.0291707478 -0.0568801053 -0.0343090594 -0.0405604392 -0.0501311943 -0.0235415623 -0.0492141172 -0.0424584597 -0.0337782986 -0.0423055999 -0.04641781 -0.0337782986 -0.0423055999 -0.04641781 -0.0235415623 -0.0492141172 -0.0424584597 -0.0158651676 -0.054341089 -0.0295929182 -0.044647865 -0.0423056558 -0.0437012725 -0.0158651676 -0.054341089 -0.0295929182 -0.0364927389 -0.0543411672 -0.0243695583 -0.044647865 -0.0423056558 -0.0437012725 -0.0337782986 -0.0423055999 -0.04641781 -0.0158651676 -0.054341089 -0.0295929182 -0.044647865 -0.0423056558 -0.0437012725 -0.050537575 -0.022823818 -0.0574702621 -0.0337782986 -0.0423055999 -0.04641781 -0.0337782986 -0.0423055999 -0.04641781 -0.050537575 -0.022823818 -0.0574702621 -0.0466918871 -0.0228238013 -0.0585578643 -0.0518372804 -4.75644804e-08 -0.0624594688 -0.0514378026 -5.56106166e-08 -0.0627265722 -0.0466918871 -0.0228238013 -0.0585578643 -0.0466918871 -0.0228238013 -0.0585578643 -0.0514378026 -5.56106166e-08 -0.0627265722 -0.0511262827 5.6223306e-09 -0.0630905405 -0.0487506948 -0.0154631324 -0.0618969351 -0.0511262827 5.6223306e-09 -0.0630905405 -0.0509244986 -3.46975852e-08 -0.0635310709 -0.0508499891 -5.91480394e-08 -0.0640268475 -0.0487506948 -0.0154631324 -0.0618969351 -0.0509244986 -3.46975852e-08 -0.0635310709 -0.0511262827 5.6223306e-09 -0.0630905405 -0.0487506948 -0.0154631324 -0.0618969351 -0.0466918871 -0.0228238013 -0.0585578643 -0.0466918871 -0.0228238013 -0.0585578643 -0.0487506948 -0.0154631324 -0.0618969351 -0.0429804884 -0.0291707478 -0.0568801053 -0.0235415623 -0.0492141172 -0.0424584597 -0.0112000899 -0.0550207309 -0.034476988 -0.0158651676 -0.054341089 -0.0295929182 -0.0158651676 -0.054341089 -0.0295929182 -0.0112000899 -0.0550207309 -0.034476988 0.0038675128 -0.0579843447 -0.0110665951 -0.0122808553 -0.0579999015 -0.00428497326 0.0038675128 -0.0579843447 -0.0110665951 0.00261381385 -0.0578223616 -0.00428494951 -0.0122808553 -0.0579999015 -0.00428497326 -0.0158651676 -0.054341089 -0.0295929182 0.0038675128 -0.0579843447 -0.0110665951 -0.0122808553 -0.0579999015 -0.00428497326 -0.0364927389 -0.0543411672 -0.0243695583 -0.0158651676 -0.054341089 -0.0295929182 -0.0122808553 -0.0579999015 -0.00428497326 -0.0271771327 -0.0580000468 -0.00428496953 -0.0364927389 -0.0543411672 -0.0243695583 -0.0112000899 -0.0550207309 -0.034476988 0.00254170713 -0.0578167215 -0.0271491017 0.0038675128 -0.0579843447 -0.0110665951 0.0038675128 -0.0579843447 -0.0110665951 0.00254170713 -0.0578167215 -0.0271491017 0.00674162991 -0.0579985864 -0.0193013344 0.00261381385 -0.0578223616 -0.00428494951 0.0038675128 -0.0579843447 -0.0110665951 0.00674162991 -0.0579985864 -0.0193013344 0.00254170713 -0.0578167215 -0.0271491017 0.0035075855 -0.0578855053 -0.0269360244 0.00674162991 -0.0579985864 -0.0193013344 0.00674162991 -0.0579985864 -0.0193013344 0.0035075855 -0.0578855053 -0.0269360244 0.00363202463 -0.0578932539 -0.0269446373 0.00374995009 -0.0579002462 -0.0269836951 0.00674162991 -0.0579985864 -0.0193013344 0.00363202463 -0.0578932539 -0.0269446373 0.00374995009 -0.0579002462 -0.0269836951 0.00391491503 -0.0579097532 -0.0271666795 0.00674162991 -0.0579985864 -0.0193013344 0.00674162991 -0.0579985864 -0.0193013344 0.00391491503 -0.0579097532 -0.0271666795 0.00679103425 -0.0579988956 -0.0271368045 0.00679103425 -0.0579988956 -0.0271368045 0.00391491503 -0.0579097532 -0.0271666795 0.00421864539 -0.0579258837 -0.0275586415 0.00536286086 -0.0579724908 -0.0291786008 0.00679103425 -0.0579988956 -0.0271368045 0.00421864539 -0.0579258837 -0.0275586415 0.00536286086 -0.0579724908 -0.0291786008 0.00566998404 -0.0579811633 -0.0295683462 0.00679103425 -0.0579988956 -0.0271368045 0.00679103425 -0.0579988956 -0.0271368045 0.00566998404 -0.0579811633 -0.0295683462 0.00655330345 -0.0579969883 -0.029085394 0.00655330345 -0.0579969883 -0.029085394 0.00566998404 -0.0579811633 -0.0295683462 0.00584707037 -0.057985384 -0.0297421254 0.00594891561 -0.0579876155 -0.0298129059 0.00655330345 -0.0579969883 -0.029085394 0.00584707037 -0.057985384 -0.0297421254 0.00594891561 -0.0579876155 -0.0298129059 0.00641230308 -0.0579953194 -0.0295556299 0.00655330345 -0.0579969883 -0.029085394 0.00594891561 -0.0579876155 -0.0298129059 0.00606505387 -0.0579898991 -0.0298559833 0.00641230308 -0.0579953194 -0.0295556299 0.00641230308 -0.0579953194 -0.0295556299 0.00606505387 -0.0579898991 -0.0298559833 0.006186591 -0.0579919964 -0.0298415944 0.006186591 -0.0579919964 -0.0298415944 0.0062856134 -0.0579935908 -0.0297674499 0.00641230308 -0.0579953194 -0.0295556299 -0.0538499765 -0.053585019 -0.026480604 -0.0538499765 -0.0410122201 -0.0452971384 -0.044647865 -0.0423056558 -0.0437012725 -0.0538499765 -0.0410122201 -0.0452971384 -0.0538499765 -0.0221957006 -0.0578699596 -0.050537575 -0.022823818 -0.0574702621 -0.0508224145 -0.00195709872 0.0553419702 -0.0507177971 0.00391346775 0.0552968644 -0.0508223809 0.00195739116 0.0553419627 -0.0508573912 -5.25386135e-09 0.0553570203 -0.0508224145 -0.00195709872 0.0553419702 -0.0508223809 0.00195739116 0.0553419627 -0.0508224145 -0.00195709872 0.0553419702 -0.0507178009 -0.00391364051 0.0552968942 -0.0507177971 0.00391346775 0.0552968644 -0.0591499805 0.00314997346 0.053629417 -0.0591499768 -0.00315001654 0.0536294505 -0.0561499633 0.00314997882 0.0536294244 -0.0591499768 -0.00315001654 0.0536294505 -0.0561499745 -0.00315005821 0.0536294132 -0.0561499633 0.00314997882 0.0536294244 -0.0561499745 -0.00315005821 0.0536294132 -0.0548970215 -0.00289008999 0.0536429882 -0.0561499633 0.00314997882 0.0536294244 -0.0548970215 -0.00289008999 0.0536429882 -0.0538499914 -0.00215239031 0.0536750294 -0.0561499633 0.00314997882 0.0536294244 -0.0538499914 -0.00215239031 0.0536750294 -0.0532197766 -0.00115606561 0.0536938384 -0.0561499633 0.00314997882 0.0536294244 -0.0532197766 -0.00115606561 0.0536938384 -0.0529999807 -2.00525854e-08 0.0537039228 -0.0561499633 0.00314997882 0.0536294244 -0.0529999807 -2.00525854e-08 0.0537039228 -0.0532206409 0.0011581853 0.0536937825 -0.0561499633 0.00314997882 0.0536294244 -0.0532206409 0.0011581853 0.0536937825 -0.0538499765 0.00215229439 0.0536750257 -0.0561499633 0.00314997882 0.0536294244 -0.0538499765 0.00215229439 0.0536750257 -0.054897029 0.00289000943 0.0536429733 -0.0561499633 0.00314997882 0.0536294244 -0.022408545 -0.0499028377 0.0331191719 -0.0105120298 -0.0552453957 0.0254888814 -0.0133940168 -0.054239694 0.0392090157 -0.0324543677 -0.0423732623 0.0474247113 -0.022408545 -0.0499028377 0.0331191719 -0.0133940168 -0.054239694 0.0392090157 -0.0415993519 -0.0314245522 0.0471917652 -0.022408545 -0.0499028377 0.0331191719 -0.0324543677 -0.0423732623 0.0474247113 -0.0455798246 -0.0241570622 0.0530822538 -0.0415993519 -0.0314245522 0.0471917652 -0.0324543677 -0.0423732623 0.0474247113 </float_array>
          <technique_common>
            <accessor count="1164" offset="0" source="#mesh_0-positions-array" stride="3">
              <param name="X" type="float" />
              <param name="Y" type="float" />
              <param name="Z" type="float" />
            </accessor>
          </technique_common>
        </source>
        <vertices id="mesh_0-vertices">
          <input semantic="POSITION" source="#mesh_0-positions" />
        </vertices>
        <polylist count="388" material="defaultMaterial">
          <input offset="0" semantic="VERTEX" source="#mesh_0-vertices" />
          <vcount>3 3 3 3 3 3 3 3 3 3 3 3 3 3 3 3 3 3 3 3 3 3 3 3 3 3 3 3 3 3 3 3 3 3 3 3 3 3 3 3 3 3 3 3 3 3 3 3 3 3 3 3 3 3 3 3 3 3 3 3 3 3 3 3 3 3 3 3 3 3 3 3 3 3 3 3 3 3 3 3 3 3 3 3 3 3 3 3 3 3 3 3 3 3 3 3 3 3 3 3 3 3 3 3 3 3 3 3 3 3 3 3 3 3 3 3 3 3 3 3 3 3 3 3 3 3 3 3 3 3 3 3 3 3 3 3 3 3 3 3 3 3 3 3 3 3 3 3 3 3 3 3 3 3 3 3 3 3 3 3 3 3 3 3 3 3 3 3 3 3 3 3 3 3 3 3 3 3 3 3 3 3 3 3 3 3 3 3 3 3 3 3 3 3 3 3 3 3 3 3 3 3 3 3 3 3 3 3 3 3 3 3 3 3 3 3 3 3 3 3 3 3 3 3 3 3 3 3 3 3 3 3 3 3 3 3 3 3 3 3 3 3 3 3 3 3 3 3 3 3 3 3 3 3 3 3 3 3 3 3 3 3 3 3 3 3 3 3 3 3 3 3 3 3 3 3 3 3 3 3 3 3 3 3 3 3 3 3 3 3 3 3 3 3 3 3 3 3 3 3 3 3 3 3 3 3 3 3 3 3 3 3 3 3 3 3 3 3 3 3 3 3 3 3 3 3 3 3 3 3 3 3 3 3 3 3 3 3 3 3 3 3 3 3 3 3 3 3 3 3 3 3 3 3 3 3 3 3 3 3 3 3 3 3 3 3 3 3 3 3 3 3 3 3 3 3 3 3 3 3 3 3 3 3 3 3 3 3 </vcount>
          <p>0 1 2 3 4 5 6 7 8 9 10 11 12 13 14 15 16 17 18 19 20 21 22 23 24 25 26 27 28 29 30 31 32 33 34 35 36 37 38 39 40 41 42 43 44 45 46 47 48 49 50 51 52 53 54 55 56 57 58 59 60 61 62 63 64 65 66 67 68 69 70 71 72 73 74 75 76 77 78 79 80 81 82 83 84 85 86 87 88 89 90 91 92 93 94 95 96 97 98 99 100 101 102 103 104 105 106 107 108 109 110 111 112 113 114 115 116 117 118 119 120 121 122 123 124 125 126 127 128 129 130 131 132 133 134 135 136 137 138 139 140 141 142 143 144 145 146 147 148 149 150 151 152 153 154 155 156 157 158 159 160 161 162 163 164 165 166 167 168 169 170 171 172 173 174 175 176 177 178 179 180 181 182 183 184 185 186 187 188 189 190 191 192 193 194 195 196 197 198 199 200 201 202 203 204 205 206 207 208 209 210 211 212 213 214 215 216 217 218 219 220 221 222 223 224 225 226 227 228 229 230 231 232 233 234 235 236 237 238 239 240 241 242 243 244 245 246 247 248 249 250 251 252 253 254 255 256 257 258 259 260 261 262 263 264 265 266 267 268 269 270 271 272 273 274 275 276 277 278 279 280 281 282 283 284 285 286 287 288 289 290 291 292 293 294 295 296 297 298 299 300 301 302 303 304 305 306 307 308 309 310 311 312 313 314 315 316 317 318 319 320 321 322 323 324 325 326 327 328 329 330 331 332 333 334 335 336 337 338 339 340 341 342 343 344 345 346 347 348 349 350 351 352 353 354 355 356 357 358 359 360 361 362 363 364 365 366 367 368 369 370 371 372 373 374 375 376 377 378 379 380 381 382 383 384 385 386 387 388 389 390 391 392 393 394 395 396 397 398 399 400 401 402 403 404 405 406 407 408 409 410 411 412 413 414 415 416 417 418 419 420 421 422 423 424 425 426 427 428 429 430 431 432 433 434 435 436 437 438 439 440 441 442 443 444 445 446 447 448 449 450 451 452 453 454 455 456 457 458 459 460 461 462 463 464 465 466 467 468 469 470 471 472 473 474 475 476 477 478 479 480 481 482 483 484 485 486 487 488 489 490 491 492 493 494 495 496 497 498 499 500 501 502 503 504 505 506 507 508 509 510 511 512 513 514 515 516 517 518 519 520 521 522 523 524 525 526 527 528 529 530 531 532 533 534 535 536 537 538 539 540 541 542 543 544 545 546 547 548 549 550 551 552 553 554 555 556 557 558 559 560 561 562 563 564 565 566 567 568 569 570 571 572 573 574 575 576 577 578 579 580 581 582 583 584 585 586 587 588 589 590 591 592 593 594 595 596 597 598 599 600 601 602 603 604 605 606 607 608 609 610 611 612 613 614 615 616 617 618 619 620 621 622 623 624 625 626 627 628 629 630 631 632 633 634 635 636 637 638 639 640 641 642 643 644 645 646 647 648 649 650 651 652 653 654 655 656 657 658 659 660 661 662 663 664 665 666 667 668 669 670 671 672 673 674 675 676 677 678 679 680 681 682 683 684 685 686 687 688 689 690 691 692 693 694 695 696 697 698 699 700 701 702 703 704 705 706 707 708 709 710 711 712 713 714 715 716 717 718 719 720 721 722 723 724 725 726 727 728 729 730 731 732 733 734 735 736 737 738 739 740 741 742 743 744 745 746 747 748 749 750 751 752 753 754 755 756 757 758 759 760 761 762 763 764 765 766 767 768 769 770 771 772 773 774 775 776 777 778 779 780 781 782 783 784 785 786 787 788 789 790 791 792 793 794 795 796 797 798 799 800 801 802 803 804 805 806 807 808 809 810 811 812 813 814 815 816 817 818 819 820 821 822 823 824 825 826 827 828 829 830 831 832 833 834 835 836 837 838 839 840 841 842 843 844 845 846 847 848 849 850 851 852 853 854 855 856 857 858 859 860 861 862 863 864 865 866 867 868 869 870 871 872 873 874 875 876 877 878 879 880 881 882 883 884 885 886 887 888 889 890 891 892 893 894 895 896 897 898 899 900 901 902 903 904 905 906 907 908 909 910 911 912 913 914 915 916 917 918 919 920 921 922 923 924 925 926 927 928 929 930 931 932 933 934 935 936 937 938 939 940 941 942 943 944 945 946 947 948 949 950 951 952 953 954 955 956 957 958 959 960 961 962 963 964 965 966 967 968 969 970 971 972 973 974 975 976 977 978 979 980 981 982 983 984 985 986 987 988 989 990 991 992 993 994 995 996 997 998 999 1000 1001 1002 1003 1004 1005 1006 1007 1008 1009 1010 1011 1012 1013 1014 1015 1016 1017 1018 1019 1020 1021 1022 1023 1024 1025 1026 1027 1028 1029 1030 1031 1032 1033 1034 1035 1036 1037 1038 1039 1040 1041 1042 1043 1044 1045 1046 1047 1048 1049 1050 1051 1052 1053 1054 1055 1056 1057 1058 1059 1060 1061 1062 1063 1064 1065 1066 1067 1068 1069 1070 1071 1072 1073 1074 1075 1076 1077 1078 1079 1080 1081 1082 1083 1084 1085 1086 1087 1088 1089 1090 1091 1092 1093 1094 1095 1096 1097 1098 1099 1100 1101 1102 1103 1104 1105 1106 1107 1108 1109 1110 1111 1112 1113 1114 1115 1116 1117 1118 1119 1120 1121 1122 1123 1124 1125 1126 1127 1128 1129 1130 1131 1132 1133 1134 1135 1136 1137 1138 1139 1140 1141 1142 1143 1144 1145 1146 1147 1148 1149 1150 1151 1152 1153 1154 1155 1156 1157 1158 1159 1160 1161 1162 1163 </p>
        </polylist>
      </mesh>
    </geometry>
  </library_geometries>
  <library_controllers>
  </library_controllers>
  <library_visual_scenes>
    <visual_scene id="Scene" name="Scene">
      <node id="node" name="" type="NODE">
        <matrix sid="matrix">1 0 0 0 0 1 0 0 0 0 1 0 0 0 0 1</matrix>
        <instance_geometry url="#mesh_0">
          <bind_material>
            <technique_common>
              <instance_material symbol="defaultMaterial" target="#material_0">
              </instance_material>
            </technique_common>
          </bind_material>
        </instance_geometry>
      </node>
    </visual_scene>
  </library_visual_scenes>
  <scene>
    <instance_visual_scene url="#Scene" />
  </scene>
</COLLADA>
