<?xml version="1.0" encoding="UTF-8" standalone="no" ?>
<COLLADA xmlns="http://www.collada.org/2005/11/COLLADASchema" version="1.4.1">
  <asset>
    <contributor>
      <author>Assimp</author>
      <authoring_tool>Assimp Exporter</authoring_tool>
    </contributor>
    <created>2025-11-12T11:09:31</created>
    <modified>2025-11-12T11:09:31</modified>
    <unit name="meter" meter="1" />
    <up_axis>Y_UP</up_axis>
  </asset>
  <library_images>
  </library_images>
  <library_effects>
    <effect id="material_0-fx" name="">
      <profile_COMMON>
        <technique sid="standard">
          <phong>
            <emission>
              <color sid="emission">0   0   0   4.28026616e-41</color>
            </emission>
            <ambient>
              <color sid="ambient">0.535294116   0.535294116   0.535294116   4.28026616e-41</color>
            </ambient>
            <diffuse>
              <color sid="diffuse">0.535294116   0.535294116   0.535294116   4.28026616e-41</color>
            </diffuse>
            <specular>
              <color sid="specular">0.140000001   0.140000001   0.140000001   4.28026616e-41</color>
            </specular>
          </phong>
        </technique>
      </profile_COMMON>
    </effect>
  </library_effects>
  <library_materials>
    <material id="material_0" name="">
      <instance_effect url="#material_0-fx"/>
    </material>
  </library_materials>
  <library_geometries>
    <geometry id="mesh_0" name="" >
      <mesh>
        <source id="mesh_0-positions" name="mesh_0-positions">
          <float_array id="mesh_0-positions-array" count="3825"> -0.00619790889 0.0374925956 0.021596007 -0.00630030781 0.0374945179 0.0214902461 0.00740045635 0.034645617 0.0491500087 -0.00170907401 0.0371320881 0.0229182951 0.00740045635 0.034645617 0.0491500087 0.0140280761 0.0310833957 0.0328529105 -0.00170907401 0.0371320881 0.0229182951 -0.00619790889 0.0374925956 0.021596007 0.00740045635 0.034645617 0.0491500087 0.00740045635 0.034645617 0.0491500087 0.0195662361 0.0265166387 0.0491500124 0.0140280761 0.0310833957 0.0328529105 0.0140280761 0.0310833957 0.0328529105 0.0195662361 0.0265166387 0.0491500124 0.0205417667 0.0255039651 0.0376314968 0.0205417667 0.0255039651 0.0376314968 0.0195662361 0.0265166387 0.0491500124 0.0276953019 0.0143507551 0.049150005 0.0257711485 0.0183184482 0.0417963229 0.0276953019 0.0143507551 0.049150005 0.0292751733 0.00969410595 0.0448873825 0.0257711485 0.0183184482 0.0417963229 0.0205417667 0.0255039651 0.0376314968 0.0276953019 0.0143507551 0.049150005 0.0276953019 0.0143507551 0.049150005 0.0305497777 1.26153125e-07 0.0491500199 0.0292751733 0.00969410595 0.0448873825 0.0292751733 0.00969410595 0.0448873825 0.0305497777 1.26153125e-07 0.0491500199 0.0305495504 8.22642251e-05 0.0462597497 0.0305495504 8.22642251e-05 0.0462597497 0.0305497777 1.26153125e-07 0.0491500199 0.0292946659 -0.00962185953 0.044905927 0.0292946659 -0.00962185953 0.044905927 0.0305497777 1.26153125e-07 0.0491500199 0.0276951492 -0.0143505111 0.0491500087 0.0258108471 -0.0182470568 0.0418294705 0.0276951492 -0.0143505111 0.0491500087 0.0195661597 -0.0265163928 0.0491500199 0.0206128694 -0.0254268181 0.0376859196 0.0195661597 -0.0265163928 0.0491500199 0.0141488621 -0.0310011506 0.0329381861 0.0206128694 -0.0254268181 0.0376859196 0.0258108471 -0.0182470568 0.0418294705 0.0195661597 -0.0265163928 0.0491500199 0.0195661597 -0.0265163928 0.0491500199 0.00740042189 -0.0346453786 0.0491500124 0.0141488621 -0.0310011506 0.0329381861 0.0141488621 -0.0310011506 0.0329381861 0.00740042189 -0.0346453786 0.0491500124 -0.00152905518 -0.037105944 0.0230145119 -0.00152905518 -0.037105944 0.0230145119 0.00740042189 -0.0346453786 0.0491500124 -0.00695034722 -0.0374998972 0.0491500162 -0.00372633524 -0.0373610593 0.0219154283 -0.00695034722 -0.0374998972 0.0491500162 -0.00604203064 -0.0374889076 0.021649234 -0.00372633524 -0.0373610593 0.0219154283 -0.00152905518 -0.037105944 0.0230145119 -0.00695034722 -0.0374998972 0.0491500162 -0.00657193689 -0.0374979898 -0.00561716594 -0.00680189952 -0.0374996066 -0.00440945756 -0.00695026433 -0.0374999046 -0.0172307566 -0.00643039169 -0.0374962911 -0.0062171272 -0.00695026433 -0.0374999046 -0.0172307566 -0.00629775226 -0.0374942124 -0.00649330951 -0.00643039169 -0.0374962911 -0.0062171272 -0.00657193689 -0.0374979898 -0.00561716594 -0.00695026433 -0.0374999046 -0.0172307566 0.00354991551 -0.0359998904 -0.0214307606 -0.00152890536 -0.037105944 -0.00801451784 -0.00695026433 -0.0374999046 -0.0172307566 0.00354991551 -0.0359998904 -0.0214307606 0.0155497193 -0.0299998913 -0.0262307655 -0.00152890536 -0.037105944 -0.00801451784 -0.00152890536 -0.037105944 -0.00801451784 0.0155497193 -0.0299998913 -0.0262307655 0.0141489515 -0.0310011543 -0.0179381948 0.0141489515 -0.0310011543 -0.0179381948 0.0155497193 -0.0299998913 -0.0262307655 0.0213033352 -0.0246574115 -0.0285321288 0.0206129197 -0.0254268199 -0.0226859283 0.0213033352 -0.0246574115 -0.0285321288 0.0258107353 -0.0182470437 -0.0268294681 0.0206129197 -0.0254268199 -0.0226859283 0.0141489515 -0.0310011543 -0.0179381948 0.0213033352 -0.0246574115 -0.0285321288 0.0213033352 -0.0246574115 -0.0285321288 0.0261380002 -0.0176469386 -0.0304660555 0.0258107353 -0.0182470437 -0.0268294681 0.0258107353 -0.0182470437 -0.0268294681 0.0261380002 -0.0176469386 -0.0304660555 0.0293958467 -0.00923065189 -0.0317692235 0.0292943139 -0.00962185953 -0.0299059432 0.0293958467 -0.00923065189 -0.0317692235 0.0305498261 1.2504222e-07 -0.0322307684 0.0305497609 8.22729562e-05 -0.0312597528 0.0305498261 1.2504222e-07 -0.0322307684 0.0293959174 0.00923089962 -0.0317692235 0.0292749107 0.00969411246 -0.0298873913 0.0293959174 0.00923089962 -0.0317692235 0.0261383709 0.0176472031 -0.0304660574 0.0257713683 0.0183184426 -0.0267963316 0.0261383709 0.0176472031 -0.0304660574 0.021303311 0.0246576685 -0.0285321213 0.0205418915 0.0255039688 -0.0226315018 0.021303311 0.0246576685 -0.0285321213 0.015549738 0.0300001428 -0.0262307655 0.0140278591 0.0310833938 -0.0178529117 0.015549738 0.0300001428 -0.0262307655 0.00354955811 0.0360001512 -0.0214307532 -0.00170882256 0.0371320881 -0.00791829266 0.00354955811 0.0360001512 -0.0214307532 -0.00619789632 0.0374925956 -0.00659600273 -0.00170882256 0.0371320881 -0.00791829266 0.0140278591 0.0310833938 -0.0178529117 0.00354955811 0.0360001512 -0.0214307532 -0.00619789632 0.0374925956 -0.00659600273 0.00354955811 0.0360001512 -0.0214307532 -0.00630044192 0.0374945253 -0.00649024034 -0.00630044192 0.0374945253 -0.00649024034 0.00354955811 0.0360001512 -0.0214307532 -0.00695025036 0.0375001393 -0.0172307529 -0.00637337659 0.03749571 -0.00636054249 -0.00695025036 0.0375001393 -0.0172307529 -0.00647106906 0.0374970883 -0.00608389592 -0.00637337659 0.03749571 -0.00636054249 -0.00630044192 0.0374945253 -0.00649024034 -0.00695025036 0.0375001393 -0.0172307529 -0.00659842603 0.0374985039 0.0205077827 -0.00680625439 0.0374998674 0.0193472877 -0.006950418 0.0375001431 0.0491500013 -0.00647091726 0.0374970734 0.0210838877 -0.006950418 0.0375001431 0.0491500013 -0.00637312885 0.0374956988 0.0213605389 -0.00647091726 0.0374970734 0.0210838877 -0.00659842603 0.0374985039 0.0205077827 -0.006950418 0.0375001431 0.0491500013 -0.00410321215 -0.0373916477 0.00749999005 -0.00668647699 -0.0374989547 0.0169537626 -0.00668619061 -0.0374989733 -0.00195375807 -0.00668619061 -0.0374989733 -0.00195375807 -0.00668647699 -0.0374989547 0.0169537626 -0.00680189952 -0.0374996066 -0.00440945756 -0.00680189952 -0.0374996066 -0.00440945756 -0.00668647699 -0.0374989547 0.0169537626 -0.00680158753 -0.0374995917 0.0194094498 -0.00695026433 -0.0374999046 -0.0172307566 -0.00680158753 -0.0374995917 0.0194094498 -0.00695034722 -0.0374998972 0.0491500162 -0.00695026433 -0.0374999046 -0.0172307566 -0.00680189952 -0.0374996066 -0.00440945756 -0.00680158753 -0.0374995917 0.0194094498 -0.00680158753 -0.0374995917 0.0194094498 -0.00657183677 -0.0374979824 0.0206171628 -0.00695034722 -0.0374998972 0.0491500162 -0.00695034722 -0.0374998972 0.0491500162 -0.00657183677 -0.0374979824 0.0206171628 -0.0064300918 -0.0374962911 0.0212171208 -0.00629744912 -0.0374942161 0.0214933045 -0.00695034722 -0.0374998972 0.0491500162 -0.0064300918 -0.0374962911 0.0212171208 -0.00629744912 -0.0374942161 0.0214933045 -0.00618832372 -0.037492156 0.0216025095 -0.00695034722 -0.0374998972 0.0491500162 -0.00695034722 -0.0374998972 0.0491500162 -0.00618832372 -0.037492156 0.0216025095 -0.00604203064 -0.0374889076 0.021649234 0.0258108471 -0.0182470568 0.0418294705 0.0292946659 -0.00962185953 0.044905927 0.0276951492 -0.0143505111 0.0491500087 -0.00630030781 0.0374945179 0.0214902461 -0.00637312885 0.0374956988 0.0213605389 0.00740045635 0.034645617 0.0491500087 0.00740045635 0.034645617 0.0491500087 -0.00637312885 0.0374956988 0.0213605389 -0.006950418 0.0375001431 0.0491500013 -0.006950418 0.0375001431 0.0491500013 -0.00680625439 0.0374998674 0.0193472877 -0.00680591725 0.0374998599 -0.0043472806 -0.00695025036 0.0375001393 -0.0172307529 -0.00680591725 0.0374998599 -0.0043472806 -0.00659862207 0.0374985039 -0.00550778257 -0.00647106906 0.0374970883 -0.00608389592 -0.00695025036 0.0375001393 -0.0172307529 -0.00659862207 0.0374985039 -0.00550778257 -0.00429142686 0.0374057442 0.00794283487 -0.00429135794 0.037405774 0.00705717318 -0.00669102231 0.0374992378 0.0169947371 -0.00429142686 0.0374057442 0.00794283487 -0.00419975026 0.0373991504 0.00750113605 -0.00429135794 0.037405774 0.00705717318 -0.00429135794 0.037405774 0.00705717318 -0.00669112988 0.0374992453 -0.00199473696 -0.00669102231 0.0374992378 0.0169947371 -0.00669102231 0.0374992378 0.0169947371 -0.00669112988 0.0374992453 -0.00199473696 -0.00680591725 0.0374998599 -0.0043472806 -0.00680625439 0.0374998674 0.0193472877 -0.00669102231 0.0374992378 0.0169947371 -0.00680591725 0.0374998599 -0.0043472806 0.0140278591 0.0310833938 -0.0178529117 0.0205418915 0.0255039688 -0.0226315018 0.015549738 0.0300001428 -0.0262307655 0.0205418915 0.0255039688 -0.0226315018 0.0257713683 0.0183184426 -0.0267963316 0.021303311 0.0246576685 -0.0285321213 0.0257713683 0.0183184426 -0.0267963316 0.0292749107 0.00969411246 -0.0298873913 0.0261383709 0.0176472031 -0.0304660574 0.0292749107 0.00969411246 -0.0298873913 0.0305497609 8.22729562e-05 -0.0312597528 0.0293959174 0.00923089962 -0.0317692235 0.0305497609 8.22729562e-05 -0.0312597528 0.0292943139 -0.00962185953 -0.0299059432 0.0305498261 1.2504222e-07 -0.0322307684 0.0292943139 -0.00962185953 -0.0299059432 0.0258107353 -0.0182470437 -0.0268294681 0.0293958467 -0.00923065189 -0.0317692235 -0.00152890536 -0.037105944 -0.00801451784 -0.00372632826 -0.0373610482 -0.00691542914 -0.00695026433 -0.0374999046 -0.0172307566 -0.00695026433 -0.0374999046 -0.0172307566 -0.00372632826 -0.0373610482 -0.00691542914 -0.00604249723 -0.0374888927 -0.00664923806 -0.00604249723 -0.0374888927 -0.00664923806 -0.00618852722 -0.0374921598 -0.00660251034 -0.00695026433 -0.0374999046 -0.0172307566 -0.00695026433 -0.0374999046 -0.0172307566 -0.00618852722 -0.0374921598 -0.00660251034 -0.00629775226 -0.0374942124 -0.00649330951 -0.006950418 0.0375001431 0.0491500013 -0.00680591725 0.0374998599 -0.0043472806 -0.00695025036 0.0375001393 -0.0172307529 0.0352998413 -0.00314987404 -0.0298674926 0.0382997021 -0.00314987195 -0.029867487 0.0330498181 -0.015864484 -0.0264789145 0.0340781584 -0.0029033625 -0.0298874453 0.0330498181 -0.015864484 -0.0264789145 0.0330497846 -0.00220441865 -0.0299351234 0.0340781584 -0.0029033625 -0.0298874453 0.0352998413 -0.00314987404 -0.0298674926 0.0330498181 -0.015864484 -0.0264789145 0.0382998101 -0.0374999084 0.00749999704 0.033049766 -0.0374999121 0.00749999145 0.0382997058 -0.0349394046 -0.00611910503 0.0382997058 -0.0349394046 -0.00611910503 0.033049766 -0.0374999121 0.00749999145 0.0330498703 -0.0348526575 -0.00633963104 0.038299799 -0.0276076235 -0.017878402 0.0330498703 -0.0348526575 -0.00633963104 0.0330498405 -0.0272846892 -0.0182252936 0.0382998139 -0.0165057611 -0.0261720475 0.0330498405 -0.0272846892 -0.0182252936 0.0330498181 -0.015864484 -0.0264789145 0.0382997021 -0.00314987195 -0.029867487 0.0382998139 -0.0165057611 -0.0261720475 0.0330498181 -0.015864484 -0.0264789145 0.038299799 -0.0276076235 -0.017878402 0.0382997058 -0.0349394046 -0.00611910503 0.0330498703 -0.0348526575 -0.00633963104 0.0330498405 -0.0272846892 -0.0182252936 0.0382998139 -0.0165057611 -0.0261720475 0.038299799 -0.0276076235 -0.017878402 0.033049766 -0.0374999121 0.00749999145 0.0382998101 -0.0374999084 0.00749999704 0.0330494754 -0.0374952555 0.00809021574 0.0330494754 -0.0374952555 0.00809021574 0.0382998101 -0.0374999084 0.00749999704 0.0382997692 -0.0346453749 0.0218506381 0.0330498442 -0.0374813117 0.00868028402 0.0382997692 -0.0346453749 0.0218506381 0.0330498479 -0.0374581181 0.00927007478 0.0330498442 -0.0374813117 0.00868028402 0.0330494754 -0.0374952555 0.00809021574 0.0382997692 -0.0346453749 0.0218506381 0.0330497734 -0.030163696 0.0297799278 0.0330498703 -0.0321766138 0.0267589893 0.0382998139 -0.026516391 0.0340165123 0.0330498293 -0.0278413817 0.0326217413 0.0382998139 -0.026516391 0.0340165123 0.0330497697 -0.0252523981 0.0352229364 0.0330498293 -0.0278413817 0.0326217413 0.0330497734 -0.030163696 0.0297799278 0.0382998139 -0.026516391 0.0340165123 0.0382998139 -0.026516391 0.0340165123 0.0382997319 -0.0143505177 0.0421455055 0.0330497697 -0.0252523981 0.0352229364 0.0330497697 -0.0252523981 0.0352229364 0.0382997319 -0.0143505177 0.0421455055 0.0330497772 -0.0224215481 0.037558604 0.0330497772 -0.0224215481 0.037558604 0.0382997319 -0.0143505177 0.0421455055 0.0330496356 -0.0100845983 0.0436185524 0.0330496356 -0.0100845983 0.0436185524 0.0382997319 -0.0143505177 0.0421455055 0.0382997096 1.26973404e-07 0.045000013 0.0330500081 0.00360719464 0.0448261388 0.0382997096 1.26973404e-07 0.045000013 0.0382997096 0.0143507598 0.0421455093 0.0330498442 0.0168143772 0.0410191417 0.0382997096 0.0143507598 0.0421455093 0.0382994227 0.0265166499 0.0340165123 0.033049766 0.027762657 0.032708995 0.0382994227 0.0265166499 0.0340165123 0.0382995531 0.0346456245 0.0218506362 0.033049766 0.0349811651 0.0210121423 0.0382995531 0.0346456245 0.0218506362 0.0382997803 0.0375001468 0.00749999657 0.033049617 0.0375001766 0.00750000915 0.033049766 0.0349811651 0.0210121423 0.0382997803 0.0375001468 0.00749999657 0.033049766 0.0349811651 0.0210121423 0.033049766 0.027762657 0.032708995 0.0382995531 0.0346456245 0.0218506362 0.033049766 0.027762657 0.032708995 0.0330498442 0.0168143772 0.0410191417 0.0382994227 0.0265166499 0.0340165123 0.0330498442 0.0168143772 0.0410191417 0.0330500081 0.00360719464 0.0448261388 0.0382997096 0.0143507598 0.0421455093 0.0330500081 0.00360719464 0.0448261388 0.0330496356 -0.0100845983 0.0436185524 0.0382997096 1.26973404e-07 0.045000013 0.0330498703 -0.0321766138 0.0267589893 0.0330496766 -0.0338880047 0.0235575959 0.0382998139 -0.026516391 0.0340165123 0.0382998139 -0.026516391 0.0340165123 0.0330496766 -0.0338880047 0.0235575959 0.0382997692 -0.0346453749 0.0218506381 0.0382997692 -0.0346453749 0.0218506381 0.0330496766 -0.0338880047 0.0235575959 0.0330497622 -0.035281837 0.0202057231 0.0330498517 -0.0356938578 0.0189974476 0.0382997692 -0.0346453749 0.0218506381 0.0330497622 -0.035281837 0.0202057231 0.0330498517 -0.0356938578 0.0189974476 0.0330496505 -0.0360645019 0.0177758522 0.0382997692 -0.0346453749 0.0218506381 0.0382997692 -0.0346453749 0.0218506381 0.0330496505 -0.0360645019 0.0177758522 0.0330496244 -0.0363933966 0.0165423658 0.033050023 -0.036659874 0.0153926983 0.0382997692 -0.0346453749 0.0218506381 0.0330496244 -0.0363933966 0.0165423658 0.033050023 -0.036659874 0.0153926983 0.0330496691 -0.0368900709 0.0142352507 0.0382997692 -0.0346453749 0.0218506381 0.0382997692 -0.0346453749 0.0218506381 0.0330496691 -0.0368900709 0.0142352507 0.0330497734 -0.0370837748 0.0130711393 0.0330495834 -0.0372515582 0.0118085891 0.0382997692 -0.0346453749 0.0218506381 0.0330497734 -0.0370837748 0.0130711393 0.0330495834 -0.0372515582 0.0118085891 0.0330497026 -0.037376374 0.0105410842 0.0382997692 -0.0346453749 0.0218506381 0.0382997692 -0.0346453749 0.0218506381 0.0330497026 -0.037376374 0.0105410842 0.0330498479 -0.0374581181 0.00927007478 0.033049617 0.0375001766 0.00750000915 0.0382997803 0.0375001468 0.00749999657 0.0330499858 0.0374954827 0.00690977089 0.0330499858 0.0374954827 0.00690977089 0.0382997803 0.0375001468 0.00749999657 0.0382999666 0.0349396691 -0.00611911155 0.0330500863 0.0374815837 0.00631971937 0.0382999666 0.0349396691 -0.00611911155 0.0330499113 0.0374583751 0.00572993793 0.0330500863 0.0374815837 0.00631971937 0.0330499858 0.0374954827 0.00690977089 0.0382999666 0.0349396691 -0.00611911155 0.0330498107 0.0321768709 -0.0117590008 0.0330500789 0.0338882469 -0.00855759718 0.0382997692 0.0276078749 -0.0178783983 0.0330497362 0.0301639698 -0.0147799319 0.0382997692 0.0276078749 -0.0178783983 0.0330497622 0.0278416369 -0.0176217426 0.0330497362 0.0301639698 -0.0147799319 0.0330498107 0.0321768709 -0.0117590008 0.0382997692 0.0276078749 -0.0178783983 0.0382997692 0.0276078749 -0.0178783983 0.0382998884 0.0165060107 -0.0261720531 0.0330497622 0.0278416369 -0.0176217426 0.0330497622 0.0278416369 -0.0176217426 0.0382998884 0.0165060107 -0.0261720531 0.0330496915 0.0252526458 -0.0202229377 0.0330496915 0.0252526458 -0.0202229377 0.0382998884 0.0165060107 -0.0261720531 0.0330498517 0.0224218052 -0.0225586239 0.0330498517 0.0224218052 -0.0225586239 0.0382998884 0.0165060107 -0.0261720531 0.0330496468 0.0213933662 -0.0232990403 0.0330496468 0.0213933662 -0.0232990403 0.0382998884 0.0165060107 -0.0261720531 0.0330497772 0.0203405023 -0.0240042992 0.0330497772 0.0203405023 -0.0240042992 0.0382998884 0.0165060107 -0.0261720531 0.0330496393 0.0192644261 -0.0246735848 0.0330496393 0.0192644261 -0.0246735848 0.0382998884 0.0165060107 -0.0261720531 0.0330499187 0.0181406308 -0.025320325 0.0330499187 0.0181406308 -0.025320325 0.0382998884 0.0165060107 -0.0261720531 0.0330497287 0.0169951562 -0.0259278398 0.0330497287 0.0169951562 -0.0259278398 0.0382998884 0.0165060107 -0.0261720531 0.0382998995 0.00315012783 -0.0298674926 0.0330495872 0.0158293769 -0.0264954045 0.0382998995 0.00315012783 -0.0298674926 0.0330497846 0.0125418268 -0.027840592 0.0330495872 0.0158293769 -0.0264954045 0.0330497287 0.0169951562 -0.0259278398 0.0382998995 0.00315012783 -0.0298674926 0.0352999121 0.00315013411 -0.0298674889 0.0330496095 0.00335990987 -0.0298492089 0.0382998995 0.00315012783 -0.0298674926 0.0352999121 0.00315013411 -0.0298674889 0.0340796411 0.00290427636 -0.0298873968 0.0330496095 0.00335990987 -0.0298492089 0.0330496095 0.00335990987 -0.0298492089 0.0340796411 0.00290427636 -0.0298873968 0.0330495574 0.00220466964 -0.0299351253 0.0330496095 0.00335990987 -0.0298492089 0.0330494568 0.00451193051 -0.0297276154 0.0382998995 0.00315012783 -0.0298674926 0.0382998995 0.00315012783 -0.0298674926 0.0330494568 0.00451193051 -0.0297276154 0.0330495127 0.00565965334 -0.029570505 0.0330498107 0.00914174411 -0.0288687013 0.0382998995 0.00315012783 -0.0298674926 0.0330495127 0.00565965334 -0.029570505 0.0330498107 0.00914174411 -0.0288687013 0.0330497846 0.0125418268 -0.027840592 0.0382998995 0.00315012783 -0.0298674926 0.0330500789 0.0338882469 -0.00855759718 0.0330500454 0.0352820829 -0.00520572579 0.0382997692 0.0276078749 -0.0178783983 0.0382997692 0.0276078749 -0.0178783983 0.0330500454 0.0352820829 -0.00520572579 0.0382999666 0.0349396691 -0.00611911155 0.0382999666 0.0349396691 -0.00611911155 0.0330500454 0.0352820829 -0.00520572579 0.0330494829 0.0356941037 -0.00399745675 0.0330499858 0.0360647552 -0.00277585909 0.0382999666 0.0349396691 -0.00611911155 0.0330494829 0.0356941037 -0.00399745675 0.0330499858 0.0360647552 -0.00277585909 0.0330494978 0.0363936424 -0.00154236075 0.0382999666 0.0349396691 -0.00611911155 0.0382999666 0.0349396691 -0.00611911155 0.0330494978 0.0363936424 -0.00154236075 0.0330497772 0.0366601273 -0.000392727816 0.0330498815 0.0368903428 0.000764728 0.0382999666 0.0349396691 -0.00611911155 0.0330497772 0.0366601273 -0.000392727816 0.0330498815 0.0368903428 0.000764728 0.0330496505 0.037084002 0.00192885497 0.0382999666 0.0349396691 -0.00611911155 0.0382999666 0.0349396691 -0.00611911155 0.0330496505 0.037084002 0.00192885497 0.0330498368 0.0372518152 0.00319140474 0.0330497213 0.0373766348 0.00445890939 0.0382999666 0.0349396691 -0.00611911155 0.0330498368 0.0372518152 0.00319140474 0.0330497213 0.0373766348 0.00445890939 0.0330499113 0.0374583751 0.00572993793 0.0382999666 0.0349396691 -0.00611911155 0.0330498107 0.00914174411 -0.0288687013 0.0330495127 0.00565965334 -0.029570505 0.0308155995 0.00365631212 -0.030129673 0.0269889012 0.017481707 -0.0260807015 0.0308155995 0.00365631212 -0.030129673 0.0262280442 0.017481681 -0.0271706916 0.0205418915 0.0255039688 -0.0226315018 0.0262280442 0.017481681 -0.0271706916 0.0257713683 0.0183184426 -0.0267963316 0.0205418915 0.0255039688 -0.0226315018 0.0269889012 0.017481707 -0.0260807015 0.0262280442 0.017481681 -0.0271706916 0.0205418915 0.0255039688 -0.0226315018 0.0189646892 0.0286687985 -0.0175816268 0.0269889012 0.017481707 -0.0260807015 0.0205418915 0.0255039688 -0.0226315018 0.0172274578 0.0286687557 -0.0201347396 0.0189646892 0.0286687985 -0.0175816268 0.0205418915 0.0255039688 -0.0226315018 0.0140278591 0.0310833938 -0.0178529117 0.0172274578 0.0286687557 -0.0201347396 0.0172274578 0.0286687557 -0.0201347396 0.0140278591 0.0310833938 -0.0178529117 0.00500188256 0.0356289968 -0.0106098866 0.0189646892 0.0286687985 -0.0175816268 0.00500188256 0.0356289968 -0.0106098866 0.00809501391 0.035629034 -0.00605992554 0.0330498107 0.0321768709 -0.0117590008 0.00809501391 0.035629034 -0.00605992554 0.0330500789 0.0338882469 -0.00855759718 0.0330498107 0.0321768709 -0.0117590008 0.0189646892 0.0286687985 -0.0175816268 0.00809501391 0.035629034 -0.00605992554 0.0330498107 0.0321768709 -0.0117590008 0.0330497362 0.0301639698 -0.0147799319 0.0189646892 0.0286687985 -0.0175816268 0.0189646892 0.0286687985 -0.0175816268 0.0330497362 0.0301639698 -0.0147799319 0.0330497622 0.0278416369 -0.0176217426 0.0330496915 0.0252526458 -0.0202229377 0.0189646892 0.0286687985 -0.0175816268 0.0330497622 0.0278416369 -0.0176217426 0.0330496915 0.0252526458 -0.0202229377 0.0330498517 0.0224218052 -0.0225586239 0.0189646892 0.0286687985 -0.0175816268 0.0189646892 0.0286687985 -0.0175816268 0.0330498517 0.0224218052 -0.0225586239 0.0269889012 0.017481707 -0.0260807015 0.0269889012 0.017481707 -0.0260807015 0.0330498517 0.0224218052 -0.0225586239 0.0330496468 0.0213933662 -0.0232990403 0.0330497772 0.0203405023 -0.0240042992 0.0269889012 0.017481707 -0.0260807015 0.0330496468 0.0213933662 -0.0232990403 0.0330497772 0.0203405023 -0.0240042992 0.0330496393 0.0192644261 -0.0246735848 0.0269889012 0.017481707 -0.0260807015 0.0269889012 0.017481707 -0.0260807015 0.0330496393 0.0192644261 -0.0246735848 0.0330499187 0.0181406308 -0.025320325 0.0330497287 0.0169951562 -0.0259278398 0.0269889012 0.017481707 -0.0260807015 0.0330499187 0.0181406308 -0.025320325 0.0330497287 0.0169951562 -0.0259278398 0.0330495872 0.0158293769 -0.0264954045 0.0269889012 0.017481707 -0.0260807015 0.0269889012 0.017481707 -0.0260807015 0.0330495872 0.0158293769 -0.0264954045 0.0330497846 0.0125418268 -0.027840592 0.0330498107 0.00914174411 -0.0288687013 0.0269889012 0.017481707 -0.0260807015 0.0330497846 0.0125418268 -0.027840592 0.0330498107 0.00914174411 -0.0288687013 0.0308155995 0.00365631212 -0.030129673 0.0269889012 0.017481707 -0.0260807015 0.0330495127 0.00565965334 -0.029570505 0.0330494568 0.00451193051 -0.0297276154 0.0308155995 0.00365631212 -0.030129673 0.0308155995 0.00365631212 -0.030129673 0.0330494568 0.00451193051 -0.0297276154 0.0330496095 0.00335990987 -0.0298492089 0.0323834494 0.00119093363 -0.029970875 0.0330496095 0.00335990987 -0.0298492089 0.0330495574 0.00220466964 -0.0299351253 0.0323834494 0.00119093363 -0.029970875 0.0308155995 0.00365631212 -0.030129673 0.0330496095 0.00335990987 -0.0298492089 0.0323834494 0.00119093363 -0.029970875 0.0321497768 1.23849475e-06 -0.0299895648 0.0308155995 0.00365631212 -0.030129673 0.0308155995 0.00365631212 -0.030129673 0.0321497768 1.23849475e-06 -0.0299895648 0.0295263864 -0.0106852194 -0.0287660863 0.030503666 0.00365631189 -0.0305296853 0.0295263864 -0.0106852194 -0.0287660863 0.0290654674 -0.0106852008 -0.0293974709 0.0292943139 -0.00962185953 -0.0299059432 0.0290654674 -0.0106852008 -0.0293974709 0.0258107353 -0.0182470437 -0.0268294681 0.0292943139 -0.00962185953 -0.0299059432 0.030503666 0.00365631189 -0.0305296853 0.0290654674 -0.0106852008 -0.0293974709 0.0292943139 -0.00962185953 -0.0299059432 0.0303896237 0.00365629722 -0.0308769941 0.030503666 0.00365631189 -0.0305296853 0.0292943139 -0.00962185953 -0.0299059432 0.0305497609 8.22729562e-05 -0.0312597528 0.0303896237 0.00365629722 -0.0308769941 0.0303896237 0.00365629722 -0.0308769941 0.0305497609 8.22729562e-05 -0.0312597528 0.0292749107 0.00969411246 -0.0298873913 0.030503666 0.00365631189 -0.0305296853 0.0292749107 0.00969411246 -0.0298873913 0.0262280442 0.017481681 -0.0271706916 0.0308155995 0.00365631212 -0.030129673 0.030503666 0.00365631189 -0.0305296853 0.0262280442 0.017481681 -0.0271706916 0.0308155995 0.00365631212 -0.030129673 0.0295263864 -0.0106852194 -0.0287660863 0.030503666 0.00365631189 -0.0305296853 0.0321497768 1.23849475e-06 -0.0299895648 0.0323825218 -0.00118814094 -0.0299709421 0.0295263864 -0.0106852194 -0.0287660863 0.0295263864 -0.0106852194 -0.0287660863 0.0323825218 -0.00118814094 -0.0299709421 0.0330498181 -0.015864484 -0.0264789145 0.0234231856 -0.023517305 -0.0223049074 0.0330498181 -0.015864484 -0.0264789145 0.0330498405 -0.0272846892 -0.0182252936 0.0136476699 -0.0328444913 -0.0119464099 0.0330498405 -0.0272846892 -0.0182252936 0.0330498703 -0.0348526575 -0.00633963104 0.00167142996 -0.0372573882 0.000751359912 0.0330498703 -0.0348526575 -0.00633963104 0.033049766 -0.0374999121 0.00749999145 0.0144702541 -0.0374998488 0.0074999989 0.00167142996 -0.0372573882 0.000751359912 0.033049766 -0.0374999121 0.00749999145 0.0144702541 -0.0374998488 0.0074999989 -0.00410321215 -0.0373916477 0.00749999005 0.00167142996 -0.0372573882 0.000751359912 0.00167142996 -0.0372573882 0.000751359912 -0.00410321215 -0.0373916477 0.00749999005 -0.00668619061 -0.0374989733 -0.00195375807 -0.00223100767 -0.0372573324 -0.00498230802 -0.00668619061 -0.0374989733 -0.00195375807 -0.00372632826 -0.0373610482 -0.00691542914 -0.00152890536 -0.037105944 -0.00801451784 -0.00223100767 -0.0372573324 -0.00498230802 -0.00372632826 -0.0373610482 -0.00691542914 -0.00152890536 -0.037105944 -0.00801451784 0.0112503804 -0.0328444503 -0.0154749472 -0.00223100767 -0.0372573324 -0.00498230802 -0.00152890536 -0.037105944 -0.00801451784 0.0141489515 -0.0310011543 -0.0179381948 0.0112503804 -0.0328444503 -0.0154749472 0.0112503804 -0.0328444503 -0.0154749472 0.0141489515 -0.0310011543 -0.0179381948 0.0206129197 -0.0254268199 -0.0226859283 0.0136476699 -0.0328444913 -0.0119464099 0.0206129197 -0.0254268199 -0.0226859283 0.0234231856 -0.023517305 -0.0223049074 0.0330498405 -0.0272846892 -0.0182252936 0.0136476699 -0.0328444913 -0.0119464099 0.0234231856 -0.023517305 -0.0223049074 0.0323825218 -0.00118814094 -0.0299709421 0.0330497846 -0.00220441865 -0.0299351234 0.0330498181 -0.015864484 -0.0264789145 -0.00668619061 -0.0374989733 -0.00195375807 -0.00680189952 -0.0374996066 -0.00440945756 -0.00372632826 -0.0373610482 -0.00691542914 -0.00372632826 -0.0373610482 -0.00691542914 -0.00680189952 -0.0374996066 -0.00440945756 -0.00657193689 -0.0374979898 -0.00561716594 -0.00604249723 -0.0374888927 -0.00664923806 -0.00657193689 -0.0374979898 -0.00561716594 -0.00643039169 -0.0374962911 -0.0062171272 -0.00604249723 -0.0374888927 -0.00664923806 -0.00643039169 -0.0374962911 -0.0062171272 -0.00618852722 -0.0374921598 -0.00660251034 -0.00643039169 -0.0374962911 -0.0062171272 -0.00629775226 -0.0374942124 -0.00649330951 -0.00618852722 -0.0374921598 -0.00660251034 -0.00604249723 -0.0374888927 -0.00664923806 -0.00372632826 -0.0373610482 -0.00691542914 -0.00657193689 -0.0374979898 -0.00561716594 0.0206129197 -0.0254268199 -0.0226859283 0.0258107353 -0.0182470437 -0.0268294681 0.0234231856 -0.023517305 -0.0223049074 0.0234231856 -0.023517305 -0.0223049074 0.0258107353 -0.0182470437 -0.0268294681 0.0295263864 -0.0106852194 -0.0287660863 0.0330498181 -0.015864484 -0.0264789145 0.0234231856 -0.023517305 -0.0223049074 0.0295263864 -0.0106852194 -0.0287660863 0.0292749107 0.00969411246 -0.0298873913 0.0257713683 0.0183184426 -0.0267963316 0.0262280442 0.017481681 -0.0271706916 0.0140278591 0.0310833938 -0.0178529117 -0.00170882256 0.0371320881 -0.00791829266 0.00500188256 0.0356289968 -0.0106098866 0.00500188256 0.0356289968 -0.0106098866 -0.00170882256 0.0371320881 -0.00791829266 -0.00669112988 0.0374992453 -0.00199473696 -0.00429135794 0.037405774 0.00705717318 0.00500188256 0.0356289968 -0.0106098866 -0.00669112988 0.0374992453 -0.00199473696 -0.00429135794 0.037405774 0.00705717318 -0.00406628614 0.0374227241 0.0068354574 0.00500188256 0.0356289968 -0.0106098866 -0.00429135794 0.037405774 0.00705717318 0.00420177169 0.0374998301 0.00746865012 -0.00406628614 0.0374227241 0.0068354574 -0.00406628614 0.0374227241 0.0068354574 0.00420177169 0.0374998301 0.00746865012 0.00809501391 0.035629034 -0.00605992554 0.00500188256 0.0356289968 -0.0106098866 -0.00406628614 0.0374227241 0.0068354574 0.00809501391 0.035629034 -0.00605992554 -0.00637337659 0.03749571 -0.00636054249 -0.00647106906 0.0374970883 -0.00608389592 -0.00619789632 0.0374925956 -0.00659600273 -0.00630044192 0.0374945253 -0.00649024034 -0.00637337659 0.03749571 -0.00636054249 -0.00619789632 0.0374925956 -0.00659600273 -0.00647106906 0.0374970883 -0.00608389592 -0.00659862207 0.0374985039 -0.00550778257 -0.00619789632 0.0374925956 -0.00659600273 -0.00619789632 0.0374925956 -0.00659600273 -0.00659862207 0.0374985039 -0.00550778257 -0.00170882256 0.0371320881 -0.00791829266 -0.00170882256 0.0371320881 -0.00791829266 -0.00659862207 0.0374985039 -0.00550778257 -0.00680591725 0.0374998599 -0.0043472806 -0.00669112988 0.0374992453 -0.00199473696 -0.00170882256 0.0371320881 -0.00791829266 -0.00680591725 0.0374998599 -0.0043472806 0.00420177169 0.0374998301 0.00746865012 0.0127058178 0.0375000872 0.00749999518 0.00809501391 0.035629034 -0.00605992554 0.00809501391 0.035629034 -0.00605992554 0.0127058178 0.0375000872 0.00749999518 0.0330494829 0.0356941037 -0.00399745675 0.0330500454 0.0352820829 -0.00520572579 0.00809501391 0.035629034 -0.00605992554 0.0330494829 0.0356941037 -0.00399745675 0.0330500454 0.0352820829 -0.00520572579 0.0330500789 0.0338882469 -0.00855759718 0.00809501391 0.035629034 -0.00605992554 0.0127058178 0.0375000872 0.00749999518 0.0228777602 0.0375001505 0.00749999238 0.0330494829 0.0356941037 -0.00399745675 0.0330494829 0.0356941037 -0.00399745675 0.0228777602 0.0375001505 0.00749999238 0.0330499858 0.0360647552 -0.00277585909 0.0330499858 0.0360647552 -0.00277585909 0.0228777602 0.0375001505 0.00749999238 0.0330494978 0.0363936424 -0.00154236075 0.0330494978 0.0363936424 -0.00154236075 0.0228777602 0.0375001505 0.00749999238 0.0330497772 0.0366601273 -0.000392727816 0.0330497772 0.0366601273 -0.000392727816 0.0228777602 0.0375001505 0.00749999238 0.0330498815 0.0368903428 0.000764728 0.0330498815 0.0368903428 0.000764728 0.0228777602 0.0375001505 0.00749999238 0.0330496505 0.037084002 0.00192885497 0.0330496505 0.037084002 0.00192885497 0.0228777602 0.0375001505 0.00749999238 0.0330498368 0.0372518152 0.00319140474 0.0330498368 0.0372518152 0.00319140474 0.0228777602 0.0375001505 0.00749999238 0.0330497213 0.0373766348 0.00445890939 0.0330497213 0.0373766348 0.00445890939 0.0228777602 0.0375001505 0.00749999238 0.0330499113 0.0374583751 0.00572993793 0.0330499113 0.0374583751 0.00572993793 0.0228777602 0.0375001505 0.00749999238 0.0330500863 0.0374815837 0.00631971937 0.0330500863 0.0374815837 0.00631971937 0.0228777602 0.0375001505 0.00749999238 0.0330499858 0.0374954827 0.00690977089 0.0330499858 0.0374954827 0.00690977089 0.0228777602 0.0375001505 0.00749999238 0.033049617 0.0375001766 0.00750000915 -0.00668619061 -0.0374989733 -0.00195375807 -0.00223100767 -0.0372573324 -0.00498230802 0.00167142996 -0.0372573882 0.000751359912 0.00167142996 -0.0372573882 0.000751359912 -0.00223100767 -0.0372573324 -0.00498230802 0.0112503804 -0.0328444503 -0.0154749472 0.0136476699 -0.0328444913 -0.0119464099 0.0112503804 -0.0328444503 -0.0154749472 0.0206129197 -0.0254268199 -0.0226859283 0.0136476699 -0.0328444913 -0.0119464099 0.00167142996 -0.0372573882 0.000751359912 0.0112503804 -0.0328444503 -0.0154749472 0.0136476699 -0.0328444913 -0.0119464099 0.0330498703 -0.0348526575 -0.00633963104 0.00167142996 -0.0372573882 0.000751359912 0.0172274578 0.0286687557 -0.0201347396 0.00500188256 0.0356289968 -0.0106098866 0.0189646892 0.0286687985 -0.0175816268 0.0290654674 -0.0106852008 -0.0293974709 0.0295263864 -0.0106852194 -0.0287660863 0.0258107353 -0.0182470437 -0.0268294681 0.030503666 0.00365631189 -0.0305296853 0.0303896237 0.00365629722 -0.0308769941 0.0292749107 0.00969411246 -0.0298873913 -0.00695026433 -0.0374999046 -0.0172307566 -0.00695034722 -0.0374998972 0.0491500162 -0.0174501147 -0.0359998904 -0.0130307516 -0.0174501147 -0.0359998904 -0.0130307516 -0.00695034722 -0.0374998972 0.0491500162 -0.0213010106 -0.0346453786 0.0491500124 -0.0294499975 -0.0299998857 -0.00823074952 -0.0213010106 -0.0346453786 0.0491500124 -0.0334667079 -0.0265163928 0.0491500236 -0.0352036953 -0.0246574171 -0.00592937926 -0.0334667079 -0.0265163928 0.0491500236 -0.0415961109 -0.0143505214 0.0491500273 -0.0400384627 -0.0176469404 -0.00399545627 -0.0415961109 -0.0143505214 0.0491500273 -0.0432963483 -0.00923064817 -0.00269228942 -0.0400384627 -0.0176469404 -0.00399545627 -0.0352036953 -0.0246574171 -0.00592937926 -0.0415961109 -0.0143505214 0.0491500273 -0.0415961109 -0.0143505214 0.0491500273 -0.0444505364 1.24829953e-07 0.0491500273 -0.0432963483 -0.00923064817 -0.00269228942 -0.0432963483 -0.00923064817 -0.00269228942 -0.0444505364 1.24829953e-07 0.0491500273 -0.044450216 1.24493653e-07 -0.00223074015 -0.044450216 1.24493653e-07 -0.00223074015 -0.0444505364 1.24829953e-07 0.0491500273 -0.0432963222 0.00923089404 -0.00269228406 -0.0432963222 0.00923089404 -0.00269228406 -0.0444505364 1.24829953e-07 0.0491500273 -0.0415957868 0.0143507598 0.0491500162 -0.0400384702 0.0176472012 -0.00399544975 -0.0415957868 0.0143507598 0.0491500162 -0.033466842 0.026516635 0.0491500348 -0.03520355 0.0246576723 -0.00592937693 -0.033466842 0.026516635 0.0491500348 -0.0294502694 0.0300001446 -0.00823074766 -0.03520355 0.0246576723 -0.00592937693 -0.0400384702 0.0176472012 -0.00399544975 -0.033466842 0.026516635 0.0491500348 -0.033466842 0.026516635 0.0491500348 -0.021300979 0.0346456133 0.0491500087 -0.0294502694 0.0300001446 -0.00823074766 -0.0294502694 0.0300001446 -0.00823074766 -0.021300979 0.0346456133 0.0491500087 -0.0174501725 0.0360001549 -0.0130307544 -0.0174501725 0.0360001549 -0.0130307544 -0.021300979 0.0346456133 0.0491500087 -0.006950418 0.0375001431 0.0491500013 -0.00695025036 0.0375001393 -0.0172307529 -0.0174501725 0.0360001549 -0.0130307544 -0.006950418 0.0375001431 0.0491500013 -0.0400384702 0.0176472012 -0.00399544975 -0.0432963222 0.00923089404 -0.00269228406 -0.0415957868 0.0143507598 0.0491500162 -0.0352036953 -0.0246574171 -0.00592937926 -0.0294499975 -0.0299998857 -0.00823074952 -0.0334667079 -0.0265163928 0.0491500236 -0.0294499975 -0.0299998857 -0.00823074952 -0.0174501147 -0.0359998904 -0.0130307516 -0.0213010106 -0.0346453786 0.0491500124 0.00420177169 0.0374998301 0.00746865012 -0.00429135794 0.037405774 0.00705717318 -0.00419975026 0.0373991504 0.00750113605 -0.00429142686 0.0374057442 0.00794283487 0.00420177169 0.0374998301 0.00746865012 -0.00419975026 0.0373991504 0.00750113605 0.033049766 0.0349811651 0.0210121423 0.033049617 0.0375001766 0.00750000915 0.0265196431 0.0374965221 0.00801814161 0.0286868848 0.0348460227 0.0213039946 0.0265196431 0.0374965221 0.00801814161 0.024507368 0.0348459855 0.0212528277 0.0281015038 0.0279321764 0.0323837772 0.024507368 0.0348459855 0.0212528277 0.0264898911 0.0279321577 0.0323440731 0.0299353208 0.0179665256 0.0402937792 0.0264898911 0.0279321577 0.0323440731 0.0268510617 0.0179664623 0.0407561213 0.0305182394 0.00631435076 0.0447402522 0.0268510617 0.0179664623 0.0407561213 0.0257711485 0.0183184482 0.0417963229 0.0292751733 0.00969410595 0.0448873825 0.0305182394 0.00631435076 0.0447402522 0.0257711485 0.0183184482 0.0417963229 0.0292751733 0.00969410595 0.0448873825 0.0305495504 8.22642251e-05 0.0462597497 0.0305182394 0.00631435076 0.0447402522 0.0305182394 0.00631435076 0.0447402522 0.0305495504 8.22642251e-05 0.0462597497 0.0306232776 -0.00561361061 0.0448539294 0.031760361 0.00631437451 0.0444352888 0.0306232776 -0.00561361061 0.0448539294 0.0318125226 -0.00561362458 0.0445521548 0.0320761614 0.00631437544 0.0444379896 0.0318125226 -0.00561362458 0.0445521548 0.0321158171 -0.00561363855 0.0445538424 0.0325523801 0.00631438475 0.044451315 0.0321158171 -0.00561363855 0.0445538424 0.0325728357 -0.0056136339 0.0445656702 0.0330500081 0.00360719464 0.0448261388 0.0325728357 -0.0056136339 0.0445656702 0.0330496356 -0.0100845983 0.0436185524 0.0330500081 0.00360719464 0.0448261388 0.0325523801 0.00631438475 0.044451315 0.0325728357 -0.0056136339 0.0445656702 0.0330500081 0.00360719464 0.0448261388 0.0330498442 0.0168143772 0.0410191417 0.0325523801 0.00631438475 0.044451315 0.0325523801 0.00631438475 0.044451315 0.0330498442 0.0168143772 0.0410191417 0.0318496451 0.0179665592 0.0403669327 0.0320761614 0.00631437544 0.0444379896 0.0318496451 0.0179665592 0.0403669327 0.0306998752 0.0179665387 0.0403195359 0.031760361 0.00631437451 0.0444352888 0.0306998752 0.0179665387 0.0403195359 0.0299353208 0.0179665256 0.0402937792 0.0305182394 0.00631435076 0.0447402522 0.0299353208 0.0179665256 0.0402937792 0.0268510617 0.0179664623 0.0407561213 0.0305182394 0.00631435076 0.0447402522 0.031760361 0.00631437451 0.0444352888 0.0299353208 0.0179665256 0.0402937792 0.0305182394 0.00631435076 0.0447402522 0.0306232776 -0.00561361061 0.0448539294 0.031760361 0.00631437451 0.0444352888 0.0127058178 0.0375000872 0.00749999518 0.0160974078 0.037496455 0.00801345333 0.0228777602 0.0375001505 0.00749999238 0.0127058178 0.0375000872 0.00749999518 0.00420177169 0.0374998301 0.00746865012 0.0160974078 0.037496455 0.00801345333 0.0160974078 0.037496455 0.00801345333 0.00420177169 0.0374998301 0.00746865012 -0.000997813419 0.037496347 0.0104261413 0.01032928 0.0348458476 0.0227694605 -0.000997813419 0.037496347 0.0104261413 -0.00170907401 0.0371320881 0.0229182951 0.0140280761 0.0310833957 0.0328529105 0.01032928 0.0348458476 0.0227694605 -0.00170907401 0.0371320881 0.0229182951 0.0140280761 0.0310833957 0.0328529105 0.0199202709 0.0279320646 0.0332152061 0.01032928 0.0348458476 0.0227694605 0.0140280761 0.0310833957 0.0328529105 0.0205417667 0.0255039651 0.0376314968 0.0199202709 0.0279320646 0.0332152061 0.0199202709 0.0279320646 0.0332152061 0.0205417667 0.0255039651 0.0376314968 0.0268510617 0.0179664623 0.0407561213 0.0264898911 0.0279321577 0.0323440731 0.0199202709 0.0279320646 0.0332152061 0.0268510617 0.0179664623 0.0407561213 0.0264898911 0.0279321577 0.0323440731 0.0217237156 0.0348459519 0.0212229621 0.0199202709 0.0279320646 0.0332152061 0.0264898911 0.0279321577 0.0323440731 0.024507368 0.0348459855 0.0212528277 0.0217237156 0.0348459519 0.0212229621 0.0217237156 0.0348459519 0.0212229621 0.024507368 0.0348459855 0.0212528277 0.0202641618 0.0374964885 0.00801343285 0.0160974078 0.037496455 0.00801345333 0.0202641618 0.0374964885 0.00801343285 0.0228777602 0.0375001505 0.00749999238 0.0160974078 0.037496455 0.00801345333 0.0217237156 0.0348459519 0.0212229621 0.0202641618 0.0374964885 0.00801343285 0.0160974078 0.037496455 0.00801345333 0.01032928 0.0348458476 0.0227694605 0.0217237156 0.0348459519 0.0212229621 0.0160974078 0.037496455 0.00801345333 -0.000997813419 0.037496347 0.0104261413 0.01032928 0.0348458476 0.0227694605 0.00420177169 0.0374998301 0.00746865012 -0.00429142686 0.0374057442 0.00794283487 -0.000997813419 0.037496347 0.0104261413 -0.000997813419 0.037496347 0.0104261413 -0.00429142686 0.0374057442 0.00794283487 -0.00669102231 0.0374992378 0.0169947371 -0.00637312885 0.0374956988 0.0213605389 -0.00669102231 0.0374992378 0.0169947371 -0.00659842603 0.0374985039 0.0205077827 -0.00647091726 0.0374970734 0.0210838877 -0.00637312885 0.0374956988 0.0213605389 -0.00659842603 0.0374985039 0.0205077827 -0.00669102231 0.0374992378 0.0169947371 -0.00680625439 0.0374998674 0.0193472877 -0.00659842603 0.0374985039 0.0205077827 -0.00630030781 0.0374945179 0.0214902461 -0.00619790889 0.0374925956 0.021596007 -0.00637312885 0.0374956988 0.0213605389 -0.00637312885 0.0374956988 0.0213605389 -0.00619790889 0.0374925956 0.021596007 -0.00170907401 0.0371320881 0.0229182951 -0.000997813419 0.037496347 0.0104261413 -0.00637312885 0.0374956988 0.0213605389 -0.00170907401 0.0371320881 0.0229182951 -0.000997813419 0.037496347 0.0104261413 -0.00669102231 0.0374992378 0.0169947371 -0.00637312885 0.0374956988 0.0213605389 0.0205417667 0.0255039651 0.0376314968 0.0257711485 0.0183184482 0.0417963229 0.0268510617 0.0179664623 0.0407561213 0.0305495504 8.22642251e-05 0.0462597497 0.0292946659 -0.00962185953 0.044905927 0.0306232776 -0.00561361061 0.0448539294 0.0306232776 -0.00561361061 0.0448539294 0.0292946659 -0.00962185953 0.044905927 0.0258108471 -0.0182470568 0.0418294705 0.0271921195 -0.0172481462 0.0411268212 0.0258108471 -0.0182470568 0.0418294705 0.0206128694 -0.0254268181 0.0376859196 0.0205033999 -0.0273155961 0.0338497274 0.0206128694 -0.0254268181 0.0376859196 0.0141488621 -0.0310011506 0.0329381861 0.0111208977 -0.0344621688 0.0236319695 0.0141488621 -0.0310011506 0.0329381861 -0.00152905518 -0.037105944 0.0230145119 -7.27810766e-05 -0.0374649204 0.0114343036 -0.00152905518 -0.037105944 0.0230145119 -0.00668647699 -0.0374989547 0.0169537626 -0.00410321215 -0.0373916477 0.00749999005 -7.27810766e-05 -0.0374649204 0.0114343036 -0.00668647699 -0.0374989547 0.0169537626 -0.00410321215 -0.0373916477 0.00749999005 0.0144702541 -0.0374998488 0.0074999989 -7.27810766e-05 -0.0374649204 0.0114343036 -7.27810766e-05 -0.0374649204 0.0114343036 0.0144702541 -0.0374998488 0.0074999989 0.0165569112 -0.0374650471 0.00909336936 0.022117395 -0.034462288 0.0221441127 0.0165569112 -0.0374650471 0.00909336936 0.0248038508 -0.0344623215 0.0221755598 0.0283199195 -0.0273157042 0.033055827 0.0248038508 -0.0344623215 0.0221755598 0.0306341313 -0.0273157302 0.033122845 0.0319152698 -0.0172482375 0.0407511033 0.0306341313 -0.0273157302 0.033122845 0.0330497772 -0.0224215481 0.037558604 0.0330496356 -0.0100845983 0.0436185524 0.0319152698 -0.0172482375 0.0407511033 0.0330497772 -0.0224215481 0.037558604 0.0330496356 -0.0100845983 0.0436185524 0.0325728357 -0.0056136339 0.0445656702 0.0319152698 -0.0172482375 0.0407511033 0.0319152698 -0.0172482375 0.0407511033 0.0325728357 -0.0056136339 0.0445656702 0.0308276881 -0.0172482096 0.0407058634 0.0283199195 -0.0273157042 0.033055827 0.0308276881 -0.0172482096 0.0407058634 0.0267793778 -0.0273156874 0.0330163836 0.022117395 -0.034462288 0.0221441127 0.0267793778 -0.0273156874 0.0330163836 0.0111208977 -0.0344621688 0.0236319695 -7.27810766e-05 -0.0374649204 0.0114343036 0.0111208977 -0.0344621688 0.0236319695 -0.00152905518 -0.037105944 0.0230145119 -7.27810766e-05 -0.0374649204 0.0114343036 0.022117395 -0.034462288 0.0221441127 0.0111208977 -0.0344621688 0.0236319695 -7.27810766e-05 -0.0374649204 0.0114343036 0.0165569112 -0.0374650471 0.00909336936 0.022117395 -0.034462288 0.0221441127 -0.00152905518 -0.037105944 0.0230145119 -0.00372633524 -0.0373610593 0.0219154283 -0.00668647699 -0.0374989547 0.0169537626 -0.00668647699 -0.0374989547 0.0169537626 -0.00372633524 -0.0373610593 0.0219154283 -0.00680158753 -0.0374995917 0.0194094498 -0.00680158753 -0.0374995917 0.0194094498 -0.00372633524 -0.0373610593 0.0219154283 -0.00657183677 -0.0374979824 0.0206171628 -0.00657183677 -0.0374979824 0.0206171628 -0.00372633524 -0.0373610593 0.0219154283 -0.00604203064 -0.0374889076 0.021649234 -0.00618832372 -0.037492156 0.0216025095 -0.0064300918 -0.0374962911 0.0212171208 -0.00604203064 -0.0374889076 0.021649234 -0.00618832372 -0.037492156 0.0216025095 -0.00629744912 -0.0374942161 0.0214933045 -0.0064300918 -0.0374962911 0.0212171208 -0.0064300918 -0.0374962911 0.0212171208 -0.00657183677 -0.0374979824 0.0206171628 -0.00604203064 -0.0374889076 0.021649234 0.033049766 -0.0374999121 0.00749999145 0.0266966913 -0.0374651067 0.00910495967 0.0144702541 -0.0374998488 0.0074999989 0.033049766 -0.0374999121 0.00749999145 0.0330494754 -0.0374952555 0.00809021574 0.0266966913 -0.0374651067 0.00910495967 0.0266966913 -0.0374651067 0.00910495967 0.0330494754 -0.0374952555 0.00809021574 0.0330498442 -0.0374813117 0.00868028402 0.0330498479 -0.0374581181 0.00927007478 0.0266966913 -0.0374651067 0.00910495967 0.0330498442 -0.0374813117 0.00868028402 0.0330498479 -0.0374581181 0.00927007478 0.0330497026 -0.037376374 0.0105410842 0.0266966913 -0.0374651067 0.00910495967 0.0266966913 -0.0374651067 0.00910495967 0.0330497026 -0.037376374 0.0105410842 0.0330495834 -0.0372515582 0.0118085891 0.0330497734 -0.0370837748 0.0130711393 0.0266966913 -0.0374651067 0.00910495967 0.0330495834 -0.0372515582 0.0118085891 0.0330497734 -0.0370837748 0.0130711393 0.0330496691 -0.0368900709 0.0142352507 0.0266966913 -0.0374651067 0.00910495967 0.0266966913 -0.0374651067 0.00910495967 0.0330496691 -0.0368900709 0.0142352507 0.033050023 -0.036659874 0.0153926983 0.0330496244 -0.0363933966 0.0165423658 0.0266966913 -0.0374651067 0.00910495967 0.033050023 -0.036659874 0.0153926983 0.0330496244 -0.0363933966 0.0165423658 0.0288382843 -0.0344623514 0.0222292244 0.0266966913 -0.0374651067 0.00910495967 0.0330496244 -0.0363933966 0.0165423658 0.0330496505 -0.0360645019 0.0177758522 0.0288382843 -0.0344623514 0.0222292244 0.0288382843 -0.0344623514 0.0222292244 0.0330496505 -0.0360645019 0.0177758522 0.0330498517 -0.0356938578 0.0189974476 0.0330497622 -0.035281837 0.0202057231 0.0288382843 -0.0344623514 0.0222292244 0.0330498517 -0.0356938578 0.0189974476 0.0330497622 -0.035281837 0.0202057231 0.0330496766 -0.0338880047 0.0235575959 0.0288382843 -0.0344623514 0.0222292244 0.0288382843 -0.0344623514 0.0222292244 0.0330496766 -0.0338880047 0.0235575959 0.0330498703 -0.0321766138 0.0267589893 0.0306341313 -0.0273157302 0.033122845 0.0330498703 -0.0321766138 0.0267589893 0.0330497734 -0.030163696 0.0297799278 0.0330498293 -0.0278413817 0.0326217413 0.0306341313 -0.0273157302 0.033122845 0.0330497734 -0.030163696 0.0297799278 0.0330498293 -0.0278413817 0.0326217413 0.0330497697 -0.0252523981 0.0352229364 0.0306341313 -0.0273157302 0.033122845 0.0306341313 -0.0273157302 0.033122845 0.0330497697 -0.0252523981 0.0352229364 0.0330497772 -0.0224215481 0.037558604 0.0330498442 0.0168143772 0.0410191417 0.033049766 0.027762657 0.032708995 0.0318496451 0.0179665592 0.0403669327 0.0318496451 0.0179665592 0.0403669327 0.033049766 0.027762657 0.032708995 0.0305225775 0.0279322136 0.0324511193 0.0306998752 0.0179665387 0.0403195359 0.0305225775 0.0279322136 0.0324511193 0.0281015038 0.0279321764 0.0323837772 0.0299353208 0.0179665256 0.0402937792 0.0281015038 0.0279321764 0.0323837772 0.0264898911 0.0279321577 0.0323440731 0.0299353208 0.0179665256 0.0402937792 0.0306998752 0.0179665387 0.0403195359 0.0281015038 0.0279321764 0.0323837772 0.033049766 0.027762657 0.032708995 0.033049766 0.0349811651 0.0210121423 0.0305225775 0.0279322136 0.0324511193 0.0305225775 0.0279322136 0.0324511193 0.033049766 0.0349811651 0.0210121423 0.0286868848 0.0348460227 0.0213039946 0.0281015038 0.0279321764 0.0323837772 0.0286868848 0.0348460227 0.0213039946 0.024507368 0.0348459855 0.0212528277 0.0281015038 0.0279321764 0.0323837772 0.0305225775 0.0279322136 0.0324511193 0.0286868848 0.0348460227 0.0213039946 0.0265196431 0.0374965221 0.00801814161 0.0286868848 0.0348460227 0.0213039946 0.033049766 0.0349811651 0.0210121423 0.0318496451 0.0179665592 0.0403669327 0.0305225775 0.0279322136 0.0324511193 0.0306998752 0.0179665387 0.0403195359 0.0321158171 -0.00561363855 0.0445538424 0.0325523801 0.00631438475 0.044451315 0.0320761614 0.00631437544 0.0444379896 0.0320761614 0.00631437544 0.0444379896 0.0325523801 0.00631438475 0.044451315 0.0318496451 0.0179665592 0.0403669327 0.0330498703 -0.0321766138 0.0267589893 0.0306341313 -0.0273157302 0.033122845 0.0288382843 -0.0344623514 0.0222292244 0.0288382843 -0.0344623514 0.0222292244 0.0306341313 -0.0273157302 0.033122845 0.0248038508 -0.0344623215 0.0221755598 0.0206105113 -0.0374650769 0.00909605063 0.0248038508 -0.0344623215 0.0221755598 0.0165569112 -0.0374650471 0.00909336936 0.0144702541 -0.0374998488 0.0074999989 0.0206105113 -0.0374650769 0.00909605063 0.0165569112 -0.0374650471 0.00909336936 0.0144702541 -0.0374998488 0.0074999989 0.0266966913 -0.0374651067 0.00910495967 0.0206105113 -0.0374650769 0.00909605063 0.0206105113 -0.0374650769 0.00909605063 0.0266966913 -0.0374651067 0.00910495967 0.0288382843 -0.0344623514 0.0222292244 0.0248038508 -0.0344623215 0.0221755598 0.0206105113 -0.0374650769 0.00909605063 0.0288382843 -0.0344623514 0.0222292244 0.0308276881 -0.0172482096 0.0407058634 0.0283199195 -0.0273157042 0.033055827 0.0319152698 -0.0172482375 0.0407511033 0.0319152698 -0.0172482375 0.0407511033 0.0283199195 -0.0273157042 0.033055827 0.0306341313 -0.0273157302 0.033122845 0.0228777602 0.0375001505 0.00749999238 0.0202641618 0.0374964885 0.00801343285 0.0265196431 0.0374965221 0.00801814161 0.033049617 0.0375001766 0.00750000915 0.0228777602 0.0375001505 0.00749999238 0.0265196431 0.0374965221 0.00801814161 0.0318125226 -0.00561362458 0.0445521548 0.0320761614 0.00631437544 0.0444379896 0.031760361 0.00631437451 0.0444352888 0.031760361 0.00631437451 0.0444352888 0.0320761614 0.00631437544 0.0444379896 0.0306998752 0.0179665387 0.0403195359 0.0325728357 -0.0056136339 0.0445656702 0.0321158171 -0.00561363855 0.0445538424 0.0308276881 -0.0172482096 0.0407058634 0.0308276881 -0.0172482096 0.0407058634 0.0321158171 -0.00561363855 0.0445538424 0.0301048197 -0.0172482003 0.0406815894 0.0267793778 -0.0273156874 0.0330163836 0.0301048197 -0.0172482003 0.0406815894 0.0205033999 -0.0273155961 0.0338497274 0.0111208977 -0.0344621688 0.0236319695 0.0205033999 -0.0273155961 0.0338497274 0.0141488621 -0.0310011506 0.0329381861 0.0111208977 -0.0344621688 0.0236319695 0.0267793778 -0.0273156874 0.0330163836 0.0205033999 -0.0273155961 0.0338497274 0.0267793778 -0.0273156874 0.0330163836 0.022117395 -0.034462288 0.0221441127 0.0283199195 -0.0273157042 0.033055827 0.0283199195 -0.0273157042 0.033055827 0.022117395 -0.034462288 0.0221441127 0.0248038508 -0.0344623215 0.0221755598 0.0265196431 0.0374965221 0.00801814161 0.0202641618 0.0374964885 0.00801343285 0.024507368 0.0348459855 0.0212528277 0.01032928 0.0348458476 0.0227694605 0.0199202709 0.0279320646 0.0332152061 0.0217237156 0.0348459519 0.0212229621 0.0306232776 -0.00561361061 0.0448539294 0.0271921195 -0.0172481462 0.0411268212 0.0318125226 -0.00561362458 0.0445521548 0.0306232776 -0.00561361061 0.0448539294 0.0258108471 -0.0182470568 0.0418294705 0.0271921195 -0.0172481462 0.0411268212 0.0318125226 -0.00561362458 0.0445521548 0.0271921195 -0.0172481462 0.0411268212 0.0301048197 -0.0172482003 0.0406815894 0.0321158171 -0.00561363855 0.0445538424 0.0318125226 -0.00561362458 0.0445521548 0.0301048197 -0.0172482003 0.0406815894 0.0301048197 -0.0172482003 0.0406815894 0.0271921195 -0.0172481462 0.0411268212 0.0205033999 -0.0273155961 0.0338497274 0.0205033999 -0.0273155961 0.0338497274 0.0271921195 -0.0172481462 0.0411268212 0.0206128694 -0.0254268181 0.0376859196 0.0301048197 -0.0172482003 0.0406815894 0.0267793778 -0.0273156874 0.0330163836 0.0308276881 -0.0172482096 0.0407058634 0.0382998995 0.00315012783 -0.0298674926 0.0382997021 -0.00314987195 -0.029867487 0.0352999121 0.00315013411 -0.0298674889 0.0382997021 -0.00314987195 -0.029867487 0.0352998413 -0.00314987404 -0.0298674926 0.0352999121 0.00315013411 -0.0298674889 0.0352998413 -0.00314987404 -0.0298674926 0.0340781584 -0.0029033625 -0.0298874453 0.0352999121 0.00315013411 -0.0298674889 0.0340781584 -0.0029033625 -0.0298874453 0.0330497846 -0.00220441865 -0.0299351234 0.0352999121 0.00315013411 -0.0298674889 0.0330497846 -0.00220441865 -0.0299351234 0.0323825218 -0.00118814094 -0.0299709421 0.0352999121 0.00315013411 -0.0298674889 0.0323825218 -0.00118814094 -0.0299709421 0.0321497768 1.23849475e-06 -0.0299895648 0.0352999121 0.00315013411 -0.0298674889 0.0321497768 1.23849475e-06 -0.0299895648 0.0323834494 0.00119093363 -0.029970875 0.0352999121 0.00315013411 -0.0298674889 0.0323834494 0.00119093363 -0.029970875 0.0330495574 0.00220466964 -0.0299351253 0.0352999121 0.00315013411 -0.0298674889 0.0330495574 0.00220466964 -0.0299351253 0.0340796411 0.00290427636 -0.0298873968 0.0352999121 0.00315013411 -0.0298674889 </float_array>
          <technique_common>
            <accessor count="1275" offset="0" source="#mesh_0-positions-array" stride="3">
              <param name="X" type="float" />
              <param name="Y" type="float" />
              <param name="Z" type="float" />
            </accessor>
          </technique_common>
        </source>
        <vertices id="mesh_0-vertices">
          <input semantic="POSITION" source="#mesh_0-positions" />
        </vertices>
        <polylist count="425" material="defaultMaterial">
          <input offset="0" semantic="VERTEX" source="#mesh_0-vertices" />
          <vcount>3 3 3 3 3 3 3 3 3 3 3 3 3 3 3 3 3 3 3 3 3 3 3 3 3 3 3 3 3 3 3 3 3 3 3 3 3 3 3 3 3 3 3 3 3 3 3 3 3 3 3 3 3 3 3 3 3 3 3 3 3 3 3 3 3 3 3 3 3 3 3 3 3 3 3 3 3 3 3 3 3 3 3 3 3 3 3 3 3 3 3 3 3 3 3 3 3 3 3 3 3 3 3 3 3 3 3 3 3 3 3 3 3 3 3 3 3 3 3 3 3 3 3 3 3 3 3 3 3 3 3 3 3 3 3 3 3 3 3 3 3 3 3 3 3 3 3 3 3 3 3 3 3 3 3 3 3 3 3 3 3 3 3 3 3 3 3 3 3 3 3 3 3 3 3 3 3 3 3 3 3 3 3 3 3 3 3 3 3 3 3 3 3 3 3 3 3 3 3 3 3 3 3 3 3 3 3 3 3 3 3 3 3 3 3 3 3 3 3 3 3 3 3 3 3 3 3 3 3 3 3 3 3 3 3 3 3 3 3 3 3 3 3 3 3 3 3 3 3 3 3 3 3 3 3 3 3 3 3 3 3 3 3 3 3 3 3 3 3 3 3 3 3 3 3 3 3 3 3 3 3 3 3 3 3 3 3 3 3 3 3 3 3 3 3 3 3 3 3 3 3 3 3 3 3 3 3 3 3 3 3 3 3 3 3 3 3 3 3 3 3 3 3 3 3 3 3 3 3 3 3 3 3 3 3 3 3 3 3 3 3 3 3 3 3 3 3 3 3 3 3 3 3 3 3 3 3 3 3 3 3 3 3 3 3 3 3 3 3 3 3 3 3 3 3 3 3 3 3 3 3 3 3 3 3 3 3 3 3 3 3 3 3 3 3 3 3 3 3 3 3 3 3 3 3 3 3 3 3 3 3 3 3 3 3 3 3 3 3 3 3 3 3 3 3 </vcount>
          <p>0 1 2 3 4 5 6 7 8 9 10 11 12 13 14 15 16 17 18 19 20 21 22 23 24 25 26 27 28 29 30 31 32 33 34 35 36 37 38 39 40 41 42 43 44 45 46 47 48 49 50 51 52 53 54 55 56 57 58 59 60 61 62 63 64 65 66 67 68 69 70 71 72 73 74 75 76 77 78 79 80 81 82 83 84 85 86 87 88 89 90 91 92 93 94 95 96 97 98 99 100 101 102 103 104 105 106 107 108 109 110 111 112 113 114 115 116 117 118 119 120 121 122 123 124 125 126 127 128 129 130 131 132 133 134 135 136 137 138 139 140 141 142 143 144 145 146 147 148 149 150 151 152 153 154 155 156 157 158 159 160 161 162 163 164 165 166 167 168 169 170 171 172 173 174 175 176 177 178 179 180 181 182 183 184 185 186 187 188 189 190 191 192 193 194 195 196 197 198 199 200 201 202 203 204 205 206 207 208 209 210 211 212 213 214 215 216 217 218 219 220 221 222 223 224 225 226 227 228 229 230 231 232 233 234 235 236 237 238 239 240 241 242 243 244 245 246 247 248 249 250 251 252 253 254 255 256 257 258 259 260 261 262 263 264 265 266 267 268 269 270 271 272 273 274 275 276 277 278 279 280 281 282 283 284 285 286 287 288 289 290 291 292 293 294 295 296 297 298 299 300 301 302 303 304 305 306 307 308 309 310 311 312 313 314 315 316 317 318 319 320 321 322 323 324 325 326 327 328 329 330 331 332 333 334 335 336 337 338 339 340 341 342 343 344 345 346 347 348 349 350 351 352 353 354 355 356 357 358 359 360 361 362 363 364 365 366 367 368 369 370 371 372 373 374 375 376 377 378 379 380 381 382 383 384 385 386 387 388 389 390 391 392 393 394 395 396 397 398 399 400 401 402 403 404 405 406 407 408 409 410 411 412 413 414 415 416 417 418 419 420 421 422 423 424 425 426 427 428 429 430 431 432 433 434 435 436 437 438 439 440 441 442 443 444 445 446 447 448 449 450 451 452 453 454 455 456 457 458 459 460 461 462 463 464 465 466 467 468 469 470 471 472 473 474 475 476 477 478 479 480 481 482 483 484 485 486 487 488 489 490 491 492 493 494 495 496 497 498 499 500 501 502 503 504 505 506 507 508 509 510 511 512 513 514 515 516 517 518 519 520 521 522 523 524 525 526 527 528 529 530 531 532 533 534 535 536 537 538 539 540 541 542 543 544 545 546 547 548 549 550 551 552 553 554 555 556 557 558 559 560 561 562 563 564 565 566 567 568 569 570 571 572 573 574 575 576 577 578 579 580 581 582 583 584 585 586 587 588 589 590 591 592 593 594 595 596 597 598 599 600 601 602 603 604 605 606 607 608 609 610 611 612 613 614 615 616 617 618 619 620 621 622 623 624 625 626 627 628 629 630 631 632 633 634 635 636 637 638 639 640 641 642 643 644 645 646 647 648 649 650 651 652 653 654 655 656 657 658 659 660 661 662 663 664 665 666 667 668 669 670 671 672 673 674 675 676 677 678 679 680 681 682 683 684 685 686 687 688 689 690 691 692 693 694 695 696 697 698 699 700 701 702 703 704 705 706 707 708 709 710 711 712 713 714 715 716 717 718 719 720 721 722 723 724 725 726 727 728 729 730 731 732 733 734 735 736 737 738 739 740 741 742 743 744 745 746 747 748 749 750 751 752 753 754 755 756 757 758 759 760 761 762 763 764 765 766 767 768 769 770 771 772 773 774 775 776 777 778 779 780 781 782 783 784 785 786 787 788 789 790 791 792 793 794 795 796 797 798 799 800 801 802 803 804 805 806 807 808 809 810 811 812 813 814 815 816 817 818 819 820 821 822 823 824 825 826 827 828 829 830 831 832 833 834 835 836 837 838 839 840 841 842 843 844 845 846 847 848 849 850 851 852 853 854 855 856 857 858 859 860 861 862 863 864 865 866 867 868 869 870 871 872 873 874 875 876 877 878 879 880 881 882 883 884 885 886 887 888 889 890 891 892 893 894 895 896 897 898 899 900 901 902 903 904 905 906 907 908 909 910 911 912 913 914 915 916 917 918 919 920 921 922 923 924 925 926 927 928 929 930 931 932 933 934 935 936 937 938 939 940 941 942 943 944 945 946 947 948 949 950 951 952 953 954 955 956 957 958 959 960 961 962 963 964 965 966 967 968 969 970 971 972 973 974 975 976 977 978 979 980 981 982 983 984 985 986 987 988 989 990 991 992 993 994 995 996 997 998 999 1000 1001 1002 1003 1004 1005 1006 1007 1008 1009 1010 1011 1012 1013 1014 1015 1016 1017 1018 1019 1020 1021 1022 1023 1024 1025 1026 1027 1028 1029 1030 1031 1032 1033 1034 1035 1036 1037 1038 1039 1040 1041 1042 1043 1044 1045 1046 1047 1048 1049 1050 1051 1052 1053 1054 1055 1056 1057 1058 1059 1060 1061 1062 1063 1064 1065 1066 1067 1068 1069 1070 1071 1072 1073 1074 1075 1076 1077 1078 1079 1080 1081 1082 1083 1084 1085 1086 1087 1088 1089 1090 1091 1092 1093 1094 1095 1096 1097 1098 1099 1100 1101 1102 1103 1104 1105 1106 1107 1108 1109 1110 1111 1112 1113 1114 1115 1116 1117 1118 1119 1120 1121 1122 1123 1124 1125 1126 1127 1128 1129 1130 1131 1132 1133 1134 1135 1136 1137 1138 1139 1140 1141 1142 1143 1144 1145 1146 1147 1148 1149 1150 1151 1152 1153 1154 1155 1156 1157 1158 1159 1160 1161 1162 1163 1164 1165 1166 1167 1168 1169 1170 1171 1172 1173 1174 1175 1176 1177 1178 1179 1180 1181 1182 1183 1184 1185 1186 1187 1188 1189 1190 1191 1192 1193 1194 1195 1196 1197 1198 1199 1200 1201 1202 1203 1204 1205 1206 1207 1208 1209 1210 1211 1212 1213 1214 1215 1216 1217 1218 1219 1220 1221 1222 1223 1224 1225 1226 1227 1228 1229 1230 1231 1232 1233 1234 1235 1236 1237 1238 1239 1240 1241 1242 1243 1244 1245 1246 1247 1248 1249 1250 1251 1252 1253 1254 1255 1256 1257 1258 1259 1260 1261 1262 1263 1264 1265 1266 1267 1268 1269 1270 1271 1272 1273 1274 </p>
        </polylist>
      </mesh>
    </geometry>
  </library_geometries>
  <library_controllers>
  </library_controllers>
  <library_visual_scenes>
    <visual_scene id="Scene" name="Scene">
      <node id="node" name="" type="NODE">
        <matrix sid="matrix">1 0 0 0 0 1 0 0 0 0 1 0 0 0 0 1</matrix>
        <instance_geometry url="#mesh_0">
          <bind_material>
            <technique_common>
              <instance_material symbol="defaultMaterial" target="#material_0">
              </instance_material>
            </technique_common>
          </bind_material>
        </instance_geometry>
      </node>
    </visual_scene>
  </library_visual_scenes>
  <scene>
    <instance_visual_scene url="#Scene" />
  </scene>
</COLLADA>
