<?xml version="1.0" encoding="UTF-8" standalone="no" ?>
<COLLADA xmlns="http://www.collada.org/2005/11/COLLADASchema" version="1.4.1">
  <asset>
    <contributor>
      <author>Assimp</author>
      <authoring_tool>Assimp Exporter</authoring_tool>
    </contributor>
    <created>2025-11-12T11:09:31</created>
    <modified>2025-11-12T11:09:31</modified>
    <unit name="meter" meter="1" />
    <up_axis>Y_UP</up_axis>
  </asset>
  <library_images>
  </library_images>
  <library_effects>
    <effect id="material_0-fx" name="">
      <profile_COMMON>
        <technique sid="standard">
          <phong>
            <emission>
              <color sid="emission">0   0   0   4.28026616e-41</color>
            </emission>
            <ambient>
              <color sid="ambient">0.719165564   0.882352889   0.352941155   4.28026616e-41</color>
            </ambient>
            <diffuse>
              <color sid="diffuse">0.719165564   0.882352889   0.352941155   4.28026616e-41</color>
            </diffuse>
            <specular>
              <color sid="specular">0.529999971   0.529999971   0.529999971   4.28026616e-41</color>
            </specular>
          </phong>
        </technique>
      </profile_COMMON>
    </effect>
  </library_effects>
  <library_materials>
    <material id="material_0" name="">
      <instance_effect url="#material_0-fx"/>
    </material>
  </library_materials>
  <library_geometries>
    <geometry id="mesh_0" name="" >
      <mesh>
        <source id="mesh_0-positions" name="mesh_0-positions">
          <float_array id="mesh_0-positions-array" count="774"> -0.059621051 -0.0477462411 -0.222198159 -0.062809065 -0.0487591103 -0.20032391 -0.0556993186 -0.0131743634 -0.254692435 -0.0511700809 -0.0441337563 -0.171310619 -0.0514083058 0.0451576896 -0.170756981 -0.0593150556 0.00877773762 -0.152414098 -0.0105224401 -0.0284575652 -0.2658768 -0.0206927657 -0.0528140031 -0.242100671 -0.0189094692 -0.0403606743 -0.257127553 -0.0206927657 -0.0528140031 -0.242100671 -0.0511700809 -0.0441337563 -0.171310619 -0.0318745971 -0.0609418303 -0.217196569 -0.0456948429 -0.0297869891 -0.259813398 -0.0105224401 -0.0284575652 -0.2658768 -0.0189094692 -0.0403606743 -0.257127553 -0.0401418209 0.0600086078 -0.203722551 -0.0514083058 0.0451576896 -0.170756981 -0.0296862423 0.0601807088 -0.2211712 -0.0514083058 0.0451576896 -0.170756981 -0.0610763133 0.0318007097 -0.161048874 -0.0593150556 0.00877773762 -0.152414098 -0.0671144873 0.0309614036 -0.168154612 -0.0610763133 0.0318007097 -0.161048874 -0.0645883828 0.0453203209 -0.1831626 -0.0610763133 0.0318007097 -0.161048874 -0.0514083058 0.0451576896 -0.170756981 -0.0645883828 0.0453203209 -0.1831626 -0.0197346359 0.0408421122 -0.256602854 -0.0104699591 0.027586922 -0.266540259 -0.0458231419 0.0304389801 -0.259539187 -0.0423991382 0.00702640833 -0.268501997 -0.0104699591 0.027586922 -0.266540259 -0.00765802013 0.0077925697 -0.272523016 -0.0104699591 0.027586922 -0.266540259 -0.0423991382 0.00702640833 -0.268501997 -0.0458231419 0.0304389801 -0.259539187 -0.0423991382 0.00702640833 -0.268501997 -0.0507534742 0.00816600025 -0.263346434 -0.0458231419 0.0304389801 -0.259539187 -0.0213021785 0.0539882816 -0.240781471 -0.0104699591 0.027586922 -0.266540259 -0.0197346359 0.0408421122 -0.256602854 -0.0104699591 0.027586922 -0.266540259 -0.0213021785 0.0539882816 -0.240781471 -0.00765802013 0.0077925697 -0.272523016 -0.0467069 0.0435366556 -0.248099521 -0.0197346359 0.0408421122 -0.256602854 -0.0458231419 0.0304389801 -0.259539187 -0.0543061495 0.0468134917 -0.237683609 -0.0467069 0.0435366556 -0.248099521 -0.0458231419 0.0304389801 -0.259539187 -0.0467069 0.0435366556 -0.248099521 -0.0213021785 0.0539882816 -0.240781471 -0.0197346359 0.0408421122 -0.256602854 -0.0511700809 -0.0441337563 -0.171310619 -0.0467621833 -0.0551552176 -0.186323285 -0.0318745971 -0.0609418303 -0.217196569 -0.0467621833 -0.0551552176 -0.186323285 -0.0572698563 -0.0549007431 -0.19953309 -0.0318745971 -0.0609418303 -0.217196569 -0.0206927657 -0.0528140031 -0.242100671 -0.00776851177 -0.0105598746 -0.272027165 -0.0511700809 -0.0441337563 -0.171310619 -0.0514083058 0.0451576896 -0.170756981 -0.00776851177 -0.0105598746 -0.272027165 -0.0296862423 0.0601807088 -0.2211712 -0.00776851177 -0.0105598746 -0.272027165 -0.0514083058 0.0451576896 -0.170756981 -0.0511700809 -0.0441337563 -0.171310619 -0.0213021785 0.0539882816 -0.240781471 -0.00776851177 -0.0105598746 -0.272027165 -0.00765802013 0.0077925697 -0.272523016 -0.00776851177 -0.0105598746 -0.272027165 -0.0213021785 0.0539882816 -0.240781471 -0.0296862423 0.0601807088 -0.2211712 -0.00776851177 -0.0105598746 -0.272027165 -0.0206927657 -0.0528140031 -0.242100671 -0.0105224401 -0.0284575652 -0.2658768 -0.00776851177 -0.0105598746 -0.272027165 -0.0423991382 0.00702640833 -0.268501997 -0.00765802013 0.0077925697 -0.272523016 -0.0538152307 -0.0435190611 -0.241540521 -0.059621051 -0.0477462411 -0.222198159 -0.0556993186 -0.0131743634 -0.254692435 -0.0610763133 0.0318007097 -0.161048874 -0.0648550838 0.00384868472 -0.151728883 -0.0593150556 0.00877773762 -0.152414098 -0.0648550838 0.00384868472 -0.151728883 -0.0671144873 0.0309614036 -0.168154612 -0.0682346225 0.00623196224 -0.158292189 -0.0648550838 0.00384868472 -0.151728883 -0.0610763133 0.0318007097 -0.161048874 -0.0671144873 0.0309614036 -0.168154612 -0.0577407032 -0.021319503 -0.15608035 -0.0511700809 -0.0441337563 -0.171310619 -0.0593150556 0.00877773762 -0.152414098 -0.0577407032 -0.021319503 -0.15608035 -0.0613921434 -0.0318119936 -0.16043742 -0.0511700809 -0.0441337563 -0.171310619 -0.0648550838 0.00384868472 -0.151728883 -0.0577407032 -0.021319503 -0.15608035 -0.0593150556 0.00877773762 -0.152414098 -0.0577407032 -0.021319503 -0.15608035 -0.0648550838 0.00384868472 -0.151728883 -0.0613921434 -0.0318119936 -0.16043742 -0.0671144873 0.0309614036 -0.168154612 -0.067553699 -0.0268087089 -0.164887547 -0.0682346225 0.00623196224 -0.158292189 -0.067553699 -0.0268087089 -0.164887547 -0.0648550838 0.00384868472 -0.151728883 -0.0682346225 0.00623196224 -0.158292189 -0.0648550838 0.00384868472 -0.151728883 -0.067553699 -0.0268087089 -0.164887547 -0.0613921434 -0.0318119936 -0.16043742 -0.062809065 -0.0487591103 -0.20032391 -0.067553699 -0.0268087089 -0.164887547 -0.0556993186 -0.0131743634 -0.254692435 -0.0514083058 0.0451576896 -0.170756981 -0.0519191921 0.052426964 -0.181471542 -0.0645883828 0.0453203209 -0.1831626 -0.0401418209 0.0600086078 -0.203722551 -0.0519191921 0.052426964 -0.181471542 -0.0514083058 0.0451576896 -0.170756981 -0.0549009442 0.0565677136 -0.210808098 -0.0401418209 0.0600086078 -0.203722551 -0.0296862423 0.0601807088 -0.2211712 -0.056348294 0.0264349747 -0.249778301 -0.0543061495 0.0468134917 -0.237683609 -0.0458231419 0.0304389801 -0.259539187 -0.0507534742 0.00816600025 -0.263346434 -0.056348294 0.0264349747 -0.249778301 -0.0458231419 0.0304389801 -0.259539187 -0.056348294 0.0264349747 -0.249778301 -0.0507534742 0.00816600025 -0.263346434 -0.0556993186 -0.0131743634 -0.254692435 -0.067553699 -0.0268087089 -0.164887547 -0.056348294 0.0264349747 -0.249778301 -0.0556993186 -0.0131743634 -0.254692435 -0.056348294 0.0264349747 -0.249778301 -0.067553699 -0.0268087089 -0.164887547 -0.0671144873 0.0309614036 -0.168154612 -0.0467621833 -0.0551552176 -0.186323285 -0.0626744628 -0.0458718017 -0.181079626 -0.0572698563 -0.0549007431 -0.19953309 -0.067553699 -0.0268087089 -0.164887547 -0.0626744628 -0.0458718017 -0.181079626 -0.0613921434 -0.0318119936 -0.16043742 -0.0613921434 -0.0318119936 -0.16043742 -0.0626744628 -0.0458718017 -0.181079626 -0.0511700809 -0.0441337563 -0.171310619 -0.0626744628 -0.0458718017 -0.181079626 -0.0467621833 -0.0551552176 -0.186323285 -0.0511700809 -0.0441337563 -0.171310619 -0.0572698563 -0.0549007431 -0.19953309 -0.0626744628 -0.0458718017 -0.181079626 -0.062809065 -0.0487591103 -0.20032391 -0.0626744628 -0.0458718017 -0.181079626 -0.067553699 -0.0268087089 -0.164887547 -0.062809065 -0.0487591103 -0.20032391 -0.00776851177 -0.0105598746 -0.272027165 -0.0418373495 -0.0148203662 -0.266746432 -0.0423991382 0.00702640833 -0.268501997 -0.0418373495 -0.0148203662 -0.266746432 -0.0507534742 0.00816600025 -0.263346434 -0.0423991382 0.00702640833 -0.268501997 -0.0456948429 -0.0297869891 -0.259813398 -0.0418373495 -0.0148203662 -0.266746432 -0.0105224401 -0.0284575652 -0.2658768 -0.0418373495 -0.0148203662 -0.266746432 -0.00776851177 -0.0105598746 -0.272027165 -0.0105224401 -0.0284575652 -0.2658768 -0.0505693555 -0.0231029131 -0.260133028 -0.0538152307 -0.0435190611 -0.241540521 -0.0556993186 -0.0131743634 -0.254692435 -0.0538152307 -0.0435190611 -0.241540521 -0.0505693555 -0.0231029131 -0.260133028 -0.0456948429 -0.0297869891 -0.259813398 -0.0505693555 -0.0231029131 -0.260133028 -0.0418373495 -0.0148203662 -0.266746432 -0.0456948429 -0.0297869891 -0.259813398 -0.0507534742 0.00816600025 -0.263346434 -0.0505693555 -0.0231029131 -0.260133028 -0.0556993186 -0.0131743634 -0.254692435 -0.0418373495 -0.0148203662 -0.266746432 -0.0505693555 -0.0231029131 -0.260133028 -0.0507534742 0.00816600025 -0.263346434 -0.0538152307 -0.0435190611 -0.241540521 -0.0529776514 -0.0554452874 -0.221376657 -0.059621051 -0.0477462411 -0.222198159 -0.0572698563 -0.0549007431 -0.19953309 -0.0529776514 -0.0554452874 -0.221376657 -0.0318745971 -0.0609418303 -0.217196569 -0.0529776514 -0.0554452874 -0.221376657 -0.0206927657 -0.0528140031 -0.242100671 -0.0318745971 -0.0609418303 -0.217196569 -0.059621051 -0.0477462411 -0.222198159 -0.0529776514 -0.0554452874 -0.221376657 -0.062809065 -0.0487591103 -0.20032391 -0.0529776514 -0.0554452874 -0.221376657 -0.0572698563 -0.0549007431 -0.19953309 -0.062809065 -0.0487591103 -0.20032391 -0.0471365899 -0.0471075885 -0.243837297 -0.0456948429 -0.0297869891 -0.259813398 -0.0189094692 -0.0403606743 -0.257127553 -0.0471365899 -0.0471075885 -0.243837297 -0.0538152307 -0.0435190611 -0.241540521 -0.0456948429 -0.0297869891 -0.259813398 -0.0206927657 -0.0528140031 -0.242100671 -0.0471365899 -0.0471075885 -0.243837297 -0.0189094692 -0.0403606743 -0.257127553 -0.0529776514 -0.0554452874 -0.221376657 -0.0471365899 -0.0471075885 -0.243837297 -0.0206927657 -0.0528140031 -0.242100671 -0.0471365899 -0.0471075885 -0.243837297 -0.0529776514 -0.0554452874 -0.221376657 -0.0538152307 -0.0435190611 -0.241540521 -0.0606976897 0.0490245633 -0.215930462 -0.0549009442 0.0565677136 -0.210808098 -0.0543061495 0.0468134917 -0.237683609 -0.056348294 0.0264349747 -0.249778301 -0.0606976897 0.0490245633 -0.215930462 -0.0543061495 0.0468134917 -0.237683609 -0.0606976897 0.0490245633 -0.215930462 -0.0671144873 0.0309614036 -0.168154612 -0.0645883828 0.0453203209 -0.1831626 -0.0606976897 0.0490245633 -0.215930462 -0.056348294 0.0264349747 -0.249778301 -0.0671144873 0.0309614036 -0.168154612 -0.0519191921 0.052426964 -0.181471542 -0.0590560287 0.0523728766 -0.191171795 -0.0645883828 0.0453203209 -0.1831626 -0.0590560287 0.0523728766 -0.191171795 -0.0606976897 0.0490245633 -0.215930462 -0.0645883828 0.0453203209 -0.1831626 -0.0606976897 0.0490245633 -0.215930462 -0.0590560287 0.0523728766 -0.191171795 -0.0549009442 0.0565677136 -0.210808098 -0.0590560287 0.0523728766 -0.191171795 -0.0519191921 0.052426964 -0.181471542 -0.0401418209 0.0600086078 -0.203722551 -0.0549009442 0.0565677136 -0.210808098 -0.0590560287 0.0523728766 -0.191171795 -0.0401418209 0.0600086078 -0.203722551 -0.0483864993 0.0530832484 -0.233223379 -0.0549009442 0.0565677136 -0.210808098 -0.0296862423 0.0601807088 -0.2211712 -0.0549009442 0.0565677136 -0.210808098 -0.0483864993 0.0530832484 -0.233223379 -0.0543061495 0.0468134917 -0.237683609 -0.0213021785 0.0539882816 -0.240781471 -0.0483864993 0.0530832484 -0.233223379 -0.0296862423 0.0601807088 -0.2211712 -0.0483864993 0.0530832484 -0.233223379 -0.0467069 0.0435366556 -0.248099521 -0.0543061495 0.0468134917 -0.237683609 -0.0467069 0.0435366556 -0.248099521 -0.0483864993 0.0530832484 -0.233223379 -0.0213021785 0.0539882816 -0.240781471 </float_array>
          <technique_common>
            <accessor count="258" offset="0" source="#mesh_0-positions-array" stride="3">
              <param name="X" type="float" />
              <param name="Y" type="float" />
              <param name="Z" type="float" />
            </accessor>
          </technique_common>
        </source>
        <vertices id="mesh_0-vertices">
          <input semantic="POSITION" source="#mesh_0-positions" />
        </vertices>
        <polylist count="86" material="defaultMaterial">
          <input offset="0" semantic="VERTEX" source="#mesh_0-vertices" />
          <vcount>3 3 3 3 3 3 3 3 3 3 3 3 3 3 3 3 3 3 3 3 3 3 3 3 3 3 3 3 3 3 3 3 3 3 3 3 3 3 3 3 3 3 3 3 3 3 3 3 3 3 3 3 3 3 3 3 3 3 3 3 3 3 3 3 3 3 3 3 3 3 3 3 3 3 3 3 3 3 3 3 3 3 3 3 3 3 </vcount>
          <p>0 1 2 3 4 5 6 7 8 9 10 11 12 13 14 15 16 17 18 19 20 21 22 23 24 25 26 27 28 29 30 31 32 33 34 35 36 37 38 39 40 41 42 43 44 45 46 47 48 49 50 51 52 53 54 55 56 57 58 59 60 61 62 63 64 65 66 67 68 69 70 71 72 73 74 75 76 77 78 79 80 81 82 83 84 85 86 87 88 89 90 91 92 93 94 95 96 97 98 99 100 101 102 103 104 105 106 107 108 109 110 111 112 113 114 115 116 117 118 119 120 121 122 123 124 125 126 127 128 129 130 131 132 133 134 135 136 137 138 139 140 141 142 143 144 145 146 147 148 149 150 151 152 153 154 155 156 157 158 159 160 161 162 163 164 165 166 167 168 169 170 171 172 173 174 175 176 177 178 179 180 181 182 183 184 185 186 187 188 189 190 191 192 193 194 195 196 197 198 199 200 201 202 203 204 205 206 207 208 209 210 211 212 213 214 215 216 217 218 219 220 221 222 223 224 225 226 227 228 229 230 231 232 233 234 235 236 237 238 239 240 241 242 243 244 245 246 247 248 249 250 251 252 253 254 255 256 257 </p>
        </polylist>
      </mesh>
    </geometry>
  </library_geometries>
  <library_controllers>
  </library_controllers>
  <library_visual_scenes>
    <visual_scene id="Scene" name="Scene">
      <node id="node" name="" type="NODE">
        <matrix sid="matrix">1 0 0 0 0 1 0 0 0 0 1 0 0 0 0 1</matrix>
        <instance_geometry url="#mesh_0">
          <bind_material>
            <technique_common>
              <instance_material symbol="defaultMaterial" target="#material_0">
              </instance_material>
            </technique_common>
          </bind_material>
        </instance_geometry>
      </node>
    </visual_scene>
  </library_visual_scenes>
  <scene>
    <instance_visual_scene url="#Scene" />
  </scene>
</COLLADA>
