<?xml version="1.0" encoding="UTF-8" standalone="no" ?>
<COLLADA xmlns="http://www.collada.org/2005/11/COLLADASchema" version="1.4.1">
  <asset>
    <contributor>
      <author>Assimp</author>
      <authoring_tool>Assimp Exporter</authoring_tool>
    </contributor>
    <created>2025-11-12T11:09:31</created>
    <modified>2025-11-12T11:09:31</modified>
    <unit name="meter" meter="1" />
    <up_axis>Y_UP</up_axis>
  </asset>
  <library_images>
  </library_images>
  <library_effects>
    <effect id="material_0-fx" name="">
      <profile_COMMON>
        <technique sid="standard">
          <phong>
            <emission>
              <color sid="emission">0   0   0   4.28026616e-41</color>
            </emission>
            <ambient>
              <color sid="ambient">0.870588243   0.870588243   0.870588243   4.28026616e-41</color>
            </ambient>
            <diffuse>
              <color sid="diffuse">0.870588243   0.870588243   0.870588243   4.28026616e-41</color>
            </diffuse>
            <specular>
              <color sid="specular">0.400000006   0.400000006   0.400000006   4.28026616e-41</color>
            </specular>
          </phong>
        </technique>
      </profile_COMMON>
    </effect>
  </library_effects>
  <library_materials>
    <material id="material_0" name="">
      <instance_effect url="#material_0-fx"/>
    </material>
  </library_materials>
  <library_geometries>
    <geometry id="mesh_0" name="" >
      <mesh>
        <source id="mesh_0-positions" name="mesh_0-positions">
          <float_array id="mesh_0-positions-array" count="576"> -0.0351873785 0.0174378566 0.153251886 -0.0351800174 0.0174515378 -0.120752104 -0.0379684381 0.0107849212 0.153251484 -0.0351800174 0.0174515378 -0.120752104 -0.0379610769 0.0107985996 -0.120752506 -0.0379684381 0.0107849212 0.153251484 -0.0379684381 0.0107849212 0.153251484 -0.0379610769 0.0107985996 -0.120752506 -0.0393981412 0.0037172595 0.153251097 -0.0379610769 0.0107985996 -0.120752506 -0.0393907763 0.00373093807 -0.120752901 -0.0393981412 0.0037172595 0.153251097 -0.0393981412 0.0037172595 0.153251097 -0.0393907763 0.00373093807 -0.120752901 -0.039421536 -0.00349351927 0.153250739 -0.0393907763 0.00373093807 -0.120752901 -0.0394141749 -0.0034798393 -0.120753258 -0.039421536 -0.00349351927 0.153250739 -0.039421536 -0.00349351927 0.153250739 -0.0394141749 -0.0034798393 -0.120753258 -0.0380377285 -0.0105703091 0.153250411 -0.0394141749 -0.0034798393 -0.120753258 -0.0380303711 -0.0105566308 -0.120753564 -0.0380377285 -0.0105703091 0.153250411 -0.0380377285 -0.0105703091 0.153250411 -0.0380303711 -0.0105566308 -0.120753564 -0.0352999009 -0.0172411576 0.153250158 -0.0380303711 -0.0105566308 -0.120753564 -0.0352925397 -0.0172274783 -0.120753832 -0.0352999009 -0.0172411576 0.153250158 -0.0352999009 -0.0172411576 0.153250158 -0.0352925397 -0.0172274783 -0.120753832 -0.0313132629 -0.0232496988 0.153249964 -0.0352925397 -0.0172274783 -0.120753832 -0.031305898 -0.0232360195 -0.120754026 -0.0313132629 -0.0232496988 0.153249964 -0.0313132629 -0.0232496988 0.153249964 -0.031305898 -0.0232360195 -0.120754026 -0.0262310114 -0.0283650309 0.153249845 -0.031305898 -0.0232360195 -0.120754026 -0.0262236502 -0.0283513535 -0.120754138 -0.0262310114 -0.0283650309 0.153249845 -0.0262310114 -0.0283650309 0.153249845 -0.0262236502 -0.0283513535 -0.120754138 -0.0202484671 -0.0323905796 0.1532498 -0.0262236502 -0.0283513535 -0.120754138 -0.0202411059 -0.032376904 -0.120754175 -0.0202484671 -0.0323905796 0.1532498 -0.0202484671 -0.0323905796 0.1532498 -0.0202411059 -0.032376904 -0.120754175 -0.0135955298 -0.0351716392 0.15324983 -0.0202411059 -0.032376904 -0.120754175 -0.0135881668 -0.0351579636 -0.120754138 -0.0135955298 -0.0351716392 0.15324983 -0.0135955298 -0.0351716392 0.15324983 -0.0135881668 -0.0351579636 -0.120754138 -0.00652786857 -0.0366013423 0.153249949 -0.0135881668 -0.0351579636 -0.120754138 -0.00652050646 -0.036587663 -0.120754018 -0.00652786857 -0.0366013423 0.153249949 -0.00652786857 -0.0366013423 0.153249949 -0.00652050646 -0.036587663 -0.120754018 0.000682908809 -0.0366247408 0.153250143 -0.00652050646 -0.036587663 -0.120754018 0.000690272078 -0.0366110615 -0.120753825 0.000682908809 -0.0366247408 0.153250143 0.000682908809 -0.0366247408 0.153250143 0.000690272078 -0.0366110615 -0.120753825 0.00775970006 -0.0352409296 0.153250411 0.000690272078 -0.0366110615 -0.120753825 0.00776706357 -0.035227254 -0.120753564 0.00775970006 -0.0352409296 0.153250411 0.00775970006 -0.0352409296 0.153250411 0.00776706357 -0.035227254 -0.120753564 0.0144305471 -0.0325031057 0.153250739 0.00776706357 -0.035227254 -0.120753564 0.0144379083 -0.0324894227 -0.120753258 0.0144305471 -0.0325031057 0.153250739 0.0144305471 -0.0325031057 0.153250739 0.0144379083 -0.0324894227 -0.120753258 0.0204390883 -0.0285164621 0.153251082 0.0144379083 -0.0324894227 -0.120753258 0.0204464495 -0.0285027828 -0.120752893 0.0204390883 -0.0285164621 0.153251082 0.0204390883 -0.0285164621 0.153251082 0.0204464495 -0.0285027828 -0.120752893 0.0255544204 -0.0234342124 0.153251484 0.0204464495 -0.0285027828 -0.120752893 0.0255617853 -0.023420535 -0.120752506 0.0255544204 -0.0234342124 0.153251484 0.0255544204 -0.0234342124 0.153251484 0.0255617853 -0.023420535 -0.120752506 0.029579971 -0.01745167 0.153251886 0.0255617853 -0.023420535 -0.120752506 0.029587334 -0.0174379926 -0.120752096 0.029579971 -0.01745167 0.153251886 0.029579971 -0.01745167 0.153251886 0.029587334 -0.0174379926 -0.120752096 0.0323610343 -0.01079873 0.153252289 0.029587334 -0.0174379926 -0.120752096 0.0323683955 -0.0107850516 -0.120751694 0.0323610343 -0.01079873 0.153252289 0.0323610343 -0.01079873 0.153252289 0.0323683955 -0.0107850516 -0.120751694 0.0337907337 -0.00373106985 0.153252691 0.0323683955 -0.0107850516 -0.120751694 0.0337980948 -0.00371739105 -0.120751299 0.0337907337 -0.00373106985 0.153252691 0.0337907337 -0.00373106985 0.153252691 0.0337980948 -0.00371739105 -0.120751299 0.0338141248 0.00347970845 0.153253049 0.0337980948 -0.00371739105 -0.120751299 0.0338214897 0.00349338842 -0.120750941 0.0338141248 0.00347970845 0.153253049 0.0338141248 0.00347970845 0.153253049 0.0338214897 0.00349338842 -0.120750941 0.032430321 0.0105564995 0.153253362 0.0338214897 0.00349338842 -0.120750941 0.0324376859 0.0105701787 -0.120750621 0.032430321 0.0105564995 0.153253362 0.032430321 0.0105564995 0.153253362 0.0324376859 0.0105701787 -0.120750621 0.0296924915 0.0172273461 0.153253615 0.0324376859 0.0105701787 -0.120750621 0.0296998527 0.0172410235 -0.120750368 0.0296924915 0.0172273461 0.153253615 0.0296924915 0.0172273461 0.153253615 0.0296998527 0.0172410235 -0.120750368 0.0257058498 0.0232358873 0.153253809 0.0296998527 0.0172410235 -0.120750368 0.0257132091 0.0232495647 -0.120750174 0.0257058498 0.0232358873 0.153253809 0.0257058498 0.0232358873 0.153253809 0.0257132091 0.0232495647 -0.120750174 0.020623602 0.0283512212 0.153253928 0.0257132091 0.0232495647 -0.120750174 0.0206309631 0.0283648986 -0.120750047 0.020623602 0.0283512212 0.153253928 0.020623602 0.0283512212 0.153253928 0.0206309631 0.0283648986 -0.120750047 0.0146410558 0.0323767699 0.153253973 0.0206309631 0.0283648986 -0.120750047 0.0146484189 0.0323904492 -0.12075001 0.0146410558 0.0323767699 0.153253973 0.0146410558 0.0323767699 0.153253973 0.0146484189 0.0323904492 -0.12075001 0.0079881195 0.0351578295 0.153253928 0.0146484189 0.0323904492 -0.12075001 0.0079954816 0.0351715088 -0.12075004 0.0079881195 0.0351578295 0.153253928 0.0079881195 0.0351578295 0.153253928 0.0079954816 0.0351715088 -0.12075004 0.000920457649 0.0365875326 0.153253809 0.0079954816 0.0351715088 -0.12075004 0.000927820918 0.0366012119 -0.120750166 0.000920457649 0.0365875326 0.153253809 0.000920457649 0.0365875326 0.153253809 0.000927820918 0.0366012119 -0.120750166 -0.0062903245 0.0366109274 0.153253615 0.000927820918 0.0366012119 -0.120750166 -0.006282961 0.036624603 -0.12075036 -0.0062903245 0.0366109274 0.153253615 -0.0062903245 0.0366109274 0.153253615 -0.006282961 0.036624603 -0.12075036 -0.0133671137 0.0352271199 0.153253362 -0.006282961 0.036624603 -0.12075036 -0.0133597497 0.0352407955 -0.120750621 -0.0133671137 0.0352271199 0.153253362 -0.0133671137 0.0352271199 0.153253362 -0.0133597497 0.0352407955 -0.120750621 -0.0200379584 0.0324892886 0.153253049 -0.0133597497 0.0352407955 -0.120750621 -0.0200305954 0.0325029679 -0.120750941 -0.0200379584 0.0324892886 0.153253049 -0.0200379584 0.0324892886 0.153253049 -0.0200305954 0.0325029679 -0.120750941 -0.0260465015 0.0285026468 0.153252676 -0.0200305954 0.0325029679 -0.120750941 -0.0260391384 0.0285163242 -0.120751292 -0.0260465015 0.0285026468 0.153252676 -0.0260465015 0.0285026468 0.153252676 -0.0260391384 0.0285163242 -0.120751292 -0.0311618317 0.0234203991 0.153252304 -0.0260391384 0.0285163242 -0.120751292 -0.0311544687 0.0234340765 -0.120751694 -0.0311618317 0.0234203991 0.153252304 -0.0311618317 0.0234203991 0.153252304 -0.0311544687 0.0234340765 -0.120751694 -0.0351873785 0.0174378566 0.153251886 -0.0311544687 0.0234340765 -0.120751694 -0.0351800174 0.0174515378 -0.120752104 -0.0351873785 0.0174378566 0.153251886 </float_array>
          <technique_common>
            <accessor count="192" offset="0" source="#mesh_0-positions-array" stride="3">
              <param name="X" type="float" />
              <param name="Y" type="float" />
              <param name="Z" type="float" />
            </accessor>
          </technique_common>
        </source>
        <vertices id="mesh_0-vertices">
          <input semantic="POSITION" source="#mesh_0-positions" />
        </vertices>
        <polylist count="64" material="defaultMaterial">
          <input offset="0" semantic="VERTEX" source="#mesh_0-vertices" />
          <vcount>3 3 3 3 3 3 3 3 3 3 3 3 3 3 3 3 3 3 3 3 3 3 3 3 3 3 3 3 3 3 3 3 3 3 3 3 3 3 3 3 3 3 3 3 3 3 3 3 3 3 3 3 3 3 3 3 3 3 3 3 3 3 3 3 </vcount>
          <p>0 1 2 3 4 5 6 7 8 9 10 11 12 13 14 15 16 17 18 19 20 21 22 23 24 25 26 27 28 29 30 31 32 33 34 35 36 37 38 39 40 41 42 43 44 45 46 47 48 49 50 51 52 53 54 55 56 57 58 59 60 61 62 63 64 65 66 67 68 69 70 71 72 73 74 75 76 77 78 79 80 81 82 83 84 85 86 87 88 89 90 91 92 93 94 95 96 97 98 99 100 101 102 103 104 105 106 107 108 109 110 111 112 113 114 115 116 117 118 119 120 121 122 123 124 125 126 127 128 129 130 131 132 133 134 135 136 137 138 139 140 141 142 143 144 145 146 147 148 149 150 151 152 153 154 155 156 157 158 159 160 161 162 163 164 165 166 167 168 169 170 171 172 173 174 175 176 177 178 179 180 181 182 183 184 185 186 187 188 189 190 191 </p>
        </polylist>
      </mesh>
    </geometry>
  </library_geometries>
  <library_controllers>
  </library_controllers>
  <library_visual_scenes>
    <visual_scene id="Scene" name="Scene">
      <node id="node" name="" type="NODE">
        <matrix sid="matrix">1 0 0 0 0 1 0 0 0 0 1 0 0 0 0 1</matrix>
        <instance_geometry url="#mesh_0">
          <bind_material>
            <technique_common>
              <instance_material symbol="defaultMaterial" target="#material_0">
              </instance_material>
            </technique_common>
          </bind_material>
        </instance_geometry>
      </node>
    </visual_scene>
  </library_visual_scenes>
  <scene>
    <instance_visual_scene url="#Scene" />
  </scene>
</COLLADA>
