<?xml version="1.0" encoding="UTF-8" standalone="no" ?>
<COLLADA xmlns="http://www.collada.org/2005/11/COLLADASchema" version="1.4.1">
  <asset>
    <contributor>
      <author>Assimp</author>
      <authoring_tool>Assimp Exporter</authoring_tool>
    </contributor>
    <created>2025-11-12T11:09:31</created>
    <modified>2025-11-12T11:09:31</modified>
    <unit name="meter" meter="1" />
    <up_axis>Y_UP</up_axis>
  </asset>
  <library_images>
  </library_images>
  <library_effects>
    <effect id="material_0-fx" name="">
      <profile_COMMON>
        <technique sid="standard">
          <phong>
            <emission>
              <color sid="emission">0   0   0   4.28026616e-41</color>
            </emission>
            <ambient>
              <color sid="ambient">0.719165564   0.882352889   0.352941155   4.28026616e-41</color>
            </ambient>
            <diffuse>
              <color sid="diffuse">0.719165564   0.882352889   0.352941155   4.28026616e-41</color>
            </diffuse>
            <specular>
              <color sid="specular">0.529999971   0.529999971   0.529999971   4.28026616e-41</color>
            </specular>
          </phong>
        </technique>
      </profile_COMMON>
    </effect>
  </library_effects>
  <library_materials>
    <material id="material_0" name="">
      <instance_effect url="#material_0-fx"/>
    </material>
  </library_materials>
  <library_geometries>
    <geometry id="mesh_0" name="" >
      <mesh>
        <source id="mesh_0-positions" name="mesh_0-positions">
          <float_array id="mesh_0-positions-array" count="1242"> -0.0531010181 -0.0375452377 0.00687021017 0.0169797018 -0.0360452421 0.0174203515 -0.0531010777 -0.0346906409 0.0212206263 -0.053101033 -0.0143958591 0.0415157676 -0.053101033 -4.51662672e-05 0.0443699956 -0.0531010777 -0.0346906409 0.0212206263 -0.0452510566 0.0143054202 -0.0277751684 0.0328224897 0.0105802165 -0.0292670131 -0.0531010479 0.0143054221 -0.0277751684 0.0328224897 0.0105802165 -0.0292670131 0.0357181728 0.00918556657 -0.0294256825 0.0361792445 -7.05480052e-05 -0.0306626558 -0.0408461243 0.00672257133 -0.0301400404 0.0328224897 0.0105802165 -0.0292670131 0.0361792445 -7.05480052e-05 -0.0306626558 0.0328224897 0.0105802165 -0.0292670131 -0.0408461243 0.00672257133 -0.0301400404 -0.0531010479 0.0143054221 -0.0277751684 -0.0452010483 -0.0346907042 0.021271171 0.0121797025 -0.0300452337 0.0294204354 -0.0531010777 -0.0346906409 0.0212206263 0.0169797018 -0.0360452421 0.0174203515 -0.0452010483 -0.0346907042 0.021271171 -0.0531010777 -0.0346906409 0.0212206263 -0.0452010483 -0.0346907042 0.021271171 0.0169797018 -0.0360452421 0.0174203515 0.0121797025 -0.0300452337 0.0294204354 -0.0452010483 -0.0375452265 0.00692063617 -0.0531010181 -0.0375452377 0.00687021017 0.0069456026 -0.0375876203 0.00658529997 -0.0452010483 -0.0375452265 0.00692063617 0.0169797018 -0.0360452421 0.0174203515 -0.0531010181 -0.0375452377 0.00687021017 0.0121797025 -0.0300452337 0.0294204354 -0.053101033 -0.0265616775 0.0333868861 -0.0531010777 -0.0346906409 0.0212206263 -0.053101033 -0.0265616775 0.0333868861 -0.053101033 -0.0143958591 0.0415157676 -0.0531010777 -0.0346906409 0.0212206263 0.00794440508 -0.0176922902 0.0400086045 0.0121797025 -0.0300452337 0.0294204354 0.00617969781 -4.52155982e-05 0.0444204211 -0.053101033 -0.0265616775 0.0333868861 0.00794440508 -0.0176922902 0.0400086045 -0.053101033 -0.0143958591 0.0415157676 -0.053101033 -0.0143958591 0.0415157676 0.00664123148 -0.00927598495 0.0432664752 -0.053101033 -4.51662672e-05 0.0443699956 0.00664123148 -0.00927598495 0.0432664752 0.00794440508 -0.0176922902 0.0400086045 0.00617969781 -4.52155982e-05 0.0444204211 -0.053101033 -4.51662672e-05 0.0443699956 -0.0531010479 0.0264713354 0.0333868861 -0.0531010777 -0.0346906409 0.0212206263 -0.0531010479 0.0264713354 0.0333868861 -0.0531010479 0.0346002504 -0.00748020317 -0.0531010777 -0.0346906409 0.0212206263 0.0121797025 0.0299547985 0.029420197 -0.0531010479 0.0264713354 0.0333868861 -0.0452010632 0.0264713075 0.0334368348 -0.0299007744 0.0272705108 -0.0205332041 -0.0373096615 0.0177193992 -0.0262284875 -0.0531010479 0.0143054221 -0.0277751684 -0.0373096615 0.0177193992 -0.0262284875 -0.0299007744 0.0272705108 -0.0205332041 0.0262538567 0.0234722216 -0.0234529972 -0.0373096615 0.0177193992 -0.0262284875 -0.0452510566 0.0143054202 -0.0277751684 -0.0531010479 0.0143054221 -0.0277751684 -0.0531010479 0.0264712609 -0.0196464062 -0.0299007744 0.0272705108 -0.0205332041 -0.0531010479 0.0143054221 -0.0277751684 -0.0531010479 0.0264712609 -0.0196464062 -0.0531010479 0.0143054221 -0.0277751684 -0.0531010777 -0.0346906409 0.0212206263 -0.0531010479 0.0346002504 -0.00748020317 -0.0531010479 0.0264712609 -0.0196464062 -0.0531010777 -0.0346906409 0.0212206263 -0.0299007744 0.0272705108 -0.0205332041 0.0158953592 0.0327994041 -0.0136774778 0.0262538567 0.0234722216 -0.0234529972 -0.0531010181 -0.0375452377 0.00687021017 -0.00647719204 -0.0375414267 0.000967979722 0.0069456026 -0.0375876203 0.00658529997 -0.0531010181 -0.0346906669 -0.00748038338 -0.0531010181 -0.0375452377 0.00687021017 -0.0531010777 -0.0346906409 0.0212206263 -0.0531010181 -0.0346906669 -0.00748038338 -0.00647719204 -0.0375414267 0.000967979722 -0.0531010181 -0.0375452377 0.00687021017 0.0253797024 -0.0360452384 -0.0035793779 -0.00647719204 -0.0375414267 0.000967979722 0.0100088716 -0.0356741212 -0.00812482834 0.0169797018 -0.0360452421 0.0174203515 0.0253797024 -0.0360452384 -0.0035793779 0.0121797025 -0.0300452337 0.0294204354 0.0121797025 -0.0300452337 0.0294204354 0.0253797024 -0.0360452384 -0.0035793779 0.00617969781 -4.52155982e-05 0.0444204211 0.0324810743 0.024612328 -0.021333158 0.0344149992 0.0176018514 -0.02616781 0.0262538567 0.0234722216 -0.0234529972 0.0344149992 0.0176018514 -0.02616781 0.0357181728 0.00918556657 -0.0294256825 0.0328224897 0.0105802165 -0.0292670131 0.0344149992 0.0176018514 -0.02616781 -0.0373096615 0.0177193992 -0.0262284875 0.0262538567 0.0234722216 -0.0234529972 0.0344149992 0.0176018514 -0.02616781 0.0328224897 0.0105802165 -0.0292670131 -0.0452510566 0.0143054202 -0.0277751684 -0.0373096615 0.0177193992 -0.0262284875 0.0344149992 0.0176018514 -0.02616781 -0.0452510566 0.0143054202 -0.0277751684 0.0300296471 -0.0175267942 -0.0270187259 -0.0531009883 -0.0143958125 -0.0277754664 -0.040643096 -0.00725644361 -0.0300588012 0.0215305761 -0.0287138857 -0.0189945102 0.0300296471 -0.0175267942 -0.0270187259 0.0324810743 -0.0247027576 -0.0213331599 0.0211797059 -0.0375452265 0.00692039635 -0.0452010483 -0.0375452265 0.00692063617 0.0069456026 -0.0375876203 0.00658529997 -0.0452010483 -0.0375452265 0.00692063617 0.0211797059 -0.0375452265 0.00692039635 0.0169797018 -0.0360452421 0.0174203515 0.0211797059 -0.0375452265 0.00692039635 0.0253797024 -0.0360452384 -0.0035793779 0.0169797018 -0.0360452421 0.0174203515 -0.00647719204 -0.0375414267 0.000967979722 0.0211797059 -0.0375452265 0.00692039635 0.0069456026 -0.0375876203 0.00658529997 0.00794440508 -0.0176922902 0.0400086045 0.00987832248 -0.0247027595 0.0351737142 0.0121797025 -0.0300452337 0.0294204354 0.00987832248 -0.0247027595 0.0351737142 0.00794440508 -0.0176922902 0.0400086045 -0.053101033 -0.0265616775 0.0333868861 -0.0452010781 -4.52172935e-05 0.0444206595 0.00664123148 -0.00927598495 0.0432664752 0.00617969781 -4.52155982e-05 0.0444204211 0.00664123148 -0.00927598495 0.0432664752 -0.0452010781 -4.52172935e-05 0.0444206595 -0.053101033 -4.51662672e-05 0.0443699956 0.00794440508 -0.0176922902 0.0400086045 -0.0452010632 -0.0143958507 0.0415659547 -0.053101033 -0.0143958591 0.0415157676 -0.0452010632 -0.0143958507 0.0415659547 0.00664123148 -0.00927598495 0.0432664752 -0.053101033 -0.0143958591 0.0415157676 0.00664123148 -0.00927598495 0.0432664752 -0.0452010632 -0.0143958507 0.0415659547 0.00794440508 -0.0176922902 0.0400086045 -0.053101033 0.0143055078 0.0415156484 -0.0531010479 0.0264713354 0.0333868861 -0.053101033 -4.51662672e-05 0.0443699956 0.00794440508 0.0176018476 0.0400086045 -0.053101033 0.0143055078 0.0415156484 -0.0452010781 0.0143054333 0.0415663123 -0.053101033 0.0143055078 0.0415156484 0.00794440508 0.0176018476 0.0400086045 -0.0531010479 0.0264713354 0.0333868861 -0.0531010032 0.0346002392 0.0212211013 -0.0531010479 0.0264713354 0.0333868861 0.0121797025 0.0299547985 0.029420197 0.0301797092 0.0299548022 -0.0155795217 0.0324810743 0.024612328 -0.021333158 0.0262538567 0.0234722216 -0.0234529972 0.0158953592 0.0327994041 -0.0136774778 0.0301797092 0.0299548022 -0.0155795217 0.0262538567 0.0234722216 -0.0234529972 0.0301797092 0.0299548022 -0.0155795217 0.0344149992 0.0176018514 -0.02616781 0.0324810743 0.024612328 -0.021333158 0.0344149992 0.0176018514 -0.02616781 0.0301797092 0.0299548022 -0.0155795217 0.0357181728 0.00918556657 -0.0294256825 0.0301797092 0.0299548022 -0.0155795217 0.0253797024 -0.0360452384 -0.0035793779 0.0357181728 0.00918556657 -0.0294256825 0.0301797092 0.0299548022 -0.0155795217 0.0253797099 0.035954807 -0.00357973576 0.0211797059 0.0374548212 0.00692039728 0.0253797099 0.035954807 -0.00357973576 0.0301797092 0.0299548022 -0.0155795217 0.0158953592 0.0327994041 -0.0136774778 -0.00748535246 0.0374198332 4.29738539e-05 -0.0196830183 0.0344170853 -0.0111507168 -0.0531010479 0.0346002504 -0.00748020317 -0.0196830183 0.0344170853 -0.0111507168 0.0158953592 0.0327994041 -0.0136774778 -0.0299007744 0.0272705108 -0.0205332041 -0.0196830183 0.0344170853 -0.0111507168 -0.0531010479 0.0264712609 -0.0196464062 -0.0531010479 0.0346002504 -0.00748020317 -0.0531010479 0.0264712609 -0.0196464062 -0.0196830183 0.0344170853 -0.0111507168 -0.0299007744 0.0272705108 -0.0205332041 -0.0188205093 -0.0348909348 -0.0103591084 0.0215305761 -0.0287138857 -0.0189945102 0.0100088716 -0.0356741212 -0.00812482834 -0.00647719204 -0.0375414267 0.000967979722 -0.0188205093 -0.0348909348 -0.0103591084 0.0100088716 -0.0356741212 -0.00812482834 -0.0531010181 -0.0346906669 -0.00748038338 -0.0188205093 -0.0348909348 -0.0103591084 -0.00647719204 -0.0375414267 0.000967979722 -0.0531010479 -4.53213797e-05 -0.030629633 -0.0531009883 -0.0143958125 -0.0277754664 -0.0531009883 -0.0265617725 -0.0196460485 -0.0531010181 -0.0346906669 -0.00748038338 -0.0531010479 -4.53213797e-05 -0.030629633 -0.0531009883 -0.0265617725 -0.0196460485 -0.0408461243 0.00672257133 -0.0301400404 -0.0531010479 -4.53213797e-05 -0.030629633 -0.0531010479 0.0143054221 -0.0277751684 -0.0531010479 0.0143054221 -0.0277751684 -0.0531010479 -4.53213797e-05 -0.030629633 -0.0531010777 -0.0346906409 0.0212206263 -0.0531010479 -4.53213797e-05 -0.030629633 -0.0531010181 -0.0346906669 -0.00748038338 -0.0531010777 -0.0346906409 0.0212206263 -0.0531009883 -0.0143958125 -0.0277754664 -0.0531010479 -4.53213797e-05 -0.030629633 -0.040643096 -0.00725644361 -0.0300588012 -0.0531010479 -4.53213797e-05 -0.030629633 -0.0408461243 0.00672257133 -0.0301400404 0.0361792445 -7.05480052e-05 -0.0306626558 0.0215305761 -0.0287138857 -0.0189945102 0.0301797166 -0.0300452299 -0.0155795813 0.0100088716 -0.0356741212 -0.00812482834 0.0301797166 -0.0300452299 -0.0155795813 0.0253797024 -0.0360452384 -0.0035793779 0.0100088716 -0.0356741212 -0.00812482834 0.0301797166 -0.0300452299 -0.0155795813 0.0215305761 -0.0287138857 -0.0189945102 0.0324810743 -0.0247027576 -0.0213331599 0.0357181728 0.00918556657 -0.0294256825 0.0357181728 -0.00927598495 -0.0294257402 0.0361792445 -7.05480052e-05 -0.0306626558 0.0357181728 -0.00927598495 -0.0294257402 0.0301797166 -0.0300452299 -0.0155795813 0.0324810743 -0.0247027576 -0.0213331599 0.0253797024 -0.0360452384 -0.0035793779 0.0357181728 -0.00927598495 -0.0294257402 0.0357181728 0.00918556657 -0.0294256825 0.0301797166 -0.0300452299 -0.0155795813 0.0357181728 -0.00927598495 -0.0294257402 0.0253797024 -0.0360452384 -0.0035793779 -0.0292662531 -0.0279771499 -0.0199500918 0.0300296471 -0.0175267942 -0.0270187259 0.0215305761 -0.0287138857 -0.0189945102 -0.0188205093 -0.0348909348 -0.0103591084 -0.0292662531 -0.0279771499 -0.0199500918 0.0215305761 -0.0287138857 -0.0189945102 -0.0292662531 -0.0279771499 -0.0199500918 -0.0531010181 -0.0346906669 -0.00748038338 -0.0531009883 -0.0265617725 -0.0196460485 -0.0292662531 -0.0279771499 -0.0199500918 -0.0188205093 -0.0348909348 -0.0103591084 -0.0531010181 -0.0346906669 -0.00748038338 0.0253797024 -0.0360452384 -0.0035793779 0.0118672401 -0.0371771716 0.00167900405 -0.00647719204 -0.0375414267 0.000967979722 0.0118672401 -0.0371771716 0.00167900405 0.0211797059 -0.0375452265 0.00692039635 -0.00647719204 -0.0375414267 0.000967979722 0.0211797059 -0.0375452265 0.00692039635 0.0118672401 -0.0371771716 0.00167900405 0.0253797024 -0.0360452384 -0.0035793779 -0.0452010781 -0.0265617259 0.0334370732 -0.053101033 -0.0265616775 0.0333868861 0.0121797025 -0.0300452337 0.0294204354 0.00987832248 -0.0247027595 0.0351737142 -0.0452010781 -0.0265617259 0.0334370732 0.0121797025 -0.0300452337 0.0294204354 -0.0452010781 -0.0265617259 0.0334370732 0.00987832248 -0.0247027595 0.0351737142 -0.053101033 -0.0265616775 0.0333868861 0.00987832993 0.0246123318 0.0351738334 0.00794440508 0.0176018476 0.0400086045 0.00617969781 -4.52155982e-05 0.0444204211 0.00987832993 0.0246123318 0.0351738334 0.0301797092 0.0299548022 -0.0155795217 0.0211797059 0.0374548212 0.00692039728 0.0169797018 0.0359547995 0.0174203515 0.00987832993 0.0246123318 0.0351738334 0.0211797059 0.0374548212 0.00692039728 0.0253797024 -0.0360452384 -0.0035793779 0.00987832993 0.0246123318 0.0351738334 0.00617969781 -4.52155982e-05 0.0444204211 0.0301797092 0.0299548022 -0.0155795217 0.00987832993 0.0246123318 0.0351738334 0.0253797024 -0.0360452384 -0.0035793779 0.00987832993 0.0246123318 0.0351738334 0.0169797018 0.0359547995 0.0174203515 0.0121797025 0.0299547985 0.029420197 0.00987832993 0.0246123318 0.0351738334 0.0121797025 0.0299547985 0.029420197 -0.0452010632 0.0264713075 0.0334368348 -0.0531010479 0.0264713354 0.0333868861 0.00987832993 0.0246123318 0.0351738334 -0.0452010632 0.0264713075 0.0334368348 0.00794440508 0.0176018476 0.0400086045 0.00987832993 0.0246123318 0.0351738334 -0.0531010479 0.0264713354 0.0333868861 -0.053101033 0.0143055078 0.0415156484 0.00664123893 0.00918555818 0.0432664752 -0.0452010781 0.0143054333 0.0415663123 0.00664123893 0.00918555818 0.0432664752 -0.0452010781 -4.52172935e-05 0.0444206595 0.00617969781 -4.52155982e-05 0.0444204211 -0.0452010781 -4.52172935e-05 0.0444206595 0.00664123893 0.00918555818 0.0432664752 -0.053101033 -4.51662672e-05 0.0443699956 0.00664123893 0.00918555818 0.0432664752 -0.053101033 0.0143055078 0.0415156484 -0.053101033 -4.51662672e-05 0.0443699956 0.00794440508 0.0176018476 0.0400086045 0.00664123893 0.00918555818 0.0432664752 0.00617969781 -4.52155982e-05 0.0444204211 0.00664123893 0.00918555818 0.0432664752 0.00794440508 0.0176018476 0.0400086045 -0.0452010781 0.0143054333 0.0415663123 -0.0452010632 0.03745481 0.00692051556 0.0169797018 0.0359547995 0.0174203515 0.0211797059 0.0374548212 0.00692039728 -0.0531010479 0.0264713354 0.0333868861 -0.053101033 0.0374546982 0.00687032938 -0.0531010479 0.0346002504 -0.00748020317 -0.0531010032 0.0346002392 0.0212211013 -0.053101033 0.0374546982 0.00687032938 -0.0531010479 0.0264713354 0.0333868861 -0.053101033 0.0374546982 0.00687032938 -0.00748535246 0.0374198332 4.29738539e-05 -0.0531010479 0.0346002504 -0.00748020317 -0.053101033 0.0374546982 0.00687032938 -0.0531010032 0.0346002392 0.0212211013 0.0169797018 0.0359547995 0.0174203515 -0.0452010632 0.03745481 0.00692051556 -0.053101033 0.0374546982 0.00687032938 0.0169797018 0.0359547995 0.0174203515 -0.00748535246 0.0374198332 4.29738539e-05 -0.053101033 0.0374546982 0.00687032938 0.0211797059 0.0374548212 0.00692039728 -0.053101033 0.0374546982 0.00687032938 -0.0452010632 0.03745481 0.00692051556 0.0211797059 0.0374548212 0.00692039728 0.0169797018 0.0359547995 0.0174203515 -0.0452010632 0.0346002877 0.0212711692 0.0121797025 0.0299547985 0.029420197 -0.0452010632 0.0346002877 0.0212711692 -0.0531010032 0.0346002392 0.0212211013 0.0121797025 0.0299547985 0.029420197 -0.0531010032 0.0346002392 0.0212211013 -0.0452010632 0.0346002877 0.0212711692 0.0169797018 0.0359547995 0.0174203515 0.00317732245 0.0372201614 -0.00164014159 -0.0196830183 0.0344170853 -0.0111507168 -0.00748535246 0.0374198332 4.29738539e-05 0.00317732245 0.0372201614 -0.00164014159 -0.00748535246 0.0374198332 4.29738539e-05 0.0211797059 0.0374548212 0.00692039728 0.0253797099 0.035954807 -0.00357973576 0.00317732245 0.0372201614 -0.00164014159 0.0211797059 0.0374548212 0.00692039728 0.00317732245 0.0372201614 -0.00164014159 0.0253797099 0.035954807 -0.00357973576 0.0158953592 0.0327994041 -0.0136774778 -0.0196830183 0.0344170853 -0.0111507168 0.00317732245 0.0372201614 -0.00164014159 0.0158953592 0.0327994041 -0.0136774778 0.0357181728 -0.00927598495 -0.0294257402 0.0341129601 -0.00366934831 -0.0305885673 0.0361792445 -7.05480052e-05 -0.0306626558 0.0341129601 -0.00366934831 -0.0305885673 0.0357181728 -0.00927598495 -0.0294257402 -0.040643096 -0.00725644361 -0.0300588012 0.0341129601 -0.00366934831 -0.0305885673 -0.0531010479 -4.53213797e-05 -0.030629633 0.0361792445 -7.05480052e-05 -0.0306626558 -0.0531010479 -4.53213797e-05 -0.030629633 0.0341129601 -0.00366934831 -0.0305885673 -0.040643096 -0.00725644361 -0.0300588012 0.0338363349 -0.00973919872 -0.0293047428 0.0300296471 -0.0175267942 -0.0270187259 -0.040643096 -0.00725644361 -0.0300588012 0.0357181728 -0.00927598495 -0.0294257402 0.0338363349 -0.00973919872 -0.0293047428 -0.040643096 -0.00725644361 -0.0300588012 0.0338363349 -0.00973919872 -0.0293047428 0.0357181728 -0.00927598495 -0.0294257402 0.0300296471 -0.0175267942 -0.0270187259 0.0300296471 -0.0175267942 -0.0270187259 0.0344150066 -0.0176922902 -0.0261682272 0.0324810743 -0.0247027576 -0.0213331599 0.0344150066 -0.0176922902 -0.0261682272 0.0357181728 -0.00927598495 -0.0294257402 0.0324810743 -0.0247027576 -0.0213331599 0.0357181728 -0.00927598495 -0.0294257402 0.0344150066 -0.0176922902 -0.0261682272 0.0300296471 -0.0175267942 -0.0270187259 0.0300296471 -0.0175267942 -0.0270187259 -0.0369743407 -0.0181252304 -0.0261862874 -0.0531009883 -0.0143958125 -0.0277754664 -0.0292662531 -0.0279771499 -0.0199500918 -0.0369743407 -0.0181252304 -0.0261862874 0.0300296471 -0.0175267942 -0.0270187259 -0.0531009883 -0.0143958125 -0.0277754664 -0.0369743407 -0.0181252304 -0.0261862874 -0.0531009883 -0.0265617725 -0.0196460485 -0.0369743407 -0.0181252304 -0.0261862874 -0.0292662531 -0.0279771499 -0.0199500918 -0.0531009883 -0.0265617725 -0.0196460485 </float_array>
          <technique_common>
            <accessor count="414" offset="0" source="#mesh_0-positions-array" stride="3">
              <param name="X" type="float" />
              <param name="Y" type="float" />
              <param name="Z" type="float" />
            </accessor>
          </technique_common>
        </source>
        <vertices id="mesh_0-vertices">
          <input semantic="POSITION" source="#mesh_0-positions" />
        </vertices>
        <polylist count="138" material="defaultMaterial">
          <input offset="0" semantic="VERTEX" source="#mesh_0-vertices" />
          <vcount>3 3 3 3 3 3 3 3 3 3 3 3 3 3 3 3 3 3 3 3 3 3 3 3 3 3 3 3 3 3 3 3 3 3 3 3 3 3 3 3 3 3 3 3 3 3 3 3 3 3 3 3 3 3 3 3 3 3 3 3 3 3 3 3 3 3 3 3 3 3 3 3 3 3 3 3 3 3 3 3 3 3 3 3 3 3 3 3 3 3 3 3 3 3 3 3 3 3 3 3 3 3 3 3 3 3 3 3 3 3 3 3 3 3 3 3 3 3 3 3 3 3 3 3 3 3 3 3 3 3 3 3 3 3 3 3 3 3 </vcount>
          <p>0 1 2 3 4 5 6 7 8 9 10 11 12 13 14 15 16 17 18 19 20 21 22 23 24 25 26 27 28 29 30 31 32 33 34 35 36 37 38 39 40 41 42 43 44 45 46 47 48 49 50 51 52 53 54 55 56 57 58 59 60 61 62 63 64 65 66 67 68 69 70 71 72 73 74 75 76 77 78 79 80 81 82 83 84 85 86 87 88 89 90 91 92 93 94 95 96 97 98 99 100 101 102 103 104 105 106 107 108 109 110 111 112 113 114 115 116 117 118 119 120 121 122 123 124 125 126 127 128 129 130 131 132 133 134 135 136 137 138 139 140 141 142 143 144 145 146 147 148 149 150 151 152 153 154 155 156 157 158 159 160 161 162 163 164 165 166 167 168 169 170 171 172 173 174 175 176 177 178 179 180 181 182 183 184 185 186 187 188 189 190 191 192 193 194 195 196 197 198 199 200 201 202 203 204 205 206 207 208 209 210 211 212 213 214 215 216 217 218 219 220 221 222 223 224 225 226 227 228 229 230 231 232 233 234 235 236 237 238 239 240 241 242 243 244 245 246 247 248 249 250 251 252 253 254 255 256 257 258 259 260 261 262 263 264 265 266 267 268 269 270 271 272 273 274 275 276 277 278 279 280 281 282 283 284 285 286 287 288 289 290 291 292 293 294 295 296 297 298 299 300 301 302 303 304 305 306 307 308 309 310 311 312 313 314 315 316 317 318 319 320 321 322 323 324 325 326 327 328 329 330 331 332 333 334 335 336 337 338 339 340 341 342 343 344 345 346 347 348 349 350 351 352 353 354 355 356 357 358 359 360 361 362 363 364 365 366 367 368 369 370 371 372 373 374 375 376 377 378 379 380 381 382 383 384 385 386 387 388 389 390 391 392 393 394 395 396 397 398 399 400 401 402 403 404 405 406 407 408 409 410 411 412 413 </p>
        </polylist>
      </mesh>
    </geometry>
  </library_geometries>
  <library_controllers>
  </library_controllers>
  <library_visual_scenes>
    <visual_scene id="Scene" name="Scene">
      <node id="node" name="" type="NODE">
        <matrix sid="matrix">1 0 0 0 0 1 0 0 0 0 1 0 0 0 0 1</matrix>
        <instance_geometry url="#mesh_0">
          <bind_material>
            <technique_common>
              <instance_material symbol="defaultMaterial" target="#material_0">
              </instance_material>
            </technique_common>
          </bind_material>
        </instance_geometry>
      </node>
    </visual_scene>
  </library_visual_scenes>
  <scene>
    <instance_visual_scene url="#Scene" />
  </scene>
</COLLADA>
