<?xml version="1.0" encoding="UTF-8" standalone="no" ?>
<COLLADA xmlns="http://www.collada.org/2005/11/COLLADASchema" version="1.4.1">
  <asset>
    <contributor>
      <author>Assimp</author>
      <authoring_tool>Assimp Exporter</authoring_tool>
    </contributor>
    <created>2025-11-12T11:09:31</created>
    <modified>2025-11-12T11:09:31</modified>
    <unit name="meter" meter="1" />
    <up_axis>Y_UP</up_axis>
  </asset>
  <library_images>
  </library_images>
  <library_effects>
    <effect id="material_0-fx" name="">
      <profile_COMMON>
        <technique sid="standard">
          <phong>
            <emission>
              <color sid="emission">0   0   0   4.28026616e-41</color>
            </emission>
            <ambient>
              <color sid="ambient">0.535294116   0.535294116   0.535294116   4.28026616e-41</color>
            </ambient>
            <diffuse>
              <color sid="diffuse">0.535294116   0.535294116   0.535294116   4.28026616e-41</color>
            </diffuse>
            <specular>
              <color sid="specular">0.140000001   0.140000001   0.140000001   4.28026616e-41</color>
            </specular>
          </phong>
        </technique>
      </profile_COMMON>
    </effect>
  </library_effects>
  <library_materials>
    <material id="material_0" name="">
      <instance_effect url="#material_0-fx"/>
    </material>
  </library_materials>
  <library_geometries>
    <geometry id="mesh_0" name="" >
      <mesh>
        <source id="mesh_0-positions" name="mesh_0-positions">
          <float_array id="mesh_0-positions-array" count="3825"> -0.0176460594 -0.0374924578 0.00619806303 -0.0175402984 -0.03749438 0.00630046148 -0.0452000611 -0.0346454754 -0.00740030082 -0.0189683493 -0.0371319503 0.00170922815 -0.0452000611 -0.0346454754 -0.00740030082 -0.0289029628 -0.0310832523 -0.0140279196 -0.0189683493 -0.0371319503 0.00170922815 -0.0176460594 -0.0374924578 0.00619806303 -0.0452000611 -0.0346454754 -0.00740030082 -0.0452000611 -0.0346454754 -0.00740030082 -0.0452000648 -0.0265164971 -0.0195660796 -0.0289029628 -0.0310832523 -0.0140279196 -0.0289029628 -0.0310832523 -0.0140279196 -0.0452000648 -0.0265164971 -0.0195660796 -0.0336815491 -0.0255038217 -0.0205416121 -0.0336815491 -0.0255038217 -0.0205416121 -0.0452000648 -0.0265164971 -0.0195660796 -0.0452000611 -0.0143506126 -0.0276951436 -0.037846379 -0.0183183048 -0.025770992 -0.0452000611 -0.0143506126 -0.0276951436 -0.0409374349 -0.00969396159 -0.0292750169 -0.037846379 -0.0183183048 -0.025770992 -0.0336815491 -0.0255038217 -0.0205416121 -0.0452000611 -0.0143506126 -0.0276951436 -0.0452000611 -0.0143506126 -0.0276951436 -0.0452000722 1.69630088e-08 -0.0305496175 -0.0409374349 -0.00969396159 -0.0292750169 -0.0409374349 -0.00969396159 -0.0292750169 -0.0452000722 1.69630088e-08 -0.0305496175 -0.0423097983 -8.21208232e-05 -0.0305493921 -0.0423097983 -8.21208232e-05 -0.0305493921 -0.0452000722 1.69630088e-08 -0.0305496175 -0.0409559794 0.00962200295 -0.0292945076 -0.0409559794 0.00962200295 -0.0292945076 -0.0452000722 1.69630088e-08 -0.0305496175 -0.0452000611 0.0143506536 -0.027694989 -0.0378795266 0.0182472002 -0.0258106869 -0.0452000611 0.0143506536 -0.027694989 -0.0452000722 0.0265165363 -0.0195659976 -0.0337359719 0.0254269596 -0.0206127092 -0.0452000722 0.0265165363 -0.0195659976 -0.0289882384 0.0310012959 -0.0141487038 -0.0337359719 0.0254269596 -0.0206127092 -0.0378795266 0.0182472002 -0.0258106869 -0.0452000722 0.0265165363 -0.0195659976 -0.0452000722 0.0265165363 -0.0195659976 -0.0452000648 0.0346455202 -0.00740026031 -0.0289882384 0.0310012959 -0.0141487038 -0.0289882384 0.0310012959 -0.0141487038 -0.0452000648 0.0346455202 -0.00740026031 -0.0190645643 0.0371060818 0.00152921514 -0.0190645643 0.0371060818 0.00152921514 -0.0452000648 0.0346455202 -0.00740026031 -0.0452000685 0.037500035 0.00695050834 -0.0179654788 0.0373611972 0.00372649473 -0.0452000685 0.037500035 0.00695050834 -0.0176992863 0.0374890454 0.0060421899 -0.0179654788 0.0373611972 0.00372649473 -0.0190645643 0.0371060818 0.00152921514 -0.0452000685 0.037500035 0.00695050834 0.00956711359 0.0374981314 0.00657209614 0.00835940614 0.0374997482 0.00680205878 0.0211807042 0.0375000462 0.00695042312 0.0101670753 0.0374964327 0.00643055048 0.0211807042 0.0375000462 0.00695042312 0.0104432572 0.037494354 0.00629791152 0.0101670753 0.0374964327 0.00643055048 0.00956711359 0.0374981314 0.00657209614 0.0211807042 0.0375000462 0.00695042312 0.0253807101 0.036000032 -0.00354975695 0.0119644655 0.0371060856 0.0015290645 0.0211807042 0.0375000462 0.00695042312 0.0253807101 0.036000032 -0.00354975695 0.0301807113 0.0300000329 -0.0155495619 0.0119644655 0.0371060856 0.0015290645 0.0119644655 0.0371060856 0.0015290645 0.0301807113 0.0300000329 -0.0155495619 0.0218881425 0.031001294 -0.0141487932 0.0218881425 0.031001294 -0.0141487932 0.0301807113 0.0300000329 -0.0155495619 0.0324820764 0.0246575549 -0.0213031806 0.0266358759 0.0254269615 -0.0206127614 0.0324820764 0.0246575549 -0.0213031806 0.0307794139 0.0182471871 -0.0258105788 0.0266358759 0.0254269615 -0.0206127614 0.0218881425 0.031001294 -0.0141487932 0.0324820764 0.0246575549 -0.0213031806 0.0324820764 0.0246575549 -0.0213031806 0.0344160013 0.0176470801 -0.0261378437 0.0307794139 0.0182471871 -0.0258105788 0.0307794139 0.0182471871 -0.0258105788 0.0344160013 0.0176470801 -0.0261378437 0.0357191712 0.00923079439 -0.0293956921 0.033855889 0.00962200202 -0.0292941574 0.0357191712 0.00923079439 -0.0293956921 0.0361807197 1.73101373e-08 -0.0305496715 0.0352097042 -8.2130573e-05 -0.0305496063 0.0361807197 1.73101373e-08 -0.0305496715 0.0357191712 -0.00923075806 -0.0293957628 0.0338373408 -0.00969396997 -0.0292747561 0.0357191712 -0.00923075806 -0.0293957628 0.0344160013 -0.0176470615 -0.0261382163 0.0307462774 -0.0183183011 -0.0257712156 0.0344160013 -0.0176470615 -0.0261382163 0.0324820727 -0.024657527 -0.0213031583 0.0265814494 -0.0255038273 -0.0205417387 0.0324820727 -0.024657527 -0.0213031583 0.0301807132 -0.0300000012 -0.0155495852 0.0218028594 -0.0310832541 -0.0140277054 0.0301807132 -0.0300000012 -0.0155495852 0.0253807008 -0.0360000096 -0.00354940561 0.0118682403 -0.0371319465 0.00170897588 0.0253807008 -0.0360000096 -0.00354940561 0.0105459504 -0.0374924541 0.00619804952 0.0118682403 -0.0371319465 0.00170897588 0.0218028594 -0.0310832541 -0.0140277054 0.0253807008 -0.0360000096 -0.00354940561 0.0105459504 -0.0374924541 0.00619804952 0.0253807008 -0.0360000096 -0.00354940561 0.0104401875 -0.0374943838 0.00630059512 0.0104401875 -0.0374943838 0.00630059512 0.0253807008 -0.0360000096 -0.00354940561 0.0211807005 -0.0374999978 0.0069504031 0.0103104897 -0.0374955684 0.00637353025 0.0211807005 -0.0374999978 0.0069504031 0.0100338431 -0.0374969468 0.00647122227 0.0103104897 -0.0374955684 0.00637353025 0.0104401875 -0.0374943838 0.00630059512 0.0211807005 -0.0374999978 0.0069504031 -0.0165578369 -0.0374983661 0.00659857923 -0.0153973401 -0.0374997295 0.00680640852 -0.0452000573 -0.0375000052 0.00695057353 -0.0171339419 -0.0374969356 0.00647107139 -0.0452000573 -0.0375000052 0.00695057353 -0.0174105912 -0.0374955609 0.00637328299 -0.0171339419 -0.0374969356 0.00647107139 -0.0165578369 -0.0374983661 0.00659857923 -0.0452000573 -0.0375000052 0.00695057353 -0.00355004193 0.0373917893 0.00410337187 -0.013003815 0.0374990925 0.00668663671 0.00590370595 0.0374991149 0.00668635033 0.00590370595 0.0374991149 0.00668635033 -0.013003815 0.0374990925 0.00668663671 0.00835940614 0.0374997482 0.00680205878 0.00835940614 0.0374997482 0.00680205878 -0.013003815 0.0374990925 0.00668663671 -0.0154595021 0.0374997333 0.00680174725 0.0211807042 0.0375000462 0.00695042312 -0.0154595021 0.0374997333 0.00680174725 -0.0452000685 0.037500035 0.00695050834 0.0211807042 0.0375000462 0.00695042312 0.00835940614 0.0374997482 0.00680205878 -0.0154595021 0.0374997333 0.00680174725 -0.0154595021 0.0374997333 0.00680174725 -0.0166672152 0.0374981202 0.00657199603 -0.0452000685 0.037500035 0.00695050834 -0.0452000685 0.037500035 0.00695050834 -0.0166672152 0.0374981202 0.00657199603 -0.0172671732 0.0374964289 0.00643025106 -0.017543355 0.037494354 0.00629760884 -0.0452000685 0.037500035 0.00695050834 -0.0172671732 0.0374964289 0.00643025106 -0.017543355 0.037494354 0.00629760884 -0.0176525619 0.0374922939 0.00618848344 -0.0452000685 0.037500035 0.00695050834 -0.0452000685 0.037500035 0.00695050834 -0.0176525619 0.0374922939 0.00618848344 -0.0176992863 0.0374890454 0.0060421899 -0.0378795266 0.0182472002 -0.0258106869 -0.0409559794 0.00962200295 -0.0292945076 -0.0452000611 0.0143506536 -0.027694989 -0.0175402984 -0.03749438 0.00630046148 -0.0174105912 -0.0374955609 0.00637328299 -0.0452000611 -0.0346454754 -0.00740030082 -0.0452000611 -0.0346454754 -0.00740030082 -0.0174105912 -0.0374955609 0.00637328299 -0.0452000573 -0.0375000052 0.00695057353 -0.0452000573 -0.0375000052 0.00695057353 -0.0153973401 -0.0374997295 0.00680640852 0.00829722732 -0.0374997184 0.00680607092 0.0211807005 -0.0374999978 0.0069504031 0.00829722732 -0.0374997184 0.00680607092 0.00945772976 -0.0374983624 0.00659877574 0.0100338431 -0.0374969468 0.00647122227 0.0211807005 -0.0374999978 0.0069504031 0.00945772976 -0.0374983624 0.00659877574 -0.00399288721 -0.0374056026 0.00429158052 -0.00310722552 -0.0374056324 0.00429151207 -0.0130447894 -0.0374991 0.00669117598 -0.00399288721 -0.0374056026 0.00429158052 -0.00355118862 -0.0373990089 0.00419990439 -0.00310722552 -0.0374056324 0.00429151207 -0.00310722552 -0.0374056324 0.00429151207 0.00594468368 -0.0374991074 0.00669128355 -0.0130447894 -0.0374991 0.00669117598 -0.0130447894 -0.0374991 0.00669117598 0.00594468368 -0.0374991074 0.00669128355 0.00829722732 -0.0374997184 0.00680607092 -0.0153973401 -0.0374997295 0.00680640852 -0.0130447894 -0.0374991 0.00669117598 0.00829722732 -0.0374997184 0.00680607092 0.0218028594 -0.0310832541 -0.0140277054 0.0265814494 -0.0255038273 -0.0205417387 0.0301807132 -0.0300000012 -0.0155495852 0.0265814494 -0.0255038273 -0.0205417387 0.0307462774 -0.0183183011 -0.0257712156 0.0324820727 -0.024657527 -0.0213031583 0.0307462774 -0.0183183011 -0.0257712156 0.0338373408 -0.00969396997 -0.0292747561 0.0344160013 -0.0176470615 -0.0261382163 0.0338373408 -0.00969396997 -0.0292747561 0.0352097042 -8.2130573e-05 -0.0305496063 0.0357191712 -0.00923075806 -0.0293957628 0.0352097042 -8.2130573e-05 -0.0305496063 0.033855889 0.00962200202 -0.0292941574 0.0361807197 1.73101373e-08 -0.0305496715 0.033855889 0.00962200202 -0.0292941574 0.0307794139 0.0182471871 -0.0258105788 0.0357191712 0.00923079439 -0.0293956921 0.0119644655 0.0371060856 0.0015290645 0.0108653773 0.0373611897 0.00372648751 0.0211807042 0.0375000462 0.00695042312 0.0211807042 0.0375000462 0.00695042312 0.0108653773 0.0373611897 0.00372648751 0.0105991857 0.0374890342 0.00604265649 0.0105991857 0.0374890342 0.00604265649 0.0105524585 0.0374923013 0.00618868647 0.0211807042 0.0375000462 0.00695042312 0.0211807042 0.0375000462 0.00695042312 0.0105524585 0.0374923013 0.00618868647 0.0104432572 0.037494354 0.00629791152 -0.0452000573 -0.0375000052 0.00695057353 0.00829722732 -0.0374997184 0.00680607092 0.0211807005 -0.0374999978 0.0069504031 0.0338174365 0.00315001723 -0.0352996849 0.0338174328 0.00315001537 -0.0382995494 0.0304288603 0.0158646274 -0.0330496617 0.0338373892 0.00290350546 -0.0340780057 0.0304288603 0.0158646274 -0.0330496617 0.0338850692 0.00220456161 -0.0330496281 0.0338373892 0.00290350546 -0.0340780057 0.0338174365 0.00315001723 -0.0352996849 0.0304288603 0.0158646274 -0.0330496617 -0.00355005031 0.0375000499 -0.03829965 -0.00355004473 0.0375000536 -0.0330496095 0.0100690518 0.0349395499 -0.0382995494 0.0100690518 0.0349395499 -0.0382995494 -0.00355004473 0.0375000536 -0.0330496095 0.0102895778 0.0348528028 -0.0330497101 0.0218283497 0.027607765 -0.0382996388 0.0102895778 0.0348528028 -0.0330497101 0.0221752413 0.0272848308 -0.0330496803 0.030121997 0.0165059045 -0.0382996574 0.0221752413 0.0272848308 -0.0330496803 0.0304288603 0.0158646274 -0.0330496617 0.0338174328 0.00315001537 -0.0382995494 0.030121997 0.0165059045 -0.0382996574 0.0304288603 0.0158646274 -0.0330496617 0.0218283497 0.027607765 -0.0382996388 0.0100690518 0.0349395499 -0.0382995494 0.0102895778 0.0348528028 -0.0330497101 0.0221752413 0.0272848308 -0.0330496803 0.030121997 0.0165059045 -0.0382996574 0.0218283497 0.027607765 -0.0382996388 -0.00355004473 0.0375000536 -0.0330496095 -0.00355005031 0.0375000499 -0.03829965 -0.00414026901 0.037495397 -0.0330493152 -0.00414026901 0.037495397 -0.0330493152 -0.00355005031 0.0375000499 -0.03829965 -0.0179006923 0.0346455164 -0.038299609 -0.0047303373 0.037481457 -0.033049684 -0.0179006923 0.0346455164 -0.038299609 -0.00532012805 0.0374582633 -0.0330496915 -0.0047303373 0.037481457 -0.033049684 -0.00414026901 0.037495397 -0.0330493152 -0.0179006923 0.0346455164 -0.038299609 -0.025829982 0.0301638395 -0.033049617 -0.0228090435 0.0321767554 -0.0330497064 -0.0300665665 0.0265165363 -0.0382996537 -0.0286717936 0.027841527 -0.0330496728 -0.0300665665 0.0265165363 -0.0382996537 -0.0312729888 0.0252525434 -0.0330496132 -0.0286717936 0.027841527 -0.0330496728 -0.025829982 0.0301638395 -0.033049617 -0.0300665665 0.0265165363 -0.0382996537 -0.0300665665 0.0265165363 -0.0382996537 -0.0381955616 0.0143506601 -0.0382995717 -0.0312729888 0.0252525434 -0.0330496132 -0.0312729888 0.0252525434 -0.0330496132 -0.0381955616 0.0143506601 -0.0382995717 -0.0336086564 0.0224216934 -0.033049617 -0.0336086564 0.0224216934 -0.033049617 -0.0381955616 0.0143506601 -0.0382995717 -0.0396686047 0.0100847417 -0.0330494754 -0.0396686047 0.0100847417 -0.0330494754 -0.0381955616 0.0143506601 -0.0382995717 -0.041050069 1.61644209e-08 -0.0382995494 -0.0408761911 -0.00360705121 -0.0330498517 -0.041050069 1.61644209e-08 -0.0382995494 -0.0381955616 -0.0143506164 -0.0382995531 -0.0370691903 -0.0168142337 -0.0330496877 -0.0381955616 -0.0143506164 -0.0382995531 -0.0300665665 -0.0265165046 -0.03829927 -0.0287590493 -0.0277625117 -0.0330496132 -0.0300665665 -0.0265165046 -0.03829927 -0.0179006904 -0.0346454829 -0.0382993966 -0.0170621965 -0.0349810235 -0.0330496095 -0.0179006904 -0.0346454829 -0.0382993966 -0.00355005078 -0.0375000015 -0.0382996239 -0.00355006312 -0.0375000313 -0.0330494605 -0.0170621965 -0.0349810235 -0.0330496095 -0.00355005078 -0.0375000015 -0.0382996239 -0.0170621965 -0.0349810235 -0.0330496095 -0.0287590493 -0.0277625117 -0.0330496132 -0.0179006904 -0.0346454829 -0.0382993966 -0.0287590493 -0.0277625117 -0.0330496132 -0.0370691903 -0.0168142337 -0.0330496877 -0.0300665665 -0.0265165046 -0.03829927 -0.0370691903 -0.0168142337 -0.0330496877 -0.0408761911 -0.00360705121 -0.0330498517 -0.0381955616 -0.0143506164 -0.0382995531 -0.0408761911 -0.00360705121 -0.0330498517 -0.0396686047 0.0100847417 -0.0330494754 -0.041050069 1.61644209e-08 -0.0382995494 -0.0228090435 0.0321767554 -0.0330497064 -0.0196076501 0.03388815 -0.0330495127 -0.0300665665 0.0265165363 -0.0382996537 -0.0300665665 0.0265165363 -0.0382996537 -0.0196076501 0.03388815 -0.0330495127 -0.0179006923 0.0346455164 -0.038299609 -0.0179006923 0.0346455164 -0.038299609 -0.0196076501 0.03388815 -0.0330495127 -0.0162557755 0.0352819785 -0.0330495983 -0.0150475008 0.0356939994 -0.0330496877 -0.0179006923 0.0346455164 -0.038299609 -0.0162557755 0.0352819785 -0.0330495983 -0.0150475008 0.0356939994 -0.0330496877 -0.0138259046 0.0360646471 -0.0330494903 -0.0179006923 0.0346455164 -0.038299609 -0.0179006923 0.0346455164 -0.038299609 -0.0138259046 0.0360646471 -0.0330494903 -0.0125924191 0.0363935418 -0.033049468 -0.0114427516 0.0366600193 -0.0330498666 -0.0179006923 0.0346455164 -0.038299609 -0.0125924191 0.0363935418 -0.033049468 -0.0114427516 0.0366600193 -0.0330498666 -0.0102853049 0.0368902162 -0.0330495089 -0.0179006923 0.0346455164 -0.038299609 -0.0179006923 0.0346455164 -0.038299609 -0.0102853049 0.0368902162 -0.0330495089 -0.00912119262 0.0370839164 -0.0330496132 -0.00785864238 0.0372517034 -0.033049427 -0.0179006923 0.0346455164 -0.038299609 -0.00912119262 0.0370839164 -0.0330496132 -0.00785864238 0.0372517034 -0.033049427 -0.0065911375 0.0373765193 -0.0330495462 -0.0179006923 0.0346455164 -0.038299609 -0.0179006923 0.0346455164 -0.038299609 -0.0065911375 0.0373765193 -0.0330495462 -0.00532012805 0.0374582633 -0.0330496915 -0.00355006312 -0.0375000313 -0.0330494605 -0.00355005078 -0.0375000015 -0.0382996239 -0.0029598251 -0.0374953412 -0.033049833 -0.0029598251 -0.0374953412 -0.033049833 -0.00355005078 -0.0375000015 -0.0382996239 0.0100690573 -0.0349395238 -0.0382998139 -0.00236977334 -0.0374814384 -0.0330499336 0.0100690573 -0.0349395238 -0.0382998139 -0.00177999167 -0.0374582298 -0.0330497548 -0.00236977334 -0.0374814384 -0.0330499336 -0.0029598251 -0.0374953412 -0.033049833 0.0100690573 -0.0349395238 -0.0382998139 0.0157089457 -0.0321767256 -0.0330496542 0.0125075448 -0.0338881053 -0.0330499262 0.0218283441 -0.0276077315 -0.0382996127 0.0187298786 -0.0301638264 -0.0330495834 0.0218283441 -0.0276077315 -0.0382996127 0.0215716884 -0.0278414935 -0.0330496095 0.0187298786 -0.0301638264 -0.0330495834 0.0157089457 -0.0321767256 -0.0330496542 0.0218283441 -0.0276077315 -0.0382996127 0.0218283441 -0.0276077315 -0.0382996127 0.0301220007 -0.0165058691 -0.0382997356 0.0215716884 -0.0278414935 -0.0330496095 0.0215716884 -0.0278414935 -0.0330496095 0.0301220007 -0.0165058691 -0.0382997356 0.0241728853 -0.0252525043 -0.033049535 0.0241728853 -0.0252525043 -0.033049535 0.0301220007 -0.0165058691 -0.0382997356 0.0265085697 -0.0224216636 -0.0330496989 0.0265085697 -0.0224216636 -0.0330496989 0.0301220007 -0.0165058691 -0.0382997356 0.0272489879 -0.0213932246 -0.033049494 0.0272489879 -0.0213932246 -0.033049494 0.0301220007 -0.0165058691 -0.0382997356 0.0279542487 -0.0203403607 -0.0330496207 0.0279542487 -0.0203403607 -0.0330496207 0.0301220007 -0.0165058691 -0.0382997356 0.0286235325 -0.0192642845 -0.0330494866 0.0286235325 -0.0192642845 -0.0330494866 0.0301220007 -0.0165058691 -0.0382997356 0.0292702727 -0.0181404892 -0.033049766 0.0292702727 -0.0181404892 -0.033049766 0.0301220007 -0.0165058691 -0.0382997356 0.0298777875 -0.0169950146 -0.033049576 0.0298777875 -0.0169950146 -0.033049576 0.0301220007 -0.0165058691 -0.0382997356 0.0338174365 -0.00314998487 -0.0382997431 0.0304453522 -0.0158292353 -0.0330494344 0.0338174365 -0.00314998487 -0.0382997431 0.0317905396 -0.0125416834 -0.0330496319 0.0304453522 -0.0158292353 -0.0330494344 0.0298777875 -0.0169950146 -0.033049576 0.0338174365 -0.00314998487 -0.0382997431 0.0338174328 -0.00314999092 -0.0352997594 0.0337991565 -0.00335976691 -0.0330494568 0.0338174365 -0.00314998487 -0.0382997431 0.0338174328 -0.00314999092 -0.0352997594 0.0338373408 -0.00290413341 -0.0340794884 0.0337991565 -0.00335976691 -0.0330494568 0.0337991565 -0.00335976691 -0.0330494568 0.0338373408 -0.00290413341 -0.0340794884 0.0338850692 -0.00220452668 -0.0330494046 0.0337991565 -0.00335976691 -0.0330494568 0.0336775631 -0.00451178802 -0.033049304 0.0338174365 -0.00314998487 -0.0382997431 0.0338174365 -0.00314998487 -0.0382997431 0.0336775631 -0.00451178802 -0.033049304 0.0335204527 -0.00565951085 -0.0330493599 0.032818649 -0.00914160162 -0.0330496579 0.0338174365 -0.00314998487 -0.0382997431 0.0335204527 -0.00565951085 -0.0330493599 0.032818649 -0.00914160162 -0.0330496579 0.0317905396 -0.0125416834 -0.0330496319 0.0338174365 -0.00314998487 -0.0382997431 0.0125075448 -0.0338881053 -0.0330499262 0.00915567204 -0.0352819413 -0.0330498926 0.0218283441 -0.0276077315 -0.0382996127 0.0218283441 -0.0276077315 -0.0382996127 0.00915567204 -0.0352819413 -0.0330498926 0.0100690573 -0.0349395238 -0.0382998139 0.0100690573 -0.0349395238 -0.0382998139 0.00915567204 -0.0352819413 -0.0330498926 0.00794740301 -0.0356939621 -0.0330493301 0.00672580488 -0.0360646136 -0.0330498293 0.0100690573 -0.0349395238 -0.0382998139 0.00794740301 -0.0356939621 -0.0330493301 0.00672580488 -0.0360646136 -0.0330498293 0.00549230678 -0.0363935009 -0.0330493413 0.0100690573 -0.0349395238 -0.0382998139 0.0100690573 -0.0349395238 -0.0382998139 0.00549230678 -0.0363935009 -0.0330493413 0.00434267381 -0.0366599821 -0.0330496207 0.00318521843 -0.0368901975 -0.033049725 0.0100690573 -0.0349395238 -0.0382998139 0.00434267381 -0.0366599821 -0.0330496207 0.00318521843 -0.0368901975 -0.033049725 0.00202109129 -0.0370838568 -0.0330494978 0.0100690573 -0.0349395238 -0.0382998139 0.0100690573 -0.0349395238 -0.0382998139 0.00202109129 -0.0370838568 -0.0330494978 0.000758541573 -0.0372516699 -0.033049684 -0.00050896348 -0.0373764895 -0.0330495685 0.0100690573 -0.0349395238 -0.0382998139 0.000758541573 -0.0372516699 -0.033049684 -0.00050896348 -0.0373764895 -0.0330495685 -0.00177999167 -0.0374582298 -0.0330497548 0.0100690573 -0.0349395238 -0.0382998139 0.032818649 -0.00914160162 -0.0330496579 0.0335204527 -0.00565951085 -0.0330493599 0.0340796225 -0.00365616963 -0.0308154449 0.0300306473 -0.0174815655 -0.0269887485 0.0340796225 -0.00365616963 -0.0308154449 0.0311206356 -0.0174815394 -0.0262278933 0.0265814494 -0.0255038273 -0.0205417387 0.0311206356 -0.0174815394 -0.0262278933 0.0307462774 -0.0183183011 -0.0257712156 0.0265814494 -0.0255038273 -0.0205417387 0.0300306473 -0.0174815655 -0.0269887485 0.0311206356 -0.0174815394 -0.0262278933 0.0265814494 -0.0255038273 -0.0205417387 0.0215315726 -0.0286686569 -0.0189645365 0.0300306473 -0.0174815655 -0.0269887485 0.0265814494 -0.0255038273 -0.0205417387 0.0240846854 -0.028668616 -0.0172273051 0.0215315726 -0.0286686569 -0.0189645365 0.0265814494 -0.0255038273 -0.0205417387 0.0218028594 -0.0310832541 -0.0140277054 0.0240846854 -0.028668616 -0.0172273051 0.0240846854 -0.028668616 -0.0172273051 0.0218028594 -0.0310832541 -0.0140277054 0.0145598343 -0.0356288552 -0.00500172889 0.0215315726 -0.0286686569 -0.0189645365 0.0145598343 -0.0356288552 -0.00500172889 0.0100098718 -0.0356288925 -0.00809486024 0.0157089457 -0.0321767256 -0.0330496542 0.0100098718 -0.0356288925 -0.00809486024 0.0125075448 -0.0338881053 -0.0330499262 0.0157089457 -0.0321767256 -0.0330496542 0.0215315726 -0.0286686569 -0.0189645365 0.0100098718 -0.0356288925 -0.00809486024 0.0157089457 -0.0321767256 -0.0330496542 0.0187298786 -0.0301638264 -0.0330495834 0.0215315726 -0.0286686569 -0.0189645365 0.0215315726 -0.0286686569 -0.0189645365 0.0187298786 -0.0301638264 -0.0330495834 0.0215716884 -0.0278414935 -0.0330496095 0.0241728853 -0.0252525043 -0.033049535 0.0215315726 -0.0286686569 -0.0189645365 0.0215716884 -0.0278414935 -0.0330496095 0.0241728853 -0.0252525043 -0.033049535 0.0265085697 -0.0224216636 -0.0330496989 0.0215315726 -0.0286686569 -0.0189645365 0.0215315726 -0.0286686569 -0.0189645365 0.0265085697 -0.0224216636 -0.0330496989 0.0300306473 -0.0174815655 -0.0269887485 0.0300306473 -0.0174815655 -0.0269887485 0.0265085697 -0.0224216636 -0.0330496989 0.0272489879 -0.0213932246 -0.033049494 0.0279542487 -0.0203403607 -0.0330496207 0.0300306473 -0.0174815655 -0.0269887485 0.0272489879 -0.0213932246 -0.033049494 0.0279542487 -0.0203403607 -0.0330496207 0.0286235325 -0.0192642845 -0.0330494866 0.0300306473 -0.0174815655 -0.0269887485 0.0300306473 -0.0174815655 -0.0269887485 0.0286235325 -0.0192642845 -0.0330494866 0.0292702727 -0.0181404892 -0.033049766 0.0298777875 -0.0169950146 -0.033049576 0.0300306473 -0.0174815655 -0.0269887485 0.0292702727 -0.0181404892 -0.033049766 0.0298777875 -0.0169950146 -0.033049576 0.0304453522 -0.0158292353 -0.0330494344 0.0300306473 -0.0174815655 -0.0269887485 0.0300306473 -0.0174815655 -0.0269887485 0.0304453522 -0.0158292353 -0.0330494344 0.0317905396 -0.0125416834 -0.0330496319 0.032818649 -0.00914160162 -0.0330496579 0.0300306473 -0.0174815655 -0.0269887485 0.0317905396 -0.0125416834 -0.0330496319 0.032818649 -0.00914160162 -0.0330496579 0.0340796225 -0.00365616963 -0.0308154449 0.0300306473 -0.0174815655 -0.0269887485 0.0335204527 -0.00565951085 -0.0330493599 0.0336775631 -0.00451178802 -0.033049304 0.0340796225 -0.00365616963 -0.0308154449 0.0340796225 -0.00365616963 -0.0308154449 0.0336775631 -0.00451178802 -0.033049304 0.0337991565 -0.00335976691 -0.0330494568 0.0339208208 -0.00119079079 -0.0323832966 0.0337991565 -0.00335976691 -0.0330494568 0.0338850692 -0.00220452668 -0.0330494046 0.0339208208 -0.00119079079 -0.0323832966 0.0340796225 -0.00365616963 -0.0308154449 0.0337991565 -0.00335976691 -0.0330494568 0.0339208208 -0.00119079079 -0.0323832966 0.0339395106 -1.09540917e-06 -0.0321496241 0.0340796225 -0.00365616963 -0.0308154449 0.0340796225 -0.00365616963 -0.0308154449 0.0339395106 -1.09540917e-06 -0.0321496241 0.0327160321 0.0106853619 -0.0295262299 0.034479633 -0.0036561694 -0.0305035114 0.0327160321 0.0106853619 -0.0295262299 0.0333474167 0.0106853433 -0.029065311 0.033855889 0.00962200202 -0.0292941574 0.0333474167 0.0106853433 -0.029065311 0.0307794139 0.0182471871 -0.0258105788 0.033855889 0.00962200202 -0.0292941574 0.034479633 -0.0036561694 -0.0305035114 0.0333474167 0.0106853433 -0.029065311 0.033855889 0.00962200202 -0.0292941574 0.0348269418 -0.00365615473 -0.0303894691 0.034479633 -0.0036561694 -0.0305035114 0.033855889 0.00962200202 -0.0292941574 0.0352097042 -8.2130573e-05 -0.0305496063 0.0348269418 -0.00365615473 -0.0303894691 0.0348269418 -0.00365615473 -0.0303894691 0.0352097042 -8.2130573e-05 -0.0305496063 0.0338373408 -0.00969396997 -0.0292747561 0.034479633 -0.0036561694 -0.0305035114 0.0338373408 -0.00969396997 -0.0292747561 0.0311206356 -0.0174815394 -0.0262278933 0.0340796225 -0.00365616963 -0.0308154449 0.034479633 -0.0036561694 -0.0305035114 0.0311206356 -0.0174815394 -0.0262278933 0.0340796225 -0.00365616963 -0.0308154449 0.0327160321 0.0106853619 -0.0295262299 0.034479633 -0.0036561694 -0.0305035114 0.0339395106 -1.09540917e-06 -0.0321496241 0.0339208879 0.00118828414 -0.032382369 0.0327160321 0.0106853619 -0.0295262299 0.0327160321 0.0106853619 -0.0295262299 0.0339208879 0.00118828414 -0.032382369 0.0304288603 0.0158646274 -0.0330496617 0.0262548551 0.0235174466 -0.0234230291 0.0304288603 0.0158646274 -0.0330496617 0.0221752413 0.0272848308 -0.0330496803 0.0158963557 0.0328446329 -0.0136475116 0.0221752413 0.0272848308 -0.0330496803 0.0102895778 0.0348528028 -0.0330497101 0.0031985885 0.0372575298 -0.00167127035 0.0102895778 0.0348528028 -0.0330497101 -0.00355004473 0.0375000536 -0.0330496095 -0.00355005148 0.037499994 -0.0144700939 0.0031985885 0.0372575298 -0.00167127035 -0.00355004473 0.0375000536 -0.0330496095 -0.00355005148 0.037499994 -0.0144700939 -0.00355004193 0.0373917893 0.00410337187 0.0031985885 0.0372575298 -0.00167127035 0.0031985885 0.0372575298 -0.00167127035 -0.00355004193 0.0373917893 0.00410337187 0.00590370595 0.0374991149 0.00668635033 0.00893225614 0.0372574739 0.00223116693 0.00590370595 0.0374991149 0.00668635033 0.0108653773 0.0373611897 0.00372648751 0.0119644655 0.0371060856 0.0015290645 0.00893225614 0.0372574739 0.00223116693 0.0108653773 0.0373611897 0.00372648751 0.0119644655 0.0371060856 0.0015290645 0.0194248948 0.0328445956 -0.0112502221 0.00893225614 0.0372574739 0.00223116693 0.0119644655 0.0371060856 0.0015290645 0.0218881425 0.031001294 -0.0141487932 0.0194248948 0.0328445956 -0.0112502221 0.0194248948 0.0328445956 -0.0112502221 0.0218881425 0.031001294 -0.0141487932 0.0266358759 0.0254269615 -0.0206127614 0.0158963557 0.0328446329 -0.0136475116 0.0266358759 0.0254269615 -0.0206127614 0.0262548551 0.0235174466 -0.0234230291 0.0221752413 0.0272848308 -0.0330496803 0.0158963557 0.0328446329 -0.0136475116 0.0262548551 0.0235174466 -0.0234230291 0.0339208879 0.00118828414 -0.032382369 0.0338850692 0.00220456161 -0.0330496281 0.0304288603 0.0158646274 -0.0330496617 0.00590370595 0.0374991149 0.00668635033 0.00835940614 0.0374997482 0.00680205878 0.0108653773 0.0373611897 0.00372648751 0.0108653773 0.0373611897 0.00372648751 0.00835940614 0.0374997482 0.00680205878 0.00956711359 0.0374981314 0.00657209614 0.0105991857 0.0374890342 0.00604265649 0.00956711359 0.0374981314 0.00657209614 0.0101670753 0.0374964327 0.00643055048 0.0105991857 0.0374890342 0.00604265649 0.0101670753 0.0374964327 0.00643055048 0.0105524585 0.0374923013 0.00618868647 0.0101670753 0.0374964327 0.00643055048 0.0104432572 0.037494354 0.00629791152 0.0105524585 0.0374923013 0.00618868647 0.0105991857 0.0374890342 0.00604265649 0.0108653773 0.0373611897 0.00372648751 0.00956711359 0.0374981314 0.00657209614 0.0266358759 0.0254269615 -0.0206127614 0.0307794139 0.0182471871 -0.0258105788 0.0262548551 0.0235174466 -0.0234230291 0.0262548551 0.0235174466 -0.0234230291 0.0307794139 0.0182471871 -0.0258105788 0.0327160321 0.0106853619 -0.0295262299 0.0304288603 0.0158646274 -0.0330496617 0.0262548551 0.0235174466 -0.0234230291 0.0327160321 0.0106853619 -0.0295262299 0.0338373408 -0.00969396997 -0.0292747561 0.0307462774 -0.0183183011 -0.0257712156 0.0311206356 -0.0174815394 -0.0262278933 0.0218028594 -0.0310832541 -0.0140277054 0.0118682403 -0.0371319465 0.00170897588 0.0145598343 -0.0356288552 -0.00500172889 0.0145598343 -0.0356288552 -0.00500172889 0.0118682403 -0.0371319465 0.00170897588 0.00594468368 -0.0374991074 0.00669128355 -0.00310722552 -0.0374056324 0.00429151207 0.0145598343 -0.0356288552 -0.00500172889 0.00594468368 -0.0374991074 0.00669128355 -0.00310722552 -0.0374056324 0.00429151207 -0.00288550975 -0.0374225825 0.00406644028 0.0145598343 -0.0356288552 -0.00500172889 -0.00310722552 -0.0374056324 0.00429151207 -0.00351870293 -0.0374996848 -0.00420161756 -0.00288550975 -0.0374225825 0.00406644028 -0.00288550975 -0.0374225825 0.00406644028 -0.00351870293 -0.0374996848 -0.00420161756 0.0100098718 -0.0356288925 -0.00809486024 0.0145598343 -0.0356288552 -0.00500172889 -0.00288550975 -0.0374225825 0.00406644028 0.0100098718 -0.0356288925 -0.00809486024 0.0103104897 -0.0374955684 0.00637353025 0.0100338431 -0.0374969468 0.00647122227 0.0105459504 -0.0374924541 0.00619804952 0.0104401875 -0.0374943838 0.00630059512 0.0103104897 -0.0374955684 0.00637353025 0.0105459504 -0.0374924541 0.00619804952 0.0100338431 -0.0374969468 0.00647122227 0.00945772976 -0.0374983624 0.00659877574 0.0105459504 -0.0374924541 0.00619804952 0.0105459504 -0.0374924541 0.00619804952 0.00945772976 -0.0374983624 0.00659877574 0.0118682403 -0.0371319465 0.00170897588 0.0118682403 -0.0371319465 0.00170897588 0.00945772976 -0.0374983624 0.00659877574 0.00829722732 -0.0374997184 0.00680607092 0.00594468368 -0.0374991074 0.00669128355 0.0118682403 -0.0371319465 0.00170897588 0.00829722732 -0.0374997184 0.00680607092 -0.00351870293 -0.0374996848 -0.00420161756 -0.00355004845 -0.0374999456 -0.0127056642 0.0100098718 -0.0356288925 -0.00809486024 0.0100098718 -0.0356288925 -0.00809486024 -0.00355004845 -0.0374999456 -0.0127056642 0.00794740301 -0.0356939621 -0.0330493301 0.00915567204 -0.0352819413 -0.0330498926 0.0100098718 -0.0356288925 -0.00809486024 0.00794740301 -0.0356939621 -0.0330493301 0.00915567204 -0.0352819413 -0.0330498926 0.0125075448 -0.0338881053 -0.0330499262 0.0100098718 -0.0356288925 -0.00809486024 -0.00355004845 -0.0374999456 -0.0127056642 -0.00355004612 -0.0375000089 -0.0228776056 0.00794740301 -0.0356939621 -0.0330493301 0.00794740301 -0.0356939621 -0.0330493301 -0.00355004612 -0.0375000089 -0.0228776056 0.00672580488 -0.0360646136 -0.0330498293 0.00672580488 -0.0360646136 -0.0330498293 -0.00355004612 -0.0375000089 -0.0228776056 0.00549230678 -0.0363935009 -0.0330493413 0.00549230678 -0.0363935009 -0.0330493413 -0.00355004612 -0.0375000089 -0.0228776056 0.00434267381 -0.0366599821 -0.0330496207 0.00434267381 -0.0366599821 -0.0330496207 -0.00355004612 -0.0375000089 -0.0228776056 0.00318521843 -0.0368901975 -0.033049725 0.00318521843 -0.0368901975 -0.033049725 -0.00355004612 -0.0375000089 -0.0228776056 0.00202109129 -0.0370838568 -0.0330494978 0.00202109129 -0.0370838568 -0.0330494978 -0.00355004612 -0.0375000089 -0.0228776056 0.000758541573 -0.0372516699 -0.033049684 0.000758541573 -0.0372516699 -0.033049684 -0.00355004612 -0.0375000089 -0.0228776056 -0.00050896348 -0.0373764895 -0.0330495685 -0.00050896348 -0.0373764895 -0.0330495685 -0.00355004612 -0.0375000089 -0.0228776056 -0.00177999167 -0.0374582298 -0.0330497548 -0.00177999167 -0.0374582298 -0.0330497548 -0.00355004612 -0.0375000089 -0.0228776056 -0.00236977334 -0.0374814384 -0.0330499336 -0.00236977334 -0.0374814384 -0.0330499336 -0.00355004612 -0.0375000089 -0.0228776056 -0.0029598251 -0.0374953412 -0.033049833 -0.0029598251 -0.0374953412 -0.033049833 -0.00355004612 -0.0375000089 -0.0228776056 -0.00355006312 -0.0375000313 -0.0330494605 0.00590370595 0.0374991149 0.00668635033 0.00893225614 0.0372574739 0.00223116693 0.0031985885 0.0372575298 -0.00167127035 0.0031985885 0.0372575298 -0.00167127035 0.00893225614 0.0372574739 0.00223116693 0.0194248948 0.0328445956 -0.0112502221 0.0158963557 0.0328446329 -0.0136475116 0.0194248948 0.0328445956 -0.0112502221 0.0266358759 0.0254269615 -0.0206127614 0.0158963557 0.0328446329 -0.0136475116 0.0031985885 0.0372575298 -0.00167127035 0.0194248948 0.0328445956 -0.0112502221 0.0158963557 0.0328446329 -0.0136475116 0.0102895778 0.0348528028 -0.0330497101 0.0031985885 0.0372575298 -0.00167127035 0.0240846854 -0.028668616 -0.0172273051 0.0145598343 -0.0356288552 -0.00500172889 0.0215315726 -0.0286686569 -0.0189645365 0.0333474167 0.0106853433 -0.029065311 0.0327160321 0.0106853619 -0.0295262299 0.0307794139 0.0182471871 -0.0258105788 0.034479633 -0.0036561694 -0.0305035114 0.0348269418 -0.00365615473 -0.0303894691 0.0338373408 -0.00969396997 -0.0292747561 0.0211807042 0.0375000462 0.00695042312 -0.0452000685 0.037500035 0.00695050834 0.0169807002 0.0360000283 0.017450273 0.0169807002 0.0360000283 0.017450273 -0.0452000685 0.037500035 0.00695050834 -0.0452000648 0.0346455164 0.0213011727 0.0121806981 0.0300000254 0.0294501577 -0.0452000648 0.0346455164 0.0213011727 -0.0452000722 0.0265165307 0.0334668681 0.00987932831 0.0246575568 0.0352038518 -0.0452000722 0.0265165307 0.0334668681 -0.0452000797 0.0143506601 0.0415962711 0.00794540625 0.0176470783 0.0400386192 -0.0452000797 0.0143506601 0.0415962711 0.0066422387 0.009230786 0.0432965048 0.00794540625 0.0176470783 0.0400386192 0.00987932831 0.0246575568 0.0352038518 -0.0452000797 0.0143506601 0.0415962711 -0.0452000797 0.0143506601 0.0415962711 -0.0452000797 1.26928397e-08 0.0444506928 0.0066422387 0.009230786 0.0432965048 0.0066422387 0.009230786 0.0432965048 -0.0452000797 1.26928397e-08 0.0444506928 0.0061806892 1.35087044e-08 0.0444503687 0.0061806892 1.35087044e-08 0.0444503687 -0.0452000797 1.26928397e-08 0.0444506928 0.00664223358 -0.00923075713 0.0432964787 0.00664223358 -0.00923075713 0.0432964787 -0.0452000797 1.26928397e-08 0.0444506928 -0.0452000685 -0.014350622 0.0415959433 0.0079453988 -0.0176470634 0.0400386229 -0.0452000685 -0.014350622 0.0415959433 -0.0452000871 -0.0265164953 0.0334669948 0.00987932552 -0.0246575344 0.0352037027 -0.0452000871 -0.0265164953 0.0334669948 0.0121806962 -0.0300000049 0.029450424 0.00987932552 -0.0246575344 0.0352037027 0.0079453988 -0.0176470634 0.0400386229 -0.0452000871 -0.0265164953 0.0334669948 -0.0452000871 -0.0265164953 0.0334669948 -0.0452000573 -0.0346454754 0.0213011336 0.0121806962 -0.0300000049 0.029450424 0.0121806962 -0.0300000049 0.029450424 -0.0452000573 -0.0346454754 0.0213011336 0.0169807021 -0.0360000134 0.0174503271 0.0169807021 -0.0360000134 0.0174503271 -0.0452000573 -0.0346454754 0.0213011336 -0.0452000573 -0.0375000052 0.00695057353 0.0211807005 -0.0374999978 0.0069504031 0.0169807021 -0.0360000134 0.0174503271 -0.0452000573 -0.0375000052 0.00695057353 0.0079453988 -0.0176470634 0.0400386229 0.00664223358 -0.00923075713 0.0432964787 -0.0452000685 -0.014350622 0.0415959433 0.00987932831 0.0246575568 0.0352038518 0.0121806981 0.0300000254 0.0294501577 -0.0452000722 0.0265165307 0.0334668681 0.0121806981 0.0300000254 0.0294501577 0.0169807002 0.0360000283 0.017450273 -0.0452000648 0.0346455164 0.0213011727 -0.00351870293 -0.0374996848 -0.00420161756 -0.00310722552 -0.0374056324 0.00429151207 -0.00355118862 -0.0373990089 0.00419990439 -0.00399288721 -0.0374056026 0.00429158052 -0.00351870293 -0.0374996848 -0.00420161756 -0.00355118862 -0.0373990089 0.00419990439 -0.0170621965 -0.0349810235 -0.0330496095 -0.00355006312 -0.0375000313 -0.0330494605 -0.00406819582 -0.0374963768 -0.0265194885 -0.0173540488 -0.0348458812 -0.0286867302 -0.00406819582 -0.0374963768 -0.0265194885 -0.0173028801 -0.0348458439 -0.0245072134 -0.0284338333 -0.0279320311 -0.0281013492 -0.0173028801 -0.0348458439 -0.0245072134 -0.0283941254 -0.0279320125 -0.0264897365 -0.0363438353 -0.0179663822 -0.0299351625 -0.0283941254 -0.0279320125 -0.0264897365 -0.0368061773 -0.0179663189 -0.0268509053 -0.0407903045 -0.0063142064 -0.030518081 -0.0368061773 -0.0179663189 -0.0268509053 -0.037846379 -0.0183183048 -0.025770992 -0.0409374349 -0.00969396159 -0.0292750169 -0.0407903045 -0.0063142064 -0.030518081 -0.037846379 -0.0183183048 -0.025770992 -0.0409374349 -0.00969396159 -0.0292750169 -0.0423097983 -8.21208232e-05 -0.0305493921 -0.0407903045 -0.0063142064 -0.030518081 -0.0407903045 -0.0063142064 -0.030518081 -0.0423097983 -8.21208232e-05 -0.0305493921 -0.0409039855 0.00561375404 -0.0306231193 -0.0404853411 -0.00631423015 -0.0317602046 -0.0409039855 0.00561375404 -0.0306231193 -0.0406022072 0.00561376708 -0.0318123586 -0.0404880382 -0.00631423108 -0.0320760049 -0.0406022072 0.00561376708 -0.0318123586 -0.0406038985 0.00561378105 -0.0321156532 -0.0405013673 -0.0063142404 -0.0325522237 -0.0406038985 0.00561378105 -0.0321156532 -0.0406157263 0.00561377639 -0.0325726755 -0.0408761911 -0.00360705121 -0.0330498517 -0.0406157263 0.00561377639 -0.0325726755 -0.0396686047 0.0100847417 -0.0330494754 -0.0408761911 -0.00360705121 -0.0330498517 -0.0405013673 -0.0063142404 -0.0325522237 -0.0406157263 0.00561377639 -0.0325726755 -0.0408761911 -0.00360705121 -0.0330498517 -0.0370691903 -0.0168142337 -0.0330496877 -0.0405013673 -0.0063142404 -0.0325522237 -0.0405013673 -0.0063142404 -0.0325522237 -0.0370691903 -0.0168142337 -0.0330496877 -0.0364169851 -0.0179664176 -0.0318494886 -0.0404880382 -0.00631423108 -0.0320760049 -0.0364169851 -0.0179664176 -0.0318494886 -0.036369592 -0.0179663952 -0.0306997169 -0.0404853411 -0.00631423015 -0.0317602046 -0.036369592 -0.0179663952 -0.0306997169 -0.0363438353 -0.0179663822 -0.0299351625 -0.0407903045 -0.0063142064 -0.030518081 -0.0363438353 -0.0179663822 -0.0299351625 -0.0368061773 -0.0179663189 -0.0268509053 -0.0407903045 -0.0063142064 -0.030518081 -0.0404853411 -0.00631423015 -0.0317602046 -0.0363438353 -0.0179663822 -0.0299351625 -0.0407903045 -0.0063142064 -0.030518081 -0.0409039855 0.00561375404 -0.0306231193 -0.0404853411 -0.00631423015 -0.0317602046 -0.00355004845 -0.0374999456 -0.0127056642 -0.00406350615 -0.0374963135 -0.0160972532 -0.00355004612 -0.0375000089 -0.0228776056 -0.00355004845 -0.0374999456 -0.0127056642 -0.00351870293 -0.0374996848 -0.00420161756 -0.00406350615 -0.0374963135 -0.0160972532 -0.00406350615 -0.0374963135 -0.0160972532 -0.00351870293 -0.0374996848 -0.00420161756 -0.00647619413 -0.0374962054 0.000997967669 -0.0188195147 -0.0348457061 -0.0103291254 -0.00647619413 -0.0374962054 0.000997967669 -0.0189683493 -0.0371319503 0.00170922815 -0.0289029628 -0.0310832523 -0.0140279196 -0.0188195147 -0.0348457061 -0.0103291254 -0.0189683493 -0.0371319503 0.00170922815 -0.0289029628 -0.0310832523 -0.0140279196 -0.0292652566 -0.0279319212 -0.0199201144 -0.0188195147 -0.0348457061 -0.0103291254 -0.0289029628 -0.0310832523 -0.0140279196 -0.0336815491 -0.0255038217 -0.0205416121 -0.0292652566 -0.0279319212 -0.0199201144 -0.0292652566 -0.0279319212 -0.0199201144 -0.0336815491 -0.0255038217 -0.0205416121 -0.0368061773 -0.0179663189 -0.0268509053 -0.0283941254 -0.0279320125 -0.0264897365 -0.0292652566 -0.0279319212 -0.0199201144 -0.0368061773 -0.0179663189 -0.0268509053 -0.0283941254 -0.0279320125 -0.0264897365 -0.0172730163 -0.0348458141 -0.021723561 -0.0292652566 -0.0279319212 -0.0199201144 -0.0283941254 -0.0279320125 -0.0264897365 -0.0173028801 -0.0348458439 -0.0245072134 -0.0172730163 -0.0348458141 -0.021723561 -0.0172730163 -0.0348458141 -0.021723561 -0.0173028801 -0.0348458439 -0.0245072134 -0.00406348612 -0.0374963433 -0.0202640072 -0.00406350615 -0.0374963135 -0.0160972532 -0.00406348612 -0.0374963433 -0.0202640072 -0.00355004612 -0.0375000089 -0.0228776056 -0.00406350615 -0.0374963135 -0.0160972532 -0.0172730163 -0.0348458141 -0.021723561 -0.00406348612 -0.0374963433 -0.0202640072 -0.00406350615 -0.0374963135 -0.0160972532 -0.0188195147 -0.0348457061 -0.0103291254 -0.0172730163 -0.0348458141 -0.021723561 -0.00406350615 -0.0374963135 -0.0160972532 -0.00647619413 -0.0374962054 0.000997967669 -0.0188195147 -0.0348457061 -0.0103291254 -0.00351870293 -0.0374996848 -0.00420161756 -0.00399288721 -0.0374056026 0.00429158052 -0.00647619413 -0.0374962054 0.000997967669 -0.00647619413 -0.0374962054 0.000997967669 -0.00399288721 -0.0374056026 0.00429158052 -0.0130447894 -0.0374991 0.00669117598 -0.0174105912 -0.0374955609 0.00637328299 -0.0130447894 -0.0374991 0.00669117598 -0.0165578369 -0.0374983661 0.00659857923 -0.0171339419 -0.0374969356 0.00647107139 -0.0174105912 -0.0374955609 0.00637328299 -0.0165578369 -0.0374983661 0.00659857923 -0.0130447894 -0.0374991 0.00669117598 -0.0153973401 -0.0374997295 0.00680640852 -0.0165578369 -0.0374983661 0.00659857923 -0.0175402984 -0.03749438 0.00630046148 -0.0176460594 -0.0374924578 0.00619806303 -0.0174105912 -0.0374955609 0.00637328299 -0.0174105912 -0.0374955609 0.00637328299 -0.0176460594 -0.0374924578 0.00619806303 -0.0189683493 -0.0371319503 0.00170922815 -0.00647619413 -0.0374962054 0.000997967669 -0.0174105912 -0.0374955609 0.00637328299 -0.0189683493 -0.0371319503 0.00170922815 -0.00647619413 -0.0374962054 0.000997967669 -0.0130447894 -0.0374991 0.00669117598 -0.0174105912 -0.0374955609 0.00637328299 -0.0336815491 -0.0255038217 -0.0205416121 -0.037846379 -0.0183183048 -0.025770992 -0.0368061773 -0.0179663189 -0.0268509053 -0.0423097983 -8.21208232e-05 -0.0305493921 -0.0409559794 0.00962200295 -0.0292945076 -0.0409039855 0.00561375404 -0.0306231193 -0.0409039855 0.00561375404 -0.0306231193 -0.0409559794 0.00962200295 -0.0292945076 -0.0378795266 0.0182472002 -0.0258106869 -0.0371768773 0.0172482878 -0.0271919593 -0.0378795266 0.0182472002 -0.0258106869 -0.0337359719 0.0254269596 -0.0206127092 -0.0298997797 0.0273157395 -0.0205032416 -0.0337359719 0.0254269596 -0.0206127092 -0.0289882384 0.0310012959 -0.0141487038 -0.0196820237 0.0344623104 -0.0111207394 -0.0289882384 0.0310012959 -0.0141487038 -0.0190645643 0.0371060818 0.00152921514 -0.00748435548 0.037465062 7.29407911e-05 -0.0190645643 0.0371060818 0.00152921514 -0.013003815 0.0374990925 0.00668663671 -0.00355004193 0.0373917893 0.00410337187 -0.00748435548 0.037465062 7.29407911e-05 -0.013003815 0.0374990925 0.00668663671 -0.00355004193 0.0373917893 0.00410337187 -0.00355005148 0.037499994 -0.0144700939 -0.00748435548 0.037465062 7.29407911e-05 -0.00748435548 0.037465062 7.29407911e-05 -0.00355005148 0.037499994 -0.0144700939 -0.0051434217 0.0374651887 -0.016556751 -0.0181941651 0.0344624296 -0.0221172385 -0.0051434217 0.0374651887 -0.016556751 -0.0182256121 0.0344624631 -0.0248036925 -0.0291058775 0.0273158476 -0.0283197612 -0.0182256121 0.0344624631 -0.0248036925 -0.0291728992 0.0273158755 -0.030633973 -0.0368011557 0.0172483809 -0.0319151133 -0.0291728992 0.0273158755 -0.030633973 -0.0336086564 0.0224216934 -0.033049617 -0.0396686047 0.0100847417 -0.0330494754 -0.0368011557 0.0172483809 -0.0319151133 -0.0336086564 0.0224216934 -0.033049617 -0.0396686047 0.0100847417 -0.0330494754 -0.0406157263 0.00561377639 -0.0325726755 -0.0368011557 0.0172483809 -0.0319151133 -0.0368011557 0.0172483809 -0.0319151133 -0.0406157263 0.00561377639 -0.0325726755 -0.0367559157 0.017248353 -0.0308275297 -0.0291058775 0.0273158476 -0.0283197612 -0.0367559157 0.017248353 -0.0308275297 -0.029066436 0.0273158327 -0.0267792195 -0.0181941651 0.0344624296 -0.0221172385 -0.029066436 0.0273158327 -0.0267792195 -0.0196820237 0.0344623104 -0.0111207394 -0.00748435548 0.037465062 7.29407911e-05 -0.0196820237 0.0344623104 -0.0111207394 -0.0190645643 0.0371060818 0.00152921514 -0.00748435548 0.037465062 7.29407911e-05 -0.0181941651 0.0344624296 -0.0221172385 -0.0196820237 0.0344623104 -0.0111207394 -0.00748435548 0.037465062 7.29407911e-05 -0.0051434217 0.0374651887 -0.016556751 -0.0181941651 0.0344624296 -0.0221172385 -0.0190645643 0.0371060818 0.00152921514 -0.0179654788 0.0373611972 0.00372649473 -0.013003815 0.0374990925 0.00668663671 -0.013003815 0.0374990925 0.00668663671 -0.0179654788 0.0373611972 0.00372649473 -0.0154595021 0.0374997333 0.00680174725 -0.0154595021 0.0374997333 0.00680174725 -0.0179654788 0.0373611972 0.00372649473 -0.0166672152 0.0374981202 0.00657199603 -0.0166672152 0.0374981202 0.00657199603 -0.0179654788 0.0373611972 0.00372649473 -0.0176992863 0.0374890454 0.0060421899 -0.0176525619 0.0374922939 0.00618848344 -0.0172671732 0.0374964289 0.00643025106 -0.0176992863 0.0374890454 0.0060421899 -0.0176525619 0.0374922939 0.00618848344 -0.017543355 0.037494354 0.00629760884 -0.0172671732 0.0374964289 0.00643025106 -0.0172671732 0.0374964289 0.00643025106 -0.0166672152 0.0374981202 0.00657199603 -0.0176992863 0.0374890454 0.0060421899 -0.00355004473 0.0375000536 -0.0330496095 -0.00515501248 0.037465252 -0.026696533 -0.00355005148 0.037499994 -0.0144700939 -0.00355004473 0.0375000536 -0.0330496095 -0.00414026901 0.037495397 -0.0330493152 -0.00515501248 0.037465252 -0.026696533 -0.00515501248 0.037465252 -0.026696533 -0.00414026901 0.037495397 -0.0330493152 -0.0047303373 0.037481457 -0.033049684 -0.00532012805 0.0374582633 -0.0330496915 -0.00515501248 0.037465252 -0.026696533 -0.0047303373 0.037481457 -0.033049684 -0.00532012805 0.0374582633 -0.0330496915 -0.0065911375 0.0373765193 -0.0330495462 -0.00515501248 0.037465252 -0.026696533 -0.00515501248 0.037465252 -0.026696533 -0.0065911375 0.0373765193 -0.0330495462 -0.00785864238 0.0372517034 -0.033049427 -0.00912119262 0.0370839164 -0.0330496132 -0.00515501248 0.037465252 -0.026696533 -0.00785864238 0.0372517034 -0.033049427 -0.00912119262 0.0370839164 -0.0330496132 -0.0102853049 0.0368902162 -0.0330495089 -0.00515501248 0.037465252 -0.026696533 -0.00515501248 0.037465252 -0.026696533 -0.0102853049 0.0368902162 -0.0330495089 -0.0114427516 0.0366600193 -0.0330498666 -0.0125924191 0.0363935418 -0.033049468 -0.00515501248 0.037465252 -0.026696533 -0.0114427516 0.0366600193 -0.0330498666 -0.0125924191 0.0363935418 -0.033049468 -0.0182792768 0.0344624929 -0.0288381223 -0.00515501248 0.037465252 -0.026696533 -0.0125924191 0.0363935418 -0.033049468 -0.0138259046 0.0360646471 -0.0330494903 -0.0182792768 0.0344624929 -0.0288381223 -0.0182792768 0.0344624929 -0.0288381223 -0.0138259046 0.0360646471 -0.0330494903 -0.0150475008 0.0356939994 -0.0330496877 -0.0162557755 0.0352819785 -0.0330495983 -0.0182792768 0.0344624929 -0.0288381223 -0.0150475008 0.0356939994 -0.0330496877 -0.0162557755 0.0352819785 -0.0330495983 -0.0196076501 0.03388815 -0.0330495127 -0.0182792768 0.0344624929 -0.0288381223 -0.0182792768 0.0344624929 -0.0288381223 -0.0196076501 0.03388815 -0.0330495127 -0.0228090435 0.0321767554 -0.0330497064 -0.0291728992 0.0273158755 -0.030633973 -0.0228090435 0.0321767554 -0.0330497064 -0.025829982 0.0301638395 -0.033049617 -0.0286717936 0.027841527 -0.0330496728 -0.0291728992 0.0273158755 -0.030633973 -0.025829982 0.0301638395 -0.033049617 -0.0286717936 0.027841527 -0.0330496728 -0.0312729888 0.0252525434 -0.0330496132 -0.0291728992 0.0273158755 -0.030633973 -0.0291728992 0.0273158755 -0.030633973 -0.0312729888 0.0252525434 -0.0330496132 -0.0336086564 0.0224216934 -0.033049617 -0.0370691903 -0.0168142337 -0.0330496877 -0.0287590493 -0.0277625117 -0.0330496132 -0.0364169851 -0.0179664176 -0.0318494886 -0.0364169851 -0.0179664176 -0.0318494886 -0.0287590493 -0.0277625117 -0.0330496132 -0.0285011716 -0.0279320683 -0.0305224229 -0.036369592 -0.0179663952 -0.0306997169 -0.0285011716 -0.0279320683 -0.0305224229 -0.0284338333 -0.0279320311 -0.0281013492 -0.0363438353 -0.0179663822 -0.0299351625 -0.0284338333 -0.0279320311 -0.0281013492 -0.0283941254 -0.0279320125 -0.0264897365 -0.0363438353 -0.0179663822 -0.0299351625 -0.036369592 -0.0179663952 -0.0306997169 -0.0284338333 -0.0279320311 -0.0281013492 -0.0287590493 -0.0277625117 -0.0330496132 -0.0170621965 -0.0349810235 -0.0330496095 -0.0285011716 -0.0279320683 -0.0305224229 -0.0285011716 -0.0279320683 -0.0305224229 -0.0170621965 -0.0349810235 -0.0330496095 -0.0173540488 -0.0348458812 -0.0286867302 -0.0284338333 -0.0279320311 -0.0281013492 -0.0173540488 -0.0348458812 -0.0286867302 -0.0173028801 -0.0348458439 -0.0245072134 -0.0284338333 -0.0279320311 -0.0281013492 -0.0285011716 -0.0279320683 -0.0305224229 -0.0173540488 -0.0348458812 -0.0286867302 -0.00406819582 -0.0374963768 -0.0265194885 -0.0173540488 -0.0348458812 -0.0286867302 -0.0170621965 -0.0349810235 -0.0330496095 -0.0364169851 -0.0179664176 -0.0318494886 -0.0285011716 -0.0279320683 -0.0305224229 -0.036369592 -0.0179663952 -0.0306997169 -0.0406038985 0.00561378105 -0.0321156532 -0.0405013673 -0.0063142404 -0.0325522237 -0.0404880382 -0.00631423108 -0.0320760049 -0.0404880382 -0.00631423108 -0.0320760049 -0.0405013673 -0.0063142404 -0.0325522237 -0.0364169851 -0.0179664176 -0.0318494886 -0.0228090435 0.0321767554 -0.0330497064 -0.0291728992 0.0273158755 -0.030633973 -0.0182792768 0.0344624929 -0.0288381223 -0.0182792768 0.0344624929 -0.0288381223 -0.0291728992 0.0273158755 -0.030633973 -0.0182256121 0.0344624631 -0.0248036925 -0.00514610391 0.0374652222 -0.020610353 -0.0182256121 0.0344624631 -0.0248036925 -0.0051434217 0.0374651887 -0.016556751 -0.00355005148 0.037499994 -0.0144700939 -0.00514610391 0.0374652222 -0.020610353 -0.0051434217 0.0374651887 -0.016556751 -0.00355005148 0.037499994 -0.0144700939 -0.00515501248 0.037465252 -0.026696533 -0.00514610391 0.0374652222 -0.020610353 -0.00514610391 0.0374652222 -0.020610353 -0.00515501248 0.037465252 -0.026696533 -0.0182792768 0.0344624929 -0.0288381223 -0.0182256121 0.0344624631 -0.0248036925 -0.00514610391 0.0374652222 -0.020610353 -0.0182792768 0.0344624929 -0.0288381223 -0.0367559157 0.017248353 -0.0308275297 -0.0291058775 0.0273158476 -0.0283197612 -0.0368011557 0.0172483809 -0.0319151133 -0.0368011557 0.0172483809 -0.0319151133 -0.0291058775 0.0273158476 -0.0283197612 -0.0291728992 0.0273158755 -0.030633973 -0.00355004612 -0.0375000089 -0.0228776056 -0.00406348612 -0.0374963433 -0.0202640072 -0.00406819582 -0.0374963768 -0.0265194885 -0.00355006312 -0.0375000313 -0.0330494605 -0.00355004612 -0.0375000089 -0.0228776056 -0.00406819582 -0.0374963768 -0.0265194885 -0.0406022072 0.00561376708 -0.0318123586 -0.0404880382 -0.00631423108 -0.0320760049 -0.0404853411 -0.00631423015 -0.0317602046 -0.0404853411 -0.00631423015 -0.0317602046 -0.0404880382 -0.00631423108 -0.0320760049 -0.036369592 -0.0179663952 -0.0306997169 -0.0406157263 0.00561377639 -0.0325726755 -0.0406038985 0.00561378105 -0.0321156532 -0.0367559157 0.017248353 -0.0308275297 -0.0367559157 0.017248353 -0.0308275297 -0.0406038985 0.00561378105 -0.0321156532 -0.0367316417 0.0172483437 -0.0301046614 -0.029066436 0.0273158327 -0.0267792195 -0.0367316417 0.0172483437 -0.0301046614 -0.0298997797 0.0273157395 -0.0205032416 -0.0196820237 0.0344623104 -0.0111207394 -0.0298997797 0.0273157395 -0.0205032416 -0.0289882384 0.0310012959 -0.0141487038 -0.0196820237 0.0344623104 -0.0111207394 -0.029066436 0.0273158327 -0.0267792195 -0.0298997797 0.0273157395 -0.0205032416 -0.029066436 0.0273158327 -0.0267792195 -0.0181941651 0.0344624296 -0.0221172385 -0.0291058775 0.0273158476 -0.0283197612 -0.0291058775 0.0273158476 -0.0283197612 -0.0181941651 0.0344624296 -0.0221172385 -0.0182256121 0.0344624631 -0.0248036925 -0.00406819582 -0.0374963768 -0.0265194885 -0.00406348612 -0.0374963433 -0.0202640072 -0.0173028801 -0.0348458439 -0.0245072134 -0.0188195147 -0.0348457061 -0.0103291254 -0.0292652566 -0.0279319212 -0.0199201144 -0.0172730163 -0.0348458141 -0.021723561 -0.0409039855 0.00561375404 -0.0306231193 -0.0371768773 0.0172482878 -0.0271919593 -0.0406022072 0.00561376708 -0.0318123586 -0.0409039855 0.00561375404 -0.0306231193 -0.0378795266 0.0182472002 -0.0258106869 -0.0371768773 0.0172482878 -0.0271919593 -0.0406022072 0.00561376708 -0.0318123586 -0.0371768773 0.0172482878 -0.0271919593 -0.0367316417 0.0172483437 -0.0301046614 -0.0406038985 0.00561378105 -0.0321156532 -0.0406022072 0.00561376708 -0.0318123586 -0.0367316417 0.0172483437 -0.0301046614 -0.0367316417 0.0172483437 -0.0301046614 -0.0371768773 0.0172482878 -0.0271919593 -0.0298997797 0.0273157395 -0.0205032416 -0.0298997797 0.0273157395 -0.0205032416 -0.0371768773 0.0172482878 -0.0271919593 -0.0337359719 0.0254269596 -0.0206127092 -0.0367316417 0.0172483437 -0.0301046614 -0.029066436 0.0273158327 -0.0267792195 -0.0367559157 0.017248353 -0.0308275297 0.0338174365 -0.00314998487 -0.0382997431 0.0338174328 0.00315001537 -0.0382995494 0.0338174328 -0.00314999092 -0.0352997594 0.0338174328 0.00315001537 -0.0382995494 0.0338174365 0.00315001723 -0.0352996849 0.0338174328 -0.00314999092 -0.0352997594 0.0338174365 0.00315001723 -0.0352996849 0.0338373892 0.00290350546 -0.0340780057 0.0338174328 -0.00314999092 -0.0352997594 0.0338373892 0.00290350546 -0.0340780057 0.0338850692 0.00220456161 -0.0330496281 0.0338174328 -0.00314999092 -0.0352997594 0.0338850692 0.00220456161 -0.0330496281 0.0339208879 0.00118828414 -0.032382369 0.0338174328 -0.00314999092 -0.0352997594 0.0339208879 0.00118828414 -0.032382369 0.0339395106 -1.09540917e-06 -0.0321496241 0.0338174328 -0.00314999092 -0.0352997594 0.0339395106 -1.09540917e-06 -0.0321496241 0.0339208208 -0.00119079079 -0.0323832966 0.0338174328 -0.00314999092 -0.0352997594 0.0339208208 -0.00119079079 -0.0323832966 0.0338850692 -0.00220452668 -0.0330494046 0.0338174328 -0.00314999092 -0.0352997594 0.0338850692 -0.00220452668 -0.0330494046 0.0338373408 -0.00290413341 -0.0340794884 0.0338174328 -0.00314999092 -0.0352997594 </float_array>
          <technique_common>
            <accessor count="1275" offset="0" source="#mesh_0-positions-array" stride="3">
              <param name="X" type="float" />
              <param name="Y" type="float" />
              <param name="Z" type="float" />
            </accessor>
          </technique_common>
        </source>
        <vertices id="mesh_0-vertices">
          <input semantic="POSITION" source="#mesh_0-positions" />
        </vertices>
        <polylist count="425" material="defaultMaterial">
          <input offset="0" semantic="VERTEX" source="#mesh_0-vertices" />
          <vcount>3 3 3 3 3 3 3 3 3 3 3 3 3 3 3 3 3 3 3 3 3 3 3 3 3 3 3 3 3 3 3 3 3 3 3 3 3 3 3 3 3 3 3 3 3 3 3 3 3 3 3 3 3 3 3 3 3 3 3 3 3 3 3 3 3 3 3 3 3 3 3 3 3 3 3 3 3 3 3 3 3 3 3 3 3 3 3 3 3 3 3 3 3 3 3 3 3 3 3 3 3 3 3 3 3 3 3 3 3 3 3 3 3 3 3 3 3 3 3 3 3 3 3 3 3 3 3 3 3 3 3 3 3 3 3 3 3 3 3 3 3 3 3 3 3 3 3 3 3 3 3 3 3 3 3 3 3 3 3 3 3 3 3 3 3 3 3 3 3 3 3 3 3 3 3 3 3 3 3 3 3 3 3 3 3 3 3 3 3 3 3 3 3 3 3 3 3 3 3 3 3 3 3 3 3 3 3 3 3 3 3 3 3 3 3 3 3 3 3 3 3 3 3 3 3 3 3 3 3 3 3 3 3 3 3 3 3 3 3 3 3 3 3 3 3 3 3 3 3 3 3 3 3 3 3 3 3 3 3 3 3 3 3 3 3 3 3 3 3 3 3 3 3 3 3 3 3 3 3 3 3 3 3 3 3 3 3 3 3 3 3 3 3 3 3 3 3 3 3 3 3 3 3 3 3 3 3 3 3 3 3 3 3 3 3 3 3 3 3 3 3 3 3 3 3 3 3 3 3 3 3 3 3 3 3 3 3 3 3 3 3 3 3 3 3 3 3 3 3 3 3 3 3 3 3 3 3 3 3 3 3 3 3 3 3 3 3 3 3 3 3 3 3 3 3 3 3 3 3 3 3 3 3 3 3 3 3 3 3 3 3 3 3 3 3 3 3 3 3 3 3 3 3 3 3 3 3 3 3 3 3 3 3 3 3 3 3 3 3 3 3 3 3 3 3 </vcount>
          <p>0 1 2 3 4 5 6 7 8 9 10 11 12 13 14 15 16 17 18 19 20 21 22 23 24 25 26 27 28 29 30 31 32 33 34 35 36 37 38 39 40 41 42 43 44 45 46 47 48 49 50 51 52 53 54 55 56 57 58 59 60 61 62 63 64 65 66 67 68 69 70 71 72 73 74 75 76 77 78 79 80 81 82 83 84 85 86 87 88 89 90 91 92 93 94 95 96 97 98 99 100 101 102 103 104 105 106 107 108 109 110 111 112 113 114 115 116 117 118 119 120 121 122 123 124 125 126 127 128 129 130 131 132 133 134 135 136 137 138 139 140 141 142 143 144 145 146 147 148 149 150 151 152 153 154 155 156 157 158 159 160 161 162 163 164 165 166 167 168 169 170 171 172 173 174 175 176 177 178 179 180 181 182 183 184 185 186 187 188 189 190 191 192 193 194 195 196 197 198 199 200 201 202 203 204 205 206 207 208 209 210 211 212 213 214 215 216 217 218 219 220 221 222 223 224 225 226 227 228 229 230 231 232 233 234 235 236 237 238 239 240 241 242 243 244 245 246 247 248 249 250 251 252 253 254 255 256 257 258 259 260 261 262 263 264 265 266 267 268 269 270 271 272 273 274 275 276 277 278 279 280 281 282 283 284 285 286 287 288 289 290 291 292 293 294 295 296 297 298 299 300 301 302 303 304 305 306 307 308 309 310 311 312 313 314 315 316 317 318 319 320 321 322 323 324 325 326 327 328 329 330 331 332 333 334 335 336 337 338 339 340 341 342 343 344 345 346 347 348 349 350 351 352 353 354 355 356 357 358 359 360 361 362 363 364 365 366 367 368 369 370 371 372 373 374 375 376 377 378 379 380 381 382 383 384 385 386 387 388 389 390 391 392 393 394 395 396 397 398 399 400 401 402 403 404 405 406 407 408 409 410 411 412 413 414 415 416 417 418 419 420 421 422 423 424 425 426 427 428 429 430 431 432 433 434 435 436 437 438 439 440 441 442 443 444 445 446 447 448 449 450 451 452 453 454 455 456 457 458 459 460 461 462 463 464 465 466 467 468 469 470 471 472 473 474 475 476 477 478 479 480 481 482 483 484 485 486 487 488 489 490 491 492 493 494 495 496 497 498 499 500 501 502 503 504 505 506 507 508 509 510 511 512 513 514 515 516 517 518 519 520 521 522 523 524 525 526 527 528 529 530 531 532 533 534 535 536 537 538 539 540 541 542 543 544 545 546 547 548 549 550 551 552 553 554 555 556 557 558 559 560 561 562 563 564 565 566 567 568 569 570 571 572 573 574 575 576 577 578 579 580 581 582 583 584 585 586 587 588 589 590 591 592 593 594 595 596 597 598 599 600 601 602 603 604 605 606 607 608 609 610 611 612 613 614 615 616 617 618 619 620 621 622 623 624 625 626 627 628 629 630 631 632 633 634 635 636 637 638 639 640 641 642 643 644 645 646 647 648 649 650 651 652 653 654 655 656 657 658 659 660 661 662 663 664 665 666 667 668 669 670 671 672 673 674 675 676 677 678 679 680 681 682 683 684 685 686 687 688 689 690 691 692 693 694 695 696 697 698 699 700 701 702 703 704 705 706 707 708 709 710 711 712 713 714 715 716 717 718 719 720 721 722 723 724 725 726 727 728 729 730 731 732 733 734 735 736 737 738 739 740 741 742 743 744 745 746 747 748 749 750 751 752 753 754 755 756 757 758 759 760 761 762 763 764 765 766 767 768 769 770 771 772 773 774 775 776 777 778 779 780 781 782 783 784 785 786 787 788 789 790 791 792 793 794 795 796 797 798 799 800 801 802 803 804 805 806 807 808 809 810 811 812 813 814 815 816 817 818 819 820 821 822 823 824 825 826 827 828 829 830 831 832 833 834 835 836 837 838 839 840 841 842 843 844 845 846 847 848 849 850 851 852 853 854 855 856 857 858 859 860 861 862 863 864 865 866 867 868 869 870 871 872 873 874 875 876 877 878 879 880 881 882 883 884 885 886 887 888 889 890 891 892 893 894 895 896 897 898 899 900 901 902 903 904 905 906 907 908 909 910 911 912 913 914 915 916 917 918 919 920 921 922 923 924 925 926 927 928 929 930 931 932 933 934 935 936 937 938 939 940 941 942 943 944 945 946 947 948 949 950 951 952 953 954 955 956 957 958 959 960 961 962 963 964 965 966 967 968 969 970 971 972 973 974 975 976 977 978 979 980 981 982 983 984 985 986 987 988 989 990 991 992 993 994 995 996 997 998 999 1000 1001 1002 1003 1004 1005 1006 1007 1008 1009 1010 1011 1012 1013 1014 1015 1016 1017 1018 1019 1020 1021 1022 1023 1024 1025 1026 1027 1028 1029 1030 1031 1032 1033 1034 1035 1036 1037 1038 1039 1040 1041 1042 1043 1044 1045 1046 1047 1048 1049 1050 1051 1052 1053 1054 1055 1056 1057 1058 1059 1060 1061 1062 1063 1064 1065 1066 1067 1068 1069 1070 1071 1072 1073 1074 1075 1076 1077 1078 1079 1080 1081 1082 1083 1084 1085 1086 1087 1088 1089 1090 1091 1092 1093 1094 1095 1096 1097 1098 1099 1100 1101 1102 1103 1104 1105 1106 1107 1108 1109 1110 1111 1112 1113 1114 1115 1116 1117 1118 1119 1120 1121 1122 1123 1124 1125 1126 1127 1128 1129 1130 1131 1132 1133 1134 1135 1136 1137 1138 1139 1140 1141 1142 1143 1144 1145 1146 1147 1148 1149 1150 1151 1152 1153 1154 1155 1156 1157 1158 1159 1160 1161 1162 1163 1164 1165 1166 1167 1168 1169 1170 1171 1172 1173 1174 1175 1176 1177 1178 1179 1180 1181 1182 1183 1184 1185 1186 1187 1188 1189 1190 1191 1192 1193 1194 1195 1196 1197 1198 1199 1200 1201 1202 1203 1204 1205 1206 1207 1208 1209 1210 1211 1212 1213 1214 1215 1216 1217 1218 1219 1220 1221 1222 1223 1224 1225 1226 1227 1228 1229 1230 1231 1232 1233 1234 1235 1236 1237 1238 1239 1240 1241 1242 1243 1244 1245 1246 1247 1248 1249 1250 1251 1252 1253 1254 1255 1256 1257 1258 1259 1260 1261 1262 1263 1264 1265 1266 1267 1268 1269 1270 1271 1272 1273 1274 </p>
        </polylist>
      </mesh>
    </geometry>
  </library_geometries>
  <library_controllers>
  </library_controllers>
  <library_visual_scenes>
    <visual_scene id="Scene" name="Scene">
      <node id="node" name="" type="NODE">
        <matrix sid="matrix">1 0 0 0 0 1 0 0 0 0 1 0 0 0 0 1</matrix>
        <instance_geometry url="#mesh_0">
          <bind_material>
            <technique_common>
              <instance_material symbol="defaultMaterial" target="#material_0">
              </instance_material>
            </technique_common>
          </bind_material>
        </instance_geometry>
      </node>
    </visual_scene>
  </library_visual_scenes>
  <scene>
    <instance_visual_scene url="#Scene" />
  </scene>
</COLLADA>
