<?xml version="1.0" encoding="UTF-8" standalone="no" ?>
<COLLADA xmlns="http://www.collada.org/2005/11/COLLADASchema" version="1.4.1">
  <asset>
    <contributor>
      <author>Assimp</author>
      <authoring_tool>Assimp Exporter</authoring_tool>
    </contributor>
    <created>2025-11-12T11:09:31</created>
    <modified>2025-11-12T11:09:31</modified>
    <unit name="meter" meter="1" />
    <up_axis>Y_UP</up_axis>
  </asset>
  <library_images>
  </library_images>
  <library_effects>
    <effect id="material_0-fx" name="">
      <profile_COMMON>
        <technique sid="standard">
          <phong>
            <emission>
              <color sid="emission">0   0   0   4.28026616e-41</color>
            </emission>
            <ambient>
              <color sid="ambient">0.719165564   0.882352889   0.352941155   4.28026616e-41</color>
            </ambient>
            <diffuse>
              <color sid="diffuse">0.719165564   0.882352889   0.352941155   4.28026616e-41</color>
            </diffuse>
            <specular>
              <color sid="specular">0.529999971   0.529999971   0.529999971   4.28026616e-41</color>
            </specular>
          </phong>
        </technique>
      </profile_COMMON>
    </effect>
  </library_effects>
  <library_materials>
    <material id="material_0" name="">
      <instance_effect url="#material_0-fx"/>
    </material>
  </library_materials>
  <library_geometries>
    <geometry id="mesh_0" name="" >
      <mesh>
        <source id="mesh_0-positions" name="mesh_0-positions">
          <float_array id="mesh_0-positions-array" count="1026"> 0.0462300479 0.0375452265 0.00750130368 0.0462300479 4.52542299e-05 0.0450011492 0.0462300591 -0.0374547653 0.00750112534 0.0462300479 4.52542299e-05 0.0450011492 0.0462300442 -0.0264712162 0.0340171456 0.0462300591 -0.0374547653 0.00750112534 0.00812508073 0.0356741585 -0.00605893135 0.0189947635 0.0287139378 -0.0175806303 -0.00414133817 0.0374402925 0.00664085196 0.046230033 0.0265617296 -0.0190154333 0.0462300479 0.0375452265 0.00750130368 0.0462300368 4.52655877e-05 -0.0299993157 0.0462300442 -0.0264712162 0.0340171456 0.0462300368 -0.0346002579 0.02185148 0.0462300591 -0.0374547653 0.00750112534 0.0462300405 -0.0143053429 -0.0271446109 0.0462300479 0.0375452265 0.00750130368 0.0462300591 -0.0374547653 0.00750112534 0.0462300479 0.0375452265 0.00750130368 0.0462300405 -0.0143053429 -0.0271446109 0.0462300368 4.52655877e-05 -0.0299993157 0.0189947635 0.0287139378 -0.0175806303 0.0305887982 0.00366939534 -0.0301629882 -0.00414133817 0.0374402925 0.00664085196 -0.000967748754 0.0375414453 0.010427176 0.0330691561 0.0375963151 0.00720322086 -0.00414133817 0.0374402925 0.00664085196 -4.27062623e-05 -0.0374197997 0.011435329 -0.000967748754 0.0375414453 0.010427176 -0.00414133817 0.0374402925 0.00664085196 -0.000967748754 0.0375414453 0.010427176 0.0462300479 0.0375452265 0.00750130368 0.0330691561 0.0375963151 0.00720322086 0.0462300479 0.0375452265 0.00750130368 0.0462300442 0.0346906967 0.0218518376 0.0462300479 4.52542299e-05 0.0450011492 0.0462300442 0.0346906967 0.0218518376 0.0103593543 0.0348910019 0.0227704644 0.0199503377 0.0279771723 0.033216238 0.0462300293 0.0265617501 0.0340173841 0.0462300442 0.0346906967 0.0218518376 0.0199503377 0.0279771723 0.033216238 0.00812508073 0.0356741585 -0.00605893135 0.0332673118 0.0313461572 -0.0132235279 0.0189947635 0.0287139378 -0.0175806303 0.0332673118 0.0313461572 -0.0132235279 0.046230033 0.0265617296 -0.0190154333 0.0189947635 0.0287139378 -0.0175806303 0.0334126726 -0.0360190719 0.0180848837 -4.27062623e-05 -0.0374197997 0.011435329 0.0462300591 -0.0374547653 0.00750112534 0.0462300368 -0.0346002579 0.02185148 0.0334126726 -0.0360190719 0.0180848837 0.0462300591 -0.0374547653 0.00750112534 0.0016403792 -0.0372201279 0.000772655301 -4.27062623e-05 -0.0374197997 0.011435329 -0.00414133817 0.0374402925 0.00664085196 0.0016403792 -0.0372201279 0.000772655301 0.0462300405 -0.0346003026 -0.00684952782 0.0462300591 -0.0374547653 0.00750112534 0.0305887982 0.00366939534 -0.0301629882 0.0383300036 0.00329811149 -0.0298359394 0.0462300368 4.52655877e-05 -0.0299993157 0.0270189717 0.0175268408 -0.0260797143 0.0305887982 0.00366939534 -0.0301629882 0.0189947635 0.0287139378 -0.0175806303 0.0136777461 -0.0327993631 -0.0119453669 0.0292672813 -0.0105801327 -0.0288725495 0.023453258 -0.0234721676 -0.0223038793 0.0016403792 -0.0372201279 0.000772655301 0.0292672813 -0.0105801327 -0.0288725495 0.0136777461 -0.0327993631 -0.0119453669 0.0305887982 0.00366939534 -0.0301629882 0.0292672813 -0.0105801327 -0.0288725495 -0.00414133817 0.0374402925 0.00664085196 0.0292672813 -0.0105801327 -0.0288725495 0.0016403792 -0.0372201279 0.000772655301 -0.00414133817 0.0374402925 0.00664085196 0.0300590321 0.00725651393 0.0445930362 0.0330800787 0.00365234585 0.0448271632 0.0462300479 4.52542299e-05 0.0450011492 0.0330800787 0.00365234585 0.0448271632 0.0383297801 4.526474e-05 0.04500103 0.0462300479 4.52542299e-05 0.0450011492 0.0333641917 -0.0311307851 0.0283711553 0.0462300368 -0.0346002579 0.02185148 0.0462300442 -0.0264712162 0.0340171456 0.0462300442 0.0346906967 0.0218518376 0.0462300442 0.0143958135 0.0421466231 0.0462300479 4.52542299e-05 0.0450011492 0.0462300442 0.0143958135 0.0421466231 0.0462300442 0.0346906967 0.0218518376 0.0462300293 0.0265617501 0.0340173841 0.0462300442 0.0143958135 0.0421466231 0.0300590321 0.00725651393 0.0445930362 0.0462300479 4.52542299e-05 0.0450011492 0.0462300442 0.0143958135 0.0421466231 0.0383297876 0.0143958963 0.0421465039 0.0300590321 0.00725651393 0.0445930362 -0.000967748754 0.0375414453 0.010427176 0.038329795 0.0348596461 0.0215134025 0.0462300479 0.0375452265 0.00750130368 0.038329795 0.0348596461 0.0215134025 0.0462300442 0.0346906967 0.0218518376 0.0462300479 0.0375452265 0.00750130368 0.038329795 0.0348596461 0.0215134025 -0.000967748754 0.0375414453 0.010427176 0.0103593543 0.0348910019 0.0227704644 0.0462300442 0.0346906967 0.0218518376 0.038329795 0.0348596461 0.0215134025 0.0103593543 0.0348910019 0.0227704644 -4.27062623e-05 -0.0374197997 0.011435329 0.0331822038 -0.0375248753 0.00793087389 0.0462300591 -0.0374547653 0.00750112534 0.0331822038 -0.0375248753 0.00793087389 0.0016403792 -0.0372201279 0.000772655301 0.0462300591 -0.0374547653 0.00750112534 0.0016403792 -0.0372201279 0.000772655301 0.0331822038 -0.0375248753 0.00793087389 -4.27062623e-05 -0.0374197997 0.011435329 0.0462300405 -0.0264713317 -0.0190152526 0.0462300405 -0.0346003026 -0.00684952782 0.0136777461 -0.0327993631 -0.0119453669 0.0462300405 -0.0264713317 -0.0190152526 0.0462300405 -0.0143053429 -0.0271446109 0.0462300591 -0.0374547653 0.00750112534 0.0462300405 -0.0346003026 -0.00684952782 0.0462300405 -0.0264713317 -0.0190152526 0.0462300591 -0.0374547653 0.00750112534 0.0383297801 -0.0348942913 -0.00611811969 0.0016403792 -0.0372201279 0.000772655301 0.0136777461 -0.0327993631 -0.0119453669 0.0462300405 -0.0346003026 -0.00684952782 0.0383297801 -0.0348942913 -0.00611811969 0.0136777461 -0.0327993631 -0.0119453669 0.0383297801 -0.0348942913 -0.00611811969 0.0462300405 -0.0346003026 -0.00684952782 0.0016403792 -0.0372201279 0.000772655301 0.046230033 0.0265617296 -0.0190154333 0.0332620367 0.0236704536 -0.0216730814 0.0189947635 0.0287139378 -0.0175806303 0.0332620367 0.0236704536 -0.0216730814 0.0270189717 0.0175268408 -0.0260797143 0.0189947635 0.0287139378 -0.0175806303 0.0462300219 0.014395819 -0.0271441359 0.046230033 0.0265617296 -0.0190154333 0.0462300368 4.52655877e-05 -0.0299993157 0.0383300036 0.00329811149 -0.0298359394 0.0462300219 0.014395819 -0.0271441359 0.0462300368 4.52655877e-05 -0.0299993157 0.0462300219 0.014395819 -0.0271441359 0.0383300036 0.00329811149 -0.0298359394 0.0305887982 0.00366939534 -0.0301629882 0.0323115066 -0.00205720263 -0.0299271345 0.0305887982 0.00366939534 -0.0301629882 0.0462300368 4.52655877e-05 -0.0299993157 0.0323115066 -0.00205720263 -0.0299271345 0.0292672813 -0.0105801327 -0.0288725495 0.0305887982 0.00366939534 -0.0301629882 0.0292672813 -0.0105801327 -0.0288725495 0.0330798849 -0.0158193596 -0.0264778733 0.023453258 -0.0234721676 -0.0223038793 0.0330798849 -0.0158193596 -0.0264778733 0.0292672813 -0.0105801327 -0.0288725495 0.0462300405 -0.0143053429 -0.0271446109 0.026228711 -0.0177193712 0.0412595868 -0.000967748754 0.0375414453 0.010427176 -4.27062623e-05 -0.0374197997 0.011435329 -0.000967748754 0.0375414453 0.010427176 0.026228711 -0.0177193712 0.0412595868 0.0103593543 0.0348910019 0.0227704644 0.0103593543 0.0348910019 0.0227704644 0.026228711 -0.0177193712 0.0412595868 0.0199503377 0.0279771723 0.033216238 0.026228711 -0.0177193712 0.0412595868 0.0300590321 0.00725651393 0.0445930362 0.0199503377 0.0279771723 0.033216238 0.0462300442 0.0143958135 0.0421466231 0.026881136 0.0180115867 0.0407571197 0.0383297876 0.0143958963 0.0421465039 0.0300590321 0.00725651393 0.0445930362 0.026881136 0.0180115867 0.0407571197 0.0199503377 0.0279771723 0.033216238 0.0383297876 0.0143958963 0.0421465039 0.026881136 0.0180115867 0.0407571197 0.0300590321 0.00725651393 0.0445930362 0.026881136 0.0180115867 0.0407571197 0.0462300293 0.0265617501 0.0340173841 0.0199503377 0.0279771723 0.033216238 0.026881136 0.0180115867 0.0407571197 0.0462300442 0.0143958135 0.0421466231 0.0462300293 0.0265617501 0.0340173841 0.0330792889 0.0370734371 0.00141698227 0.0330425203 0.0355777889 -0.00490140915 0.00812508073 0.0356741585 -0.00605893135 0.0462300479 0.0375452265 0.00750130368 0.0330792889 0.0370734371 0.00141698227 0.0330691561 0.0375963151 0.00720322086 0.0330691561 0.0375963151 0.00720322086 0.0330792889 0.0370734371 0.00141698227 -0.00414133817 0.0374402925 0.00664085196 0.0330792889 0.0370734371 0.00141698227 0.00812508073 0.0356741585 -0.00605893135 -0.00414133817 0.0374402925 0.00664085196 0.0332673118 0.0313461572 -0.0132235279 0.0462300181 0.0346907079 -0.0068495865 0.046230033 0.0265617296 -0.0190154333 0.046230033 0.0265617296 -0.0190154333 0.0462300181 0.0346907079 -0.0068495865 0.0462300479 0.0375452265 0.00750130368 0.0462300181 0.0346907079 -0.0068495865 0.0332673118 0.0313461572 -0.0132235279 0.00812508073 0.0356741585 -0.00605893135 0.0330425203 0.0355777889 -0.00490140915 0.0462300181 0.0346907079 -0.0068495865 0.00812508073 0.0356741585 -0.00605893135 0.0462300181 0.0346907079 -0.0068495865 0.0330792889 0.0370734371 0.00141698227 0.0462300479 0.0375452265 0.00750130368 0.0330792889 0.0370734371 0.00141698227 0.0462300181 0.0346907079 -0.0068495865 0.0330425203 0.0355777889 -0.00490140915 0.0462300405 -0.0264713317 -0.0190152526 0.0383298695 -0.027562499 -0.0178773999 0.023453258 -0.0234721676 -0.0223038793 0.0383298695 -0.027562499 -0.0178773999 0.0462300405 -0.0264713317 -0.0190152526 0.0136777461 -0.0327993631 -0.0119453669 0.0332620367 0.0236704536 -0.0216730814 0.0383299664 0.0165511407 -0.0261710286 0.0270189717 0.0175268408 -0.0260797143 0.0383299664 0.0165511407 -0.0261710286 0.0462300219 0.014395819 -0.0271441359 0.0270189717 0.0175268408 -0.0260797143 0.0383299664 0.0165511407 -0.0261710286 0.0332620367 0.0236704536 -0.0216730814 0.046230033 0.0265617296 -0.0190154333 0.0462300219 0.014395819 -0.0271441359 0.0383299664 0.0165511407 -0.0261710286 0.046230033 0.0265617296 -0.0190154333 0.0270189717 0.0175268408 -0.0260797143 0.0332615897 0.0109330118 -0.0284075122 0.0305887982 0.00366939534 -0.0301629882 0.0332615897 0.0109330118 -0.0284075122 0.0462300219 0.014395819 -0.0271441359 0.0305887982 0.00366939534 -0.0301629882 0.0462300219 0.014395819 -0.0271441359 0.0332615897 0.0109330118 -0.0284075122 0.0270189717 0.0175268408 -0.0260797143 0.0383297727 -0.00310475007 -0.029866457 0.0323115066 -0.00205720263 -0.0299271345 0.0462300368 4.52655877e-05 -0.0299993157 0.0323115066 -0.00205720263 -0.0299271345 0.0383297727 -0.00310475007 -0.029866457 0.0292672813 -0.0105801327 -0.0288725495 0.0462300405 -0.0143053429 -0.0271446109 0.0383297727 -0.00310475007 -0.029866457 0.0462300368 4.52655877e-05 -0.0299993157 0.0292672813 -0.0105801327 -0.0288725495 0.0383297727 -0.00310475007 -0.029866457 0.0462300405 -0.0143053429 -0.0271446109 0.0330798849 -0.0158193596 -0.0264778733 0.0383298844 -0.0164606441 -0.0261710305 0.023453258 -0.0234721676 -0.0223038793 0.0383298844 -0.0164606441 -0.0261710305 0.0330798849 -0.0158193596 -0.0264778733 0.0462300405 -0.0143053429 -0.0271446109 0.0383298844 -0.0164606441 -0.0261710305 0.0462300405 -0.0264713317 -0.0190152526 0.023453258 -0.0234721676 -0.0223038793 0.0462300405 -0.0264713317 -0.0190152526 0.0383298844 -0.0164606441 -0.0261710305 0.0462300405 -0.0143053429 -0.0271446109 0.0330800787 0.00365234585 0.0448271632 0.0306533501 -0.00556846661 0.044854939 0.0383297801 4.526474e-05 0.04500103 0.0383297801 4.526474e-05 0.04500103 0.0306533501 -0.00556846661 0.044854939 0.0462300479 4.52542299e-05 0.0450011492 0.0306533501 -0.00556846661 0.044854939 0.0330800787 0.00365234585 0.0448271632 0.0300590321 0.00725651393 0.0445930362 0.026228711 -0.0177193712 0.0412595868 0.0306533501 -0.00556846661 0.044854939 0.0300590321 0.00725651393 0.0445930362 0.0205334723 -0.0272704568 0.0338507295 0.0333641917 -0.0311307851 0.0283711553 0.0462300442 -0.0264712162 0.0340171456 0.0330799147 -0.0272395276 -0.018224299 0.0136777461 -0.0327993631 -0.0119453669 0.023453258 -0.0234721676 -0.0223038793 0.0383298695 -0.027562499 -0.0178773999 0.0330799147 -0.0272395276 -0.018224299 0.023453258 -0.0234721676 -0.0223038793 0.0330799147 -0.0272395276 -0.018224299 0.0383298695 -0.027562499 -0.0178773999 0.0136777461 -0.0327993631 -0.0119453669 0.0306533501 -0.00556846661 0.044854939 0.0462300256 -0.0143054472 0.0421467423 0.0462300479 4.52542299e-05 0.0450011492 0.0462300256 -0.0143054472 0.0421467423 0.0462300442 -0.0264712162 0.0340171456 0.0462300479 4.52542299e-05 0.0450011492 0.0462300256 -0.0143054472 0.0421467423 0.026228711 -0.0177193712 0.0412595868 0.0462300442 -0.0264712162 0.0340171456 0.026228711 -0.0177193712 0.0412595868 0.0329096243 -0.022901576 0.0371280909 0.0462300442 -0.0264712162 0.0340171456 0.0329096243 -0.022901576 0.0371280909 0.0205334723 -0.0272704568 0.0338507295 0.0462300442 -0.0264712162 0.0340171456 0.0205334723 -0.0272704568 0.0338507295 0.0329096243 -0.022901576 0.0371280909 0.026228711 -0.0177193712 0.0412595868 0.0111509636 -0.0344170406 0.0236330014 0.026228711 -0.0177193712 0.0412595868 -4.27062623e-05 -0.0374197997 0.011435329 0.0111509636 -0.0344170406 0.0236330014 0.0205334723 -0.0272704568 0.0338507295 0.026228711 -0.0177193712 0.0412595868 0.0205334723 -0.0272704568 0.0338507295 0.0111509636 -0.0344170406 0.0236330014 0.0333641917 -0.0311307851 0.0283711553 0.0334126726 -0.0360190719 0.0180848837 0.0111509636 -0.0344170406 0.0236330014 -4.27062623e-05 -0.0374197997 0.011435329 0.0111509636 -0.0344170406 0.0236330014 0.0334126726 -0.0360190719 0.0180848837 0.0462300368 -0.0346002579 0.02185148 0.0333641917 -0.0311307851 0.0283711553 0.0111509636 -0.0344170406 0.0236330014 0.0462300368 -0.0346002579 0.02185148 0.0330797061 -0.0100394692 0.0436195731 0.0306533501 -0.00556846661 0.044854939 0.026228711 -0.0177193712 0.0412595868 0.0462300256 -0.0143054472 0.0421467423 0.0330797061 -0.0100394692 0.0436195731 0.026228711 -0.0177193712 0.0412595868 0.0330797061 -0.0100394692 0.0436195731 0.0462300256 -0.0143054472 0.0421467423 0.0306533501 -0.00556846661 0.044854939 </float_array>
          <technique_common>
            <accessor count="342" offset="0" source="#mesh_0-positions-array" stride="3">
              <param name="X" type="float" />
              <param name="Y" type="float" />
              <param name="Z" type="float" />
            </accessor>
          </technique_common>
        </source>
        <vertices id="mesh_0-vertices">
          <input semantic="POSITION" source="#mesh_0-positions" />
        </vertices>
        <polylist count="114" material="defaultMaterial">
          <input offset="0" semantic="VERTEX" source="#mesh_0-vertices" />
          <vcount>3 3 3 3 3 3 3 3 3 3 3 3 3 3 3 3 3 3 3 3 3 3 3 3 3 3 3 3 3 3 3 3 3 3 3 3 3 3 3 3 3 3 3 3 3 3 3 3 3 3 3 3 3 3 3 3 3 3 3 3 3 3 3 3 3 3 3 3 3 3 3 3 3 3 3 3 3 3 3 3 3 3 3 3 3 3 3 3 3 3 3 3 3 3 3 3 3 3 3 3 3 3 3 3 3 3 3 3 3 3 3 3 3 3 </vcount>
          <p>0 1 2 3 4 5 6 7 8 9 10 11 12 13 14 15 16 17 18 19 20 21 22 23 24 25 26 27 28 29 30 31 32 33 34 35 36 37 38 39 40 41 42 43 44 45 46 47 48 49 50 51 52 53 54 55 56 57 58 59 60 61 62 63 64 65 66 67 68 69 70 71 72 73 74 75 76 77 78 79 80 81 82 83 84 85 86 87 88 89 90 91 92 93 94 95 96 97 98 99 100 101 102 103 104 105 106 107 108 109 110 111 112 113 114 115 116 117 118 119 120 121 122 123 124 125 126 127 128 129 130 131 132 133 134 135 136 137 138 139 140 141 142 143 144 145 146 147 148 149 150 151 152 153 154 155 156 157 158 159 160 161 162 163 164 165 166 167 168 169 170 171 172 173 174 175 176 177 178 179 180 181 182 183 184 185 186 187 188 189 190 191 192 193 194 195 196 197 198 199 200 201 202 203 204 205 206 207 208 209 210 211 212 213 214 215 216 217 218 219 220 221 222 223 224 225 226 227 228 229 230 231 232 233 234 235 236 237 238 239 240 241 242 243 244 245 246 247 248 249 250 251 252 253 254 255 256 257 258 259 260 261 262 263 264 265 266 267 268 269 270 271 272 273 274 275 276 277 278 279 280 281 282 283 284 285 286 287 288 289 290 291 292 293 294 295 296 297 298 299 300 301 302 303 304 305 306 307 308 309 310 311 312 313 314 315 316 317 318 319 320 321 322 323 324 325 326 327 328 329 330 331 332 333 334 335 336 337 338 339 340 341 </p>
        </polylist>
      </mesh>
    </geometry>
  </library_geometries>
  <library_controllers>
  </library_controllers>
  <library_visual_scenes>
    <visual_scene id="Scene" name="Scene">
      <node id="node" name="" type="NODE">
        <matrix sid="matrix">1 0 0 0 0 1 0 0 0 0 1 0 0 0 0 1</matrix>
        <instance_geometry url="#mesh_0">
          <bind_material>
            <technique_common>
              <instance_material symbol="defaultMaterial" target="#material_0">
              </instance_material>
            </technique_common>
          </bind_material>
        </instance_geometry>
      </node>
    </visual_scene>
  </library_visual_scenes>
  <scene>
    <instance_visual_scene url="#Scene" />
  </scene>
</COLLADA>
