<?xml version="1.0" encoding="UTF-8" standalone="no" ?>
<COLLADA xmlns="http://www.collada.org/2005/11/COLLADASchema" version="1.4.1">
  <asset>
    <contributor>
      <author>Assimp</author>
      <authoring_tool>Assimp Exporter</authoring_tool>
    </contributor>
    <created>2025-11-12T11:09:31</created>
    <modified>2025-11-12T11:09:31</modified>
    <unit name="meter" meter="1" />
    <up_axis>Y_UP</up_axis>
  </asset>
  <library_images>
  </library_images>
  <library_effects>
    <effect id="material_0-fx" name="">
      <profile_COMMON>
        <technique sid="standard">
          <phong>
            <emission>
              <color sid="emission">0   0   0   4.28026616e-41</color>
            </emission>
            <ambient>
              <color sid="ambient">0.282352924   0.282352924   0.282352924   4.28026616e-41</color>
            </ambient>
            <diffuse>
              <color sid="diffuse">0.282352924   0.282352924   0.282352924   4.28026616e-41</color>
            </diffuse>
            <specular>
              <color sid="specular">0.150000006   0.150000006   0.150000006   4.28026616e-41</color>
            </specular>
          </phong>
        </technique>
      </profile_COMMON>
    </effect>
  </library_effects>
  <library_materials>
    <material id="material_0" name="">
      <instance_effect url="#material_0-fx"/>
    </material>
  </library_materials>
  <library_geometries>
    <geometry id="mesh_0" name="" >
      <mesh>
        <source id="mesh_0-positions" name="mesh_0-positions">
          <float_array id="mesh_0-positions-array" count="288"> -0.0671500042 0.057999976 -0.00428494671 -0.0591499954 0.057999976 -0.00428495044 -0.0671500415 0.0535849854 -0.0264805853 -0.0671500415 0.0535849854 -0.0264805853 -0.0591499954 0.057999976 -0.00428495044 -0.0591500327 0.0535849817 -0.0264805853 -0.0671500415 0.0410121642 -0.0452971309 -0.0591500327 0.0535849817 -0.0264805853 -0.059149988 0.0410121642 -0.0452971309 -0.0671500266 0.0221956056 -0.0578699596 -0.059149988 0.0410121642 -0.0452971309 -0.0591499694 0.0221956074 -0.0578699559 -0.0671499968 -3.60317713e-08 -0.0622849353 -0.0591499694 0.0221956074 -0.0578699559 -0.0591500141 -3.32777645e-08 -0.062284939 -0.067150034 -0.0221956689 -0.0578699559 -0.0591500141 -3.32777645e-08 -0.062284939 -0.0591499694 -0.0221956689 -0.0578699522 -0.0671499968 -0.0410122238 -0.0452971272 -0.0591499694 -0.0221956689 -0.0578699522 -0.059149988 -0.0410122275 -0.0452971272 -0.0671500117 -0.0535850413 -0.0264805816 -0.059149988 -0.0410122275 -0.0452971272 -0.0591500029 -0.0535850376 -0.0264805853 -0.0671499595 -0.0580000244 -0.00428493833 -0.0591500029 -0.0535850376 -0.0264805853 -0.0591500327 -0.0580000393 -0.00428493647 -0.0671499595 -0.0580000244 -0.00428493833 -0.0671500117 -0.0535850413 -0.0264805816 -0.0591500029 -0.0535850376 -0.0264805853 -0.0671500117 -0.0535850413 -0.0264805816 -0.0671499968 -0.0410122238 -0.0452971272 -0.059149988 -0.0410122275 -0.0452971272 -0.0671499968 -0.0410122238 -0.0452971272 -0.067150034 -0.0221956689 -0.0578699559 -0.0591499694 -0.0221956689 -0.0578699522 -0.067150034 -0.0221956689 -0.0578699559 -0.0671499968 -3.60317713e-08 -0.0622849353 -0.0591500141 -3.32777645e-08 -0.062284939 -0.0671499968 -3.60317713e-08 -0.0622849353 -0.0671500266 0.0221956056 -0.0578699596 -0.0591499694 0.0221956074 -0.0578699559 -0.0671500266 0.0221956056 -0.0578699596 -0.0671500415 0.0410121642 -0.0452971309 -0.059149988 0.0410121642 -0.0452971309 -0.0671500415 0.0410121642 -0.0452971309 -0.0671500415 0.0535849854 -0.0264805853 -0.0591500327 0.0535849817 -0.0264805853 -0.0671499595 -0.0580000244 -0.00428493833 -0.0591500327 -0.0580000393 -0.00428493647 -0.0671500042 -0.0535850488 0.0179107096 -0.0671500042 -0.0535850488 0.0179107096 -0.0591500327 -0.0580000393 -0.00428493647 -0.0591500029 -0.0535850413 0.0179106891 -0.0671500564 -0.0410122238 0.0367272496 -0.0591500029 -0.0535850413 0.0179106891 -0.0591499954 -0.0410121977 0.0367272496 -0.0671499968 -0.0221956503 0.0493000783 -0.0591499954 -0.0410121977 0.0367272496 -0.0591500141 -0.0221956633 0.0493000858 -0.0671500191 -1.39460337e-08 0.05371508 -0.0591500141 -0.0221956633 0.0493000858 -0.0591499694 -3.90407742e-08 0.0537150167 -0.0671499893 0.0221956074 0.0493000597 -0.0591499694 -3.90407742e-08 0.0537150167 -0.0591500662 0.0221956354 0.0493000783 -0.067149967 0.0410121568 0.036727231 -0.0591500662 0.0221956354 0.0493000783 -0.059149988 0.0410121791 0.036727272 -0.0671500117 0.0535849743 0.0179106928 -0.059149988 0.0410121791 0.036727272 -0.0591500327 0.0535849854 0.0179106835 -0.0671500042 0.057999976 -0.00428494671 -0.0591500327 0.0535849854 0.0179106835 -0.0591499954 0.057999976 -0.00428495044 -0.0671500042 0.057999976 -0.00428494671 -0.0671500117 0.0535849743 0.0179106928 -0.0591500327 0.0535849854 0.0179106835 -0.0671500117 0.0535849743 0.0179106928 -0.067149967 0.0410121568 0.036727231 -0.059149988 0.0410121791 0.036727272 -0.067149967 0.0410121568 0.036727231 -0.0671499893 0.0221956074 0.0493000597 -0.0591500662 0.0221956354 0.0493000783 -0.0671499893 0.0221956074 0.0493000597 -0.0671500191 -1.39460337e-08 0.05371508 -0.0591499694 -3.90407742e-08 0.0537150167 -0.0671500191 -1.39460337e-08 0.05371508 -0.0671499968 -0.0221956503 0.0493000783 -0.0591500141 -0.0221956633 0.0493000858 -0.0671499968 -0.0221956503 0.0493000783 -0.0671500564 -0.0410122238 0.0367272496 -0.0591499954 -0.0410121977 0.0367272496 -0.0671500564 -0.0410122238 0.0367272496 -0.0671500042 -0.0535850488 0.0179107096 -0.0591500029 -0.0535850413 0.0179106891 </float_array>
          <technique_common>
            <accessor count="96" offset="0" source="#mesh_0-positions-array" stride="3">
              <param name="X" type="float" />
              <param name="Y" type="float" />
              <param name="Z" type="float" />
            </accessor>
          </technique_common>
        </source>
        <vertices id="mesh_0-vertices">
          <input semantic="POSITION" source="#mesh_0-positions" />
        </vertices>
        <polylist count="32" material="defaultMaterial">
          <input offset="0" semantic="VERTEX" source="#mesh_0-vertices" />
          <vcount>3 3 3 3 3 3 3 3 3 3 3 3 3 3 3 3 3 3 3 3 3 3 3 3 3 3 3 3 3 3 3 3 </vcount>
          <p>0 1 2 3 4 5 6 7 8 9 10 11 12 13 14 15 16 17 18 19 20 21 22 23 24 25 26 27 28 29 30 31 32 33 34 35 36 37 38 39 40 41 42 43 44 45 46 47 48 49 50 51 52 53 54 55 56 57 58 59 60 61 62 63 64 65 66 67 68 69 70 71 72 73 74 75 76 77 78 79 80 81 82 83 84 85 86 87 88 89 90 91 92 93 94 95 </p>
        </polylist>
      </mesh>
    </geometry>
  </library_geometries>
  <library_controllers>
  </library_controllers>
  <library_visual_scenes>
    <visual_scene id="Scene" name="Scene">
      <node id="node" name="" type="NODE">
        <matrix sid="matrix">1 0 0 0 0 1 0 0 0 0 1 0 0 0 0 1</matrix>
        <instance_geometry url="#mesh_0">
          <bind_material>
            <technique_common>
              <instance_material symbol="defaultMaterial" target="#material_0">
              </instance_material>
            </technique_common>
          </bind_material>
        </instance_geometry>
      </node>
    </visual_scene>
  </library_visual_scenes>
  <scene>
    <instance_visual_scene url="#Scene" />
  </scene>
</COLLADA>
