<?xml version="1.0" encoding="UTF-8" standalone="no" ?>
<COLLADA xmlns="http://www.collada.org/2005/11/COLLADASchema" version="1.4.1">
  <asset>
    <contributor>
      <author>Assimp</author>
      <authoring_tool>Assimp Exporter</authoring_tool>
    </contributor>
    <created>2025-11-12T11:09:31</created>
    <modified>2025-11-12T11:09:31</modified>
    <unit name="meter" meter="1" />
    <up_axis>Y_UP</up_axis>
  </asset>
  <library_images>
  </library_images>
  <library_effects>
    <effect id="material_0-fx" name="">
      <profile_COMMON>
        <technique sid="standard">
          <phong>
            <emission>
              <color sid="emission">0   0   0   4.28026616e-41</color>
            </emission>
            <ambient>
              <color sid="ambient">0.719165564   0.882352889   0.352941155   4.28026616e-41</color>
            </ambient>
            <diffuse>
              <color sid="diffuse">0.719165564   0.882352889   0.352941155   4.28026616e-41</color>
            </diffuse>
            <specular>
              <color sid="specular">0.529999971   0.529999971   0.529999971   4.28026616e-41</color>
            </specular>
          </phong>
        </technique>
      </profile_COMMON>
    </effect>
  </library_effects>
  <library_materials>
    <material id="material_0" name="">
      <instance_effect url="#material_0-fx"/>
    </material>
  </library_materials>
  <library_geometries>
    <geometry id="mesh_0" name="" >
      <mesh>
        <source id="mesh_0-positions" name="mesh_0-positions">
          <float_array id="mesh_0-positions-array" count="1008"> -0.0444468819 0.0265001934 0.231893897 0.0106325177 0.0246412195 0.233630836 0.0129338903 0.02998369 0.2278772 0.0220653862 -0.037521407 0.205042601 -0.0444468632 -0.0375163369 0.205377564 -0.00525660673 -0.0376073308 0.201235339 -0.0444468632 -0.0375163369 0.205377564 -0.0444468632 -0.0346618071 0.191026732 -0.00525660673 -0.0376073308 0.201235339 0.0177338924 0.0359837003 0.215877295 0.0219338946 0.0374837108 0.20537746 -0.0444469117 0.0374852791 0.205372334 -0.0444468744 0.034629181 0.219728172 -0.0444468819 0.0265001934 0.231893897 0.0129338903 0.02998369 0.2278772 0.0177338924 0.0359837003 0.215877295 -0.0444468744 0.034629181 0.219728172 0.0129338903 0.02998369 0.2278772 -0.0444468819 0.0265001934 0.231893897 -0.0444468744 0.034629181 0.219728172 -0.0444469117 0.0374852791 0.205372334 -0.0444468744 0.034629181 0.219728172 0.0177338924 0.0359837003 0.215877295 -0.0444469117 0.0374852791 0.205372334 -0.0444468968 0.014334322 0.240023315 -0.0444468819 0.0265001934 0.231893897 -0.0444469117 0.0374852791 0.205372334 -0.0444468968 -0.0265328325 0.231894001 -0.0444468968 0.014334322 0.240023315 -0.0444469117 0.0374852791 0.205372334 -0.0444468968 0.014334322 0.240023315 -0.0444468968 -0.0265328325 0.231894001 -0.0444468893 -1.63259811e-05 0.242877722 0.0351691954 -0.0176633857 0.172288835 0.0332352631 -0.0246738549 0.177123845 0.0314952917 -0.0163697042 0.171091318 0.0220653862 -0.037521407 0.205042601 0.0177338924 -0.0360163487 0.215877354 -0.0444468632 -0.0375163369 0.205377564 -0.0444468744 -1.63095392e-05 0.167877361 -0.0399902537 -0.00528572407 0.167662203 -0.044446867 -0.0143669406 0.170731828 -0.0399902537 -0.00528572407 0.167662203 0.0364714339 -0.00932317693 0.168909371 0.0314952917 -0.0163697042 0.171091318 0.0351691954 -0.0176633857 0.172288835 0.0364714339 -0.00932317693 0.168909371 0.0369334444 -4.17031588e-05 0.167794287 0.0364714339 -0.00932317693 0.168909371 0.0351691954 -0.0176633857 0.172288835 0.0314952917 -0.0163697042 0.171091318 0.00393151911 0.037249051 0.196816862 0.0219338946 0.0374837108 0.20537746 0.0261339024 0.035983704 0.194877267 -0.0444468707 0.0346291848 0.191026747 -0.0444468744 0.0265002064 0.178861022 -0.0444469117 0.0374852791 0.205372334 -0.0444468744 0.0265002064 0.178861022 -0.0444468744 -1.63095392e-05 0.167877361 -0.0444469117 0.0374852791 0.205372334 -0.0444468744 -1.63095392e-05 0.167877361 -0.0444468744 0.0265002064 0.178861022 -0.0444468595 0.0143343266 0.170732021 -0.0444468968 -0.0265328325 0.231894001 -0.0444468819 -0.0143669602 0.240022942 -0.0444468893 -1.63259811e-05 0.242877722 -0.0444468632 -0.0346618071 0.191026732 0.0107630622 -0.0356452242 0.190332174 -0.00525660673 -0.0376073308 0.201235339 0.0352154747 0.0173089541 0.172340274 0.0219338946 0.0374837108 0.20537746 0.0177338924 0.0359837003 0.215877295 0.0352154747 0.0173089541 0.172340274 0.0177338924 0.0359837003 0.215877295 0.0129338903 0.02998369 0.2278772 0.0106325177 0.0246412195 0.233630836 0.0352154747 0.0173089541 0.172340274 0.0129338903 0.02998369 0.2278772 0.0332352631 -0.0246738549 0.177123845 0.0352154747 0.0173089541 0.172340274 0.0309339091 -0.030016331 0.182877421 0.0219338946 0.0374837108 0.20537746 0.0352154747 0.0173089541 0.172340274 0.0261339024 0.035983704 0.194877267 0.0352154747 0.0173089541 0.172340274 0.0332352631 -0.0246738549 0.177123845 0.0351691954 -0.0176633857 0.172288835 0.0352154747 0.0173089541 0.172340274 0.0351691954 -0.0176633857 0.172288835 0.0369334444 -4.17031588e-05 0.167794287 0.00739542861 0.00921444874 0.241723537 -0.0444468968 0.014334322 0.240023315 -0.0444468893 -1.63259811e-05 0.242877722 0.00693388144 -1.63226014e-05 0.242877424 0.00739542861 0.00921444874 0.241723537 -0.0444468893 -1.63259811e-05 0.242877722 0.0352154747 0.0173089541 0.172340274 0.00739542861 0.00921444874 0.241723537 0.00693388144 -1.63226014e-05 0.242877424 -0.0444468968 -0.0265328325 0.231894001 0.0129338885 -0.0300163385 0.227877438 0.0106325131 -0.024673868 0.233630717 0.0129338885 -0.0300163385 0.227877438 0.0352154747 0.0173089541 0.172340274 0.0106325131 -0.024673868 0.233630717 0.0352154747 0.0173089541 0.172340274 0.0129338885 -0.0300163385 0.227877438 0.0177338924 -0.0360163487 0.215877354 -0.0444468744 -0.0346618108 0.219728157 -0.0444468968 -0.0265328325 0.231894001 -0.0444468632 -0.0375163369 0.205377564 0.0177338924 -0.0360163487 0.215877354 -0.0444468744 -0.0346618108 0.219728157 -0.0444468632 -0.0375163369 0.205377564 -0.0444468744 -0.0346618108 0.219728157 0.0129338885 -0.0300163385 0.227877438 -0.0444468968 -0.0265328325 0.231894001 0.0129338885 -0.0300163385 0.227877438 -0.0444468744 -0.0346618108 0.219728157 0.0177338924 -0.0360163487 0.215877354 0.0335766897 0.0106091052 0.16918999 -0.0399924144 0.005829792 0.167739153 -0.0444468595 0.0143343266 0.170732021 -0.0399924144 0.005829792 0.167739153 -0.0444468744 -1.63095392e-05 0.167877361 -0.0444468595 0.0143343266 0.170732021 -0.0444468744 -1.63095392e-05 0.167877361 -0.0399924144 0.005829792 0.167739153 -0.0399902537 -0.00528572407 0.167662203 0.0364714339 -0.00932317693 0.168909371 0.0351599939 -0.00147913862 0.167559981 0.0369334444 -4.17031588e-05 0.167794287 0.0351599939 -0.00147913862 0.167559981 0.0364714339 -0.00932317693 0.168909371 -0.0399902537 -0.00528572407 0.167662203 -0.0399924144 0.005829792 0.167739153 0.0351599939 -0.00147913862 0.167559981 -0.0399902537 -0.00528572407 0.167662203 0.0219338946 0.0374837108 0.20537746 -0.00673116185 0.0374487303 0.198499978 -0.0444469117 0.0374852791 0.205372334 0.00393151911 0.037249051 0.196816862 -0.00673116185 0.0374487303 0.198499978 0.0219338946 0.0374837108 0.20537746 -0.00673116185 0.0374487303 0.198499978 -0.0444468707 0.0346291848 0.191026747 -0.0444469117 0.0374852791 0.205372334 0.0352154747 0.0173089541 0.172340274 0.0268766973 0.02382816 0.175730288 0.0332352705 0.0246412307 0.177123845 0.00739542115 -0.00924709253 0.241723478 0.0352154747 0.0173089541 0.172340274 0.00693388144 -1.63226014e-05 0.242877424 0.00739542115 -0.00924709253 0.241723478 0.00693388144 -1.63226014e-05 0.242877424 -0.0444468893 -1.63259811e-05 0.242877722 -0.0444468819 -0.0143669602 0.240022942 0.00739542115 -0.00924709253 0.241723478 -0.0444468893 -1.63259811e-05 0.242877722 0.0352154747 0.0173089541 0.172340274 0.0309339054 0.0299837068 0.182877481 0.0261339024 0.035983704 0.194877267 0.0309339054 0.0299837068 0.182877481 0.0352154747 0.0173089541 0.172340274 0.0332352705 0.0246412307 0.177123845 0.0309339054 0.0299837068 0.182877481 0.0177255571 0.0325181 0.186027348 0.0261339024 0.035983704 0.194877267 0.0268766973 0.02382816 0.175730288 0.0309339054 0.0299837068 0.182877481 0.0332352705 0.0246412307 0.177123845 0.0261338986 -0.0360163376 0.194877625 0.0177338924 -0.0360163487 0.215877354 0.0220653862 -0.037521407 0.205042601 0.0261338986 -0.0360163376 0.194877625 0.0352154747 0.0173089541 0.172340274 0.0177338924 -0.0360163487 0.215877354 0.0352154747 0.0173089541 0.172340274 0.0261338986 -0.0360163376 0.194877625 0.0309339091 -0.030016331 0.182877421 0.0261338986 -0.0360163376 0.194877625 0.0107630622 -0.0356452242 0.190332174 0.0309339091 -0.030016331 0.182877421 0.0261338986 -0.0360163376 0.194877625 0.0220653862 -0.037521407 0.205042601 -0.00525660673 -0.0376073308 0.201235339 0.0107630622 -0.0356452242 0.190332174 0.0261338986 -0.0360163376 0.194877625 -0.00525660673 -0.0376073308 0.201235339 0.0364723727 0.00921447016 0.169031322 0.0352154747 0.0173089541 0.172340274 0.0369334444 -4.17031588e-05 0.167794287 0.0352154747 0.0173089541 0.172340274 0.0364723727 0.00921447016 0.169031322 0.0335766897 0.0106091052 0.16918999 0.0351599939 -0.00147913862 0.167559981 0.0364723727 0.00921447016 0.169031322 0.0369334444 -4.17031588e-05 0.167794287 0.0364723727 0.00921447016 0.169031322 -0.0399924144 0.005829792 0.167739153 0.0335766897 0.0106091052 0.16918999 0.0364723727 0.00921447016 0.169031322 0.0351599939 -0.00147913862 0.167559981 -0.0399924144 0.005829792 0.167739153 0.00739542861 0.00921444874 0.241723537 0.00869859476 0.017630741 0.238465607 -0.0444468968 0.014334322 0.240023315 0.00869859476 0.017630741 0.238465607 0.0106325177 0.0246412195 0.233630836 -0.0444468819 0.0265001934 0.231893897 -0.0444468968 0.014334322 0.240023315 0.00869859476 0.017630741 0.238465607 -0.0444468819 0.0265001934 0.231893897 0.00869859476 0.017630741 0.238465607 0.0352154747 0.0173089541 0.172340274 0.0106325177 0.0246412195 0.233630836 0.00869859476 0.017630741 0.238465607 0.00739542861 0.00921444874 0.241723537 0.0352154747 0.0173089541 0.172340274 0.0223087072 -0.0290655941 0.180846572 0.0332352631 -0.0246738549 0.177123845 0.0309339091 -0.030016331 0.182877421 0.0223087072 -0.0290655941 0.180846572 -0.0297288001 -0.0272511914 0.178901896 0.0332352631 -0.0246738549 0.177123845 0.0107630622 -0.0356452242 0.190332174 0.0223087072 -0.0290655941 0.180846572 0.0309339091 -0.030016331 0.182877421 -0.0297288001 -0.0272511914 0.178901896 0.0223087072 -0.0290655941 0.180846572 0.0107630622 -0.0356452242 0.190332174 -0.0281497706 -0.0310995821 0.184399053 0.0107630622 -0.0356452242 0.190332174 -0.0444468632 -0.0346618071 0.191026732 -0.0281497706 -0.0310995821 0.184399053 -0.0297288001 -0.0272511914 0.178901896 0.0107630622 -0.0356452242 0.190332174 -0.0444468744 -0.0265328269 0.178860947 -0.0281497706 -0.0310995821 0.184399053 -0.0444468632 -0.0346618071 0.191026732 -0.0281497706 -0.0310995821 0.184399053 -0.0444468744 -0.0265328269 0.178860947 -0.0297288001 -0.0272511914 0.178901896 -0.0444468744 -0.0265328269 0.178860947 -0.0444468744 -1.63095392e-05 0.167877361 -0.044446867 -0.0143669406 0.170731828 -0.0444468968 -0.0265328325 0.231894001 -0.0444468744 -0.0265328269 0.178860947 -0.0444468632 -0.0375163369 0.205377564 -0.0444468744 -0.0265328269 0.178860947 -0.0444468632 -0.0346618071 0.191026732 -0.0444468632 -0.0375163369 0.205377564 -0.0444468744 -0.0265328269 0.178860947 -0.0444468968 -0.0265328325 0.231894001 -0.0444469117 0.0374852791 0.205372334 -0.0444468744 -1.63095392e-05 0.167877361 -0.0444468744 -0.0265328269 0.178860947 -0.0444469117 0.0374852791 0.205372334 0.0332352631 -0.0246738549 0.177123845 -0.0361163802 -0.0174085554 0.171431348 0.0314952917 -0.0163697042 0.171091318 -0.0297288001 -0.0272511914 0.178901896 -0.0361163802 -0.0174085554 0.171431348 0.0332352631 -0.0246738549 0.177123845 -0.0399902537 -0.00528572407 0.167662203 -0.0361163802 -0.0174085554 0.171431348 -0.044446867 -0.0143669406 0.170731828 -0.0361163802 -0.0174085554 0.171431348 -0.0399902537 -0.00528572407 0.167662203 0.0314952917 -0.0163697042 0.171091318 -0.0361163802 -0.0174085554 0.171431348 -0.0444468744 -0.0265328269 0.178860947 -0.044446867 -0.0143669406 0.170731828 -0.0444468744 -0.0265328269 0.178860947 -0.0361163802 -0.0174085554 0.171431348 -0.0297288001 -0.0272511914 0.178901896 -0.0444468744 0.0265002064 0.178861022 -0.0365554728 0.0177483093 0.172228515 -0.0444468595 0.0143343266 0.170732021 0.0268766973 0.02382816 0.175730288 -0.0365554728 0.0177483093 0.172228515 -0.0444468744 0.0265002064 0.178861022 -0.0365554728 0.0177483093 0.172228515 0.0268766973 0.02382816 0.175730288 0.0352154747 0.0173089541 0.172340274 -0.0365554728 0.0177483093 0.172228515 0.0335766897 0.0106091052 0.16918999 -0.0444468595 0.0143343266 0.170732021 -0.0365554728 0.0177483093 0.172228515 0.0352154747 0.0173089541 0.172340274 0.0335766897 0.0106091052 0.16918999 0.00869858917 -0.0176633988 0.238465607 0.00739542115 -0.00924709253 0.241723478 -0.0444468819 -0.0143669602 0.240022942 0.00869858917 -0.0176633988 0.238465607 -0.0444468968 -0.0265328325 0.231894001 0.0106325131 -0.024673868 0.233630717 0.00869858917 -0.0176633988 0.238465607 -0.0444468819 -0.0143669602 0.240022942 -0.0444468968 -0.0265328325 0.231894001 0.0352154747 0.0173089541 0.172340274 0.00869858917 -0.0176633988 0.238465607 0.0106325131 -0.024673868 0.233630717 0.00739542115 -0.00924709253 0.241723478 0.00869858917 -0.0176633988 0.238465607 0.0352154747 0.0173089541 0.172340274 -0.0183414035 0.0344386771 0.186568499 0.0309339054 0.0299837068 0.182877481 0.0268766973 0.02382816 0.175730288 0.0309339054 0.0299837068 0.182877481 -0.0183414035 0.0344386771 0.186568499 0.0177255571 0.0325181 0.186027348 -0.0183414035 0.0344386771 0.186568499 -0.0444468744 0.0265002064 0.178861022 -0.0444468707 0.0346291848 0.191026747 -0.00673116185 0.0374487303 0.198499978 -0.0183414035 0.0344386771 0.186568499 -0.0444468707 0.0346291848 0.191026747 -0.0183414035 0.0344386771 0.186568499 -0.00673116185 0.0374487303 0.198499978 0.00393151911 0.037249051 0.196816862 -0.0183414035 0.0344386771 0.186568499 0.00393151911 0.037249051 0.196816862 0.0261339024 0.035983704 0.194877267 0.0177255571 0.0325181 0.186027348 -0.0183414035 0.0344386771 0.186568499 0.0261339024 0.035983704 0.194877267 -0.0280713979 0.0294808354 0.18135047 0.0268766973 0.02382816 0.175730288 -0.0444468744 0.0265002064 0.178861022 -0.0183414035 0.0344386771 0.186568499 -0.0280713979 0.0294808354 0.18135047 -0.0444468744 0.0265002064 0.178861022 -0.0280713979 0.0294808354 0.18135047 -0.0183414035 0.0344386771 0.186568499 0.0268766973 0.02382816 0.175730288 </float_array>
          <technique_common>
            <accessor count="336" offset="0" source="#mesh_0-positions-array" stride="3">
              <param name="X" type="float" />
              <param name="Y" type="float" />
              <param name="Z" type="float" />
            </accessor>
          </technique_common>
        </source>
        <vertices id="mesh_0-vertices">
          <input semantic="POSITION" source="#mesh_0-positions" />
        </vertices>
        <polylist count="112" material="defaultMaterial">
          <input offset="0" semantic="VERTEX" source="#mesh_0-vertices" />
          <vcount>3 3 3 3 3 3 3 3 3 3 3 3 3 3 3 3 3 3 3 3 3 3 3 3 3 3 3 3 3 3 3 3 3 3 3 3 3 3 3 3 3 3 3 3 3 3 3 3 3 3 3 3 3 3 3 3 3 3 3 3 3 3 3 3 3 3 3 3 3 3 3 3 3 3 3 3 3 3 3 3 3 3 3 3 3 3 3 3 3 3 3 3 3 3 3 3 3 3 3 3 3 3 3 3 3 3 3 3 3 3 3 3 </vcount>
          <p>0 1 2 3 4 5 6 7 8 9 10 11 12 13 14 15 16 17 18 19 20 21 22 23 24 25 26 27 28 29 30 31 32 33 34 35 36 37 38 39 40 41 42 43 44 45 46 47 48 49 50 51 52 53 54 55 56 57 58 59 60 61 62 63 64 65 66 67 68 69 70 71 72 73 74 75 76 77 78 79 80 81 82 83 84 85 86 87 88 89 90 91 92 93 94 95 96 97 98 99 100 101 102 103 104 105 106 107 108 109 110 111 112 113 114 115 116 117 118 119 120 121 122 123 124 125 126 127 128 129 130 131 132 133 134 135 136 137 138 139 140 141 142 143 144 145 146 147 148 149 150 151 152 153 154 155 156 157 158 159 160 161 162 163 164 165 166 167 168 169 170 171 172 173 174 175 176 177 178 179 180 181 182 183 184 185 186 187 188 189 190 191 192 193 194 195 196 197 198 199 200 201 202 203 204 205 206 207 208 209 210 211 212 213 214 215 216 217 218 219 220 221 222 223 224 225 226 227 228 229 230 231 232 233 234 235 236 237 238 239 240 241 242 243 244 245 246 247 248 249 250 251 252 253 254 255 256 257 258 259 260 261 262 263 264 265 266 267 268 269 270 271 272 273 274 275 276 277 278 279 280 281 282 283 284 285 286 287 288 289 290 291 292 293 294 295 296 297 298 299 300 301 302 303 304 305 306 307 308 309 310 311 312 313 314 315 316 317 318 319 320 321 322 323 324 325 326 327 328 329 330 331 332 333 334 335 </p>
        </polylist>
      </mesh>
    </geometry>
  </library_geometries>
  <library_controllers>
  </library_controllers>
  <library_visual_scenes>
    <visual_scene id="Scene" name="Scene">
      <node id="node" name="" type="NODE">
        <matrix sid="matrix">1 0 0 0 0 1 0 0 0 0 1 0 0 0 0 1</matrix>
        <instance_geometry url="#mesh_0">
          <bind_material>
            <technique_common>
              <instance_material symbol="defaultMaterial" target="#material_0">
              </instance_material>
            </technique_common>
          </bind_material>
        </instance_geometry>
      </node>
    </visual_scene>
  </library_visual_scenes>
  <scene>
    <instance_visual_scene url="#Scene" />
  </scene>
</COLLADA>
