<?xml version="1.0" encoding="UTF-8" standalone="no" ?>
<COLLADA xmlns="http://www.collada.org/2005/11/COLLADASchema" version="1.4.1">
  <asset>
    <contributor>
      <author>Assimp</author>
      <authoring_tool>Assimp Exporter</authoring_tool>
    </contributor>
    <created>2025-11-12T11:09:31</created>
    <modified>2025-11-12T11:09:31</modified>
    <unit name="meter" meter="1" />
    <up_axis>Y_UP</up_axis>
  </asset>
  <library_images>
  </library_images>
  <library_effects>
    <effect id="material_0-fx" name="">
      <profile_COMMON>
        <technique sid="standard">
          <phong>
            <emission>
              <color sid="emission">0   0   0   4.28026616e-41</color>
            </emission>
            <ambient>
              <color sid="ambient">0.719165564   0.882352889   0.352941155   4.28026616e-41</color>
            </ambient>
            <diffuse>
              <color sid="diffuse">0.719165564   0.882352889   0.352941155   4.28026616e-41</color>
            </diffuse>
            <specular>
              <color sid="specular">0.529999971   0.529999971   0.529999971   4.28026616e-41</color>
            </specular>
          </phong>
        </technique>
      </profile_COMMON>
    </effect>
  </library_effects>
  <library_materials>
    <material id="material_0" name="">
      <instance_effect url="#material_0-fx"/>
    </material>
  </library_materials>
  <library_geometries>
    <geometry id="mesh_0" name="" >
      <mesh>
        <source id="mesh_0-positions" name="mesh_0-positions">
          <float_array id="mesh_0-positions-array" count="774"> 0.00469464064 -0.0577740371 0.207272261 -0.00665542483 -0.0578253344 0.202262133 -0.00691135228 -0.0584621951 0.146150261 -0.00665542483 -0.0578253344 0.202262133 -0.0342383236 0.0580890328 0.212707192 -0.0426246226 -0.0394934863 0.16693747 -0.0342383236 0.0580890328 0.212707192 0.00469464064 -0.0577740371 0.207272261 0.00270290673 0.0585093759 0.210525542 -0.0342383236 0.0580890328 0.212707192 -0.00665542483 -0.0578253344 0.202262133 0.00469464064 -0.0577740371 0.207272261 -0.0254425704 -0.0524496771 0.18182984 -0.00665542483 -0.0578253344 0.202262133 -0.0426246226 -0.0394934863 0.16693747 5.27799311e-05 -0.0578456707 0.146100044 0.00469464064 -0.0577740371 0.207272261 -0.00691135228 -0.0584621951 0.146150261 5.27799311e-05 -0.0578456707 0.146100044 0.0258881748 -0.0543563217 0.191289634 0.00469464064 -0.0577740371 0.207272261 0.00469464064 -0.0577740371 0.207272261 0.0258881748 -0.0543563217 0.191289634 0.00270290673 0.0585093759 0.210525542 0.0538544804 -0.022080658 0.146099895 0.0537913889 -0.0227720421 0.158082873 0.0481805801 -0.0333904997 0.146150231 0.0427741781 -0.0400163494 0.141357124 0.0538544804 -0.022080658 0.146099895 0.0481805801 -0.0333904997 0.146150231 0.0130110607 0.0571097583 0.146150261 0.000457107963 0.0580610745 0.146099538 0.00270290673 0.0585093759 0.210525542 -0.012612313 0.0570372082 0.141357094 0.000457107963 0.0580610745 0.146099538 0.0130110607 0.0571097583 0.146150261 0.000457107963 0.0580610745 0.146099538 -0.0342383236 0.0580890328 0.212707192 0.00270290673 0.0585093759 0.210525542 0.000457107963 0.0580610745 0.146099538 -0.012612313 0.0570372082 0.141357094 -0.0342383236 0.0580890328 0.212707192 -0.0536795557 -0.0215842202 0.157541722 -0.0565357357 -0.0155863035 0.146150261 -0.0523667485 -0.0242452212 0.146099895 -0.0565357357 -0.0155863035 0.146150261 -0.0536795557 -0.0215842202 0.157541722 -0.0590982288 0.000150712789 0.154554814 -0.0536795557 -0.0215842202 0.157541722 -0.0342383236 0.0580890328 0.212707192 -0.0590982288 0.000150712789 0.154554814 -0.0342383236 0.0580890328 0.212707192 -0.0536795557 -0.0215842202 0.157541722 -0.0426246226 -0.0394934863 0.16693747 -0.0342383236 0.0580890328 0.212707192 -0.0566358715 0.0269230921 0.160616457 -0.0590982288 0.000150712789 0.154554814 -0.0514401346 0.042488344 0.172795504 -0.0566358715 0.0269230921 0.160616457 -0.0342383236 0.0580890328 0.212707192 -0.0566358715 0.0269230921 0.160616457 -0.0514401346 0.042488344 0.172795504 -0.0464027077 0.0361203328 0.141357034 -0.0530760735 0.0236373525 0.146150231 -0.0566358715 0.0269230921 0.160616457 -0.0464027077 0.0361203328 0.141357034 -0.012612313 0.0570372082 0.141357094 -0.0432244688 0.0543547496 0.191855818 -0.0342383236 0.0580890328 0.212707192 -0.0432244688 0.0543547496 0.191855818 -0.0514401346 0.042488344 0.172795504 -0.0342383236 0.0580890328 0.212707192 0.0411603525 0.0437845029 0.173109859 0.026273109 0.0544250235 0.190984964 0.0587749556 0.00382827967 0.15321514 0.0258881748 -0.0543563217 0.191289634 0.026273109 0.0544250235 0.190984964 0.00270290673 0.0585093759 0.210525542 0.026273109 0.0544250235 0.190984964 0.0130110607 0.0571097583 0.146150261 0.00270290673 0.0585093759 0.210525542 0.0544539094 0.021885043 0.157269031 0.0587749556 0.00382827967 0.15321514 0.0592258871 0.00440448523 0.146150231 0.0544539094 0.021885043 0.157269031 0.0411603525 0.0437845029 0.173109859 0.0587749556 0.00382827967 0.15321514 0.0409571305 -0.0444034971 0.174317896 0.0427741781 -0.0400163494 0.141357124 0.0481805801 -0.0333904997 0.146150231 0.0537913889 -0.0227720421 0.158082873 0.0409571305 -0.0444034971 0.174317896 0.0481805801 -0.0333904997 0.146150231 0.0409571305 -0.0444034971 0.174317896 0.0537913889 -0.0227720421 0.158082873 0.0587749556 0.00382827967 0.15321514 0.026273109 0.0544250235 0.190984964 0.0409571305 -0.0444034971 0.174317896 0.0587749556 0.00382827967 0.15321514 0.0409571305 -0.0444034971 0.174317896 0.026273109 0.0544250235 0.190984964 0.0258881748 -0.0543563217 0.191289634 0.0427741781 -0.0400163494 0.141357124 0.0579191446 -0.00969005562 0.141357124 0.0538544804 -0.022080658 0.146099895 0.0538544804 -0.022080658 0.146099895 0.0579191446 -0.00969005562 0.141357124 0.0537913889 -0.0227720421 0.158082873 0.0587749556 0.00382827967 0.15321514 0.0579191446 -0.00969005562 0.141357124 0.0592258871 0.00440448523 0.146150231 0.0537913889 -0.0227720421 0.158082873 0.0579191446 -0.00969005562 0.141357124 0.0587749556 0.00382827967 0.15321514 0.0258881748 -0.0543563217 0.191289634 0.0183040649 -0.0549773611 0.141357064 0.0226367936 -0.0533990189 0.146099895 0.0183040649 -0.0549773611 0.141357064 0.0258881748 -0.0543563217 0.191289634 5.27799311e-05 -0.0578456707 0.146100044 0.0183040649 -0.0549773611 0.141357064 5.27799311e-05 -0.0578456707 0.146100044 -0.00691135228 -0.0584621951 0.146150261 0.0183040649 -0.0549773611 0.141357064 0.0579191446 -0.00969005562 0.141357124 0.0427741781 -0.0400163494 0.141357124 -0.0261338353 0.0528508127 0.146150231 -0.012612313 0.0570372082 0.141357094 -0.0464027077 0.0361203328 0.141357034 -0.0261338353 0.0528508127 0.146150231 -0.0432244688 0.0543547496 0.191855818 -0.012612313 0.0570372082 0.141357094 -0.0514401346 0.042488344 0.172795504 -0.0261338353 0.0528508127 0.146150231 -0.0464027077 0.0361203328 0.141357034 -0.0432244688 0.0543547496 0.191855818 -0.0261338353 0.0528508127 0.146150231 -0.0514401346 0.042488344 0.172795504 0.0409571305 -0.0444034971 0.174317896 0.0269170031 -0.0513811931 0.146150261 0.0427741781 -0.0400163494 0.141357124 0.0183040649 -0.0549773611 0.141357064 0.0269170031 -0.0513811931 0.146150261 0.0226367936 -0.0533990189 0.146099895 0.0269170031 -0.0513811931 0.146150261 0.0183040649 -0.0549773611 0.141357064 0.0427741781 -0.0400163494 0.141357124 0.0269170031 -0.0513811931 0.146150261 0.0258881748 -0.0543563217 0.191289634 0.0226367936 -0.0533990189 0.146099895 0.0269170031 -0.0513811931 0.146150261 0.0409571305 -0.0444034971 0.174317896 0.0258881748 -0.0543563217 0.191289634 0.0579191446 -0.00969005562 0.141357124 0.0536632761 0.0239393804 0.141357124 0.0592258871 0.00440448523 0.146150231 0.0536632761 0.0239393804 0.141357124 0.0544539094 0.021885043 0.157269031 0.0592258871 0.00440448523 0.146150231 0.0536632761 0.0239393804 0.141357124 0.0425465778 0.0404752009 0.146150291 0.0411603525 0.0437845029 0.173109859 0.0544539094 0.021885043 0.157269031 0.0536632761 0.0239393804 0.141357124 0.0411603525 0.0437845029 0.173109859 -0.0150131742 -0.0568744615 0.141357094 0.0183040649 -0.0549773611 0.141357064 -0.00691135228 -0.0584621951 0.146150261 -0.00665542483 -0.0578253344 0.202262133 -0.0150131742 -0.0568744615 0.141357094 -0.00691135228 -0.0584621951 0.146150261 -0.0254425704 -0.0524496771 0.18182984 -0.0150131742 -0.0568744615 0.141357094 -0.00665542483 -0.0578253344 0.202262133 0.0536632761 0.0239393804 0.141357124 0.0265561119 0.0529999137 0.141357034 0.0425465778 0.0404752009 0.146150291 0.026273109 0.0544250235 0.190984964 0.0265561119 0.0529999137 0.141357034 0.0130110607 0.0571097583 0.146150261 0.0265561119 0.0529999137 0.141357034 -0.012612313 0.0570372082 0.141357094 0.0130110607 0.0571097583 0.146150261 0.0425465778 0.0404752009 0.146150291 0.0265561119 0.0529999137 0.141357034 0.0411603525 0.0437845029 0.173109859 0.0265561119 0.0529999137 0.141357034 0.026273109 0.0544250235 0.190984964 0.0411603525 0.0437845029 0.173109859 -0.012612313 0.0570372082 0.141357094 0.0265561119 0.0529999137 0.141357034 -0.0464027077 0.0361203328 0.141357034 0.0265561119 0.0529999137 0.141357034 0.0183040649 -0.0549773611 0.141357064 -0.0464027077 0.0361203328 0.141357034 0.0183040649 -0.0549773611 0.141357064 0.0265561119 0.0529999137 0.141357034 0.0579191446 -0.00969005562 0.141357124 0.0265561119 0.0529999137 0.141357034 0.0536632761 0.0239393804 0.141357124 0.0579191446 -0.00969005562 0.141357124 -0.03704831 -0.0441297553 0.146150261 -0.0254425704 -0.0524496771 0.18182984 -0.0426246226 -0.0394934863 0.16693747 -0.0397643745 -0.0418626517 0.146099687 -0.03704831 -0.0441297553 0.146150261 -0.0426246226 -0.0394934863 0.16693747 -0.0472689718 -0.0336606763 0.141357094 -0.0397643745 -0.0418626517 0.146099687 -0.0426246226 -0.0394934863 0.16693747 -0.0565357357 -0.0155863035 0.146150261 -0.0472689718 -0.0336606763 0.141357094 -0.0523667485 -0.0242452212 0.146099895 -0.0472689718 -0.0336606763 0.141357094 -0.03704831 -0.0441297553 0.146150261 -0.0397643745 -0.0418626517 0.146099687 -0.03704831 -0.0441297553 0.146150261 -0.0472689718 -0.0336606763 0.141357094 -0.0150131742 -0.0568744615 0.141357094 -0.0536795557 -0.0215842202 0.157541722 -0.0472689718 -0.0336606763 0.141357094 -0.0426246226 -0.0394934863 0.16693747 -0.0472689718 -0.0336606763 0.141357094 -0.0536795557 -0.0215842202 0.157541722 -0.0523667485 -0.0242452212 0.146099895 -0.0212676376 -0.0537201837 0.146099925 -0.0150131742 -0.0568744615 0.141357094 -0.0254425704 -0.0524496771 0.18182984 -0.03704831 -0.0441297553 0.146150261 -0.0212676376 -0.0537201837 0.146099925 -0.0254425704 -0.0524496771 0.18182984 -0.0212676376 -0.0537201837 0.146099925 -0.03704831 -0.0441297553 0.146150261 -0.0150131742 -0.0568744615 0.141357094 -0.058003813 -0.00150756736 0.141357064 -0.0472689718 -0.0336606763 0.141357094 -0.0565357357 -0.0155863035 0.146150261 -0.058003813 -0.00150756736 0.141357064 -0.0530760735 0.0236373525 0.146150231 -0.0464027077 0.0361203328 0.141357034 0.0183040649 -0.0549773611 0.141357064 -0.058003813 -0.00150756736 0.141357064 -0.0464027077 0.0361203328 0.141357034 -0.058003813 -0.00150756736 0.141357064 -0.0565357357 -0.0155863035 0.146150261 -0.0590982288 0.000150712789 0.154554814 -0.0150131742 -0.0568744615 0.141357094 -0.058003813 -0.00150756736 0.141357064 0.0183040649 -0.0549773611 0.141357064 -0.0472689718 -0.0336606763 0.141357094 -0.058003813 -0.00150756736 0.141357064 -0.0150131742 -0.0568744615 0.141357094 -0.0566358715 0.0269230921 0.160616457 -0.058003813 -0.00150756736 0.141357064 -0.0590982288 0.000150712789 0.154554814 -0.058003813 -0.00150756736 0.141357064 -0.0566358715 0.0269230921 0.160616457 -0.0530760735 0.0236373525 0.146150231 </float_array>
          <technique_common>
            <accessor count="258" offset="0" source="#mesh_0-positions-array" stride="3">
              <param name="X" type="float" />
              <param name="Y" type="float" />
              <param name="Z" type="float" />
            </accessor>
          </technique_common>
        </source>
        <vertices id="mesh_0-vertices">
          <input semantic="POSITION" source="#mesh_0-positions" />
        </vertices>
        <polylist count="86" material="defaultMaterial">
          <input offset="0" semantic="VERTEX" source="#mesh_0-vertices" />
          <vcount>3 3 3 3 3 3 3 3 3 3 3 3 3 3 3 3 3 3 3 3 3 3 3 3 3 3 3 3 3 3 3 3 3 3 3 3 3 3 3 3 3 3 3 3 3 3 3 3 3 3 3 3 3 3 3 3 3 3 3 3 3 3 3 3 3 3 3 3 3 3 3 3 3 3 3 3 3 3 3 3 3 3 3 3 3 3 </vcount>
          <p>0 1 2 3 4 5 6 7 8 9 10 11 12 13 14 15 16 17 18 19 20 21 22 23 24 25 26 27 28 29 30 31 32 33 34 35 36 37 38 39 40 41 42 43 44 45 46 47 48 49 50 51 52 53 54 55 56 57 58 59 60 61 62 63 64 65 66 67 68 69 70 71 72 73 74 75 76 77 78 79 80 81 82 83 84 85 86 87 88 89 90 91 92 93 94 95 96 97 98 99 100 101 102 103 104 105 106 107 108 109 110 111 112 113 114 115 116 117 118 119 120 121 122 123 124 125 126 127 128 129 130 131 132 133 134 135 136 137 138 139 140 141 142 143 144 145 146 147 148 149 150 151 152 153 154 155 156 157 158 159 160 161 162 163 164 165 166 167 168 169 170 171 172 173 174 175 176 177 178 179 180 181 182 183 184 185 186 187 188 189 190 191 192 193 194 195 196 197 198 199 200 201 202 203 204 205 206 207 208 209 210 211 212 213 214 215 216 217 218 219 220 221 222 223 224 225 226 227 228 229 230 231 232 233 234 235 236 237 238 239 240 241 242 243 244 245 246 247 248 249 250 251 252 253 254 255 256 257 </p>
        </polylist>
      </mesh>
    </geometry>
  </library_geometries>
  <library_controllers>
  </library_controllers>
  <library_visual_scenes>
    <visual_scene id="Scene" name="Scene">
      <node id="node" name="" type="NODE">
        <matrix sid="matrix">1 0 0 0 0 1 0 0 0 0 1 0 0 0 0 1</matrix>
        <instance_geometry url="#mesh_0">
          <bind_material>
            <technique_common>
              <instance_material symbol="defaultMaterial" target="#material_0">
              </instance_material>
            </technique_common>
          </bind_material>
        </instance_geometry>
      </node>
    </visual_scene>
  </library_visual_scenes>
  <scene>
    <instance_visual_scene url="#Scene" />
  </scene>
</COLLADA>
