<?xml version="1.0" encoding="UTF-8" standalone="no" ?>
<COLLADA xmlns="http://www.collada.org/2005/11/COLLADASchema" version="1.4.1">
  <asset>
    <contributor>
      <author>Assimp</author>
      <authoring_tool>Assimp Exporter</authoring_tool>
    </contributor>
    <created>2025-11-12T11:09:31</created>
    <modified>2025-11-12T11:09:31</modified>
    <unit name="meter" meter="1" />
    <up_axis>Y_UP</up_axis>
  </asset>
  <library_images>
  </library_images>
  <library_effects>
    <effect id="material_0-fx" name="">
      <profile_COMMON>
        <technique sid="standard">
          <phong>
            <emission>
              <color sid="emission">0   0   0   4.28026616e-41</color>
            </emission>
            <ambient>
              <color sid="ambient">0.535294116   0.535294116   0.535294116   4.28026616e-41</color>
            </ambient>
            <diffuse>
              <color sid="diffuse">0.535294116   0.535294116   0.535294116   4.28026616e-41</color>
            </diffuse>
            <specular>
              <color sid="specular">0.140000001   0.140000001   0.140000001   4.28026616e-41</color>
            </specular>
          </phong>
        </technique>
      </profile_COMMON>
    </effect>
  </library_effects>
  <library_materials>
    <material id="material_0" name="">
      <instance_effect url="#material_0-fx"/>
    </material>
  </library_materials>
  <library_geometries>
    <geometry id="mesh_0" name="" >
      <mesh>
        <source id="mesh_0-positions" name="mesh_0-positions">
          <float_array id="mesh_0-positions-array" count="3078"> -0.0453000516 -9.9484232e-10 -0.244749978 -0.0230755955 -0.0116770258 -0.239601359 -0.0453000516 -0.0221956391 -0.240335032 -0.0453000516 -9.9484232e-10 -0.244749978 -0.0292596389 -3.77185033e-10 -0.242779464 -0.0230755955 -0.0116770258 -0.239601359 -0.0230755955 -0.0116770258 -0.239601359 -0.0292596389 -3.77185033e-10 -0.242779464 -0.0147661781 4.54524363e-10 -0.23717165 -0.00353488605 -0.0318727791 -0.216205046 0.00035525416 -0.0109534701 -0.224911556 0.0154450377 -0.0282751918 -0.190071315 0.00535735441 -0.0412630811 -0.178837091 0.0154450377 -0.0282751918 -0.190071315 0.0143256756 -0.0365525857 -0.151772171 -0.000931030314 -0.0416050963 -0.144650117 0.0143256756 -0.0365525857 -0.151772171 0.0123159466 -0.0364932306 -0.122750014 -0.00280004926 -0.0394999869 -0.122750118 -0.000931030314 -0.0416050963 -0.144650117 0.0123159466 -0.0364932306 -0.122750014 -0.00280004926 -0.0394999869 -0.122750118 -0.0172553286 -0.0395630598 -0.137485847 -0.000931030314 -0.0416050963 -0.144650117 -0.00280004926 -0.0394999869 -0.122750118 -0.0179160442 -0.0364932306 -0.122750103 -0.0172553286 -0.0395630598 -0.137485847 -0.0172553286 -0.0395630598 -0.137485847 -0.0179160442 -0.0364932306 -0.122750103 -0.0305299778 -0.030598281 -0.130879924 -0.0213674642 -0.0446417518 -0.150987983 -0.0305299778 -0.030598281 -0.130879924 -0.0325237587 -0.0345177501 -0.138144344 -0.0284076165 -0.0504317582 -0.161652669 -0.0325237587 -0.0345177501 -0.138144344 -0.0361157767 -0.0389861837 -0.143776745 -0.0368014649 -0.0540040433 -0.167066067 -0.0361157767 -0.0389861837 -0.143776745 -0.0406017639 -0.0417430997 -0.146598071 -0.0453000516 -0.0535850003 -0.164554387 -0.0406017639 -0.0417430997 -0.146598071 -0.045300059 -0.0410121903 -0.145737842 -0.0453000516 -0.0535850003 -0.164554387 -0.0368014649 -0.0540040433 -0.167066067 -0.0406017639 -0.0417430997 -0.146598071 -0.0453000516 -0.0535850003 -0.164554387 -0.0453000478 -0.0579999946 -0.186750025 -0.0368014649 -0.0540040433 -0.167066067 -0.0368014649 -0.0540040433 -0.167066067 -0.0453000478 -0.0579999946 -0.186750025 -0.0324584432 -0.0567069463 -0.189320251 -0.0284076165 -0.0504317582 -0.161652669 -0.0324584432 -0.0567069463 -0.189320251 -0.0191272367 -0.0529711805 -0.181080222 -0.0213674642 -0.0446417518 -0.150987983 -0.0191272367 -0.0529711805 -0.181080222 -0.00748585397 -0.0469162017 -0.164934292 -0.0172553286 -0.0395630598 -0.137485847 -0.00748585397 -0.0469162017 -0.164934292 -0.000931030314 -0.0416050963 -0.144650117 -0.0172553286 -0.0395630598 -0.137485847 -0.0213674642 -0.0446417518 -0.150987983 -0.00748585397 -0.0469162017 -0.164934292 -0.0172553286 -0.0395630598 -0.137485847 -0.0305299778 -0.030598281 -0.130879924 -0.0213674642 -0.0446417518 -0.150987983 -0.0453000516 -0.0221956391 -0.240335032 -0.0249464046 -0.0340924002 -0.229616955 -0.0453000553 -0.0410121866 -0.227762237 -0.0453000516 -0.0221956391 -0.240335032 -0.0230755955 -0.0116770258 -0.239601359 -0.0249464046 -0.0340924002 -0.229616955 -0.0249464046 -0.0340924002 -0.229616955 -0.0230755955 -0.0116770258 -0.239601359 -0.00353488605 -0.0318727791 -0.216205046 -0.0104159918 -0.0466333367 -0.200484648 -0.00353488605 -0.0318727791 -0.216205046 0.00535735441 -0.0412630811 -0.178837091 -0.00748585397 -0.0469162017 -0.164934292 0.00535735441 -0.0412630811 -0.178837091 -0.000931030314 -0.0416050963 -0.144650117 -0.00748585397 -0.0469162017 -0.164934292 -0.0104159918 -0.0466333367 -0.200484648 0.00535735441 -0.0412630811 -0.178837091 -0.00748585397 -0.0469162017 -0.164934292 -0.0191272367 -0.0529711805 -0.181080222 -0.0104159918 -0.0466333367 -0.200484648 -0.0104159918 -0.0466333367 -0.200484648 -0.0191272367 -0.0529711805 -0.181080222 -0.028273901 -0.0499466471 -0.211569026 -0.0249464046 -0.0340924002 -0.229616955 -0.028273901 -0.0499466471 -0.211569026 -0.0453000553 -0.0410121866 -0.227762237 -0.0249464046 -0.0340924002 -0.229616955 -0.0104159918 -0.0466333367 -0.200484648 -0.028273901 -0.0499466471 -0.211569026 -0.0249464046 -0.0340924002 -0.229616955 -0.00353488605 -0.0318727791 -0.216205046 -0.0104159918 -0.0466333367 -0.200484648 0.00035525416 -0.0109534701 -0.224911556 0.00202579261 -0.00340670464 -0.224671289 0.0183368959 3.83564025e-09 -0.203636169 0.0211796891 -0.00978071988 -0.196307391 0.0183368959 3.83564025e-09 -0.203636169 0.0293384418 5.93669958e-09 -0.178821966 0.0331072509 -0.00875204429 -0.160698771 0.0293384418 5.93669958e-09 -0.178821966 0.0366999395 1.01638067e-08 -0.122750044 0.0336931907 -0.0151159838 -0.122750044 0.0331072509 -0.00875204429 -0.160698771 0.0366999395 1.01638067e-08 -0.122750044 0.0336931907 -0.0151159838 -0.122750044 0.0262825508 -0.0251195747 -0.157505736 0.0331072509 -0.00875204429 -0.160698771 0.0336931907 -0.0151159838 -0.122750044 0.0251306668 -0.0279307067 -0.122750029 0.0262825508 -0.0251195747 -0.157505736 0.0262825508 -0.0251195747 -0.157505736 0.0251306668 -0.0279307067 -0.122750029 0.0143256756 -0.0365525857 -0.151772171 0.0154450377 -0.0282751918 -0.190071315 0.0262825508 -0.0251195747 -0.157505736 0.0143256756 -0.0365525857 -0.151772171 0.0154450377 -0.0282751918 -0.190071315 0.0211796891 -0.00978071988 -0.196307391 0.0262825508 -0.0251195747 -0.157505736 0.0154450377 -0.0282751918 -0.190071315 0.00035525416 -0.0109534701 -0.224911556 0.0211796891 -0.00978071988 -0.196307391 0.0211796891 -0.00978071988 -0.196307391 0.00035525416 -0.0109534701 -0.224911556 0.0183368959 3.83564025e-09 -0.203636169 0.0251306668 -0.0279307067 -0.122750029 0.0123159466 -0.0364932306 -0.122750014 0.0143256756 -0.0365525857 -0.151772171 -0.0179160442 -0.0364932306 -0.122750103 -0.0307307672 -0.0279307123 -0.122750081 -0.0305299778 -0.030598281 -0.130879924 -0.0305299778 -0.030598281 -0.130879924 -0.0307307672 -0.0279307123 -0.122750081 -0.0393751897 -0.016492296 -0.126293331 -0.0325237587 -0.0345177501 -0.138144344 -0.0393751897 -0.016492296 -0.126293331 -0.0400672927 -0.0184957609 -0.129422337 -0.0361157767 -0.0389861837 -0.143776745 -0.0400672927 -0.0184957609 -0.129422337 -0.0414352678 -0.020779822 -0.131826535 -0.0406017639 -0.0417430997 -0.146598071 -0.0414352678 -0.020779822 -0.131826535 -0.0432755873 -0.0221890341 -0.133022919 -0.045300059 -0.0410121903 -0.145737842 -0.0432755873 -0.0221890341 -0.133022919 -0.0453000553 -0.0221956354 -0.133164957 -0.045300059 -0.0410121903 -0.145737842 -0.0406017639 -0.0417430997 -0.146598071 -0.0432755873 -0.0221890341 -0.133022919 -0.0307307672 -0.0279307123 -0.122750081 -0.0392932855 -0.0151159875 -0.122750074 -0.0393751897 -0.016492296 -0.126293331 -0.0393751897 -0.016492296 -0.126293331 -0.0392932855 -0.0151159875 -0.122750074 -0.0423000567 7.81541321e-09 -0.122750059 -0.0429303385 7.51036922e-09 -0.126754895 -0.0393751897 -0.016492296 -0.126293331 -0.0423000567 7.81541321e-09 -0.122750059 -0.0429303385 7.51036922e-09 -0.126754895 -0.0400672927 -0.0184957609 -0.129422337 -0.0393751897 -0.016492296 -0.126293331 -0.0429303385 7.51036922e-09 -0.126754895 -0.0414352678 -0.020779822 -0.131826535 -0.0400672927 -0.0184957609 -0.129422337 -0.0429303385 7.51036922e-09 -0.126754895 -0.0433069468 7.44171569e-09 -0.127558067 -0.0414352678 -0.020779822 -0.131826535 -0.0414352678 -0.020779822 -0.131826535 -0.0433069468 7.44171569e-09 -0.127558067 -0.0438133702 7.38156691e-09 -0.12818934 -0.0432755873 -0.0221890341 -0.133022919 -0.0438133702 7.38156691e-09 -0.12818934 -0.0444707125 7.33255634e-09 -0.128602102 -0.0453000553 -0.0221956354 -0.133164957 -0.0444707125 7.33255634e-09 -0.128602102 -0.0453000516 7.29734095e-09 -0.128749982 -0.0453000553 -0.0221956354 -0.133164957 -0.0432755873 -0.0221890341 -0.133022919 -0.0444707125 7.33255634e-09 -0.128602102 -0.0453000478 -0.0579999946 -0.186750025 -0.0453000553 -0.0535850078 -0.208945632 -0.0324584432 -0.0567069463 -0.189320251 -0.0324584432 -0.0567069463 -0.189320251 -0.0453000553 -0.0535850078 -0.208945632 -0.028273901 -0.0499466471 -0.211569026 -0.0191272367 -0.0529711805 -0.181080222 -0.0324584432 -0.0567069463 -0.189320251 -0.028273901 -0.0499466471 -0.211569026 -0.0361157767 -0.0389861837 -0.143776745 -0.0368014649 -0.0540040433 -0.167066067 -0.0284076165 -0.0504317582 -0.161652669 -0.0284076165 -0.0504317582 -0.161652669 -0.0368014649 -0.0540040433 -0.167066067 -0.0324584432 -0.0567069463 -0.189320251 -0.028273901 -0.0499466471 -0.211569026 -0.0453000553 -0.0535850078 -0.208945632 -0.0453000553 -0.0410121866 -0.227762237 0.00035525416 -0.0109534701 -0.224911556 -0.00353488605 -0.0318727791 -0.216205046 -0.0230755955 -0.0116770258 -0.239601359 -0.0325237587 -0.0345177501 -0.138144344 -0.0284076165 -0.0504317582 -0.161652669 -0.0213674642 -0.0446417518 -0.150987983 -0.0213674642 -0.0446417518 -0.150987983 -0.0284076165 -0.0504317582 -0.161652669 -0.0191272367 -0.0529711805 -0.181080222 -0.0361157767 -0.0389861837 -0.143776745 -0.0414352678 -0.020779822 -0.131826535 -0.0406017639 -0.0417430997 -0.146598071 -0.0432755873 -0.0221890341 -0.133022919 -0.0414352678 -0.020779822 -0.131826535 -0.0438133702 7.38156691e-09 -0.12818934 0.0154450377 -0.0282751918 -0.190071315 0.00535735441 -0.0412630811 -0.178837091 -0.00353488605 -0.0318727791 -0.216205046 -0.0325237587 -0.0345177501 -0.138144344 -0.0400672927 -0.0184957609 -0.129422337 -0.0361157767 -0.0389861837 -0.143776745 0.0293384418 5.93669958e-09 -0.178821966 0.0331072509 -0.00875204429 -0.160698771 0.0211796891 -0.00978071988 -0.196307391 0.0211796891 -0.00978071988 -0.196307391 0.0331072509 -0.00875204429 -0.160698771 0.0262825508 -0.0251195747 -0.157505736 0.0143256756 -0.0365525857 -0.151772171 -0.000931030314 -0.0416050963 -0.144650117 0.00535735441 -0.0412630811 -0.178837091 -0.0305299778 -0.030598281 -0.130879924 -0.0393751897 -0.016492296 -0.126293331 -0.0325237587 -0.0345177501 -0.138144344 -0.00280005066 -0.0393250138 -0.120750085 -0.0178490803 -0.0363315716 -0.12075007 -0.00280004926 -0.0394999869 -0.122750118 -0.00280004926 -0.0394999869 -0.122750118 -0.0178490803 -0.0363315716 -0.12075007 -0.0179160442 -0.0364932306 -0.122750103 -0.0179160442 -0.0364932306 -0.122750103 -0.0178490803 -0.0363315716 -0.12075007 -0.0306070298 -0.0278069843 -0.120750047 -0.0307307672 -0.0279307123 -0.122750081 -0.0306070298 -0.0278069843 -0.120750047 -0.0391316302 -0.0150490254 -0.12075004 -0.0392932855 -0.0151159875 -0.122750074 -0.0391316302 -0.0150490254 -0.12075004 -0.0421250761 7.96362798e-09 -0.120750025 -0.0423000567 7.81541321e-09 -0.122750059 -0.0421250761 7.96362798e-09 -0.120750025 -0.0391316414 0.0150490412 -0.120750025 -0.0392932892 0.0151160005 -0.122750059 -0.0391316414 0.0150490412 -0.120750025 -0.0306070372 0.0278069936 -0.12075004 -0.0307307728 0.0279307198 -0.122750074 -0.0306070372 0.0278069936 -0.12075004 -0.017849084 0.036331594 -0.120750055 -0.0179160442 0.036493253 -0.122750089 -0.017849084 0.036331594 -0.120750055 -0.00280005182 0.0393250361 -0.12075007 -0.00280005229 0.0395000093 -0.122750103 -0.0179160442 0.036493253 -0.122750089 -0.00280005182 0.0393250361 -0.12075007 -0.0179160442 0.036493253 -0.122750089 -0.0307307728 0.0279307198 -0.122750074 -0.017849084 0.036331594 -0.120750055 -0.0307307728 0.0279307198 -0.122750074 -0.0392932892 0.0151160005 -0.122750059 -0.0306070372 0.0278069936 -0.12075004 -0.0392932892 0.0151160005 -0.122750059 -0.0423000567 7.81541321e-09 -0.122750059 -0.0391316414 0.0150490412 -0.120750025 -0.0423000567 7.81541321e-09 -0.122750059 -0.0392932855 -0.0151159875 -0.122750074 -0.0421250761 7.96362798e-09 -0.120750025 -0.0392932855 -0.0151159875 -0.122750074 -0.0307307672 -0.0279307123 -0.122750081 -0.0391316302 -0.0150490254 -0.12075004 -0.0307307672 -0.0279307123 -0.122750081 -0.0179160442 -0.0364932306 -0.122750103 -0.0306070298 -0.0278069843 -0.120750047 -0.0453000478 -0.0579999946 -0.186750025 -0.0538500436 -0.0579999983 -0.18675001 -0.0453000553 -0.0535850078 -0.208945632 -0.0453000553 -0.0535850078 -0.208945632 -0.0538500436 -0.0579999983 -0.18675001 -0.0538500436 -0.0535850041 -0.208945617 -0.0453000553 -0.0410121866 -0.227762237 -0.0538500436 -0.0535850041 -0.208945617 -0.053850051 -0.0410121903 -0.227762237 -0.0453000516 -0.0221956391 -0.240335032 -0.053850051 -0.0410121903 -0.227762237 -0.0538500398 -0.0221956391 -0.240335017 -0.0453000516 -9.9484232e-10 -0.244749978 -0.0538500398 -0.0221956391 -0.240335017 -0.0538500324 -1.2490553e-09 -0.244749963 -0.045300059 0.0221956391 -0.240335032 -0.0538500324 -1.2490553e-09 -0.244749963 -0.0538500473 0.0221956391 -0.240335017 -0.045300059 0.041012194 -0.227762237 -0.0538500473 0.0221956391 -0.240335017 -0.0538500398 0.0410121903 -0.227762252 -0.0453000516 0.0535850115 -0.208945617 -0.0538500398 0.0410121903 -0.227762252 -0.0538500473 0.053585019 -0.208945692 -0.0453000553 0.0580000021 -0.186749995 -0.0538500473 0.053585019 -0.208945692 -0.0538500436 0.0579999983 -0.186749995 -0.0453000553 0.0580000021 -0.186749995 -0.0453000516 0.0535850115 -0.208945617 -0.0538500473 0.053585019 -0.208945692 -0.0453000516 0.0535850115 -0.208945617 -0.045300059 0.041012194 -0.227762237 -0.0538500398 0.0410121903 -0.227762252 -0.045300059 0.041012194 -0.227762237 -0.045300059 0.0221956391 -0.240335032 -0.0538500473 0.0221956391 -0.240335017 -0.045300059 0.0221956391 -0.240335032 -0.0453000516 -9.9484232e-10 -0.244749978 -0.0538500324 -1.2490553e-09 -0.244749963 -0.0453000516 -9.9484232e-10 -0.244749978 -0.0453000516 -0.0221956391 -0.240335032 -0.0538500398 -0.0221956391 -0.240335017 -0.0453000516 -0.0221956391 -0.240335032 -0.0453000553 -0.0410121866 -0.227762237 -0.053850051 -0.0410121903 -0.227762237 -0.0453000553 -0.0410121866 -0.227762237 -0.0453000553 -0.0535850078 -0.208945632 -0.0538500436 -0.0535850041 -0.208945617 -0.0453000553 0.0580000021 -0.186749995 -0.0538500436 0.0579999983 -0.186749995 -0.0453000553 0.053585019 -0.164554372 -0.0453000553 0.053585019 -0.164554372 -0.0538500436 0.0579999983 -0.186749995 -0.0538500361 0.0535850152 -0.164554358 -0.0453000478 0.0410121903 -0.145737842 -0.0538500361 0.0535850152 -0.164554358 -0.0538500436 0.0410122015 -0.145737827 -0.045300059 0.0221956428 -0.133164957 -0.0538500436 0.0410122015 -0.145737827 -0.0538500398 0.0221956428 -0.133164942 -0.0453000516 7.29734095e-09 -0.128749982 -0.0538500398 0.0221956428 -0.133164942 -0.0538500398 7.04317715e-09 -0.128749967 -0.0453000553 -0.0221956354 -0.133164957 -0.0538500398 7.04317715e-09 -0.128749967 -0.053850051 -0.0221956354 -0.133164942 -0.045300059 -0.0410121903 -0.145737842 -0.053850051 -0.0221956354 -0.133164942 -0.0538500473 -0.0410121791 -0.145737842 -0.0453000516 -0.0535850003 -0.164554387 -0.0538500473 -0.0410121791 -0.145737842 -0.0538500473 -0.0535850041 -0.164554372 -0.0453000478 -0.0579999946 -0.186750025 -0.0538500473 -0.0535850041 -0.164554372 -0.0538500436 -0.0579999983 -0.18675001 -0.0453000478 -0.0579999946 -0.186750025 -0.0453000516 -0.0535850003 -0.164554387 -0.0538500473 -0.0535850041 -0.164554372 -0.0453000516 -0.0535850003 -0.164554387 -0.045300059 -0.0410121903 -0.145737842 -0.0538500473 -0.0410121791 -0.145737842 -0.045300059 -0.0410121903 -0.145737842 -0.0453000553 -0.0221956354 -0.133164957 -0.053850051 -0.0221956354 -0.133164942 -0.0453000553 -0.0221956354 -0.133164957 -0.0453000516 7.29734095e-09 -0.128749982 -0.0538500398 7.04317715e-09 -0.128749967 -0.0453000516 7.29734095e-09 -0.128749982 -0.045300059 0.0221956428 -0.133164957 -0.0538500398 0.0221956428 -0.133164942 -0.045300059 0.0221956428 -0.133164957 -0.0453000478 0.0410121903 -0.145737842 -0.0538500436 0.0410122015 -0.145737827 -0.0453000478 0.0410121903 -0.145737842 -0.0453000553 0.053585019 -0.164554372 -0.0538500361 0.0535850152 -0.164554358 0.0335315317 -0.0150490236 -0.12075001 0.0335315242 0.0150490422 -0.120749995 0.0250069331 -0.0278069805 -0.120749995 0.0335315317 -0.0150490236 -0.12075001 0.0365249664 1.03013962e-08 -0.12075001 0.0335315242 0.0150490422 -0.120749995 0.0250069331 -0.0278069805 -0.120749995 0.0250069369 0.0278069954 -0.120749988 0.0122489827 -0.0363315716 -0.12074998 0.0250069331 -0.0278069805 -0.120749995 0.0335315242 0.0150490422 -0.120749995 0.0250069369 0.0278069954 -0.120749988 0.0250069369 0.0278069954 -0.120749988 0.0122489827 0.036331594 -0.120750085 0.0122489827 -0.0363315716 -0.12074998 0.0122489827 -0.0363315716 -0.12074998 0.0122489827 0.036331594 -0.120750085 -0.00280005066 -0.0393250138 -0.120750085 -0.00280005066 -0.0393250138 -0.120750085 0.0122489827 0.036331594 -0.120750085 -0.00280005182 0.0393250361 -0.12075007 -0.0178490803 -0.0363315716 -0.12075007 -0.00280005182 0.0393250361 -0.12075007 -0.017849084 0.036331594 -0.120750055 -0.0306070298 -0.0278069843 -0.120750047 -0.017849084 0.036331594 -0.120750055 -0.0306070372 0.0278069936 -0.12075004 -0.0391316302 -0.0150490254 -0.12075004 -0.0306070372 0.0278069936 -0.12075004 -0.0391316414 0.0150490412 -0.120750025 -0.0421250761 7.96362798e-09 -0.120750025 -0.0391316302 -0.0150490254 -0.12075004 -0.0391316414 0.0150490412 -0.120750025 -0.0391316302 -0.0150490254 -0.12075004 -0.0306070298 -0.0278069843 -0.120750047 -0.0306070372 0.0278069936 -0.12075004 -0.0306070298 -0.0278069843 -0.120750047 -0.0178490803 -0.0363315716 -0.12075007 -0.017849084 0.036331594 -0.120750055 -0.0178490803 -0.0363315716 -0.12075007 -0.00280005066 -0.0393250138 -0.120750085 -0.00280005182 0.0393250361 -0.12075007 -0.00280005182 0.0393250361 -0.12075007 0.0122489827 0.036331594 -0.120750085 -0.00280005229 0.0395000093 -0.122750103 -0.00280005229 0.0395000093 -0.122750103 0.0122489827 0.036331594 -0.120750085 0.0123159448 0.036493253 -0.122750118 0.0123159448 0.036493253 -0.122750118 0.0122489827 0.036331594 -0.120750085 0.0250069369 0.0278069954 -0.120749988 0.0251306575 0.0279307254 -0.122750022 0.0250069369 0.0278069954 -0.120749988 0.0335315242 0.0150490422 -0.120749995 0.0336931832 0.0151160043 -0.122750029 0.0335315242 0.0150490422 -0.120749995 0.0365249664 1.03013962e-08 -0.12075001 0.0366999395 1.01638067e-08 -0.122750044 0.0365249664 1.03013962e-08 -0.12075001 0.0335315317 -0.0150490236 -0.12075001 0.0336931907 -0.0151159838 -0.122750044 0.0335315317 -0.0150490236 -0.12075001 0.0250069331 -0.0278069805 -0.120749995 0.0251306668 -0.0279307067 -0.122750029 0.0250069331 -0.0278069805 -0.120749995 0.0122489827 -0.0363315716 -0.12074998 0.0123159466 -0.0364932306 -0.122750014 0.0122489827 -0.0363315716 -0.12074998 -0.00280005066 -0.0393250138 -0.120750085 -0.00280004926 -0.0394999869 -0.122750118 0.0123159466 -0.0364932306 -0.122750014 -0.00280005066 -0.0393250138 -0.120750085 0.0123159466 -0.0364932306 -0.122750014 0.0251306668 -0.0279307067 -0.122750029 0.0122489827 -0.0363315716 -0.12074998 0.0251306668 -0.0279307067 -0.122750029 0.0336931907 -0.0151159838 -0.122750044 0.0250069331 -0.0278069805 -0.120749995 0.0336931907 -0.0151159838 -0.122750044 0.0366999395 1.01638067e-08 -0.122750044 0.0335315317 -0.0150490236 -0.12075001 0.0366999395 1.01638067e-08 -0.122750044 0.0336931832 0.0151160043 -0.122750029 0.0365249664 1.03013962e-08 -0.12075001 0.0336931832 0.0151160043 -0.122750029 0.0251306575 0.0279307254 -0.122750022 0.0335315242 0.0150490422 -0.120749995 0.0251306575 0.0279307254 -0.122750022 0.0123159448 0.036493253 -0.122750118 0.0250069369 0.0278069954 -0.120749988 -0.0453000516 -9.9484232e-10 -0.244749978 -0.045300059 0.0221956391 -0.240335032 -0.0292596389 -3.77185033e-10 -0.242779464 -0.0292596389 -3.77185033e-10 -0.242779464 -0.045300059 0.0221956391 -0.240335032 -0.0231301673 0.012989087 -0.239314526 -0.0147661781 4.54524363e-10 -0.23717165 -0.0292596389 -3.77185033e-10 -0.242779464 -0.0231301673 0.012989087 -0.239314526 -0.0231301673 0.012989087 -0.239314526 -0.045300059 0.0221956391 -0.240335032 -0.0250139292 0.0345813408 -0.22925204 0.000241273345 0.012181621 -0.224661171 -0.0250139292 0.0345813408 -0.22925204 -0.0036747593 0.0323277228 -0.21588707 0.021010926 0.0108728725 -0.196127623 -0.0036747593 0.0323277228 -0.21588707 0.0152396327 0.0286750179 -0.189844161 0.0329057761 0.00972490758 -0.160606429 0.0152396327 0.0286750179 -0.189844161 0.0260387883 0.0254710615 -0.157389566 0.0336931832 0.0151160043 -0.122750029 0.0260387883 0.0254710615 -0.157389566 0.0251306575 0.0279307254 -0.122750022 0.0336931832 0.0151160043 -0.122750029 0.0329057761 0.00972490758 -0.160606429 0.0260387883 0.0254710615 -0.157389566 0.0336931832 0.0151160043 -0.122750029 0.0366999395 1.01638067e-08 -0.122750044 0.0329057761 0.00972490758 -0.160606429 0.0329057761 0.00972490758 -0.160606429 0.0366999395 1.01638067e-08 -0.122750044 0.0293384418 5.93669958e-09 -0.178821966 0.021010926 0.0108728725 -0.196127623 0.0293384418 5.93669958e-09 -0.178821966 0.0183368959 3.83564025e-09 -0.203636169 0.000241273345 0.012181621 -0.224661171 0.0183368959 3.83564025e-09 -0.203636169 0.00204495294 0.00336845149 -0.224655882 -0.0453000478 0.0410121903 -0.145737842 -0.040832676 0.0405571833 -0.145370796 -0.0453000553 0.053585019 -0.164554372 -0.0453000478 0.0410121903 -0.145737842 -0.045300059 0.0221956428 -0.133164957 -0.040832676 0.0405571833 -0.145370796 -0.040832676 0.0405571833 -0.145370796 -0.045300059 0.0221956428 -0.133164957 -0.0434031598 0.020728739 -0.132433489 -0.0365792885 0.0378837511 -0.142702416 -0.0434031598 0.020728739 -0.132433489 -0.0416838452 0.0194165539 -0.131301001 -0.0331873111 0.0335506089 -0.137369007 -0.0416838452 0.0194165539 -0.131301001 -0.0404118448 0.0172897391 -0.129029229 -0.031313315 0.0297497883 -0.130478472 -0.0404118448 0.0172897391 -0.129029229 -0.0397724435 0.0154242059 -0.126079693 -0.0307307728 0.0279307198 -0.122750074 -0.0397724435 0.0154242059 -0.126079693 -0.0392932892 0.0151160005 -0.122750059 -0.0307307728 0.0279307198 -0.122750074 -0.031313315 0.0297497883 -0.130478472 -0.0397724435 0.0154242059 -0.126079693 -0.0307307728 0.0279307198 -0.122750074 -0.0179160442 0.036493253 -0.122750089 -0.031313315 0.0297497883 -0.130478472 -0.031313315 0.0297497883 -0.130478472 -0.0179160442 0.036493253 -0.122750089 -0.0185383931 0.0390421487 -0.13685976 -0.0331873111 0.0335506089 -0.137369007 -0.0185383931 0.0390421487 -0.13685976 -0.0224408526 0.0440589674 -0.149767905 -0.0365792885 0.0378837511 -0.142702416 -0.0224408526 0.0440589674 -0.149767905 -0.0291444492 0.0497784391 -0.159951776 -0.040832676 0.0405571833 -0.145370796 -0.0291444492 0.0497784391 -0.159951776 -0.0371624455 0.0533072017 -0.165116921 -0.0453000553 0.053585019 -0.164554372 -0.0371624455 0.0533072017 -0.165116921 -0.0453000553 0.0580000021 -0.186749995 -0.0453000553 0.053585019 -0.164554372 -0.040832676 0.0405571833 -0.145370796 -0.0371624455 0.0533072017 -0.165116921 -0.0453000553 0.0580000021 -0.186749995 -0.0326473713 0.0567764603 -0.188396528 -0.0453000516 0.0535850115 -0.208945617 -0.0453000553 0.0580000021 -0.186749995 -0.0371624455 0.0533072017 -0.165116921 -0.0326473713 0.0567764603 -0.188396528 -0.0326473713 0.0567764603 -0.188396528 -0.0371624455 0.0533072017 -0.165116921 -0.0195461549 0.05303666 -0.180275425 -0.0106209917 0.0469056256 -0.20002012 -0.0195461549 0.05303666 -0.180275425 0.00505634677 0.0415045731 -0.17850484 0.0152396327 0.0286750179 -0.189844161 0.00505634677 0.0415045731 -0.17850484 0.0260387883 0.0254710615 -0.157389566 0.0152396327 0.0286750179 -0.189844161 -0.0106209917 0.0469056256 -0.20002012 0.00505634677 0.0415045731 -0.17850484 0.0152396327 0.0286750179 -0.189844161 -0.0036747593 0.0323277228 -0.21588707 -0.0106209917 0.0469056256 -0.20002012 -0.0106209917 0.0469056256 -0.20002012 -0.0036747593 0.0323277228 -0.21588707 -0.0283728708 0.0502379201 -0.211035937 -0.0326473713 0.0567764603 -0.188396528 -0.0283728708 0.0502379201 -0.211035937 -0.0453000516 0.0535850115 -0.208945617 -0.0326473713 0.0567764603 -0.188396528 -0.0106209917 0.0469056256 -0.20002012 -0.0283728708 0.0502379201 -0.211035937 -0.0326473713 0.0567764603 -0.188396528 -0.0195461549 0.05303666 -0.180275425 -0.0106209917 0.0469056256 -0.20002012 -0.045300059 0.0221956428 -0.133164957 -0.0453000516 7.29734095e-09 -0.128749982 -0.0434031598 0.020728739 -0.132433489 -0.0434031598 0.020728739 -0.132433489 -0.0453000516 7.29734095e-09 -0.128749982 -0.0444707125 7.33255634e-09 -0.128602102 -0.0438133702 7.38156691e-09 -0.12818934 -0.0434031598 0.020728739 -0.132433489 -0.0444707125 7.33255634e-09 -0.128602102 -0.0438133702 7.38156691e-09 -0.12818934 -0.0416838452 0.0194165539 -0.131301001 -0.0434031598 0.020728739 -0.132433489 -0.0438133702 7.38156691e-09 -0.12818934 -0.0433069468 7.44171569e-09 -0.127558067 -0.0416838452 0.0194165539 -0.131301001 -0.0416838452 0.0194165539 -0.131301001 -0.0433069468 7.44171569e-09 -0.127558067 -0.0429303385 7.51036922e-09 -0.126754895 -0.0404118448 0.0172897391 -0.129029229 -0.0429303385 7.51036922e-09 -0.126754895 -0.0397724435 0.0154242059 -0.126079693 -0.0404118448 0.0172897391 -0.129029229 -0.0416838452 0.0194165539 -0.131301001 -0.0429303385 7.51036922e-09 -0.126754895 -0.0429303385 7.51036922e-09 -0.126754895 -0.0423000567 7.81541321e-09 -0.122750059 -0.0397724435 0.0154242059 -0.126079693 -0.0397724435 0.0154242059 -0.126079693 -0.0423000567 7.81541321e-09 -0.122750059 -0.0392932892 0.0151160005 -0.122750059 -0.0179160442 0.036493253 -0.122750089 -0.00280005229 0.0395000093 -0.122750103 -0.0185383931 0.0390421487 -0.13685976 -0.0185383931 0.0390421487 -0.13685976 -0.00280005229 0.0395000093 -0.122750103 -0.00166995614 0.041658327 -0.144356012 -0.0224408526 0.0440589674 -0.149767905 -0.00166995614 0.041658327 -0.144356012 -0.00812427513 0.0469751507 -0.164358661 -0.0291444492 0.0497784391 -0.159951776 -0.00812427513 0.0469751507 -0.164358661 -0.0195461549 0.05303666 -0.180275425 -0.0371624455 0.0533072017 -0.165116921 -0.0291444492 0.0497784391 -0.159951776 -0.0195461549 0.05303666 -0.180275425 -0.00280005229 0.0395000093 -0.122750103 0.0123159448 0.036493253 -0.122750118 -0.00166995614 0.041658327 -0.144356012 -0.00166995614 0.041658327 -0.144356012 0.0123159448 0.036493253 -0.122750118 0.0139685441 0.0367670581 -0.151602402 -0.00812427513 0.0469751507 -0.164358661 0.0139685441 0.0367670581 -0.151602402 0.00505634677 0.0415045731 -0.17850484 -0.0195461549 0.05303666 -0.180275425 -0.00812427513 0.0469751507 -0.164358661 0.00505634677 0.0415045731 -0.17850484 0.0123159448 0.036493253 -0.122750118 0.0251306575 0.0279307254 -0.122750022 0.0139685441 0.0367670581 -0.151602402 0.0139685441 0.0367670581 -0.151602402 0.0251306575 0.0279307254 -0.122750022 0.0260387883 0.0254710615 -0.157389566 0.00505634677 0.0415045731 -0.17850484 0.0139685441 0.0367670581 -0.151602402 0.0260387883 0.0254710615 -0.157389566 -0.0231301673 0.012989087 -0.239314526 -0.0250139292 0.0345813408 -0.22925204 0.000241273345 0.012181621 -0.224661171 -0.0036747593 0.0323277228 -0.21588707 -0.0250139292 0.0345813408 -0.22925204 -0.0283728708 0.0502379201 -0.211035937 -0.0283728708 0.0502379201 -0.211035937 -0.0250139292 0.0345813408 -0.22925204 -0.045300059 0.041012194 -0.227762237 -0.0453000516 0.0535850115 -0.208945617 -0.0283728708 0.0502379201 -0.211035937 -0.045300059 0.041012194 -0.227762237 -0.0291444492 0.0497784391 -0.159951776 -0.040832676 0.0405571833 -0.145370796 -0.0365792885 0.0378837511 -0.142702416 -0.0365792885 0.0378837511 -0.142702416 -0.040832676 0.0405571833 -0.145370796 -0.0434031598 0.020728739 -0.132433489 -0.0224408526 0.0440589674 -0.149767905 -0.0365792885 0.0378837511 -0.142702416 -0.0331873111 0.0335506089 -0.137369007 -0.0331873111 0.0335506089 -0.137369007 -0.0365792885 0.0378837511 -0.142702416 -0.0416838452 0.0194165539 -0.131301001 0.0183368959 3.83564025e-09 -0.203636169 0.000241273345 0.012181621 -0.224661171 0.021010926 0.0108728725 -0.196127623 0.021010926 0.0108728725 -0.196127623 0.000241273345 0.012181621 -0.224661171 -0.0036747593 0.0323277228 -0.21588707 -0.0250139292 0.0345813408 -0.22925204 -0.045300059 0.0221956391 -0.240335032 -0.045300059 0.041012194 -0.227762237 -0.0185383931 0.0390421487 -0.13685976 -0.0331873111 0.0335506089 -0.137369007 -0.031313315 0.0297497883 -0.130478472 -0.031313315 0.0297497883 -0.130478472 -0.0331873111 0.0335506089 -0.137369007 -0.0404118448 0.0172897391 -0.129029229 -0.0224408526 0.0440589674 -0.149767905 -0.00812427513 0.0469751507 -0.164358661 -0.0291444492 0.0497784391 -0.159951776 0.0293384418 5.93669958e-09 -0.178821966 0.021010926 0.0108728725 -0.196127623 0.0329057761 0.00972490758 -0.160606429 0.0329057761 0.00972490758 -0.160606429 0.021010926 0.0108728725 -0.196127623 0.0152396327 0.0286750179 -0.189844161 -0.00166995614 0.041658327 -0.144356012 0.0139685441 0.0367670581 -0.151602402 -0.00812427513 0.0469751507 -0.164358661 -0.0185383931 0.0390421487 -0.13685976 -0.00166995614 0.041658327 -0.144356012 -0.0224408526 0.0440589674 -0.149767905 -0.053850051 -0.0221956354 -0.133164942 -0.0538500398 0.0221956428 -0.133164942 -0.0538500473 -0.0410121791 -0.145737842 -0.053850051 -0.0221956354 -0.133164942 -0.0538500398 7.04317715e-09 -0.128749967 -0.0538500398 0.0221956428 -0.133164942 -0.0538500473 -0.0410121791 -0.145737842 -0.0538500436 0.0410122015 -0.145737827 -0.0538500473 -0.0535850041 -0.164554372 -0.0538500473 -0.0410121791 -0.145737842 -0.0538500398 0.0221956428 -0.133164942 -0.0538500436 0.0410122015 -0.145737827 -0.0538500436 0.0410122015 -0.145737827 -0.0538500361 0.0535850152 -0.164554358 -0.0538500473 -0.0535850041 -0.164554372 -0.0538500473 -0.0535850041 -0.164554372 -0.0538500361 0.0535850152 -0.164554358 -0.0538500436 -0.0579999983 -0.18675001 -0.0538500436 -0.0579999983 -0.18675001 -0.0538500361 0.0535850152 -0.164554358 -0.0538500436 0.0579999983 -0.186749995 -0.0538500436 -0.0535850041 -0.208945617 -0.0538500436 0.0579999983 -0.186749995 -0.0538500473 0.053585019 -0.208945692 -0.053850051 -0.0410121903 -0.227762237 -0.0538500473 0.053585019 -0.208945692 -0.0538500398 0.0410121903 -0.227762252 -0.0538500398 -0.0221956391 -0.240335017 -0.0538500398 0.0410121903 -0.227762252 -0.0538500473 0.0221956391 -0.240335017 -0.0538500324 -1.2490553e-09 -0.244749963 -0.0538500398 -0.0221956391 -0.240335017 -0.0538500473 0.0221956391 -0.240335017 -0.0538500398 -0.0221956391 -0.240335017 -0.053850051 -0.0410121903 -0.227762237 -0.0538500398 0.0410121903 -0.227762252 -0.053850051 -0.0410121903 -0.227762237 -0.0538500436 -0.0535850041 -0.208945617 -0.0538500473 0.053585019 -0.208945692 -0.0538500436 -0.0535850041 -0.208945617 -0.0538500436 -0.0579999983 -0.18675001 -0.0538500436 0.0579999983 -0.186749995 0.00368065224 0.0384577848 -0.148499325 0.0035814154 0.0384743735 -0.148369849 0.00210808287 0.0386899263 -0.148658633 0.00377916079 0.0384410545 -0.148629501 0.00368065224 0.0384577848 -0.148499325 0.00210808287 0.0386899263 -0.148658633 0.000427791994 0.0388661996 -0.148688018 0.00210808287 0.0386899263 -0.148658633 0.0020138165 0.038701769 -0.148560226 0.0020138165 0.038701769 -0.148560226 0.00210808287 0.0386899263 -0.148658633 0.0035814154 0.0384743735 -0.148369849 0.00271575619 0.0387710854 -0.148648083 0.00314921862 0.0386237763 -0.148509502 0.00324828411 0.0386084169 -0.148638785 0.00324828411 0.0386084169 -0.148638785 0.00314921862 0.0386237763 -0.148509502 0.00368065224 0.0384577848 -0.148499325 0.00377916079 0.0384410545 -0.148629501 0.00324828411 0.0386084169 -0.148638785 0.00368065224 0.0384577848 -0.148499325 0.00314921862 0.0386237763 -0.148509502 0.0035814154 0.0384743735 -0.148369849 0.00368065224 0.0384577848 -0.148499325 0.0035814154 0.0384743735 -0.148369849 0.00314921862 0.0386237763 -0.148509502 0.0020138165 0.038701769 -0.148560226 0.0020138165 0.038701769 -0.148560226 0.00314921862 0.0386237763 -0.148509502 0.00271575619 0.0387710854 -0.148648083 0.000427791994 0.0388661996 -0.148688018 0.00271575619 0.0387710854 -0.148648083 0.00157177541 0.0388186648 -0.148668051 0.000427791994 0.0388661996 -0.148688018 0.0020138165 0.038701769 -0.148560226 0.00271575619 0.0387710854 -0.148648083 0.00157177541 0.0388186648 -0.148668051 0.00271575619 0.0387710854 -0.148648083 0.00210808287 0.0386899263 -0.148658633 0.000427791994 0.0388661996 -0.148688018 0.00157177541 0.0388186648 -0.148668051 0.00210808287 0.0386899263 -0.148658633 0.00377916079 0.0384410545 -0.148629501 0.00210808287 0.0386899263 -0.148658633 0.00324828411 0.0386084169 -0.148638785 0.00324828411 0.0386084169 -0.148638785 0.00210808287 0.0386899263 -0.148658633 0.00271575619 0.0387710854 -0.148648083 0.000427794119 -0.0388661772 -0.148688033 0.00210808404 -0.0386899114 -0.148658648 0.00157177786 -0.0388186537 -0.148668066 0.00157177786 -0.0388186537 -0.148668066 0.00210808404 -0.0386899114 -0.148658648 0.00271575688 -0.0387710631 -0.148648113 0.00271575688 -0.0387710631 -0.148648113 0.00210808404 -0.0386899114 -0.148658648 0.0032482876 -0.0386083946 -0.148638815 0.0032482876 -0.0386083946 -0.148638815 0.00210808404 -0.0386899114 -0.148658648 0.00377916545 -0.0384410322 -0.148629516 0.00377916545 -0.0384410322 -0.148629516 0.00368069881 -0.038457755 -0.148499399 0.0032482876 -0.0386083946 -0.148638815 0.0032482876 -0.0386083946 -0.148638815 0.00368069881 -0.038457755 -0.148499399 0.00314920815 -0.0386237614 -0.148509532 0.00271575688 -0.0387710631 -0.148648113 0.0032482876 -0.0386083946 -0.148638815 0.00314920815 -0.0386237614 -0.148509532 0.00368069881 -0.038457755 -0.148499399 0.00358141982 -0.0384743512 -0.148369879 0.00314920815 -0.0386237614 -0.148509532 0.00368069881 -0.038457755 -0.148499399 0.00377916545 -0.0384410322 -0.148629516 0.00358141982 -0.0384743512 -0.148369879 0.00358141982 -0.0384743512 -0.148369879 0.00377916545 -0.0384410322 -0.148629516 0.00210808404 -0.0386899114 -0.148658648 0.00201513735 -0.0387015939 -0.148560122 0.00210808404 -0.0386899114 -0.148658648 0.000427794119 -0.0388661772 -0.148688033 0.00201513735 -0.0387015939 -0.148560122 0.00358141982 -0.0384743512 -0.148369879 0.00210808404 -0.0386899114 -0.148658648 0.00358141982 -0.0384743512 -0.148369879 0.00201513735 -0.0387015939 -0.148560122 0.00314920815 -0.0386237614 -0.148509532 0.00314920815 -0.0386237614 -0.148509532 0.00201513735 -0.0387015939 -0.148560122 0.00271575688 -0.0387710631 -0.148648113 0.00271575688 -0.0387710631 -0.148648113 0.00201513735 -0.0387015939 -0.148560122 0.00157177786 -0.0388186537 -0.148668066 0.00157177786 -0.0388186537 -0.148668066 0.00201513735 -0.0387015939 -0.148560122 0.000427794119 -0.0388661772 -0.148688033 -0.0407818966 0.00885320455 -0.12973167 -0.0356228501 0.0210633259 -0.132933646 -0.0353231281 0.0215232316 -0.130428463 -0.0353231281 0.0215232316 -0.130428463 -0.0356228501 0.0210633259 -0.132933646 -0.0269980803 0.0305852219 -0.137537807 -0.0259767137 0.0313662663 -0.132671386 -0.0269980803 0.0305852219 -0.137537807 -0.0155988773 0.0368400775 -0.14177005 -0.0142158065 0.0372918434 -0.136596724 -0.0155988773 0.0368400775 -0.14177005 -0.0090502752 0.0384959131 -0.143026337 -0.00223842473 0.0389959663 -0.143311858 -0.0142158065 0.0372918434 -0.136596724 -0.0090502752 0.0384959131 -0.143026337 -0.0142158065 0.0372918434 -0.136596724 -0.0259767137 0.0313662663 -0.132671386 -0.0155988773 0.0368400775 -0.14177005 -0.0259767137 0.0313662663 -0.132671386 -0.0353231281 0.0215232316 -0.130428463 -0.0269980803 0.0305852219 -0.137537807 -0.0142158065 0.0372918434 -0.136596724 -0.0168862548 0.0391344167 -0.143781707 -0.0259767137 0.0313662663 -0.132671386 -0.0142158065 0.0372918434 -0.136596724 -0.00223842473 0.0389959663 -0.143311858 -0.0168862548 0.0391344167 -0.143781707 -0.0168862548 0.0391344167 -0.143781707 -0.0237576477 0.0371253081 -0.142190322 -0.0259767137 0.0313662663 -0.132671386 -0.0259767137 0.0313662663 -0.132671386 -0.0237576477 0.0371253081 -0.142190322 -0.0295807533 0.0334905759 -0.139522344 -0.0338392034 0.0274157543 -0.135150701 -0.0295807533 0.0334905759 -0.139522344 -0.0373030379 0.0225790925 -0.133583635 -0.0353231281 0.0215232316 -0.130428463 -0.0373030379 0.0225790925 -0.133583635 -0.0407818966 0.00885320455 -0.12973167 -0.0353231281 0.0215232316 -0.130428463 -0.0338392034 0.0274157543 -0.135150701 -0.0373030379 0.0225790925 -0.133583635 -0.0353231281 0.0215232316 -0.130428463 -0.0259767137 0.0313662663 -0.132671386 -0.0338392034 0.0274157543 -0.135150701 -0.0338392034 0.0274157543 -0.135150701 -0.0259767137 0.0313662663 -0.132671386 -0.0295807533 0.0334905759 -0.139522344 -0.0407818966 0.00885320455 -0.12973167 -0.0373030379 0.0225790925 -0.133583635 -0.0356228501 0.0210633259 -0.132933646 -0.0356228501 0.0210633259 -0.132933646 -0.0373030379 0.0225790925 -0.133583635 -0.0295807533 0.0334905759 -0.139522344 -0.0269980803 0.0305852219 -0.137537807 -0.0295807533 0.0334905759 -0.139522344 -0.0155988773 0.0368400775 -0.14177005 -0.0269980803 0.0305852219 -0.137537807 -0.0356228501 0.0210633259 -0.132933646 -0.0295807533 0.0334905759 -0.139522344 -0.0295807533 0.0334905759 -0.139522344 -0.0237576477 0.0371253081 -0.142190322 -0.0155988773 0.0368400775 -0.14177005 -0.0155988773 0.0368400775 -0.14177005 -0.0237576477 0.0371253081 -0.142190322 -0.0090502752 0.0384959131 -0.143026337 -0.0090502752 0.0384959131 -0.143026337 -0.0237576477 0.0371253081 -0.142190322 -0.0168862548 0.0391344167 -0.143781707 -0.00223842473 0.0389959663 -0.143311858 -0.0090502752 0.0384959131 -0.143026337 -0.0168862548 0.0391344167 -0.143781707 -0.0407819003 -0.00885319151 -0.129731685 -0.0353960544 -0.021412611 -0.130413681 -0.0356831998 -0.0209689755 -0.132897884 -0.0356831998 -0.0209689755 -0.132897884 -0.0353960544 -0.021412611 -0.130413681 -0.0261765197 -0.0312176235 -0.132617816 -0.0271682292 -0.0304498151 -0.137457475 -0.0261765197 -0.0312176235 -0.132617816 -0.0145677477 -0.0371822566 -0.136445642 -0.015953118 -0.0367150605 -0.141675949 -0.0145677477 -0.0371822566 -0.136445642 -0.00280005019 -0.0389999934 -0.143328682 -0.015953118 -0.0367150605 -0.141675949 -0.0271682292 -0.0304498151 -0.137457475 -0.0145677477 -0.0371822566 -0.136445642 -0.0145677477 -0.0371822566 -0.136445642 -0.00280005042 -0.0389999934 -0.142987087 -0.00280005019 -0.0389999934 -0.143328682 -0.0271682292 -0.0304498151 -0.137457475 -0.0356831998 -0.0209689755 -0.132897884 -0.0261765197 -0.0312176235 -0.132617816 -0.00280005042 -0.0389999934 -0.142987087 -0.00251916377 -0.0389989763 -0.14314945 -0.00280005019 -0.0389999934 -0.143328682 -0.00280005019 -0.0389999934 -0.143328682 -0.00251916377 -0.0389989763 -0.14314945 -0.00251932722 -0.0389989838 -0.143321171 -0.00251932722 -0.0389989838 -0.143321171 -0.00251916377 -0.0389989763 -0.14314945 -0.00223842263 -0.038995944 -0.143311873 -0.00223842263 -0.038995944 -0.143311873 -0.00251916377 -0.0389989763 -0.14314945 -0.0168853384 -0.0391345434 -0.1437819 -0.0168853384 -0.0391345434 -0.1437819 -0.00251916377 -0.0389989763 -0.14314945 -0.00280005042 -0.0389999934 -0.142987087 -0.0145677477 -0.0371822566 -0.136445642 -0.0168853384 -0.0391345434 -0.1437819 -0.00280005042 -0.0389999934 -0.142987087 -0.0145677477 -0.0371822566 -0.136445642 -0.0261765197 -0.0312176235 -0.132617816 -0.0168853384 -0.0391345434 -0.1437819 -0.0168853384 -0.0391345434 -0.1437819 -0.0261765197 -0.0312176235 -0.132617816 -0.0237974226 -0.0371076688 -0.142176673 -0.0237974226 -0.0371076688 -0.142176673 -0.0261765197 -0.0312176235 -0.132617816 -0.02961885 -0.0334582478 -0.139500305 -0.02961885 -0.0334582478 -0.139500305 -0.0261765197 -0.0312176235 -0.132617816 -0.0353960544 -0.021412611 -0.130413681 -0.0356862172 -0.0242724922 -0.133623391 -0.0353960544 -0.021412611 -0.130413681 -0.0373136364 -0.0225540791 -0.133573204 -0.02961885 -0.0334582478 -0.139500305 -0.0356862172 -0.0242724922 -0.133623391 -0.0373136364 -0.0225540791 -0.133573204 -0.02961885 -0.0334582478 -0.139500305 -0.0353960544 -0.021412611 -0.130413681 -0.0356862172 -0.0242724922 -0.133623391 -0.0353960544 -0.021412611 -0.130413681 -0.0407819003 -0.00885319151 -0.129731685 -0.0373136364 -0.0225540791 -0.133573204 -0.00251932722 -0.0389989838 -0.143321171 -0.0168853384 -0.0391345434 -0.1437819 -0.00280005019 -0.0389999934 -0.143328682 -0.00251932722 -0.0389989838 -0.143321171 -0.00223842263 -0.038995944 -0.143311873 -0.0168853384 -0.0391345434 -0.1437819 -0.0168853384 -0.0391345434 -0.1437819 -0.0237974226 -0.0371076688 -0.142176673 -0.00280005019 -0.0389999934 -0.143328682 -0.00280005019 -0.0389999934 -0.143328682 -0.0237974226 -0.0371076688 -0.142176673 -0.015953118 -0.0367150605 -0.141675949 -0.015953118 -0.0367150605 -0.141675949 -0.0237974226 -0.0371076688 -0.142176673 -0.02961885 -0.0334582478 -0.139500305 -0.0271682292 -0.0304498151 -0.137457475 -0.02961885 -0.0334582478 -0.139500305 -0.0373136364 -0.0225540791 -0.133573204 -0.0356831998 -0.0209689755 -0.132897884 -0.0373136364 -0.0225540791 -0.133573204 -0.0407819003 -0.00885319151 -0.129731685 -0.0356831998 -0.0209689755 -0.132897884 -0.0271682292 -0.0304498151 -0.137457475 -0.0373136364 -0.0225540791 -0.133573204 -0.0271682292 -0.0304498151 -0.137457475 -0.015953118 -0.0367150605 -0.141675949 -0.02961885 -0.0334582478 -0.139500305 0.00202579261 -0.00340670464 -0.224671289 0.00204495294 0.00336845149 -0.224655882 0.0183368959 3.83564025e-09 -0.203636169 -0.0147661781 4.54524363e-10 -0.23717165 -0.0231301673 0.012989087 -0.239314526 0.00204495294 0.00336845149 -0.224655882 -0.0231301673 0.012989087 -0.239314526 0.000241273345 0.012181621 -0.224661171 0.00204495294 0.00336845149 -0.224655882 -0.0230755955 -0.0116770258 -0.239601359 -0.0147661781 4.54524363e-10 -0.23717165 0.00035525416 -0.0109534701 -0.224911556 -0.0147661781 4.54524363e-10 -0.23717165 0.00202579261 -0.00340670464 -0.224671289 0.00035525416 -0.0109534701 -0.224911556 -0.0147661781 4.54524363e-10 -0.23717165 0.00204495294 0.00336845149 -0.224655882 0.00202579261 -0.00340670464 -0.224671289 </float_array>
          <technique_common>
            <accessor count="1026" offset="0" source="#mesh_0-positions-array" stride="3">
              <param name="X" type="float" />
              <param name="Y" type="float" />
              <param name="Z" type="float" />
            </accessor>
          </technique_common>
        </source>
        <vertices id="mesh_0-vertices">
          <input semantic="POSITION" source="#mesh_0-positions" />
        </vertices>
        <polylist count="342" material="defaultMaterial">
          <input offset="0" semantic="VERTEX" source="#mesh_0-vertices" />
          <vcount>3 3 3 3 3 3 3 3 3 3 3 3 3 3 3 3 3 3 3 3 3 3 3 3 3 3 3 3 3 3 3 3 3 3 3 3 3 3 3 3 3 3 3 3 3 3 3 3 3 3 3 3 3 3 3 3 3 3 3 3 3 3 3 3 3 3 3 3 3 3 3 3 3 3 3 3 3 3 3 3 3 3 3 3 3 3 3 3 3 3 3 3 3 3 3 3 3 3 3 3 3 3 3 3 3 3 3 3 3 3 3 3 3 3 3 3 3 3 3 3 3 3 3 3 3 3 3 3 3 3 3 3 3 3 3 3 3 3 3 3 3 3 3 3 3 3 3 3 3 3 3 3 3 3 3 3 3 3 3 3 3 3 3 3 3 3 3 3 3 3 3 3 3 3 3 3 3 3 3 3 3 3 3 3 3 3 3 3 3 3 3 3 3 3 3 3 3 3 3 3 3 3 3 3 3 3 3 3 3 3 3 3 3 3 3 3 3 3 3 3 3 3 3 3 3 3 3 3 3 3 3 3 3 3 3 3 3 3 3 3 3 3 3 3 3 3 3 3 3 3 3 3 3 3 3 3 3 3 3 3 3 3 3 3 3 3 3 3 3 3 3 3 3 3 3 3 3 3 3 3 3 3 3 3 3 3 3 3 3 3 3 3 3 3 3 3 3 3 3 3 3 3 3 3 3 3 3 3 3 3 3 3 3 3 3 3 3 3 3 3 3 3 3 3 3 3 3 3 3 3 3 3 3 3 3 3 3 3 3 3 3 3 </vcount>
          <p>0 1 2 3 4 5 6 7 8 9 10 11 12 13 14 15 16 17 18 19 20 21 22 23 24 25 26 27 28 29 30 31 32 33 34 35 36 37 38 39 40 41 42 43 44 45 46 47 48 49 50 51 52 53 54 55 56 57 58 59 60 61 62 63 64 65 66 67 68 69 70 71 72 73 74 75 76 77 78 79 80 81 82 83 84 85 86 87 88 89 90 91 92 93 94 95 96 97 98 99 100 101 102 103 104 105 106 107 108 109 110 111 112 113 114 115 116 117 118 119 120 121 122 123 124 125 126 127 128 129 130 131 132 133 134 135 136 137 138 139 140 141 142 143 144 145 146 147 148 149 150 151 152 153 154 155 156 157 158 159 160 161 162 163 164 165 166 167 168 169 170 171 172 173 174 175 176 177 178 179 180 181 182 183 184 185 186 187 188 189 190 191 192 193 194 195 196 197 198 199 200 201 202 203 204 205 206 207 208 209 210 211 212 213 214 215 216 217 218 219 220 221 222 223 224 225 226 227 228 229 230 231 232 233 234 235 236 237 238 239 240 241 242 243 244 245 246 247 248 249 250 251 252 253 254 255 256 257 258 259 260 261 262 263 264 265 266 267 268 269 270 271 272 273 274 275 276 277 278 279 280 281 282 283 284 285 286 287 288 289 290 291 292 293 294 295 296 297 298 299 300 301 302 303 304 305 306 307 308 309 310 311 312 313 314 315 316 317 318 319 320 321 322 323 324 325 326 327 328 329 330 331 332 333 334 335 336 337 338 339 340 341 342 343 344 345 346 347 348 349 350 351 352 353 354 355 356 357 358 359 360 361 362 363 364 365 366 367 368 369 370 371 372 373 374 375 376 377 378 379 380 381 382 383 384 385 386 387 388 389 390 391 392 393 394 395 396 397 398 399 400 401 402 403 404 405 406 407 408 409 410 411 412 413 414 415 416 417 418 419 420 421 422 423 424 425 426 427 428 429 430 431 432 433 434 435 436 437 438 439 440 441 442 443 444 445 446 447 448 449 450 451 452 453 454 455 456 457 458 459 460 461 462 463 464 465 466 467 468 469 470 471 472 473 474 475 476 477 478 479 480 481 482 483 484 485 486 487 488 489 490 491 492 493 494 495 496 497 498 499 500 501 502 503 504 505 506 507 508 509 510 511 512 513 514 515 516 517 518 519 520 521 522 523 524 525 526 527 528 529 530 531 532 533 534 535 536 537 538 539 540 541 542 543 544 545 546 547 548 549 550 551 552 553 554 555 556 557 558 559 560 561 562 563 564 565 566 567 568 569 570 571 572 573 574 575 576 577 578 579 580 581 582 583 584 585 586 587 588 589 590 591 592 593 594 595 596 597 598 599 600 601 602 603 604 605 606 607 608 609 610 611 612 613 614 615 616 617 618 619 620 621 622 623 624 625 626 627 628 629 630 631 632 633 634 635 636 637 638 639 640 641 642 643 644 645 646 647 648 649 650 651 652 653 654 655 656 657 658 659 660 661 662 663 664 665 666 667 668 669 670 671 672 673 674 675 676 677 678 679 680 681 682 683 684 685 686 687 688 689 690 691 692 693 694 695 696 697 698 699 700 701 702 703 704 705 706 707 708 709 710 711 712 713 714 715 716 717 718 719 720 721 722 723 724 725 726 727 728 729 730 731 732 733 734 735 736 737 738 739 740 741 742 743 744 745 746 747 748 749 750 751 752 753 754 755 756 757 758 759 760 761 762 763 764 765 766 767 768 769 770 771 772 773 774 775 776 777 778 779 780 781 782 783 784 785 786 787 788 789 790 791 792 793 794 795 796 797 798 799 800 801 802 803 804 805 806 807 808 809 810 811 812 813 814 815 816 817 818 819 820 821 822 823 824 825 826 827 828 829 830 831 832 833 834 835 836 837 838 839 840 841 842 843 844 845 846 847 848 849 850 851 852 853 854 855 856 857 858 859 860 861 862 863 864 865 866 867 868 869 870 871 872 873 874 875 876 877 878 879 880 881 882 883 884 885 886 887 888 889 890 891 892 893 894 895 896 897 898 899 900 901 902 903 904 905 906 907 908 909 910 911 912 913 914 915 916 917 918 919 920 921 922 923 924 925 926 927 928 929 930 931 932 933 934 935 936 937 938 939 940 941 942 943 944 945 946 947 948 949 950 951 952 953 954 955 956 957 958 959 960 961 962 963 964 965 966 967 968 969 970 971 972 973 974 975 976 977 978 979 980 981 982 983 984 985 986 987 988 989 990 991 992 993 994 995 996 997 998 999 1000 1001 1002 1003 1004 1005 1006 1007 1008 1009 1010 1011 1012 1013 1014 1015 1016 1017 1018 1019 1020 1021 1022 1023 1024 1025 </p>
        </polylist>
      </mesh>
    </geometry>
  </library_geometries>
  <library_controllers>
  </library_controllers>
  <library_visual_scenes>
    <visual_scene id="Scene" name="Scene">
      <node id="node" name="" type="NODE">
        <matrix sid="matrix">1 0 0 0 0 1 0 0 0 0 1 0 0 0 0 1</matrix>
        <instance_geometry url="#mesh_0">
          <bind_material>
            <technique_common>
              <instance_material symbol="defaultMaterial" target="#material_0">
              </instance_material>
            </technique_common>
          </bind_material>
        </instance_geometry>
      </node>
    </visual_scene>
  </library_visual_scenes>
  <scene>
    <instance_visual_scene url="#Scene" />
  </scene>
</COLLADA>
