<?xml version="1.0" encoding="UTF-8" standalone="no" ?>
<COLLADA xmlns="http://www.collada.org/2005/11/COLLADASchema" version="1.4.1">
  <asset>
    <contributor>
      <author>Assimp</author>
      <authoring_tool>Assimp Exporter</authoring_tool>
    </contributor>
    <created>2025-11-12T11:09:31</created>
    <modified>2025-11-12T11:09:31</modified>
    <unit name="meter" meter="1" />
    <up_axis>Y_UP</up_axis>
  </asset>
  <library_images>
  </library_images>
  <library_effects>
    <effect id="material_0-fx" name="">
      <profile_COMMON>
        <technique sid="standard">
          <phong>
            <emission>
              <color sid="emission">0   0   0   4.28026616e-41</color>
            </emission>
            <ambient>
              <color sid="ambient">0.282352924   0.282352924   0.282352924   4.28026616e-41</color>
            </ambient>
            <diffuse>
              <color sid="diffuse">0.282352924   0.282352924   0.282352924   4.28026616e-41</color>
            </diffuse>
            <specular>
              <color sid="specular">0.150000006   0.150000006   0.150000006   4.28026616e-41</color>
            </specular>
          </phong>
        </technique>
      </profile_COMMON>
    </effect>
  </library_effects>
  <library_materials>
    <material id="material_0" name="">
      <instance_effect url="#material_0-fx"/>
    </material>
  </library_materials>
  <library_geometries>
    <geometry id="mesh_0" name="" >
      <mesh>
        <source id="mesh_0-positions" name="mesh_0-positions">
          <float_array id="mesh_0-positions-array" count="288"> -0.0452500172 -0.0375000089 0.00690018851 -0.0531000383 -0.0375000052 0.00690019317 -0.0452500246 -0.0346454345 -0.00745040551 -0.0452500246 -0.0346454345 -0.00745040551 -0.0531000383 -0.0375000052 0.00690019317 -0.053100016 -0.0346454345 -0.00745040085 -0.0452500582 -0.0265165623 -0.0196161773 -0.053100016 -0.0346454345 -0.00745040085 -0.0530999899 -0.0265165437 -0.0196160898 -0.0452500582 -0.0143505847 -0.0277454667 -0.0530999899 -0.0265165437 -0.0196160898 -0.0530999899 -0.0143505828 -0.0277454592 -0.0452500582 -9.45252623e-08 -0.03059965 -0.0530999899 -0.0143505828 -0.0277454592 -0.0531000495 -9.22142362e-08 -0.0305996463 -0.0452500507 0.014350649 -0.027745191 -0.0531000495 -9.22142362e-08 -0.0305996463 -0.053100042 0.0143506508 -0.0277451873 -0.0452500731 0.026516486 -0.0196164176 -0.053100042 0.0143506508 -0.0277451873 -0.0531000495 0.0265164878 -0.019616412 -0.0452500507 0.0346453935 -0.00745019317 -0.0531000495 0.0265164878 -0.019616412 -0.053100042 0.0346454792 -0.00745020527 -0.0452500694 0.037499927 0.00690031471 -0.053100042 0.0346454792 -0.00745020527 -0.0531000309 0.037499927 0.00690031936 -0.0452500694 0.037499927 0.00690031471 -0.0452500507 0.0346453935 -0.00745019317 -0.053100042 0.0346454792 -0.00745020527 -0.0452500507 0.0346453935 -0.00745019317 -0.0452500731 0.026516486 -0.0196164176 -0.0531000495 0.0265164878 -0.019616412 -0.0452500731 0.026516486 -0.0196164176 -0.0452500507 0.014350649 -0.027745191 -0.053100042 0.0143506508 -0.0277451873 -0.0452500507 0.014350649 -0.027745191 -0.0452500582 -9.45252623e-08 -0.03059965 -0.0531000495 -9.22142362e-08 -0.0305996463 -0.0452500582 -9.45252623e-08 -0.03059965 -0.0452500582 -0.0143505847 -0.0277454667 -0.0530999899 -0.0143505828 -0.0277454592 -0.0452500582 -0.0143505847 -0.0277454667 -0.0452500582 -0.0265165623 -0.0196161773 -0.0530999899 -0.0265165437 -0.0196160898 -0.0452500582 -0.0265165623 -0.0196161773 -0.0452500246 -0.0346454345 -0.00745040551 -0.053100016 -0.0346454345 -0.00745040085 -0.0452500694 0.037499927 0.00690031471 -0.0531000309 0.037499927 0.00690031936 -0.0452500172 0.0346454345 0.0212511085 -0.0452500172 0.0346454345 0.0212511085 -0.0531000309 0.037499927 0.00690031936 -0.0531000085 0.0346454717 0.0212510619 -0.0452500433 0.0265164785 0.0334168971 -0.0531000085 0.0346454717 0.0212510619 -0.0531000644 0.0265165642 0.0334168822 -0.0452500433 0.0143507337 0.0415456221 -0.0531000644 0.0265165642 0.0334168822 -0.0531000346 0.0143507365 0.0415456258 -0.0452500284 6.07490307e-08 0.044399973 -0.0531000346 0.0143507365 0.0415456258 -0.0531000346 6.30600567e-08 0.0443999767 -0.0452500358 -0.0143506322 0.0415457599 -0.0531000346 6.30600567e-08 0.0443999767 -0.0531000271 -0.0143506303 0.0415457673 -0.0452500433 -0.0265166685 0.0334168524 -0.0531000271 -0.0143506303 0.0415457673 -0.0531000346 -0.0265164506 0.0334168598 -0.0452500358 -0.0346454121 0.0212505981 -0.0531000346 -0.0265164506 0.0334168598 -0.0531000867 -0.0346454084 0.0212506019 -0.0452500172 -0.0375000089 0.00690018851 -0.0531000867 -0.0346454084 0.0212506019 -0.0531000383 -0.0375000052 0.00690019317 -0.0452500172 -0.0375000089 0.00690018851 -0.0452500358 -0.0346454121 0.0212505981 -0.0531000867 -0.0346454084 0.0212506019 -0.0452500358 -0.0346454121 0.0212505981 -0.0452500433 -0.0265166685 0.0334168524 -0.0531000346 -0.0265164506 0.0334168598 -0.0452500433 -0.0265166685 0.0334168524 -0.0452500358 -0.0143506322 0.0415457599 -0.0531000271 -0.0143506303 0.0415457673 -0.0452500358 -0.0143506322 0.0415457599 -0.0452500284 6.07490307e-08 0.044399973 -0.0531000346 6.30600567e-08 0.0443999767 -0.0452500284 6.07490307e-08 0.044399973 -0.0452500433 0.0143507337 0.0415456221 -0.0531000346 0.0143507365 0.0415456258 -0.0452500433 0.0143507337 0.0415456221 -0.0452500433 0.0265164785 0.0334168971 -0.0531000644 0.0265165642 0.0334168822 -0.0452500433 0.0265164785 0.0334168971 -0.0452500172 0.0346454345 0.0212511085 -0.0531000085 0.0346454717 0.0212510619 </float_array>
          <technique_common>
            <accessor count="96" offset="0" source="#mesh_0-positions-array" stride="3">
              <param name="X" type="float" />
              <param name="Y" type="float" />
              <param name="Z" type="float" />
            </accessor>
          </technique_common>
        </source>
        <vertices id="mesh_0-vertices">
          <input semantic="POSITION" source="#mesh_0-positions" />
        </vertices>
        <polylist count="32" material="defaultMaterial">
          <input offset="0" semantic="VERTEX" source="#mesh_0-vertices" />
          <vcount>3 3 3 3 3 3 3 3 3 3 3 3 3 3 3 3 3 3 3 3 3 3 3 3 3 3 3 3 3 3 3 3 </vcount>
          <p>0 1 2 3 4 5 6 7 8 9 10 11 12 13 14 15 16 17 18 19 20 21 22 23 24 25 26 27 28 29 30 31 32 33 34 35 36 37 38 39 40 41 42 43 44 45 46 47 48 49 50 51 52 53 54 55 56 57 58 59 60 61 62 63 64 65 66 67 68 69 70 71 72 73 74 75 76 77 78 79 80 81 82 83 84 85 86 87 88 89 90 91 92 93 94 95 </p>
        </polylist>
      </mesh>
    </geometry>
  </library_geometries>
  <library_controllers>
  </library_controllers>
  <library_visual_scenes>
    <visual_scene id="Scene" name="Scene">
      <node id="node" name="" type="NODE">
        <matrix sid="matrix">1 0 0 0 0 1 0 0 0 0 1 0 0 0 0 1</matrix>
        <instance_geometry url="#mesh_0">
          <bind_material>
            <technique_common>
              <instance_material symbol="defaultMaterial" target="#material_0">
              </instance_material>
            </technique_common>
          </bind_material>
        </instance_geometry>
      </node>
    </visual_scene>
  </library_visual_scenes>
  <scene>
    <instance_visual_scene url="#Scene" />
  </scene>
</COLLADA>
