<?xml version="1.0" encoding="UTF-8" standalone="no" ?>
<COLLADA xmlns="http://www.collada.org/2005/11/COLLADASchema" version="1.4.1">
  <asset>
    <contributor>
      <author>Assimp</author>
      <authoring_tool>Assimp Exporter</authoring_tool>
    </contributor>
    <created>2025-11-12T11:09:31</created>
    <modified>2025-11-12T11:09:31</modified>
    <unit name="meter" meter="1" />
    <up_axis>Y_UP</up_axis>
  </asset>
  <library_images>
  </library_images>
  <library_effects>
    <effect id="material_0-fx" name="">
      <profile_COMMON>
        <technique sid="standard">
          <phong>
            <emission>
              <color sid="emission">0   0   0   4.28026616e-41</color>
            </emission>
            <ambient>
              <color sid="ambient">0.282352924   0.282352924   0.282352924   4.28026616e-41</color>
            </ambient>
            <diffuse>
              <color sid="diffuse">0.282352924   0.282352924   0.282352924   4.28026616e-41</color>
            </diffuse>
            <specular>
              <color sid="specular">0.150000006   0.150000006   0.150000006   4.28026616e-41</color>
            </specular>
          </phong>
        </technique>
      </profile_COMMON>
    </effect>
  </library_effects>
  <library_materials>
    <material id="material_0" name="">
      <instance_effect url="#material_0-fx"/>
    </material>
  </library_materials>
  <library_geometries>
    <geometry id="mesh_0" name="" >
      <mesh>
        <source id="mesh_0-positions" name="mesh_0-positions">
          <float_array id="mesh_0-positions-array" count="576"> 0.000396233285 -0.0366402827 0.16024971 0.000396233518 -0.0366403051 0.153249264 0.00748299249 -0.0353126787 0.16024971 0.000396233518 -0.0366403051 0.153249264 0.00748299249 -0.035312701 0.153249264 0.00748299249 -0.0353126787 0.16024971 0.00748299249 -0.0353126787 0.16024971 0.00748299249 -0.035312701 0.153249264 0.0141745815 -0.032628037 0.160249695 0.00748299249 -0.035312701 0.153249264 0.0141745815 -0.0326280594 0.153249249 0.0141745815 -0.032628037 0.160249695 0.0141745815 -0.032628037 0.160249695 0.0141745815 -0.0326280594 0.153249249 0.0202138424 -0.0286895055 0.16024968 0.0141745815 -0.0326280594 0.153249249 0.0202138424 -0.0286895279 0.153249234 0.0202138424 -0.0286895055 0.16024968 0.0202138424 -0.0286895055 0.16024968 0.0202138424 -0.0286895279 0.153249234 0.0253686905 -0.0236484557 0.160249665 0.0202138424 -0.0286895279 0.153249234 0.0253686905 -0.0236484781 0.153249219 0.0253686905 -0.0236484557 0.160249665 0.0253686905 -0.0236484557 0.160249665 0.0253686905 -0.0236484781 0.153249219 0.0294410326 -0.0176986046 0.16024965 0.0253686905 -0.0236484781 0.153249219 0.0294410326 -0.017698627 0.153249204 0.0294410326 -0.0176986046 0.16024965 0.0294410326 -0.0176986046 0.16024965 0.0294410326 -0.017698627 0.153249204 0.0322743654 -0.0110686049 0.160249621 0.0294410326 -0.017698627 0.153249204 0.0322743654 -0.0110686272 0.153249174 0.0322743654 -0.0110686049 0.160249621 0.0322743654 -0.0110686049 0.160249621 0.0322743654 -0.0110686272 0.153249174 0.0337598063 -0.00401324267 0.160249606 0.0322743654 -0.0110686272 0.153249174 0.0337598063 -0.00401326548 0.153249159 0.0337598063 -0.00401324267 0.160249606 0.0337598063 -0.00401324267 0.160249606 0.0337598063 -0.00401326548 0.153249159 0.0338402763 0.00319634867 0.160249576 0.0337598063 -0.00401326548 0.153249159 0.03384028 0.00319632608 0.15324913 0.0338402763 0.00319634867 0.160249576 0.0338402763 0.00319634867 0.160249576 0.03384028 0.00319632608 0.15324913 0.032512676 0.0102831079 0.160249561 0.03384028 0.00319632608 0.15324913 0.032512676 0.0102830855 0.153249115 0.032512676 0.0102831079 0.160249561 0.032512676 0.0102831079 0.160249561 0.032512676 0.0102830855 0.153249115 0.0298280269 0.016974695 0.160249531 0.032512676 0.0102830855 0.153249115 0.0298280269 0.0169746727 0.153249085 0.0298280269 0.016974695 0.160249531 0.0298280269 0.016974695 0.160249531 0.0298280269 0.0169746727 0.153249085 0.025889501 0.0230139568 0.160249516 0.0298280269 0.0169746727 0.153249085 0.025889501 0.0230139345 0.15324907 0.025889501 0.0230139568 0.160249516 0.025889501 0.0230139568 0.160249516 0.025889501 0.0230139345 0.15324907 0.0208484493 0.0281688049 0.160249501 0.025889501 0.0230139345 0.15324907 0.0208484493 0.0281687826 0.153249055 0.0208484493 0.0281688049 0.160249501 0.0208484493 0.0281688049 0.160249501 0.0208484493 0.0281687826 0.153249055 0.0148985991 0.032241147 0.160249487 0.0208484493 0.0281687826 0.153249055 0.0148985991 0.0322411247 0.15324904 0.0148985991 0.032241147 0.160249487 0.0148985991 0.032241147 0.160249487 0.0148985991 0.0322411247 0.15324904 0.00826859847 0.0350744762 0.160249472 0.0148985991 0.0322411247 0.15324904 0.00826859847 0.0350744538 0.153249025 0.00826859847 0.0350744762 0.160249472 0.00826859847 0.0350744762 0.160249472 0.00826859847 0.0350744538 0.153249025 0.00121323531 0.0365599208 0.160249472 0.00826859847 0.0350744538 0.153249025 0.00121323578 0.0365598984 0.153249025 0.00121323531 0.0365599208 0.160249472 0.00121323531 0.0365599208 0.160249472 0.00121323578 0.0365598984 0.153249025 -0.00599635579 0.0366403908 0.160249472 0.00121323578 0.0365598984 0.153249025 -0.00599635579 0.0366403684 0.153249025 -0.00599635579 0.0366403908 0.160249472 -0.00599635579 0.0366403908 0.160249472 -0.00599635579 0.0366403684 0.153249025 -0.0130831152 0.0353127904 0.160249472 -0.00599635579 0.0366403684 0.153249025 -0.0130831143 0.0353127681 0.153249025 -0.0130831152 0.0353127904 0.160249472 -0.0130831152 0.0353127904 0.160249472 -0.0130831143 0.0353127681 0.153249025 -0.0197747014 0.0326281413 0.160249487 -0.0130831143 0.0353127681 0.153249025 -0.0197747014 0.032628119 0.15324904 -0.0197747014 0.0326281413 0.160249487 -0.0197747014 0.0326281413 0.160249487 -0.0197747014 0.032628119 0.15324904 -0.0258139633 0.0286896117 0.160249501 -0.0197747014 0.032628119 0.15324904 -0.0258139633 0.0286895894 0.153249055 -0.0258139633 0.0286896117 0.160249501 -0.0258139633 0.0286896117 0.160249501 -0.0258139633 0.0286895894 0.153249055 -0.0309688114 0.0236485619 0.160249516 -0.0258139633 0.0286895894 0.153249055 -0.0309688114 0.0236485396 0.15324907 -0.0309688114 0.0236485619 0.160249516 -0.0309688114 0.0236485619 0.160249516 -0.0309688114 0.0236485396 0.15324907 -0.0350411534 0.0176987108 0.160249531 -0.0309688114 0.0236485396 0.15324907 -0.0350411534 0.0176986884 0.153249085 -0.0350411534 0.0176987108 0.160249531 -0.0350411534 0.0176987108 0.160249531 -0.0350411534 0.0176986884 0.153249085 -0.0378744863 0.0110687101 0.160249561 -0.0350411534 0.0176986884 0.153249085 -0.0378744863 0.0110686868 0.153249115 -0.0378744863 0.0110687101 0.160249561 -0.0378744863 0.0110687101 0.160249561 -0.0378744863 0.0110686868 0.153249115 -0.0393599309 0.00401334744 0.160249576 -0.0378744863 0.0110686868 0.153249115 -0.0393599309 0.00401332509 0.15324913 -0.0393599309 0.00401334744 0.160249576 -0.0393599309 0.00401334744 0.160249576 -0.0393599309 0.00401332509 0.15324913 -0.0394403934 -0.00319624366 0.160249606 -0.0393599309 0.00401332509 0.15324913 -0.0394403934 -0.00319626625 0.153249159 -0.0394403934 -0.00319624366 0.160249606 -0.0394403934 -0.00319624366 0.160249606 -0.0394403934 -0.00319626625 0.153249159 -0.0381127931 -0.0102830026 0.160249621 -0.0394403934 -0.00319626625 0.153249159 -0.0381127931 -0.0102830259 0.153249174 -0.0381127931 -0.0102830026 0.160249621 -0.0381127931 -0.0102830026 0.160249621 -0.0381127931 -0.0102830259 0.153249174 -0.0354281515 -0.0169745907 0.16024965 -0.0381127931 -0.0102830259 0.153249174 -0.0354281515 -0.0169746131 0.153249204 -0.0354281515 -0.0169745907 0.16024965 -0.0354281515 -0.0169745907 0.16024965 -0.0354281515 -0.0169746131 0.153249204 -0.0314896181 -0.0230138507 0.160249665 -0.0354281515 -0.0169746131 0.153249204 -0.0314896181 -0.023013873 0.153249219 -0.0314896181 -0.0230138507 0.160249665 -0.0314896181 -0.0230138507 0.160249665 -0.0314896181 -0.023013873 0.153249219 -0.0264485627 -0.0281687006 0.16024968 -0.0314896181 -0.023013873 0.153249219 -0.0264485627 -0.028168723 0.153249234 -0.0264485627 -0.0281687006 0.16024968 -0.0264485627 -0.0281687006 0.16024968 -0.0264485627 -0.028168723 0.153249234 -0.0204987153 -0.0322410427 0.160249695 -0.0264485627 -0.028168723 0.153249234 -0.0204987153 -0.0322410651 0.153249249 -0.0204987153 -0.0322410427 0.160249695 -0.0204987153 -0.0322410427 0.160249695 -0.0204987153 -0.0322410651 0.153249249 -0.0138687138 -0.0350743718 0.16024971 -0.0204987153 -0.0322410651 0.153249249 -0.0138687128 -0.0350743942 0.153249264 -0.0138687138 -0.0350743718 0.16024971 -0.0138687138 -0.0350743718 0.16024971 -0.0138687128 -0.0350743942 0.153249264 -0.00681335106 -0.0365598164 0.16024971 -0.0138687128 -0.0350743942 0.153249264 -0.00681335106 -0.0365598388 0.153249264 -0.00681335106 -0.0365598164 0.16024971 -0.00681335106 -0.0365598164 0.16024971 -0.00681335106 -0.0365598388 0.153249264 0.000396233285 -0.0366402827 0.16024971 -0.00681335106 -0.0365598388 0.153249264 0.000396233518 -0.0366403051 0.153249264 0.000396233285 -0.0366402827 0.16024971 </float_array>
          <technique_common>
            <accessor count="192" offset="0" source="#mesh_0-positions-array" stride="3">
              <param name="X" type="float" />
              <param name="Y" type="float" />
              <param name="Z" type="float" />
            </accessor>
          </technique_common>
        </source>
        <vertices id="mesh_0-vertices">
          <input semantic="POSITION" source="#mesh_0-positions" />
        </vertices>
        <polylist count="64" material="defaultMaterial">
          <input offset="0" semantic="VERTEX" source="#mesh_0-vertices" />
          <vcount>3 3 3 3 3 3 3 3 3 3 3 3 3 3 3 3 3 3 3 3 3 3 3 3 3 3 3 3 3 3 3 3 3 3 3 3 3 3 3 3 3 3 3 3 3 3 3 3 3 3 3 3 3 3 3 3 3 3 3 3 3 3 3 3 </vcount>
          <p>0 1 2 3 4 5 6 7 8 9 10 11 12 13 14 15 16 17 18 19 20 21 22 23 24 25 26 27 28 29 30 31 32 33 34 35 36 37 38 39 40 41 42 43 44 45 46 47 48 49 50 51 52 53 54 55 56 57 58 59 60 61 62 63 64 65 66 67 68 69 70 71 72 73 74 75 76 77 78 79 80 81 82 83 84 85 86 87 88 89 90 91 92 93 94 95 96 97 98 99 100 101 102 103 104 105 106 107 108 109 110 111 112 113 114 115 116 117 118 119 120 121 122 123 124 125 126 127 128 129 130 131 132 133 134 135 136 137 138 139 140 141 142 143 144 145 146 147 148 149 150 151 152 153 154 155 156 157 158 159 160 161 162 163 164 165 166 167 168 169 170 171 172 173 174 175 176 177 178 179 180 181 182 183 184 185 186 187 188 189 190 191 </p>
        </polylist>
      </mesh>
    </geometry>
  </library_geometries>
  <library_controllers>
  </library_controllers>
  <library_visual_scenes>
    <visual_scene id="Scene" name="Scene">
      <node id="node" name="" type="NODE">
        <matrix sid="matrix">1 0 0 0 0 1 0 0 0 0 1 0 0 0 0 1</matrix>
        <instance_geometry url="#mesh_0">
          <bind_material>
            <technique_common>
              <instance_material symbol="defaultMaterial" target="#material_0">
              </instance_material>
            </technique_common>
          </bind_material>
        </instance_geometry>
      </node>
    </visual_scene>
  </library_visual_scenes>
  <scene>
    <instance_visual_scene url="#Scene" />
  </scene>
</COLLADA>
