<?xml version="1.0" encoding="UTF-8" standalone="no" ?>
<COLLADA xmlns="http://www.collada.org/2005/11/COLLADASchema" version="1.4.1">
  <asset>
    <contributor>
      <author>Assimp</author>
      <authoring_tool>Assimp Exporter</authoring_tool>
    </contributor>
    <created>2025-11-12T11:09:31</created>
    <modified>2025-11-12T11:09:31</modified>
    <unit name="meter" meter="1" />
    <up_axis>Y_UP</up_axis>
  </asset>
  <library_images>
  </library_images>
  <library_effects>
    <effect id="material_0-fx" name="">
      <profile_COMMON>
        <technique sid="standard">
          <phong>
            <emission>
              <color sid="emission">0   0   0   4.28026616e-41</color>
            </emission>
            <ambient>
              <color sid="ambient">0.535294116   0.535294116   0.535294116   4.28026616e-41</color>
            </ambient>
            <diffuse>
              <color sid="diffuse">0.535294116   0.535294116   0.535294116   4.28026616e-41</color>
            </diffuse>
            <specular>
              <color sid="specular">0.140000001   0.140000001   0.140000001   0</color>
            </specular>
          </phong>
        </technique>
      </profile_COMMON>
    </effect>
  </library_effects>
  <library_materials>
    <material id="material_0" name="">
      <instance_effect url="#material_0-fx"/>
    </material>
  </library_materials>
  <library_geometries>
    <geometry id="mesh_0" name="" >
      <mesh>
        <source id="mesh_0-positions" name="mesh_0-positions">
          <float_array id="mesh_0-positions-array" count="3492"> 0.000252416212 -0.0579997897 -0.192969263 0.000252394588 -0.0578223392 -0.207863703 0.00730109401 -0.0579906888 -0.208832905 0.0257612281 -0.0542533435 -0.189170778 0.00730109401 -0.0579906888 -0.208832905 0.0307347439 -0.0548600927 -0.193575352 0.0386103727 -0.0490445867 -0.181438133 0.0257612281 -0.0542533435 -0.189170778 0.0307347439 -0.0548600927 -0.193575352 0.0386103727 -0.0490445867 -0.181438133 0.0425122604 -0.0421692133 -0.171336427 0.0257612281 -0.0542533435 -0.189170778 0.0386103727 -0.0490445867 -0.181438133 0.0461743437 -0.0404563472 -0.17083931 0.0425122604 -0.0421692133 -0.171336427 0.0425122604 -0.0421692133 -0.171336427 0.0461743437 -0.0404563472 -0.17083931 0.0528440103 -0.0291781295 -0.162273705 0.0546148829 -0.0225920472 -0.158462778 0.0528440103 -0.0291781295 -0.162273705 0.0578724258 -0.0154332146 -0.156490907 0.0581096485 -0.00949798897 -0.154749557 0.0578724258 -0.0154332146 -0.156490907 0.0594985113 3.89870713e-09 -0.154325396 0.0590579882 -3.63703414e-08 -0.154123604 0.0581096485 -0.00949798897 -0.154749557 0.0594985113 3.89870713e-09 -0.154325396 0.0590579882 -3.63703414e-08 -0.154123604 0.0586940162 2.49063419e-08 -0.153812081 0.0581096485 -0.00949798897 -0.154749557 0.0581096485 -0.00949798897 -0.154749557 0.0586940162 2.49063419e-08 -0.153812081 0.0584269129 1.68943188e-08 -0.15341261 0.0574363656 -0.00949800946 -0.152971387 0.0584269129 1.68943188e-08 -0.15341261 0.0582435355 3.30474741e-08 -0.152436912 0.0582523905 4.40707062e-08 -0.15139991 0.0574363656 -0.00949800946 -0.152971387 0.0582435355 3.30474741e-08 -0.152436912 0.0582523905 4.40707062e-08 -0.15139991 0.0538374074 -0.0221956223 -0.151399896 0.0574363656 -0.00949800946 -0.152971387 0.0574363656 -0.00949800946 -0.152971387 0.0538374074 -0.0221956223 -0.151399896 0.0535382293 -0.0225920826 -0.154668823 0.0581096485 -0.00949798897 -0.154749557 0.0535382293 -0.0225920826 -0.154668823 0.0546148829 -0.0225920472 -0.158462778 0.0578724258 -0.0154332146 -0.156490907 0.0581096485 -0.00949798897 -0.154749557 0.0546148829 -0.0225920472 -0.158462778 0.025757974 -0.0579867698 -0.211162254 0.0254000388 -0.0579780191 -0.210805431 0.0246908162 -0.0579975806 -0.21187146 0.0256578662 -0.0579943508 -0.211593002 0.025757974 -0.0579867698 -0.211162254 0.0246908162 -0.0579975806 -0.21187146 0.0256578662 -0.0579943508 -0.211593002 0.0258143917 -0.0579890683 -0.211276501 0.025757974 -0.0579867698 -0.211162254 0.0256578662 -0.0579943508 -0.211593002 0.0258202963 -0.0579914078 -0.211403221 0.0258143917 -0.0579890683 -0.211276501 0.0256578662 -0.0579943508 -0.211593002 0.0257576518 -0.0579932556 -0.211513072 0.0258202963 -0.0579914078 -0.211403221 0.0246908162 -0.0579975806 -0.21187146 0.0245782211 -0.057958886 -0.210215881 0.0236965846 -0.0579985529 -0.211992458 0.0246908162 -0.0579975806 -0.21187146 0.0254000388 -0.0579780191 -0.210805431 0.0245782211 -0.057958886 -0.210215881 0.0245782211 -0.057958886 -0.210215881 0.0229568593 -0.0579007529 -0.209009096 0.0236965846 -0.0579985529 -0.211992458 0.0236965846 -0.0579985529 -0.211992458 0.0229568593 -0.0579007529 -0.209009096 0.0156830661 -0.0579988696 -0.21203953 0.0156830661 -0.0579988696 -0.21203953 0.0229568593 -0.0579007529 -0.209009096 0.0229139552 -0.0578938276 -0.20889239 0.0229034685 -0.0578861572 -0.208768204 0.0156830661 -0.0579988696 -0.21203953 0.0229139552 -0.0578938276 -0.20889239 0.0229034685 -0.0578861572 -0.208768204 0.0229252558 -0.0578701645 -0.208521828 0.0156830661 -0.0579988696 -0.21203953 0.0156830661 -0.0579988696 -0.21203953 0.0229252558 -0.0578701645 -0.208521828 0.0230385195 -0.0578359514 -0.208041087 0.023365505 -0.0577585548 -0.207113311 0.0156830661 -0.0579988696 -0.21203953 0.0230385195 -0.0578359514 -0.208041087 0.023365505 -0.0577585548 -0.207113311 0.00730109401 -0.0579906888 -0.208832905 0.0156830661 -0.0579988696 -0.21203953 0.023365505 -0.0577585548 -0.207113311 0.0307347439 -0.0548600927 -0.193575352 0.00730109401 -0.0579906888 -0.208832905 0.0578724258 -0.0154332146 -0.156490907 0.0599942878 2.82937158e-08 -0.154399902 0.0594985113 3.89870713e-09 -0.154325396 0.0538374074 -0.0221956223 -0.151399896 0.0412645862 -0.0410121679 -0.15139991 0.0535382293 -0.0225920826 -0.154668823 0.0535382293 -0.0225920826 -0.154668823 0.0412645862 -0.0410121679 -0.15139991 0.039813824 -0.0421693325 -0.160540447 0.0546148829 -0.0225920472 -0.158462778 0.039813824 -0.0421693325 -0.160540447 0.0425122604 -0.0421692133 -0.171336427 0.0528440103 -0.0291781295 -0.162273705 0.0546148829 -0.0225920472 -0.158462778 0.0425122604 -0.0421692133 -0.171336427 0.0412645862 -0.0410121679 -0.15139991 0.0224480517 -0.0535849705 -0.15139991 0.039813824 -0.0421693325 -0.160540447 0.039813824 -0.0421693325 -0.160540447 0.0224480517 -0.0535849705 -0.15139991 0.0205687359 -0.0542535074 -0.168659791 0.0425122604 -0.0421692133 -0.171336427 0.0205687359 -0.0542535074 -0.168659791 0.0257612281 -0.0542533435 -0.189170778 0.0425122604 -0.0421692133 -0.171336427 0.039813824 -0.0421693325 -0.160540447 0.0205687359 -0.0542535074 -0.168659791 0.0224480517 -0.0535849705 -0.15139991 0.000252408005 -0.0580000058 -0.151404113 0.0205687359 -0.0542535074 -0.168659791 0.0205687359 -0.0542535074 -0.168659791 0.000252408005 -0.0580000058 -0.151404113 0.000252412719 -0.0579999946 -0.164738432 0.000252405182 -0.0579999872 -0.178072751 0.0205687359 -0.0542535074 -0.168659791 0.000252412719 -0.0579999946 -0.164738432 0.000252405182 -0.0579999872 -0.178072751 0.000252416212 -0.0579997897 -0.192969263 0.0205687359 -0.0542535074 -0.168659791 0.0205687359 -0.0542535074 -0.168659791 0.000252416212 -0.0579997897 -0.192969263 0.0257612281 -0.0542533435 -0.189170778 0.0257612281 -0.0542533435 -0.189170778 0.000252416212 -0.0579997897 -0.192969263 0.00730109401 -0.0579906888 -0.208832905 0.0584269129 1.68943188e-08 -0.15341261 0.0574363656 -0.00949800946 -0.152971387 0.0581096485 -0.00949798897 -0.154749557 0.0581096485 -0.00949798897 -0.154749557 0.0574363656 -0.00949800946 -0.152971387 0.0535382293 -0.0225920826 -0.154668823 0.0535382293 -0.0225920826 -0.154668823 0.039813824 -0.0421693325 -0.160540447 0.0546148829 -0.0225920472 -0.158462778 0.00730109401 -0.0579906888 -0.208832905 0.000252394588 -0.0578223392 -0.207863703 0.0156830661 -0.0579988696 -0.21203953 0.00025241918 0.0580000728 -0.15139991 0.000252408441 0.0580000095 -0.14609991 0.0224480573 0.0535849929 -0.15139991 0.0224480573 0.0535849929 -0.15139991 0.000252408441 0.0580000095 -0.14609991 0.0224480499 0.053584978 -0.14609991 0.0412645899 0.041012194 -0.15139991 0.0224480499 0.053584978 -0.14609991 0.0412645973 0.0410121791 -0.146099925 0.0538374074 0.0221956726 -0.15139991 0.0412645973 0.0410121791 -0.146099925 0.0538374186 0.0221957415 -0.14609991 0.0582523905 4.40707062e-08 -0.15139991 0.0538374186 0.0221957415 -0.14609991 0.0582523979 -1.71536847e-08 -0.14609991 0.0538374074 -0.0221956223 -0.151399896 0.0582523979 -1.71536847e-08 -0.14609991 0.0538374074 -0.0221956372 -0.14609991 0.0412645862 -0.0410121679 -0.15139991 0.0538374074 -0.0221956372 -0.14609991 0.0412645787 -0.0410121828 -0.14609991 0.0224480517 -0.0535849705 -0.15139991 0.0412645787 -0.0410121828 -0.14609991 0.0224480387 -0.0535849854 -0.14609991 0.000252408005 -0.0580000058 -0.151404113 0.0224480387 -0.0535849854 -0.14609991 0.000252421101 -0.0579999536 -0.14609991 0.000252408005 -0.0580000058 -0.151404113 0.0224480517 -0.0535849705 -0.15139991 0.0224480387 -0.0535849854 -0.14609991 0.0224480517 -0.0535849705 -0.15139991 0.0412645862 -0.0410121679 -0.15139991 0.0412645787 -0.0410121828 -0.14609991 0.0412645862 -0.0410121679 -0.15139991 0.0538374074 -0.0221956223 -0.151399896 0.0538374074 -0.0221956372 -0.14609991 0.0538374074 -0.0221956223 -0.151399896 0.0582523905 4.40707062e-08 -0.15139991 0.0582523979 -1.71536847e-08 -0.14609991 0.0582523905 4.40707062e-08 -0.15139991 0.0538374074 0.0221956726 -0.15139991 0.0538374186 0.0221957415 -0.14609991 0.0538374074 0.0221956726 -0.15139991 0.0412645899 0.041012194 -0.15139991 0.0412645973 0.0410121791 -0.146099925 0.0412645899 0.041012194 -0.15139991 0.0224480573 0.0535849929 -0.15139991 0.0224480499 0.053584978 -0.14609991 -0.0576619655 0.00315004028 -0.149099916 -0.0576620027 0.00314999861 -0.146099925 -0.0526940301 0.0236785598 -0.15139991 -0.0576755404 0.00289007206 -0.15035288 -0.0526940301 0.0236785598 -0.15139991 -0.0577075817 0.00215237262 -0.15139991 -0.0576755404 0.00289007206 -0.15035288 -0.0576619655 0.00315004028 -0.149099916 -0.0526940301 0.0236785598 -0.15139991 0.000252408441 0.0580000095 -0.14609991 0.00025241918 0.0580000728 -0.15139991 -0.0212132875 0.0538815483 -0.146099925 -0.0212132875 0.0538815483 -0.146099925 0.00025241918 0.0580000728 -0.15139991 -0.0214450527 0.0537886769 -0.15139991 -0.0396305099 0.0421111472 -0.146099925 -0.0214450527 0.0537886769 -0.15139991 -0.0399916135 0.0417663381 -0.15139991 -0.0523838177 0.0243603252 -0.14609991 -0.0399916135 0.0417663381 -0.15139991 -0.0526940301 0.0236785598 -0.15139991 -0.0576620027 0.00314999861 -0.146099925 -0.0523838177 0.0243603252 -0.14609991 -0.0526940301 0.0236785598 -0.15139991 -0.0396305099 0.0421111472 -0.146099925 -0.0212132875 0.0538815483 -0.146099925 -0.0214450527 0.0537886769 -0.15139991 -0.0399916135 0.0417663381 -0.15139991 -0.0523838177 0.0243603252 -0.14609991 -0.0396305099 0.0421111472 -0.146099925 -0.0564791113 0.0185172781 -0.157435268 -0.0593294464 0.00391362282 -0.154532105 -0.0586620197 2.69287259e-08 -0.154188141 -0.0541444197 0.0214435048 -0.157612905 -0.0586620197 2.69287259e-08 -0.154188141 -0.0581039228 5.14377607e-09 -0.153708443 -0.0579115972 5.06329627e-08 -0.153390646 -0.0541444197 0.0214435048 -0.157612905 -0.0581039228 5.14377607e-09 -0.153708443 -0.0579115972 5.06329627e-08 -0.153390646 -0.0577933751 5.00968333e-09 -0.153032541 -0.0541444197 0.0214435048 -0.157612905 -0.0541444197 0.0214435048 -0.157612905 -0.0577933751 5.00968333e-09 -0.153032541 -0.0535235405 0.0214435998 -0.154092968 -0.0415978841 0.0399173722 -0.158594102 -0.0535235405 0.0214435998 -0.154092968 -0.0526940301 0.0236785598 -0.15139991 -0.0399916135 0.0417663381 -0.15139991 -0.0415978841 0.0399173722 -0.158594102 -0.0526940301 0.0236785598 -0.15139991 -0.0399916135 0.0417663381 -0.15139991 -0.0237039421 0.0527326465 -0.165242791 -0.0415978841 0.0399173722 -0.158594102 -0.0399916135 0.0417663381 -0.15139991 -0.0214450527 0.0537886769 -0.15139991 -0.0237039421 0.0527326465 -0.165242791 -0.0237039421 0.0527326465 -0.165242791 -0.0214450527 0.0537886769 -0.15139991 -0.00234373915 0.0579405315 -0.17311424 -0.0263372082 0.0527324788 -0.183775797 -0.00234373915 0.0579405315 -0.17311424 -0.0066724983 0.0579404198 -0.202262148 -0.0295214299 0.0552453734 -0.194737867 -0.0066724983 0.0579404198 -0.202262148 -0.0225427728 0.0578336231 -0.208010271 -0.0295214299 0.0552453734 -0.194737867 -0.0263372082 0.0527324788 -0.183775797 -0.0066724983 0.0579404198 -0.202262148 -0.0295214299 0.0552453734 -0.194737867 -0.0371517204 0.0499028154 -0.182841346 -0.0263372082 0.0527324788 -0.183775797 -0.0263372082 0.0527324788 -0.183775797 -0.0371517204 0.0499028154 -0.182841346 -0.0429310203 0.0399173051 -0.168168917 -0.0237039421 0.0527326465 -0.165242791 -0.0429310203 0.0399173051 -0.168168917 -0.0415978841 0.0399173722 -0.158594102 -0.0237039421 0.0527326465 -0.165242791 -0.0263372082 0.0527324788 -0.183775797 -0.0429310203 0.0399173051 -0.168168917 -0.0237039421 0.0527326465 -0.165242791 -0.00234373915 0.0579405315 -0.17311424 -0.0263372082 0.0527324788 -0.183775797 -0.0593895726 -1.24791866e-08 -0.154392511 -0.0586620197 2.69287259e-08 -0.154188141 -0.0593745224 0.00195708103 -0.154427484 -0.0593745224 0.00195708103 -0.154427484 -0.0586620197 2.69287259e-08 -0.154188141 -0.0593294464 0.00391362282 -0.154532105 -0.0577933751 5.00968333e-09 -0.153032541 -0.057736475 2.16290008e-09 -0.152249917 -0.0535235405 0.0214435998 -0.154092968 -0.0535235405 0.0214435998 -0.154092968 -0.057736475 2.16290008e-09 -0.152249917 -0.0577263907 0.00115604769 -0.152030125 -0.0526940301 0.0236785598 -0.15139991 -0.0577263907 0.00115604769 -0.152030125 -0.0577075817 0.00215237262 -0.15139991 -0.0526940301 0.0236785598 -0.15139991 -0.0535235405 0.0214435998 -0.154092968 -0.0577263907 0.00115604769 -0.152030125 -0.0214450527 0.0537886769 -0.15139991 0.00025241918 0.0580000728 -0.15139991 -0.00234373915 0.0579405315 -0.17311424 -0.00234373915 0.0579405315 -0.17311424 0.00025241918 0.0580000728 -0.15139991 0.000252415688 0.0580000654 -0.164736345 0.000252423488 0.0580000207 -0.178072751 -0.00234373915 0.0579405315 -0.17311424 0.000252415688 0.0580000654 -0.164736345 0.000252423488 0.0580000207 -0.178072751 0.000252427126 0.0579998754 -0.192969039 -0.00234373915 0.0579405315 -0.17311424 -0.00234373915 0.0579405315 -0.17311424 0.000252427126 0.0579998754 -0.192969039 -0.0066724983 0.0579404198 -0.202262148 -0.0066724983 0.0579404198 -0.202262148 0.000252427126 0.0579998754 -0.192969039 0.000252404629 0.0578223392 -0.207863703 -0.0146960886 0.0579985492 -0.211983278 -0.0066724983 0.0579404198 -0.202262148 0.000252404629 0.0578223392 -0.207863703 -0.0146960886 0.0579985492 -0.211983278 -0.0224283393 0.05786708 -0.208474994 -0.0066724983 0.0579404198 -0.202262148 -0.0146960886 0.0579985492 -0.211983278 -0.0223998055 0.0578827374 -0.208713472 -0.0224283393 0.05786708 -0.208474994 -0.0146960886 0.0579985492 -0.211983278 -0.0224247202 0.0578974672 -0.208952338 -0.0223998055 0.0578827374 -0.208713472 -0.0146960886 0.0579985492 -0.211983278 -0.0224910416 0.0579033643 -0.209052742 -0.0224247202 0.0578974672 -0.208952338 -0.0146960886 0.0579985492 -0.211983278 -0.0225861352 0.0579077937 -0.209130138 -0.0224910416 0.0579033643 -0.209052742 -0.0146960886 0.0579985492 -0.211983278 -0.022778308 0.0579161905 -0.209282547 -0.0225861352 0.0579077937 -0.209130138 -0.0146960886 0.0579985492 -0.211983278 -0.0224668533 0.0579989664 -0.212050274 -0.022778308 0.0579161905 -0.209282547 -0.022778308 0.0579161905 -0.209282547 -0.0224668533 0.0579989664 -0.212050274 -0.0231693797 0.057931371 -0.209578678 -0.0231693797 0.057931371 -0.209578678 -0.0224668533 0.0579989664 -0.212050274 -0.0247726012 0.0579754114 -0.210710064 -0.0247726012 0.0579754114 -0.210710064 -0.0224668533 0.0579989664 -0.212050274 -0.024397457 0.0579972491 -0.211834162 -0.0251453128 0.0579838119 -0.211029857 -0.024397457 0.0579972491 -0.211834162 -0.0248724669 0.0579959676 -0.211716637 -0.0252904929 0.0579881743 -0.211227834 -0.0248724669 0.0579959676 -0.211716637 -0.0253215693 0.0579904802 -0.211347133 -0.0252904929 0.0579881743 -0.211227834 -0.0251453128 0.0579838119 -0.211029857 -0.0248724669 0.0579959676 -0.211716637 -0.0248724669 0.0579959676 -0.211716637 -0.0251010004 0.0579947941 -0.211622909 -0.0253215693 0.0579904802 -0.211347133 -0.0253215693 0.0579904802 -0.211347133 -0.0251010004 0.0579947941 -0.211622909 -0.0252891183 0.0579924956 -0.211465597 -0.0252891183 0.0579924956 -0.211465597 -0.0251010004 0.0579947941 -0.211622909 -0.0252060127 0.0579938404 -0.211555883 -0.0251453128 0.0579838119 -0.211029857 -0.0247726012 0.0579754114 -0.210710064 -0.024397457 0.0579972491 -0.211834162 -0.0224283393 0.05786708 -0.208474994 -0.0225427728 0.0578336231 -0.208010271 -0.0066724983 0.0579404198 -0.202262148 -0.0371517204 0.0499028154 -0.182841346 -0.0512243137 0.0314245336 -0.163650542 -0.0429310203 0.0399173051 -0.168168917 -0.0429310203 0.0399173051 -0.168168917 -0.0512243137 0.0314245336 -0.163650542 -0.0541444197 0.0214435048 -0.157612905 -0.0415978841 0.0399173722 -0.158594102 -0.0541444197 0.0214435048 -0.157612905 -0.0535235405 0.0214435998 -0.154092968 -0.0415978841 0.0399173722 -0.158594102 -0.0429310203 0.0399173051 -0.168168917 -0.0541444197 0.0214435048 -0.157612905 -0.0512243137 0.0314245336 -0.163650542 -0.0564791113 0.0185172781 -0.157435268 -0.0541444197 0.0214435048 -0.157612905 -0.0541444197 0.0214435048 -0.157612905 -0.0564791113 0.0185172781 -0.157435268 -0.0586620197 2.69287259e-08 -0.154188141 -0.0343863703 0.058000017 -0.212399885 0.0601524003 0.0579999909 -0.212399915 -0.0273863971 0.0556800067 -0.228639916 -0.0273863971 0.0556800067 -0.228639916 0.0601524003 0.0579999909 -0.212399915 0.0601524077 0.0535850413 -0.234595537 -0.0193863995 0.0463999733 -0.247199893 0.0601524077 0.0535850413 -0.234595537 0.0601524077 0.0410122052 -0.253412068 -0.0155507885 0.0381369926 -0.256098509 0.0601524077 0.0410122052 -0.253412068 0.0601524077 0.0221956708 -0.265984893 -0.0123275593 0.0272941329 -0.263576388 0.0601524077 0.0221956708 -0.265984893 -0.0101556154 0.0142769311 -0.268615276 -0.0123275593 0.0272941329 -0.263576388 -0.0155507885 0.0381369926 -0.256098509 0.0601524077 0.0221956708 -0.265984893 0.0601524077 0.0221956708 -0.265984893 0.0601523928 3.51260567e-08 -0.270399898 -0.0101556154 0.0142769311 -0.268615276 -0.0101556154 0.0142769311 -0.268615276 0.0601523928 3.51260567e-08 -0.270399898 -0.00938641932 -2.19256826e-08 -0.270399898 -0.00938641932 -2.19256826e-08 -0.270399898 0.0601523928 3.51260567e-08 -0.270399898 -0.0101556312 -0.0142769208 -0.268615276 -0.0101556312 -0.0142769208 -0.268615276 0.0601523928 3.51260567e-08 -0.270399898 0.0601524003 -0.0221956596 -0.265984923 -0.0123275965 -0.0272940844 -0.263576359 0.0601524003 -0.0221956596 -0.265984923 0.0601523854 -0.0410122015 -0.253412098 -0.0155508043 -0.0381370001 -0.256098509 0.0601523854 -0.0410122015 -0.253412098 -0.0193864089 -0.0463999547 -0.247199893 -0.0155508043 -0.0381370001 -0.256098509 -0.0123275965 -0.0272940844 -0.263576359 0.0601523854 -0.0410122015 -0.253412098 0.0601523854 -0.0410122015 -0.253412098 0.0601523928 -0.0535850078 -0.234595537 -0.0193864089 -0.0463999547 -0.247199893 -0.0193864089 -0.0463999547 -0.247199893 0.0601523928 -0.0535850078 -0.234595537 -0.0273864008 -0.0556799993 -0.228639886 -0.0273864008 -0.0556799993 -0.228639886 0.0601523928 -0.0535850078 -0.234595537 0.0601523928 -0.0579999685 -0.2123999 -0.0343863964 -0.0579999462 -0.212399885 -0.0273864008 -0.0556799993 -0.228639886 0.0601523928 -0.0579999685 -0.2123999 -0.0123275965 -0.0272940844 -0.263576359 -0.0101556312 -0.0142769208 -0.268615276 0.0601524003 -0.0221956596 -0.265984923 -0.0155507885 0.0381369926 -0.256098509 -0.0193863995 0.0463999733 -0.247199893 0.0601524077 0.0410122052 -0.253412068 -0.0193863995 0.0463999733 -0.247199893 -0.0273863971 0.0556800067 -0.228639916 0.0601524077 0.0535850413 -0.234595537 0.0236965846 -0.0579985529 -0.211992458 0.0156830661 -0.0579988696 -0.21203953 0.0601523928 -0.0579999685 -0.2123999 0.0246908162 -0.0579975806 -0.21187146 0.0601523928 -0.0579999685 -0.2123999 0.0256578662 -0.0579943508 -0.211593002 0.0246908162 -0.0579975806 -0.21187146 0.0236965846 -0.0579985529 -0.211992458 0.0601523928 -0.0579999685 -0.2123999 0.0601523928 -0.0579999685 -0.2123999 0.0601523928 -0.0535850152 -0.190204263 0.0256578662 -0.0579943508 -0.211593002 0.0256578662 -0.0579943508 -0.211593002 0.0601523928 -0.0535850152 -0.190204263 0.0257576518 -0.0579932556 -0.211513072 0.0257576518 -0.0579932556 -0.211513072 0.0601523928 -0.0535850152 -0.190204263 0.0258202963 -0.0579914078 -0.211403221 0.0258202963 -0.0579914078 -0.211403221 0.0601523928 -0.0535850152 -0.190204263 0.0258143917 -0.0579890683 -0.211276501 0.0258143917 -0.0579890683 -0.211276501 0.0601523928 -0.0535850152 -0.190204263 0.025757974 -0.0579867698 -0.211162254 0.025757974 -0.0579867698 -0.211162254 0.0601523928 -0.0535850152 -0.190204263 0.0254000388 -0.0579780191 -0.210805431 0.0254000388 -0.0579780191 -0.210805431 0.0601523928 -0.0535850152 -0.190204263 0.0245782211 -0.057958886 -0.210215881 0.0245782211 -0.057958886 -0.210215881 0.0601523928 -0.0535850152 -0.190204263 0.0229568593 -0.0579007529 -0.209009096 0.0229568593 -0.0579007529 -0.209009096 0.0601523928 -0.0535850152 -0.190204263 0.0229139552 -0.0578938276 -0.20889239 0.0229139552 -0.0578938276 -0.20889239 0.0601523928 -0.0535850152 -0.190204263 0.0229034685 -0.0578861572 -0.208768204 0.0229034685 -0.0578861572 -0.208768204 0.0601523928 -0.0535850152 -0.190204263 0.0229252558 -0.0578701645 -0.208521828 0.0229252558 -0.0578701645 -0.208521828 0.0601523928 -0.0535850152 -0.190204263 0.0230385195 -0.0578359514 -0.208041087 0.0230385195 -0.0578359514 -0.208041087 0.0601523928 -0.0535850152 -0.190204263 0.023365505 -0.0577585548 -0.207113311 0.023365505 -0.0577585548 -0.207113311 0.0601523928 -0.0535850152 -0.190204263 0.0307347439 -0.0548600927 -0.193575352 0.0307347439 -0.0548600927 -0.193575352 0.0601523928 -0.0535850152 -0.190204263 0.0386103727 -0.0490445867 -0.181438133 0.0386103727 -0.0490445867 -0.181438133 0.0601523928 -0.0535850152 -0.190204263 0.0601524003 -0.0410121791 -0.171387717 0.0461743437 -0.0404563472 -0.17083931 0.0601524003 -0.0410121791 -0.171387717 0.060152404 -0.0221956093 -0.158814922 0.0528440103 -0.0291781295 -0.162273705 0.060152404 -0.0221956093 -0.158814922 0.0578724258 -0.0154332146 -0.156490907 0.0528440103 -0.0291781295 -0.162273705 0.0461743437 -0.0404563472 -0.17083931 0.060152404 -0.0221956093 -0.158814922 0.060152404 -0.0221956093 -0.158814922 0.0601523854 -1.28694939e-08 -0.154399917 0.0578724258 -0.0154332146 -0.156490907 0.0578724258 -0.0154332146 -0.156490907 0.0601523854 -1.28694939e-08 -0.154399917 0.0599942878 2.82937158e-08 -0.154399902 0.0599942878 2.82937158e-08 -0.154399902 0.0601523854 -1.28694939e-08 -0.154399917 0.0578643829 0.0154631026 -0.156499192 0.0578643829 0.0154631026 -0.156499192 0.0601523854 -1.28694939e-08 -0.154399917 0.0601524003 0.0221956 -0.158814907 0.0528475568 0.029170718 -0.162269399 0.0601524003 0.0221956 -0.158814907 0.060152404 0.0410121791 -0.171387717 0.0460986421 0.0405604094 -0.170940831 0.060152404 0.0410121791 -0.171387717 0.0384259112 0.0492140912 -0.181708321 0.0460986421 0.0405604094 -0.170940831 0.0528475568 0.029170718 -0.162269399 0.060152404 0.0410121791 -0.171387717 0.060152404 0.0410121791 -0.171387717 0.0601524003 0.0535849892 -0.190204263 0.0384259112 0.0492140912 -0.181708321 0.0384259112 0.0492140912 -0.181708321 0.0601524003 0.0535849892 -0.190204263 0.0304444395 0.0550207049 -0.194049805 0.0304444395 0.0550207049 -0.194049805 0.0601524003 0.0535849892 -0.190204263 0.0601524003 0.0579999909 -0.212399915 0.0231165551 0.0578166954 -0.207791597 0.0601524003 0.0579999909 -0.212399915 0.0229034778 0.0578854792 -0.208757475 0.0231165551 0.0578166954 -0.207791597 0.0304444395 0.0550207049 -0.194049805 0.0601524003 0.0579999909 -0.212399915 -0.0248724669 0.0579959676 -0.211716637 -0.024397457 0.0579972491 -0.211834162 -0.0343863703 0.058000017 -0.212399885 -0.0251010004 0.0579947941 -0.211622909 -0.0343863703 0.058000017 -0.212399885 -0.0252060127 0.0579938404 -0.211555883 -0.0251010004 0.0579947941 -0.211622909 -0.0248724669 0.0579959676 -0.211716637 -0.0343863703 0.058000017 -0.212399885 -0.0432415642 0.0542396754 -0.191855878 -0.0295214299 0.0552453734 -0.194737867 -0.0343863703 0.058000017 -0.212399885 -0.0512243137 0.0314245336 -0.163650542 -0.0571148023 0.0241570435 -0.15967007 -0.0564791113 0.0185172781 -0.157435268 -0.0571148023 0.0241570435 -0.15967007 -0.0593294464 0.00391362282 -0.154532105 -0.0564791113 0.0185172781 -0.157435268 -0.0295214299 0.0552453734 -0.194737867 -0.0225427728 0.0578336231 -0.208010271 -0.0343863703 0.058000017 -0.212399885 -0.0343863703 0.058000017 -0.212399885 -0.0225427728 0.0578336231 -0.208010271 -0.0224283393 0.05786708 -0.208474994 -0.0223998055 0.0578827374 -0.208713472 -0.0343863703 0.058000017 -0.212399885 -0.0224283393 0.05786708 -0.208474994 -0.0223998055 0.0578827374 -0.208713472 -0.0224247202 0.0578974672 -0.208952338 -0.0343863703 0.058000017 -0.212399885 -0.0224910416 0.0579033643 -0.209052742 -0.0343863703 0.058000017 -0.212399885 -0.0224247202 0.0578974672 -0.208952338 -0.0224910416 0.0579033643 -0.209052742 -0.0225861352 0.0579077937 -0.209130138 -0.0343863703 0.058000017 -0.212399885 -0.0343863703 0.058000017 -0.212399885 -0.0225861352 0.0579077937 -0.209130138 -0.022778308 0.0579161905 -0.209282547 -0.0231693797 0.057931371 -0.209578678 -0.0343863703 0.058000017 -0.212399885 -0.022778308 0.0579161905 -0.209282547 -0.0231693797 0.057931371 -0.209578678 -0.0247726012 0.0579754114 -0.210710064 -0.0343863703 0.058000017 -0.212399885 -0.0343863703 0.058000017 -0.212399885 -0.0247726012 0.0579754114 -0.210710064 -0.0251453128 0.0579838119 -0.211029857 -0.0252904929 0.0579881743 -0.211227834 -0.0343863703 0.058000017 -0.212399885 -0.0251453128 0.0579838119 -0.211029857 -0.0252904929 0.0579881743 -0.211227834 -0.0253215693 0.0579904802 -0.211347133 -0.0343863703 0.058000017 -0.212399885 -0.0252891183 0.0579924956 -0.211465597 -0.0343863703 0.058000017 -0.212399885 -0.0253215693 0.0579904802 -0.211347133 -0.0252891183 0.0579924956 -0.211465597 -0.0252060127 0.0579938404 -0.211555883 -0.0343863703 0.058000017 -0.212399885 -0.024397457 0.0579972491 -0.211834162 -0.0224668533 0.0579989664 -0.212050274 -0.0343863703 0.058000017 -0.212399885 -0.0343863703 0.058000017 -0.212399885 -0.0224668533 0.0579989664 -0.212050274 0.0601524003 0.0579999909 -0.212399915 0.0601524003 0.0579999909 -0.212399915 -0.0224668533 0.0579989664 -0.212050274 0.0231042579 0.0579988696 -0.212040931 0.0250528492 0.0579969622 -0.211803198 0.0601524003 0.0579999909 -0.212399915 0.0231042579 0.0579988696 -0.212040931 0.0250528492 0.0579969622 -0.211803198 0.0255230851 0.0579952933 -0.211662188 0.0601524003 0.0579999909 -0.212399915 0.0601524003 0.0579999909 -0.212399915 0.0255230851 0.0579952933 -0.211662188 0.0257349052 0.0579935648 -0.211535498 0.0258090496 0.0579919666 -0.21143648 0.0601524003 0.0579999909 -0.212399915 0.0257349052 0.0579935648 -0.211535498 0.0601524003 0.0579999909 -0.212399915 0.0258090496 0.0579919666 -0.21143648 0.0258234385 0.057989873 -0.211314946 0.0257803593 0.0579875857 -0.211198807 0.0601524003 0.0579999909 -0.212399915 0.0258234385 0.057989873 -0.211314946 0.0257803593 0.0579875857 -0.211198807 0.0257095806 0.0579853579 -0.211096957 0.0601524003 0.0579999909 -0.212399915 0.0601524003 0.0579999909 -0.212399915 0.0257095806 0.0579853579 -0.211096957 0.0255358014 0.0579811372 -0.210919872 0.025146056 0.0579724647 -0.210612759 0.0601524003 0.0579999909 -0.212399915 0.0255358014 0.0579811372 -0.210919872 0.025146056 0.0579724647 -0.210612759 0.0235260967 0.0579258539 -0.209468544 0.0601524003 0.0579999909 -0.212399915 0.0601524003 0.0579999909 -0.212399915 0.0235260967 0.0579258539 -0.209468544 0.0231341347 0.0579097234 -0.209164813 0.0229511503 0.0579002202 -0.208999842 0.0601524003 0.0579999909 -0.212399915 0.0231341347 0.0579097234 -0.209164813 0.0229511503 0.0579002202 -0.208999842 0.0229120906 0.0578932278 -0.208881915 0.0601524003 0.0579999909 -0.212399915 0.0601524003 0.0579999909 -0.212399915 0.0229120906 0.0578932278 -0.208881915 0.0229034778 0.0578854792 -0.208757475 0.0231042579 0.0579988696 -0.212040931 -0.0224668533 0.0579989664 -0.212050274 0.0152687887 0.0579985604 -0.211991519 0.0152687887 0.0579985604 -0.211991519 -0.0224668533 0.0579989664 -0.212050274 -0.0146960886 0.0579985492 -0.211983278 0.000252404629 0.0578223392 -0.207863703 0.0152687887 0.0579985604 -0.211991519 -0.0146960886 0.0579985492 -0.211983278 0.0528475568 0.029170718 -0.162269399 0.0578643829 0.0154631026 -0.156499192 0.0601524003 0.0221956 -0.158814907 0.0461743437 -0.0404563472 -0.17083931 0.0386103727 -0.0490445867 -0.181438133 0.0601524003 -0.0410121791 -0.171387717 0.000252394588 -0.0578223392 -0.207863703 -0.0142842345 -0.0579981096 -0.211931035 0.0156830661 -0.0579988696 -0.21203953 0.0156830661 -0.0579988696 -0.21203953 -0.0142842345 -0.0579981096 -0.211931035 -0.0218746867 -0.0579990596 -0.212086886 0.0601523928 -0.0579999685 -0.2123999 -0.0218746867 -0.0579990596 -0.212086886 -0.0343863964 -0.0579999462 -0.212399885 0.0601523928 -0.0579999685 -0.2123999 0.0156830661 -0.0579988696 -0.21203953 -0.0218746867 -0.0579990596 -0.212086886 -0.0218746867 -0.0579990596 -0.212086886 -0.0237712096 -0.0579980128 -0.21193032 -0.0343863964 -0.0579999462 -0.212399885 -0.0343863964 -0.0579999462 -0.212399885 -0.0237712096 -0.0579980128 -0.21193032 -0.024709098 -0.0579964817 -0.2117645 -0.025153039 -0.057994362 -0.211592987 -0.0343863964 -0.0579999462 -0.212399885 -0.024709098 -0.0579964817 -0.2117645 -0.025153039 -0.057994362 -0.211592987 -0.0252473988 -0.0579932742 -0.211518779 -0.0343863964 -0.0579999462 -0.212399885 -0.0343863964 -0.0579999462 -0.212399885 -0.0252473988 -0.0579932742 -0.211518779 -0.0432415418 -0.0542396568 -0.191855863 -0.0253112987 -0.057991676 -0.211417735 -0.0432415418 -0.0542396568 -0.191855863 -0.0252473988 -0.0579932742 -0.211518779 -0.0432415418 -0.0542396568 -0.191855863 -0.0253112987 -0.057991676 -0.211417735 -0.0253155567 -0.0579895005 -0.211299032 -0.025269283 -0.0579873137 -0.211187959 -0.0432415418 -0.0542396568 -0.191855863 -0.0253155567 -0.0579895005 -0.211299032 -0.025269283 -0.0579873137 -0.211187959 -0.0237652306 -0.0579504855 -0.210003316 -0.0432415418 -0.0542396568 -0.191855863 -0.0432415418 -0.0542396568 -0.191855863 -0.0237652306 -0.0579504855 -0.210003316 -0.0229855385 -0.0579244718 -0.209441602 -0.0226063356 -0.0579086691 -0.20914638 -0.0432415418 -0.0542396568 -0.191855863 -0.0229855385 -0.0579244718 -0.209441602 -0.0226063356 -0.0579086691 -0.20914638 -0.0225130189 -0.0579042621 -0.209070712 -0.0432415418 -0.0542396568 -0.191855863 -0.0224360488 -0.0578990579 -0.208980247 -0.0432415418 -0.0542396568 -0.191855863 -0.0225130189 -0.0579042621 -0.209070712 -0.0224360488 -0.0578990579 -0.208980247 -0.0224046912 -0.05789214 -0.208864436 -0.0432415418 -0.0542396568 -0.191855863 -0.0432415418 -0.0542396568 -0.191855863 -0.0224046912 -0.05789214 -0.208864436 -0.0223988481 -0.057884559 -0.208743185 -0.0237308517 -0.057546813 -0.205163956 -0.0432415418 -0.0542396568 -0.191855863 -0.0223988481 -0.057884559 -0.208743185 -0.0237308517 -0.057546813 -0.205163956 -0.0254780799 -0.0570187531 -0.201776624 -0.0432415418 -0.0542396568 -0.191855863 -0.0432415418 -0.0542396568 -0.191855863 -0.0254780799 -0.0570187531 -0.201776624 -0.0292090774 -0.0554081984 -0.195255592 -0.0369445048 -0.0500832945 -0.183148369 -0.0432415418 -0.0542396568 -0.191855863 -0.0292090774 -0.0554081984 -0.195255592 -0.0369445048 -0.0500832945 -0.183148369 -0.0514572076 -0.0423732549 -0.172795534 -0.0432415418 -0.0542396568 -0.191855863 -0.0369445048 -0.0500832945 -0.183148369 -0.0512004793 -0.0314704143 -0.163680196 -0.0514572076 -0.0423732549 -0.172795534 -0.0514572076 -0.0423732549 -0.172795534 -0.0512004793 -0.0314704143 -0.163680196 -0.0571147799 -0.0241570063 -0.159670055 -0.0571147799 -0.0241570063 -0.159670055 -0.0512004793 -0.0314704143 -0.163680196 -0.0564513654 -0.0186069999 -0.157465622 -0.0593294166 -0.00391348545 -0.154532105 -0.0571147799 -0.0241570063 -0.159670055 -0.0564513654 -0.0186069999 -0.157465622 -0.0577263348 -0.00115820311 -0.152029261 -0.057736475 2.16290008e-09 -0.152249917 -0.0575871952 -0.00412018318 -0.152527317 -0.0577075779 -0.00215231231 -0.151399925 -0.0575871952 -0.00412018318 -0.152527317 -0.0526940152 -0.0236785691 -0.151399925 -0.0577075779 -0.00215231231 -0.151399925 -0.0577263348 -0.00115820311 -0.152029261 -0.0575871952 -0.00412018318 -0.152527317 -0.0579115972 5.06329627e-08 -0.153390646 -0.0580357015 -0.00412012078 -0.153945595 -0.0577933751 5.00968333e-09 -0.153032541 -0.0579115972 5.06329627e-08 -0.153390646 -0.0581039228 5.14377607e-09 -0.153708443 -0.0580357015 -0.00412012078 -0.153945595 -0.0580357015 -0.00412012078 -0.153945595 -0.0581039228 5.14377607e-09 -0.153708443 -0.0586620197 2.69287259e-08 -0.154188141 -0.0564513654 -0.0186069999 -0.157465622 -0.0586620197 2.69287259e-08 -0.154188141 -0.0593294166 -0.00391348545 -0.154532105 -0.0564513654 -0.0186069999 -0.157465622 -0.0580357015 -0.00412012078 -0.153945595 -0.0586620197 2.69287259e-08 -0.154188141 -0.0564513654 -0.0186069999 -0.157465622 -0.0524808727 -0.0253529884 -0.159179747 -0.0580357015 -0.00412012078 -0.153945595 -0.0564513654 -0.0186069999 -0.157465622 -0.0512004793 -0.0314704143 -0.163680196 -0.0524808727 -0.0253529884 -0.159179747 -0.0524808727 -0.0253529884 -0.159179747 -0.0512004793 -0.0314704143 -0.163680196 -0.0396432877 -0.0433283225 -0.171262026 -0.0517692305 -0.0253530387 -0.154761463 -0.0396432877 -0.0433283225 -0.171262026 -0.0380692557 -0.0433283783 -0.159912229 -0.0399916172 -0.0417662188 -0.151399896 -0.0380692557 -0.0433283783 -0.159912229 -0.0214450303 -0.0537886582 -0.151399925 -0.0399916172 -0.0417662188 -0.151399896 -0.0517692305 -0.0253530387 -0.154761463 -0.0380692557 -0.0433283783 -0.159912229 -0.0399916172 -0.0417662188 -0.151399896 -0.0526940152 -0.0236785691 -0.151399925 -0.0517692305 -0.0253530387 -0.154761463 -0.0517692305 -0.0253530387 -0.154761463 -0.0526940152 -0.0236785691 -0.151399925 -0.0575871952 -0.00412018318 -0.152527317 -0.0524808727 -0.0253529884 -0.159179747 -0.0575871952 -0.00412018318 -0.152527317 -0.0580357015 -0.00412012078 -0.153945595 -0.0524808727 -0.0253529884 -0.159179747 -0.0517692305 -0.0253530387 -0.154761463 -0.0575871952 -0.00412018318 -0.152527317 -0.0524808727 -0.0253529884 -0.159179747 -0.0396432877 -0.0433283225 -0.171262026 -0.0517692305 -0.0253530387 -0.154761463 -0.0593895726 -1.24791866e-08 -0.154392511 -0.059374515 -0.00195740885 -0.154427513 -0.0586620197 2.69287259e-08 -0.154188141 -0.0586620197 2.69287259e-08 -0.154188141 -0.059374515 -0.00195740885 -0.154427513 -0.0593294166 -0.00391348545 -0.154532105 -0.0512004793 -0.0314704143 -0.163680196 -0.0369445048 -0.0500832945 -0.183148369 -0.0396432877 -0.0433283225 -0.171262026 -0.0396432877 -0.0433283225 -0.171262026 -0.0369445048 -0.0500832945 -0.183148369 -0.0216485318 -0.0547873452 -0.188184038 -0.0380692557 -0.0433283783 -0.159912229 -0.0216485318 -0.0547873452 -0.188184038 -0.0186200738 -0.0547874272 -0.167120054 -0.0214450303 -0.0537886582 -0.151399925 -0.0186200738 -0.0547874272 -0.167120054 0.000252412719 -0.0579999946 -0.164738432 0.000252408005 -0.0580000058 -0.151404113 -0.0214450303 -0.0537886582 -0.151399925 0.000252412719 -0.0579999946 -0.164738432 -0.0369445048 -0.0500832945 -0.183148369 -0.0292090774 -0.0554081984 -0.195255592 -0.0216485318 -0.0547873452 -0.188184038 -0.0216485318 -0.0547873452 -0.188184038 -0.0292090774 -0.0554081984 -0.195255592 -0.0254780799 -0.0570187531 -0.201776624 -0.0142842345 -0.0579981096 -0.211931035 -0.0254780799 -0.0570187531 -0.201776624 -0.0237308517 -0.057546813 -0.205163956 -0.0223988481 -0.057884559 -0.208743185 -0.0142842345 -0.0579981096 -0.211931035 -0.0237308517 -0.057546813 -0.205163956 -0.0223988481 -0.057884559 -0.208743185 -0.0224046912 -0.05789214 -0.208864436 -0.0142842345 -0.0579981096 -0.211931035 -0.0142842345 -0.0579981096 -0.211931035 -0.0224046912 -0.05789214 -0.208864436 -0.0224360488 -0.0578990579 -0.208980247 -0.0225130189 -0.0579042621 -0.209070712 -0.0142842345 -0.0579981096 -0.211931035 -0.0224360488 -0.0578990579 -0.208980247 -0.0142842345 -0.0579981096 -0.211931035 -0.0225130189 -0.0579042621 -0.209070712 -0.0218746867 -0.0579990596 -0.212086886 -0.0218746867 -0.0579990596 -0.212086886 -0.0225130189 -0.0579042621 -0.209070712 -0.0226063356 -0.0579086691 -0.20914638 -0.0229855385 -0.0579244718 -0.209441602 -0.0218746867 -0.0579990596 -0.212086886 -0.0226063356 -0.0579086691 -0.20914638 -0.0229855385 -0.0579244718 -0.209441602 -0.0237652306 -0.0579504855 -0.210003316 -0.0218746867 -0.0579990596 -0.212086886 -0.0218746867 -0.0579990596 -0.212086886 -0.0237652306 -0.0579504855 -0.210003316 -0.0237712096 -0.0579980128 -0.21193032 -0.0237712096 -0.0579980128 -0.21193032 -0.0237652306 -0.0579504855 -0.210003316 -0.025269283 -0.0579873137 -0.211187959 -0.024709098 -0.0579964817 -0.2117645 -0.025269283 -0.0579873137 -0.211187959 -0.0253155567 -0.0579895005 -0.211299032 -0.025153039 -0.057994362 -0.211592987 -0.0253155567 -0.0579895005 -0.211299032 -0.0253112987 -0.057991676 -0.211417735 -0.0253112987 -0.057991676 -0.211417735 -0.0252473988 -0.0579932742 -0.211518779 -0.025153039 -0.057994362 -0.211592987 -0.025153039 -0.057994362 -0.211592987 -0.024709098 -0.0579964817 -0.2117645 -0.0253155567 -0.0579895005 -0.211299032 -0.024709098 -0.0579964817 -0.2117645 -0.0237712096 -0.0579980128 -0.21193032 -0.025269283 -0.0579873137 -0.211187959 0.000252394588 -0.0578223392 -0.207863703 -0.00119996071 -0.0579009205 -0.207406297 -0.0142842345 -0.0579981096 -0.211931035 0.000252394588 -0.0578223392 -0.207863703 0.000252416212 -0.0579997897 -0.192969263 -0.00119996071 -0.0579009205 -0.207406297 -0.00119996071 -0.0579009205 -0.207406297 0.000252416212 -0.0579997897 -0.192969263 -0.0216485318 -0.0547873452 -0.188184038 -0.0142842345 -0.0579981096 -0.211931035 -0.0216485318 -0.0547873452 -0.188184038 -0.0254780799 -0.0570187531 -0.201776624 -0.0142842345 -0.0579981096 -0.211931035 -0.00119996071 -0.0579009205 -0.207406297 -0.0216485318 -0.0547873452 -0.188184038 -0.0216485318 -0.0547873452 -0.188184038 0.000252416212 -0.0579997897 -0.192969263 -0.0186200738 -0.0547874272 -0.167120054 -0.0186200738 -0.0547874272 -0.167120054 0.000252416212 -0.0579997897 -0.192969263 0.000252405182 -0.0579999872 -0.178072751 0.000252412719 -0.0579999946 -0.164738432 -0.0186200738 -0.0547874272 -0.167120054 0.000252405182 -0.0579999872 -0.178072751 -0.0380692557 -0.0433283783 -0.159912229 -0.0186200738 -0.0547874272 -0.167120054 -0.0214450303 -0.0537886582 -0.151399925 -0.0396432877 -0.0433283225 -0.171262026 -0.0216485318 -0.0547873452 -0.188184038 -0.0380692557 -0.0433283783 -0.159912229 -0.057736475 2.16290008e-09 -0.152249917 -0.0577933751 5.00968333e-09 -0.153032541 -0.0575871952 -0.00412018318 -0.152527317 -0.0575871952 -0.00412018318 -0.152527317 -0.0577933751 5.00968333e-09 -0.153032541 -0.0580357015 -0.00412012078 -0.153945595 0.000252408005 -0.0580000058 -0.151404113 0.000252421101 -0.0579999536 -0.14609991 -0.0214450303 -0.0537886582 -0.151399925 -0.0214450303 -0.0537886582 -0.151399925 0.000252421101 -0.0579999536 -0.14609991 -0.0212132856 -0.0538815185 -0.146099925 -0.0396305397 -0.0421111323 -0.146099925 -0.0214450303 -0.0537886582 -0.151399925 -0.0212132856 -0.0538815185 -0.146099925 -0.0396305397 -0.0421111323 -0.146099925 -0.0399916172 -0.0417662188 -0.151399896 -0.0214450303 -0.0537886582 -0.151399925 -0.0396305397 -0.0421111323 -0.146099925 -0.0523838028 -0.0243602954 -0.14609994 -0.0399916172 -0.0417662188 -0.151399896 -0.0399916172 -0.0417662188 -0.151399896 -0.0523838028 -0.0243602954 -0.14609994 -0.0526940152 -0.0236785691 -0.151399925 -0.0526940152 -0.0236785691 -0.151399925 -0.0523838028 -0.0243602954 -0.14609994 -0.0576755255 -0.00289002713 -0.150352865 -0.0577075779 -0.00215231231 -0.151399925 -0.0526940152 -0.0236785691 -0.151399925 -0.0576755255 -0.00289002713 -0.150352865 -0.0576619729 -0.00314999116 -0.146099925 -0.0576619767 -0.00314999651 -0.149099931 -0.0523838028 -0.0243602954 -0.14609994 -0.0523838028 -0.0243602954 -0.14609994 -0.0576619767 -0.00314999651 -0.149099931 -0.0576755255 -0.00289002713 -0.150352865 0.0582523905 4.40707062e-08 -0.15139991 0.0582435355 3.30474741e-08 -0.152436912 0.0538374074 0.0221956726 -0.15139991 0.0538374074 0.0221956726 -0.15139991 0.0582435355 3.30474741e-08 -0.152436912 0.0534377098 0.0228237882 -0.154712319 0.0412645899 0.041012194 -0.15139991 0.0534377098 0.0228237882 -0.154712319 0.0396687239 0.042305626 -0.160602033 0.0224480573 0.0535849929 -0.15139991 0.0396687239 0.042305626 -0.160602033 0.0203370117 0.0543411411 -0.168757156 0.000252415688 0.0580000654 -0.164736345 0.0203370117 0.0543411411 -0.168757156 0.000252423488 0.0580000207 -0.178072751 0.000252415688 0.0580000654 -0.164736345 0.0224480573 0.0535849929 -0.15139991 0.0203370117 0.0543411411 -0.168757156 0.000252415688 0.0580000654 -0.164736345 0.00025241918 0.0580000728 -0.15139991 0.0224480573 0.0535849929 -0.15139991 0.0582435355 3.30474741e-08 -0.152436912 0.0584269129 1.68943188e-08 -0.15341261 0.0534377098 0.0228237882 -0.154712319 0.0534377098 0.0228237882 -0.154712319 0.0584269129 1.68943188e-08 -0.15341261 0.0545253158 0.0228237715 -0.158557996 0.0423852615 0.0423055738 -0.171471596 0.0545253158 0.0228237715 -0.158557996 0.0528475568 0.029170718 -0.162269399 0.0460986421 0.0405604094 -0.170940831 0.0423852615 0.0423055738 -0.171471596 0.0528475568 0.029170718 -0.162269399 0.0460986421 0.0405604094 -0.170940831 0.0384259112 0.0492140912 -0.181708321 0.0423852615 0.0423055738 -0.171471596 0.0423852615 0.0423055738 -0.171471596 0.0384259112 0.0492140912 -0.181708321 0.0255603716 0.0543410629 -0.189384729 0.0396687239 0.042305626 -0.160602033 0.0255603716 0.0543410629 -0.189384729 0.0203370117 0.0543411411 -0.168757156 0.0396687239 0.042305626 -0.160602033 0.0423852615 0.0423055738 -0.171471596 0.0255603716 0.0543410629 -0.189384729 0.0396687239 0.042305626 -0.160602033 0.0534377098 0.0228237882 -0.154712319 0.0423852615 0.0423055738 -0.171471596 0.0423852615 0.0423055738 -0.171471596 0.0534377098 0.0228237882 -0.154712319 0.0545253158 0.0228237715 -0.158557996 0.0584269129 1.68943188e-08 -0.15341261 0.0586940162 2.49063419e-08 -0.153812081 0.0545253158 0.0228237715 -0.158557996 0.0545253158 0.0228237715 -0.158557996 0.0586940162 2.49063419e-08 -0.153812081 0.0590579882 -3.63703414e-08 -0.154123604 0.0578643829 0.0154631026 -0.156499192 0.0590579882 -3.63703414e-08 -0.154123604 0.0594985113 3.89870713e-09 -0.154325396 0.0599942878 2.82937158e-08 -0.154399902 0.0578643829 0.0154631026 -0.156499192 0.0594985113 3.89870713e-09 -0.154325396 0.0590579882 -3.63703414e-08 -0.154123604 0.0578643829 0.0154631026 -0.156499192 0.0545253158 0.0228237715 -0.158557996 0.0545253158 0.0228237715 -0.158557996 0.0578643829 0.0154631026 -0.156499192 0.0528475568 0.029170718 -0.162269399 0.0384259112 0.0492140912 -0.181708321 0.0304444395 0.0550207049 -0.194049805 0.0255603716 0.0543410629 -0.189384729 0.0255603716 0.0543410629 -0.189384729 0.0304444395 0.0550207049 -0.194049805 0.0070340489 0.0579843223 -0.209117398 0.000252427126 0.0579998754 -0.192969039 0.0070340489 0.0579843223 -0.209117398 0.000252404629 0.0578223392 -0.207863703 0.000252427126 0.0579998754 -0.192969039 0.0255603716 0.0543410629 -0.189384729 0.0070340489 0.0579843223 -0.209117398 0.000252427126 0.0579998754 -0.192969039 0.0203370117 0.0543411411 -0.168757156 0.0255603716 0.0543410629 -0.189384729 0.000252427126 0.0579998754 -0.192969039 0.000252423488 0.0580000207 -0.178072751 0.0203370117 0.0543411411 -0.168757156 0.0304444395 0.0550207049 -0.194049805 0.0231165551 0.0578166954 -0.207791597 0.0070340489 0.0579843223 -0.209117398 0.0070340489 0.0579843223 -0.209117398 0.0231165551 0.0578166954 -0.207791597 0.0152687887 0.0579985604 -0.211991519 0.000252404629 0.0578223392 -0.207863703 0.0070340489 0.0579843223 -0.209117398 0.0152687887 0.0579985604 -0.211991519 0.0231165551 0.0578166954 -0.207791597 0.0229034778 0.0578854792 -0.208757475 0.0152687887 0.0579985604 -0.211991519 0.0152687887 0.0579985604 -0.211991519 0.0229034778 0.0578854792 -0.208757475 0.0229120906 0.0578932278 -0.208881915 0.0229511503 0.0579002202 -0.208999842 0.0152687887 0.0579985604 -0.211991519 0.0229120906 0.0578932278 -0.208881915 0.0229511503 0.0579002202 -0.208999842 0.0231341347 0.0579097234 -0.209164813 0.0152687887 0.0579985604 -0.211991519 0.0152687887 0.0579985604 -0.211991519 0.0231341347 0.0579097234 -0.209164813 0.0231042579 0.0579988696 -0.212040931 0.0231042579 0.0579988696 -0.212040931 0.0231341347 0.0579097234 -0.209164813 0.0235260967 0.0579258539 -0.209468544 0.025146056 0.0579724647 -0.210612759 0.0231042579 0.0579988696 -0.212040931 0.0235260967 0.0579258539 -0.209468544 0.025146056 0.0579724647 -0.210612759 0.0255358014 0.0579811372 -0.210919872 0.0231042579 0.0579988696 -0.212040931 0.0231042579 0.0579988696 -0.212040931 0.0255358014 0.0579811372 -0.210919872 0.0250528492 0.0579969622 -0.211803198 0.0250528492 0.0579969622 -0.211803198 0.0255358014 0.0579811372 -0.210919872 0.0257095806 0.0579853579 -0.211096957 0.0257803593 0.0579875857 -0.211198807 0.0250528492 0.0579969622 -0.211803198 0.0257095806 0.0579853579 -0.211096957 0.0257803593 0.0579875857 -0.211198807 0.0255230851 0.0579952933 -0.211662188 0.0250528492 0.0579969622 -0.211803198 0.0257803593 0.0579875857 -0.211198807 0.0258234385 0.057989873 -0.211314946 0.0255230851 0.0579952933 -0.211662188 0.0255230851 0.0579952933 -0.211662188 0.0258234385 0.057989873 -0.211314946 0.0258090496 0.0579919666 -0.21143648 0.0258090496 0.0579919666 -0.21143648 0.0257349052 0.0579935648 -0.211535498 0.0255230851 0.0579952933 -0.211662188 0.0224480573 0.0535849929 -0.15139991 0.0412645899 0.041012194 -0.15139991 0.0396687239 0.042305626 -0.160602033 0.0412645899 0.041012194 -0.15139991 0.0538374074 0.0221956726 -0.15139991 0.0534377098 0.0228237882 -0.154712319 -0.0593745224 0.00195708103 -0.154427484 -0.0593294166 -0.00391348545 -0.154532105 -0.059374515 -0.00195740885 -0.154427513 -0.0593895726 -1.24791866e-08 -0.154392511 -0.0593745224 0.00195708103 -0.154427484 -0.059374515 -0.00195740885 -0.154427513 -0.0593745224 0.00195708103 -0.154427484 -0.0593294464 0.00391362282 -0.154532105 -0.0593294166 -0.00391348545 -0.154532105 -0.0576619729 -0.00314999116 -0.146099925 -0.0576620027 0.00314999861 -0.146099925 -0.0576619767 -0.00314999651 -0.149099931 -0.0576620027 0.00314999861 -0.146099925 -0.0576619655 0.00315004028 -0.149099916 -0.0576619767 -0.00314999651 -0.149099931 -0.0576619655 0.00315004028 -0.149099916 -0.0576755404 0.00289007206 -0.15035288 -0.0576619767 -0.00314999651 -0.149099931 -0.0576755404 0.00289007206 -0.15035288 -0.0577075817 0.00215237262 -0.15139991 -0.0576619767 -0.00314999651 -0.149099931 -0.0577075817 0.00215237262 -0.15139991 -0.0577263907 0.00115604769 -0.152030125 -0.0576619767 -0.00314999651 -0.149099931 -0.0577263907 0.00115604769 -0.152030125 -0.057736475 2.16290008e-09 -0.152249917 -0.0576619767 -0.00314999651 -0.149099931 -0.057736475 2.16290008e-09 -0.152249917 -0.0577263348 -0.00115820311 -0.152029261 -0.0576619767 -0.00314999651 -0.149099931 -0.0577263348 -0.00115820311 -0.152029261 -0.0577075779 -0.00215231231 -0.151399925 -0.0576619767 -0.00314999651 -0.149099931 -0.0577075779 -0.00215231231 -0.151399925 -0.0576755255 -0.00289002713 -0.150352865 -0.0576619767 -0.00314999651 -0.149099931 -0.0371517204 0.0499028154 -0.182841346 -0.0295214299 0.0552453734 -0.194737867 -0.0432415642 0.0542396754 -0.191855878 -0.0514572635 0.0423732437 -0.172795519 -0.0371517204 0.0499028154 -0.182841346 -0.0432415642 0.0542396754 -0.191855878 -0.0512243137 0.0314245336 -0.163650542 -0.0371517204 0.0499028154 -0.182841346 -0.0514572635 0.0423732437 -0.172795519 -0.0571148023 0.0241570435 -0.15967007 -0.0512243137 0.0314245336 -0.163650542 -0.0514572635 0.0423732437 -0.172795519 </float_array>
          <technique_common>
            <accessor count="1164" offset="0" source="#mesh_0-positions-array" stride="3">
              <param name="X" type="float" />
              <param name="Y" type="float" />
              <param name="Z" type="float" />
            </accessor>
          </technique_common>
        </source>
        <vertices id="mesh_0-vertices">
          <input semantic="POSITION" source="#mesh_0-positions" />
        </vertices>
        <polylist count="388" material="defaultMaterial">
          <input offset="0" semantic="VERTEX" source="#mesh_0-vertices" />
          <vcount>3 3 3 3 3 3 3 3 3 3 3 3 3 3 3 3 3 3 3 3 3 3 3 3 3 3 3 3 3 3 3 3 3 3 3 3 3 3 3 3 3 3 3 3 3 3 3 3 3 3 3 3 3 3 3 3 3 3 3 3 3 3 3 3 3 3 3 3 3 3 3 3 3 3 3 3 3 3 3 3 3 3 3 3 3 3 3 3 3 3 3 3 3 3 3 3 3 3 3 3 3 3 3 3 3 3 3 3 3 3 3 3 3 3 3 3 3 3 3 3 3 3 3 3 3 3 3 3 3 3 3 3 3 3 3 3 3 3 3 3 3 3 3 3 3 3 3 3 3 3 3 3 3 3 3 3 3 3 3 3 3 3 3 3 3 3 3 3 3 3 3 3 3 3 3 3 3 3 3 3 3 3 3 3 3 3 3 3 3 3 3 3 3 3 3 3 3 3 3 3 3 3 3 3 3 3 3 3 3 3 3 3 3 3 3 3 3 3 3 3 3 3 3 3 3 3 3 3 3 3 3 3 3 3 3 3 3 3 3 3 3 3 3 3 3 3 3 3 3 3 3 3 3 3 3 3 3 3 3 3 3 3 3 3 3 3 3 3 3 3 3 3 3 3 3 3 3 3 3 3 3 3 3 3 3 3 3 3 3 3 3 3 3 3 3 3 3 3 3 3 3 3 3 3 3 3 3 3 3 3 3 3 3 3 3 3 3 3 3 3 3 3 3 3 3 3 3 3 3 3 3 3 3 3 3 3 3 3 3 3 3 3 3 3 3 3 3 3 3 3 3 3 3 3 3 3 3 3 3 3 3 3 3 3 3 3 3 3 3 3 3 3 3 3 3 3 3 3 3 3 3 3 3 3 3 3 3 3 </vcount>
          <p>0 1 2 3 4 5 6 7 8 9 10 11 12 13 14 15 16 17 18 19 20 21 22 23 24 25 26 27 28 29 30 31 32 33 34 35 36 37 38 39 40 41 42 43 44 45 46 47 48 49 50 51 52 53 54 55 56 57 58 59 60 61 62 63 64 65 66 67 68 69 70 71 72 73 74 75 76 77 78 79 80 81 82 83 84 85 86 87 88 89 90 91 92 93 94 95 96 97 98 99 100 101 102 103 104 105 106 107 108 109 110 111 112 113 114 115 116 117 118 119 120 121 122 123 124 125 126 127 128 129 130 131 132 133 134 135 136 137 138 139 140 141 142 143 144 145 146 147 148 149 150 151 152 153 154 155 156 157 158 159 160 161 162 163 164 165 166 167 168 169 170 171 172 173 174 175 176 177 178 179 180 181 182 183 184 185 186 187 188 189 190 191 192 193 194 195 196 197 198 199 200 201 202 203 204 205 206 207 208 209 210 211 212 213 214 215 216 217 218 219 220 221 222 223 224 225 226 227 228 229 230 231 232 233 234 235 236 237 238 239 240 241 242 243 244 245 246 247 248 249 250 251 252 253 254 255 256 257 258 259 260 261 262 263 264 265 266 267 268 269 270 271 272 273 274 275 276 277 278 279 280 281 282 283 284 285 286 287 288 289 290 291 292 293 294 295 296 297 298 299 300 301 302 303 304 305 306 307 308 309 310 311 312 313 314 315 316 317 318 319 320 321 322 323 324 325 326 327 328 329 330 331 332 333 334 335 336 337 338 339 340 341 342 343 344 345 346 347 348 349 350 351 352 353 354 355 356 357 358 359 360 361 362 363 364 365 366 367 368 369 370 371 372 373 374 375 376 377 378 379 380 381 382 383 384 385 386 387 388 389 390 391 392 393 394 395 396 397 398 399 400 401 402 403 404 405 406 407 408 409 410 411 412 413 414 415 416 417 418 419 420 421 422 423 424 425 426 427 428 429 430 431 432 433 434 435 436 437 438 439 440 441 442 443 444 445 446 447 448 449 450 451 452 453 454 455 456 457 458 459 460 461 462 463 464 465 466 467 468 469 470 471 472 473 474 475 476 477 478 479 480 481 482 483 484 485 486 487 488 489 490 491 492 493 494 495 496 497 498 499 500 501 502 503 504 505 506 507 508 509 510 511 512 513 514 515 516 517 518 519 520 521 522 523 524 525 526 527 528 529 530 531 532 533 534 535 536 537 538 539 540 541 542 543 544 545 546 547 548 549 550 551 552 553 554 555 556 557 558 559 560 561 562 563 564 565 566 567 568 569 570 571 572 573 574 575 576 577 578 579 580 581 582 583 584 585 586 587 588 589 590 591 592 593 594 595 596 597 598 599 600 601 602 603 604 605 606 607 608 609 610 611 612 613 614 615 616 617 618 619 620 621 622 623 624 625 626 627 628 629 630 631 632 633 634 635 636 637 638 639 640 641 642 643 644 645 646 647 648 649 650 651 652 653 654 655 656 657 658 659 660 661 662 663 664 665 666 667 668 669 670 671 672 673 674 675 676 677 678 679 680 681 682 683 684 685 686 687 688 689 690 691 692 693 694 695 696 697 698 699 700 701 702 703 704 705 706 707 708 709 710 711 712 713 714 715 716 717 718 719 720 721 722 723 724 725 726 727 728 729 730 731 732 733 734 735 736 737 738 739 740 741 742 743 744 745 746 747 748 749 750 751 752 753 754 755 756 757 758 759 760 761 762 763 764 765 766 767 768 769 770 771 772 773 774 775 776 777 778 779 780 781 782 783 784 785 786 787 788 789 790 791 792 793 794 795 796 797 798 799 800 801 802 803 804 805 806 807 808 809 810 811 812 813 814 815 816 817 818 819 820 821 822 823 824 825 826 827 828 829 830 831 832 833 834 835 836 837 838 839 840 841 842 843 844 845 846 847 848 849 850 851 852 853 854 855 856 857 858 859 860 861 862 863 864 865 866 867 868 869 870 871 872 873 874 875 876 877 878 879 880 881 882 883 884 885 886 887 888 889 890 891 892 893 894 895 896 897 898 899 900 901 902 903 904 905 906 907 908 909 910 911 912 913 914 915 916 917 918 919 920 921 922 923 924 925 926 927 928 929 930 931 932 933 934 935 936 937 938 939 940 941 942 943 944 945 946 947 948 949 950 951 952 953 954 955 956 957 958 959 960 961 962 963 964 965 966 967 968 969 970 971 972 973 974 975 976 977 978 979 980 981 982 983 984 985 986 987 988 989 990 991 992 993 994 995 996 997 998 999 1000 1001 1002 1003 1004 1005 1006 1007 1008 1009 1010 1011 1012 1013 1014 1015 1016 1017 1018 1019 1020 1021 1022 1023 1024 1025 1026 1027 1028 1029 1030 1031 1032 1033 1034 1035 1036 1037 1038 1039 1040 1041 1042 1043 1044 1045 1046 1047 1048 1049 1050 1051 1052 1053 1054 1055 1056 1057 1058 1059 1060 1061 1062 1063 1064 1065 1066 1067 1068 1069 1070 1071 1072 1073 1074 1075 1076 1077 1078 1079 1080 1081 1082 1083 1084 1085 1086 1087 1088 1089 1090 1091 1092 1093 1094 1095 1096 1097 1098 1099 1100 1101 1102 1103 1104 1105 1106 1107 1108 1109 1110 1111 1112 1113 1114 1115 1116 1117 1118 1119 1120 1121 1122 1123 1124 1125 1126 1127 1128 1129 1130 1131 1132 1133 1134 1135 1136 1137 1138 1139 1140 1141 1142 1143 1144 1145 1146 1147 1148 1149 1150 1151 1152 1153 1154 1155 1156 1157 1158 1159 1160 1161 1162 1163 </p>
        </polylist>
      </mesh>
    </geometry>
  </library_geometries>
  <library_controllers>
  </library_controllers>
  <library_visual_scenes>
    <visual_scene id="Scene" name="Scene">
      <node id="node" name="" type="NODE">
        <matrix sid="matrix">1 0 0 0 0 1 0 0 0 0 1 0 0 0 0 1</matrix>
        <instance_geometry url="#mesh_0">
          <bind_material>
            <technique_common>
              <instance_material symbol="defaultMaterial" target="#material_0">
              </instance_material>
            </technique_common>
          </bind_material>
        </instance_geometry>
      </node>
    </visual_scene>
  </library_visual_scenes>
  <scene>
    <instance_visual_scene url="#Scene" />
  </scene>
</COLLADA>
