<?xml version="1.0" encoding="UTF-8" standalone="no" ?>
<COLLADA xmlns="http://www.collada.org/2005/11/COLLADASchema" version="1.4.1">
  <asset>
    <contributor>
      <author>Assimp</author>
      <authoring_tool>Assimp Exporter</authoring_tool>
    </contributor>
    <created>2025-11-12T11:09:31</created>
    <modified>2025-11-12T11:09:31</modified>
    <unit name="meter" meter="1" />
    <up_axis>Y_UP</up_axis>
  </asset>
  <library_images>
  </library_images>
  <library_effects>
    <effect id="material_0-fx" name="">
      <profile_COMMON>
        <technique sid="standard">
          <phong>
            <emission>
              <color sid="emission">0   0   0   4.28026616e-41</color>
            </emission>
            <ambient>
              <color sid="ambient">0.719165564   0.882352889   0.352941155   4.28026616e-41</color>
            </ambient>
            <diffuse>
              <color sid="diffuse">0.719165564   0.882352889   0.352941155   4.28026616e-41</color>
            </diffuse>
            <specular>
              <color sid="specular">0.529999971   0.529999971   0.529999971   4.28026616e-41</color>
            </specular>
          </phong>
        </technique>
      </profile_COMMON>
    </effect>
  </library_effects>
  <library_materials>
    <material id="material_0" name="">
      <instance_effect url="#material_0-fx"/>
    </material>
  </library_materials>
  <library_geometries>
    <geometry id="mesh_0" name="" >
      <mesh>
        <source id="mesh_0-positions" name="mesh_0-positions">
          <float_array id="mesh_0-positions-array" count="522"> -0.00936934352 0.000114979222 0.270399779 0.0601694882 0.000114931652 0.270399779 0.0411603935 0.0437843576 0.17310968 -0.0590982251 0.000150628272 0.154554665 -0.00936934352 0.000114979222 0.270399779 0.0411603935 0.0437843576 0.17310968 -0.0590982251 0.000150628272 0.154554665 -0.0565597117 -0.0270089377 0.160778135 -0.00936934352 0.000114979222 0.270399779 0.0544539392 0.0218849406 0.157268852 -0.0590982251 0.000150628272 0.154554665 0.0411603935 0.0437843576 0.17310968 0.0601695143 0.0223105475 0.158814728 0.0601695031 -0.0408972204 0.253411859 0.0601694919 -0.053470064 0.234595329 0.0601695031 -0.0408972204 0.253411859 0.0601695143 0.0223105475 0.158814728 0.0601694882 0.000114931652 0.270399779 0.0601694882 0.000114931652 0.270399779 0.0601695143 0.0223105475 0.158814728 0.0411603935 0.0437843576 0.17310968 0.0601695143 0.0223105475 0.158814728 0.0544539392 0.0218849406 0.157268852 0.0411603935 0.0437843576 0.17310968 -0.0590982251 0.000150628272 0.154554665 -0.0536795519 -0.021584319 0.157541513 -0.0565597117 -0.0270089377 0.160778135 -0.0565597117 -0.0270089377 0.160778135 -0.0514402241 -0.0422582626 0.172795355 -0.00936934352 0.000114979222 0.270399779 0.0601694807 -0.0220807008 0.265984684 0.0601695031 -0.0408972204 0.253411859 0.0601694882 0.000114931652 0.270399779 -0.0514402241 -0.0422582626 0.172795355 -0.0433122367 -0.053803362 0.191683382 -0.00936934352 0.000114979222 0.270399779 -0.0426246226 -0.0394936316 0.166937321 -0.0514402241 -0.0422582626 0.172795355 -0.0565597117 -0.0270089377 0.160778135 -0.0536795519 -0.021584319 0.157541513 -0.0426246226 -0.0394936316 0.166937321 -0.0565597117 -0.0270089377 0.160778135 -0.0101385117 -0.0141619518 0.268615037 0.0601694882 0.000114931652 0.270399779 -0.00936934352 0.000114979222 0.270399779 -0.0101385117 -0.0141619518 0.268615037 0.0601694807 -0.0220807008 0.265984684 0.0601694882 0.000114931652 0.270399779 -0.0433122367 -0.053803362 0.191683382 -0.0101385117 -0.0141619518 0.268615037 -0.00936934352 0.000114979222 0.270399779 -0.0193693191 -0.0462850332 0.247199684 -0.0273693502 -0.0555650182 0.228639692 0.0601694919 -0.053470064 0.234595329 0.0601695031 -0.0408972204 0.253411859 -0.0193693191 -0.0462850332 0.247199684 0.0601694919 -0.053470064 0.234595329 -0.0155337015 -0.0380220115 0.25609836 -0.0193693191 -0.0462850332 0.247199684 0.0601695031 -0.0408972204 0.253411859 -0.0193693191 -0.0462850332 0.247199684 -0.0433122367 -0.053803362 0.191683382 -0.0273693502 -0.0555650182 0.228639692 -0.0433122367 -0.053803362 0.191683382 -0.0193693191 -0.0462850332 0.247199684 -0.0155337015 -0.0380220115 0.25609836 0.0601695143 0.0223105475 0.158814728 0.0587749742 0.00382815278 0.153214961 0.0544539392 0.0218849406 0.157268852 0.0601684675 0.000115027833 0.154402226 0.0587749742 0.00382815278 0.153214961 0.0601695143 0.0223105475 0.158814728 0.0544539392 0.0218849406 0.157268852 0.0587749742 0.00382815278 0.153214961 -0.0590982251 0.000150628272 0.154554665 0.0587749742 0.00382815278 0.153214961 -0.0536795519 -0.021584319 0.157541513 -0.0590982251 0.000150628272 0.154554665 0.0587749742 0.00382815278 0.153214961 0.0601684675 0.000115027833 0.154402226 0.0601420142 -0.0216351505 0.158774048 -0.0433122367 -0.053803362 0.191683382 -0.0342819095 -0.0578681193 0.212604493 -0.0273693502 -0.0555650182 0.228639692 0.053791374 -0.0227721613 0.158082724 -0.0426246226 -0.0394936316 0.166937321 -0.0536795519 -0.021584319 0.157541513 0.053791374 -0.0227721613 0.158082724 0.0587749742 0.00382815278 0.153214961 0.0601420142 -0.0216351505 0.158774048 0.0587749742 0.00382815278 0.153214961 0.053791374 -0.0227721613 0.158082724 -0.0536795519 -0.021584319 0.157541513 -0.0254425686 -0.052449815 0.181829691 -0.0433122367 -0.053803362 0.191683382 -0.0514402241 -0.0422582626 0.172795355 -0.0426246226 -0.0394936316 0.166937321 -0.0254425686 -0.052449815 0.181829691 -0.0514402241 -0.0422582626 0.172795355 -0.01231049 -0.0271791425 0.26357618 -0.0433122367 -0.053803362 0.191683382 -0.0155337015 -0.0380220115 0.25609836 -0.01231049 -0.0271791425 0.26357618 -0.0101385117 -0.0141619518 0.268615037 -0.0433122367 -0.053803362 0.191683382 -0.0101385117 -0.0141619518 0.268615037 -0.01231049 -0.0271791425 0.26357618 0.0601694807 -0.0220807008 0.265984684 0.0601694807 -0.0220807008 0.265984684 -0.01231049 -0.0271791425 0.26357618 0.0601695031 -0.0408972204 0.253411859 -0.01231049 -0.0271791425 0.26357618 -0.0155337015 -0.0380220115 0.25609836 0.0601695031 -0.0408972204 0.253411859 0.053791374 -0.0227721613 0.158082724 0.0601694845 -0.0408972315 0.171387553 -0.0426246226 -0.0394936316 0.166937321 0.0601694845 -0.0408972315 0.171387553 0.053791374 -0.0227721613 0.158082724 0.0601420142 -0.0216351505 0.158774048 0.0601684675 0.000115027833 0.154402226 0.0601694845 -0.0408972315 0.171387553 0.0601420142 -0.0216351505 0.158774048 0.0601694845 -0.0408972315 0.171387553 0.0601695143 0.0223105475 0.158814728 0.0601694919 -0.053470064 0.234595329 0.0601694845 -0.0408972315 0.171387553 0.0601684675 0.000115027833 0.154402226 0.0601695143 0.0223105475 0.158814728 0.0409571268 -0.0444036126 0.174317718 -0.0254425686 -0.052449815 0.181829691 -0.0426246226 -0.0394936316 0.166937321 0.0601694845 -0.0408972315 0.171387553 0.0409571268 -0.0444036126 0.174317718 -0.0426246226 -0.0394936316 0.166937321 0.0601694509 -0.0534700453 0.190204084 0.0409571268 -0.0444036126 0.174317718 0.0601694845 -0.0408972315 0.171387553 0.0409571268 -0.0444036126 0.174317718 0.0601694509 -0.0534700453 0.190204084 -0.0254425686 -0.052449815 0.181829691 0.0601694733 -0.0578850172 0.212399751 0.0601694845 -0.0408972315 0.171387553 0.0601694919 -0.053470064 0.234595329 0.0601694733 -0.0578850172 0.212399751 0.0601694509 -0.0534700453 0.190204084 0.0601694845 -0.0408972315 0.171387553 -0.0273693502 -0.0555650182 0.228639692 0.0601694733 -0.0578850172 0.212399751 0.0601694919 -0.053470064 0.234595329 -0.0342819095 -0.0578681193 0.212604493 0.0601694733 -0.0578850172 0.212399751 -0.0273693502 -0.0555650182 0.228639692 0.0601694733 -0.0578850172 0.212399751 -0.00665542344 -0.057825461 0.202262014 0.0601694509 -0.0534700453 0.190204084 -0.00665542344 -0.057825461 0.202262014 0.0601694733 -0.0578850172 0.212399751 -0.0342819095 -0.0578681193 0.212604493 -0.00665542344 -0.057825461 0.202262014 -0.0342819095 -0.0578681193 0.212604493 -0.0433122367 -0.053803362 0.191683382 -0.0254425686 -0.052449815 0.181829691 -0.00665542344 -0.057825461 0.202262014 -0.0433122367 -0.053803362 0.191683382 0.0601694509 -0.0534700453 0.190204084 0.0258881543 -0.0543564335 0.191289485 -0.0254425686 -0.052449815 0.181829691 0.0258881543 -0.0543564335 0.191289485 -0.00665542344 -0.057825461 0.202262014 -0.0254425686 -0.052449815 0.181829691 -0.00665542344 -0.057825461 0.202262014 0.0258881543 -0.0543564335 0.191289485 0.0601694509 -0.0534700453 0.190204084 </float_array>
          <technique_common>
            <accessor count="174" offset="0" source="#mesh_0-positions-array" stride="3">
              <param name="X" type="float" />
              <param name="Y" type="float" />
              <param name="Z" type="float" />
            </accessor>
          </technique_common>
        </source>
        <vertices id="mesh_0-vertices">
          <input semantic="POSITION" source="#mesh_0-positions" />
        </vertices>
        <polylist count="58" material="defaultMaterial">
          <input offset="0" semantic="VERTEX" source="#mesh_0-vertices" />
          <vcount>3 3 3 3 3 3 3 3 3 3 3 3 3 3 3 3 3 3 3 3 3 3 3 3 3 3 3 3 3 3 3 3 3 3 3 3 3 3 3 3 3 3 3 3 3 3 3 3 3 3 3 3 3 3 3 3 3 3 </vcount>
          <p>0 1 2 3 4 5 6 7 8 9 10 11 12 13 14 15 16 17 18 19 20 21 22 23 24 25 26 27 28 29 30 31 32 33 34 35 36 37 38 39 40 41 42 43 44 45 46 47 48 49 50 51 52 53 54 55 56 57 58 59 60 61 62 63 64 65 66 67 68 69 70 71 72 73 74 75 76 77 78 79 80 81 82 83 84 85 86 87 88 89 90 91 92 93 94 95 96 97 98 99 100 101 102 103 104 105 106 107 108 109 110 111 112 113 114 115 116 117 118 119 120 121 122 123 124 125 126 127 128 129 130 131 132 133 134 135 136 137 138 139 140 141 142 143 144 145 146 147 148 149 150 151 152 153 154 155 156 157 158 159 160 161 162 163 164 165 166 167 168 169 170 171 172 173 </p>
        </polylist>
      </mesh>
    </geometry>
  </library_geometries>
  <library_controllers>
  </library_controllers>
  <library_visual_scenes>
    <visual_scene id="Scene" name="Scene">
      <node id="node" name="" type="NODE">
        <matrix sid="matrix">1 0 0 0 0 1 0 0 0 0 1 0 0 0 0 1</matrix>
        <instance_geometry url="#mesh_0">
          <bind_material>
            <technique_common>
              <instance_material symbol="defaultMaterial" target="#material_0">
              </instance_material>
            </technique_common>
          </bind_material>
        </instance_geometry>
      </node>
    </visual_scene>
  </library_visual_scenes>
  <scene>
    <instance_visual_scene url="#Scene" />
  </scene>
</COLLADA>
