<?xml version="1.0" encoding="UTF-8" standalone="no" ?>
<COLLADA xmlns="http://www.collada.org/2005/11/COLLADASchema" version="1.4.1">
  <asset>
    <contributor>
      <author>Assimp</author>
      <authoring_tool>Assimp Exporter</authoring_tool>
    </contributor>
    <created>2025-11-12T11:09:31</created>
    <modified>2025-11-12T11:09:31</modified>
    <unit name="meter" meter="1" />
    <up_axis>Y_UP</up_axis>
  </asset>
  <library_images>
  </library_images>
  <library_effects>
    <effect id="material_0-fx" name="">
      <profile_COMMON>
        <technique sid="standard">
          <phong>
            <emission>
              <color sid="emission">0   0   0   4.28026616e-41</color>
            </emission>
            <ambient>
              <color sid="ambient">0.870588243   0.870588243   0.870588243   4.28026616e-41</color>
            </ambient>
            <diffuse>
              <color sid="diffuse">0.870588243   0.870588243   0.870588243   4.28026616e-41</color>
            </diffuse>
            <specular>
              <color sid="specular">0.400000006   0.400000006   0.400000006   4.28026616e-41</color>
            </specular>
          </phong>
        </technique>
      </profile_COMMON>
    </effect>
  </library_effects>
  <library_materials>
    <material id="material_0" name="">
      <instance_effect url="#material_0-fx"/>
    </material>
  </library_materials>
  <library_geometries>
    <geometry id="mesh_0" name="" >
      <mesh>
        <source id="mesh_0-positions" name="mesh_0-positions">
          <float_array id="mesh_0-positions-array" count="864"> -7.73383668e-09 1.1461843e-08 0.00235008076 -0.035640467 -0.0637015328 0.00235006562 -0.0225280933 -0.0694306269 0.00235006586 -0.035640467 -0.0637015328 0.00235006562 -0.0356404632 -0.0637015253 -0.0146500738 -0.0225280933 -0.0694306269 0.00235006586 -0.0356404632 -0.0637015253 -0.0146500738 -0.0225280896 -0.0694306195 -0.0146500738 -0.0225280933 -0.0694306269 0.00235006586 -7.73383668e-09 1.1461843e-08 0.00235008076 -0.0225280933 -0.0694306269 0.00235006586 -0.00855001155 -0.0724915043 0.00235006539 -0.0225280933 -0.0694306269 0.00235006586 -0.0225280896 -0.0694306195 -0.0146500738 -0.00855001155 -0.0724915043 0.00235006539 -0.0225280896 -0.0694306195 -0.0146500738 -0.00854995009 -0.0724914968 -0.0146500142 -0.00855001155 -0.0724915043 0.00235006539 -7.73383668e-09 1.1461843e-08 0.00235008076 -0.00855001155 -0.0724915043 0.00235006539 0.0057567344 -0.0727666914 0.00235009543 -0.00855001155 -0.0724915043 0.00235006539 -0.00854995009 -0.0724914968 -0.0146500142 0.0057567344 -0.0727666914 0.00235009543 -0.00854995009 -0.0724914968 -0.0146500142 0.00575670414 -0.0727666691 -0.0146500738 0.0057567344 -0.0727666914 0.00235009543 -7.73383668e-09 1.1461843e-08 0.00235008076 0.0057567344 -0.0727666914 0.00235009543 0.0198422205 -0.0702453852 0.00235006632 0.0057567344 -0.0727666914 0.00235009543 0.00575670414 -0.0727666691 -0.0146500738 0.0198422205 -0.0702453852 0.00235006632 0.00575670414 -0.0727666691 -0.0146500738 0.0198421627 -0.0702454522 -0.0146500738 0.0198422205 -0.0702453852 0.00235006632 -7.73383668e-09 1.1461843e-08 0.00235008076 0.0198422205 -0.0702453852 0.00235006632 0.0331651233 -0.0650246888 0.00235009589 0.0198422205 -0.0702453852 0.00235006632 0.0198421627 -0.0702454522 -0.0146500738 0.0331651233 -0.0650246888 0.00235009589 0.0198421627 -0.0702454522 -0.0146500738 0.0331651196 -0.0650246814 -0.014650045 0.0331651233 -0.0650246888 0.00235009589 -7.73383668e-09 1.1461843e-08 0.00235008076 0.0331651233 -0.0650246888 0.00235009589 0.0452135503 -0.0573050231 0.00235009566 0.0331651233 -0.0650246888 0.00235009589 0.0331651196 -0.0650246814 -0.014650045 0.0452135503 -0.0573050231 0.00235009566 0.0331651196 -0.0650246814 -0.014650045 0.0452135764 -0.0573050529 -0.0146500738 0.0452135503 -0.0573050231 0.00235009566 -7.73383668e-09 1.1461843e-08 0.00235008076 0.0452135503 -0.0573050231 0.00235009566 0.0555245019 -0.0473832302 0.00235006586 0.0452135503 -0.0573050231 0.00235009566 0.0452135764 -0.0573050529 -0.0146500738 0.0555245019 -0.0473832302 0.00235006586 0.0452135764 -0.0573050529 -0.0146500738 0.0555245057 -0.0473832339 -0.0146500738 0.0555245019 -0.0473832302 0.00235006586 -7.73383668e-09 1.1461843e-08 0.00235008076 0.0555245019 -0.0473832302 0.00235006586 0.0637015328 -0.0356404744 0.00235006539 0.0555245019 -0.0473832302 0.00235006586 0.0555245057 -0.0473832339 -0.0146500738 0.0637015328 -0.0356404744 0.00235006539 0.0555245057 -0.0473832339 -0.0146500738 0.0637015924 -0.0356404707 -0.0146500142 0.0637015328 -0.0356404744 0.00235006539 -7.73383668e-09 1.1461843e-08 0.00235008076 0.0637015328 -0.0356404744 0.00235006539 0.0694305971 -0.0225280728 0.00235009589 0.0637015328 -0.0356404744 0.00235006539 0.0637015924 -0.0356404707 -0.0146500142 0.0694305971 -0.0225280728 0.00235009589 0.0637015924 -0.0356404707 -0.0146500142 0.0694305971 -0.0225280691 -0.014650045 0.0694305971 -0.0225280728 0.00235009589 -7.73383668e-09 1.1461843e-08 0.00235008076 0.0694305971 -0.0225280728 0.00235009589 0.0724915639 -0.00854996406 0.00235006562 0.0694305971 -0.0225280728 0.00235009589 0.0694305971 -0.0225280691 -0.014650045 0.0724915639 -0.00854996406 0.00235006562 0.0694305971 -0.0225280691 -0.014650045 0.0724915639 -0.00854996312 -0.0146500738 0.0724915639 -0.00854996406 0.00235006562 -7.73383668e-09 1.1461843e-08 0.00235008076 0.0724915639 -0.00854996406 0.00235006562 0.0727666691 0.00575669436 0.00235006562 0.0724915639 -0.00854996406 0.00235006562 0.0724915639 -0.00854996312 -0.0146500738 0.0727666691 0.00575669436 0.00235006562 0.0724915639 -0.00854996312 -0.0146500738 0.0727666691 0.00575669482 -0.0146500738 0.0727666691 0.00575669436 0.00235006562 -7.73383668e-09 1.1461843e-08 0.00235008076 0.0727666691 0.00575669436 0.00235006562 0.0702453926 0.019842213 0.00235006609 0.0727666691 0.00575669436 0.00235006562 0.0727666691 0.00575669482 -0.0146500738 0.0702453926 0.019842213 0.00235006609 0.0727666691 0.00575669482 -0.0146500738 0.0702454224 0.0198421814 -0.014650045 0.0702453926 0.019842213 0.00235006609 -7.73383668e-09 1.1461843e-08 0.00235008076 0.0702453926 0.019842213 0.00235006609 0.0650245994 0.0331651419 0.00235006586 0.0702453926 0.019842213 0.00235006609 0.0702454224 0.0198421814 -0.014650045 0.0650245994 0.0331651419 0.00235006586 0.0702454224 0.0198421814 -0.014650045 0.065024659 0.0331651382 -0.0146500142 0.0650245994 0.0331651419 0.00235006586 -7.73383668e-09 1.1461843e-08 0.00235008076 0.0650245994 0.0331651419 0.00235006586 0.0573050678 0.0452135503 0.00235010893 0.0650245994 0.0331651419 0.00235006586 0.065024659 0.0331651382 -0.0146500142 0.0573050678 0.0452135503 0.00235010893 0.065024659 0.0331651382 -0.0146500142 0.0573050864 0.0452135392 -0.014650045 0.0573050678 0.0452135503 0.00235010893 -7.73383668e-09 1.1461843e-08 0.00235008076 0.0573050678 0.0452135503 0.00235010893 0.047383219 0.0555244498 0.0023501399 0.0573050678 0.0452135503 0.00235010893 0.0573050864 0.0452135392 -0.014650045 0.047383219 0.0555244498 0.0023501399 0.0573050864 0.0452135392 -0.014650045 0.047383178 0.0555244647 -0.014650044 0.047383219 0.0555244498 0.0023501399 -7.73383668e-09 1.1461843e-08 0.00235008076 0.047383219 0.0555244498 0.0023501399 0.0356404632 0.0637015402 0.00235008099 0.047383219 0.0555244498 0.0023501399 0.047383178 0.0555244647 -0.014650044 0.0356404632 0.0637015402 0.00235008099 0.047383178 0.0555244647 -0.014650044 0.035640467 0.0637015998 -0.0146500003 0.0356404632 0.0637015402 0.00235008099 -7.73383668e-09 1.1461843e-08 0.00235008076 0.0356404632 0.0637015402 0.00235008099 0.0225280859 0.0694306344 0.00235008076 0.0356404632 0.0637015402 0.00235008099 0.035640467 0.0637015998 -0.0146500003 0.0225280859 0.0694306344 0.00235008076 0.035640467 0.0637015998 -0.0146500003 0.0225280896 0.0694306418 -0.0146500599 0.0225280859 0.0694306344 0.00235008076 -7.73383668e-09 1.1461843e-08 0.00235008076 0.0225280859 0.0694306344 0.00235008076 0.00855001062 0.0724915639 0.00235002162 0.0225280859 0.0694306344 0.00235008076 0.0225280896 0.0694306418 -0.0146500599 0.00855001062 0.0724915639 0.00235002162 0.0225280896 0.0694306418 -0.0146500599 0.00855001155 0.0724915639 -0.0146500003 0.00855001062 0.0724915639 0.00235002162 -7.73383668e-09 1.1461843e-08 0.00235008076 0.00855001062 0.0724915639 0.00235002162 -0.00575670507 0.0727666765 0.00235008099 0.00855001062 0.0724915639 0.00235002162 0.00855001155 0.0724915639 -0.0146500003 -0.00575670507 0.0727666765 0.00235008099 0.00855001155 0.0724915639 -0.0146500003 -0.00575670647 0.0727667063 -0.0146500589 -0.00575670507 0.0727666765 0.00235008099 -7.73383668e-09 1.1461843e-08 0.00235008076 -0.00575670507 0.0727666765 0.00235008099 -0.0198421646 0.0702454597 0.00235008029 -0.00575670507 0.0727666765 0.00235008099 -0.00575670647 0.0727667063 -0.0146500589 -0.0198421646 0.0702454597 0.00235008029 -0.00575670647 0.0727667063 -0.0146500589 -0.0198421925 0.0702454224 -0.0146500291 -0.0198421646 0.0702454597 0.00235008029 -7.73383668e-09 1.1461843e-08 0.00235008076 -0.0198421646 0.0702454597 0.00235008029 -0.0331651196 0.0650246292 0.00235011033 -0.0198421646 0.0702454597 0.00235008029 -0.0198421925 0.0702454224 -0.0146500291 -0.0331651196 0.0650246292 0.00235011033 -0.0198421925 0.0702454224 -0.0146500291 -0.0331650935 0.0650246665 -0.0146500599 -0.0331651196 0.0650246292 0.00235011033 -7.73383668e-09 1.1461843e-08 0.00235008076 -0.0331651196 0.0650246292 0.00235011033 -0.0452135392 0.0573049821 0.00235009566 -0.0331651196 0.0650246292 0.00235011033 -0.0331650935 0.0650246665 -0.0146500599 -0.0452135392 0.0573049821 0.00235009566 -0.0331650935 0.0650246665 -0.0146500599 -0.0452135541 0.0573049709 -0.0146500291 -0.0452135392 0.0573049821 0.00235009566 -7.73383668e-09 1.1461843e-08 0.00235008076 -0.0452135392 0.0573049821 0.00235009566 -0.0555244908 0.0473832563 0.00235009566 -0.0452135392 0.0573049821 0.00235009566 -0.0452135541 0.0573049709 -0.0146500291 -0.0555244908 0.0473832563 0.00235009566 -0.0452135541 0.0573049709 -0.0146500291 -0.0555245057 0.0473832376 -0.0146500599 -0.0555244908 0.0473832563 0.00235009566 -7.73383668e-09 1.1461843e-08 0.00235008076 -0.0555244908 0.0473832563 0.00235009566 -0.0637015328 0.0356404819 0.00235008122 -0.0555244908 0.0473832563 0.00235009566 -0.0555245057 0.0473832376 -0.0146500599 -0.0637015328 0.0356404819 0.00235008122 -0.0555245057 0.0473832376 -0.0146500599 -0.0637015924 0.0356404819 -0.0146500003 -0.0637015328 0.0356404819 0.00235008122 -7.73383668e-09 1.1461843e-08 0.00235008076 -0.0637015328 0.0356404819 0.00235008122 -0.0694305748 0.0225280467 0.00235008053 -0.0637015328 0.0356404819 0.00235008122 -0.0637015924 0.0356404819 -0.0146500003 -0.0694305748 0.0225280467 0.00235008053 -0.0637015924 0.0356404819 -0.0146500003 -0.0694306344 0.0225281063 -0.0146500599 -0.0694305748 0.0225280467 0.00235008053 -7.73383668e-09 1.1461843e-08 0.00235008076 -0.0694305748 0.0225280467 0.00235008053 -0.0724915639 0.00854996964 0.00235008099 -0.0694305748 0.0225280467 0.00235008053 -0.0694306344 0.0225281063 -0.0146500599 -0.0724915639 0.00854996964 0.00235008099 -0.0694306344 0.0225281063 -0.0146500599 -0.0724915639 0.00855002925 -0.0146500003 -0.0724915639 0.00854996964 0.00235008099 -7.73383668e-09 1.1461843e-08 0.00235008076 -0.0724915639 0.00854996964 0.00235008099 -0.0727666691 -0.00575668551 0.00235008099 -0.0724915639 0.00854996964 0.00235008099 -0.0724915639 0.00855002925 -0.0146500003 -0.0727666691 -0.00575668551 0.00235008099 -0.0724915639 0.00855002925 -0.0146500003 -0.0727666691 -0.00575668691 -0.0146500599 -0.0727666691 -0.00575668551 0.00235008099 -7.73383668e-09 1.1461843e-08 0.00235008076 -0.0727666691 -0.00575668551 0.00235008099 -0.0702453628 -0.0198421758 0.00235011033 -0.0727666691 -0.00575668551 0.00235008099 -0.0727666691 -0.00575668691 -0.0146500599 -0.0702453628 -0.0198421758 0.00235011033 -0.0727666691 -0.00575668691 -0.0146500599 -0.0702453628 -0.019842172 -0.0146500291 -0.0702453628 -0.0198421758 0.00235011033 -7.73383668e-09 1.1461843e-08 0.00235008076 -0.0702453628 -0.0198421758 0.00235011033 -0.0650245994 -0.0331651345 0.00235008076 -0.0702453628 -0.0198421758 0.00235011033 -0.0702453628 -0.019842172 -0.0146500291 -0.0650245994 -0.0331651345 0.00235008076 -0.0702453628 -0.019842172 -0.0146500291 -0.0650245994 -0.0331651345 -0.0146500599 -0.0650245994 -0.0331651345 0.00235008076 -7.73383668e-09 1.1461843e-08 0.00235008076 -0.0650245994 -0.0331651345 0.00235008076 -0.0573050566 -0.0452135615 0.00235008053 -0.0650245994 -0.0331651345 0.00235008076 -0.0650245994 -0.0331651345 -0.0146500599 -0.0573050566 -0.0452135615 0.00235008053 -0.0650245994 -0.0331651345 -0.0146500599 -0.0573050268 -0.0452135317 -0.0146500291 -0.0573050566 -0.0452135615 0.00235008053 -7.73383668e-09 1.1461843e-08 0.00235008076 -0.0573050566 -0.0452135615 0.00235008053 -0.0473832041 -0.0555243939 0.00235005142 -0.0573050566 -0.0452135615 0.00235008053 -0.0573050268 -0.0452135317 -0.0146500291 -0.0473832041 -0.0555243939 0.00235005142 -0.0573050268 -0.0452135317 -0.0146500291 -0.0473831594 -0.055524379 -0.0146500142 -0.0473832041 -0.0555243939 0.00235005142 -7.73383668e-09 1.1461843e-08 0.00235008076 -0.0473832041 -0.0555243939 0.00235005142 -0.035640467 -0.0637015328 0.00235006562 -0.0473832041 -0.0555243939 0.00235005142 -0.0473831594 -0.055524379 -0.0146500142 -0.035640467 -0.0637015328 0.00235006562 -0.0473831594 -0.055524379 -0.0146500142 -0.0356404632 -0.0637015253 -0.0146500738 -0.035640467 -0.0637015328 0.00235006562 </float_array>
          <technique_common>
            <accessor count="288" offset="0" source="#mesh_0-positions-array" stride="3">
              <param name="X" type="float" />
              <param name="Y" type="float" />
              <param name="Z" type="float" />
            </accessor>
          </technique_common>
        </source>
        <vertices id="mesh_0-vertices">
          <input semantic="POSITION" source="#mesh_0-positions" />
        </vertices>
        <polylist count="96" material="defaultMaterial">
          <input offset="0" semantic="VERTEX" source="#mesh_0-vertices" />
          <vcount>3 3 3 3 3 3 3 3 3 3 3 3 3 3 3 3 3 3 3 3 3 3 3 3 3 3 3 3 3 3 3 3 3 3 3 3 3 3 3 3 3 3 3 3 3 3 3 3 3 3 3 3 3 3 3 3 3 3 3 3 3 3 3 3 3 3 3 3 3 3 3 3 3 3 3 3 3 3 3 3 3 3 3 3 3 3 3 3 3 3 3 3 3 3 3 3 </vcount>
          <p>0 1 2 3 4 5 6 7 8 9 10 11 12 13 14 15 16 17 18 19 20 21 22 23 24 25 26 27 28 29 30 31 32 33 34 35 36 37 38 39 40 41 42 43 44 45 46 47 48 49 50 51 52 53 54 55 56 57 58 59 60 61 62 63 64 65 66 67 68 69 70 71 72 73 74 75 76 77 78 79 80 81 82 83 84 85 86 87 88 89 90 91 92 93 94 95 96 97 98 99 100 101 102 103 104 105 106 107 108 109 110 111 112 113 114 115 116 117 118 119 120 121 122 123 124 125 126 127 128 129 130 131 132 133 134 135 136 137 138 139 140 141 142 143 144 145 146 147 148 149 150 151 152 153 154 155 156 157 158 159 160 161 162 163 164 165 166 167 168 169 170 171 172 173 174 175 176 177 178 179 180 181 182 183 184 185 186 187 188 189 190 191 192 193 194 195 196 197 198 199 200 201 202 203 204 205 206 207 208 209 210 211 212 213 214 215 216 217 218 219 220 221 222 223 224 225 226 227 228 229 230 231 232 233 234 235 236 237 238 239 240 241 242 243 244 245 246 247 248 249 250 251 252 253 254 255 256 257 258 259 260 261 262 263 264 265 266 267 268 269 270 271 272 273 274 275 276 277 278 279 280 281 282 283 284 285 286 287 </p>
        </polylist>
      </mesh>
    </geometry>
  </library_geometries>
  <library_controllers>
  </library_controllers>
  <library_visual_scenes>
    <visual_scene id="Scene" name="Scene">
      <node id="node" name="" type="NODE">
        <matrix sid="matrix">1 0 0 0 0 1 0 0 0 0 1 0 0 0 0 1</matrix>
        <instance_geometry url="#mesh_0">
          <bind_material>
            <technique_common>
              <instance_material symbol="defaultMaterial" target="#material_0">
              </instance_material>
            </technique_common>
          </bind_material>
        </instance_geometry>
      </node>
    </visual_scene>
  </library_visual_scenes>
  <scene>
    <instance_visual_scene url="#Scene" />
  </scene>
</COLLADA>
