<?xml version="1.0" encoding="UTF-8" standalone="no" ?>
<COLLADA xmlns="http://www.collada.org/2005/11/COLLADASchema" version="1.4.1">
  <asset>
    <contributor>
      <author>Assimp</author>
      <authoring_tool>Assimp Exporter</authoring_tool>
    </contributor>
    <created>2025-11-12T11:09:31</created>
    <modified>2025-11-12T11:09:31</modified>
    <unit name="meter" meter="1" />
    <up_axis>Y_UP</up_axis>
  </asset>
  <library_images>
  </library_images>
  <library_effects>
    <effect id="material_0-fx" name="">
      <profile_COMMON>
        <technique sid="standard">
          <phong>
            <emission>
              <color sid="emission">0   0   0   4.28026616e-41</color>
            </emission>
            <ambient>
              <color sid="ambient">0.719165564   0.882352889   0.352941155   4.28026616e-41</color>
            </ambient>
            <diffuse>
              <color sid="diffuse">0.719165564   0.882352889   0.352941155   4.28026616e-41</color>
            </diffuse>
            <specular>
              <color sid="specular">0.529999971   0.529999971   0.529999971   4.28026616e-41</color>
            </specular>
          </phong>
        </technique>
      </profile_COMMON>
    </effect>
  </library_effects>
  <library_materials>
    <material id="material_0" name="">
      <instance_effect url="#material_0-fx"/>
    </material>
  </library_materials>
  <library_geometries>
    <geometry id="mesh_0" name="" >
      <mesh>
        <source id="mesh_0-positions" name="mesh_0-positions">
          <float_array id="mesh_0-positions-array" count="1170"> -0.0338340476 -0.0411070958 -0.064230524 -0.0464068651 -0.0222905185 -0.064230524 -0.0338340476 0.0409172662 -0.0642305389 0.0293737724 0.0534900911 -0.064230524 0.0481903255 0.0409172848 -0.064230524 -0.0338340476 0.0409172662 -0.0642305389 0.0481903143 -0.0411071107 -0.0642305315 0.0508767553 -0.0382319018 0.0114726648 0.0419781245 -0.0464948788 0.0153082768 0.0508767553 -0.0382319018 0.0114726648 0.00738292513 -0.0580779873 0.0302208681 0.0419781245 -0.0464948788 0.0153082768 0.0481903143 -0.0411071107 -0.0642305315 0.0293737724 -0.0536799543 -0.064230524 0.00717813941 -0.058094915 -0.064230524 0.0293737724 -0.0536799543 -0.064230524 0.0481903143 -0.0411071107 -0.0642305315 0.0419781245 -0.0464948788 0.0153082768 -0.0464068651 -0.0222905185 -0.064230524 -0.0464068465 0.0221006908 -0.0642305315 -0.0338340476 0.0409172662 -0.0642305389 0.0481903143 -0.0411071107 -0.0642305315 -0.0150174992 -0.0536799021 -0.064230524 -0.0338340476 0.0409172662 -0.0642305389 -0.0150174992 -0.0536799021 -0.064230524 -0.0338340476 -0.0411070958 -0.064230524 -0.0338340476 0.0409172662 -0.0642305389 -0.0150174992 -0.0536799021 -0.064230524 0.0481903143 -0.0411071107 -0.0642305315 0.00717813941 -0.058094915 -0.064230524 -0.0338340476 -0.0411070958 -0.064230524 -0.0429523587 -0.0292656347 -0.0569256805 -0.0464068651 -0.0222905185 -0.064230524 0.00738292513 -0.0580779873 0.0302208681 -0.0133659039 0.0541447513 0.0391634032 -0.0324262306 0.0422783494 0.047379069 -0.0133659039 0.0541447513 0.0391634032 -0.0339597389 0.043233417 0.0355651602 -0.0324262306 0.0422783494 0.047379069 -0.0339597389 0.043233417 0.0355651602 -0.0133659039 0.0541447513 0.0391634032 -0.0170377269 0.054692436 0.0175703987 0.0293737724 0.0534900911 -0.064230524 0.00717813103 0.0579050519 -0.064230524 0.0234181192 0.0555850938 0.0233082697 0.00717813103 0.0579050519 -0.064230524 0.0293737724 0.0534900911 -0.064230524 -0.0338340476 0.0409172662 -0.0642305389 0.0607631244 -0.0222905893 -0.0642305315 0.0481903143 -0.0411071107 -0.0642305315 -0.0338340476 0.0409172662 -0.0642305389 0.0481903255 0.0409172848 -0.064230524 0.0607631244 -0.0222905893 -0.0642305315 -0.0338340476 0.0409172662 -0.0642305389 0.00738292513 -0.0580779873 0.0302208681 -0.00295961252 -0.0580353253 0.00259437389 0.00717813941 -0.058094915 -0.064230524 -0.00295961252 -0.0580353253 0.00259437389 0.00738292513 -0.0580779873 0.0302208681 -0.0133658927 -0.0543345809 0.0391634479 -0.00295961252 -0.0580353253 0.00259437389 -0.0150174992 -0.0536799021 -0.064230524 0.00717813941 -0.058094915 -0.064230524 0.0633935034 0.0141820097 0.0060774982 0.0651781261 -9.48910601e-05 0.00530829327 0.0651781335 -9.49556415e-05 -0.064230524 0.00738292513 -0.0580779873 0.0302208681 0.0234181453 -0.0557749122 0.0233082697 0.0419781245 -0.0464948788 0.0153082768 0.0234181453 -0.0557749122 0.0233082697 0.0293737724 -0.0536799543 -0.064230524 0.0419781245 -0.0464948788 0.0153082768 0.0234181453 -0.0557749122 0.0233082697 0.00738292513 -0.0580779873 0.0302208681 0.00717813941 -0.058094915 -0.064230524 0.0293737724 -0.0536799543 -0.064230524 0.0234181453 -0.0557749122 0.0233082697 0.00717813941 -0.058094915 -0.064230524 -0.0508193932 -9.48703164e-05 -0.0642294958 -0.0464068465 0.0221006908 -0.0642305315 -0.0464068651 -0.0222905185 -0.064230524 -0.0464068465 0.0221006908 -0.0642305315 -0.0508193932 -9.48703164e-05 -0.0642294958 -0.0487308539 0.0153382961 -0.0619505532 -0.0487225652 -0.0155580202 -0.0619425066 -0.0508193932 -9.48703164e-05 -0.0642294958 -0.0464068651 -0.0222905185 -0.064230524 -0.0214459654 -0.052827388 0.0222590789 -0.00295961252 -0.0580353253 0.00259437389 -0.0133658927 -0.0543345809 0.0391634479 -0.0464068465 0.0221006908 -0.0642305315 -0.0429480635 0.0290832091 -0.0569221415 -0.0338340476 0.0409172662 -0.0642305389 -0.0429480635 0.0290832091 -0.0569221415 -0.0460420139 0.0252580792 0.048402749 -0.0339597389 0.043233417 0.0355651602 -0.0338853486 0.0420743003 -0.0465903915 -0.0339597389 0.043233417 0.0355651602 -0.0170377269 0.054692436 0.0175703987 -0.0237836298 0.04894967 -0.0426885039 -0.0338853486 0.0420743003 -0.0465903915 -0.0170377269 0.054692436 0.0175703987 -0.0429480635 0.0290832091 -0.0569221415 -0.0338853486 0.0420743003 -0.0465903915 -0.0338340476 0.0409172662 -0.0642305389 -0.0338853486 0.0420743003 -0.0465903915 -0.0429480635 0.0290832091 -0.0569221415 -0.0339597389 0.043233417 0.0355651602 -0.0150175048 0.0534900948 -0.064230524 0.00717813103 0.0579050519 -0.064230524 -0.0338340476 0.0409172662 -0.0642305389 -0.0338853486 0.0420743003 -0.0465903915 -0.0150175048 0.0534900948 -0.064230524 -0.0338340476 0.0409172662 -0.0642305389 -0.0150175048 0.0534900948 -0.064230524 -0.0338853486 0.0420743003 -0.0465903915 -0.0237836298 0.04894967 -0.0426885039 0.0607631244 -0.0222905893 -0.0642305315 0.0607631393 0.0221007019 -0.064230524 0.0651781335 -9.49556415e-05 -0.064230524 0.0607631393 0.0221007019 -0.064230524 0.0607631244 -0.0222905893 -0.0642305315 0.0481903255 0.0409172848 -0.064230524 0.0607631393 0.0221007019 -0.064230524 0.0633935034 0.0141820097 0.0060774982 0.0651781335 -9.49556415e-05 -0.064230524 0.00738292513 -0.0580779873 0.0302208681 0.0419781171 0.0463050455 0.0153082674 0.0234181192 0.0555850938 0.0233082697 0.0508767515 0.0380420908 0.0114726732 0.0419781171 0.0463050455 0.0153082674 0.00738292513 -0.0580779873 0.0302208681 0.0419781171 0.0463050455 0.0153082674 0.0293737724 0.0534900911 -0.064230524 0.0234181192 0.0555850938 0.0233082697 0.0419781171 0.0463050455 0.0153082674 0.0481903255 0.0409172848 -0.064230524 0.0293737724 0.0534900911 -0.064230524 0.0419781171 0.0463050455 0.0153082674 0.0508767515 0.0380420908 0.0114726732 0.0481903255 0.0409172848 -0.064230524 0.0583546013 0.0271991715 0.0082494691 0.0508767515 0.0380420908 0.0114726732 0.00738292513 -0.0580779873 0.0302208681 0.0583546013 0.0271991715 0.0082494691 0.0651781261 -9.48910601e-05 0.00530829327 0.0633935034 0.0141820097 0.0060774982 0.0651781261 -9.48910601e-05 0.00530829327 0.0583546013 0.0271991715 0.0082494691 0.00738292513 -0.0580779873 0.0302208681 0.0607631393 0.0221007019 -0.064230524 0.0583546013 0.0271991715 0.0082494691 0.0633935034 0.0141820097 0.0060774982 0.0508767515 0.0380420908 0.0114726732 0.0583546013 0.0271991715 0.0082494691 0.0481903255 0.0409172848 -0.064230524 0.0583546013 0.0271991715 0.0082494691 0.0607631393 0.0221007019 -0.064230524 0.0481903255 0.0409172848 -0.064230524 0.00738292513 -0.0580779873 0.0302208681 -0.0324262418 -0.0424681492 0.0473791286 -0.0133658927 -0.0543345809 0.0391634479 -0.0455517024 -0.024251949 0.0530366823 -0.0324262418 -0.0424681492 0.0473791286 0.00738292513 -0.0580779873 0.0302208681 -0.0324262418 -0.0424681492 0.0473791286 -0.0214459654 -0.052827388 0.0222590789 -0.0133658927 -0.0543345809 0.0391634479 -0.0507398434 -0.00191242469 0.0551785901 -0.0506902784 0.00381414383 0.0552514568 -0.0520902909 0.00142542238 0.054056637 -0.0507398434 -0.00191242469 0.0551785901 -0.0455517024 -0.024251949 0.0530366823 -0.0506902784 0.00381414383 0.0552514568 -0.0477864966 -0.0186121836 0.0524009839 -0.0507398434 -0.00191242469 0.0551785901 -0.0520902909 0.00142542238 0.054056637 -0.0455517024 -0.024251949 0.0530366823 -0.0507398434 -0.00191242469 0.0551785901 -0.0477864966 -0.0186121836 0.0524009839 -0.0476088561 -0.0215384103 0.0500662848 -0.0455517024 -0.024251949 0.0530366823 -0.0477864966 -0.0186121836 0.0524009839 -0.0487225652 -0.0155580202 -0.0619425066 -0.0476088561 -0.0215384103 0.0500662848 -0.0520902909 0.00142542238 0.054056637 -0.0476088561 -0.0215384103 0.0500662848 -0.0477864966 -0.0186121836 0.0524009839 -0.0520902909 0.00142542238 0.054056637 0.0633935034 -0.0143718803 0.00607748376 0.0651781261 -9.48910601e-05 0.00530829327 0.00738292513 -0.0580779873 0.0302208681 0.0633935034 -0.0143718803 0.00607748376 0.0607631244 -0.0222905893 -0.0642305315 0.0651781335 -9.49556415e-05 -0.064230524 0.0651781261 -9.48910601e-05 0.00530829327 0.0633935034 -0.0143718803 0.00607748376 0.0651781335 -9.49556415e-05 -0.064230524 -0.0487308539 0.0153382961 -0.0619505532 -0.0511804968 0.000451313477 -0.0628822893 -0.0520902909 0.00142542238 0.054056637 -0.0508193932 -9.48703164e-05 -0.0642294958 -0.0511804968 0.000451313477 -0.0628822893 -0.0487308539 0.0153382961 -0.0619505532 -0.0511804968 0.000451313477 -0.0628822893 -0.0487225652 -0.0155580202 -0.0619425066 -0.0520902909 0.00142542238 0.054056637 -0.0511804968 0.000451313477 -0.0628822893 -0.0508193932 -9.48703164e-05 -0.0642294958 -0.0487225652 -0.0155580202 -0.0619425066 -0.0150174992 -0.0536799021 -0.064230524 -0.0337501727 -0.0424004868 -0.0464633852 -0.0338340476 -0.0411070958 -0.064230524 -0.0337501727 -0.0424004868 -0.0464633852 -0.0429523587 -0.0292656347 -0.0569256805 -0.0338340476 -0.0411070958 -0.064230524 -0.00295961252 -0.0580353253 0.00259437389 -0.0158370435 -0.0544359758 -0.0296384916 -0.0150174992 -0.0536799021 -0.064230524 -0.0214459654 -0.052827388 0.0222590789 -0.0158370435 -0.0544359758 -0.0296384916 -0.00295961252 -0.0580353253 0.00259437389 -0.0477561504 0.0185120925 0.052373223 -0.0487308539 0.0153382961 -0.0619505532 -0.0520902909 0.00142542238 0.054056637 -0.0477561504 0.0185120925 0.052373223 -0.0460420139 0.0252580792 0.048402749 -0.0487308539 0.0153382961 -0.0619505532 -0.0506902784 0.00381414383 0.0552514568 -0.0477561504 0.0185120925 0.052373223 -0.0520902909 0.00142542238 0.054056637 -0.046758987 0.0224971268 -0.0586930141 -0.0429480635 0.0290832091 -0.0569221415 -0.0464068465 0.0221006908 -0.0642305315 -0.046758987 0.0224971268 -0.0586930141 -0.0460420139 0.0252580792 0.048402749 -0.0429480635 0.0290832091 -0.0569221415 -0.046758987 0.0224971268 -0.0586930141 -0.0464068465 0.0221006908 -0.0642305315 -0.0487308539 0.0153382961 -0.0619505532 -0.0460420139 0.0252580792 0.048402749 -0.046758987 0.0224971268 -0.0586930141 -0.0487308539 0.0153382961 -0.0619505532 -0.0339597389 0.043233417 0.0355651602 -0.0415415764 0.0313755125 0.0471223518 -0.0324262306 0.0422783494 0.047379069 -0.0460420139 0.0252580792 0.048402749 -0.0415415764 0.0313755125 0.0471223518 -0.0339597389 0.043233417 0.0355651602 0.00717812637 0.0579050407 0.0303082597 0.00738292513 -0.0580779873 0.0302208681 0.0234181192 0.0555850938 0.0233082697 0.00717812637 0.0579050407 0.0303082597 -0.0133659039 0.0541447513 0.0391634032 0.00738292513 -0.0580779873 0.0302208681 0.00717813103 0.0579050519 -0.064230524 0.00717812637 0.0579050407 0.0303082597 0.0234181192 0.0555850938 0.0233082697 0.00184910139 0.0577417798 -0.00249794126 0.00201840256 0.0576897636 -0.0268689618 -0.0170377269 0.054692436 0.0175703987 0.00201840256 0.0576897636 -0.0268689618 0.00361114508 0.0578957796 -0.011379227 0.00717813103 0.0579050519 -0.064230524 0.00361114508 0.0578957796 -0.011379227 0.00201840256 0.0576897636 -0.0268689618 0.00184910139 0.0577417798 -0.00249794126 -0.0324262418 -0.0424681492 0.0473791286 -0.0370528474 -0.0400122106 0.0388528928 -0.0214459654 -0.052827388 0.0222590789 -0.0370528474 -0.0400122106 0.0388528928 -0.0337501727 -0.0424004868 -0.0464633852 -0.0214459654 -0.052827388 0.0222590789 -0.0337501727 -0.0424004868 -0.0464633852 -0.0370528474 -0.0400122106 0.0388528928 -0.0429523587 -0.0292656347 -0.0569256805 -0.0466637649 -0.0229186881 -0.0586034395 -0.0487225652 -0.0155580202 -0.0619425066 -0.0464068651 -0.0222905185 -0.064230524 -0.0466637649 -0.0229186881 -0.0586034395 -0.0476088561 -0.0215384103 0.0500662848 -0.0487225652 -0.0155580202 -0.0619425066 -0.0429523587 -0.0292656347 -0.0569256805 -0.0466637649 -0.0229186881 -0.0586034395 -0.0464068651 -0.0222905185 -0.064230524 -0.0370528474 -0.0400122106 0.0388528928 -0.0466637649 -0.0229186881 -0.0586034395 -0.0429523587 -0.0292656347 -0.0569256805 -0.0466637649 -0.0229186881 -0.0586034395 -0.0370528474 -0.0400122106 0.0388528928 -0.0476088561 -0.0215384103 0.0500662848 0.0633935034 -0.0143718803 0.00607748376 0.058354605 -0.0273890439 0.00824943185 0.0607631244 -0.0222905893 -0.0642305315 0.058354605 -0.0273890439 0.00824943185 0.0508767553 -0.0382319018 0.0114726648 0.0481903143 -0.0411071107 -0.0642305315 0.0607631244 -0.0222905893 -0.0642305315 0.058354605 -0.0273890439 0.00824943185 0.0481903143 -0.0411071107 -0.0642305315 0.0508767553 -0.0382319018 0.0114726648 0.058354605 -0.0273890439 0.00824943185 0.00738292513 -0.0580779873 0.0302208681 0.058354605 -0.0273890439 0.00824943185 0.0633935034 -0.0143718803 0.00607748376 0.00738292513 -0.0580779873 0.0302208681 -0.0235134382 -0.0493090041 -0.0425040349 -0.0337501727 -0.0424004868 -0.0464633852 -0.0150174992 -0.0536799021 -0.064230524 -0.0337501727 -0.0424004868 -0.0464633852 -0.0235134382 -0.0493090041 -0.0425040349 -0.0214459654 -0.052827388 0.0222590789 -0.0158370435 -0.0544359758 -0.0296384916 -0.0235134382 -0.0493090041 -0.0425040349 -0.0150174992 -0.0536799021 -0.064230524 -0.0235134382 -0.0493090041 -0.0425040349 -0.0158370435 -0.0544359758 -0.0296384916 -0.0214459654 -0.052827388 0.0222590789 -0.0455517061 0.0240620989 0.0530366525 -0.0477561504 0.0185120925 0.052373223 -0.0506902784 0.00381414383 0.0552514568 -0.0455517061 0.0240620989 0.0530366525 0.00738292513 -0.0580779873 0.0302208681 -0.0324262306 0.0422783494 0.047379069 -0.0477561504 0.0185120925 0.052373223 -0.0455517061 0.0240620989 0.0530366525 -0.0460420139 0.0252580792 0.048402749 -0.0455517061 0.0240620989 0.0530366525 -0.0455517024 -0.024251949 0.0530366823 0.00738292513 -0.0580779873 0.0302208681 -0.0455517024 -0.024251949 0.0530366823 -0.0455517061 0.0240620989 0.0530366525 -0.0506902784 0.00381414383 0.0552514568 -0.0415415764 0.0313755125 0.0471223518 -0.0455517061 0.0240620989 0.0530366525 -0.0324262306 0.0422783494 0.047379069 -0.0455517061 0.0240620989 0.0530366525 -0.0415415764 0.0313755125 0.0471223518 -0.0460420139 0.0252580792 0.048402749 -0.00277996459 0.0570485778 0.0214012787 0.00184910139 0.0577417798 -0.00249794126 -0.0170377269 0.054692436 0.0175703987 -0.0133659039 0.0541447513 0.0391634032 -0.00277996459 0.0570485778 0.0214012787 -0.0170377269 0.054692436 0.0175703987 0.00717812637 0.0579050407 0.0303082597 -0.00277996459 0.0570485778 0.0214012787 -0.0133659039 0.0541447513 0.0391634032 0.00592073938 0.057905972 0.0198037624 0.00361114508 0.0578957796 -0.011379227 0.00184910139 0.0577417798 -0.00249794126 -0.00277996459 0.0570485778 0.0214012787 0.00592073938 0.057905972 0.0198037624 0.00184910139 0.0577417798 -0.00249794126 0.00592073938 0.057905972 0.0198037624 -0.00277996459 0.0570485778 0.0214012787 0.00717812637 0.0579050407 0.0303082597 0.00361114508 0.0578957796 -0.011379227 0.00592073938 0.057905972 0.0198037624 0.00717813103 0.0579050519 -0.064230524 0.00592073938 0.057905972 0.0198037624 0.00717812637 0.0579050407 0.0303082597 0.00717813103 0.0579050519 -0.064230524 -0.0150175048 0.0534900948 -0.064230524 -0.0160509944 0.0541584305 -0.0298393592 0.00717813103 0.0579050519 -0.064230524 -0.0160509944 0.0541584305 -0.0298393592 0.00201840256 0.0576897636 -0.0268689618 0.00717813103 0.0579050519 -0.064230524 0.00201840256 0.0576897636 -0.0268689618 -0.0160509944 0.0541584305 -0.0298393592 -0.0170377269 0.054692436 0.0175703987 -0.0160509944 0.0541584305 -0.0298393592 -0.0237836298 0.04894967 -0.0426885039 -0.0170377269 0.054692436 0.0175703987 -0.0160509944 0.0541584305 -0.0298393592 -0.0150175048 0.0534900948 -0.064230524 -0.0237836298 0.04894967 -0.0426885039 -0.0476088561 -0.0215384103 0.0500662848 -0.0415712297 -0.0315194353 0.0471461937 -0.0455517024 -0.024251949 0.0530366823 -0.0370528474 -0.0400122106 0.0388528928 -0.0415712297 -0.0315194353 0.0471461937 -0.0476088561 -0.0215384103 0.0500662848 -0.0415712297 -0.0315194353 0.0471461937 -0.0324262418 -0.0424681492 0.0473791286 -0.0455517024 -0.024251949 0.0530366823 -0.0415712297 -0.0315194353 0.0471461937 -0.0370528474 -0.0400122106 0.0388528928 -0.0324262418 -0.0424681492 0.0473791286 </float_array>
          <technique_common>
            <accessor count="390" offset="0" source="#mesh_0-positions-array" stride="3">
              <param name="X" type="float" />
              <param name="Y" type="float" />
              <param name="Z" type="float" />
            </accessor>
          </technique_common>
        </source>
        <vertices id="mesh_0-vertices">
          <input semantic="POSITION" source="#mesh_0-positions" />
        </vertices>
        <polylist count="130" material="defaultMaterial">
          <input offset="0" semantic="VERTEX" source="#mesh_0-vertices" />
          <vcount>3 3 3 3 3 3 3 3 3 3 3 3 3 3 3 3 3 3 3 3 3 3 3 3 3 3 3 3 3 3 3 3 3 3 3 3 3 3 3 3 3 3 3 3 3 3 3 3 3 3 3 3 3 3 3 3 3 3 3 3 3 3 3 3 3 3 3 3 3 3 3 3 3 3 3 3 3 3 3 3 3 3 3 3 3 3 3 3 3 3 3 3 3 3 3 3 3 3 3 3 3 3 3 3 3 3 3 3 3 3 3 3 3 3 3 3 3 3 3 3 3 3 3 3 3 3 3 3 3 3 </vcount>
          <p>0 1 2 3 4 5 6 7 8 9 10 11 12 13 14 15 16 17 18 19 20 21 22 23 24 25 26 27 28 29 30 31 32 33 34 35 36 37 38 39 40 41 42 43 44 45 46 47 48 49 50 51 52 53 54 55 56 57 58 59 60 61 62 63 64 65 66 67 68 69 70 71 72 73 74 75 76 77 78 79 80 81 82 83 84 85 86 87 88 89 90 91 92 93 94 95 96 97 98 99 100 101 102 103 104 105 106 107 108 109 110 111 112 113 114 115 116 117 118 119 120 121 122 123 124 125 126 127 128 129 130 131 132 133 134 135 136 137 138 139 140 141 142 143 144 145 146 147 148 149 150 151 152 153 154 155 156 157 158 159 160 161 162 163 164 165 166 167 168 169 170 171 172 173 174 175 176 177 178 179 180 181 182 183 184 185 186 187 188 189 190 191 192 193 194 195 196 197 198 199 200 201 202 203 204 205 206 207 208 209 210 211 212 213 214 215 216 217 218 219 220 221 222 223 224 225 226 227 228 229 230 231 232 233 234 235 236 237 238 239 240 241 242 243 244 245 246 247 248 249 250 251 252 253 254 255 256 257 258 259 260 261 262 263 264 265 266 267 268 269 270 271 272 273 274 275 276 277 278 279 280 281 282 283 284 285 286 287 288 289 290 291 292 293 294 295 296 297 298 299 300 301 302 303 304 305 306 307 308 309 310 311 312 313 314 315 316 317 318 319 320 321 322 323 324 325 326 327 328 329 330 331 332 333 334 335 336 337 338 339 340 341 342 343 344 345 346 347 348 349 350 351 352 353 354 355 356 357 358 359 360 361 362 363 364 365 366 367 368 369 370 371 372 373 374 375 376 377 378 379 380 381 382 383 384 385 386 387 388 389 </p>
        </polylist>
      </mesh>
    </geometry>
  </library_geometries>
  <library_controllers>
  </library_controllers>
  <library_visual_scenes>
    <visual_scene id="Scene" name="Scene">
      <node id="node" name="" type="NODE">
        <matrix sid="matrix">1 0 0 0 0 1 0 0 0 0 1 0 0 0 0 1</matrix>
        <instance_geometry url="#mesh_0">
          <bind_material>
            <technique_common>
              <instance_material symbol="defaultMaterial" target="#material_0">
              </instance_material>
            </technique_common>
          </bind_material>
        </instance_geometry>
      </node>
    </visual_scene>
  </library_visual_scenes>
  <scene>
    <instance_visual_scene url="#Scene" />
  </scene>
</COLLADA>
