<?xml version="1.0" encoding="UTF-8" standalone="no" ?>
<COLLADA xmlns="http://www.collada.org/2005/11/COLLADASchema" version="1.4.1">
  <asset>
    <contributor>
      <author>Assimp</author>
      <authoring_tool>Assimp Exporter</authoring_tool>
    </contributor>
    <created>2025-11-12T11:09:31</created>
    <modified>2025-11-12T11:09:31</modified>
    <unit name="meter" meter="1" />
    <up_axis>Y_UP</up_axis>
  </asset>
  <library_images>
  </library_images>
  <library_effects>
    <effect id="material_0-fx" name="">
      <profile_COMMON>
        <technique sid="standard">
          <phong>
            <emission>
              <color sid="emission">0   0   0   -0</color>
            </emission>
            <ambient>
              <color sid="ambient">0.870588243   0.870588243   0.870588243   1.10939741</color>
            </ambient>
            <diffuse>
              <color sid="diffuse">0.870588243   0.870588243   0.870588243   1.10939741</color>
            </diffuse>
            <specular>
              <color sid="specular">0.400000006   0.400000006   0.400000006   -0</color>
            </specular>
          </phong>
        </technique>
      </profile_COMMON>
    </effect>
  </library_effects>
  <library_materials>
    <material id="material_0" name="">
      <instance_effect url="#material_0-fx"/>
    </material>
  </library_materials>
  <library_geometries>
    <geometry id="mesh_0" name="" >
      <mesh>
        <source id="mesh_0-positions" name="mesh_0-positions">
          <float_array id="mesh_0-positions-array" count="2142"> -0.00100021064 -1.34571636e-07 0.0321398973 -0.00100021064 -1.28384499e-07 0.0406399965 -0.000695630908 0.00153064588 0.0321398973 -0.000695630908 0.00153064588 0.0321398973 -0.00100021064 -1.28384499e-07 0.0406399965 -0.000695616007 0.00153061491 0.0406399965 0.000171378255 0.00282829464 0.0321398973 -0.000695616007 0.00153061491 0.0406399965 0.000171378255 0.00282826158 0.0406399965 0.00146907568 0.00369539857 0.0321398973 0.000171378255 0.00282826158 0.0406399965 0.00146906078 0.00369540253 0.0406399965 0.00299978256 0.00399986561 0.0321398973 0.00146906078 0.00369540253 0.0406399965 0.00299978256 0.00399987213 0.0406399965 0.00453056395 0.0036953839 0.0321398973 0.00299978256 0.00399987213 0.0406399965 0.00453053415 0.00369542115 0.0406399965 0.00582824647 0.00282833143 0.0321398973 0.00453053415 0.00369542115 0.0406399965 0.00582824647 0.00282829627 0.0406399965 0.00669534504 0.00153060548 0.0321398973 0.00582824647 0.00282829627 0.0406399965 0.00669533014 0.00153065717 0.0406399965 0.00699986517 -1.17268357e-07 0.0321398973 0.00669533014 0.00153065717 0.0406399965 0.00699988008 -8.21053376e-08 0.0406399965 0.00699986517 -1.17268357e-07 0.0321398973 0.00669534504 0.00153060548 0.0321398973 0.00669533014 0.00153065717 0.0406399965 0.00669534504 0.00153060548 0.0321398973 0.00582824647 0.00282833143 0.0321398973 0.00582824647 0.00282829627 0.0406399965 0.00582824647 0.00282833143 0.0321398973 0.00453056395 0.0036953839 0.0321398973 0.00453053415 0.00369542115 0.0406399965 0.00453056395 0.0036953839 0.0321398973 0.00299978256 0.00399986561 0.0321398973 0.00299978256 0.00399987213 0.0406399965 0.00299978256 0.00399986561 0.0321398973 0.00146907568 0.00369539857 0.0321398973 0.00146906078 0.00369540253 0.0406399965 0.00146907568 0.00369539857 0.0321398973 0.000171378255 0.00282829464 0.0321398973 0.000171378255 0.00282826158 0.0406399965 0.000171378255 0.00282829464 0.0321398973 -0.000695630908 0.00153064588 0.0321398973 -0.000695616007 0.00153061491 0.0406399965 0.00146907568 -0.0036956172 0.0406399965 0.00453053415 -0.00369564816 0.0406399965 0.000171422958 -0.0028285603 0.0406399965 0.00146907568 -0.0036956172 0.0406399965 0.00299979746 -0.00400014641 0.0406399965 0.00453053415 -0.00369564816 0.0406399965 0.000171422958 -0.0028285603 0.0406399965 0.00582829118 -0.00282852352 0.0406399965 -0.000695705414 -0.00153088628 0.0406399965 0.000171422958 -0.0028285603 0.0406399965 0.00453053415 -0.00369564816 0.0406399965 0.00582829118 -0.00282852352 0.0406399965 0.00582829118 -0.00282852352 0.0406399965 0.00669531524 -0.00153084588 0.0406399965 -0.000695705414 -0.00153088628 0.0406399965 -0.000695705414 -0.00153088628 0.0406399965 0.00669531524 -0.00153084588 0.0406399965 -0.00100021064 -1.28384499e-07 0.0406399965 -0.00100021064 -1.28384499e-07 0.0406399965 0.00669531524 -0.00153084588 0.0406399965 0.00699988008 -8.21053376e-08 0.0406399965 -0.000695616007 0.00153061491 0.0406399965 0.00699988008 -8.21053376e-08 0.0406399965 0.00669533014 0.00153065717 0.0406399965 0.000171378255 0.00282826158 0.0406399965 0.00669533014 0.00153065717 0.0406399965 0.00582824647 0.00282829627 0.0406399965 0.00146906078 0.00369540253 0.0406399965 0.00582824647 0.00282829627 0.0406399965 0.00453053415 0.00369542115 0.0406399965 0.00299978256 0.00399987213 0.0406399965 0.00146906078 0.00369540253 0.0406399965 0.00453053415 0.00369542115 0.0406399965 0.00146906078 0.00369540253 0.0406399965 0.000171378255 0.00282826158 0.0406399965 0.00582824647 0.00282829627 0.0406399965 0.000171378255 0.00282826158 0.0406399965 -0.000695616007 0.00153061491 0.0406399965 0.00669533014 0.00153065717 0.0406399965 -0.000695616007 0.00153061491 0.0406399965 -0.00100021064 -1.28384499e-07 0.0406399965 0.00699988008 -8.21053376e-08 0.0406399965 0.00699986517 -1.17268357e-07 0.0321398973 0.00699988008 -8.21053376e-08 0.0406399965 0.00669531524 -0.00153084588 0.0321398973 0.00669531524 -0.00153084588 0.0321398973 0.00699988008 -8.21053376e-08 0.0406399965 0.00669531524 -0.00153084588 0.0406399965 0.00582829118 -0.00282854424 0.0321398973 0.00669531524 -0.00153084588 0.0406399965 0.00582829118 -0.00282852352 0.0406399965 0.00453056395 -0.00369560462 0.0321398973 0.00582829118 -0.00282852352 0.0406399965 0.00453053415 -0.00369564816 0.0406399965 0.00299984217 -0.00400014874 0.0321398973 0.00453053415 -0.00369564816 0.0406399965 0.00299979746 -0.00400014641 0.0406399965 0.00146910548 -0.00369562116 0.0321398973 0.00299979746 -0.00400014641 0.0406399965 0.00146907568 -0.0036956172 0.0406399965 0.000171408057 -0.00282852724 0.0321398973 0.00146907568 -0.0036956172 0.0406399965 0.000171422958 -0.0028285603 0.0406399965 -0.000695705414 -0.00153085322 0.0321398973 0.000171422958 -0.0028285603 0.0406399965 -0.000695705414 -0.00153088628 0.0406399965 -0.00100021064 -1.34571636e-07 0.0321398973 -0.000695705414 -0.00153088628 0.0406399965 -0.00100021064 -1.28384499e-07 0.0406399965 -0.00100021064 -1.34571636e-07 0.0321398973 -0.000695705414 -0.00153085322 0.0321398973 -0.000695705414 -0.00153088628 0.0406399965 -0.000695705414 -0.00153085322 0.0321398973 0.000171408057 -0.00282852724 0.0321398973 0.000171422958 -0.0028285603 0.0406399965 0.000171408057 -0.00282852724 0.0321398973 0.00146910548 -0.00369562116 0.0321398973 0.00146907568 -0.0036956172 0.0406399965 0.00146910548 -0.00369562116 0.0321398973 0.00299984217 -0.00400014874 0.0321398973 0.00299979746 -0.00400014641 0.0406399965 0.00299984217 -0.00400014874 0.0321398973 0.00453056395 -0.00369560462 0.0321398973 0.00453053415 -0.00369564816 0.0406399965 0.00453056395 -0.00369560462 0.0321398973 0.00582829118 -0.00282854424 0.0321398973 0.00582829118 -0.00282852352 0.0406399965 0.00582829118 -0.00282854424 0.0321398973 0.00669531524 -0.00153084588 0.0321398973 0.00669531524 -0.00153084588 0.0406399965 -0.0165002048 1.82311339e-08 -0.00386047363 -0.0165001452 -0.0171639826 -0.0295487046 -0.0165001303 -0.0218457095 -0.0257065892 -0.0165001452 -0.0171639826 -0.0295487046 -0.00949978828 -0.0171639454 -0.0295487046 -0.0165001303 -0.0218457095 -0.0257065892 -0.00949978828 -0.0171639454 -0.0295487046 -0.00949977338 -0.0218456704 -0.0257065892 -0.0165001303 -0.0218457095 -0.0257065892 -0.0165002048 1.82311339e-08 -0.00386047363 -0.0165001303 -0.0218457095 -0.0257065892 -0.0165001154 -0.0256879162 -0.0210249424 -0.0165001303 -0.0218457095 -0.0257065892 -0.00949977338 -0.0218456704 -0.0257065892 -0.0165001154 -0.0256879162 -0.0210249424 -0.00949977338 -0.0218456704 -0.0257065892 -0.00949975848 -0.0256879218 -0.0210249424 -0.0165001154 -0.0256879162 -0.0210249424 -0.0165002048 1.82311339e-08 -0.00386047363 -0.0165001154 -0.0256879162 -0.0210249424 -0.0165001005 -0.0285429675 -0.015683651 -0.0165001154 -0.0256879162 -0.0210249424 -0.00949975848 -0.0256879218 -0.0210249424 -0.0165001005 -0.0285429675 -0.015683651 -0.00949975848 -0.0256879218 -0.0210249424 -0.00949975848 -0.0285429452 -0.015683651 -0.0165001005 -0.0285429675 -0.015683651 -0.0165002048 1.82311339e-08 -0.00386047363 -0.0165001005 -0.0285429675 -0.015683651 -0.0165001005 -0.0303011257 -0.00988805294 -0.0165001005 -0.0285429675 -0.015683651 -0.00949975848 -0.0285429452 -0.015683651 -0.0165001005 -0.0303011257 -0.00988805294 -0.00949975848 -0.0285429452 -0.015683651 -0.00949977338 -0.0303010866 -0.00988805294 -0.0165001005 -0.0303011257 -0.00988805294 -0.0165002048 1.82311339e-08 -0.00386047363 -0.0165001005 -0.0303011257 -0.00988805294 -0.0165001005 -0.0308948252 -0.00386071205 -0.0165001005 -0.0303011257 -0.00988805294 -0.00949977338 -0.0303010866 -0.00988805294 -0.0165001005 -0.0308948252 -0.00386071205 -0.00949977338 -0.0303010866 -0.00988805294 -0.00949977338 -0.0308947861 -0.00386071205 -0.0165001005 -0.0308948252 -0.00386071205 -0.0165002048 1.82311339e-08 -0.00386047363 -0.0165001005 -0.0308948252 -0.00386071205 -0.0165001303 -0.0303012505 0.00216650963 -0.0165001005 -0.0308948252 -0.00386071205 -0.00949977338 -0.0308947861 -0.00386071205 -0.0165001303 -0.0303012505 0.00216650963 -0.00949977338 -0.0308947861 -0.00386071205 -0.00949977338 -0.0303012114 0.00216650963 -0.0165001303 -0.0303012505 0.00216650963 -0.0165002048 1.82311339e-08 -0.00386047363 -0.0165001303 -0.0303012505 0.00216650963 -0.0165001303 -0.0285432208 0.00796222687 -0.0165001303 -0.0303012505 0.00216650963 -0.00949977338 -0.0303012114 0.00216650963 -0.0165001303 -0.0285432208 0.00796222687 -0.00949977338 -0.0303012114 0.00216650963 -0.00949980319 -0.028543191 0.00796222687 -0.0165001303 -0.0285432208 0.00796222687 -0.0165002048 1.82311339e-08 -0.00386047363 -0.0165001303 -0.0285432208 0.00796222687 -0.0165001303 -0.0256882757 0.0133035183 -0.0165001303 -0.0285432208 0.00796222687 -0.00949980319 -0.028543191 0.00796222687 -0.0165001303 -0.0256882757 0.0133035183 -0.00949980319 -0.028543191 0.00796222687 -0.00949981809 -0.0256882459 0.0133035183 -0.0165001303 -0.0256882757 0.0133035183 -0.0165002048 1.82311339e-08 -0.00386047363 -0.0165001303 -0.0256882757 0.0133035183 -0.0165001303 -0.0218461491 0.0179853439 -0.0165001303 -0.0256882757 0.0133035183 -0.00949981809 -0.0256882459 0.0133035183 -0.0165001303 -0.0218461491 0.0179853439 -0.00949981809 -0.0256882459 0.0133035183 -0.00949981809 -0.0218461193 0.0179853439 -0.0165001303 -0.0218461491 0.0179853439 -0.0165002048 1.82311339e-08 -0.00386047363 -0.0165001303 -0.0218461491 0.0179853439 -0.016500175 -0.0171645116 0.0218275785 -0.0165001303 -0.0218461491 0.0179853439 -0.00949981809 -0.0218461193 0.0179853439 -0.016500175 -0.0171645116 0.0218275785 -0.00949981809 -0.0218461193 0.0179853439 -0.00949983299 -0.0171644911 0.0218275785 -0.016500175 -0.0171645116 0.0218275785 -0.0165002048 1.82311339e-08 -0.00386047363 -0.016500175 -0.0171645116 0.0218275785 -0.0165001899 -0.0118232304 0.024682641 -0.016500175 -0.0171645116 0.0218275785 -0.00949983299 -0.0171644911 0.0218275785 -0.0165001899 -0.0118232304 0.024682641 -0.00949983299 -0.0171644911 0.0218275785 -0.00949987769 -0.0118232006 0.0246825218 -0.0165001899 -0.0118232304 0.024682641 -0.0165002048 1.82311339e-08 -0.00386047363 -0.0165001899 -0.0118232304 0.024682641 -0.0165002048 -0.00602758583 0.0264407396 -0.0165001899 -0.0118232304 0.024682641 -0.00949987769 -0.0118232006 0.0246825218 -0.0165002048 -0.00602758583 0.0264407396 -0.00949987769 -0.0118232006 0.0246825218 -0.00949989259 -0.00602755556 0.0264407396 -0.0165002048 -0.00602758583 0.0264407396 -0.0165002048 1.82311339e-08 -0.00386047363 -0.0165002048 -0.00602758583 0.0264407396 -0.0165002197 -3.0274191e-07 0.0270344019 -0.0165002048 -0.00602758583 0.0264407396 -0.00949989259 -0.00602755556 0.0264407396 -0.0165002197 -3.0274191e-07 0.0270344019 -0.00949989259 -0.00602755556 0.0264407396 -0.00949989259 -2.72805153e-07 0.0270344019 -0.0165002197 -3.0274191e-07 0.0270344019 -0.0165002048 1.82311339e-08 -0.00386047363 -0.0165002197 -3.0274191e-07 0.0270344019 -0.0165002346 0.00602698606 0.0264408588 -0.0165002197 -3.0274191e-07 0.0270344019 -0.00949989259 -2.72805153e-07 0.0270344019 -0.0165002346 0.00602698606 0.0264408588 -0.00949989259 -2.72805153e-07 0.0270344019 -0.00949992239 0.00602701539 0.0264408588 -0.0165002346 0.00602698606 0.0264408588 -0.0165002048 1.82311339e-08 -0.00386047363 -0.0165002346 0.00602698606 0.0264408588 -0.0165002495 0.0118226707 0.0246828794 -0.0165002346 0.00602698606 0.0264408588 -0.00949992239 0.00602701539 0.0264408588 -0.0165002495 0.0118226707 0.0246828794 -0.00949992239 0.00602701539 0.0264408588 -0.0094999373 0.0118226996 0.0246828794 -0.0165002495 0.0118226707 0.0246828794 -0.0165002048 1.82311339e-08 -0.00386047363 -0.0165002495 0.0118226707 0.0246828794 -0.0165002644 0.0171640106 0.021827817 -0.0165002495 0.0118226707 0.0246828794 -0.0094999373 0.0118226996 0.0246828794 -0.0165002644 0.0171640106 0.021827817 -0.0094999373 0.0118226996 0.0246828794 -0.0094999522 0.0171640478 0.021827817 -0.0165002644 0.0171640106 0.021827817 -0.0165002048 1.82311339e-08 -0.00386047363 -0.0165002644 0.0171640106 0.021827817 -0.0165002793 0.0218457449 0.0179858208 -0.0165002644 0.0171640106 0.021827817 -0.0094999522 0.0171640478 0.021827817 -0.0165002793 0.0218457449 0.0179858208 -0.0094999522 0.0171640478 0.021827817 -0.0095000118 0.021845784 0.0179858208 -0.0165002793 0.0218457449 0.0179858208 -0.0165002048 1.82311339e-08 -0.00386047363 -0.0165002793 0.0218457449 0.0179858208 -0.0165002942 0.025687987 0.0133041143 -0.0165002793 0.0218457449 0.0179858208 -0.0095000118 0.021845784 0.0179858208 -0.0165002942 0.025687987 0.0133041143 -0.0095000118 0.021845784 0.0179858208 -0.0095000118 0.0256879907 0.0133041143 -0.0165002942 0.025687987 0.0133041143 -0.0165002048 1.82311339e-08 -0.00386047363 -0.0165002942 0.025687987 0.0133041143 -0.0165003538 0.0285430122 0.00796282291 -0.0165002942 0.025687987 0.0133041143 -0.0095000118 0.0256879907 0.0133041143 -0.0165003538 0.0285430122 0.00796282291 -0.0095000118 0.0256879907 0.0133041143 -0.0095000267 0.0285430495 0.00796282291 -0.0165003538 0.0285430122 0.00796282291 -0.0165002048 1.82311339e-08 -0.00386047363 -0.0165003538 0.0285430122 0.00796282291 -0.0165003091 0.0303011611 0.00216722488 -0.0165003538 0.0285430122 0.00796282291 -0.0095000267 0.0285430495 0.00796282291 -0.0165003091 0.0303011611 0.00216722488 -0.0095000267 0.0285430495 0.00796282291 -0.0095000416 0.0303011909 0.00216722488 -0.0165003091 0.0303011611 0.00216722488 -0.0165002048 1.82311339e-08 -0.00386047363 -0.0165003091 0.0303011611 0.00216722488 -0.0165003687 0.0308948625 -0.003860116 -0.0165003091 0.0303011611 0.00216722488 -0.0095000416 0.0303011909 0.00216722488 -0.0165003687 0.0308948625 -0.003860116 -0.0095000416 0.0303011909 0.00216722488 -0.0095000118 0.0308949016 -0.003860116 -0.0165003687 0.0308948625 -0.003860116 -0.0165002048 1.82311339e-08 -0.00386047363 -0.0165003687 0.0308948625 -0.003860116 -0.016500324 0.0303012859 -0.00988739729 -0.0165003687 0.0308948625 -0.003860116 -0.0095000118 0.0308949016 -0.003860116 -0.016500324 0.0303012859 -0.00988739729 -0.0095000118 0.0308949016 -0.003860116 -0.0095000118 0.0303013232 -0.00988739729 -0.016500324 0.0303012859 -0.00988739729 -0.0165002048 1.82311339e-08 -0.00386047363 -0.016500324 0.0303012859 -0.00988739729 -0.016500324 0.0285432562 -0.0156830549 -0.016500324 0.0303012859 -0.00988739729 -0.0095000118 0.0303013232 -0.00988739729 -0.016500324 0.0285432562 -0.0156830549 -0.0095000118 0.0303013232 -0.00988739729 -0.0095000118 0.0285432879 -0.0156830549 -0.016500324 0.0285432562 -0.0156830549 -0.0165002048 1.82311339e-08 -0.00386047363 -0.016500324 0.0285432562 -0.0156830549 -0.016500324 0.0256883036 -0.021024406 -0.016500324 0.0285432562 -0.0156830549 -0.0095000118 0.0285432879 -0.0156830549 -0.016500324 0.0256883036 -0.021024406 -0.0095000118 0.0285432879 -0.0156830549 -0.0094999671 0.0256883334 -0.021024406 -0.016500324 0.0256883036 -0.021024406 -0.0165002048 1.82311339e-08 -0.00386047363 -0.016500324 0.0256883036 -0.021024406 -0.016500324 0.0218461864 -0.0257061124 -0.016500324 0.0256883036 -0.021024406 -0.0094999671 0.0256883334 -0.021024406 -0.016500324 0.0218461864 -0.0257061124 -0.0094999671 0.0256883334 -0.021024406 -0.0094999671 0.0218462143 -0.0257061124 -0.016500324 0.0218461864 -0.0257061124 -0.0165002048 1.82311339e-08 -0.00386047363 -0.016500324 0.0218461864 -0.0257061124 -0.0165002793 0.0171645563 -0.029548347 -0.016500324 0.0218461864 -0.0257061124 -0.0094999671 0.0218462143 -0.0257061124 -0.0165002793 0.0171645563 -0.029548347 -0.0094999671 0.0218462143 -0.0257061124 -0.0094999522 0.0171645787 -0.029548347 -0.0165002793 0.0171645563 -0.029548347 -0.0165002048 1.82311339e-08 -0.00386047363 -0.0165002793 0.0171645563 -0.029548347 -0.0165002644 0.0118232584 -0.0324034095 -0.0165002793 0.0171645563 -0.029548347 -0.0094999522 0.0171645787 -0.029548347 -0.0165002644 0.0118232584 -0.0324034095 -0.0094999522 0.0171645787 -0.029548347 -0.0094999373 0.0118232965 -0.0324034095 -0.0165002644 0.0118232584 -0.0324034095 -0.0165002048 1.82311339e-08 -0.00386047363 -0.0165002644 0.0118232584 -0.0324034095 -0.0165002495 0.00602762075 -0.0341615677 -0.0165002644 0.0118232584 -0.0324034095 -0.0094999373 0.0118232965 -0.0324034095 -0.0165002495 0.00602762075 -0.0341615677 -0.0094999373 0.0118232965 -0.0324034095 -0.0094999373 0.00602765242 -0.0341615677 -0.0165002495 0.00602762075 -0.0341615677 -0.0165002048 1.82311339e-08 -0.00386047363 -0.0165002495 0.00602762075 -0.0341615677 -0.0165002346 3.29594172e-07 -0.0347552896 -0.0165002495 0.00602762075 -0.0341615677 -0.0094999373 0.00602765242 -0.0341615677 -0.0165002346 3.29594172e-07 -0.0347552896 -0.0094999373 0.00602765242 -0.0341615677 -0.00949987769 3.69181009e-07 -0.0347552896 -0.0165002346 3.29594172e-07 -0.0347552896 -0.0165002048 1.82311339e-08 -0.00386047363 -0.0165002346 3.29594172e-07 -0.0347552896 -0.0165001303 -0.0060269502 -0.0341616869 -0.0165002346 3.29594172e-07 -0.0347552896 -0.00949987769 3.69181009e-07 -0.0347552896 -0.0165001303 -0.0060269502 -0.0341616869 -0.00949987769 3.69181009e-07 -0.0347552896 -0.00949986279 -0.00602692831 -0.0341616869 -0.0165001303 -0.0060269502 -0.0341616869 -0.0165002048 1.82311339e-08 -0.00386047363 -0.0165001303 -0.0060269502 -0.0341616869 -0.0165002048 -0.011822626 -0.0324036479 -0.0165001303 -0.0060269502 -0.0341616869 -0.00949986279 -0.00602692831 -0.0341616869 -0.0165002048 -0.011822626 -0.0324036479 -0.00949986279 -0.00602692831 -0.0341616869 -0.00949984789 -0.0118226288 -0.0324036479 -0.0165002048 -0.011822626 -0.0324036479 -0.0165002048 1.82311339e-08 -0.00386047363 -0.0165002048 -0.011822626 -0.0324036479 -0.0165001452 -0.0171639826 -0.0295487046 -0.0165002048 -0.011822626 -0.0324036479 -0.00949984789 -0.0118226288 -0.0324036479 -0.0165001452 -0.0171639826 -0.0295487046 -0.00949984789 -0.0118226288 -0.0324036479 -0.00949978828 -0.0171639454 -0.0295487046 -0.0165001452 -0.0171639826 -0.0295487046 -0.00900064409 1.18367893e-08 -0.0038599968 -0.00900095701 -0.0204333998 -0.0344412923 -0.00900094211 -0.0260068942 -0.0298672915 -0.00900095701 -0.0204333998 -0.0344412923 0.0164995641 -0.0204334073 -0.0344415903 -0.00900094211 -0.0260068942 -0.0298672915 0.0164995641 -0.0204334073 -0.0344415903 0.0164996684 -0.0260069128 -0.0298675895 -0.00900094211 -0.0260068942 -0.0298672915 -0.00900064409 1.18367893e-08 -0.0038599968 -0.00900094211 -0.0260068942 -0.0298672915 -0.00900088251 -0.0305809584 -0.0242938995 -0.00900094211 -0.0260068942 -0.0298672915 0.0164996684 -0.0260069128 -0.0298675895 -0.00900088251 -0.0305809584 -0.0242938995 0.0164996684 -0.0260069128 -0.0298675895 0.016499728 -0.0305809397 -0.0242941976 -0.00900088251 -0.0305809584 -0.0242938995 -0.00900064409 1.18367893e-08 -0.0038599968 -0.00900088251 -0.0305809584 -0.0242938995 -0.0090008527 -0.0339798033 -0.0179352164 -0.00900088251 -0.0305809584 -0.0242938995 0.016499728 -0.0305809397 -0.0242941976 -0.0090008527 -0.0339798033 -0.0179352164 0.016499728 -0.0305809397 -0.0242941976 0.0164997578 -0.033979807 -0.0179354548 -0.0090008527 -0.0339798033 -0.0179352164 -0.00900064409 1.18367893e-08 -0.0038599968 -0.0090008527 -0.0339798033 -0.0179352164 -0.0090007633 -0.0360728055 -0.0110356212 -0.0090008527 -0.0339798033 -0.0179352164 0.0164997578 -0.033979807 -0.0179354548 -0.0090007633 -0.0360728055 -0.0110356212 0.0164997578 -0.033979807 -0.0179354548 0.0164998472 -0.0360728167 -0.0110359192 -0.0090007633 -0.0360728055 -0.0110356212 -0.00900064409 1.18367893e-08 -0.0038599968 -0.0090007633 -0.0360728055 -0.0110356212 -0.00900064409 -0.0367795713 -0.00386023521 -0.0090007633 -0.0360728055 -0.0110356212 0.0164998472 -0.0360728167 -0.0110359192 -0.00900064409 -0.0367795713 -0.00386023521 0.0164998472 -0.0360728167 -0.0110359192 0.0164999515 -0.0367795862 -0.00386059284 -0.00900064409 -0.0367795713 -0.00386023521 -0.00900064409 1.18367893e-08 -0.0038599968 -0.00900064409 -0.0367795713 -0.00386023521 -0.00900056958 -0.0360729247 0.00331509113 -0.00900064409 -0.0367795713 -0.00386023521 0.0164999515 -0.0367795862 -0.00386059284 -0.00900056958 -0.0360729247 0.00331509113 0.0164999515 -0.0367795862 -0.00386059284 0.0164999813 -0.0360729098 0.00331473351 -0.00900056958 -0.0360729247 0.00331509113 -0.00900064409 1.18367893e-08 -0.0038599968 -0.00900056958 -0.0360729247 0.00331509113 -0.00900053978 -0.0339799933 0.0102146864 -0.00900056958 -0.0360729247 0.00331509113 0.0164999813 -0.0360729098 0.00331473351 -0.00900053978 -0.0339799933 0.0102146864 0.0164999813 -0.0360729098 0.00331473351 0.0165000707 -0.0339800045 0.010214448 -0.00900053978 -0.0339799933 0.0102146864 -0.00900064409 1.18367893e-08 -0.0038599968 -0.00900053978 -0.0339799933 0.0102146864 -0.00900046527 -0.0305812228 0.0165734291 -0.00900053978 -0.0339799933 0.0102146864 0.0165000707 -0.0339800045 0.010214448 -0.00900046527 -0.0305812228 0.0165734291 0.0165000707 -0.0339800045 0.010214448 0.0165001452 -0.0305812564 0.0165730715 -0.00900046527 -0.0305812228 0.0165734291 -0.00900064409 1.18367893e-08 -0.0038599968 -0.00900046527 -0.0305812228 0.0165734291 -0.00900039077 -0.0260072667 0.0221469402 -0.00900046527 -0.0305812228 0.0165734291 0.0165001452 -0.0305812564 0.0165730715 -0.00900039077 -0.0260072667 0.0221469402 0.0165001452 -0.0305812564 0.0165730715 0.0165002197 -0.0260072798 0.0221465826 -0.00900039077 -0.0260072667 0.0221469402 -0.00900064409 1.18367893e-08 -0.0038599968 -0.00900039077 -0.0260072667 0.0221469402 -0.00900031626 -0.0204338506 0.0267208815 -0.00900039077 -0.0260072667 0.0221469402 0.0165002197 -0.0260072798 0.0221465826 -0.00900031626 -0.0204338506 0.0267208815 0.0165002197 -0.0260072798 0.0221465826 0.0165002793 -0.0204338674 0.026720643 -0.00900031626 -0.0204338506 0.0267208815 -0.00900064409 1.18367893e-08 -0.0038599968 -0.00900031626 -0.0204338506 0.0267208815 -0.00900025666 -0.014075188 0.0301197767 -0.00900031626 -0.0204338506 0.0267208815 0.0165002793 -0.0204338674 0.026720643 -0.00900025666 -0.014075188 0.0301197767 0.0165002793 -0.0204338674 0.026720643 0.0165003389 -0.0140752029 0.0301195383 -0.00900025666 -0.014075188 0.0301197767 -0.00900064409 1.18367893e-08 -0.0038599968 -0.00900025666 -0.014075188 0.0301197767 -0.00900025666 -0.00717559736 0.0322128534 -0.00900025666 -0.014075188 0.0301197767 0.0165003389 -0.0140752029 0.0301195383 -0.00900025666 -0.00717559736 0.0322128534 0.0165003389 -0.0140752029 0.0301195383 0.0165003389 -0.00717561413 0.0322124958 -0.00900025666 -0.00717559736 0.0322128534 -0.00900064409 1.18367893e-08 -0.0038599968 -0.00900025666 -0.00717559736 0.0322128534 -0.00900021195 -2.39004777e-07 0.0329195261 -0.00900025666 -0.00717559736 0.0322128534 0.0165003389 -0.00717561413 0.0322124958 -0.00900021195 -2.39004777e-07 0.0329195261 0.0165003389 -0.00717561413 0.0322124958 0.0165003091 -2.81515042e-07 0.0329192877 -0.00900021195 -2.39004777e-07 0.0329195261 -0.00900064409 1.18367893e-08 -0.0038599968 -0.00900021195 -2.39004777e-07 0.0329195261 -0.00900025666 0.00717509119 0.0322128534 -0.00900021195 -2.39004777e-07 0.0329195261 0.0165003091 -2.81515042e-07 0.0329192877 -0.00900025666 0.00717509119 0.0322128534 0.0165003091 -2.81515042e-07 0.0329192877 0.0165003538 0.00717507442 0.032212615 -0.00900025666 0.00717509119 0.0322128534 -0.00900064409 1.18367893e-08 -0.0038599968 -0.00900025666 0.00717509119 0.0322128534 -0.00900027156 0.0140747195 0.0301200151 -0.00900025666 0.00717509119 0.0322128534 0.0165003538 0.00717507442 0.032212615 -0.00900027156 0.0140747195 0.0301200151 0.0165003538 0.00717507442 0.032212615 0.0165003389 0.0140746702 0.0301197767 -0.00900027156 0.0140747195 0.0301200151 -0.00900064409 1.18367893e-08 -0.0038599968 -0.00900027156 0.0140747195 0.0301200151 -0.00900031626 0.0204334445 0.0267212391 -0.00900027156 0.0140747195 0.0301200151 0.0165003389 0.0140746702 0.0301197767 -0.00900031626 0.0204334445 0.0267212391 0.0165003389 0.0140746702 0.0301197767 0.0165002793 0.0204334389 0.0267208815 -0.00900031626 0.0204334445 0.0267212391 -0.00900064409 1.18367893e-08 -0.0038599968 -0.00900031626 0.0204334445 0.0267212391 -0.00900034606 0.0260069277 0.0221472979 -0.00900031626 0.0204334445 0.0267212391 0.0165002793 0.0204334389 0.0267208815 -0.00900034606 0.0260069277 0.0221472979 0.0165002793 0.0204334389 0.0267208815 0.0165002644 0.0260069035 0.0221469402 -0.00900034606 0.0260069277 0.0221472979 -0.00900064409 1.18367893e-08 -0.0038599968 -0.00900034606 0.0260069277 0.0221472979 -0.00900040567 0.0305809546 0.0165739059 -0.00900034606 0.0260069277 0.0221472979 0.0165002644 0.0260069035 0.0221469402 -0.00900040567 0.0305809546 0.0165739059 0.0165002644 0.0260069035 0.0221469402 0.0165002048 0.0305809695 0.0165735483 -0.00900040567 0.0305809546 0.0165739059 -0.00900064409 1.18367893e-08 -0.0038599968 -0.00900040567 0.0305809546 0.0165739059 -0.00900048018 0.0339798145 0.0102151632 -0.00900040567 0.0305809546 0.0165739059 0.0165002048 0.0305809695 0.0165735483 -0.00900048018 0.0339798145 0.0102151632 0.0165002048 0.0305809695 0.0165735483 0.0165001154 0.0339797996 0.0102149248 -0.00900048018 0.0339798145 0.0102151632 -0.00900064409 1.18367893e-08 -0.0038599968 -0.00900048018 0.0339798145 0.0102151632 -0.00900055468 0.0360728242 0.00331556797 -0.00900048018 0.0339798145 0.0102151632 0.0165001154 0.0339797996 0.0102149248 -0.00900055468 0.0360728242 0.00331556797 0.0165001154 0.0339797996 0.0102149248 0.0165000558 0.0360728092 0.00331532955 -0.00900055468 0.0360728242 0.00331556797 -0.00900064409 1.18367893e-08 -0.0038599968 -0.00900055468 0.0360728242 0.00331556797 -0.00900062919 0.0367795862 -0.00385975838 -0.00900055468 0.0360728242 0.00331556797 0.0165000558 0.0360728092 0.00331532955 -0.00900062919 0.0367795862 -0.00385975838 0.0165000558 0.0360728092 0.00331532955 0.0164999664 0.0367795788 -0.0038599968 -0.00900062919 0.0367795862 -0.00385975838 -0.00900064409 1.18367893e-08 -0.0038599968 -0.00900062919 0.0367795862 -0.00385975838 -0.00900071859 0.0360729173 -0.0110350847 -0.00900062919 0.0367795862 -0.00385975838 0.0164999664 0.0367795788 -0.0038599968 -0.00900071859 0.0360729173 -0.0110350847 0.0164999664 0.0367795788 -0.0038599968 0.0164998919 0.0360729285 -0.0110353827 -0.00900071859 0.0360729173 -0.0110350847 -0.00900064409 1.18367893e-08 -0.0038599968 -0.00900071859 0.0360729173 -0.0110350847 -0.0090007484 0.0339800045 -0.0179347396 -0.00900071859 0.0360729173 -0.0110350847 0.0164998919 0.0360729285 -0.0110353827 -0.0090007484 0.0339800045 -0.0179347396 0.0164998919 0.0360729285 -0.0110353827 0.0164998323 0.0339800268 -0.0179350376 -0.0090007484 0.0339800045 -0.0179347396 -0.00900064409 1.18367893e-08 -0.0038599968 -0.0090007484 0.0339800045 -0.0179347396 -0.0090008229 0.0305812676 -0.0242934227 -0.0090007484 0.0339800045 -0.0179347396 0.0164998323 0.0339800268 -0.0179350376 -0.0090008229 0.0305812676 -0.0242934227 0.0164998323 0.0339800268 -0.0179350376 0.0164997578 0.0305812228 -0.0242937207 -0.0090008229 0.0305812676 -0.0242934227 -0.00900064409 1.18367893e-08 -0.0038599968 -0.0090008229 0.0305812676 -0.0242934227 -0.00900092721 0.0260072909 -0.0298669338 -0.0090008229 0.0305812676 -0.0242934227 0.0164997578 0.0305812228 -0.0242937207 -0.00900092721 0.0260072909 -0.0298669338 0.0164997578 0.0305812228 -0.0242937207 0.0164996833 0.0260072742 -0.0298671722 -0.00900092721 0.0260072909 -0.0298669338 -0.00900064409 1.18367893e-08 -0.0038599968 -0.00900092721 0.0260072909 -0.0298669338 -0.00900098681 0.0204338674 -0.0344409943 -0.00900092721 0.0260072909 -0.0298669338 0.0164996833 0.0260072742 -0.0298671722 -0.00900098681 0.0204338674 -0.0344409943 0.0164996833 0.0260072742 -0.0298671722 0.0164996237 0.0204338618 -0.0344412327 -0.00900098681 0.0204338674 -0.0344409943 -0.00900064409 1.18367893e-08 -0.0038599968 -0.00900098681 0.0204338674 -0.0344409943 -0.00900101662 0.0140751749 -0.0378398299 -0.00900098681 0.0204338674 -0.0344409943 0.0164996237 0.0204338618 -0.0344412327 -0.00900101662 0.0140751749 -0.0378398299 0.0164996237 0.0204338618 -0.0344412327 0.0164995939 0.0140751954 -0.0378401279 -0.00900101662 0.0140751749 -0.0378398299 -0.00900064409 1.18367893e-08 -0.0038599968 -0.00900101662 0.0140751749 -0.0378398299 -0.00900101662 0.00717561506 -0.039932847 -0.00900101662 0.0140751749 -0.0378398299 0.0164995939 0.0140751954 -0.0378401279 -0.00900101662 0.00717561506 -0.039932847 0.0164995939 0.0140751954 -0.0378401279 0.016499579 0.00717560574 -0.039933145 -0.00900101662 0.00717561506 -0.039932847 -0.00900064409 1.18367893e-08 -0.0038599968 -0.00900101662 0.00717561506 -0.039932847 -0.00900107622 2.91005222e-07 -0.0406396389 -0.00900101662 0.00717561506 -0.039932847 0.016499579 0.00717560574 -0.039933145 -0.00900107622 2.91005222e-07 -0.0406396389 0.016499579 0.00717560574 -0.039933145 0.0164995342 2.48494956e-07 -0.0406398773 -0.00900107622 2.91005222e-07 -0.0406396389 -0.00900064409 1.18367893e-08 -0.0038599968 -0.00900107622 2.91005222e-07 -0.0406396389 -0.00900103152 -0.00717507629 -0.0399329662 -0.00900107622 2.91005222e-07 -0.0406396389 0.0164995342 2.48494956e-07 -0.0406398773 -0.00900103152 -0.00717507629 -0.0399329662 0.0164995342 2.48494956e-07 -0.0406398773 0.016499579 -0.00717508327 -0.0399332047 -0.00900103152 -0.00717507629 -0.0399329662 -0.00900064409 1.18367893e-08 -0.0038599968 -0.00900103152 -0.00717507629 -0.0399329662 -0.00900101662 -0.0140746618 -0.0378400087 -0.00900103152 -0.00717507629 -0.0399329662 0.016499579 -0.00717508327 -0.0399332047 -0.00900101662 -0.0140746618 -0.0378400087 0.016499579 -0.00717508327 -0.0399332047 0.0164995939 -0.0140747111 -0.0378403068 -0.00900101662 -0.0140746618 -0.0378400087 -0.00900064409 1.18367893e-08 -0.0038599968 -0.00900101662 -0.0140746618 -0.0378400087 -0.00900095701 -0.0204333998 -0.0344412923 -0.00900101662 -0.0140746618 -0.0378400087 0.0164995939 -0.0140747111 -0.0378403068 -0.00900095701 -0.0204333998 -0.0344412923 0.0164995939 -0.0140747111 -0.0378403068 0.0164995641 -0.0204334073 -0.0344415903 -0.00900095701 -0.0204333998 -0.0344412923 </float_array>
          <technique_common>
            <accessor count="714" offset="0" source="#mesh_0-positions-array" stride="3">
              <param name="X" type="float" />
              <param name="Y" type="float" />
              <param name="Z" type="float" />
            </accessor>
          </technique_common>
        </source>
        <vertices id="mesh_0-vertices">
          <input semantic="POSITION" source="#mesh_0-positions" />
        </vertices>
        <polylist count="238" material="defaultMaterial">
          <input offset="0" semantic="VERTEX" source="#mesh_0-vertices" />
          <vcount>3 3 3 3 3 3 3 3 3 3 3 3 3 3 3 3 3 3 3 3 3 3 3 3 3 3 3 3 3 3 3 3 3 3 3 3 3 3 3 3 3 3 3 3 3 3 3 3 3 3 3 3 3 3 3 3 3 3 3 3 3 3 3 3 3 3 3 3 3 3 3 3 3 3 3 3 3 3 3 3 3 3 3 3 3 3 3 3 3 3 3 3 3 3 3 3 3 3 3 3 3 3 3 3 3 3 3 3 3 3 3 3 3 3 3 3 3 3 3 3 3 3 3 3 3 3 3 3 3 3 3 3 3 3 3 3 3 3 3 3 3 3 3 3 3 3 3 3 3 3 3 3 3 3 3 3 3 3 3 3 3 3 3 3 3 3 3 3 3 3 3 3 3 3 3 3 3 3 3 3 3 3 3 3 3 3 3 3 3 3 3 3 3 3 3 3 3 3 3 3 3 3 3 3 3 3 3 3 3 3 3 3 3 3 3 3 3 3 3 3 3 3 3 3 3 3 3 3 3 3 3 3 3 3 3 3 3 3 </vcount>
          <p>0 1 2 3 4 5 6 7 8 9 10 11 12 13 14 15 16 17 18 19 20 21 22 23 24 25 26 27 28 29 30 31 32 33 34 35 36 37 38 39 40 41 42 43 44 45 46 47 48 49 50 51 52 53 54 55 56 57 58 59 60 61 62 63 64 65 66 67 68 69 70 71 72 73 74 75 76 77 78 79 80 81 82 83 84 85 86 87 88 89 90 91 92 93 94 95 96 97 98 99 100 101 102 103 104 105 106 107 108 109 110 111 112 113 114 115 116 117 118 119 120 121 122 123 124 125 126 127 128 129 130 131 132 133 134 135 136 137 138 139 140 141 142 143 144 145 146 147 148 149 150 151 152 153 154 155 156 157 158 159 160 161 162 163 164 165 166 167 168 169 170 171 172 173 174 175 176 177 178 179 180 181 182 183 184 185 186 187 188 189 190 191 192 193 194 195 196 197 198 199 200 201 202 203 204 205 206 207 208 209 210 211 212 213 214 215 216 217 218 219 220 221 222 223 224 225 226 227 228 229 230 231 232 233 234 235 236 237 238 239 240 241 242 243 244 245 246 247 248 249 250 251 252 253 254 255 256 257 258 259 260 261 262 263 264 265 266 267 268 269 270 271 272 273 274 275 276 277 278 279 280 281 282 283 284 285 286 287 288 289 290 291 292 293 294 295 296 297 298 299 300 301 302 303 304 305 306 307 308 309 310 311 312 313 314 315 316 317 318 319 320 321 322 323 324 325 326 327 328 329 330 331 332 333 334 335 336 337 338 339 340 341 342 343 344 345 346 347 348 349 350 351 352 353 354 355 356 357 358 359 360 361 362 363 364 365 366 367 368 369 370 371 372 373 374 375 376 377 378 379 380 381 382 383 384 385 386 387 388 389 390 391 392 393 394 395 396 397 398 399 400 401 402 403 404 405 406 407 408 409 410 411 412 413 414 415 416 417 418 419 420 421 422 423 424 425 426 427 428 429 430 431 432 433 434 435 436 437 438 439 440 441 442 443 444 445 446 447 448 449 450 451 452 453 454 455 456 457 458 459 460 461 462 463 464 465 466 467 468 469 470 471 472 473 474 475 476 477 478 479 480 481 482 483 484 485 486 487 488 489 490 491 492 493 494 495 496 497 498 499 500 501 502 503 504 505 506 507 508 509 510 511 512 513 514 515 516 517 518 519 520 521 522 523 524 525 526 527 528 529 530 531 532 533 534 535 536 537 538 539 540 541 542 543 544 545 546 547 548 549 550 551 552 553 554 555 556 557 558 559 560 561 562 563 564 565 566 567 568 569 570 571 572 573 574 575 576 577 578 579 580 581 582 583 584 585 586 587 588 589 590 591 592 593 594 595 596 597 598 599 600 601 602 603 604 605 606 607 608 609 610 611 612 613 614 615 616 617 618 619 620 621 622 623 624 625 626 627 628 629 630 631 632 633 634 635 636 637 638 639 640 641 642 643 644 645 646 647 648 649 650 651 652 653 654 655 656 657 658 659 660 661 662 663 664 665 666 667 668 669 670 671 672 673 674 675 676 677 678 679 680 681 682 683 684 685 686 687 688 689 690 691 692 693 694 695 696 697 698 699 700 701 702 703 704 705 706 707 708 709 710 711 712 713 </p>
        </polylist>
      </mesh>
    </geometry>
  </library_geometries>
  <library_controllers>
  </library_controllers>
  <library_visual_scenes>
    <visual_scene id="Scene" name="Scene">
      <node id="node" name="" type="NODE">
        <matrix sid="matrix">1 0 0 0 0 1 0 0 0 0 1 0 0 0 0 1</matrix>
        <instance_geometry url="#mesh_0">
          <bind_material>
            <technique_common>
              <instance_material symbol="defaultMaterial" target="#material_0">
              </instance_material>
            </technique_common>
          </bind_material>
        </instance_geometry>
      </node>
    </visual_scene>
  </library_visual_scenes>
  <scene>
    <instance_visual_scene url="#Scene" />
  </scene>
</COLLADA>
