<?xml version="1.0" encoding="UTF-8" standalone="no" ?>
<COLLADA xmlns="http://www.collada.org/2005/11/COLLADASchema" version="1.4.1">
  <asset>
    <contributor>
      <author>Assimp</author>
      <authoring_tool>Assimp Exporter</authoring_tool>
    </contributor>
    <created>2025-11-12T11:09:31</created>
    <modified>2025-11-12T11:09:31</modified>
    <unit name="meter" meter="1" />
    <up_axis>Y_UP</up_axis>
  </asset>
  <library_images>
  </library_images>
  <library_effects>
    <effect id="material_0-fx" name="">
      <profile_COMMON>
        <technique sid="standard">
          <phong>
            <emission>
              <color sid="emission">0   0   0   4.28026616e-41</color>
            </emission>
            <ambient>
              <color sid="ambient">0.719165564   0.882352889   0.352941155   4.28026616e-41</color>
            </ambient>
            <diffuse>
              <color sid="diffuse">0.719165564   0.882352889   0.352941155   4.28026616e-41</color>
            </diffuse>
            <specular>
              <color sid="specular">0.529999971   0.529999971   0.529999971   4.28026616e-41</color>
            </specular>
          </phong>
        </technique>
      </profile_COMMON>
    </effect>
  </library_effects>
  <library_materials>
    <material id="material_0" name="">
      <instance_effect url="#material_0-fx"/>
    </material>
  </library_materials>
  <library_geometries>
    <geometry id="mesh_0" name="" >
      <mesh>
        <source id="mesh_0-positions" name="mesh_0-positions">
          <float_array id="mesh_0-positions-array" count="684"> 0.0682345331 -0.0534700342 0.190354198 0.0682346001 -0.057885021 0.212549835 0.060234569 -0.0578850284 0.212549835 0.0682346076 0.0411271676 0.253562063 -0.0193693358 0.0465149209 0.247199863 0.0602345765 0.0411271639 0.253562063 0.0682345703 0.0536999889 0.190354198 0.0682346076 0.0411271676 0.253562063 0.0682346076 0.000114993345 0.154549867 0.0682345703 0.0536999889 0.190354198 -0.0218941886 0.0551059097 0.190441072 0.0682345331 0.0581149831 0.212549835 -0.0218941886 0.0551059097 0.190441072 0.0682345703 0.0536999889 0.190354198 0.0411603525 0.0437843874 0.173109859 0.00270290719 0.0585092604 0.210525542 -0.0218941886 0.0551059097 0.190441072 -0.0342383236 0.0580889173 0.212707192 -0.0218941886 0.0551059097 0.190441072 0.00270290719 0.0585092604 0.210525542 0.0682345331 0.0581149831 0.212549835 0.0602345318 -0.0408972241 0.253562003 0.0602345467 -0.0220806655 0.266134828 -0.00936934538 0.000114989554 0.270399898 0.0682346001 -0.057885021 0.212549835 0.0602345318 -0.0534700416 0.234745473 0.060234569 -0.0578850284 0.212549835 0.0602345318 -0.0534700416 0.234745473 -0.00936934538 0.000114989554 0.270399898 0.060234569 -0.0578850284 0.212549835 0.0602345318 -0.0534700416 0.234745473 0.0602345318 -0.0408972241 0.253562003 -0.00936934538 0.000114989554 0.270399898 0.0602345318 -0.0534700416 0.234745473 0.0682345927 -0.0408972204 0.253562003 0.0602345318 -0.0408972241 0.253562003 -0.0218941886 0.0551059097 0.190441072 0.0602345467 -0.0220806524 0.158964843 0.0602346212 -0.0408972017 0.171537668 0.0602345653 -0.053470023 0.190354198 0.0682345331 -0.0534700342 0.190354198 0.060234569 -0.0578850284 0.212549835 -0.00936934538 0.000114989554 0.270399898 0.0602345653 -0.053470023 0.190354198 0.060234569 -0.0578850284 0.212549835 0.0602345653 -0.053470023 0.190354198 -0.00936934538 0.000114989554 0.270399898 -0.0342383236 0.0580889173 0.212707192 -0.0218941886 0.0551059097 0.190441072 0.0602345653 -0.053470023 0.190354198 -0.0342383236 0.0580889173 0.212707192 0.0602345653 -0.053470023 0.190354198 -0.0218941886 0.0551059097 0.190441072 0.0602346212 -0.0408972017 0.171537668 0.0602345467 -0.0220806524 0.158964843 0.0682345778 -0.0408972241 0.171537608 0.0602346212 -0.0408972017 0.171537668 0.0682345778 -0.0408972241 0.171537608 0.0602345467 -0.0220806524 0.158964843 0.0682345033 -0.0220806804 0.158964813 0.0682345778 -0.0408972241 0.171537608 0.0602345653 -0.053470023 0.190354198 0.0602346212 -0.0408972017 0.171537668 0.0602345653 -0.053470023 0.190354198 0.0682345778 -0.0408972241 0.171537608 0.0682345331 -0.0534700342 0.190354198 0.0682345778 -0.0408972241 0.171537608 0.0682345033 -0.0220806804 0.158964813 0.0682346076 0.000114993345 0.154549867 0.0682346001 -0.057885021 0.212549835 0.0682345778 -0.0408972241 0.171537608 0.0682346076 0.000114993345 0.154549867 0.0682345331 -0.0534700342 0.190354198 0.0682345778 -0.0408972241 0.171537608 0.0682346001 -0.057885021 0.212549835 0.0601694733 0.0223105717 0.158814877 -0.0218941886 0.0551059097 0.190441072 0.0411603525 0.0437843874 0.173109859 0.0601694733 0.0223105717 0.158814877 0.0682345554 0.0223106183 0.158964813 0.0682346076 0.000114993345 0.154549867 -0.0193693358 0.0465149209 0.247199863 -0.0273693223 0.0557949692 0.228639871 -0.0342383236 0.0580889173 0.212707192 -0.0273693223 0.0557949692 0.228639871 0.00270290719 0.0585092604 0.210525542 -0.0342383236 0.0580889173 0.212707192 0.00270290719 0.0585092604 0.210525542 -0.0273693223 0.0557949692 0.228639871 0.0682345331 0.0581149831 0.212549835 0.0682346076 0.0223106053 0.266134828 -0.0101385564 0.0143918907 0.268615216 0.0682345554 0.00011496713 0.270549864 -0.0101385564 0.0143918907 0.268615216 0.0682346076 0.0223106053 0.266134828 0.0602345765 0.0223106034 0.266134828 -0.00936934538 0.000114989554 0.270399898 -0.0101385564 0.0143918907 0.268615216 -0.0342383236 0.0580889173 0.212707192 0.0682345703 0.0536999777 0.234745473 0.0682345703 0.0536999889 0.190354198 0.0682345331 0.0581149831 0.212549835 0.0682345703 0.0536999889 0.190354198 0.0682345703 0.0536999777 0.234745473 0.0682346076 0.0411271676 0.253562063 -0.0273693223 0.0557949692 0.228639871 0.0682345703 0.0536999777 0.234745473 0.0682345331 0.0581149831 0.212549835 0.0682345703 0.0536999777 0.234745473 -0.0193693358 0.0465149209 0.247199863 0.0682346076 0.0411271676 0.253562063 0.0682345554 0.0223106183 0.158964813 0.0682345703 0.041127149 0.171537668 0.0682346076 0.000114993345 0.154549867 0.0682345703 0.041127149 0.171537668 0.0682345703 0.0536999889 0.190354198 0.0682346076 0.000114993345 0.154549867 0.0682345703 0.0536999889 0.190354198 0.0682345703 0.041127149 0.171537668 0.0411603525 0.0437843874 0.173109859 0.0602345467 -0.0220806655 0.266134828 0.0602346063 0.000114973802 0.270549864 -0.00936934538 0.000114989554 0.270399898 -0.0101385564 0.0143918907 0.268615216 0.0602346063 0.000114973802 0.270549864 0.0682345554 0.00011496713 0.270549864 0.0602346063 0.000114973802 0.270549864 -0.0101385564 0.0143918907 0.268615216 -0.00936934538 0.000114989554 0.270399898 0.0682346076 -0.022080671 0.266134828 0.0602345467 -0.0220806655 0.266134828 0.0602345318 -0.0408972241 0.253562003 0.0682345927 -0.0408972204 0.253562003 0.0682346076 -0.022080671 0.266134828 0.0602345318 -0.0408972241 0.253562003 0.0602346063 0.000114973802 0.270549864 0.0682346076 -0.022080671 0.266134828 0.0682345554 0.00011496713 0.270549864 0.0682346076 -0.022080671 0.266134828 0.0602346063 0.000114973802 0.270549864 0.0602345467 -0.0220806655 0.266134828 0.0682346076 -0.022080671 0.266134828 0.0682346076 0.0223106053 0.266134828 0.0682345554 0.00011496713 0.270549864 0.0682346076 -0.022080671 0.266134828 0.0682345927 -0.0408972204 0.253562003 0.0682346001 -0.057885021 0.212549835 0.0682346076 -0.022080671 0.266134828 0.0682346001 -0.057885021 0.212549835 0.0682346076 0.000114993345 0.154549867 0.0682346076 0.0223106053 0.266134828 0.0682346076 -0.022080671 0.266134828 0.0682346076 0.0411271676 0.253562063 0.0682346076 0.0411271676 0.253562063 0.0682346076 -0.022080671 0.266134828 0.0682346076 0.000114993345 0.154549867 0.0682345331 -0.0534700379 0.234745473 0.0602345318 -0.0534700416 0.234745473 0.0682346001 -0.057885021 0.212549835 0.0682345927 -0.0408972204 0.253562003 0.0682345331 -0.0534700379 0.234745473 0.0682346001 -0.057885021 0.212549835 0.0682345331 -0.0534700379 0.234745473 0.0682345927 -0.0408972204 0.253562003 0.0602345318 -0.0534700416 0.234745473 0.0602345467 0.000114967595 0.154549807 0.0602345467 -0.0220806524 0.158964843 -0.0218941886 0.0551059097 0.190441072 0.0602345467 0.000114967595 0.154549807 0.0601694733 0.0223105717 0.158814877 0.0682346076 0.000114993345 0.154549867 0.0601694733 0.0223105717 0.158814877 0.0602345467 0.000114967595 0.154549807 -0.0218941886 0.0551059097 0.190441072 0.0682345033 -0.0220806804 0.158964813 0.0602345467 0.000114967595 0.154549807 0.0682346076 0.000114993345 0.154549867 0.0602345467 -0.0220806524 0.158964843 0.0602345467 0.000114967595 0.154549807 0.0682345033 -0.0220806804 0.158964813 -0.0123105207 0.0274090506 0.263576359 -0.0101385564 0.0143918907 0.268615216 0.0602345765 0.0223106034 0.266134828 -0.0101385564 0.0143918907 0.268615216 -0.0123105207 0.0274090506 0.263576359 -0.0342383236 0.0580889173 0.212707192 -0.0123105207 0.0274090506 0.263576359 0.0682346076 0.0223106053 0.266134828 0.0682346076 0.0411271676 0.253562063 0.0682346076 0.0223106053 0.266134828 -0.0123105207 0.0274090506 0.263576359 0.0602345765 0.0223106034 0.266134828 0.0602345616 0.0536999851 0.234745473 -0.0273693223 0.0557949692 0.228639871 -0.0193693358 0.0465149209 0.247199863 0.0682345703 0.0536999777 0.234745473 0.0602345616 0.0536999851 0.234745473 -0.0193693358 0.0465149209 0.247199863 0.0602345616 0.0536999851 0.234745473 0.0682345703 0.0536999777 0.234745473 -0.0273693223 0.0557949692 0.228639871 0.0601694733 0.0411271416 0.171387702 0.0601694733 0.0223105717 0.158814877 0.0411603525 0.0437843874 0.173109859 0.0682345703 0.041127149 0.171537668 0.0601694733 0.0411271416 0.171387702 0.0411603525 0.0437843874 0.173109859 0.0601694733 0.0223105717 0.158814877 0.0601694733 0.0411271416 0.171387702 0.0682345554 0.0223106183 0.158964813 0.0601694733 0.0411271416 0.171387702 0.0682345703 0.041127149 0.171537668 0.0682345554 0.0223106183 0.158964813 -0.0155337323 0.0382519662 0.256098479 0.0682346076 0.0411271676 0.253562063 0.0602345765 0.0411271639 0.253562063 -0.0155337323 0.0382519662 0.256098479 -0.0123105207 0.0274090506 0.263576359 0.0682346076 0.0411271676 0.253562063 -0.0193693358 0.0465149209 0.247199863 -0.0155337323 0.0382519662 0.256098479 0.0602345765 0.0411271639 0.253562063 -0.0155337323 0.0382519662 0.256098479 -0.0193693358 0.0465149209 0.247199863 -0.0342383236 0.0580889173 0.212707192 -0.0123105207 0.0274090506 0.263576359 -0.0155337323 0.0382519662 0.256098479 -0.0342383236 0.0580889173 0.212707192 </float_array>
          <technique_common>
            <accessor count="228" offset="0" source="#mesh_0-positions-array" stride="3">
              <param name="X" type="float" />
              <param name="Y" type="float" />
              <param name="Z" type="float" />
            </accessor>
          </technique_common>
        </source>
        <vertices id="mesh_0-vertices">
          <input semantic="POSITION" source="#mesh_0-positions" />
        </vertices>
        <polylist count="76" material="defaultMaterial">
          <input offset="0" semantic="VERTEX" source="#mesh_0-vertices" />
          <vcount>3 3 3 3 3 3 3 3 3 3 3 3 3 3 3 3 3 3 3 3 3 3 3 3 3 3 3 3 3 3 3 3 3 3 3 3 3 3 3 3 3 3 3 3 3 3 3 3 3 3 3 3 3 3 3 3 3 3 3 3 3 3 3 3 3 3 3 3 3 3 3 3 3 3 3 3 </vcount>
          <p>0 1 2 3 4 5 6 7 8 9 10 11 12 13 14 15 16 17 18 19 20 21 22 23 24 25 26 27 28 29 30 31 32 33 34 35 36 37 38 39 40 41 42 43 44 45 46 47 48 49 50 51 52 53 54 55 56 57 58 59 60 61 62 63 64 65 66 67 68 69 70 71 72 73 74 75 76 77 78 79 80 81 82 83 84 85 86 87 88 89 90 91 92 93 94 95 96 97 98 99 100 101 102 103 104 105 106 107 108 109 110 111 112 113 114 115 116 117 118 119 120 121 122 123 124 125 126 127 128 129 130 131 132 133 134 135 136 137 138 139 140 141 142 143 144 145 146 147 148 149 150 151 152 153 154 155 156 157 158 159 160 161 162 163 164 165 166 167 168 169 170 171 172 173 174 175 176 177 178 179 180 181 182 183 184 185 186 187 188 189 190 191 192 193 194 195 196 197 198 199 200 201 202 203 204 205 206 207 208 209 210 211 212 213 214 215 216 217 218 219 220 221 222 223 224 225 226 227 </p>
        </polylist>
      </mesh>
    </geometry>
  </library_geometries>
  <library_controllers>
  </library_controllers>
  <library_visual_scenes>
    <visual_scene id="Scene" name="Scene">
      <node id="node" name="" type="NODE">
        <matrix sid="matrix">1 0 0 0 0 1 0 0 0 0 1 0 0 0 0 1</matrix>
        <instance_geometry url="#mesh_0">
          <bind_material>
            <technique_common>
              <instance_material symbol="defaultMaterial" target="#material_0">
              </instance_material>
            </technique_common>
          </bind_material>
        </instance_geometry>
      </node>
    </visual_scene>
  </library_visual_scenes>
  <scene>
    <instance_visual_scene url="#Scene" />
  </scene>
</COLLADA>
