<?xml version="1.0" encoding="UTF-8" standalone="no" ?>
<COLLADA xmlns="http://www.collada.org/2005/11/COLLADASchema" version="1.4.1">
  <asset>
    <contributor>
      <author>Assimp</author>
      <authoring_tool>Assimp Exporter</authoring_tool>
    </contributor>
    <created>2025-11-12T11:09:31</created>
    <modified>2025-11-12T11:09:31</modified>
    <unit name="meter" meter="1" />
    <up_axis>Y_UP</up_axis>
  </asset>
  <library_images>
  </library_images>
  <library_effects>
    <effect id="material_0-fx" name="">
      <profile_COMMON>
        <technique sid="standard">
          <phong>
            <emission>
              <color sid="emission">0   0   0   4.28026616e-41</color>
            </emission>
            <ambient>
              <color sid="ambient">0.535294116   0.535294116   0.535294116   4.28026616e-41</color>
            </ambient>
            <diffuse>
              <color sid="diffuse">0.535294116   0.535294116   0.535294116   4.28026616e-41</color>
            </diffuse>
            <specular>
              <color sid="specular">0.140000001   0.140000001   0.140000001   0</color>
            </specular>
          </phong>
        </technique>
      </profile_COMMON>
    </effect>
  </library_effects>
  <library_materials>
    <material id="material_0" name="">
      <instance_effect url="#material_0-fx"/>
    </material>
  </library_materials>
  <library_geometries>
    <geometry id="mesh_0" name="" >
      <mesh>
        <source id="mesh_0-positions" name="mesh_0-positions">
          <float_array id="mesh_0-positions-array" count="3492"> 0.000252414058 0.0579998009 0.192969203 0.000252392259 0.0578223504 0.207863644 0.00730109215 0.0579907 0.20883286 0.0257612262 0.0542533547 0.189170718 0.00730109215 0.0579907 0.20883286 0.0307347402 0.0548601039 0.193575293 0.038610369 0.0490445942 0.181438074 0.0257612262 0.0542533547 0.189170718 0.0307347402 0.0548601039 0.193575293 0.038610369 0.0490445942 0.181438074 0.0425122567 0.0421692245 0.171336368 0.0257612262 0.0542533547 0.189170718 0.038610369 0.0490445942 0.181438074 0.04617434 0.0404563583 0.17083925 0.0425122567 0.0421692245 0.171336368 0.0425122567 0.0421692245 0.171336368 0.04617434 0.0404563583 0.17083925 0.0528440028 0.029178137 0.162273645 0.0546148792 0.0225920565 0.158462718 0.0528440028 0.029178137 0.162273645 0.0578724183 0.0154332221 0.156490862 0.0581096411 0.00949799828 0.154749498 0.0578724183 0.0154332221 0.156490862 0.0594985075 4.31190994e-09 0.154325336 0.0590579808 4.46369199e-08 0.154123545 0.0581096411 0.00949799828 0.154749498 0.0594985075 4.31190994e-09 0.154325336 0.0590579808 4.46369199e-08 0.154123545 0.0586940087 -1.65826854e-08 0.153812036 0.0581096411 0.00949799828 0.154749498 0.0581096411 0.00949799828 0.154749498 0.0586940087 -1.65826854e-08 0.153812036 0.0584269054 -8.51597726e-09 0.153412551 0.0574363582 0.00949801877 0.152971327 0.0584269054 -8.51597726e-09 0.153412551 0.058243528 -2.45790623e-08 0.152436852 0.058252383 -3.55254528e-08 0.151399851 0.0574363582 0.00949801877 0.152971327 0.058243528 -2.45790623e-08 0.152436852 0.058252383 -3.55254528e-08 0.151399851 0.0538374037 0.0221956298 0.151399836 0.0574363582 0.00949801877 0.152971327 0.0574363582 0.00949801877 0.152971327 0.0538374037 0.0221956298 0.151399836 0.0535382256 0.0225920919 0.154668763 0.0581096411 0.00949799828 0.154749498 0.0535382256 0.0225920919 0.154668763 0.0546148792 0.0225920565 0.158462718 0.0578724183 0.0154332221 0.156490862 0.0581096411 0.00949799828 0.154749498 0.0546148792 0.0225920565 0.158462718 0.0257579703 0.057986781 0.211162195 0.0254000369 0.0579780303 0.210805371 0.0246908143 0.0579975918 0.2118714 0.0256578643 0.057994362 0.211592942 0.0257579703 0.057986781 0.211162195 0.0246908143 0.0579975918 0.2118714 0.0256578643 0.057994362 0.211592942 0.0258143879 0.0579890758 0.211276442 0.0257579703 0.057986781 0.211162195 0.0256578643 0.057994362 0.211592942 0.0258202944 0.057991419 0.211403176 0.0258143879 0.0579890758 0.211276442 0.0256578643 0.057994362 0.211592942 0.0257576499 0.057993263 0.211513013 0.0258202944 0.057991419 0.211403176 0.0246908143 0.0579975918 0.2118714 0.0245782193 0.0579588972 0.210215837 0.0236965828 0.0579985641 0.211992398 0.0246908143 0.0579975918 0.2118714 0.0254000369 0.0579780303 0.210805371 0.0245782193 0.0579588972 0.210215837 0.0245782193 0.0579588972 0.210215837 0.0229568556 0.0579007603 0.209009051 0.0236965828 0.0579985641 0.211992398 0.0236965828 0.0579985641 0.211992398 0.0229568556 0.0579007603 0.209009051 0.0156830624 0.057998877 0.212039471 0.0156830624 0.057998877 0.212039471 0.0229568556 0.0579007603 0.209009051 0.0229139533 0.0578938387 0.208892345 0.0229034666 0.0578861684 0.208768159 0.0156830624 0.057998877 0.212039471 0.0229139533 0.0578938387 0.208892345 0.0229034666 0.0578861684 0.208768159 0.0229252521 0.0578701757 0.208521768 0.0156830624 0.057998877 0.212039471 0.0156830624 0.057998877 0.212039471 0.0229252521 0.0578701757 0.208521768 0.0230385158 0.0578359589 0.208041042 0.0233655032 0.057758566 0.207113266 0.0156830624 0.057998877 0.212039471 0.0230385158 0.0578359589 0.208041042 0.0233655032 0.057758566 0.207113266 0.00730109215 0.0579907 0.20883286 0.0156830624 0.057998877 0.212039471 0.0233655032 0.057758566 0.207113266 0.0307347402 0.0548601039 0.193575293 0.00730109215 0.0579907 0.20883286 0.0578724183 0.0154332221 0.156490862 0.0599942841 -2.01346495e-08 0.154399842 0.0594985075 4.31190994e-09 0.154325336 0.0538374037 0.0221956298 0.151399836 0.0412645862 0.0410121791 0.151399851 0.0535382256 0.0225920919 0.154668763 0.0535382256 0.0225920919 0.154668763 0.0412645862 0.0410121791 0.151399851 0.0398138203 0.0421693437 0.160540387 0.0546148792 0.0225920565 0.158462718 0.0398138203 0.0421693437 0.160540387 0.0425122567 0.0421692245 0.171336368 0.0528440028 0.029178137 0.162273645 0.0546148792 0.0225920565 0.158462718 0.0425122567 0.0421692245 0.171336368 0.0412645862 0.0410121791 0.151399851 0.0224480499 0.0535849854 0.151399866 0.0398138203 0.0421693437 0.160540387 0.0398138203 0.0421693437 0.160540387 0.0224480499 0.0535849854 0.151399866 0.020568734 0.0542535186 0.168659747 0.0425122567 0.0421692245 0.171336368 0.020568734 0.0542535186 0.168659747 0.0257612262 0.0542533547 0.189170718 0.0425122567 0.0421692245 0.171336368 0.0398138203 0.0421693437 0.160540387 0.020568734 0.0542535186 0.168659747 0.0224480499 0.0535849854 0.151399866 0.000252406404 0.0580000207 0.151404053 0.020568734 0.0542535186 0.168659747 0.020568734 0.0542535186 0.168659747 0.000252406404 0.0580000207 0.151404053 0.000252411293 0.0580000095 0.164738372 0.000252403319 0.0580000021 0.178072706 0.020568734 0.0542535186 0.168659747 0.000252411293 0.0580000095 0.164738372 0.000252403319 0.0580000021 0.178072706 0.000252414058 0.0579998009 0.192969203 0.020568734 0.0542535186 0.168659747 0.020568734 0.0542535186 0.168659747 0.000252414058 0.0579998009 0.192969203 0.0257612262 0.0542533547 0.189170718 0.0257612262 0.0542533547 0.189170718 0.000252414058 0.0579998009 0.192969203 0.00730109215 0.0579907 0.20883286 0.0584269054 -8.51597726e-09 0.153412551 0.0574363582 0.00949801877 0.152971327 0.0581096411 0.00949799828 0.154749498 0.0581096411 0.00949799828 0.154749498 0.0574363582 0.00949801877 0.152971327 0.0535382256 0.0225920919 0.154668763 0.0535382256 0.0225920919 0.154668763 0.0398138203 0.0421693437 0.160540387 0.0546148792 0.0225920565 0.158462718 0.00730109215 0.0579907 0.20883286 0.000252392259 0.0578223504 0.207863644 0.0156830624 0.057998877 0.212039471 0.000252406782 -0.0580000579 0.151399851 0.000252396276 -0.0579999946 0.146099851 0.0224480443 -0.053584978 0.151399851 0.0224480443 -0.053584978 0.151399851 0.000252396276 -0.0579999946 0.146099851 0.0224480368 -0.0535849631 0.146099851 0.0412645787 -0.0410121791 0.151399851 0.0224480368 -0.0535849631 0.146099851 0.0412645862 -0.0410121642 0.146099865 0.0538373999 -0.0221956633 0.151399851 0.0412645862 -0.0410121642 0.146099865 0.0538374074 -0.0221957322 0.146099851 0.058252383 -3.55254528e-08 0.151399851 0.0538374074 -0.0221957322 0.146099851 0.0582523905 2.60958473e-08 0.146099851 0.0538374037 0.0221956298 0.151399836 0.0582523905 2.60958473e-08 0.146099851 0.0538374037 0.0221956447 0.146099851 0.0412645862 0.0410121791 0.151399851 0.0538374037 0.0221956447 0.146099851 0.041264575 0.041012194 0.146099851 0.0224480499 0.0535849854 0.151399866 0.041264575 0.041012194 0.146099851 0.0224480368 0.0535850003 0.146099851 0.000252406404 0.0580000207 0.151404053 0.0224480368 0.0535850003 0.146099851 0.000252419501 0.0579999685 0.146099865 0.000252406404 0.0580000207 0.151404053 0.0224480499 0.0535849854 0.151399866 0.0224480368 0.0535850003 0.146099851 0.0224480499 0.0535849854 0.151399866 0.0412645862 0.0410121791 0.151399851 0.041264575 0.041012194 0.146099851 0.0412645862 0.0410121791 0.151399851 0.0538374037 0.0221956298 0.151399836 0.0538374037 0.0221956447 0.146099851 0.0538374037 0.0221956298 0.151399836 0.058252383 -3.55254528e-08 0.151399851 0.0582523905 2.60958473e-08 0.146099851 0.058252383 -3.55254528e-08 0.151399851 0.0538373999 -0.0221956633 0.151399851 0.0538374074 -0.0221957322 0.146099851 0.0538373999 -0.0221956633 0.151399851 0.0412645787 -0.0410121791 0.151399851 0.0412645862 -0.0410121642 0.146099865 0.0412645787 -0.0410121791 0.151399851 0.0224480443 -0.053584978 0.151399851 0.0224480368 -0.0535849631 0.146099851 -0.0576619767 -0.00315002073 0.149099857 -0.0576620139 -0.00314997905 0.146099851 -0.0526940413 -0.0236785412 0.151399836 -0.0576755479 -0.00289005274 0.150352806 -0.0526940413 -0.0236785412 0.151399836 -0.0577075891 -0.00215235306 0.151399836 -0.0576755479 -0.00289005274 0.150352806 -0.0576619767 -0.00315002073 0.149099857 -0.0526940413 -0.0236785412 0.151399836 0.000252396276 -0.0579999946 0.146099851 0.000252406782 -0.0580000579 0.151399851 -0.0212133005 -0.0538815297 0.146099851 -0.0212133005 -0.0538815297 0.146099851 0.000252406782 -0.0580000579 0.151399851 -0.0214450639 -0.053788662 0.151399851 -0.0396305248 -0.0421111286 0.146099865 -0.0214450639 -0.053788662 0.151399851 -0.0399916247 -0.0417663194 0.151399851 -0.0523838289 -0.0243603066 0.146099851 -0.0399916247 -0.0417663194 0.151399851 -0.0526940413 -0.0236785412 0.151399836 -0.0576620139 -0.00314997905 0.146099851 -0.0523838289 -0.0243603066 0.146099851 -0.0526940413 -0.0236785412 0.151399836 -0.0396305248 -0.0421111286 0.146099865 -0.0212133005 -0.0538815297 0.146099851 -0.0214450639 -0.053788662 0.151399851 -0.0399916247 -0.0417663194 0.151399851 -0.0523838289 -0.0243603066 0.146099851 -0.0396305248 -0.0421111286 0.146099865 -0.0564791225 -0.0185172595 0.157435209 -0.0593294539 -0.00391360372 0.15453203 -0.0586620271 -7.74018538e-09 0.154188067 -0.0541444272 -0.0214434862 0.157612845 -0.0586620271 -7.74018538e-09 0.154188067 -0.0581039302 1.4028938e-08 0.153708369 -0.0579116084 -3.1454281e-08 0.153390571 -0.0541444272 -0.0214434862 0.157612845 -0.0581039302 1.4028938e-08 0.153708369 -0.0579116084 -3.1454281e-08 0.153390571 -0.0577933826 1.41848515e-08 0.153032482 -0.0541444272 -0.0214434862 0.157612845 -0.0541444272 -0.0214434862 0.157612845 -0.0577933826 1.41848515e-08 0.153032482 -0.0535235517 -0.0214435812 0.154092893 -0.0415978953 -0.0399173535 0.158594042 -0.0535235517 -0.0214435812 0.154092893 -0.0526940413 -0.0236785412 0.151399836 -0.0399916247 -0.0417663194 0.151399851 -0.0415978953 -0.0399173535 0.158594042 -0.0526940413 -0.0236785412 0.151399836 -0.0399916247 -0.0417663194 0.151399851 -0.0237039533 -0.0527326278 0.165242732 -0.0415978953 -0.0399173535 0.158594042 -0.0399916247 -0.0417663194 0.151399851 -0.0214450639 -0.053788662 0.151399851 -0.0237039533 -0.0527326278 0.165242732 -0.0237039533 -0.0527326278 0.165242732 -0.0214450639 -0.053788662 0.151399851 -0.00234375126 -0.0579405166 0.173114181 -0.0263372194 -0.0527324639 0.183775738 -0.00234375126 -0.0579405166 0.173114181 -0.00667251134 -0.0579404049 0.202262089 -0.0295214411 -0.0552453585 0.194737792 -0.00667251134 -0.0579404049 0.202262089 -0.0225427859 -0.0578336082 0.208010197 -0.0295214411 -0.0552453585 0.194737792 -0.0263372194 -0.0527324639 0.183775738 -0.00667251134 -0.0579404049 0.202262089 -0.0295214411 -0.0552453585 0.194737792 -0.0371517316 -0.0499028005 0.182841286 -0.0263372194 -0.0527324639 0.183775738 -0.0263372194 -0.0527324639 0.183775738 -0.0371517316 -0.0499028005 0.182841286 -0.0429310314 -0.0399172865 0.168168858 -0.0237039533 -0.0527326278 0.165242732 -0.0429310314 -0.0399172865 0.168168858 -0.0415978953 -0.0399173535 0.158594042 -0.0237039533 -0.0527326278 0.165242732 -0.0263372194 -0.0527324639 0.183775738 -0.0429310314 -0.0399172865 0.168168858 -0.0237039533 -0.0527326278 0.165242732 -0.00234375126 -0.0579405166 0.173114181 -0.0263372194 -0.0527324639 0.183775738 -0.05938958 3.17198854e-08 0.154392436 -0.0586620271 -7.74018538e-09 0.154188067 -0.0593745336 -0.00195706193 0.154427424 -0.0593745336 -0.00195706193 0.154427424 -0.0586620271 -7.74018538e-09 0.154188067 -0.0593294539 -0.00391360372 0.15453203 -0.0577933826 1.41848515e-08 0.153032482 -0.0577364862 1.70849681e-08 0.152249858 -0.0535235517 -0.0214435812 0.154092893 -0.0535235517 -0.0214435812 0.154092893 -0.0577364862 1.70849681e-08 0.152249858 -0.0577264018 -0.00115602848 0.152030051 -0.0526940413 -0.0236785412 0.151399836 -0.0577264018 -0.00115602848 0.152030051 -0.0577075891 -0.00215235306 0.151399836 -0.0526940413 -0.0236785412 0.151399836 -0.0535235517 -0.0214435812 0.154092893 -0.0577264018 -0.00115602848 0.152030051 -0.0214450639 -0.053788662 0.151399851 0.000252406782 -0.0580000579 0.151399851 -0.00234375126 -0.0579405166 0.173114181 -0.00234375126 -0.0579405166 0.173114181 0.000252406782 -0.0580000579 0.151399851 0.000252403261 -0.0580000505 0.164736286 0.000252410857 -0.0580000095 0.178072691 -0.00234375126 -0.0579405166 0.173114181 0.000252403261 -0.0580000505 0.164736286 0.000252410857 -0.0580000095 0.178072691 0.000252414495 -0.0579998642 0.192968965 -0.00234375126 -0.0579405166 0.173114181 -0.00234375126 -0.0579405166 0.173114181 0.000252414495 -0.0579998642 0.192968965 -0.00667251134 -0.0579404049 0.202262089 -0.00667251134 -0.0579404049 0.202262089 0.000252414495 -0.0579998642 0.192968965 0.000252391561 -0.0578223243 0.207863644 -0.0146961017 -0.057998538 0.211983204 -0.00667251134 -0.0579404049 0.202262089 0.000252391561 -0.0578223243 0.207863644 -0.0146961017 -0.057998538 0.211983204 -0.0224283524 -0.0578670651 0.208474919 -0.00667251134 -0.0579404049 0.202262089 -0.0146961017 -0.057998538 0.211983204 -0.0223998185 -0.0578827225 0.208713412 -0.0224283524 -0.0578670651 0.208474919 -0.0146961017 -0.057998538 0.211983204 -0.0224247333 -0.0578974523 0.208952278 -0.0223998185 -0.0578827225 0.208713412 -0.0146961017 -0.057998538 0.211983204 -0.0224910546 -0.0579033494 0.209052682 -0.0224247333 -0.0578974523 0.208952278 -0.0146961017 -0.057998538 0.211983204 -0.0225861482 -0.0579077788 0.209130064 -0.0224910546 -0.0579033494 0.209052682 -0.0146961017 -0.057998538 0.211983204 -0.0227783211 -0.0579161756 0.209282488 -0.0225861482 -0.0579077788 0.209130064 -0.0146961017 -0.057998538 0.211983204 -0.0224668663 -0.0579989515 0.212050214 -0.0227783211 -0.0579161756 0.209282488 -0.0227783211 -0.0579161756 0.209282488 -0.0224668663 -0.0579989515 0.212050214 -0.0231693927 -0.0579313599 0.209578618 -0.0231693927 -0.0579313599 0.209578618 -0.0224668663 -0.0579989515 0.212050214 -0.0247726142 -0.0579753965 0.210710004 -0.0247726142 -0.0579753965 0.210710004 -0.0224668663 -0.0579989515 0.212050214 -0.0243974701 -0.0579972379 0.211834088 -0.0251453258 -0.057983797 0.211029798 -0.0243974701 -0.0579972379 0.211834088 -0.02487248 -0.0579959527 0.211716577 -0.025290506 -0.0579881631 0.211227775 -0.02487248 -0.0579959527 0.211716577 -0.0253215823 -0.057990469 0.211347073 -0.025290506 -0.0579881631 0.211227775 -0.0251453258 -0.057983797 0.211029798 -0.02487248 -0.0579959527 0.211716577 -0.02487248 -0.0579959527 0.211716577 -0.0251010135 -0.0579947829 0.211622849 -0.0253215823 -0.057990469 0.211347073 -0.0253215823 -0.057990469 0.211347073 -0.0251010135 -0.0579947829 0.211622849 -0.0252891313 -0.0579924807 0.211465538 -0.0252891313 -0.0579924807 0.211465538 -0.0251010135 -0.0579947829 0.211622849 -0.0252060257 -0.0579938293 0.211555824 -0.0251453258 -0.057983797 0.211029798 -0.0247726142 -0.0579753965 0.210710004 -0.0243974701 -0.0579972379 0.211834088 -0.0224283524 -0.0578670651 0.208474919 -0.0225427859 -0.0578336082 0.208010197 -0.00667251134 -0.0579404049 0.202262089 -0.0371517316 -0.0499028005 0.182841286 -0.0512243249 -0.0314245149 0.163650483 -0.0429310314 -0.0399172865 0.168168858 -0.0429310314 -0.0399172865 0.168168858 -0.0512243249 -0.0314245149 0.163650483 -0.0541444272 -0.0214434862 0.157612845 -0.0415978953 -0.0399173535 0.158594042 -0.0541444272 -0.0214434862 0.157612845 -0.0535235517 -0.0214435812 0.154092893 -0.0415978953 -0.0399173535 0.158594042 -0.0429310314 -0.0399172865 0.168168858 -0.0541444272 -0.0214434862 0.157612845 -0.0512243249 -0.0314245149 0.163650483 -0.0564791225 -0.0185172595 0.157435209 -0.0541444272 -0.0214434862 0.157612845 -0.0541444272 -0.0214434862 0.157612845 -0.0564791225 -0.0185172595 0.157435209 -0.0586620271 -7.74018538e-09 0.154188067 -0.0343863852 -0.0580000021 0.212399825 0.0601523891 -0.0579999872 0.21239984 -0.0273864102 -0.0556799918 0.228639856 -0.0273864102 -0.0556799918 0.228639856 0.0601523891 -0.0579999872 0.21239984 0.0601523966 -0.0535850376 0.234595478 -0.0193864126 -0.0463999622 0.247199833 0.0601523966 -0.0535850376 0.234595478 0.0601523966 -0.0410122015 0.253412008 -0.0155507987 -0.0381369852 0.256098449 0.0601523966 -0.0410122015 0.253412008 0.0601523966 -0.0221956708 0.265984833 -0.0123275695 -0.0272941273 0.263576329 0.0601523966 -0.0221956708 0.265984833 -0.0101556238 -0.0142769236 0.268615216 -0.0123275695 -0.0272941273 0.263576329 -0.0155507987 -0.0381369852 0.256098449 0.0601523966 -0.0221956708 0.265984833 0.0601523966 -0.0221956708 0.265984833 0.0601523854 -3.56505439e-08 0.270399839 -0.0101556238 -0.0142769236 0.268615216 -0.0101556238 -0.0142769236 0.268615216 0.0601523854 -3.56505439e-08 0.270399839 -0.00938642677 2.78311294e-08 0.270399839 -0.00938642677 2.78311294e-08 0.270399839 0.0601523854 -3.56505439e-08 0.270399839 -0.0101556368 0.0142769283 0.268615216 -0.0101556368 0.0142769283 0.268615216 0.0601523854 -3.56505439e-08 0.270399839 0.0601523928 0.0221956577 0.265984863 -0.0123276012 0.02729409 0.263576299 0.0601523928 0.0221956577 0.265984863 0.0601523817 0.0410122052 0.253412038 -0.015550808 0.0381370075 0.256098449 0.0601523817 0.0410122052 0.253412038 -0.0193864107 0.0463999622 0.247199833 -0.015550808 0.0381370075 0.256098449 -0.0123276012 0.02729409 0.263576299 0.0601523817 0.0410122052 0.253412038 0.0601523817 0.0410122052 0.253412038 0.0601523928 0.0535850115 0.234595478 -0.0193864107 0.0463999622 0.247199833 -0.0193864107 0.0463999622 0.247199833 0.0601523928 0.0535850115 0.234595478 -0.0273864046 0.0556800105 0.228639826 -0.0273864046 0.0556800105 0.228639826 0.0601523928 0.0535850115 0.234595478 0.0601523891 0.0579999723 0.21239984 -0.0343864001 0.0579999611 0.21239984 -0.0273864046 0.0556800105 0.228639826 0.0601523891 0.0579999723 0.21239984 -0.0123276012 0.02729409 0.263576299 -0.0101556368 0.0142769283 0.268615216 0.0601523928 0.0221956577 0.265984863 -0.0155507987 -0.0381369852 0.256098449 -0.0193864126 -0.0463999622 0.247199833 0.0601523966 -0.0410122015 0.253412008 -0.0193864126 -0.0463999622 0.247199833 -0.0273864102 -0.0556799918 0.228639856 0.0601523966 -0.0535850376 0.234595478 0.0236965828 0.0579985641 0.211992398 0.0156830624 0.057998877 0.212039471 0.0601523891 0.0579999723 0.21239984 0.0246908143 0.0579975918 0.2118714 0.0601523891 0.0579999723 0.21239984 0.0256578643 0.057994362 0.211592942 0.0246908143 0.0579975918 0.2118714 0.0236965828 0.0579985641 0.211992398 0.0601523891 0.0579999723 0.21239984 0.0601523891 0.0579999723 0.21239984 0.0601523928 0.0535850227 0.190204203 0.0256578643 0.057994362 0.211592942 0.0256578643 0.057994362 0.211592942 0.0601523928 0.0535850227 0.190204203 0.0257576499 0.057993263 0.211513013 0.0257576499 0.057993263 0.211513013 0.0601523928 0.0535850227 0.190204203 0.0258202944 0.057991419 0.211403176 0.0258202944 0.057991419 0.211403176 0.0601523928 0.0535850227 0.190204203 0.0258143879 0.0579890758 0.211276442 0.0258143879 0.0579890758 0.211276442 0.0601523928 0.0535850227 0.190204203 0.0257579703 0.057986781 0.211162195 0.0257579703 0.057986781 0.211162195 0.0601523928 0.0535850227 0.190204203 0.0254000369 0.0579780303 0.210805371 0.0254000369 0.0579780303 0.210805371 0.0601523928 0.0535850227 0.190204203 0.0245782193 0.0579588972 0.210215837 0.0245782193 0.0579588972 0.210215837 0.0601523928 0.0535850227 0.190204203 0.0229568556 0.0579007603 0.209009051 0.0229568556 0.0579007603 0.209009051 0.0601523928 0.0535850227 0.190204203 0.0229139533 0.0578938387 0.208892345 0.0229139533 0.0578938387 0.208892345 0.0601523928 0.0535850227 0.190204203 0.0229034666 0.0578861684 0.208768159 0.0229034666 0.0578861684 0.208768159 0.0601523928 0.0535850227 0.190204203 0.0229252521 0.0578701757 0.208521768 0.0229252521 0.0578701757 0.208521768 0.0601523928 0.0535850227 0.190204203 0.0230385158 0.0578359589 0.208041042 0.0230385158 0.0578359589 0.208041042 0.0601523928 0.0535850227 0.190204203 0.0233655032 0.057758566 0.207113266 0.0233655032 0.057758566 0.207113266 0.0601523928 0.0535850227 0.190204203 0.0307347402 0.0548601039 0.193575293 0.0307347402 0.0548601039 0.193575293 0.0601523928 0.0535850227 0.190204203 0.038610369 0.0490445942 0.181438074 0.038610369 0.0490445942 0.181438074 0.0601523928 0.0535850227 0.190204203 0.0601523966 0.0410121866 0.171387658 0.04617434 0.0404563583 0.17083925 0.0601523966 0.0410121866 0.171387658 0.0601523966 0.0221956167 0.158814862 0.0528440028 0.029178137 0.162273645 0.0601523966 0.0221956167 0.158814862 0.0578724183 0.0154332221 0.156490862 0.0528440028 0.029178137 0.162273645 0.04617434 0.0404563583 0.17083925 0.0601523966 0.0221956167 0.158814862 0.0601523966 0.0221956167 0.158814862 0.0601523779 2.10138982e-08 0.154399857 0.0578724183 0.0154332221 0.156490862 0.0578724183 0.0154332221 0.156490862 0.0601523779 2.10138982e-08 0.154399857 0.0599942841 -2.01346495e-08 0.154399842 0.0599942841 -2.01346495e-08 0.154399842 0.0601523779 2.10138982e-08 0.154399857 0.0578643754 -0.0154630933 0.156499133 0.0578643754 -0.0154630933 0.156499133 0.0601523779 2.10138982e-08 0.154399857 0.0601523928 -0.0221955907 0.158814847 0.0528475456 -0.0291707087 0.162269339 0.0601523928 -0.0221955907 0.158814847 0.0601523928 -0.0410121717 0.171387658 0.0460986309 -0.040560402 0.170940772 0.0601523928 -0.0410121717 0.171387658 0.0384259 -0.04921408 0.181708261 0.0460986309 -0.040560402 0.170940772 0.0528475456 -0.0291707087 0.162269339 0.0601523928 -0.0410121717 0.171387658 0.0601523928 -0.0410121717 0.171387658 0.0601523891 -0.0535849817 0.190204203 0.0384259 -0.04921408 0.181708261 0.0384259 -0.04921408 0.181708261 0.0601523891 -0.0535849817 0.190204203 0.0304444283 -0.0550206937 0.194049746 0.0304444283 -0.0550206937 0.194049746 0.0601523891 -0.0535849817 0.190204203 0.0601523891 -0.0579999872 0.21239984 0.023116542 -0.0578166842 0.207791537 0.0601523891 -0.0579999872 0.21239984 0.0229034647 -0.0578854717 0.208757415 0.023116542 -0.0578166842 0.207791537 0.0304444283 -0.0550206937 0.194049746 0.0601523891 -0.0579999872 0.21239984 -0.02487248 -0.0579959527 0.211716577 -0.0243974701 -0.0579972379 0.211834088 -0.0343863852 -0.0580000021 0.212399825 -0.0251010135 -0.0579947829 0.211622849 -0.0343863852 -0.0580000021 0.212399825 -0.0252060257 -0.0579938293 0.211555824 -0.0251010135 -0.0579947829 0.211622849 -0.02487248 -0.0579959527 0.211716577 -0.0343863852 -0.0580000021 0.212399825 -0.0432415791 -0.0542396605 0.191855803 -0.0295214411 -0.0552453585 0.194737792 -0.0343863852 -0.0580000021 0.212399825 -0.0512243249 -0.0314245149 0.163650483 -0.0571148135 -0.0241570249 0.15967001 -0.0564791225 -0.0185172595 0.157435209 -0.0571148135 -0.0241570249 0.15967001 -0.0593294539 -0.00391360372 0.15453203 -0.0564791225 -0.0185172595 0.157435209 -0.0295214411 -0.0552453585 0.194737792 -0.0225427859 -0.0578336082 0.208010197 -0.0343863852 -0.0580000021 0.212399825 -0.0343863852 -0.0580000021 0.212399825 -0.0225427859 -0.0578336082 0.208010197 -0.0224283524 -0.0578670651 0.208474919 -0.0223998185 -0.0578827225 0.208713412 -0.0343863852 -0.0580000021 0.212399825 -0.0224283524 -0.0578670651 0.208474919 -0.0223998185 -0.0578827225 0.208713412 -0.0224247333 -0.0578974523 0.208952278 -0.0343863852 -0.0580000021 0.212399825 -0.0224910546 -0.0579033494 0.209052682 -0.0343863852 -0.0580000021 0.212399825 -0.0224247333 -0.0578974523 0.208952278 -0.0224910546 -0.0579033494 0.209052682 -0.0225861482 -0.0579077788 0.209130064 -0.0343863852 -0.0580000021 0.212399825 -0.0343863852 -0.0580000021 0.212399825 -0.0225861482 -0.0579077788 0.209130064 -0.0227783211 -0.0579161756 0.209282488 -0.0231693927 -0.0579313599 0.209578618 -0.0343863852 -0.0580000021 0.212399825 -0.0227783211 -0.0579161756 0.209282488 -0.0231693927 -0.0579313599 0.209578618 -0.0247726142 -0.0579753965 0.210710004 -0.0343863852 -0.0580000021 0.212399825 -0.0343863852 -0.0580000021 0.212399825 -0.0247726142 -0.0579753965 0.210710004 -0.0251453258 -0.057983797 0.211029798 -0.025290506 -0.0579881631 0.211227775 -0.0343863852 -0.0580000021 0.212399825 -0.0251453258 -0.057983797 0.211029798 -0.025290506 -0.0579881631 0.211227775 -0.0253215823 -0.057990469 0.211347073 -0.0343863852 -0.0580000021 0.212399825 -0.0252891313 -0.0579924807 0.211465538 -0.0343863852 -0.0580000021 0.212399825 -0.0253215823 -0.057990469 0.211347073 -0.0252891313 -0.0579924807 0.211465538 -0.0252060257 -0.0579938293 0.211555824 -0.0343863852 -0.0580000021 0.212399825 -0.0243974701 -0.0579972379 0.211834088 -0.0224668663 -0.0579989515 0.212050214 -0.0343863852 -0.0580000021 0.212399825 -0.0343863852 -0.0580000021 0.212399825 -0.0224668663 -0.0579989515 0.212050214 0.0601523891 -0.0579999872 0.21239984 0.0601523891 -0.0579999872 0.21239984 -0.0224668663 -0.0579989515 0.212050214 0.0231042467 -0.0579988584 0.212040856 0.0250528362 -0.0579969548 0.211803138 0.0601523891 -0.0579999872 0.21239984 0.0231042467 -0.0579988584 0.212040856 0.0250528362 -0.0579969548 0.211803138 0.0255230721 -0.0579952858 0.211662129 0.0601523891 -0.0579999872 0.21239984 0.0601523891 -0.0579999872 0.21239984 0.0255230721 -0.0579952858 0.211662129 0.0257348921 -0.0579935536 0.211535439 0.0258090366 -0.0579919592 0.211436421 0.0601523891 -0.0579999872 0.21239984 0.0257348921 -0.0579935536 0.211535439 0.0601523891 -0.0579999872 0.21239984 0.0258090366 -0.0579919592 0.211436421 0.0258234255 -0.0579898655 0.211314887 0.0257803462 -0.0579875782 0.211198747 0.0601523891 -0.0579999872 0.21239984 0.0258234255 -0.0579898655 0.211314887 0.0257803462 -0.0579875782 0.211198747 0.0257095676 -0.0579853468 0.211096898 0.0601523891 -0.0579999872 0.21239984 0.0601523891 -0.0579999872 0.21239984 0.0257095676 -0.0579853468 0.211096898 0.0255357865 -0.057981126 0.210919812 0.0251460429 -0.0579724573 0.210612684 0.0601523891 -0.0579999872 0.21239984 0.0255357865 -0.057981126 0.210919812 0.0251460429 -0.0579724573 0.210612684 0.0235260837 -0.0579258464 0.209468469 0.0601523891 -0.0579999872 0.21239984 0.0601523891 -0.0579999872 0.21239984 0.0235260837 -0.0579258464 0.209468469 0.0231341217 -0.0579097159 0.209164739 0.0229511373 -0.057900209 0.208999783 0.0601523891 -0.0579999872 0.21239984 0.0231341217 -0.0579097159 0.209164739 0.0229511373 -0.057900209 0.208999783 0.0229120776 -0.0578932203 0.208881855 0.0601523891 -0.0579999872 0.21239984 0.0601523891 -0.0579999872 0.21239984 0.0229120776 -0.0578932203 0.208881855 0.0229034647 -0.0578854717 0.208757415 0.0231042467 -0.0579988584 0.212040856 -0.0224668663 -0.0579989515 0.212050214 0.0152687756 -0.0579985492 0.211991459 0.0152687756 -0.0579985492 0.211991459 -0.0224668663 -0.0579989515 0.212050214 -0.0146961017 -0.057998538 0.211983204 0.000252391561 -0.0578223243 0.207863644 0.0152687756 -0.0579985492 0.211991459 -0.0146961017 -0.057998538 0.211983204 0.0528475456 -0.0291707087 0.162269339 0.0578643754 -0.0154630933 0.156499133 0.0601523928 -0.0221955907 0.158814847 0.04617434 0.0404563583 0.17083925 0.038610369 0.0490445942 0.181438074 0.0601523966 0.0410121866 0.171387658 0.000252392259 0.0578223504 0.207863644 -0.0142842373 0.0579981245 0.21193099 0.0156830624 0.057998877 0.212039471 0.0156830624 0.057998877 0.212039471 -0.0142842373 0.0579981245 0.21193099 -0.0218746886 0.0579990745 0.212086827 0.0601523891 0.0579999723 0.21239984 -0.0218746886 0.0579990745 0.212086827 -0.0343864001 0.0579999611 0.21239984 0.0601523891 0.0579999723 0.21239984 0.0156830624 0.057998877 0.212039471 -0.0218746886 0.0579990745 0.212086827 -0.0218746886 0.0579990745 0.212086827 -0.0237712115 0.0579980277 0.211930275 -0.0343864001 0.0579999611 0.21239984 -0.0343864001 0.0579999611 0.21239984 -0.0237712115 0.0579980277 0.211930275 -0.0247090999 0.0579964966 0.21176444 -0.0251530409 0.0579943769 0.211592928 -0.0343864001 0.0579999611 0.21239984 -0.0247090999 0.0579964966 0.21176444 -0.0251530409 0.0579943769 0.211592928 -0.0252474006 0.0579932854 0.21151872 -0.0343864001 0.0579999611 0.21239984 -0.0343864001 0.0579999611 0.21239984 -0.0252474006 0.0579932854 0.21151872 -0.0432415456 0.0542396754 0.191855803 -0.0253113005 0.0579916909 0.211417675 -0.0432415456 0.0542396754 0.191855803 -0.0252474006 0.0579932854 0.21151872 -0.0432415456 0.0542396754 0.191855803 -0.0253113005 0.0579916909 0.211417675 -0.0253155604 0.0579895154 0.211298972 -0.0252692848 0.0579873286 0.211187899 -0.0432415456 0.0542396754 0.191855803 -0.0253155604 0.0579895154 0.211298972 -0.0252692848 0.0579873286 0.211187899 -0.0237652324 0.0579504967 0.210003257 -0.0432415456 0.0542396754 0.191855803 -0.0432415456 0.0542396754 0.191855803 -0.0237652324 0.0579504967 0.210003257 -0.0229855403 0.057924483 0.209441543 -0.0226063374 0.0579086803 0.209146321 -0.0432415456 0.0542396754 0.191855803 -0.0229855403 0.057924483 0.209441543 -0.0226063374 0.0579086803 0.209146321 -0.0225130226 0.057904277 0.209070653 -0.0432415456 0.0542396754 0.191855803 -0.0224360507 0.0578990728 0.208980188 -0.0432415456 0.0542396754 0.191855803 -0.0225130226 0.057904277 0.209070653 -0.0224360507 0.0578990728 0.208980188 -0.0224046931 0.0578921549 0.208864376 -0.0432415456 0.0542396754 0.191855803 -0.0432415456 0.0542396754 0.191855803 -0.0224046931 0.0578921549 0.208864376 -0.0223988499 0.0578845702 0.208743125 -0.0237308536 0.0575468242 0.205163911 -0.0432415456 0.0542396754 0.191855803 -0.0223988499 0.0578845702 0.208743125 -0.0237308536 0.0575468242 0.205163911 -0.0254780818 0.057018768 0.201776564 -0.0432415456 0.0542396754 0.191855803 -0.0432415456 0.0542396754 0.191855803 -0.0254780818 0.057018768 0.201776564 -0.0292090811 0.0554082133 0.195255533 -0.0369445048 0.0500833094 0.18314831 -0.0432415456 0.0542396754 0.191855803 -0.0292090811 0.0554082133 0.195255533 -0.0369445048 0.0500833094 0.18314831 -0.0514572114 0.0423732735 0.172795475 -0.0432415456 0.0542396754 0.191855803 -0.0369445048 0.0500833094 0.18314831 -0.051200483 0.0314704329 0.163680136 -0.0514572114 0.0423732735 0.172795475 -0.0514572114 0.0423732735 0.172795475 -0.051200483 0.0314704329 0.163680136 -0.0571147837 0.0241570249 0.15967001 -0.0571147837 0.0241570249 0.15967001 -0.051200483 0.0314704329 0.163680136 -0.0564513691 0.0186070185 0.157465562 -0.0593294241 0.003913505 0.15453203 -0.0571147837 0.0241570249 0.15967001 -0.0564513691 0.0186070185 0.157465562 -0.0577263422 0.00115822244 0.152029186 -0.0577364862 1.70849681e-08 0.152249858 -0.0575872026 0.00412020227 0.152527243 -0.0577075891 0.00215233164 0.151399851 -0.0575872026 0.00412020227 0.152527243 -0.0526940227 0.0236785877 0.151399866 -0.0577075891 0.00215233164 0.151399851 -0.0577263422 0.00115822244 0.152029186 -0.0575872026 0.00412020227 0.152527243 -0.0579116084 -3.1454281e-08 0.153390571 -0.058035709 0.00412013987 0.153945535 -0.0577933826 1.41848515e-08 0.153032482 -0.0579116084 -3.1454281e-08 0.153390571 -0.0581039302 1.4028938e-08 0.153708369 -0.058035709 0.00412013987 0.153945535 -0.058035709 0.00412013987 0.153945535 -0.0581039302 1.4028938e-08 0.153708369 -0.0586620271 -7.74018538e-09 0.154188067 -0.0564513691 0.0186070185 0.157465562 -0.0586620271 -7.74018538e-09 0.154188067 -0.0593294241 0.003913505 0.15453203 -0.0564513691 0.0186070185 0.157465562 -0.058035709 0.00412013987 0.153945535 -0.0586620271 -7.74018538e-09 0.154188067 -0.0564513691 0.0186070185 0.157465562 -0.0524808764 0.025353007 0.159179702 -0.058035709 0.00412013987 0.153945535 -0.0564513691 0.0186070185 0.157465562 -0.051200483 0.0314704329 0.163680136 -0.0524808764 0.025353007 0.159179702 -0.0524808764 0.025353007 0.159179702 -0.051200483 0.0314704329 0.163680136 -0.0396432914 0.0433283411 0.171261966 -0.051769238 0.0253530573 0.154761404 -0.0396432914 0.0433283411 0.171261966 -0.0380692594 0.043328397 0.159912169 -0.0399916209 0.0417662375 0.151399836 -0.0380692594 0.043328397 0.159912169 -0.0214450322 0.0537886731 0.151399866 -0.0399916209 0.0417662375 0.151399836 -0.051769238 0.0253530573 0.154761404 -0.0380692594 0.043328397 0.159912169 -0.0399916209 0.0417662375 0.151399836 -0.0526940227 0.0236785877 0.151399866 -0.051769238 0.0253530573 0.154761404 -0.051769238 0.0253530573 0.154761404 -0.0526940227 0.0236785877 0.151399866 -0.0575872026 0.00412020227 0.152527243 -0.0524808764 0.025353007 0.159179702 -0.0575872026 0.00412020227 0.152527243 -0.058035709 0.00412013987 0.153945535 -0.0524808764 0.025353007 0.159179702 -0.051769238 0.0253530573 0.154761404 -0.0575872026 0.00412020227 0.152527243 -0.0524808764 0.025353007 0.159179702 -0.0396432914 0.0433283411 0.171261966 -0.051769238 0.0253530573 0.154761404 -0.05938958 3.17198854e-08 0.154392436 -0.0593745224 0.00195742794 0.154427454 -0.0586620271 -7.74018538e-09 0.154188067 -0.0586620271 -7.74018538e-09 0.154188067 -0.0593745224 0.00195742794 0.154427454 -0.0593294241 0.003913505 0.15453203 -0.051200483 0.0314704329 0.163680136 -0.0369445048 0.0500833094 0.18314831 -0.0396432914 0.0433283411 0.171261966 -0.0396432914 0.0433283411 0.171261966 -0.0369445048 0.0500833094 0.18314831 -0.0216485336 0.0547873601 0.188183978 -0.0380692594 0.043328397 0.159912169 -0.0216485336 0.0547873601 0.188183978 -0.0186200757 0.0547874458 0.167119995 -0.0214450322 0.0537886731 0.151399866 -0.0186200757 0.0547874458 0.167119995 0.000252411293 0.0580000095 0.164738372 0.000252406404 0.0580000207 0.151404053 -0.0214450322 0.0537886731 0.151399866 0.000252411293 0.0580000095 0.164738372 -0.0369445048 0.0500833094 0.18314831 -0.0292090811 0.0554082133 0.195255533 -0.0216485336 0.0547873601 0.188183978 -0.0216485336 0.0547873601 0.188183978 -0.0292090811 0.0554082133 0.195255533 -0.0254780818 0.057018768 0.201776564 -0.0142842373 0.0579981245 0.21193099 -0.0254780818 0.057018768 0.201776564 -0.0237308536 0.0575468242 0.205163911 -0.0223988499 0.0578845702 0.208743125 -0.0142842373 0.0579981245 0.21193099 -0.0237308536 0.0575468242 0.205163911 -0.0223988499 0.0578845702 0.208743125 -0.0224046931 0.0578921549 0.208864376 -0.0142842373 0.0579981245 0.21193099 -0.0142842373 0.0579981245 0.21193099 -0.0224046931 0.0578921549 0.208864376 -0.0224360507 0.0578990728 0.208980188 -0.0225130226 0.057904277 0.209070653 -0.0142842373 0.0579981245 0.21193099 -0.0224360507 0.0578990728 0.208980188 -0.0142842373 0.0579981245 0.21193099 -0.0225130226 0.057904277 0.209070653 -0.0218746886 0.0579990745 0.212086827 -0.0218746886 0.0579990745 0.212086827 -0.0225130226 0.057904277 0.209070653 -0.0226063374 0.0579086803 0.209146321 -0.0229855403 0.057924483 0.209441543 -0.0218746886 0.0579990745 0.212086827 -0.0226063374 0.0579086803 0.209146321 -0.0229855403 0.057924483 0.209441543 -0.0237652324 0.0579504967 0.210003257 -0.0218746886 0.0579990745 0.212086827 -0.0218746886 0.0579990745 0.212086827 -0.0237652324 0.0579504967 0.210003257 -0.0237712115 0.0579980277 0.211930275 -0.0237712115 0.0579980277 0.211930275 -0.0237652324 0.0579504967 0.210003257 -0.0252692848 0.0579873286 0.211187899 -0.0247090999 0.0579964966 0.21176444 -0.0252692848 0.0579873286 0.211187899 -0.0253155604 0.0579895154 0.211298972 -0.0251530409 0.0579943769 0.211592928 -0.0253155604 0.0579895154 0.211298972 -0.0253113005 0.0579916909 0.211417675 -0.0253113005 0.0579916909 0.211417675 -0.0252474006 0.0579932854 0.21151872 -0.0251530409 0.0579943769 0.211592928 -0.0251530409 0.0579943769 0.211592928 -0.0247090999 0.0579964966 0.21176444 -0.0253155604 0.0579895154 0.211298972 -0.0247090999 0.0579964966 0.21176444 -0.0237712115 0.0579980277 0.211930275 -0.0252692848 0.0579873286 0.211187899 0.000252392259 0.0578223504 0.207863644 -0.00119996304 0.0579009317 0.207406253 -0.0142842373 0.0579981245 0.21193099 0.000252392259 0.0578223504 0.207863644 0.000252414058 0.0579998009 0.192969203 -0.00119996304 0.0579009317 0.207406253 -0.00119996304 0.0579009317 0.207406253 0.000252414058 0.0579998009 0.192969203 -0.0216485336 0.0547873601 0.188183978 -0.0142842373 0.0579981245 0.21193099 -0.0216485336 0.0547873601 0.188183978 -0.0254780818 0.057018768 0.201776564 -0.0142842373 0.0579981245 0.21193099 -0.00119996304 0.0579009317 0.207406253 -0.0216485336 0.0547873601 0.188183978 -0.0216485336 0.0547873601 0.188183978 0.000252414058 0.0579998009 0.192969203 -0.0186200757 0.0547874458 0.167119995 -0.0186200757 0.0547874458 0.167119995 0.000252414058 0.0579998009 0.192969203 0.000252403319 0.0580000021 0.178072706 0.000252411293 0.0580000095 0.164738372 -0.0186200757 0.0547874458 0.167119995 0.000252403319 0.0580000021 0.178072706 -0.0380692594 0.043328397 0.159912169 -0.0186200757 0.0547874458 0.167119995 -0.0214450322 0.0537886731 0.151399866 -0.0396432914 0.0433283411 0.171261966 -0.0216485336 0.0547873601 0.188183978 -0.0380692594 0.043328397 0.159912169 -0.0577364862 1.70849681e-08 0.152249858 -0.0577933826 1.41848515e-08 0.153032482 -0.0575872026 0.00412020227 0.152527243 -0.0575872026 0.00412020227 0.152527243 -0.0577933826 1.41848515e-08 0.153032482 -0.058035709 0.00412013987 0.153945535 0.000252406404 0.0580000207 0.151404053 0.000252419501 0.0579999685 0.146099865 -0.0214450322 0.0537886731 0.151399866 -0.0214450322 0.0537886731 0.151399866 0.000252419501 0.0579999685 0.146099865 -0.0212132894 0.0538815372 0.146099865 -0.0396305434 0.0421111546 0.146099865 -0.0214450322 0.0537886731 0.151399866 -0.0212132894 0.0538815372 0.146099865 -0.0396305434 0.0421111546 0.146099865 -0.0399916209 0.0417662375 0.151399836 -0.0214450322 0.0537886731 0.151399866 -0.0396305434 0.0421111546 0.146099865 -0.0523838103 0.024360314 0.146099865 -0.0399916209 0.0417662375 0.151399836 -0.0399916209 0.0417662375 0.151399836 -0.0523838103 0.024360314 0.146099865 -0.0526940227 0.0236785877 0.151399866 -0.0526940227 0.0236785877 0.151399866 -0.0523838103 0.024360314 0.146099865 -0.0576755367 0.00289004669 0.150352806 -0.0577075891 0.00215233164 0.151399851 -0.0526940227 0.0236785877 0.151399866 -0.0576755367 0.00289004669 0.150352806 -0.0576619804 0.00315001095 0.146099851 -0.0576619841 0.00315001607 0.149099872 -0.0523838103 0.024360314 0.146099865 -0.0523838103 0.024360314 0.146099865 -0.0576619841 0.00315001607 0.149099872 -0.0576755367 0.00289004669 0.150352806 0.058252383 -3.55254528e-08 0.151399851 0.058243528 -2.45790623e-08 0.152436852 0.0538373999 -0.0221956633 0.151399851 0.0538373999 -0.0221956633 0.151399851 0.058243528 -2.45790623e-08 0.152436852 0.0534377024 -0.0228237808 0.15471226 0.0412645787 -0.0410121791 0.151399851 0.0534377024 -0.0228237808 0.15471226 0.0396687128 -0.0423056148 0.160601959 0.0224480443 -0.053584978 0.151399851 0.0396687128 -0.0423056148 0.160601959 0.0203369986 -0.05434113 0.168757096 0.000252403261 -0.0580000505 0.164736286 0.0203369986 -0.05434113 0.168757096 0.000252410857 -0.0580000095 0.178072691 0.000252403261 -0.0580000505 0.164736286 0.0224480443 -0.053584978 0.151399851 0.0203369986 -0.05434113 0.168757096 0.000252403261 -0.0580000505 0.164736286 0.000252406782 -0.0580000579 0.151399851 0.0224480443 -0.053584978 0.151399851 0.058243528 -2.45790623e-08 0.152436852 0.0584269054 -8.51597726e-09 0.153412551 0.0534377024 -0.0228237808 0.15471226 0.0534377024 -0.0228237808 0.15471226 0.0584269054 -8.51597726e-09 0.153412551 0.0545253046 -0.0228237621 0.158557937 0.0423852503 -0.0423055626 0.171471536 0.0545253046 -0.0228237621 0.158557937 0.0528475456 -0.0291707087 0.162269339 0.0460986309 -0.040560402 0.170940772 0.0423852503 -0.0423055626 0.171471536 0.0528475456 -0.0291707087 0.162269339 0.0460986309 -0.040560402 0.170940772 0.0384259 -0.04921408 0.181708261 0.0423852503 -0.0423055626 0.171471536 0.0423852503 -0.0423055626 0.171471536 0.0384259 -0.04921408 0.181708261 0.0255603585 -0.0543410517 0.189384654 0.0396687128 -0.0423056148 0.160601959 0.0255603585 -0.0543410517 0.189384654 0.0203369986 -0.05434113 0.168757096 0.0396687128 -0.0423056148 0.160601959 0.0423852503 -0.0423055626 0.171471536 0.0255603585 -0.0543410517 0.189384654 0.0396687128 -0.0423056148 0.160601959 0.0534377024 -0.0228237808 0.15471226 0.0423852503 -0.0423055626 0.171471536 0.0423852503 -0.0423055626 0.171471536 0.0534377024 -0.0228237808 0.15471226 0.0545253046 -0.0228237621 0.158557937 0.0584269054 -8.51597726e-09 0.153412551 0.0586940087 -1.65826854e-08 0.153812036 0.0545253046 -0.0228237621 0.158557937 0.0545253046 -0.0228237621 0.158557937 0.0586940087 -1.65826854e-08 0.153812036 0.0590579808 4.46369199e-08 0.154123545 0.0578643754 -0.0154630933 0.156499133 0.0590579808 4.46369199e-08 0.154123545 0.0594985075 4.31190994e-09 0.154325336 0.0599942841 -2.01346495e-08 0.154399842 0.0578643754 -0.0154630933 0.156499133 0.0594985075 4.31190994e-09 0.154325336 0.0590579808 4.46369199e-08 0.154123545 0.0578643754 -0.0154630933 0.156499133 0.0545253046 -0.0228237621 0.158557937 0.0545253046 -0.0228237621 0.158557937 0.0578643754 -0.0154630933 0.156499133 0.0528475456 -0.0291707087 0.162269339 0.0384259 -0.04921408 0.181708261 0.0304444283 -0.0550206937 0.194049746 0.0255603585 -0.0543410517 0.189384654 0.0255603585 -0.0543410517 0.189384654 0.0304444283 -0.0550206937 0.194049746 0.00703403587 -0.0579843111 0.209117338 0.000252414495 -0.0579998642 0.192968965 0.00703403587 -0.0579843111 0.209117338 0.000252391561 -0.0578223243 0.207863644 0.000252414495 -0.0579998642 0.192968965 0.0255603585 -0.0543410517 0.189384654 0.00703403587 -0.0579843111 0.209117338 0.000252414495 -0.0579998642 0.192968965 0.0203369986 -0.05434113 0.168757096 0.0255603585 -0.0543410517 0.189384654 0.000252414495 -0.0579998642 0.192968965 0.000252410857 -0.0580000095 0.178072691 0.0203369986 -0.05434113 0.168757096 0.0304444283 -0.0550206937 0.194049746 0.023116542 -0.0578166842 0.207791537 0.00703403587 -0.0579843111 0.209117338 0.00703403587 -0.0579843111 0.209117338 0.023116542 -0.0578166842 0.207791537 0.0152687756 -0.0579985492 0.211991459 0.000252391561 -0.0578223243 0.207863644 0.00703403587 -0.0579843111 0.209117338 0.0152687756 -0.0579985492 0.211991459 0.023116542 -0.0578166842 0.207791537 0.0229034647 -0.0578854717 0.208757415 0.0152687756 -0.0579985492 0.211991459 0.0152687756 -0.0579985492 0.211991459 0.0229034647 -0.0578854717 0.208757415 0.0229120776 -0.0578932203 0.208881855 0.0229511373 -0.057900209 0.208999783 0.0152687756 -0.0579985492 0.211991459 0.0229120776 -0.0578932203 0.208881855 0.0229511373 -0.057900209 0.208999783 0.0231341217 -0.0579097159 0.209164739 0.0152687756 -0.0579985492 0.211991459 0.0152687756 -0.0579985492 0.211991459 0.0231341217 -0.0579097159 0.209164739 0.0231042467 -0.0579988584 0.212040856 0.0231042467 -0.0579988584 0.212040856 0.0231341217 -0.0579097159 0.209164739 0.0235260837 -0.0579258464 0.209468469 0.0251460429 -0.0579724573 0.210612684 0.0231042467 -0.0579988584 0.212040856 0.0235260837 -0.0579258464 0.209468469 0.0251460429 -0.0579724573 0.210612684 0.0255357865 -0.057981126 0.210919812 0.0231042467 -0.0579988584 0.212040856 0.0231042467 -0.0579988584 0.212040856 0.0255357865 -0.057981126 0.210919812 0.0250528362 -0.0579969548 0.211803138 0.0250528362 -0.0579969548 0.211803138 0.0255357865 -0.057981126 0.210919812 0.0257095676 -0.0579853468 0.211096898 0.0257803462 -0.0579875782 0.211198747 0.0250528362 -0.0579969548 0.211803138 0.0257095676 -0.0579853468 0.211096898 0.0257803462 -0.0579875782 0.211198747 0.0255230721 -0.0579952858 0.211662129 0.0250528362 -0.0579969548 0.211803138 0.0257803462 -0.0579875782 0.211198747 0.0258234255 -0.0579898655 0.211314887 0.0255230721 -0.0579952858 0.211662129 0.0255230721 -0.0579952858 0.211662129 0.0258234255 -0.0579898655 0.211314887 0.0258090366 -0.0579919592 0.211436421 0.0258090366 -0.0579919592 0.211436421 0.0257348921 -0.0579935536 0.211535439 0.0255230721 -0.0579952858 0.211662129 0.0224480443 -0.053584978 0.151399851 0.0412645787 -0.0410121791 0.151399851 0.0396687128 -0.0423056148 0.160601959 0.0412645787 -0.0410121791 0.151399851 0.0538373999 -0.0221956633 0.151399851 0.0534377024 -0.0228237808 0.15471226 -0.0593745336 -0.00195706193 0.154427424 -0.0593294241 0.003913505 0.15453203 -0.0593745224 0.00195742794 0.154427454 -0.05938958 3.17198854e-08 0.154392436 -0.0593745336 -0.00195706193 0.154427424 -0.0593745224 0.00195742794 0.154427454 -0.0593745336 -0.00195706193 0.154427424 -0.0593294539 -0.00391360372 0.15453203 -0.0593294241 0.003913505 0.15453203 -0.0576619804 0.00315001095 0.146099851 -0.0576620139 -0.00314997905 0.146099851 -0.0576619841 0.00315001607 0.149099872 -0.0576620139 -0.00314997905 0.146099851 -0.0576619767 -0.00315002073 0.149099857 -0.0576619841 0.00315001607 0.149099872 -0.0576619767 -0.00315002073 0.149099857 -0.0576755479 -0.00289005274 0.150352806 -0.0576619841 0.00315001607 0.149099872 -0.0576755479 -0.00289005274 0.150352806 -0.0577075891 -0.00215235306 0.151399836 -0.0576619841 0.00315001607 0.149099872 -0.0577075891 -0.00215235306 0.151399836 -0.0577264018 -0.00115602848 0.152030051 -0.0576619841 0.00315001607 0.149099872 -0.0577264018 -0.00115602848 0.152030051 -0.0577364862 1.70849681e-08 0.152249858 -0.0576619841 0.00315001607 0.149099872 -0.0577364862 1.70849681e-08 0.152249858 -0.0577263422 0.00115822244 0.152029186 -0.0576619841 0.00315001607 0.149099872 -0.0577263422 0.00115822244 0.152029186 -0.0577075891 0.00215233164 0.151399851 -0.0576619841 0.00315001607 0.149099872 -0.0577075891 0.00215233164 0.151399851 -0.0576755367 0.00289004669 0.150352806 -0.0576619841 0.00315001607 0.149099872 -0.0371517316 -0.0499028005 0.182841286 -0.0295214411 -0.0552453585 0.194737792 -0.0432415791 -0.0542396605 0.191855803 -0.0514572747 -0.0423732251 0.17279546 -0.0371517316 -0.0499028005 0.182841286 -0.0432415791 -0.0542396605 0.191855803 -0.0512243249 -0.0314245149 0.163650483 -0.0371517316 -0.0499028005 0.182841286 -0.0514572747 -0.0423732251 0.17279546 -0.0571148135 -0.0241570249 0.15967001 -0.0512243249 -0.0314245149 0.163650483 -0.0514572747 -0.0423732251 0.17279546 </float_array>
          <technique_common>
            <accessor count="1164" offset="0" source="#mesh_0-positions-array" stride="3">
              <param name="X" type="float" />
              <param name="Y" type="float" />
              <param name="Z" type="float" />
            </accessor>
          </technique_common>
        </source>
        <vertices id="mesh_0-vertices">
          <input semantic="POSITION" source="#mesh_0-positions" />
        </vertices>
        <polylist count="388" material="defaultMaterial">
          <input offset="0" semantic="VERTEX" source="#mesh_0-vertices" />
          <vcount>3 3 3 3 3 3 3 3 3 3 3 3 3 3 3 3 3 3 3 3 3 3 3 3 3 3 3 3 3 3 3 3 3 3 3 3 3 3 3 3 3 3 3 3 3 3 3 3 3 3 3 3 3 3 3 3 3 3 3 3 3 3 3 3 3 3 3 3 3 3 3 3 3 3 3 3 3 3 3 3 3 3 3 3 3 3 3 3 3 3 3 3 3 3 3 3 3 3 3 3 3 3 3 3 3 3 3 3 3 3 3 3 3 3 3 3 3 3 3 3 3 3 3 3 3 3 3 3 3 3 3 3 3 3 3 3 3 3 3 3 3 3 3 3 3 3 3 3 3 3 3 3 3 3 3 3 3 3 3 3 3 3 3 3 3 3 3 3 3 3 3 3 3 3 3 3 3 3 3 3 3 3 3 3 3 3 3 3 3 3 3 3 3 3 3 3 3 3 3 3 3 3 3 3 3 3 3 3 3 3 3 3 3 3 3 3 3 3 3 3 3 3 3 3 3 3 3 3 3 3 3 3 3 3 3 3 3 3 3 3 3 3 3 3 3 3 3 3 3 3 3 3 3 3 3 3 3 3 3 3 3 3 3 3 3 3 3 3 3 3 3 3 3 3 3 3 3 3 3 3 3 3 3 3 3 3 3 3 3 3 3 3 3 3 3 3 3 3 3 3 3 3 3 3 3 3 3 3 3 3 3 3 3 3 3 3 3 3 3 3 3 3 3 3 3 3 3 3 3 3 3 3 3 3 3 3 3 3 3 3 3 3 3 3 3 3 3 3 3 3 3 3 3 3 3 3 3 3 3 3 3 3 3 3 3 3 3 3 3 3 3 3 3 3 3 3 3 3 3 3 3 3 3 3 3 3 3 3 </vcount>
          <p>0 1 2 3 4 5 6 7 8 9 10 11 12 13 14 15 16 17 18 19 20 21 22 23 24 25 26 27 28 29 30 31 32 33 34 35 36 37 38 39 40 41 42 43 44 45 46 47 48 49 50 51 52 53 54 55 56 57 58 59 60 61 62 63 64 65 66 67 68 69 70 71 72 73 74 75 76 77 78 79 80 81 82 83 84 85 86 87 88 89 90 91 92 93 94 95 96 97 98 99 100 101 102 103 104 105 106 107 108 109 110 111 112 113 114 115 116 117 118 119 120 121 122 123 124 125 126 127 128 129 130 131 132 133 134 135 136 137 138 139 140 141 142 143 144 145 146 147 148 149 150 151 152 153 154 155 156 157 158 159 160 161 162 163 164 165 166 167 168 169 170 171 172 173 174 175 176 177 178 179 180 181 182 183 184 185 186 187 188 189 190 191 192 193 194 195 196 197 198 199 200 201 202 203 204 205 206 207 208 209 210 211 212 213 214 215 216 217 218 219 220 221 222 223 224 225 226 227 228 229 230 231 232 233 234 235 236 237 238 239 240 241 242 243 244 245 246 247 248 249 250 251 252 253 254 255 256 257 258 259 260 261 262 263 264 265 266 267 268 269 270 271 272 273 274 275 276 277 278 279 280 281 282 283 284 285 286 287 288 289 290 291 292 293 294 295 296 297 298 299 300 301 302 303 304 305 306 307 308 309 310 311 312 313 314 315 316 317 318 319 320 321 322 323 324 325 326 327 328 329 330 331 332 333 334 335 336 337 338 339 340 341 342 343 344 345 346 347 348 349 350 351 352 353 354 355 356 357 358 359 360 361 362 363 364 365 366 367 368 369 370 371 372 373 374 375 376 377 378 379 380 381 382 383 384 385 386 387 388 389 390 391 392 393 394 395 396 397 398 399 400 401 402 403 404 405 406 407 408 409 410 411 412 413 414 415 416 417 418 419 420 421 422 423 424 425 426 427 428 429 430 431 432 433 434 435 436 437 438 439 440 441 442 443 444 445 446 447 448 449 450 451 452 453 454 455 456 457 458 459 460 461 462 463 464 465 466 467 468 469 470 471 472 473 474 475 476 477 478 479 480 481 482 483 484 485 486 487 488 489 490 491 492 493 494 495 496 497 498 499 500 501 502 503 504 505 506 507 508 509 510 511 512 513 514 515 516 517 518 519 520 521 522 523 524 525 526 527 528 529 530 531 532 533 534 535 536 537 538 539 540 541 542 543 544 545 546 547 548 549 550 551 552 553 554 555 556 557 558 559 560 561 562 563 564 565 566 567 568 569 570 571 572 573 574 575 576 577 578 579 580 581 582 583 584 585 586 587 588 589 590 591 592 593 594 595 596 597 598 599 600 601 602 603 604 605 606 607 608 609 610 611 612 613 614 615 616 617 618 619 620 621 622 623 624 625 626 627 628 629 630 631 632 633 634 635 636 637 638 639 640 641 642 643 644 645 646 647 648 649 650 651 652 653 654 655 656 657 658 659 660 661 662 663 664 665 666 667 668 669 670 671 672 673 674 675 676 677 678 679 680 681 682 683 684 685 686 687 688 689 690 691 692 693 694 695 696 697 698 699 700 701 702 703 704 705 706 707 708 709 710 711 712 713 714 715 716 717 718 719 720 721 722 723 724 725 726 727 728 729 730 731 732 733 734 735 736 737 738 739 740 741 742 743 744 745 746 747 748 749 750 751 752 753 754 755 756 757 758 759 760 761 762 763 764 765 766 767 768 769 770 771 772 773 774 775 776 777 778 779 780 781 782 783 784 785 786 787 788 789 790 791 792 793 794 795 796 797 798 799 800 801 802 803 804 805 806 807 808 809 810 811 812 813 814 815 816 817 818 819 820 821 822 823 824 825 826 827 828 829 830 831 832 833 834 835 836 837 838 839 840 841 842 843 844 845 846 847 848 849 850 851 852 853 854 855 856 857 858 859 860 861 862 863 864 865 866 867 868 869 870 871 872 873 874 875 876 877 878 879 880 881 882 883 884 885 886 887 888 889 890 891 892 893 894 895 896 897 898 899 900 901 902 903 904 905 906 907 908 909 910 911 912 913 914 915 916 917 918 919 920 921 922 923 924 925 926 927 928 929 930 931 932 933 934 935 936 937 938 939 940 941 942 943 944 945 946 947 948 949 950 951 952 953 954 955 956 957 958 959 960 961 962 963 964 965 966 967 968 969 970 971 972 973 974 975 976 977 978 979 980 981 982 983 984 985 986 987 988 989 990 991 992 993 994 995 996 997 998 999 1000 1001 1002 1003 1004 1005 1006 1007 1008 1009 1010 1011 1012 1013 1014 1015 1016 1017 1018 1019 1020 1021 1022 1023 1024 1025 1026 1027 1028 1029 1030 1031 1032 1033 1034 1035 1036 1037 1038 1039 1040 1041 1042 1043 1044 1045 1046 1047 1048 1049 1050 1051 1052 1053 1054 1055 1056 1057 1058 1059 1060 1061 1062 1063 1064 1065 1066 1067 1068 1069 1070 1071 1072 1073 1074 1075 1076 1077 1078 1079 1080 1081 1082 1083 1084 1085 1086 1087 1088 1089 1090 1091 1092 1093 1094 1095 1096 1097 1098 1099 1100 1101 1102 1103 1104 1105 1106 1107 1108 1109 1110 1111 1112 1113 1114 1115 1116 1117 1118 1119 1120 1121 1122 1123 1124 1125 1126 1127 1128 1129 1130 1131 1132 1133 1134 1135 1136 1137 1138 1139 1140 1141 1142 1143 1144 1145 1146 1147 1148 1149 1150 1151 1152 1153 1154 1155 1156 1157 1158 1159 1160 1161 1162 1163 </p>
        </polylist>
      </mesh>
    </geometry>
  </library_geometries>
  <library_controllers>
  </library_controllers>
  <library_visual_scenes>
    <visual_scene id="Scene" name="Scene">
      <node id="node" name="" type="NODE">
        <matrix sid="matrix">1 0 0 0 0 1 0 0 0 0 1 0 0 0 0 1</matrix>
        <instance_geometry url="#mesh_0">
          <bind_material>
            <technique_common>
              <instance_material symbol="defaultMaterial" target="#material_0">
              </instance_material>
            </technique_common>
          </bind_material>
        </instance_geometry>
      </node>
    </visual_scene>
  </library_visual_scenes>
  <scene>
    <instance_visual_scene url="#Scene" />
  </scene>
</COLLADA>
